G04 #@! TF.GenerationSoftware,KiCad,Pcbnew,(5.1.5-0-10_14)*
G04 #@! TF.CreationDate,2020-03-09T11:35:15+01:00*
G04 #@! TF.ProjectId,pro_micro_shield,70726f5f-6d69-4637-926f-5f736869656c,rev?*
G04 #@! TF.SameCoordinates,Original*
G04 #@! TF.FileFunction,Copper,L2,Bot*
G04 #@! TF.FilePolarity,Positive*
%FSLAX46Y46*%
G04 Gerber Fmt 4.6, Leading zero omitted, Abs format (unit mm)*
G04 Created by KiCad (PCBNEW (5.1.5-0-10_14)) date 2020-03-09 11:35:15*
%MOMM*%
%LPD*%
G04 APERTURE LIST*
%ADD10C,2.499360*%
%ADD11R,2.499360X2.499360*%
%ADD12C,1.752600*%
%ADD13R,1.752600X1.752600*%
%ADD14C,0.250000*%
%ADD15C,0.254000*%
G04 APERTURE END LIST*
D10*
X163750000Y-107250000D03*
X160000000Y-107250000D03*
X189060000Y-107250000D03*
D11*
X185250000Y-107250000D03*
D10*
X168250000Y-107250000D03*
X172000000Y-107250000D03*
X180250000Y-107250000D03*
X176500000Y-107250000D03*
D12*
X182120000Y-73030000D03*
X166880000Y-100970000D03*
X182120000Y-75570000D03*
X182120000Y-78110000D03*
X182120000Y-80650000D03*
X182120000Y-83190000D03*
X182120000Y-85730000D03*
X182120000Y-88270000D03*
X182120000Y-90810000D03*
X182120000Y-93350000D03*
X182120000Y-95890000D03*
X182120000Y-98430000D03*
X182120000Y-100970000D03*
X166880000Y-98430000D03*
X166880000Y-95890000D03*
X166880000Y-93350000D03*
X166880000Y-90810000D03*
X166880000Y-88270000D03*
X166880000Y-85730000D03*
X166880000Y-83190000D03*
X166880000Y-80650000D03*
X166880000Y-78110000D03*
X166880000Y-75570000D03*
D13*
X166880000Y-73030000D03*
D10*
X164560000Y-113750000D03*
D11*
X160750000Y-113750000D03*
D10*
X189000000Y-94400000D03*
X189000000Y-97575000D03*
D11*
X189000000Y-100750000D03*
D10*
X189000000Y-83900000D03*
X189000000Y-87075000D03*
D11*
X189000000Y-90250000D03*
D10*
X189000000Y-73325000D03*
X189000000Y-76500000D03*
D11*
X189000000Y-79675000D03*
D10*
X160000000Y-97350000D03*
X160000000Y-94175000D03*
D11*
X160000000Y-91000000D03*
D10*
X160000000Y-85350000D03*
X160000000Y-82175000D03*
D11*
X160000000Y-79000000D03*
D10*
X188560000Y-113750000D03*
D11*
X184750000Y-113750000D03*
D10*
X180560000Y-113750000D03*
D11*
X176750000Y-113750000D03*
D10*
X172560000Y-113750000D03*
D11*
X168750000Y-113750000D03*
D14*
X185500000Y-76825000D02*
X189000000Y-73325000D01*
X185500000Y-99750000D02*
X185500000Y-76825000D01*
X182750000Y-102500000D02*
X185500000Y-99750000D01*
X176030000Y-102500000D02*
X182750000Y-102500000D01*
X166880000Y-93350000D02*
X176030000Y-102500000D01*
X186000000Y-86900000D02*
X189000000Y-83900000D01*
X186000000Y-100000000D02*
X186000000Y-86900000D01*
X183000000Y-103000000D02*
X186000000Y-100000000D01*
X173990000Y-103000000D02*
X183000000Y-103000000D01*
X166880000Y-95890000D02*
X173990000Y-103000000D01*
X186500000Y-96900000D02*
X189000000Y-94400000D01*
X186500000Y-100250000D02*
X186500000Y-96900000D01*
X183250000Y-103500000D02*
X186500000Y-100250000D01*
X171950000Y-103500000D02*
X183250000Y-103500000D01*
X166880000Y-98430000D02*
X171950000Y-103500000D01*
X163325000Y-82175000D02*
X166880000Y-85730000D01*
X160000000Y-82175000D02*
X163325000Y-82175000D01*
X165905000Y-88270000D02*
X166880000Y-88270000D01*
X160000000Y-94175000D02*
X165905000Y-88270000D01*
D15*
G36*
X191090001Y-73217572D02*
G01*
X191090000Y-73217582D01*
X191090001Y-115467572D01*
X191090000Y-115467582D01*
X191090000Y-115840000D01*
X157910000Y-115840000D01*
X157910000Y-114999680D01*
X158862248Y-114999680D01*
X158874508Y-115124162D01*
X158910818Y-115243860D01*
X158969783Y-115354174D01*
X159049135Y-115450865D01*
X159145826Y-115530217D01*
X159256140Y-115589182D01*
X159375838Y-115625492D01*
X159500320Y-115637752D01*
X160464250Y-115634680D01*
X160623000Y-115475930D01*
X160623000Y-113877000D01*
X160877000Y-113877000D01*
X160877000Y-115475930D01*
X161035750Y-115634680D01*
X161999680Y-115637752D01*
X162124162Y-115625492D01*
X162243860Y-115589182D01*
X162354174Y-115530217D01*
X162450865Y-115450865D01*
X162530217Y-115354174D01*
X162589182Y-115243860D01*
X162625492Y-115124162D01*
X162637752Y-114999680D01*
X162634680Y-114035750D01*
X162475930Y-113877000D01*
X160877000Y-113877000D01*
X160623000Y-113877000D01*
X159024070Y-113877000D01*
X158865320Y-114035750D01*
X158862248Y-114999680D01*
X157910000Y-114999680D01*
X157910000Y-112500320D01*
X158862248Y-112500320D01*
X158865320Y-113464250D01*
X159024070Y-113623000D01*
X160623000Y-113623000D01*
X160623000Y-112024070D01*
X160877000Y-112024070D01*
X160877000Y-113623000D01*
X162475930Y-113623000D01*
X162534555Y-113564375D01*
X162675320Y-113564375D01*
X162675320Y-113935625D01*
X162747747Y-114299741D01*
X162889818Y-114642731D01*
X163096074Y-114951413D01*
X163358587Y-115213926D01*
X163667269Y-115420182D01*
X164010259Y-115562253D01*
X164374375Y-115634680D01*
X164745625Y-115634680D01*
X165109741Y-115562253D01*
X165452731Y-115420182D01*
X165761413Y-115213926D01*
X165975659Y-114999680D01*
X166862248Y-114999680D01*
X166874508Y-115124162D01*
X166910818Y-115243860D01*
X166969783Y-115354174D01*
X167049135Y-115450865D01*
X167145826Y-115530217D01*
X167256140Y-115589182D01*
X167375838Y-115625492D01*
X167500320Y-115637752D01*
X168464250Y-115634680D01*
X168623000Y-115475930D01*
X168623000Y-113877000D01*
X168877000Y-113877000D01*
X168877000Y-115475930D01*
X169035750Y-115634680D01*
X169999680Y-115637752D01*
X170124162Y-115625492D01*
X170243860Y-115589182D01*
X170354174Y-115530217D01*
X170450865Y-115450865D01*
X170530217Y-115354174D01*
X170589182Y-115243860D01*
X170625492Y-115124162D01*
X170637752Y-114999680D01*
X170634680Y-114035750D01*
X170475930Y-113877000D01*
X168877000Y-113877000D01*
X168623000Y-113877000D01*
X167024070Y-113877000D01*
X166865320Y-114035750D01*
X166862248Y-114999680D01*
X165975659Y-114999680D01*
X166023926Y-114951413D01*
X166230182Y-114642731D01*
X166372253Y-114299741D01*
X166444680Y-113935625D01*
X166444680Y-113564375D01*
X166372253Y-113200259D01*
X166230182Y-112857269D01*
X166023926Y-112548587D01*
X165975659Y-112500320D01*
X166862248Y-112500320D01*
X166865320Y-113464250D01*
X167024070Y-113623000D01*
X168623000Y-113623000D01*
X168623000Y-112024070D01*
X168877000Y-112024070D01*
X168877000Y-113623000D01*
X170475930Y-113623000D01*
X170534555Y-113564375D01*
X170675320Y-113564375D01*
X170675320Y-113935625D01*
X170747747Y-114299741D01*
X170889818Y-114642731D01*
X171096074Y-114951413D01*
X171358587Y-115213926D01*
X171667269Y-115420182D01*
X172010259Y-115562253D01*
X172374375Y-115634680D01*
X172745625Y-115634680D01*
X173109741Y-115562253D01*
X173452731Y-115420182D01*
X173761413Y-115213926D01*
X173975659Y-114999680D01*
X174862248Y-114999680D01*
X174874508Y-115124162D01*
X174910818Y-115243860D01*
X174969783Y-115354174D01*
X175049135Y-115450865D01*
X175145826Y-115530217D01*
X175256140Y-115589182D01*
X175375838Y-115625492D01*
X175500320Y-115637752D01*
X176464250Y-115634680D01*
X176623000Y-115475930D01*
X176623000Y-113877000D01*
X176877000Y-113877000D01*
X176877000Y-115475930D01*
X177035750Y-115634680D01*
X177999680Y-115637752D01*
X178124162Y-115625492D01*
X178243860Y-115589182D01*
X178354174Y-115530217D01*
X178450865Y-115450865D01*
X178530217Y-115354174D01*
X178589182Y-115243860D01*
X178625492Y-115124162D01*
X178637752Y-114999680D01*
X178634680Y-114035750D01*
X178475930Y-113877000D01*
X176877000Y-113877000D01*
X176623000Y-113877000D01*
X175024070Y-113877000D01*
X174865320Y-114035750D01*
X174862248Y-114999680D01*
X173975659Y-114999680D01*
X174023926Y-114951413D01*
X174230182Y-114642731D01*
X174372253Y-114299741D01*
X174444680Y-113935625D01*
X174444680Y-113564375D01*
X174372253Y-113200259D01*
X174230182Y-112857269D01*
X174023926Y-112548587D01*
X173975659Y-112500320D01*
X174862248Y-112500320D01*
X174865320Y-113464250D01*
X175024070Y-113623000D01*
X176623000Y-113623000D01*
X176623000Y-112024070D01*
X176877000Y-112024070D01*
X176877000Y-113623000D01*
X178475930Y-113623000D01*
X178534555Y-113564375D01*
X178675320Y-113564375D01*
X178675320Y-113935625D01*
X178747747Y-114299741D01*
X178889818Y-114642731D01*
X179096074Y-114951413D01*
X179358587Y-115213926D01*
X179667269Y-115420182D01*
X180010259Y-115562253D01*
X180374375Y-115634680D01*
X180745625Y-115634680D01*
X181109741Y-115562253D01*
X181452731Y-115420182D01*
X181761413Y-115213926D01*
X181975659Y-114999680D01*
X182862248Y-114999680D01*
X182874508Y-115124162D01*
X182910818Y-115243860D01*
X182969783Y-115354174D01*
X183049135Y-115450865D01*
X183145826Y-115530217D01*
X183256140Y-115589182D01*
X183375838Y-115625492D01*
X183500320Y-115637752D01*
X184464250Y-115634680D01*
X184623000Y-115475930D01*
X184623000Y-113877000D01*
X184877000Y-113877000D01*
X184877000Y-115475930D01*
X185035750Y-115634680D01*
X185999680Y-115637752D01*
X186124162Y-115625492D01*
X186243860Y-115589182D01*
X186354174Y-115530217D01*
X186450865Y-115450865D01*
X186530217Y-115354174D01*
X186589182Y-115243860D01*
X186625492Y-115124162D01*
X186637752Y-114999680D01*
X186634680Y-114035750D01*
X186475930Y-113877000D01*
X184877000Y-113877000D01*
X184623000Y-113877000D01*
X183024070Y-113877000D01*
X182865320Y-114035750D01*
X182862248Y-114999680D01*
X181975659Y-114999680D01*
X182023926Y-114951413D01*
X182230182Y-114642731D01*
X182372253Y-114299741D01*
X182444680Y-113935625D01*
X182444680Y-113564375D01*
X182372253Y-113200259D01*
X182230182Y-112857269D01*
X182023926Y-112548587D01*
X181975659Y-112500320D01*
X182862248Y-112500320D01*
X182865320Y-113464250D01*
X183024070Y-113623000D01*
X184623000Y-113623000D01*
X184623000Y-112024070D01*
X184877000Y-112024070D01*
X184877000Y-113623000D01*
X186475930Y-113623000D01*
X186534555Y-113564375D01*
X186675320Y-113564375D01*
X186675320Y-113935625D01*
X186747747Y-114299741D01*
X186889818Y-114642731D01*
X187096074Y-114951413D01*
X187358587Y-115213926D01*
X187667269Y-115420182D01*
X188010259Y-115562253D01*
X188374375Y-115634680D01*
X188745625Y-115634680D01*
X189109741Y-115562253D01*
X189452731Y-115420182D01*
X189761413Y-115213926D01*
X190023926Y-114951413D01*
X190230182Y-114642731D01*
X190372253Y-114299741D01*
X190444680Y-113935625D01*
X190444680Y-113564375D01*
X190372253Y-113200259D01*
X190230182Y-112857269D01*
X190023926Y-112548587D01*
X189761413Y-112286074D01*
X189452731Y-112079818D01*
X189109741Y-111937747D01*
X188745625Y-111865320D01*
X188374375Y-111865320D01*
X188010259Y-111937747D01*
X187667269Y-112079818D01*
X187358587Y-112286074D01*
X187096074Y-112548587D01*
X186889818Y-112857269D01*
X186747747Y-113200259D01*
X186675320Y-113564375D01*
X186534555Y-113564375D01*
X186634680Y-113464250D01*
X186637752Y-112500320D01*
X186625492Y-112375838D01*
X186589182Y-112256140D01*
X186530217Y-112145826D01*
X186450865Y-112049135D01*
X186354174Y-111969783D01*
X186243860Y-111910818D01*
X186124162Y-111874508D01*
X185999680Y-111862248D01*
X185035750Y-111865320D01*
X184877000Y-112024070D01*
X184623000Y-112024070D01*
X184464250Y-111865320D01*
X183500320Y-111862248D01*
X183375838Y-111874508D01*
X183256140Y-111910818D01*
X183145826Y-111969783D01*
X183049135Y-112049135D01*
X182969783Y-112145826D01*
X182910818Y-112256140D01*
X182874508Y-112375838D01*
X182862248Y-112500320D01*
X181975659Y-112500320D01*
X181761413Y-112286074D01*
X181452731Y-112079818D01*
X181109741Y-111937747D01*
X180745625Y-111865320D01*
X180374375Y-111865320D01*
X180010259Y-111937747D01*
X179667269Y-112079818D01*
X179358587Y-112286074D01*
X179096074Y-112548587D01*
X178889818Y-112857269D01*
X178747747Y-113200259D01*
X178675320Y-113564375D01*
X178534555Y-113564375D01*
X178634680Y-113464250D01*
X178637752Y-112500320D01*
X178625492Y-112375838D01*
X178589182Y-112256140D01*
X178530217Y-112145826D01*
X178450865Y-112049135D01*
X178354174Y-111969783D01*
X178243860Y-111910818D01*
X178124162Y-111874508D01*
X177999680Y-111862248D01*
X177035750Y-111865320D01*
X176877000Y-112024070D01*
X176623000Y-112024070D01*
X176464250Y-111865320D01*
X175500320Y-111862248D01*
X175375838Y-111874508D01*
X175256140Y-111910818D01*
X175145826Y-111969783D01*
X175049135Y-112049135D01*
X174969783Y-112145826D01*
X174910818Y-112256140D01*
X174874508Y-112375838D01*
X174862248Y-112500320D01*
X173975659Y-112500320D01*
X173761413Y-112286074D01*
X173452731Y-112079818D01*
X173109741Y-111937747D01*
X172745625Y-111865320D01*
X172374375Y-111865320D01*
X172010259Y-111937747D01*
X171667269Y-112079818D01*
X171358587Y-112286074D01*
X171096074Y-112548587D01*
X170889818Y-112857269D01*
X170747747Y-113200259D01*
X170675320Y-113564375D01*
X170534555Y-113564375D01*
X170634680Y-113464250D01*
X170637752Y-112500320D01*
X170625492Y-112375838D01*
X170589182Y-112256140D01*
X170530217Y-112145826D01*
X170450865Y-112049135D01*
X170354174Y-111969783D01*
X170243860Y-111910818D01*
X170124162Y-111874508D01*
X169999680Y-111862248D01*
X169035750Y-111865320D01*
X168877000Y-112024070D01*
X168623000Y-112024070D01*
X168464250Y-111865320D01*
X167500320Y-111862248D01*
X167375838Y-111874508D01*
X167256140Y-111910818D01*
X167145826Y-111969783D01*
X167049135Y-112049135D01*
X166969783Y-112145826D01*
X166910818Y-112256140D01*
X166874508Y-112375838D01*
X166862248Y-112500320D01*
X165975659Y-112500320D01*
X165761413Y-112286074D01*
X165452731Y-112079818D01*
X165109741Y-111937747D01*
X164745625Y-111865320D01*
X164374375Y-111865320D01*
X164010259Y-111937747D01*
X163667269Y-112079818D01*
X163358587Y-112286074D01*
X163096074Y-112548587D01*
X162889818Y-112857269D01*
X162747747Y-113200259D01*
X162675320Y-113564375D01*
X162534555Y-113564375D01*
X162634680Y-113464250D01*
X162637752Y-112500320D01*
X162625492Y-112375838D01*
X162589182Y-112256140D01*
X162530217Y-112145826D01*
X162450865Y-112049135D01*
X162354174Y-111969783D01*
X162243860Y-111910818D01*
X162124162Y-111874508D01*
X161999680Y-111862248D01*
X161035750Y-111865320D01*
X160877000Y-112024070D01*
X160623000Y-112024070D01*
X160464250Y-111865320D01*
X159500320Y-111862248D01*
X159375838Y-111874508D01*
X159256140Y-111910818D01*
X159145826Y-111969783D01*
X159049135Y-112049135D01*
X158969783Y-112145826D01*
X158910818Y-112256140D01*
X158874508Y-112375838D01*
X158862248Y-112500320D01*
X157910000Y-112500320D01*
X157910000Y-107064375D01*
X158115320Y-107064375D01*
X158115320Y-107435625D01*
X158187747Y-107799741D01*
X158329818Y-108142731D01*
X158536074Y-108451413D01*
X158798587Y-108713926D01*
X159107269Y-108920182D01*
X159450259Y-109062253D01*
X159814375Y-109134680D01*
X160185625Y-109134680D01*
X160549741Y-109062253D01*
X160892731Y-108920182D01*
X161201413Y-108713926D01*
X161463926Y-108451413D01*
X161670182Y-108142731D01*
X161812253Y-107799741D01*
X161875000Y-107484290D01*
X161937747Y-107799741D01*
X162079818Y-108142731D01*
X162286074Y-108451413D01*
X162548587Y-108713926D01*
X162857269Y-108920182D01*
X163200259Y-109062253D01*
X163564375Y-109134680D01*
X163935625Y-109134680D01*
X164299741Y-109062253D01*
X164642731Y-108920182D01*
X164951413Y-108713926D01*
X165101962Y-108563377D01*
X167116229Y-108563377D01*
X167242104Y-108853315D01*
X167574262Y-109019139D01*
X167932387Y-109116975D01*
X168302719Y-109143065D01*
X168671025Y-109096405D01*
X169023151Y-108978789D01*
X169257896Y-108853315D01*
X169383771Y-108563377D01*
X170866229Y-108563377D01*
X170992104Y-108853315D01*
X171324262Y-109019139D01*
X171682387Y-109116975D01*
X172052719Y-109143065D01*
X172421025Y-109096405D01*
X172773151Y-108978789D01*
X173007896Y-108853315D01*
X173133771Y-108563377D01*
X172000000Y-107429605D01*
X170866229Y-108563377D01*
X169383771Y-108563377D01*
X168250000Y-107429605D01*
X167116229Y-108563377D01*
X165101962Y-108563377D01*
X165213926Y-108451413D01*
X165420182Y-108142731D01*
X165562253Y-107799741D01*
X165634680Y-107435625D01*
X165634680Y-107302719D01*
X166356935Y-107302719D01*
X166403595Y-107671025D01*
X166521211Y-108023151D01*
X166646685Y-108257896D01*
X166936623Y-108383771D01*
X168070395Y-107250000D01*
X168429605Y-107250000D01*
X169563377Y-108383771D01*
X169853315Y-108257896D01*
X170019139Y-107925738D01*
X170116975Y-107567613D01*
X170125380Y-107448311D01*
X170153595Y-107671025D01*
X170271211Y-108023151D01*
X170396685Y-108257896D01*
X170686623Y-108383771D01*
X171820395Y-107250000D01*
X172179605Y-107250000D01*
X173313377Y-108383771D01*
X173603315Y-108257896D01*
X173769139Y-107925738D01*
X173866975Y-107567613D01*
X173893065Y-107197281D01*
X173876228Y-107064375D01*
X174615320Y-107064375D01*
X174615320Y-107435625D01*
X174687747Y-107799741D01*
X174829818Y-108142731D01*
X175036074Y-108451413D01*
X175298587Y-108713926D01*
X175607269Y-108920182D01*
X175950259Y-109062253D01*
X176314375Y-109134680D01*
X176685625Y-109134680D01*
X177049741Y-109062253D01*
X177392731Y-108920182D01*
X177701413Y-108713926D01*
X177963926Y-108451413D01*
X178170182Y-108142731D01*
X178312253Y-107799741D01*
X178375000Y-107484290D01*
X178437747Y-107799741D01*
X178579818Y-108142731D01*
X178786074Y-108451413D01*
X179048587Y-108713926D01*
X179357269Y-108920182D01*
X179700259Y-109062253D01*
X180064375Y-109134680D01*
X180435625Y-109134680D01*
X180799741Y-109062253D01*
X181142731Y-108920182D01*
X181451413Y-108713926D01*
X181665659Y-108499680D01*
X183362248Y-108499680D01*
X183374508Y-108624162D01*
X183410818Y-108743860D01*
X183469783Y-108854174D01*
X183549135Y-108950865D01*
X183645826Y-109030217D01*
X183756140Y-109089182D01*
X183875838Y-109125492D01*
X184000320Y-109137752D01*
X184964250Y-109134680D01*
X185123000Y-108975930D01*
X185123000Y-107377000D01*
X185377000Y-107377000D01*
X185377000Y-108975930D01*
X185535750Y-109134680D01*
X186499680Y-109137752D01*
X186624162Y-109125492D01*
X186743860Y-109089182D01*
X186854174Y-109030217D01*
X186950865Y-108950865D01*
X187030217Y-108854174D01*
X187089182Y-108743860D01*
X187125492Y-108624162D01*
X187137752Y-108499680D01*
X187134680Y-107535750D01*
X186975930Y-107377000D01*
X185377000Y-107377000D01*
X185123000Y-107377000D01*
X183524070Y-107377000D01*
X183365320Y-107535750D01*
X183362248Y-108499680D01*
X181665659Y-108499680D01*
X181713926Y-108451413D01*
X181920182Y-108142731D01*
X182062253Y-107799741D01*
X182134680Y-107435625D01*
X182134680Y-107064375D01*
X182062253Y-106700259D01*
X181920182Y-106357269D01*
X181713926Y-106048587D01*
X181665659Y-106000320D01*
X183362248Y-106000320D01*
X183365320Y-106964250D01*
X183524070Y-107123000D01*
X185123000Y-107123000D01*
X185123000Y-105524070D01*
X185377000Y-105524070D01*
X185377000Y-107123000D01*
X186975930Y-107123000D01*
X187034555Y-107064375D01*
X187175320Y-107064375D01*
X187175320Y-107435625D01*
X187247747Y-107799741D01*
X187389818Y-108142731D01*
X187596074Y-108451413D01*
X187858587Y-108713926D01*
X188167269Y-108920182D01*
X188510259Y-109062253D01*
X188874375Y-109134680D01*
X189245625Y-109134680D01*
X189609741Y-109062253D01*
X189952731Y-108920182D01*
X190261413Y-108713926D01*
X190523926Y-108451413D01*
X190730182Y-108142731D01*
X190872253Y-107799741D01*
X190944680Y-107435625D01*
X190944680Y-107064375D01*
X190872253Y-106700259D01*
X190730182Y-106357269D01*
X190523926Y-106048587D01*
X190261413Y-105786074D01*
X189952731Y-105579818D01*
X189609741Y-105437747D01*
X189245625Y-105365320D01*
X188874375Y-105365320D01*
X188510259Y-105437747D01*
X188167269Y-105579818D01*
X187858587Y-105786074D01*
X187596074Y-106048587D01*
X187389818Y-106357269D01*
X187247747Y-106700259D01*
X187175320Y-107064375D01*
X187034555Y-107064375D01*
X187134680Y-106964250D01*
X187137752Y-106000320D01*
X187125492Y-105875838D01*
X187089182Y-105756140D01*
X187030217Y-105645826D01*
X186950865Y-105549135D01*
X186854174Y-105469783D01*
X186743860Y-105410818D01*
X186624162Y-105374508D01*
X186499680Y-105362248D01*
X185535750Y-105365320D01*
X185377000Y-105524070D01*
X185123000Y-105524070D01*
X184964250Y-105365320D01*
X184000320Y-105362248D01*
X183875838Y-105374508D01*
X183756140Y-105410818D01*
X183645826Y-105469783D01*
X183549135Y-105549135D01*
X183469783Y-105645826D01*
X183410818Y-105756140D01*
X183374508Y-105875838D01*
X183362248Y-106000320D01*
X181665659Y-106000320D01*
X181451413Y-105786074D01*
X181142731Y-105579818D01*
X180799741Y-105437747D01*
X180435625Y-105365320D01*
X180064375Y-105365320D01*
X179700259Y-105437747D01*
X179357269Y-105579818D01*
X179048587Y-105786074D01*
X178786074Y-106048587D01*
X178579818Y-106357269D01*
X178437747Y-106700259D01*
X178375000Y-107015710D01*
X178312253Y-106700259D01*
X178170182Y-106357269D01*
X177963926Y-106048587D01*
X177701413Y-105786074D01*
X177392731Y-105579818D01*
X177049741Y-105437747D01*
X176685625Y-105365320D01*
X176314375Y-105365320D01*
X175950259Y-105437747D01*
X175607269Y-105579818D01*
X175298587Y-105786074D01*
X175036074Y-106048587D01*
X174829818Y-106357269D01*
X174687747Y-106700259D01*
X174615320Y-107064375D01*
X173876228Y-107064375D01*
X173846405Y-106828975D01*
X173728789Y-106476849D01*
X173603315Y-106242104D01*
X173313377Y-106116229D01*
X172179605Y-107250000D01*
X171820395Y-107250000D01*
X170686623Y-106116229D01*
X170396685Y-106242104D01*
X170230861Y-106574262D01*
X170133025Y-106932387D01*
X170124620Y-107051689D01*
X170096405Y-106828975D01*
X169978789Y-106476849D01*
X169853315Y-106242104D01*
X169563377Y-106116229D01*
X168429605Y-107250000D01*
X168070395Y-107250000D01*
X166936623Y-106116229D01*
X166646685Y-106242104D01*
X166480861Y-106574262D01*
X166383025Y-106932387D01*
X166356935Y-107302719D01*
X165634680Y-107302719D01*
X165634680Y-107064375D01*
X165562253Y-106700259D01*
X165420182Y-106357269D01*
X165213926Y-106048587D01*
X165101962Y-105936623D01*
X167116229Y-105936623D01*
X168250000Y-107070395D01*
X169383771Y-105936623D01*
X170866229Y-105936623D01*
X172000000Y-107070395D01*
X173133771Y-105936623D01*
X173007896Y-105646685D01*
X172675738Y-105480861D01*
X172317613Y-105383025D01*
X171947281Y-105356935D01*
X171578975Y-105403595D01*
X171226849Y-105521211D01*
X170992104Y-105646685D01*
X170866229Y-105936623D01*
X169383771Y-105936623D01*
X169257896Y-105646685D01*
X168925738Y-105480861D01*
X168567613Y-105383025D01*
X168197281Y-105356935D01*
X167828975Y-105403595D01*
X167476849Y-105521211D01*
X167242104Y-105646685D01*
X167116229Y-105936623D01*
X165101962Y-105936623D01*
X164951413Y-105786074D01*
X164642731Y-105579818D01*
X164299741Y-105437747D01*
X163935625Y-105365320D01*
X163564375Y-105365320D01*
X163200259Y-105437747D01*
X162857269Y-105579818D01*
X162548587Y-105786074D01*
X162286074Y-106048587D01*
X162079818Y-106357269D01*
X161937747Y-106700259D01*
X161875000Y-107015710D01*
X161812253Y-106700259D01*
X161670182Y-106357269D01*
X161463926Y-106048587D01*
X161201413Y-105786074D01*
X160892731Y-105579818D01*
X160549741Y-105437747D01*
X160185625Y-105365320D01*
X159814375Y-105365320D01*
X159450259Y-105437747D01*
X159107269Y-105579818D01*
X158798587Y-105786074D01*
X158536074Y-106048587D01*
X158329818Y-106357269D01*
X158187747Y-106700259D01*
X158115320Y-107064375D01*
X157910000Y-107064375D01*
X157910000Y-102579117D01*
X158765000Y-102579117D01*
X158765000Y-102920883D01*
X158831675Y-103256081D01*
X158962463Y-103571831D01*
X159152337Y-103855998D01*
X159394002Y-104097663D01*
X159678169Y-104287537D01*
X159993919Y-104418325D01*
X160329117Y-104485000D01*
X160670883Y-104485000D01*
X161006081Y-104418325D01*
X161321831Y-104287537D01*
X161605998Y-104097663D01*
X161847663Y-103855998D01*
X162037537Y-103571831D01*
X162168325Y-103256081D01*
X162235000Y-102920883D01*
X162235000Y-102579117D01*
X162168325Y-102243919D01*
X162037537Y-101928169D01*
X161847663Y-101644002D01*
X161605998Y-101402337D01*
X161321831Y-101212463D01*
X161006081Y-101081675D01*
X160670883Y-101015000D01*
X160329117Y-101015000D01*
X159993919Y-101081675D01*
X159678169Y-101212463D01*
X159394002Y-101402337D01*
X159152337Y-101644002D01*
X158962463Y-101928169D01*
X158831675Y-102243919D01*
X158765000Y-102579117D01*
X157910000Y-102579117D01*
X157910000Y-89750320D01*
X158112248Y-89750320D01*
X158115320Y-90714250D01*
X158274070Y-90873000D01*
X159873000Y-90873000D01*
X159873000Y-89274070D01*
X160127000Y-89274070D01*
X160127000Y-90873000D01*
X161725930Y-90873000D01*
X161884680Y-90714250D01*
X161887752Y-89750320D01*
X161875492Y-89625838D01*
X161839182Y-89506140D01*
X161780217Y-89395826D01*
X161700865Y-89299135D01*
X161604174Y-89219783D01*
X161493860Y-89160818D01*
X161374162Y-89124508D01*
X161249680Y-89112248D01*
X160285750Y-89115320D01*
X160127000Y-89274070D01*
X159873000Y-89274070D01*
X159714250Y-89115320D01*
X158750320Y-89112248D01*
X158625838Y-89124508D01*
X158506140Y-89160818D01*
X158395826Y-89219783D01*
X158299135Y-89299135D01*
X158219783Y-89395826D01*
X158160818Y-89506140D01*
X158124508Y-89625838D01*
X158112248Y-89750320D01*
X157910000Y-89750320D01*
X157910000Y-80249680D01*
X158112248Y-80249680D01*
X158124508Y-80374162D01*
X158160818Y-80493860D01*
X158219783Y-80604174D01*
X158299135Y-80700865D01*
X158395826Y-80780217D01*
X158506140Y-80839182D01*
X158625838Y-80875492D01*
X158633422Y-80876239D01*
X158536074Y-80973587D01*
X158329818Y-81282269D01*
X158187747Y-81625259D01*
X158115320Y-81989375D01*
X158115320Y-82360625D01*
X158187747Y-82724741D01*
X158329818Y-83067731D01*
X158536074Y-83376413D01*
X158798587Y-83638926D01*
X158983527Y-83762500D01*
X158798587Y-83886074D01*
X158536074Y-84148587D01*
X158329818Y-84457269D01*
X158187747Y-84800259D01*
X158115320Y-85164375D01*
X158115320Y-85535625D01*
X158187747Y-85899741D01*
X158329818Y-86242731D01*
X158536074Y-86551413D01*
X158798587Y-86813926D01*
X159107269Y-87020182D01*
X159450259Y-87162253D01*
X159814375Y-87234680D01*
X160185625Y-87234680D01*
X160549741Y-87162253D01*
X160892731Y-87020182D01*
X161201413Y-86813926D01*
X161463926Y-86551413D01*
X161670182Y-86242731D01*
X161812253Y-85899741D01*
X161884680Y-85535625D01*
X161884680Y-85164375D01*
X161812253Y-84800259D01*
X161670182Y-84457269D01*
X161463926Y-84148587D01*
X161201413Y-83886074D01*
X161016473Y-83762500D01*
X161201413Y-83638926D01*
X161463926Y-83376413D01*
X161670182Y-83067731D01*
X161725161Y-82935000D01*
X163010199Y-82935000D01*
X165416424Y-85341225D01*
X165368700Y-85581150D01*
X165368700Y-85878850D01*
X165426778Y-86170830D01*
X165540703Y-86445869D01*
X165706096Y-86693398D01*
X165916602Y-86903904D01*
X166060420Y-87000000D01*
X165916602Y-87096096D01*
X165706096Y-87306602D01*
X165540703Y-87554131D01*
X165514723Y-87616853D01*
X165480723Y-87635026D01*
X165397083Y-87703668D01*
X165364999Y-87729999D01*
X165341201Y-87758997D01*
X161849564Y-91250634D01*
X161725930Y-91127000D01*
X160127000Y-91127000D01*
X160127000Y-91147000D01*
X159873000Y-91147000D01*
X159873000Y-91127000D01*
X158274070Y-91127000D01*
X158115320Y-91285750D01*
X158112248Y-92249680D01*
X158124508Y-92374162D01*
X158160818Y-92493860D01*
X158219783Y-92604174D01*
X158299135Y-92700865D01*
X158395826Y-92780217D01*
X158506140Y-92839182D01*
X158625838Y-92875492D01*
X158633422Y-92876239D01*
X158536074Y-92973587D01*
X158329818Y-93282269D01*
X158187747Y-93625259D01*
X158115320Y-93989375D01*
X158115320Y-94360625D01*
X158187747Y-94724741D01*
X158329818Y-95067731D01*
X158536074Y-95376413D01*
X158798587Y-95638926D01*
X158983527Y-95762500D01*
X158798587Y-95886074D01*
X158536074Y-96148587D01*
X158329818Y-96457269D01*
X158187747Y-96800259D01*
X158115320Y-97164375D01*
X158115320Y-97535625D01*
X158187747Y-97899741D01*
X158329818Y-98242731D01*
X158536074Y-98551413D01*
X158798587Y-98813926D01*
X159107269Y-99020182D01*
X159450259Y-99162253D01*
X159814375Y-99234680D01*
X160185625Y-99234680D01*
X160549741Y-99162253D01*
X160892731Y-99020182D01*
X161201413Y-98813926D01*
X161463926Y-98551413D01*
X161670182Y-98242731D01*
X161812253Y-97899741D01*
X161884680Y-97535625D01*
X161884680Y-97164375D01*
X161812253Y-96800259D01*
X161670182Y-96457269D01*
X161463926Y-96148587D01*
X161201413Y-95886074D01*
X161016473Y-95762500D01*
X161201413Y-95638926D01*
X161463926Y-95376413D01*
X161670182Y-95067731D01*
X161812253Y-94724741D01*
X161884680Y-94360625D01*
X161884680Y-93989375D01*
X161812253Y-93625259D01*
X161757274Y-93492527D01*
X165861250Y-89388552D01*
X165916602Y-89443904D01*
X166060420Y-89540000D01*
X165916602Y-89636096D01*
X165706096Y-89846602D01*
X165540703Y-90094131D01*
X165426778Y-90369170D01*
X165368700Y-90661150D01*
X165368700Y-90958850D01*
X165426778Y-91250830D01*
X165540703Y-91525869D01*
X165706096Y-91773398D01*
X165916602Y-91983904D01*
X166060420Y-92080000D01*
X165916602Y-92176096D01*
X165706096Y-92386602D01*
X165540703Y-92634131D01*
X165426778Y-92909170D01*
X165368700Y-93201150D01*
X165368700Y-93498850D01*
X165426778Y-93790830D01*
X165540703Y-94065869D01*
X165706096Y-94313398D01*
X165916602Y-94523904D01*
X166060420Y-94620000D01*
X165916602Y-94716096D01*
X165706096Y-94926602D01*
X165540703Y-95174131D01*
X165426778Y-95449170D01*
X165368700Y-95741150D01*
X165368700Y-96038850D01*
X165426778Y-96330830D01*
X165540703Y-96605869D01*
X165706096Y-96853398D01*
X165916602Y-97063904D01*
X166060420Y-97160000D01*
X165916602Y-97256096D01*
X165706096Y-97466602D01*
X165540703Y-97714131D01*
X165426778Y-97989170D01*
X165368700Y-98281150D01*
X165368700Y-98578850D01*
X165426778Y-98870830D01*
X165540703Y-99145869D01*
X165706096Y-99393398D01*
X165916602Y-99603904D01*
X166060420Y-99700000D01*
X165916602Y-99796096D01*
X165706096Y-100006602D01*
X165540703Y-100254131D01*
X165426778Y-100529170D01*
X165368700Y-100821150D01*
X165368700Y-101118850D01*
X165426778Y-101410830D01*
X165540703Y-101685869D01*
X165706096Y-101933398D01*
X165916602Y-102143904D01*
X166164131Y-102309297D01*
X166439170Y-102423222D01*
X166731150Y-102481300D01*
X167028850Y-102481300D01*
X167320830Y-102423222D01*
X167595869Y-102309297D01*
X167843398Y-102143904D01*
X168053904Y-101933398D01*
X168219297Y-101685869D01*
X168333222Y-101410830D01*
X168391300Y-101118850D01*
X168391300Y-101016101D01*
X171386201Y-104011003D01*
X171409999Y-104040001D01*
X171525724Y-104134974D01*
X171657753Y-104205546D01*
X171801014Y-104249003D01*
X171912667Y-104260000D01*
X171912675Y-104260000D01*
X171950000Y-104263676D01*
X171987325Y-104260000D01*
X183212678Y-104260000D01*
X183250000Y-104263676D01*
X183287322Y-104260000D01*
X183287333Y-104260000D01*
X183398986Y-104249003D01*
X183542247Y-104205546D01*
X183674276Y-104134974D01*
X183790001Y-104040001D01*
X183813804Y-104010997D01*
X187011004Y-100813798D01*
X187040001Y-100790001D01*
X187073647Y-100749003D01*
X187112248Y-100701968D01*
X187112248Y-101999680D01*
X187124508Y-102124162D01*
X187160818Y-102243860D01*
X187219783Y-102354174D01*
X187299135Y-102450865D01*
X187395826Y-102530217D01*
X187506140Y-102589182D01*
X187625838Y-102625492D01*
X187750320Y-102637752D01*
X190249680Y-102637752D01*
X190374162Y-102625492D01*
X190493860Y-102589182D01*
X190604174Y-102530217D01*
X190700865Y-102450865D01*
X190780217Y-102354174D01*
X190839182Y-102243860D01*
X190875492Y-102124162D01*
X190887752Y-101999680D01*
X190887752Y-99500320D01*
X190875492Y-99375838D01*
X190839182Y-99256140D01*
X190780217Y-99145826D01*
X190700865Y-99049135D01*
X190604174Y-98969783D01*
X190493860Y-98910818D01*
X190376999Y-98875369D01*
X190428488Y-98823880D01*
X190313378Y-98708770D01*
X190603315Y-98582896D01*
X190769139Y-98250738D01*
X190866975Y-97892613D01*
X190893065Y-97522281D01*
X190846405Y-97153975D01*
X190728789Y-96801849D01*
X190603315Y-96567104D01*
X190313377Y-96441229D01*
X189179605Y-97575000D01*
X189193748Y-97589142D01*
X189014142Y-97768748D01*
X189000000Y-97754605D01*
X188985858Y-97768748D01*
X188806252Y-97589142D01*
X188820395Y-97575000D01*
X188806252Y-97560858D01*
X188985858Y-97381252D01*
X189000000Y-97395395D01*
X190133771Y-96261623D01*
X190015147Y-95988386D01*
X190201413Y-95863926D01*
X190463926Y-95601413D01*
X190670182Y-95292731D01*
X190812253Y-94949741D01*
X190884680Y-94585625D01*
X190884680Y-94214375D01*
X190812253Y-93850259D01*
X190670182Y-93507269D01*
X190463926Y-93198587D01*
X190201413Y-92936074D01*
X189892731Y-92729818D01*
X189549741Y-92587747D01*
X189185625Y-92515320D01*
X188814375Y-92515320D01*
X188450259Y-92587747D01*
X188107269Y-92729818D01*
X187798587Y-92936074D01*
X187536074Y-93198587D01*
X187329818Y-93507269D01*
X187187747Y-93850259D01*
X187115320Y-94214375D01*
X187115320Y-94585625D01*
X187187747Y-94949741D01*
X187242726Y-95082472D01*
X186760000Y-95565199D01*
X186760000Y-87214801D01*
X187126629Y-86848172D01*
X187106935Y-87127719D01*
X187153595Y-87496025D01*
X187271211Y-87848151D01*
X187396685Y-88082896D01*
X187686622Y-88208770D01*
X187571512Y-88323880D01*
X187623001Y-88375369D01*
X187506140Y-88410818D01*
X187395826Y-88469783D01*
X187299135Y-88549135D01*
X187219783Y-88645826D01*
X187160818Y-88756140D01*
X187124508Y-88875838D01*
X187112248Y-89000320D01*
X187112248Y-91499680D01*
X187124508Y-91624162D01*
X187160818Y-91743860D01*
X187219783Y-91854174D01*
X187299135Y-91950865D01*
X187395826Y-92030217D01*
X187506140Y-92089182D01*
X187625838Y-92125492D01*
X187750320Y-92137752D01*
X190249680Y-92137752D01*
X190374162Y-92125492D01*
X190493860Y-92089182D01*
X190604174Y-92030217D01*
X190700865Y-91950865D01*
X190780217Y-91854174D01*
X190839182Y-91743860D01*
X190875492Y-91624162D01*
X190887752Y-91499680D01*
X190887752Y-89000320D01*
X190875492Y-88875838D01*
X190839182Y-88756140D01*
X190780217Y-88645826D01*
X190700865Y-88549135D01*
X190604174Y-88469783D01*
X190493860Y-88410818D01*
X190376999Y-88375369D01*
X190428488Y-88323880D01*
X190313378Y-88208770D01*
X190603315Y-88082896D01*
X190769139Y-87750738D01*
X190866975Y-87392613D01*
X190893065Y-87022281D01*
X190846405Y-86653975D01*
X190728789Y-86301849D01*
X190603315Y-86067104D01*
X190313377Y-85941229D01*
X189179605Y-87075000D01*
X189193748Y-87089142D01*
X189014142Y-87268748D01*
X189000000Y-87254605D01*
X188985858Y-87268748D01*
X188806252Y-87089142D01*
X188820395Y-87075000D01*
X188806252Y-87060858D01*
X188985858Y-86881252D01*
X189000000Y-86895395D01*
X190133771Y-85761623D01*
X190015147Y-85488386D01*
X190201413Y-85363926D01*
X190463926Y-85101413D01*
X190670182Y-84792731D01*
X190812253Y-84449741D01*
X190884680Y-84085625D01*
X190884680Y-83714375D01*
X190812253Y-83350259D01*
X190670182Y-83007269D01*
X190463926Y-82698587D01*
X190201413Y-82436074D01*
X189892731Y-82229818D01*
X189549741Y-82087747D01*
X189185625Y-82015320D01*
X188814375Y-82015320D01*
X188450259Y-82087747D01*
X188107269Y-82229818D01*
X187798587Y-82436074D01*
X187536074Y-82698587D01*
X187329818Y-83007269D01*
X187187747Y-83350259D01*
X187115320Y-83714375D01*
X187115320Y-84085625D01*
X187187747Y-84449741D01*
X187242726Y-84582472D01*
X186260000Y-85565199D01*
X186260000Y-77139801D01*
X187126629Y-76273172D01*
X187106935Y-76552719D01*
X187153595Y-76921025D01*
X187271211Y-77273151D01*
X187396685Y-77507896D01*
X187686622Y-77633770D01*
X187571512Y-77748880D01*
X187623001Y-77800369D01*
X187506140Y-77835818D01*
X187395826Y-77894783D01*
X187299135Y-77974135D01*
X187219783Y-78070826D01*
X187160818Y-78181140D01*
X187124508Y-78300838D01*
X187112248Y-78425320D01*
X187112248Y-80924680D01*
X187124508Y-81049162D01*
X187160818Y-81168860D01*
X187219783Y-81279174D01*
X187299135Y-81375865D01*
X187395826Y-81455217D01*
X187506140Y-81514182D01*
X187625838Y-81550492D01*
X187750320Y-81562752D01*
X190249680Y-81562752D01*
X190374162Y-81550492D01*
X190493860Y-81514182D01*
X190604174Y-81455217D01*
X190700865Y-81375865D01*
X190780217Y-81279174D01*
X190839182Y-81168860D01*
X190875492Y-81049162D01*
X190887752Y-80924680D01*
X190887752Y-78425320D01*
X190875492Y-78300838D01*
X190839182Y-78181140D01*
X190780217Y-78070826D01*
X190700865Y-77974135D01*
X190604174Y-77894783D01*
X190493860Y-77835818D01*
X190376999Y-77800369D01*
X190428488Y-77748880D01*
X190313378Y-77633770D01*
X190603315Y-77507896D01*
X190769139Y-77175738D01*
X190866975Y-76817613D01*
X190893065Y-76447281D01*
X190846405Y-76078975D01*
X190728789Y-75726849D01*
X190603315Y-75492104D01*
X190313377Y-75366229D01*
X189179605Y-76500000D01*
X189193748Y-76514142D01*
X189014142Y-76693748D01*
X189000000Y-76679605D01*
X188985858Y-76693748D01*
X188806252Y-76514142D01*
X188820395Y-76500000D01*
X188806252Y-76485858D01*
X188985858Y-76306252D01*
X189000000Y-76320395D01*
X190133771Y-75186623D01*
X190015147Y-74913386D01*
X190201413Y-74788926D01*
X190463926Y-74526413D01*
X190670182Y-74217731D01*
X190812253Y-73874741D01*
X190884680Y-73510625D01*
X190884680Y-73139375D01*
X190812253Y-72775259D01*
X190670182Y-72432269D01*
X190463926Y-72123587D01*
X190201413Y-71861074D01*
X189892731Y-71654818D01*
X189549741Y-71512747D01*
X189185625Y-71440320D01*
X188814375Y-71440320D01*
X188450259Y-71512747D01*
X188107269Y-71654818D01*
X187798587Y-71861074D01*
X187536074Y-72123587D01*
X187329818Y-72432269D01*
X187187747Y-72775259D01*
X187115320Y-73139375D01*
X187115320Y-73510625D01*
X187187747Y-73874741D01*
X187242726Y-74007472D01*
X184988998Y-76261201D01*
X184960000Y-76284999D01*
X184936202Y-76313997D01*
X184936201Y-76313998D01*
X184865026Y-76400724D01*
X184794454Y-76532754D01*
X184750998Y-76676015D01*
X184736324Y-76825000D01*
X184740001Y-76862333D01*
X184740000Y-99435198D01*
X183585301Y-100589897D01*
X183573222Y-100529170D01*
X183459297Y-100254131D01*
X183293904Y-100006602D01*
X183083398Y-99796096D01*
X182939580Y-99700000D01*
X183083398Y-99603904D01*
X183293904Y-99393398D01*
X183459297Y-99145869D01*
X183573222Y-98870830D01*
X183631300Y-98578850D01*
X183631300Y-98281150D01*
X183573222Y-97989170D01*
X183459297Y-97714131D01*
X183293904Y-97466602D01*
X183083398Y-97256096D01*
X182939580Y-97160000D01*
X183083398Y-97063904D01*
X183293904Y-96853398D01*
X183459297Y-96605869D01*
X183573222Y-96330830D01*
X183631300Y-96038850D01*
X183631300Y-95741150D01*
X183573222Y-95449170D01*
X183459297Y-95174131D01*
X183293904Y-94926602D01*
X183083398Y-94716096D01*
X182939580Y-94620000D01*
X183083398Y-94523904D01*
X183293904Y-94313398D01*
X183459297Y-94065869D01*
X183573222Y-93790830D01*
X183631300Y-93498850D01*
X183631300Y-93201150D01*
X183573222Y-92909170D01*
X183459297Y-92634131D01*
X183293904Y-92386602D01*
X183083398Y-92176096D01*
X182939580Y-92080000D01*
X183083398Y-91983904D01*
X183293904Y-91773398D01*
X183459297Y-91525869D01*
X183573222Y-91250830D01*
X183631300Y-90958850D01*
X183631300Y-90661150D01*
X183573222Y-90369170D01*
X183459297Y-90094131D01*
X183293904Y-89846602D01*
X183083398Y-89636096D01*
X182939580Y-89540000D01*
X183083398Y-89443904D01*
X183293904Y-89233398D01*
X183459297Y-88985869D01*
X183573222Y-88710830D01*
X183631300Y-88418850D01*
X183631300Y-88121150D01*
X183573222Y-87829170D01*
X183459297Y-87554131D01*
X183293904Y-87306602D01*
X183083398Y-87096096D01*
X182939580Y-87000000D01*
X183083398Y-86903904D01*
X183293904Y-86693398D01*
X183459297Y-86445869D01*
X183573222Y-86170830D01*
X183631300Y-85878850D01*
X183631300Y-85581150D01*
X183573222Y-85289170D01*
X183459297Y-85014131D01*
X183293904Y-84766602D01*
X183083398Y-84556096D01*
X182939580Y-84460000D01*
X183083398Y-84363904D01*
X183293904Y-84153398D01*
X183459297Y-83905869D01*
X183573222Y-83630830D01*
X183631300Y-83338850D01*
X183631300Y-83041150D01*
X183573222Y-82749170D01*
X183459297Y-82474131D01*
X183293904Y-82226602D01*
X183083398Y-82016096D01*
X182939580Y-81920000D01*
X183083398Y-81823904D01*
X183293904Y-81613398D01*
X183459297Y-81365869D01*
X183573222Y-81090830D01*
X183631300Y-80798850D01*
X183631300Y-80501150D01*
X183573222Y-80209170D01*
X183459297Y-79934131D01*
X183293904Y-79686602D01*
X183083398Y-79476096D01*
X182939580Y-79380000D01*
X183083398Y-79283904D01*
X183293904Y-79073398D01*
X183459297Y-78825869D01*
X183573222Y-78550830D01*
X183631300Y-78258850D01*
X183631300Y-77961150D01*
X183573222Y-77669170D01*
X183459297Y-77394131D01*
X183293904Y-77146602D01*
X183083398Y-76936096D01*
X182920191Y-76827045D01*
X182987563Y-76617169D01*
X182120000Y-75749605D01*
X181252437Y-76617169D01*
X181319809Y-76827045D01*
X181156602Y-76936096D01*
X180946096Y-77146602D01*
X180780703Y-77394131D01*
X180666778Y-77669170D01*
X180608700Y-77961150D01*
X180608700Y-78258850D01*
X180666778Y-78550830D01*
X180780703Y-78825869D01*
X180946096Y-79073398D01*
X181156602Y-79283904D01*
X181300420Y-79380000D01*
X181156602Y-79476096D01*
X180946096Y-79686602D01*
X180780703Y-79934131D01*
X180666778Y-80209170D01*
X180608700Y-80501150D01*
X180608700Y-80798850D01*
X180666778Y-81090830D01*
X180780703Y-81365869D01*
X180946096Y-81613398D01*
X181156602Y-81823904D01*
X181300420Y-81920000D01*
X181156602Y-82016096D01*
X180946096Y-82226602D01*
X180780703Y-82474131D01*
X180666778Y-82749170D01*
X180608700Y-83041150D01*
X180608700Y-83338850D01*
X180666778Y-83630830D01*
X180780703Y-83905869D01*
X180946096Y-84153398D01*
X181156602Y-84363904D01*
X181300420Y-84460000D01*
X181156602Y-84556096D01*
X180946096Y-84766602D01*
X180780703Y-85014131D01*
X180666778Y-85289170D01*
X180608700Y-85581150D01*
X180608700Y-85878850D01*
X180666778Y-86170830D01*
X180780703Y-86445869D01*
X180946096Y-86693398D01*
X181156602Y-86903904D01*
X181300420Y-87000000D01*
X181156602Y-87096096D01*
X180946096Y-87306602D01*
X180780703Y-87554131D01*
X180666778Y-87829170D01*
X180608700Y-88121150D01*
X180608700Y-88418850D01*
X180666778Y-88710830D01*
X180780703Y-88985869D01*
X180946096Y-89233398D01*
X181156602Y-89443904D01*
X181300420Y-89540000D01*
X181156602Y-89636096D01*
X180946096Y-89846602D01*
X180780703Y-90094131D01*
X180666778Y-90369170D01*
X180608700Y-90661150D01*
X180608700Y-90958850D01*
X180666778Y-91250830D01*
X180780703Y-91525869D01*
X180946096Y-91773398D01*
X181156602Y-91983904D01*
X181300420Y-92080000D01*
X181156602Y-92176096D01*
X180946096Y-92386602D01*
X180780703Y-92634131D01*
X180666778Y-92909170D01*
X180608700Y-93201150D01*
X180608700Y-93498850D01*
X180666778Y-93790830D01*
X180780703Y-94065869D01*
X180946096Y-94313398D01*
X181156602Y-94523904D01*
X181300420Y-94620000D01*
X181156602Y-94716096D01*
X180946096Y-94926602D01*
X180780703Y-95174131D01*
X180666778Y-95449170D01*
X180608700Y-95741150D01*
X180608700Y-96038850D01*
X180666778Y-96330830D01*
X180780703Y-96605869D01*
X180946096Y-96853398D01*
X181156602Y-97063904D01*
X181300420Y-97160000D01*
X181156602Y-97256096D01*
X180946096Y-97466602D01*
X180780703Y-97714131D01*
X180666778Y-97989170D01*
X180608700Y-98281150D01*
X180608700Y-98578850D01*
X180666778Y-98870830D01*
X180780703Y-99145869D01*
X180946096Y-99393398D01*
X181156602Y-99603904D01*
X181300420Y-99700000D01*
X181156602Y-99796096D01*
X180946096Y-100006602D01*
X180780703Y-100254131D01*
X180666778Y-100529170D01*
X180608700Y-100821150D01*
X180608700Y-101118850D01*
X180666778Y-101410830D01*
X180780703Y-101685869D01*
X180816872Y-101740000D01*
X176344802Y-101740000D01*
X168343576Y-93738775D01*
X168391300Y-93498850D01*
X168391300Y-93201150D01*
X168333222Y-92909170D01*
X168219297Y-92634131D01*
X168053904Y-92386602D01*
X167843398Y-92176096D01*
X167699580Y-92080000D01*
X167843398Y-91983904D01*
X168053904Y-91773398D01*
X168219297Y-91525869D01*
X168333222Y-91250830D01*
X168391300Y-90958850D01*
X168391300Y-90661150D01*
X168333222Y-90369170D01*
X168219297Y-90094131D01*
X168053904Y-89846602D01*
X167843398Y-89636096D01*
X167699580Y-89540000D01*
X167843398Y-89443904D01*
X168053904Y-89233398D01*
X168219297Y-88985869D01*
X168333222Y-88710830D01*
X168391300Y-88418850D01*
X168391300Y-88121150D01*
X168333222Y-87829170D01*
X168219297Y-87554131D01*
X168053904Y-87306602D01*
X167843398Y-87096096D01*
X167699580Y-87000000D01*
X167843398Y-86903904D01*
X168053904Y-86693398D01*
X168219297Y-86445869D01*
X168333222Y-86170830D01*
X168391300Y-85878850D01*
X168391300Y-85581150D01*
X168333222Y-85289170D01*
X168219297Y-85014131D01*
X168053904Y-84766602D01*
X167843398Y-84556096D01*
X167699580Y-84460000D01*
X167843398Y-84363904D01*
X168053904Y-84153398D01*
X168219297Y-83905869D01*
X168333222Y-83630830D01*
X168391300Y-83338850D01*
X168391300Y-83041150D01*
X168333222Y-82749170D01*
X168219297Y-82474131D01*
X168053904Y-82226602D01*
X167843398Y-82016096D01*
X167680191Y-81907045D01*
X167747563Y-81697169D01*
X166880000Y-80829605D01*
X166012437Y-81697169D01*
X166079809Y-81907045D01*
X165916602Y-82016096D01*
X165706096Y-82226602D01*
X165540703Y-82474131D01*
X165426778Y-82749170D01*
X165368700Y-83041150D01*
X165368700Y-83143899D01*
X163888804Y-81664003D01*
X163865001Y-81634999D01*
X163749276Y-81540026D01*
X163617247Y-81469454D01*
X163473986Y-81425997D01*
X163362333Y-81415000D01*
X163362322Y-81415000D01*
X163325000Y-81411324D01*
X163287678Y-81415000D01*
X161725161Y-81415000D01*
X161670182Y-81282269D01*
X161463926Y-80973587D01*
X161366578Y-80876239D01*
X161374162Y-80875492D01*
X161493860Y-80839182D01*
X161604174Y-80780217D01*
X161680606Y-80717491D01*
X165362887Y-80717491D01*
X165405204Y-81012167D01*
X165504198Y-81292927D01*
X165581071Y-81436746D01*
X165832831Y-81517563D01*
X166700395Y-80650000D01*
X167059605Y-80650000D01*
X167927169Y-81517563D01*
X168178929Y-81436746D01*
X168307457Y-81168221D01*
X168381129Y-80879781D01*
X168397113Y-80582509D01*
X168354796Y-80287833D01*
X168255802Y-80007073D01*
X168178929Y-79863254D01*
X167927169Y-79782437D01*
X167059605Y-80650000D01*
X166700395Y-80650000D01*
X165832831Y-79782437D01*
X165581071Y-79863254D01*
X165452543Y-80131779D01*
X165378871Y-80420219D01*
X165362887Y-80717491D01*
X161680606Y-80717491D01*
X161700865Y-80700865D01*
X161780217Y-80604174D01*
X161839182Y-80493860D01*
X161875492Y-80374162D01*
X161887752Y-80249680D01*
X161884680Y-79285750D01*
X161756099Y-79157169D01*
X166012437Y-79157169D01*
X166083968Y-79380000D01*
X166012437Y-79602831D01*
X166880000Y-80470395D01*
X167747563Y-79602831D01*
X167676032Y-79380000D01*
X167747563Y-79157169D01*
X166880000Y-78289605D01*
X166012437Y-79157169D01*
X161756099Y-79157169D01*
X161725930Y-79127000D01*
X160127000Y-79127000D01*
X160127000Y-79147000D01*
X159873000Y-79147000D01*
X159873000Y-79127000D01*
X158274070Y-79127000D01*
X158115320Y-79285750D01*
X158112248Y-80249680D01*
X157910000Y-80249680D01*
X157910000Y-77750320D01*
X158112248Y-77750320D01*
X158115320Y-78714250D01*
X158274070Y-78873000D01*
X159873000Y-78873000D01*
X159873000Y-77274070D01*
X160127000Y-77274070D01*
X160127000Y-78873000D01*
X161725930Y-78873000D01*
X161884680Y-78714250D01*
X161886390Y-78177491D01*
X165362887Y-78177491D01*
X165405204Y-78472167D01*
X165504198Y-78752927D01*
X165581071Y-78896746D01*
X165832831Y-78977563D01*
X166700395Y-78110000D01*
X167059605Y-78110000D01*
X167927169Y-78977563D01*
X168178929Y-78896746D01*
X168307457Y-78628221D01*
X168381129Y-78339781D01*
X168397113Y-78042509D01*
X168354796Y-77747833D01*
X168255802Y-77467073D01*
X168178929Y-77323254D01*
X167927169Y-77242437D01*
X167059605Y-78110000D01*
X166700395Y-78110000D01*
X165832831Y-77242437D01*
X165581071Y-77323254D01*
X165452543Y-77591779D01*
X165378871Y-77880219D01*
X165362887Y-78177491D01*
X161886390Y-78177491D01*
X161887752Y-77750320D01*
X161875492Y-77625838D01*
X161839182Y-77506140D01*
X161780217Y-77395826D01*
X161700865Y-77299135D01*
X161604174Y-77219783D01*
X161493860Y-77160818D01*
X161374162Y-77124508D01*
X161249680Y-77112248D01*
X160285750Y-77115320D01*
X160127000Y-77274070D01*
X159873000Y-77274070D01*
X159714250Y-77115320D01*
X158750320Y-77112248D01*
X158625838Y-77124508D01*
X158506140Y-77160818D01*
X158395826Y-77219783D01*
X158299135Y-77299135D01*
X158219783Y-77395826D01*
X158160818Y-77506140D01*
X158124508Y-77625838D01*
X158112248Y-77750320D01*
X157910000Y-77750320D01*
X157910000Y-73829117D01*
X158765000Y-73829117D01*
X158765000Y-74170883D01*
X158831675Y-74506081D01*
X158962463Y-74821831D01*
X159152337Y-75105998D01*
X159394002Y-75347663D01*
X159678169Y-75537537D01*
X159993919Y-75668325D01*
X160329117Y-75735000D01*
X160670883Y-75735000D01*
X161006081Y-75668325D01*
X161321831Y-75537537D01*
X161605998Y-75347663D01*
X161847663Y-75105998D01*
X162037537Y-74821831D01*
X162168325Y-74506081D01*
X162235000Y-74170883D01*
X162235000Y-73829117D01*
X162168325Y-73493919D01*
X162037537Y-73178169D01*
X161847663Y-72894002D01*
X161605998Y-72652337D01*
X161321831Y-72462463D01*
X161006081Y-72331675D01*
X160670883Y-72265000D01*
X160329117Y-72265000D01*
X159993919Y-72331675D01*
X159678169Y-72462463D01*
X159394002Y-72652337D01*
X159152337Y-72894002D01*
X158962463Y-73178169D01*
X158831675Y-73493919D01*
X158765000Y-73829117D01*
X157910000Y-73829117D01*
X157910000Y-72153700D01*
X165365628Y-72153700D01*
X165365628Y-73906300D01*
X165377888Y-74030782D01*
X165414198Y-74150480D01*
X165473163Y-74260794D01*
X165552515Y-74357485D01*
X165649206Y-74436837D01*
X165759520Y-74495802D01*
X165803542Y-74509156D01*
X165706096Y-74606602D01*
X165540703Y-74854131D01*
X165426778Y-75129170D01*
X165368700Y-75421150D01*
X165368700Y-75718850D01*
X165426778Y-76010830D01*
X165540703Y-76285869D01*
X165706096Y-76533398D01*
X165916602Y-76743904D01*
X166079809Y-76852955D01*
X166012437Y-77062831D01*
X166880000Y-77930395D01*
X167747563Y-77062831D01*
X167680191Y-76852955D01*
X167843398Y-76743904D01*
X168053904Y-76533398D01*
X168219297Y-76285869D01*
X168333222Y-76010830D01*
X168391300Y-75718850D01*
X168391300Y-75637491D01*
X180602887Y-75637491D01*
X180645204Y-75932167D01*
X180744198Y-76212927D01*
X180821071Y-76356746D01*
X181072831Y-76437563D01*
X181940395Y-75570000D01*
X182299605Y-75570000D01*
X183167169Y-76437563D01*
X183418929Y-76356746D01*
X183547457Y-76088221D01*
X183621129Y-75799781D01*
X183637113Y-75502509D01*
X183594796Y-75207833D01*
X183495802Y-74927073D01*
X183418929Y-74783254D01*
X183167169Y-74702437D01*
X182299605Y-75570000D01*
X181940395Y-75570000D01*
X181072831Y-74702437D01*
X180821071Y-74783254D01*
X180692543Y-75051779D01*
X180618871Y-75340219D01*
X180602887Y-75637491D01*
X168391300Y-75637491D01*
X168391300Y-75421150D01*
X168333222Y-75129170D01*
X168219297Y-74854131D01*
X168053904Y-74606602D01*
X167956458Y-74509156D01*
X168000480Y-74495802D01*
X168110794Y-74436837D01*
X168207485Y-74357485D01*
X168286837Y-74260794D01*
X168345802Y-74150480D01*
X168382112Y-74030782D01*
X168394372Y-73906300D01*
X168394372Y-72881150D01*
X180608700Y-72881150D01*
X180608700Y-73178850D01*
X180666778Y-73470830D01*
X180780703Y-73745869D01*
X180946096Y-73993398D01*
X181156602Y-74203904D01*
X181319809Y-74312955D01*
X181252437Y-74522831D01*
X182120000Y-75390395D01*
X182987563Y-74522831D01*
X182920191Y-74312955D01*
X183083398Y-74203904D01*
X183293904Y-73993398D01*
X183459297Y-73745869D01*
X183573222Y-73470830D01*
X183631300Y-73178850D01*
X183631300Y-72881150D01*
X183573222Y-72589170D01*
X183459297Y-72314131D01*
X183293904Y-72066602D01*
X183083398Y-71856096D01*
X182835869Y-71690703D01*
X182560830Y-71576778D01*
X182268850Y-71518700D01*
X181971150Y-71518700D01*
X181679170Y-71576778D01*
X181404131Y-71690703D01*
X181156602Y-71856096D01*
X180946096Y-72066602D01*
X180780703Y-72314131D01*
X180666778Y-72589170D01*
X180608700Y-72881150D01*
X168394372Y-72881150D01*
X168394372Y-72153700D01*
X168382112Y-72029218D01*
X168345802Y-71909520D01*
X168286837Y-71799206D01*
X168207485Y-71702515D01*
X168110794Y-71623163D01*
X168000480Y-71564198D01*
X167880782Y-71527888D01*
X167756300Y-71515628D01*
X166003700Y-71515628D01*
X165879218Y-71527888D01*
X165759520Y-71564198D01*
X165649206Y-71623163D01*
X165552515Y-71702515D01*
X165473163Y-71799206D01*
X165414198Y-71909520D01*
X165377888Y-72029218D01*
X165365628Y-72153700D01*
X157910000Y-72153700D01*
X157910000Y-71410000D01*
X191090000Y-71410000D01*
X191090001Y-73217572D01*
G37*
X191090001Y-73217572D02*
X191090000Y-73217582D01*
X191090001Y-115467572D01*
X191090000Y-115467582D01*
X191090000Y-115840000D01*
X157910000Y-115840000D01*
X157910000Y-114999680D01*
X158862248Y-114999680D01*
X158874508Y-115124162D01*
X158910818Y-115243860D01*
X158969783Y-115354174D01*
X159049135Y-115450865D01*
X159145826Y-115530217D01*
X159256140Y-115589182D01*
X159375838Y-115625492D01*
X159500320Y-115637752D01*
X160464250Y-115634680D01*
X160623000Y-115475930D01*
X160623000Y-113877000D01*
X160877000Y-113877000D01*
X160877000Y-115475930D01*
X161035750Y-115634680D01*
X161999680Y-115637752D01*
X162124162Y-115625492D01*
X162243860Y-115589182D01*
X162354174Y-115530217D01*
X162450865Y-115450865D01*
X162530217Y-115354174D01*
X162589182Y-115243860D01*
X162625492Y-115124162D01*
X162637752Y-114999680D01*
X162634680Y-114035750D01*
X162475930Y-113877000D01*
X160877000Y-113877000D01*
X160623000Y-113877000D01*
X159024070Y-113877000D01*
X158865320Y-114035750D01*
X158862248Y-114999680D01*
X157910000Y-114999680D01*
X157910000Y-112500320D01*
X158862248Y-112500320D01*
X158865320Y-113464250D01*
X159024070Y-113623000D01*
X160623000Y-113623000D01*
X160623000Y-112024070D01*
X160877000Y-112024070D01*
X160877000Y-113623000D01*
X162475930Y-113623000D01*
X162534555Y-113564375D01*
X162675320Y-113564375D01*
X162675320Y-113935625D01*
X162747747Y-114299741D01*
X162889818Y-114642731D01*
X163096074Y-114951413D01*
X163358587Y-115213926D01*
X163667269Y-115420182D01*
X164010259Y-115562253D01*
X164374375Y-115634680D01*
X164745625Y-115634680D01*
X165109741Y-115562253D01*
X165452731Y-115420182D01*
X165761413Y-115213926D01*
X165975659Y-114999680D01*
X166862248Y-114999680D01*
X166874508Y-115124162D01*
X166910818Y-115243860D01*
X166969783Y-115354174D01*
X167049135Y-115450865D01*
X167145826Y-115530217D01*
X167256140Y-115589182D01*
X167375838Y-115625492D01*
X167500320Y-115637752D01*
X168464250Y-115634680D01*
X168623000Y-115475930D01*
X168623000Y-113877000D01*
X168877000Y-113877000D01*
X168877000Y-115475930D01*
X169035750Y-115634680D01*
X169999680Y-115637752D01*
X170124162Y-115625492D01*
X170243860Y-115589182D01*
X170354174Y-115530217D01*
X170450865Y-115450865D01*
X170530217Y-115354174D01*
X170589182Y-115243860D01*
X170625492Y-115124162D01*
X170637752Y-114999680D01*
X170634680Y-114035750D01*
X170475930Y-113877000D01*
X168877000Y-113877000D01*
X168623000Y-113877000D01*
X167024070Y-113877000D01*
X166865320Y-114035750D01*
X166862248Y-114999680D01*
X165975659Y-114999680D01*
X166023926Y-114951413D01*
X166230182Y-114642731D01*
X166372253Y-114299741D01*
X166444680Y-113935625D01*
X166444680Y-113564375D01*
X166372253Y-113200259D01*
X166230182Y-112857269D01*
X166023926Y-112548587D01*
X165975659Y-112500320D01*
X166862248Y-112500320D01*
X166865320Y-113464250D01*
X167024070Y-113623000D01*
X168623000Y-113623000D01*
X168623000Y-112024070D01*
X168877000Y-112024070D01*
X168877000Y-113623000D01*
X170475930Y-113623000D01*
X170534555Y-113564375D01*
X170675320Y-113564375D01*
X170675320Y-113935625D01*
X170747747Y-114299741D01*
X170889818Y-114642731D01*
X171096074Y-114951413D01*
X171358587Y-115213926D01*
X171667269Y-115420182D01*
X172010259Y-115562253D01*
X172374375Y-115634680D01*
X172745625Y-115634680D01*
X173109741Y-115562253D01*
X173452731Y-115420182D01*
X173761413Y-115213926D01*
X173975659Y-114999680D01*
X174862248Y-114999680D01*
X174874508Y-115124162D01*
X174910818Y-115243860D01*
X174969783Y-115354174D01*
X175049135Y-115450865D01*
X175145826Y-115530217D01*
X175256140Y-115589182D01*
X175375838Y-115625492D01*
X175500320Y-115637752D01*
X176464250Y-115634680D01*
X176623000Y-115475930D01*
X176623000Y-113877000D01*
X176877000Y-113877000D01*
X176877000Y-115475930D01*
X177035750Y-115634680D01*
X177999680Y-115637752D01*
X178124162Y-115625492D01*
X178243860Y-115589182D01*
X178354174Y-115530217D01*
X178450865Y-115450865D01*
X178530217Y-115354174D01*
X178589182Y-115243860D01*
X178625492Y-115124162D01*
X178637752Y-114999680D01*
X178634680Y-114035750D01*
X178475930Y-113877000D01*
X176877000Y-113877000D01*
X176623000Y-113877000D01*
X175024070Y-113877000D01*
X174865320Y-114035750D01*
X174862248Y-114999680D01*
X173975659Y-114999680D01*
X174023926Y-114951413D01*
X174230182Y-114642731D01*
X174372253Y-114299741D01*
X174444680Y-113935625D01*
X174444680Y-113564375D01*
X174372253Y-113200259D01*
X174230182Y-112857269D01*
X174023926Y-112548587D01*
X173975659Y-112500320D01*
X174862248Y-112500320D01*
X174865320Y-113464250D01*
X175024070Y-113623000D01*
X176623000Y-113623000D01*
X176623000Y-112024070D01*
X176877000Y-112024070D01*
X176877000Y-113623000D01*
X178475930Y-113623000D01*
X178534555Y-113564375D01*
X178675320Y-113564375D01*
X178675320Y-113935625D01*
X178747747Y-114299741D01*
X178889818Y-114642731D01*
X179096074Y-114951413D01*
X179358587Y-115213926D01*
X179667269Y-115420182D01*
X180010259Y-115562253D01*
X180374375Y-115634680D01*
X180745625Y-115634680D01*
X181109741Y-115562253D01*
X181452731Y-115420182D01*
X181761413Y-115213926D01*
X181975659Y-114999680D01*
X182862248Y-114999680D01*
X182874508Y-115124162D01*
X182910818Y-115243860D01*
X182969783Y-115354174D01*
X183049135Y-115450865D01*
X183145826Y-115530217D01*
X183256140Y-115589182D01*
X183375838Y-115625492D01*
X183500320Y-115637752D01*
X184464250Y-115634680D01*
X184623000Y-115475930D01*
X184623000Y-113877000D01*
X184877000Y-113877000D01*
X184877000Y-115475930D01*
X185035750Y-115634680D01*
X185999680Y-115637752D01*
X186124162Y-115625492D01*
X186243860Y-115589182D01*
X186354174Y-115530217D01*
X186450865Y-115450865D01*
X186530217Y-115354174D01*
X186589182Y-115243860D01*
X186625492Y-115124162D01*
X186637752Y-114999680D01*
X186634680Y-114035750D01*
X186475930Y-113877000D01*
X184877000Y-113877000D01*
X184623000Y-113877000D01*
X183024070Y-113877000D01*
X182865320Y-114035750D01*
X182862248Y-114999680D01*
X181975659Y-114999680D01*
X182023926Y-114951413D01*
X182230182Y-114642731D01*
X182372253Y-114299741D01*
X182444680Y-113935625D01*
X182444680Y-113564375D01*
X182372253Y-113200259D01*
X182230182Y-112857269D01*
X182023926Y-112548587D01*
X181975659Y-112500320D01*
X182862248Y-112500320D01*
X182865320Y-113464250D01*
X183024070Y-113623000D01*
X184623000Y-113623000D01*
X184623000Y-112024070D01*
X184877000Y-112024070D01*
X184877000Y-113623000D01*
X186475930Y-113623000D01*
X186534555Y-113564375D01*
X186675320Y-113564375D01*
X186675320Y-113935625D01*
X186747747Y-114299741D01*
X186889818Y-114642731D01*
X187096074Y-114951413D01*
X187358587Y-115213926D01*
X187667269Y-115420182D01*
X188010259Y-115562253D01*
X188374375Y-115634680D01*
X188745625Y-115634680D01*
X189109741Y-115562253D01*
X189452731Y-115420182D01*
X189761413Y-115213926D01*
X190023926Y-114951413D01*
X190230182Y-114642731D01*
X190372253Y-114299741D01*
X190444680Y-113935625D01*
X190444680Y-113564375D01*
X190372253Y-113200259D01*
X190230182Y-112857269D01*
X190023926Y-112548587D01*
X189761413Y-112286074D01*
X189452731Y-112079818D01*
X189109741Y-111937747D01*
X188745625Y-111865320D01*
X188374375Y-111865320D01*
X188010259Y-111937747D01*
X187667269Y-112079818D01*
X187358587Y-112286074D01*
X187096074Y-112548587D01*
X186889818Y-112857269D01*
X186747747Y-113200259D01*
X186675320Y-113564375D01*
X186534555Y-113564375D01*
X186634680Y-113464250D01*
X186637752Y-112500320D01*
X186625492Y-112375838D01*
X186589182Y-112256140D01*
X186530217Y-112145826D01*
X186450865Y-112049135D01*
X186354174Y-111969783D01*
X186243860Y-111910818D01*
X186124162Y-111874508D01*
X185999680Y-111862248D01*
X185035750Y-111865320D01*
X184877000Y-112024070D01*
X184623000Y-112024070D01*
X184464250Y-111865320D01*
X183500320Y-111862248D01*
X183375838Y-111874508D01*
X183256140Y-111910818D01*
X183145826Y-111969783D01*
X183049135Y-112049135D01*
X182969783Y-112145826D01*
X182910818Y-112256140D01*
X182874508Y-112375838D01*
X182862248Y-112500320D01*
X181975659Y-112500320D01*
X181761413Y-112286074D01*
X181452731Y-112079818D01*
X181109741Y-111937747D01*
X180745625Y-111865320D01*
X180374375Y-111865320D01*
X180010259Y-111937747D01*
X179667269Y-112079818D01*
X179358587Y-112286074D01*
X179096074Y-112548587D01*
X178889818Y-112857269D01*
X178747747Y-113200259D01*
X178675320Y-113564375D01*
X178534555Y-113564375D01*
X178634680Y-113464250D01*
X178637752Y-112500320D01*
X178625492Y-112375838D01*
X178589182Y-112256140D01*
X178530217Y-112145826D01*
X178450865Y-112049135D01*
X178354174Y-111969783D01*
X178243860Y-111910818D01*
X178124162Y-111874508D01*
X177999680Y-111862248D01*
X177035750Y-111865320D01*
X176877000Y-112024070D01*
X176623000Y-112024070D01*
X176464250Y-111865320D01*
X175500320Y-111862248D01*
X175375838Y-111874508D01*
X175256140Y-111910818D01*
X175145826Y-111969783D01*
X175049135Y-112049135D01*
X174969783Y-112145826D01*
X174910818Y-112256140D01*
X174874508Y-112375838D01*
X174862248Y-112500320D01*
X173975659Y-112500320D01*
X173761413Y-112286074D01*
X173452731Y-112079818D01*
X173109741Y-111937747D01*
X172745625Y-111865320D01*
X172374375Y-111865320D01*
X172010259Y-111937747D01*
X171667269Y-112079818D01*
X171358587Y-112286074D01*
X171096074Y-112548587D01*
X170889818Y-112857269D01*
X170747747Y-113200259D01*
X170675320Y-113564375D01*
X170534555Y-113564375D01*
X170634680Y-113464250D01*
X170637752Y-112500320D01*
X170625492Y-112375838D01*
X170589182Y-112256140D01*
X170530217Y-112145826D01*
X170450865Y-112049135D01*
X170354174Y-111969783D01*
X170243860Y-111910818D01*
X170124162Y-111874508D01*
X169999680Y-111862248D01*
X169035750Y-111865320D01*
X168877000Y-112024070D01*
X168623000Y-112024070D01*
X168464250Y-111865320D01*
X167500320Y-111862248D01*
X167375838Y-111874508D01*
X167256140Y-111910818D01*
X167145826Y-111969783D01*
X167049135Y-112049135D01*
X166969783Y-112145826D01*
X166910818Y-112256140D01*
X166874508Y-112375838D01*
X166862248Y-112500320D01*
X165975659Y-112500320D01*
X165761413Y-112286074D01*
X165452731Y-112079818D01*
X165109741Y-111937747D01*
X164745625Y-111865320D01*
X164374375Y-111865320D01*
X164010259Y-111937747D01*
X163667269Y-112079818D01*
X163358587Y-112286074D01*
X163096074Y-112548587D01*
X162889818Y-112857269D01*
X162747747Y-113200259D01*
X162675320Y-113564375D01*
X162534555Y-113564375D01*
X162634680Y-113464250D01*
X162637752Y-112500320D01*
X162625492Y-112375838D01*
X162589182Y-112256140D01*
X162530217Y-112145826D01*
X162450865Y-112049135D01*
X162354174Y-111969783D01*
X162243860Y-111910818D01*
X162124162Y-111874508D01*
X161999680Y-111862248D01*
X161035750Y-111865320D01*
X160877000Y-112024070D01*
X160623000Y-112024070D01*
X160464250Y-111865320D01*
X159500320Y-111862248D01*
X159375838Y-111874508D01*
X159256140Y-111910818D01*
X159145826Y-111969783D01*
X159049135Y-112049135D01*
X158969783Y-112145826D01*
X158910818Y-112256140D01*
X158874508Y-112375838D01*
X158862248Y-112500320D01*
X157910000Y-112500320D01*
X157910000Y-107064375D01*
X158115320Y-107064375D01*
X158115320Y-107435625D01*
X158187747Y-107799741D01*
X158329818Y-108142731D01*
X158536074Y-108451413D01*
X158798587Y-108713926D01*
X159107269Y-108920182D01*
X159450259Y-109062253D01*
X159814375Y-109134680D01*
X160185625Y-109134680D01*
X160549741Y-109062253D01*
X160892731Y-108920182D01*
X161201413Y-108713926D01*
X161463926Y-108451413D01*
X161670182Y-108142731D01*
X161812253Y-107799741D01*
X161875000Y-107484290D01*
X161937747Y-107799741D01*
X162079818Y-108142731D01*
X162286074Y-108451413D01*
X162548587Y-108713926D01*
X162857269Y-108920182D01*
X163200259Y-109062253D01*
X163564375Y-109134680D01*
X163935625Y-109134680D01*
X164299741Y-109062253D01*
X164642731Y-108920182D01*
X164951413Y-108713926D01*
X165101962Y-108563377D01*
X167116229Y-108563377D01*
X167242104Y-108853315D01*
X167574262Y-109019139D01*
X167932387Y-109116975D01*
X168302719Y-109143065D01*
X168671025Y-109096405D01*
X169023151Y-108978789D01*
X169257896Y-108853315D01*
X169383771Y-108563377D01*
X170866229Y-108563377D01*
X170992104Y-108853315D01*
X171324262Y-109019139D01*
X171682387Y-109116975D01*
X172052719Y-109143065D01*
X172421025Y-109096405D01*
X172773151Y-108978789D01*
X173007896Y-108853315D01*
X173133771Y-108563377D01*
X172000000Y-107429605D01*
X170866229Y-108563377D01*
X169383771Y-108563377D01*
X168250000Y-107429605D01*
X167116229Y-108563377D01*
X165101962Y-108563377D01*
X165213926Y-108451413D01*
X165420182Y-108142731D01*
X165562253Y-107799741D01*
X165634680Y-107435625D01*
X165634680Y-107302719D01*
X166356935Y-107302719D01*
X166403595Y-107671025D01*
X166521211Y-108023151D01*
X166646685Y-108257896D01*
X166936623Y-108383771D01*
X168070395Y-107250000D01*
X168429605Y-107250000D01*
X169563377Y-108383771D01*
X169853315Y-108257896D01*
X170019139Y-107925738D01*
X170116975Y-107567613D01*
X170125380Y-107448311D01*
X170153595Y-107671025D01*
X170271211Y-108023151D01*
X170396685Y-108257896D01*
X170686623Y-108383771D01*
X171820395Y-107250000D01*
X172179605Y-107250000D01*
X173313377Y-108383771D01*
X173603315Y-108257896D01*
X173769139Y-107925738D01*
X173866975Y-107567613D01*
X173893065Y-107197281D01*
X173876228Y-107064375D01*
X174615320Y-107064375D01*
X174615320Y-107435625D01*
X174687747Y-107799741D01*
X174829818Y-108142731D01*
X175036074Y-108451413D01*
X175298587Y-108713926D01*
X175607269Y-108920182D01*
X175950259Y-109062253D01*
X176314375Y-109134680D01*
X176685625Y-109134680D01*
X177049741Y-109062253D01*
X177392731Y-108920182D01*
X177701413Y-108713926D01*
X177963926Y-108451413D01*
X178170182Y-108142731D01*
X178312253Y-107799741D01*
X178375000Y-107484290D01*
X178437747Y-107799741D01*
X178579818Y-108142731D01*
X178786074Y-108451413D01*
X179048587Y-108713926D01*
X179357269Y-108920182D01*
X179700259Y-109062253D01*
X180064375Y-109134680D01*
X180435625Y-109134680D01*
X180799741Y-109062253D01*
X181142731Y-108920182D01*
X181451413Y-108713926D01*
X181665659Y-108499680D01*
X183362248Y-108499680D01*
X183374508Y-108624162D01*
X183410818Y-108743860D01*
X183469783Y-108854174D01*
X183549135Y-108950865D01*
X183645826Y-109030217D01*
X183756140Y-109089182D01*
X183875838Y-109125492D01*
X184000320Y-109137752D01*
X184964250Y-109134680D01*
X185123000Y-108975930D01*
X185123000Y-107377000D01*
X185377000Y-107377000D01*
X185377000Y-108975930D01*
X185535750Y-109134680D01*
X186499680Y-109137752D01*
X186624162Y-109125492D01*
X186743860Y-109089182D01*
X186854174Y-109030217D01*
X186950865Y-108950865D01*
X187030217Y-108854174D01*
X187089182Y-108743860D01*
X187125492Y-108624162D01*
X187137752Y-108499680D01*
X187134680Y-107535750D01*
X186975930Y-107377000D01*
X185377000Y-107377000D01*
X185123000Y-107377000D01*
X183524070Y-107377000D01*
X183365320Y-107535750D01*
X183362248Y-108499680D01*
X181665659Y-108499680D01*
X181713926Y-108451413D01*
X181920182Y-108142731D01*
X182062253Y-107799741D01*
X182134680Y-107435625D01*
X182134680Y-107064375D01*
X182062253Y-106700259D01*
X181920182Y-106357269D01*
X181713926Y-106048587D01*
X181665659Y-106000320D01*
X183362248Y-106000320D01*
X183365320Y-106964250D01*
X183524070Y-107123000D01*
X185123000Y-107123000D01*
X185123000Y-105524070D01*
X185377000Y-105524070D01*
X185377000Y-107123000D01*
X186975930Y-107123000D01*
X187034555Y-107064375D01*
X187175320Y-107064375D01*
X187175320Y-107435625D01*
X187247747Y-107799741D01*
X187389818Y-108142731D01*
X187596074Y-108451413D01*
X187858587Y-108713926D01*
X188167269Y-108920182D01*
X188510259Y-109062253D01*
X188874375Y-109134680D01*
X189245625Y-109134680D01*
X189609741Y-109062253D01*
X189952731Y-108920182D01*
X190261413Y-108713926D01*
X190523926Y-108451413D01*
X190730182Y-108142731D01*
X190872253Y-107799741D01*
X190944680Y-107435625D01*
X190944680Y-107064375D01*
X190872253Y-106700259D01*
X190730182Y-106357269D01*
X190523926Y-106048587D01*
X190261413Y-105786074D01*
X189952731Y-105579818D01*
X189609741Y-105437747D01*
X189245625Y-105365320D01*
X188874375Y-105365320D01*
X188510259Y-105437747D01*
X188167269Y-105579818D01*
X187858587Y-105786074D01*
X187596074Y-106048587D01*
X187389818Y-106357269D01*
X187247747Y-106700259D01*
X187175320Y-107064375D01*
X187034555Y-107064375D01*
X187134680Y-106964250D01*
X187137752Y-106000320D01*
X187125492Y-105875838D01*
X187089182Y-105756140D01*
X187030217Y-105645826D01*
X186950865Y-105549135D01*
X186854174Y-105469783D01*
X186743860Y-105410818D01*
X186624162Y-105374508D01*
X186499680Y-105362248D01*
X185535750Y-105365320D01*
X185377000Y-105524070D01*
X185123000Y-105524070D01*
X184964250Y-105365320D01*
X184000320Y-105362248D01*
X183875838Y-105374508D01*
X183756140Y-105410818D01*
X183645826Y-105469783D01*
X183549135Y-105549135D01*
X183469783Y-105645826D01*
X183410818Y-105756140D01*
X183374508Y-105875838D01*
X183362248Y-106000320D01*
X181665659Y-106000320D01*
X181451413Y-105786074D01*
X181142731Y-105579818D01*
X180799741Y-105437747D01*
X180435625Y-105365320D01*
X180064375Y-105365320D01*
X179700259Y-105437747D01*
X179357269Y-105579818D01*
X179048587Y-105786074D01*
X178786074Y-106048587D01*
X178579818Y-106357269D01*
X178437747Y-106700259D01*
X178375000Y-107015710D01*
X178312253Y-106700259D01*
X178170182Y-106357269D01*
X177963926Y-106048587D01*
X177701413Y-105786074D01*
X177392731Y-105579818D01*
X177049741Y-105437747D01*
X176685625Y-105365320D01*
X176314375Y-105365320D01*
X175950259Y-105437747D01*
X175607269Y-105579818D01*
X175298587Y-105786074D01*
X175036074Y-106048587D01*
X174829818Y-106357269D01*
X174687747Y-106700259D01*
X174615320Y-107064375D01*
X173876228Y-107064375D01*
X173846405Y-106828975D01*
X173728789Y-106476849D01*
X173603315Y-106242104D01*
X173313377Y-106116229D01*
X172179605Y-107250000D01*
X171820395Y-107250000D01*
X170686623Y-106116229D01*
X170396685Y-106242104D01*
X170230861Y-106574262D01*
X170133025Y-106932387D01*
X170124620Y-107051689D01*
X170096405Y-106828975D01*
X169978789Y-106476849D01*
X169853315Y-106242104D01*
X169563377Y-106116229D01*
X168429605Y-107250000D01*
X168070395Y-107250000D01*
X166936623Y-106116229D01*
X166646685Y-106242104D01*
X166480861Y-106574262D01*
X166383025Y-106932387D01*
X166356935Y-107302719D01*
X165634680Y-107302719D01*
X165634680Y-107064375D01*
X165562253Y-106700259D01*
X165420182Y-106357269D01*
X165213926Y-106048587D01*
X165101962Y-105936623D01*
X167116229Y-105936623D01*
X168250000Y-107070395D01*
X169383771Y-105936623D01*
X170866229Y-105936623D01*
X172000000Y-107070395D01*
X173133771Y-105936623D01*
X173007896Y-105646685D01*
X172675738Y-105480861D01*
X172317613Y-105383025D01*
X171947281Y-105356935D01*
X171578975Y-105403595D01*
X171226849Y-105521211D01*
X170992104Y-105646685D01*
X170866229Y-105936623D01*
X169383771Y-105936623D01*
X169257896Y-105646685D01*
X168925738Y-105480861D01*
X168567613Y-105383025D01*
X168197281Y-105356935D01*
X167828975Y-105403595D01*
X167476849Y-105521211D01*
X167242104Y-105646685D01*
X167116229Y-105936623D01*
X165101962Y-105936623D01*
X164951413Y-105786074D01*
X164642731Y-105579818D01*
X164299741Y-105437747D01*
X163935625Y-105365320D01*
X163564375Y-105365320D01*
X163200259Y-105437747D01*
X162857269Y-105579818D01*
X162548587Y-105786074D01*
X162286074Y-106048587D01*
X162079818Y-106357269D01*
X161937747Y-106700259D01*
X161875000Y-107015710D01*
X161812253Y-106700259D01*
X161670182Y-106357269D01*
X161463926Y-106048587D01*
X161201413Y-105786074D01*
X160892731Y-105579818D01*
X160549741Y-105437747D01*
X160185625Y-105365320D01*
X159814375Y-105365320D01*
X159450259Y-105437747D01*
X159107269Y-105579818D01*
X158798587Y-105786074D01*
X158536074Y-106048587D01*
X158329818Y-106357269D01*
X158187747Y-106700259D01*
X158115320Y-107064375D01*
X157910000Y-107064375D01*
X157910000Y-102579117D01*
X158765000Y-102579117D01*
X158765000Y-102920883D01*
X158831675Y-103256081D01*
X158962463Y-103571831D01*
X159152337Y-103855998D01*
X159394002Y-104097663D01*
X159678169Y-104287537D01*
X159993919Y-104418325D01*
X160329117Y-104485000D01*
X160670883Y-104485000D01*
X161006081Y-104418325D01*
X161321831Y-104287537D01*
X161605998Y-104097663D01*
X161847663Y-103855998D01*
X162037537Y-103571831D01*
X162168325Y-103256081D01*
X162235000Y-102920883D01*
X162235000Y-102579117D01*
X162168325Y-102243919D01*
X162037537Y-101928169D01*
X161847663Y-101644002D01*
X161605998Y-101402337D01*
X161321831Y-101212463D01*
X161006081Y-101081675D01*
X160670883Y-101015000D01*
X160329117Y-101015000D01*
X159993919Y-101081675D01*
X159678169Y-101212463D01*
X159394002Y-101402337D01*
X159152337Y-101644002D01*
X158962463Y-101928169D01*
X158831675Y-102243919D01*
X158765000Y-102579117D01*
X157910000Y-102579117D01*
X157910000Y-89750320D01*
X158112248Y-89750320D01*
X158115320Y-90714250D01*
X158274070Y-90873000D01*
X159873000Y-90873000D01*
X159873000Y-89274070D01*
X160127000Y-89274070D01*
X160127000Y-90873000D01*
X161725930Y-90873000D01*
X161884680Y-90714250D01*
X161887752Y-89750320D01*
X161875492Y-89625838D01*
X161839182Y-89506140D01*
X161780217Y-89395826D01*
X161700865Y-89299135D01*
X161604174Y-89219783D01*
X161493860Y-89160818D01*
X161374162Y-89124508D01*
X161249680Y-89112248D01*
X160285750Y-89115320D01*
X160127000Y-89274070D01*
X159873000Y-89274070D01*
X159714250Y-89115320D01*
X158750320Y-89112248D01*
X158625838Y-89124508D01*
X158506140Y-89160818D01*
X158395826Y-89219783D01*
X158299135Y-89299135D01*
X158219783Y-89395826D01*
X158160818Y-89506140D01*
X158124508Y-89625838D01*
X158112248Y-89750320D01*
X157910000Y-89750320D01*
X157910000Y-80249680D01*
X158112248Y-80249680D01*
X158124508Y-80374162D01*
X158160818Y-80493860D01*
X158219783Y-80604174D01*
X158299135Y-80700865D01*
X158395826Y-80780217D01*
X158506140Y-80839182D01*
X158625838Y-80875492D01*
X158633422Y-80876239D01*
X158536074Y-80973587D01*
X158329818Y-81282269D01*
X158187747Y-81625259D01*
X158115320Y-81989375D01*
X158115320Y-82360625D01*
X158187747Y-82724741D01*
X158329818Y-83067731D01*
X158536074Y-83376413D01*
X158798587Y-83638926D01*
X158983527Y-83762500D01*
X158798587Y-83886074D01*
X158536074Y-84148587D01*
X158329818Y-84457269D01*
X158187747Y-84800259D01*
X158115320Y-85164375D01*
X158115320Y-85535625D01*
X158187747Y-85899741D01*
X158329818Y-86242731D01*
X158536074Y-86551413D01*
X158798587Y-86813926D01*
X159107269Y-87020182D01*
X159450259Y-87162253D01*
X159814375Y-87234680D01*
X160185625Y-87234680D01*
X160549741Y-87162253D01*
X160892731Y-87020182D01*
X161201413Y-86813926D01*
X161463926Y-86551413D01*
X161670182Y-86242731D01*
X161812253Y-85899741D01*
X161884680Y-85535625D01*
X161884680Y-85164375D01*
X161812253Y-84800259D01*
X161670182Y-84457269D01*
X161463926Y-84148587D01*
X161201413Y-83886074D01*
X161016473Y-83762500D01*
X161201413Y-83638926D01*
X161463926Y-83376413D01*
X161670182Y-83067731D01*
X161725161Y-82935000D01*
X163010199Y-82935000D01*
X165416424Y-85341225D01*
X165368700Y-85581150D01*
X165368700Y-85878850D01*
X165426778Y-86170830D01*
X165540703Y-86445869D01*
X165706096Y-86693398D01*
X165916602Y-86903904D01*
X166060420Y-87000000D01*
X165916602Y-87096096D01*
X165706096Y-87306602D01*
X165540703Y-87554131D01*
X165514723Y-87616853D01*
X165480723Y-87635026D01*
X165397083Y-87703668D01*
X165364999Y-87729999D01*
X165341201Y-87758997D01*
X161849564Y-91250634D01*
X161725930Y-91127000D01*
X160127000Y-91127000D01*
X160127000Y-91147000D01*
X159873000Y-91147000D01*
X159873000Y-91127000D01*
X158274070Y-91127000D01*
X158115320Y-91285750D01*
X158112248Y-92249680D01*
X158124508Y-92374162D01*
X158160818Y-92493860D01*
X158219783Y-92604174D01*
X158299135Y-92700865D01*
X158395826Y-92780217D01*
X158506140Y-92839182D01*
X158625838Y-92875492D01*
X158633422Y-92876239D01*
X158536074Y-92973587D01*
X158329818Y-93282269D01*
X158187747Y-93625259D01*
X158115320Y-93989375D01*
X158115320Y-94360625D01*
X158187747Y-94724741D01*
X158329818Y-95067731D01*
X158536074Y-95376413D01*
X158798587Y-95638926D01*
X158983527Y-95762500D01*
X158798587Y-95886074D01*
X158536074Y-96148587D01*
X158329818Y-96457269D01*
X158187747Y-96800259D01*
X158115320Y-97164375D01*
X158115320Y-97535625D01*
X158187747Y-97899741D01*
X158329818Y-98242731D01*
X158536074Y-98551413D01*
X158798587Y-98813926D01*
X159107269Y-99020182D01*
X159450259Y-99162253D01*
X159814375Y-99234680D01*
X160185625Y-99234680D01*
X160549741Y-99162253D01*
X160892731Y-99020182D01*
X161201413Y-98813926D01*
X161463926Y-98551413D01*
X161670182Y-98242731D01*
X161812253Y-97899741D01*
X161884680Y-97535625D01*
X161884680Y-97164375D01*
X161812253Y-96800259D01*
X161670182Y-96457269D01*
X161463926Y-96148587D01*
X161201413Y-95886074D01*
X161016473Y-95762500D01*
X161201413Y-95638926D01*
X161463926Y-95376413D01*
X161670182Y-95067731D01*
X161812253Y-94724741D01*
X161884680Y-94360625D01*
X161884680Y-93989375D01*
X161812253Y-93625259D01*
X161757274Y-93492527D01*
X165861250Y-89388552D01*
X165916602Y-89443904D01*
X166060420Y-89540000D01*
X165916602Y-89636096D01*
X165706096Y-89846602D01*
X165540703Y-90094131D01*
X165426778Y-90369170D01*
X165368700Y-90661150D01*
X165368700Y-90958850D01*
X165426778Y-91250830D01*
X165540703Y-91525869D01*
X165706096Y-91773398D01*
X165916602Y-91983904D01*
X166060420Y-92080000D01*
X165916602Y-92176096D01*
X165706096Y-92386602D01*
X165540703Y-92634131D01*
X165426778Y-92909170D01*
X165368700Y-93201150D01*
X165368700Y-93498850D01*
X165426778Y-93790830D01*
X165540703Y-94065869D01*
X165706096Y-94313398D01*
X165916602Y-94523904D01*
X166060420Y-94620000D01*
X165916602Y-94716096D01*
X165706096Y-94926602D01*
X165540703Y-95174131D01*
X165426778Y-95449170D01*
X165368700Y-95741150D01*
X165368700Y-96038850D01*
X165426778Y-96330830D01*
X165540703Y-96605869D01*
X165706096Y-96853398D01*
X165916602Y-97063904D01*
X166060420Y-97160000D01*
X165916602Y-97256096D01*
X165706096Y-97466602D01*
X165540703Y-97714131D01*
X165426778Y-97989170D01*
X165368700Y-98281150D01*
X165368700Y-98578850D01*
X165426778Y-98870830D01*
X165540703Y-99145869D01*
X165706096Y-99393398D01*
X165916602Y-99603904D01*
X166060420Y-99700000D01*
X165916602Y-99796096D01*
X165706096Y-100006602D01*
X165540703Y-100254131D01*
X165426778Y-100529170D01*
X165368700Y-100821150D01*
X165368700Y-101118850D01*
X165426778Y-101410830D01*
X165540703Y-101685869D01*
X165706096Y-101933398D01*
X165916602Y-102143904D01*
X166164131Y-102309297D01*
X166439170Y-102423222D01*
X166731150Y-102481300D01*
X167028850Y-102481300D01*
X167320830Y-102423222D01*
X167595869Y-102309297D01*
X167843398Y-102143904D01*
X168053904Y-101933398D01*
X168219297Y-101685869D01*
X168333222Y-101410830D01*
X168391300Y-101118850D01*
X168391300Y-101016101D01*
X171386201Y-104011003D01*
X171409999Y-104040001D01*
X171525724Y-104134974D01*
X171657753Y-104205546D01*
X171801014Y-104249003D01*
X171912667Y-104260000D01*
X171912675Y-104260000D01*
X171950000Y-104263676D01*
X171987325Y-104260000D01*
X183212678Y-104260000D01*
X183250000Y-104263676D01*
X183287322Y-104260000D01*
X183287333Y-104260000D01*
X183398986Y-104249003D01*
X183542247Y-104205546D01*
X183674276Y-104134974D01*
X183790001Y-104040001D01*
X183813804Y-104010997D01*
X187011004Y-100813798D01*
X187040001Y-100790001D01*
X187073647Y-100749003D01*
X187112248Y-100701968D01*
X187112248Y-101999680D01*
X187124508Y-102124162D01*
X187160818Y-102243860D01*
X187219783Y-102354174D01*
X187299135Y-102450865D01*
X187395826Y-102530217D01*
X187506140Y-102589182D01*
X187625838Y-102625492D01*
X187750320Y-102637752D01*
X190249680Y-102637752D01*
X190374162Y-102625492D01*
X190493860Y-102589182D01*
X190604174Y-102530217D01*
X190700865Y-102450865D01*
X190780217Y-102354174D01*
X190839182Y-102243860D01*
X190875492Y-102124162D01*
X190887752Y-101999680D01*
X190887752Y-99500320D01*
X190875492Y-99375838D01*
X190839182Y-99256140D01*
X190780217Y-99145826D01*
X190700865Y-99049135D01*
X190604174Y-98969783D01*
X190493860Y-98910818D01*
X190376999Y-98875369D01*
X190428488Y-98823880D01*
X190313378Y-98708770D01*
X190603315Y-98582896D01*
X190769139Y-98250738D01*
X190866975Y-97892613D01*
X190893065Y-97522281D01*
X190846405Y-97153975D01*
X190728789Y-96801849D01*
X190603315Y-96567104D01*
X190313377Y-96441229D01*
X189179605Y-97575000D01*
X189193748Y-97589142D01*
X189014142Y-97768748D01*
X189000000Y-97754605D01*
X188985858Y-97768748D01*
X188806252Y-97589142D01*
X188820395Y-97575000D01*
X188806252Y-97560858D01*
X188985858Y-97381252D01*
X189000000Y-97395395D01*
X190133771Y-96261623D01*
X190015147Y-95988386D01*
X190201413Y-95863926D01*
X190463926Y-95601413D01*
X190670182Y-95292731D01*
X190812253Y-94949741D01*
X190884680Y-94585625D01*
X190884680Y-94214375D01*
X190812253Y-93850259D01*
X190670182Y-93507269D01*
X190463926Y-93198587D01*
X190201413Y-92936074D01*
X189892731Y-92729818D01*
X189549741Y-92587747D01*
X189185625Y-92515320D01*
X188814375Y-92515320D01*
X188450259Y-92587747D01*
X188107269Y-92729818D01*
X187798587Y-92936074D01*
X187536074Y-93198587D01*
X187329818Y-93507269D01*
X187187747Y-93850259D01*
X187115320Y-94214375D01*
X187115320Y-94585625D01*
X187187747Y-94949741D01*
X187242726Y-95082472D01*
X186760000Y-95565199D01*
X186760000Y-87214801D01*
X187126629Y-86848172D01*
X187106935Y-87127719D01*
X187153595Y-87496025D01*
X187271211Y-87848151D01*
X187396685Y-88082896D01*
X187686622Y-88208770D01*
X187571512Y-88323880D01*
X187623001Y-88375369D01*
X187506140Y-88410818D01*
X187395826Y-88469783D01*
X187299135Y-88549135D01*
X187219783Y-88645826D01*
X187160818Y-88756140D01*
X187124508Y-88875838D01*
X187112248Y-89000320D01*
X187112248Y-91499680D01*
X187124508Y-91624162D01*
X187160818Y-91743860D01*
X187219783Y-91854174D01*
X187299135Y-91950865D01*
X187395826Y-92030217D01*
X187506140Y-92089182D01*
X187625838Y-92125492D01*
X187750320Y-92137752D01*
X190249680Y-92137752D01*
X190374162Y-92125492D01*
X190493860Y-92089182D01*
X190604174Y-92030217D01*
X190700865Y-91950865D01*
X190780217Y-91854174D01*
X190839182Y-91743860D01*
X190875492Y-91624162D01*
X190887752Y-91499680D01*
X190887752Y-89000320D01*
X190875492Y-88875838D01*
X190839182Y-88756140D01*
X190780217Y-88645826D01*
X190700865Y-88549135D01*
X190604174Y-88469783D01*
X190493860Y-88410818D01*
X190376999Y-88375369D01*
X190428488Y-88323880D01*
X190313378Y-88208770D01*
X190603315Y-88082896D01*
X190769139Y-87750738D01*
X190866975Y-87392613D01*
X190893065Y-87022281D01*
X190846405Y-86653975D01*
X190728789Y-86301849D01*
X190603315Y-86067104D01*
X190313377Y-85941229D01*
X189179605Y-87075000D01*
X189193748Y-87089142D01*
X189014142Y-87268748D01*
X189000000Y-87254605D01*
X188985858Y-87268748D01*
X188806252Y-87089142D01*
X188820395Y-87075000D01*
X188806252Y-87060858D01*
X188985858Y-86881252D01*
X189000000Y-86895395D01*
X190133771Y-85761623D01*
X190015147Y-85488386D01*
X190201413Y-85363926D01*
X190463926Y-85101413D01*
X190670182Y-84792731D01*
X190812253Y-84449741D01*
X190884680Y-84085625D01*
X190884680Y-83714375D01*
X190812253Y-83350259D01*
X190670182Y-83007269D01*
X190463926Y-82698587D01*
X190201413Y-82436074D01*
X189892731Y-82229818D01*
X189549741Y-82087747D01*
X189185625Y-82015320D01*
X188814375Y-82015320D01*
X188450259Y-82087747D01*
X188107269Y-82229818D01*
X187798587Y-82436074D01*
X187536074Y-82698587D01*
X187329818Y-83007269D01*
X187187747Y-83350259D01*
X187115320Y-83714375D01*
X187115320Y-84085625D01*
X187187747Y-84449741D01*
X187242726Y-84582472D01*
X186260000Y-85565199D01*
X186260000Y-77139801D01*
X187126629Y-76273172D01*
X187106935Y-76552719D01*
X187153595Y-76921025D01*
X187271211Y-77273151D01*
X187396685Y-77507896D01*
X187686622Y-77633770D01*
X187571512Y-77748880D01*
X187623001Y-77800369D01*
X187506140Y-77835818D01*
X187395826Y-77894783D01*
X187299135Y-77974135D01*
X187219783Y-78070826D01*
X187160818Y-78181140D01*
X187124508Y-78300838D01*
X187112248Y-78425320D01*
X187112248Y-80924680D01*
X187124508Y-81049162D01*
X187160818Y-81168860D01*
X187219783Y-81279174D01*
X187299135Y-81375865D01*
X187395826Y-81455217D01*
X187506140Y-81514182D01*
X187625838Y-81550492D01*
X187750320Y-81562752D01*
X190249680Y-81562752D01*
X190374162Y-81550492D01*
X190493860Y-81514182D01*
X190604174Y-81455217D01*
X190700865Y-81375865D01*
X190780217Y-81279174D01*
X190839182Y-81168860D01*
X190875492Y-81049162D01*
X190887752Y-80924680D01*
X190887752Y-78425320D01*
X190875492Y-78300838D01*
X190839182Y-78181140D01*
X190780217Y-78070826D01*
X190700865Y-77974135D01*
X190604174Y-77894783D01*
X190493860Y-77835818D01*
X190376999Y-77800369D01*
X190428488Y-77748880D01*
X190313378Y-77633770D01*
X190603315Y-77507896D01*
X190769139Y-77175738D01*
X190866975Y-76817613D01*
X190893065Y-76447281D01*
X190846405Y-76078975D01*
X190728789Y-75726849D01*
X190603315Y-75492104D01*
X190313377Y-75366229D01*
X189179605Y-76500000D01*
X189193748Y-76514142D01*
X189014142Y-76693748D01*
X189000000Y-76679605D01*
X188985858Y-76693748D01*
X188806252Y-76514142D01*
X188820395Y-76500000D01*
X188806252Y-76485858D01*
X188985858Y-76306252D01*
X189000000Y-76320395D01*
X190133771Y-75186623D01*
X190015147Y-74913386D01*
X190201413Y-74788926D01*
X190463926Y-74526413D01*
X190670182Y-74217731D01*
X190812253Y-73874741D01*
X190884680Y-73510625D01*
X190884680Y-73139375D01*
X190812253Y-72775259D01*
X190670182Y-72432269D01*
X190463926Y-72123587D01*
X190201413Y-71861074D01*
X189892731Y-71654818D01*
X189549741Y-71512747D01*
X189185625Y-71440320D01*
X188814375Y-71440320D01*
X188450259Y-71512747D01*
X188107269Y-71654818D01*
X187798587Y-71861074D01*
X187536074Y-72123587D01*
X187329818Y-72432269D01*
X187187747Y-72775259D01*
X187115320Y-73139375D01*
X187115320Y-73510625D01*
X187187747Y-73874741D01*
X187242726Y-74007472D01*
X184988998Y-76261201D01*
X184960000Y-76284999D01*
X184936202Y-76313997D01*
X184936201Y-76313998D01*
X184865026Y-76400724D01*
X184794454Y-76532754D01*
X184750998Y-76676015D01*
X184736324Y-76825000D01*
X184740001Y-76862333D01*
X184740000Y-99435198D01*
X183585301Y-100589897D01*
X183573222Y-100529170D01*
X183459297Y-100254131D01*
X183293904Y-100006602D01*
X183083398Y-99796096D01*
X182939580Y-99700000D01*
X183083398Y-99603904D01*
X183293904Y-99393398D01*
X183459297Y-99145869D01*
X183573222Y-98870830D01*
X183631300Y-98578850D01*
X183631300Y-98281150D01*
X183573222Y-97989170D01*
X183459297Y-97714131D01*
X183293904Y-97466602D01*
X183083398Y-97256096D01*
X182939580Y-97160000D01*
X183083398Y-97063904D01*
X183293904Y-96853398D01*
X183459297Y-96605869D01*
X183573222Y-96330830D01*
X183631300Y-96038850D01*
X183631300Y-95741150D01*
X183573222Y-95449170D01*
X183459297Y-95174131D01*
X183293904Y-94926602D01*
X183083398Y-94716096D01*
X182939580Y-94620000D01*
X183083398Y-94523904D01*
X183293904Y-94313398D01*
X183459297Y-94065869D01*
X183573222Y-93790830D01*
X183631300Y-93498850D01*
X183631300Y-93201150D01*
X183573222Y-92909170D01*
X183459297Y-92634131D01*
X183293904Y-92386602D01*
X183083398Y-92176096D01*
X182939580Y-92080000D01*
X183083398Y-91983904D01*
X183293904Y-91773398D01*
X183459297Y-91525869D01*
X183573222Y-91250830D01*
X183631300Y-90958850D01*
X183631300Y-90661150D01*
X183573222Y-90369170D01*
X183459297Y-90094131D01*
X183293904Y-89846602D01*
X183083398Y-89636096D01*
X182939580Y-89540000D01*
X183083398Y-89443904D01*
X183293904Y-89233398D01*
X183459297Y-88985869D01*
X183573222Y-88710830D01*
X183631300Y-88418850D01*
X183631300Y-88121150D01*
X183573222Y-87829170D01*
X183459297Y-87554131D01*
X183293904Y-87306602D01*
X183083398Y-87096096D01*
X182939580Y-87000000D01*
X183083398Y-86903904D01*
X183293904Y-86693398D01*
X183459297Y-86445869D01*
X183573222Y-86170830D01*
X183631300Y-85878850D01*
X183631300Y-85581150D01*
X183573222Y-85289170D01*
X183459297Y-85014131D01*
X183293904Y-84766602D01*
X183083398Y-84556096D01*
X182939580Y-84460000D01*
X183083398Y-84363904D01*
X183293904Y-84153398D01*
X183459297Y-83905869D01*
X183573222Y-83630830D01*
X183631300Y-83338850D01*
X183631300Y-83041150D01*
X183573222Y-82749170D01*
X183459297Y-82474131D01*
X183293904Y-82226602D01*
X183083398Y-82016096D01*
X182939580Y-81920000D01*
X183083398Y-81823904D01*
X183293904Y-81613398D01*
X183459297Y-81365869D01*
X183573222Y-81090830D01*
X183631300Y-80798850D01*
X183631300Y-80501150D01*
X183573222Y-80209170D01*
X183459297Y-79934131D01*
X183293904Y-79686602D01*
X183083398Y-79476096D01*
X182939580Y-79380000D01*
X183083398Y-79283904D01*
X183293904Y-79073398D01*
X183459297Y-78825869D01*
X183573222Y-78550830D01*
X183631300Y-78258850D01*
X183631300Y-77961150D01*
X183573222Y-77669170D01*
X183459297Y-77394131D01*
X183293904Y-77146602D01*
X183083398Y-76936096D01*
X182920191Y-76827045D01*
X182987563Y-76617169D01*
X182120000Y-75749605D01*
X181252437Y-76617169D01*
X181319809Y-76827045D01*
X181156602Y-76936096D01*
X180946096Y-77146602D01*
X180780703Y-77394131D01*
X180666778Y-77669170D01*
X180608700Y-77961150D01*
X180608700Y-78258850D01*
X180666778Y-78550830D01*
X180780703Y-78825869D01*
X180946096Y-79073398D01*
X181156602Y-79283904D01*
X181300420Y-79380000D01*
X181156602Y-79476096D01*
X180946096Y-79686602D01*
X180780703Y-79934131D01*
X180666778Y-80209170D01*
X180608700Y-80501150D01*
X180608700Y-80798850D01*
X180666778Y-81090830D01*
X180780703Y-81365869D01*
X180946096Y-81613398D01*
X181156602Y-81823904D01*
X181300420Y-81920000D01*
X181156602Y-82016096D01*
X180946096Y-82226602D01*
X180780703Y-82474131D01*
X180666778Y-82749170D01*
X180608700Y-83041150D01*
X180608700Y-83338850D01*
X180666778Y-83630830D01*
X180780703Y-83905869D01*
X180946096Y-84153398D01*
X181156602Y-84363904D01*
X181300420Y-84460000D01*
X181156602Y-84556096D01*
X180946096Y-84766602D01*
X180780703Y-85014131D01*
X180666778Y-85289170D01*
X180608700Y-85581150D01*
X180608700Y-85878850D01*
X180666778Y-86170830D01*
X180780703Y-86445869D01*
X180946096Y-86693398D01*
X181156602Y-86903904D01*
X181300420Y-87000000D01*
X181156602Y-87096096D01*
X180946096Y-87306602D01*
X180780703Y-87554131D01*
X180666778Y-87829170D01*
X180608700Y-88121150D01*
X180608700Y-88418850D01*
X180666778Y-88710830D01*
X180780703Y-88985869D01*
X180946096Y-89233398D01*
X181156602Y-89443904D01*
X181300420Y-89540000D01*
X181156602Y-89636096D01*
X180946096Y-89846602D01*
X180780703Y-90094131D01*
X180666778Y-90369170D01*
X180608700Y-90661150D01*
X180608700Y-90958850D01*
X180666778Y-91250830D01*
X180780703Y-91525869D01*
X180946096Y-91773398D01*
X181156602Y-91983904D01*
X181300420Y-92080000D01*
X181156602Y-92176096D01*
X180946096Y-92386602D01*
X180780703Y-92634131D01*
X180666778Y-92909170D01*
X180608700Y-93201150D01*
X180608700Y-93498850D01*
X180666778Y-93790830D01*
X180780703Y-94065869D01*
X180946096Y-94313398D01*
X181156602Y-94523904D01*
X181300420Y-94620000D01*
X181156602Y-94716096D01*
X180946096Y-94926602D01*
X180780703Y-95174131D01*
X180666778Y-95449170D01*
X180608700Y-95741150D01*
X180608700Y-96038850D01*
X180666778Y-96330830D01*
X180780703Y-96605869D01*
X180946096Y-96853398D01*
X181156602Y-97063904D01*
X181300420Y-97160000D01*
X181156602Y-97256096D01*
X180946096Y-97466602D01*
X180780703Y-97714131D01*
X180666778Y-97989170D01*
X180608700Y-98281150D01*
X180608700Y-98578850D01*
X180666778Y-98870830D01*
X180780703Y-99145869D01*
X180946096Y-99393398D01*
X181156602Y-99603904D01*
X181300420Y-99700000D01*
X181156602Y-99796096D01*
X180946096Y-100006602D01*
X180780703Y-100254131D01*
X180666778Y-100529170D01*
X180608700Y-100821150D01*
X180608700Y-101118850D01*
X180666778Y-101410830D01*
X180780703Y-101685869D01*
X180816872Y-101740000D01*
X176344802Y-101740000D01*
X168343576Y-93738775D01*
X168391300Y-93498850D01*
X168391300Y-93201150D01*
X168333222Y-92909170D01*
X168219297Y-92634131D01*
X168053904Y-92386602D01*
X167843398Y-92176096D01*
X167699580Y-92080000D01*
X167843398Y-91983904D01*
X168053904Y-91773398D01*
X168219297Y-91525869D01*
X168333222Y-91250830D01*
X168391300Y-90958850D01*
X168391300Y-90661150D01*
X168333222Y-90369170D01*
X168219297Y-90094131D01*
X168053904Y-89846602D01*
X167843398Y-89636096D01*
X167699580Y-89540000D01*
X167843398Y-89443904D01*
X168053904Y-89233398D01*
X168219297Y-88985869D01*
X168333222Y-88710830D01*
X168391300Y-88418850D01*
X168391300Y-88121150D01*
X168333222Y-87829170D01*
X168219297Y-87554131D01*
X168053904Y-87306602D01*
X167843398Y-87096096D01*
X167699580Y-87000000D01*
X167843398Y-86903904D01*
X168053904Y-86693398D01*
X168219297Y-86445869D01*
X168333222Y-86170830D01*
X168391300Y-85878850D01*
X168391300Y-85581150D01*
X168333222Y-85289170D01*
X168219297Y-85014131D01*
X168053904Y-84766602D01*
X167843398Y-84556096D01*
X167699580Y-84460000D01*
X167843398Y-84363904D01*
X168053904Y-84153398D01*
X168219297Y-83905869D01*
X168333222Y-83630830D01*
X168391300Y-83338850D01*
X168391300Y-83041150D01*
X168333222Y-82749170D01*
X168219297Y-82474131D01*
X168053904Y-82226602D01*
X167843398Y-82016096D01*
X167680191Y-81907045D01*
X167747563Y-81697169D01*
X166880000Y-80829605D01*
X166012437Y-81697169D01*
X166079809Y-81907045D01*
X165916602Y-82016096D01*
X165706096Y-82226602D01*
X165540703Y-82474131D01*
X165426778Y-82749170D01*
X165368700Y-83041150D01*
X165368700Y-83143899D01*
X163888804Y-81664003D01*
X163865001Y-81634999D01*
X163749276Y-81540026D01*
X163617247Y-81469454D01*
X163473986Y-81425997D01*
X163362333Y-81415000D01*
X163362322Y-81415000D01*
X163325000Y-81411324D01*
X163287678Y-81415000D01*
X161725161Y-81415000D01*
X161670182Y-81282269D01*
X161463926Y-80973587D01*
X161366578Y-80876239D01*
X161374162Y-80875492D01*
X161493860Y-80839182D01*
X161604174Y-80780217D01*
X161680606Y-80717491D01*
X165362887Y-80717491D01*
X165405204Y-81012167D01*
X165504198Y-81292927D01*
X165581071Y-81436746D01*
X165832831Y-81517563D01*
X166700395Y-80650000D01*
X167059605Y-80650000D01*
X167927169Y-81517563D01*
X168178929Y-81436746D01*
X168307457Y-81168221D01*
X168381129Y-80879781D01*
X168397113Y-80582509D01*
X168354796Y-80287833D01*
X168255802Y-80007073D01*
X168178929Y-79863254D01*
X167927169Y-79782437D01*
X167059605Y-80650000D01*
X166700395Y-80650000D01*
X165832831Y-79782437D01*
X165581071Y-79863254D01*
X165452543Y-80131779D01*
X165378871Y-80420219D01*
X165362887Y-80717491D01*
X161680606Y-80717491D01*
X161700865Y-80700865D01*
X161780217Y-80604174D01*
X161839182Y-80493860D01*
X161875492Y-80374162D01*
X161887752Y-80249680D01*
X161884680Y-79285750D01*
X161756099Y-79157169D01*
X166012437Y-79157169D01*
X166083968Y-79380000D01*
X166012437Y-79602831D01*
X166880000Y-80470395D01*
X167747563Y-79602831D01*
X167676032Y-79380000D01*
X167747563Y-79157169D01*
X166880000Y-78289605D01*
X166012437Y-79157169D01*
X161756099Y-79157169D01*
X161725930Y-79127000D01*
X160127000Y-79127000D01*
X160127000Y-79147000D01*
X159873000Y-79147000D01*
X159873000Y-79127000D01*
X158274070Y-79127000D01*
X158115320Y-79285750D01*
X158112248Y-80249680D01*
X157910000Y-80249680D01*
X157910000Y-77750320D01*
X158112248Y-77750320D01*
X158115320Y-78714250D01*
X158274070Y-78873000D01*
X159873000Y-78873000D01*
X159873000Y-77274070D01*
X160127000Y-77274070D01*
X160127000Y-78873000D01*
X161725930Y-78873000D01*
X161884680Y-78714250D01*
X161886390Y-78177491D01*
X165362887Y-78177491D01*
X165405204Y-78472167D01*
X165504198Y-78752927D01*
X165581071Y-78896746D01*
X165832831Y-78977563D01*
X166700395Y-78110000D01*
X167059605Y-78110000D01*
X167927169Y-78977563D01*
X168178929Y-78896746D01*
X168307457Y-78628221D01*
X168381129Y-78339781D01*
X168397113Y-78042509D01*
X168354796Y-77747833D01*
X168255802Y-77467073D01*
X168178929Y-77323254D01*
X167927169Y-77242437D01*
X167059605Y-78110000D01*
X166700395Y-78110000D01*
X165832831Y-77242437D01*
X165581071Y-77323254D01*
X165452543Y-77591779D01*
X165378871Y-77880219D01*
X165362887Y-78177491D01*
X161886390Y-78177491D01*
X161887752Y-77750320D01*
X161875492Y-77625838D01*
X161839182Y-77506140D01*
X161780217Y-77395826D01*
X161700865Y-77299135D01*
X161604174Y-77219783D01*
X161493860Y-77160818D01*
X161374162Y-77124508D01*
X161249680Y-77112248D01*
X160285750Y-77115320D01*
X160127000Y-77274070D01*
X159873000Y-77274070D01*
X159714250Y-77115320D01*
X158750320Y-77112248D01*
X158625838Y-77124508D01*
X158506140Y-77160818D01*
X158395826Y-77219783D01*
X158299135Y-77299135D01*
X158219783Y-77395826D01*
X158160818Y-77506140D01*
X158124508Y-77625838D01*
X158112248Y-77750320D01*
X157910000Y-77750320D01*
X157910000Y-73829117D01*
X158765000Y-73829117D01*
X158765000Y-74170883D01*
X158831675Y-74506081D01*
X158962463Y-74821831D01*
X159152337Y-75105998D01*
X159394002Y-75347663D01*
X159678169Y-75537537D01*
X159993919Y-75668325D01*
X160329117Y-75735000D01*
X160670883Y-75735000D01*
X161006081Y-75668325D01*
X161321831Y-75537537D01*
X161605998Y-75347663D01*
X161847663Y-75105998D01*
X162037537Y-74821831D01*
X162168325Y-74506081D01*
X162235000Y-74170883D01*
X162235000Y-73829117D01*
X162168325Y-73493919D01*
X162037537Y-73178169D01*
X161847663Y-72894002D01*
X161605998Y-72652337D01*
X161321831Y-72462463D01*
X161006081Y-72331675D01*
X160670883Y-72265000D01*
X160329117Y-72265000D01*
X159993919Y-72331675D01*
X159678169Y-72462463D01*
X159394002Y-72652337D01*
X159152337Y-72894002D01*
X158962463Y-73178169D01*
X158831675Y-73493919D01*
X158765000Y-73829117D01*
X157910000Y-73829117D01*
X157910000Y-72153700D01*
X165365628Y-72153700D01*
X165365628Y-73906300D01*
X165377888Y-74030782D01*
X165414198Y-74150480D01*
X165473163Y-74260794D01*
X165552515Y-74357485D01*
X165649206Y-74436837D01*
X165759520Y-74495802D01*
X165803542Y-74509156D01*
X165706096Y-74606602D01*
X165540703Y-74854131D01*
X165426778Y-75129170D01*
X165368700Y-75421150D01*
X165368700Y-75718850D01*
X165426778Y-76010830D01*
X165540703Y-76285869D01*
X165706096Y-76533398D01*
X165916602Y-76743904D01*
X166079809Y-76852955D01*
X166012437Y-77062831D01*
X166880000Y-77930395D01*
X167747563Y-77062831D01*
X167680191Y-76852955D01*
X167843398Y-76743904D01*
X168053904Y-76533398D01*
X168219297Y-76285869D01*
X168333222Y-76010830D01*
X168391300Y-75718850D01*
X168391300Y-75637491D01*
X180602887Y-75637491D01*
X180645204Y-75932167D01*
X180744198Y-76212927D01*
X180821071Y-76356746D01*
X181072831Y-76437563D01*
X181940395Y-75570000D01*
X182299605Y-75570000D01*
X183167169Y-76437563D01*
X183418929Y-76356746D01*
X183547457Y-76088221D01*
X183621129Y-75799781D01*
X183637113Y-75502509D01*
X183594796Y-75207833D01*
X183495802Y-74927073D01*
X183418929Y-74783254D01*
X183167169Y-74702437D01*
X182299605Y-75570000D01*
X181940395Y-75570000D01*
X181072831Y-74702437D01*
X180821071Y-74783254D01*
X180692543Y-75051779D01*
X180618871Y-75340219D01*
X180602887Y-75637491D01*
X168391300Y-75637491D01*
X168391300Y-75421150D01*
X168333222Y-75129170D01*
X168219297Y-74854131D01*
X168053904Y-74606602D01*
X167956458Y-74509156D01*
X168000480Y-74495802D01*
X168110794Y-74436837D01*
X168207485Y-74357485D01*
X168286837Y-74260794D01*
X168345802Y-74150480D01*
X168382112Y-74030782D01*
X168394372Y-73906300D01*
X168394372Y-72881150D01*
X180608700Y-72881150D01*
X180608700Y-73178850D01*
X180666778Y-73470830D01*
X180780703Y-73745869D01*
X180946096Y-73993398D01*
X181156602Y-74203904D01*
X181319809Y-74312955D01*
X181252437Y-74522831D01*
X182120000Y-75390395D01*
X182987563Y-74522831D01*
X182920191Y-74312955D01*
X183083398Y-74203904D01*
X183293904Y-73993398D01*
X183459297Y-73745869D01*
X183573222Y-73470830D01*
X183631300Y-73178850D01*
X183631300Y-72881150D01*
X183573222Y-72589170D01*
X183459297Y-72314131D01*
X183293904Y-72066602D01*
X183083398Y-71856096D01*
X182835869Y-71690703D01*
X182560830Y-71576778D01*
X182268850Y-71518700D01*
X181971150Y-71518700D01*
X181679170Y-71576778D01*
X181404131Y-71690703D01*
X181156602Y-71856096D01*
X180946096Y-72066602D01*
X180780703Y-72314131D01*
X180666778Y-72589170D01*
X180608700Y-72881150D01*
X168394372Y-72881150D01*
X168394372Y-72153700D01*
X168382112Y-72029218D01*
X168345802Y-71909520D01*
X168286837Y-71799206D01*
X168207485Y-71702515D01*
X168110794Y-71623163D01*
X168000480Y-71564198D01*
X167880782Y-71527888D01*
X167756300Y-71515628D01*
X166003700Y-71515628D01*
X165879218Y-71527888D01*
X165759520Y-71564198D01*
X165649206Y-71623163D01*
X165552515Y-71702515D01*
X165473163Y-71799206D01*
X165414198Y-71909520D01*
X165377888Y-72029218D01*
X165365628Y-72153700D01*
X157910000Y-72153700D01*
X157910000Y-71410000D01*
X191090000Y-71410000D01*
X191090001Y-73217572D01*
M02*
