G04 #@! TF.GenerationSoftware,KiCad,Pcbnew,(5.1.5-0-10_14)*
G04 #@! TF.CreationDate,2020-03-09T11:35:15+01:00*
G04 #@! TF.ProjectId,pro_micro_shield,70726f5f-6d69-4637-926f-5f736869656c,rev?*
G04 #@! TF.SameCoordinates,Original*
G04 #@! TF.FileFunction,Legend,Top*
G04 #@! TF.FilePolarity,Positive*
%FSLAX46Y46*%
G04 Gerber Fmt 4.6, Leading zero omitted, Abs format (unit mm)*
G04 Created by KiCad (PCBNEW (5.1.5-0-10_14)) date 2020-03-09 11:35:15*
%MOMM*%
%LPD*%
G04 APERTURE LIST*
%ADD10C,0.150000*%
%ADD11C,0.120000*%
%ADD12C,0.250000*%
%ADD13C,0.300000*%
%ADD14C,0.381000*%
G04 APERTURE END LIST*
D10*
X185226190Y-104202380D02*
X184750000Y-104202380D01*
X184750000Y-103202380D01*
X185511904Y-103916666D02*
X185988095Y-103916666D01*
X185416666Y-104202380D02*
X185750000Y-103202380D01*
X186083333Y-104202380D01*
X186369047Y-104154761D02*
X186511904Y-104202380D01*
X186750000Y-104202380D01*
X186845238Y-104154761D01*
X186892857Y-104107142D01*
X186940476Y-104011904D01*
X186940476Y-103916666D01*
X186892857Y-103821428D01*
X186845238Y-103773809D01*
X186750000Y-103726190D01*
X186559523Y-103678571D01*
X186464285Y-103630952D01*
X186416666Y-103583333D01*
X186369047Y-103488095D01*
X186369047Y-103392857D01*
X186416666Y-103297619D01*
X186464285Y-103250000D01*
X186559523Y-103202380D01*
X186797619Y-103202380D01*
X186940476Y-103250000D01*
X187369047Y-103678571D02*
X187702380Y-103678571D01*
X187845238Y-104202380D02*
X187369047Y-104202380D01*
X187369047Y-103202380D01*
X187845238Y-103202380D01*
X188845238Y-104202380D02*
X188511904Y-103726190D01*
X188273809Y-104202380D02*
X188273809Y-103202380D01*
X188654761Y-103202380D01*
X188750000Y-103250000D01*
X188797619Y-103297619D01*
X188845238Y-103392857D01*
X188845238Y-103535714D01*
X188797619Y-103630952D01*
X188750000Y-103678571D01*
X188654761Y-103726190D01*
X188273809Y-103726190D01*
X189226190Y-104154761D02*
X189369047Y-104202380D01*
X189607142Y-104202380D01*
X189702380Y-104154761D01*
X189750000Y-104107142D01*
X189797619Y-104011904D01*
X189797619Y-103916666D01*
X189750000Y-103821428D01*
X189702380Y-103773809D01*
X189607142Y-103726190D01*
X189416666Y-103678571D01*
X189321428Y-103630952D01*
X189273809Y-103583333D01*
X189226190Y-103488095D01*
X189226190Y-103392857D01*
X189273809Y-103297619D01*
X189321428Y-103250000D01*
X189416666Y-103202380D01*
X189654761Y-103202380D01*
X189797619Y-103250000D01*
X187666666Y-104702380D02*
X188000000Y-105702380D01*
X188333333Y-104702380D01*
X189238095Y-105607142D02*
X189190476Y-105654761D01*
X189047619Y-105702380D01*
X188952380Y-105702380D01*
X188809523Y-105654761D01*
X188714285Y-105559523D01*
X188666666Y-105464285D01*
X188619047Y-105273809D01*
X188619047Y-105130952D01*
X188666666Y-104940476D01*
X188714285Y-104845238D01*
X188809523Y-104750000D01*
X188952380Y-104702380D01*
X189047619Y-104702380D01*
X189190476Y-104750000D01*
X189238095Y-104797619D01*
X190238095Y-105607142D02*
X190190476Y-105654761D01*
X190047619Y-105702380D01*
X189952380Y-105702380D01*
X189809523Y-105654761D01*
X189714285Y-105559523D01*
X189666666Y-105464285D01*
X189619047Y-105273809D01*
X189619047Y-105130952D01*
X189666666Y-104940476D01*
X189714285Y-104845238D01*
X189809523Y-104750000D01*
X189952380Y-104702380D01*
X190047619Y-104702380D01*
X190190476Y-104750000D01*
X190238095Y-104797619D01*
X184488095Y-104750000D02*
X184392857Y-104702380D01*
X184250000Y-104702380D01*
X184107142Y-104750000D01*
X184011904Y-104845238D01*
X183964285Y-104940476D01*
X183916666Y-105130952D01*
X183916666Y-105273809D01*
X183964285Y-105464285D01*
X184011904Y-105559523D01*
X184107142Y-105654761D01*
X184250000Y-105702380D01*
X184345238Y-105702380D01*
X184488095Y-105654761D01*
X184535714Y-105607142D01*
X184535714Y-105273809D01*
X184345238Y-105273809D01*
X184964285Y-105702380D02*
X184964285Y-104702380D01*
X185535714Y-105702380D01*
X185535714Y-104702380D01*
X186011904Y-105702380D02*
X186011904Y-104702380D01*
X186250000Y-104702380D01*
X186392857Y-104750000D01*
X186488095Y-104845238D01*
X186535714Y-104940476D01*
X186583333Y-105130952D01*
X186583333Y-105273809D01*
X186535714Y-105464285D01*
X186488095Y-105559523D01*
X186392857Y-105654761D01*
X186250000Y-105702380D01*
X186011904Y-105702380D01*
X164130952Y-104154761D02*
X164035714Y-104202380D01*
X163845238Y-104202380D01*
X163750000Y-104154761D01*
X163702380Y-104059523D01*
X163702380Y-103678571D01*
X163750000Y-103583333D01*
X163845238Y-103535714D01*
X164035714Y-103535714D01*
X164130952Y-103583333D01*
X164178571Y-103678571D01*
X164178571Y-103773809D01*
X163702380Y-103869047D01*
X164511904Y-104202380D02*
X165035714Y-103535714D01*
X164511904Y-103535714D02*
X165035714Y-104202380D01*
X165273809Y-103535714D02*
X165654761Y-103535714D01*
X165416666Y-103202380D02*
X165416666Y-104059523D01*
X165464285Y-104154761D01*
X165559523Y-104202380D01*
X165654761Y-104202380D01*
X165988095Y-104202380D02*
X165988095Y-103535714D01*
X165988095Y-103726190D02*
X166035714Y-103630952D01*
X166083333Y-103583333D01*
X166178571Y-103535714D01*
X166273809Y-103535714D01*
X167035714Y-104202380D02*
X167035714Y-103678571D01*
X166988095Y-103583333D01*
X166892857Y-103535714D01*
X166702380Y-103535714D01*
X166607142Y-103583333D01*
X167035714Y-104154761D02*
X166940476Y-104202380D01*
X166702380Y-104202380D01*
X166607142Y-104154761D01*
X166559523Y-104059523D01*
X166559523Y-103964285D01*
X166607142Y-103869047D01*
X166702380Y-103821428D01*
X166940476Y-103821428D01*
X167035714Y-103773809D01*
X168702380Y-104154761D02*
X168607142Y-104202380D01*
X168416666Y-104202380D01*
X168321428Y-104154761D01*
X168273809Y-104107142D01*
X168226190Y-104011904D01*
X168226190Y-103726190D01*
X168273809Y-103630952D01*
X168321428Y-103583333D01*
X168416666Y-103535714D01*
X168607142Y-103535714D01*
X168702380Y-103583333D01*
X169273809Y-104202380D02*
X169178571Y-104154761D01*
X169130952Y-104107142D01*
X169083333Y-104011904D01*
X169083333Y-103726190D01*
X169130952Y-103630952D01*
X169178571Y-103583333D01*
X169273809Y-103535714D01*
X169416666Y-103535714D01*
X169511904Y-103583333D01*
X169559523Y-103630952D01*
X169607142Y-103726190D01*
X169607142Y-104011904D01*
X169559523Y-104107142D01*
X169511904Y-104154761D01*
X169416666Y-104202380D01*
X169273809Y-104202380D01*
X170035714Y-103535714D02*
X170035714Y-104202380D01*
X170035714Y-103630952D02*
X170083333Y-103583333D01*
X170178571Y-103535714D01*
X170321428Y-103535714D01*
X170416666Y-103583333D01*
X170464285Y-103678571D01*
X170464285Y-104202380D01*
X170940476Y-103535714D02*
X170940476Y-104202380D01*
X170940476Y-103630952D02*
X170988095Y-103583333D01*
X171083333Y-103535714D01*
X171226190Y-103535714D01*
X171321428Y-103583333D01*
X171369047Y-103678571D01*
X171369047Y-104202380D01*
X172226190Y-104154761D02*
X172130952Y-104202380D01*
X171940476Y-104202380D01*
X171845238Y-104154761D01*
X171797619Y-104059523D01*
X171797619Y-103678571D01*
X171845238Y-103583333D01*
X171940476Y-103535714D01*
X172130952Y-103535714D01*
X172226190Y-103583333D01*
X172273809Y-103678571D01*
X172273809Y-103773809D01*
X171797619Y-103869047D01*
X173130952Y-104154761D02*
X173035714Y-104202380D01*
X172845238Y-104202380D01*
X172750000Y-104154761D01*
X172702380Y-104107142D01*
X172654761Y-104011904D01*
X172654761Y-103726190D01*
X172702380Y-103630952D01*
X172750000Y-103583333D01*
X172845238Y-103535714D01*
X173035714Y-103535714D01*
X173130952Y-103583333D01*
X173416666Y-103535714D02*
X173797619Y-103535714D01*
X173559523Y-103202380D02*
X173559523Y-104059523D01*
X173607142Y-104154761D01*
X173702380Y-104202380D01*
X173797619Y-104202380D01*
X174130952Y-104202380D02*
X174130952Y-103535714D01*
X174130952Y-103202380D02*
X174083333Y-103250000D01*
X174130952Y-103297619D01*
X174178571Y-103250000D01*
X174130952Y-103202380D01*
X174130952Y-103297619D01*
X174750000Y-104202380D02*
X174654761Y-104154761D01*
X174607142Y-104107142D01*
X174559523Y-104011904D01*
X174559523Y-103726190D01*
X174607142Y-103630952D01*
X174654761Y-103583333D01*
X174750000Y-103535714D01*
X174892857Y-103535714D01*
X174988095Y-103583333D01*
X175035714Y-103630952D01*
X175083333Y-103726190D01*
X175083333Y-104011904D01*
X175035714Y-104107142D01*
X174988095Y-104154761D01*
X174892857Y-104202380D01*
X174750000Y-104202380D01*
X175511904Y-103535714D02*
X175511904Y-104202380D01*
X175511904Y-103630952D02*
X175559523Y-103583333D01*
X175654761Y-103535714D01*
X175797619Y-103535714D01*
X175892857Y-103583333D01*
X175940476Y-103678571D01*
X175940476Y-104202380D01*
X176369047Y-104154761D02*
X176464285Y-104202380D01*
X176654761Y-104202380D01*
X176750000Y-104154761D01*
X176797619Y-104059523D01*
X176797619Y-104011904D01*
X176750000Y-103916666D01*
X176654761Y-103869047D01*
X176511904Y-103869047D01*
X176416666Y-103821428D01*
X176369047Y-103726190D01*
X176369047Y-103678571D01*
X176416666Y-103583333D01*
X176511904Y-103535714D01*
X176654761Y-103535714D01*
X176750000Y-103583333D01*
D11*
X158250000Y-104500000D02*
X158250000Y-109000000D01*
X182000000Y-104500000D02*
X158250000Y-104500000D01*
X182000000Y-109000000D02*
X182000000Y-104500000D01*
X158250000Y-109000000D02*
X182000000Y-109000000D01*
D12*
X168726190Y-105000000D02*
X168535714Y-104952380D01*
X168250000Y-104952380D01*
X167964285Y-105000000D01*
X167773809Y-105095238D01*
X167678571Y-105190476D01*
X167583333Y-105380952D01*
X167583333Y-105523809D01*
X167678571Y-105714285D01*
X167773809Y-105809523D01*
X167964285Y-105904761D01*
X168250000Y-105952380D01*
X168440476Y-105952380D01*
X168726190Y-105904761D01*
X168821428Y-105857142D01*
X168821428Y-105523809D01*
X168440476Y-105523809D01*
X169678571Y-105952380D02*
X169678571Y-104952380D01*
X170821428Y-105952380D01*
X170821428Y-104952380D01*
X171773809Y-105952380D02*
X171773809Y-104952380D01*
X172250000Y-104952380D01*
X172535714Y-105000000D01*
X172726190Y-105095238D01*
X172821428Y-105190476D01*
X172916666Y-105380952D01*
X172916666Y-105523809D01*
X172821428Y-105714285D01*
X172726190Y-105809523D01*
X172535714Y-105904761D01*
X172250000Y-105952380D01*
X171773809Y-105952380D01*
D13*
X175245238Y-77083333D02*
X177245238Y-77083333D01*
X175816666Y-77750000D01*
X177245238Y-78416666D01*
X175245238Y-78416666D01*
X175245238Y-79369047D02*
X176578571Y-79369047D01*
X177245238Y-79369047D02*
X177150000Y-79273809D01*
X177054761Y-79369047D01*
X177150000Y-79464285D01*
X177245238Y-79369047D01*
X177054761Y-79369047D01*
X176578571Y-80321428D02*
X175245238Y-80321428D01*
X176388095Y-80321428D02*
X176483333Y-80416666D01*
X176578571Y-80607142D01*
X176578571Y-80892857D01*
X176483333Y-81083333D01*
X176292857Y-81178571D01*
X175245238Y-81178571D01*
X175245238Y-82130952D02*
X176578571Y-82130952D01*
X177245238Y-82130952D02*
X177150000Y-82035714D01*
X177054761Y-82130952D01*
X177150000Y-82226190D01*
X177245238Y-82130952D01*
X177054761Y-82130952D01*
X176578571Y-83940476D02*
X175245238Y-83940476D01*
X177340476Y-83464285D02*
X175911904Y-82988095D01*
X175911904Y-84226190D01*
X176578571Y-84797619D02*
X175245238Y-85178571D01*
X176197619Y-85559523D01*
X175245238Y-85940476D01*
X176578571Y-86321428D01*
X175245238Y-87940476D02*
X177245238Y-87940476D01*
X175340476Y-87940476D02*
X175245238Y-87750000D01*
X175245238Y-87369047D01*
X175340476Y-87178571D01*
X175435714Y-87083333D01*
X175626190Y-86988095D01*
X176197619Y-86988095D01*
X176388095Y-87083333D01*
X176483333Y-87178571D01*
X176578571Y-87369047D01*
X176578571Y-87750000D01*
X176483333Y-87940476D01*
X175435714Y-90035714D02*
X175340476Y-89940476D01*
X175245238Y-89654761D01*
X175245238Y-89464285D01*
X175340476Y-89178571D01*
X175530952Y-88988095D01*
X175721428Y-88892857D01*
X176102380Y-88797619D01*
X176388095Y-88797619D01*
X176769047Y-88892857D01*
X176959523Y-88988095D01*
X177150000Y-89178571D01*
X177245238Y-89464285D01*
X177245238Y-89654761D01*
X177150000Y-89940476D01*
X177054761Y-90035714D01*
X175245238Y-90892857D02*
X177245238Y-90892857D01*
X175245238Y-91750000D02*
X176292857Y-91750000D01*
X176483333Y-91654761D01*
X176578571Y-91464285D01*
X176578571Y-91178571D01*
X176483333Y-90988095D01*
X176388095Y-90892857D01*
X175245238Y-92702380D02*
X176578571Y-92702380D01*
X176197619Y-92702380D02*
X176388095Y-92797619D01*
X176483333Y-92892857D01*
X176578571Y-93083333D01*
X176578571Y-93273809D01*
X175245238Y-94226190D02*
X175340476Y-94035714D01*
X175435714Y-93940476D01*
X175626190Y-93845238D01*
X176197619Y-93845238D01*
X176388095Y-93940476D01*
X176483333Y-94035714D01*
X176578571Y-94226190D01*
X176578571Y-94511904D01*
X176483333Y-94702380D01*
X176388095Y-94797619D01*
X176197619Y-94892857D01*
X175626190Y-94892857D01*
X175435714Y-94797619D01*
X175340476Y-94702380D01*
X175245238Y-94511904D01*
X175245238Y-94226190D01*
X176578571Y-95750000D02*
X175245238Y-95750000D01*
X176388095Y-95750000D02*
X176483333Y-95845238D01*
X176578571Y-96035714D01*
X176578571Y-96321428D01*
X176483333Y-96511904D01*
X176292857Y-96607142D01*
X175245238Y-96607142D01*
X175245238Y-97845238D02*
X175340476Y-97654761D01*
X175435714Y-97559523D01*
X175626190Y-97464285D01*
X176197619Y-97464285D01*
X176388095Y-97559523D01*
X176483333Y-97654761D01*
X176578571Y-97845238D01*
X176578571Y-98130952D01*
X176483333Y-98321428D01*
X176388095Y-98416666D01*
X176197619Y-98511904D01*
X175626190Y-98511904D01*
X175435714Y-98416666D01*
X175340476Y-98321428D01*
X175245238Y-98130952D01*
X175245238Y-97845238D01*
X172040476Y-78702380D02*
X171945238Y-78988095D01*
X171945238Y-79464285D01*
X172040476Y-79654761D01*
X172135714Y-79750000D01*
X172326190Y-79845238D01*
X172516666Y-79845238D01*
X172707142Y-79750000D01*
X172802380Y-79654761D01*
X172897619Y-79464285D01*
X172992857Y-79083333D01*
X173088095Y-78892857D01*
X173183333Y-78797619D01*
X173373809Y-78702380D01*
X173564285Y-78702380D01*
X173754761Y-78797619D01*
X173850000Y-78892857D01*
X173945238Y-79083333D01*
X173945238Y-79559523D01*
X173850000Y-79845238D01*
X171945238Y-80702380D02*
X173945238Y-80702380D01*
X171945238Y-81559523D02*
X172992857Y-81559523D01*
X173183333Y-81464285D01*
X173278571Y-81273809D01*
X173278571Y-80988095D01*
X173183333Y-80797619D01*
X173088095Y-80702380D01*
X171945238Y-82511904D02*
X173278571Y-82511904D01*
X173945238Y-82511904D02*
X173850000Y-82416666D01*
X173754761Y-82511904D01*
X173850000Y-82607142D01*
X173945238Y-82511904D01*
X173754761Y-82511904D01*
X172040476Y-84226190D02*
X171945238Y-84035714D01*
X171945238Y-83654761D01*
X172040476Y-83464285D01*
X172230952Y-83369047D01*
X172992857Y-83369047D01*
X173183333Y-83464285D01*
X173278571Y-83654761D01*
X173278571Y-84035714D01*
X173183333Y-84226190D01*
X172992857Y-84321428D01*
X172802380Y-84321428D01*
X172611904Y-83369047D01*
X171945238Y-85464285D02*
X172040476Y-85273809D01*
X172230952Y-85178571D01*
X173945238Y-85178571D01*
X171945238Y-87083333D02*
X173945238Y-87083333D01*
X172040476Y-87083333D02*
X171945238Y-86892857D01*
X171945238Y-86511904D01*
X172040476Y-86321428D01*
X172135714Y-86226190D01*
X172326190Y-86130952D01*
X172897619Y-86130952D01*
X173088095Y-86226190D01*
X173183333Y-86321428D01*
X173278571Y-86511904D01*
X173278571Y-86892857D01*
X173183333Y-87083333D01*
X171945238Y-90702380D02*
X172897619Y-90035714D01*
X171945238Y-89559523D02*
X173945238Y-89559523D01*
X173945238Y-90321428D01*
X173850000Y-90511904D01*
X173754761Y-90607142D01*
X173564285Y-90702380D01*
X173278571Y-90702380D01*
X173088095Y-90607142D01*
X172992857Y-90511904D01*
X172897619Y-90321428D01*
X172897619Y-89559523D01*
X172040476Y-92321428D02*
X171945238Y-92130952D01*
X171945238Y-91750000D01*
X172040476Y-91559523D01*
X172230952Y-91464285D01*
X172992857Y-91464285D01*
X173183333Y-91559523D01*
X173278571Y-91750000D01*
X173278571Y-92130952D01*
X173183333Y-92321428D01*
X172992857Y-92416666D01*
X172802380Y-92416666D01*
X172611904Y-91464285D01*
X173278571Y-93083333D02*
X171945238Y-93559523D01*
X173278571Y-94035714D01*
X172135714Y-94797619D02*
X172040476Y-94892857D01*
X171945238Y-94797619D01*
X172040476Y-94702380D01*
X172135714Y-94797619D01*
X171945238Y-94797619D01*
X171945238Y-96797619D02*
X171945238Y-95654761D01*
X171945238Y-96226190D02*
X173945238Y-96226190D01*
X173659523Y-96035714D01*
X173469047Y-95845238D01*
X173373809Y-95654761D01*
D10*
X185904761Y-101369047D02*
X185952380Y-101226190D01*
X185952380Y-100988095D01*
X185904761Y-100892857D01*
X185857142Y-100845238D01*
X185761904Y-100797619D01*
X185666666Y-100797619D01*
X185571428Y-100845238D01*
X185523809Y-100892857D01*
X185476190Y-100988095D01*
X185428571Y-101178571D01*
X185380952Y-101273809D01*
X185333333Y-101321428D01*
X185238095Y-101369047D01*
X185142857Y-101369047D01*
X185047619Y-101321428D01*
X185000000Y-101273809D01*
X184952380Y-101178571D01*
X184952380Y-100940476D01*
X185000000Y-100797619D01*
X185428571Y-100369047D02*
X185428571Y-100035714D01*
X185952380Y-99892857D02*
X185952380Y-100369047D01*
X184952380Y-100369047D01*
X184952380Y-99892857D01*
X185952380Y-99464285D02*
X184952380Y-99464285D01*
X185952380Y-98892857D01*
X184952380Y-98892857D01*
X185904761Y-98464285D02*
X185952380Y-98321428D01*
X185952380Y-98083333D01*
X185904761Y-97988095D01*
X185857142Y-97940476D01*
X185761904Y-97892857D01*
X185666666Y-97892857D01*
X185571428Y-97940476D01*
X185523809Y-97988095D01*
X185476190Y-98083333D01*
X185428571Y-98273809D01*
X185380952Y-98369047D01*
X185333333Y-98416666D01*
X185238095Y-98464285D01*
X185142857Y-98464285D01*
X185047619Y-98416666D01*
X185000000Y-98369047D01*
X184952380Y-98273809D01*
X184952380Y-98035714D01*
X185000000Y-97892857D01*
X184952380Y-97273809D02*
X184952380Y-97083333D01*
X185000000Y-96988095D01*
X185095238Y-96892857D01*
X185285714Y-96845238D01*
X185619047Y-96845238D01*
X185809523Y-96892857D01*
X185904761Y-96988095D01*
X185952380Y-97083333D01*
X185952380Y-97273809D01*
X185904761Y-97369047D01*
X185809523Y-97464285D01*
X185619047Y-97511904D01*
X185285714Y-97511904D01*
X185095238Y-97464285D01*
X185000000Y-97369047D01*
X184952380Y-97273809D01*
X185952380Y-95845238D02*
X185476190Y-96178571D01*
X185952380Y-96416666D02*
X184952380Y-96416666D01*
X184952380Y-96035714D01*
X185000000Y-95940476D01*
X185047619Y-95892857D01*
X185142857Y-95845238D01*
X185285714Y-95845238D01*
X185380952Y-95892857D01*
X185428571Y-95940476D01*
X185476190Y-96035714D01*
X185476190Y-96416666D01*
X184952380Y-94750000D02*
X184952380Y-94130952D01*
X185333333Y-94464285D01*
X185333333Y-94321428D01*
X185380952Y-94226190D01*
X185428571Y-94178571D01*
X185523809Y-94130952D01*
X185761904Y-94130952D01*
X185857142Y-94178571D01*
X185904761Y-94226190D01*
X185952380Y-94321428D01*
X185952380Y-94607142D01*
X185904761Y-94702380D01*
X185857142Y-94750000D01*
X185904761Y-90869047D02*
X185952380Y-90726190D01*
X185952380Y-90488095D01*
X185904761Y-90392857D01*
X185857142Y-90345238D01*
X185761904Y-90297619D01*
X185666666Y-90297619D01*
X185571428Y-90345238D01*
X185523809Y-90392857D01*
X185476190Y-90488095D01*
X185428571Y-90678571D01*
X185380952Y-90773809D01*
X185333333Y-90821428D01*
X185238095Y-90869047D01*
X185142857Y-90869047D01*
X185047619Y-90821428D01*
X185000000Y-90773809D01*
X184952380Y-90678571D01*
X184952380Y-90440476D01*
X185000000Y-90297619D01*
X185428571Y-89869047D02*
X185428571Y-89535714D01*
X185952380Y-89392857D02*
X185952380Y-89869047D01*
X184952380Y-89869047D01*
X184952380Y-89392857D01*
X185952380Y-88964285D02*
X184952380Y-88964285D01*
X185952380Y-88392857D01*
X184952380Y-88392857D01*
X185904761Y-87964285D02*
X185952380Y-87821428D01*
X185952380Y-87583333D01*
X185904761Y-87488095D01*
X185857142Y-87440476D01*
X185761904Y-87392857D01*
X185666666Y-87392857D01*
X185571428Y-87440476D01*
X185523809Y-87488095D01*
X185476190Y-87583333D01*
X185428571Y-87773809D01*
X185380952Y-87869047D01*
X185333333Y-87916666D01*
X185238095Y-87964285D01*
X185142857Y-87964285D01*
X185047619Y-87916666D01*
X185000000Y-87869047D01*
X184952380Y-87773809D01*
X184952380Y-87535714D01*
X185000000Y-87392857D01*
X184952380Y-86773809D02*
X184952380Y-86583333D01*
X185000000Y-86488095D01*
X185095238Y-86392857D01*
X185285714Y-86345238D01*
X185619047Y-86345238D01*
X185809523Y-86392857D01*
X185904761Y-86488095D01*
X185952380Y-86583333D01*
X185952380Y-86773809D01*
X185904761Y-86869047D01*
X185809523Y-86964285D01*
X185619047Y-87011904D01*
X185285714Y-87011904D01*
X185095238Y-86964285D01*
X185000000Y-86869047D01*
X184952380Y-86773809D01*
X185952380Y-85345238D02*
X185476190Y-85678571D01*
X185952380Y-85916666D02*
X184952380Y-85916666D01*
X184952380Y-85535714D01*
X185000000Y-85440476D01*
X185047619Y-85392857D01*
X185142857Y-85345238D01*
X185285714Y-85345238D01*
X185380952Y-85392857D01*
X185428571Y-85440476D01*
X185476190Y-85535714D01*
X185476190Y-85916666D01*
X185047619Y-84202380D02*
X185000000Y-84154761D01*
X184952380Y-84059523D01*
X184952380Y-83821428D01*
X185000000Y-83726190D01*
X185047619Y-83678571D01*
X185142857Y-83630952D01*
X185238095Y-83630952D01*
X185380952Y-83678571D01*
X185952380Y-84250000D01*
X185952380Y-83630952D01*
X185904761Y-80369047D02*
X185952380Y-80226190D01*
X185952380Y-79988095D01*
X185904761Y-79892857D01*
X185857142Y-79845238D01*
X185761904Y-79797619D01*
X185666666Y-79797619D01*
X185571428Y-79845238D01*
X185523809Y-79892857D01*
X185476190Y-79988095D01*
X185428571Y-80178571D01*
X185380952Y-80273809D01*
X185333333Y-80321428D01*
X185238095Y-80369047D01*
X185142857Y-80369047D01*
X185047619Y-80321428D01*
X185000000Y-80273809D01*
X184952380Y-80178571D01*
X184952380Y-79940476D01*
X185000000Y-79797619D01*
X185428571Y-79369047D02*
X185428571Y-79035714D01*
X185952380Y-78892857D02*
X185952380Y-79369047D01*
X184952380Y-79369047D01*
X184952380Y-78892857D01*
X185952380Y-78464285D02*
X184952380Y-78464285D01*
X185952380Y-77892857D01*
X184952380Y-77892857D01*
X185904761Y-77464285D02*
X185952380Y-77321428D01*
X185952380Y-77083333D01*
X185904761Y-76988095D01*
X185857142Y-76940476D01*
X185761904Y-76892857D01*
X185666666Y-76892857D01*
X185571428Y-76940476D01*
X185523809Y-76988095D01*
X185476190Y-77083333D01*
X185428571Y-77273809D01*
X185380952Y-77369047D01*
X185333333Y-77416666D01*
X185238095Y-77464285D01*
X185142857Y-77464285D01*
X185047619Y-77416666D01*
X185000000Y-77369047D01*
X184952380Y-77273809D01*
X184952380Y-77035714D01*
X185000000Y-76892857D01*
X184952380Y-76273809D02*
X184952380Y-76083333D01*
X185000000Y-75988095D01*
X185095238Y-75892857D01*
X185285714Y-75845238D01*
X185619047Y-75845238D01*
X185809523Y-75892857D01*
X185904761Y-75988095D01*
X185952380Y-76083333D01*
X185952380Y-76273809D01*
X185904761Y-76369047D01*
X185809523Y-76464285D01*
X185619047Y-76511904D01*
X185285714Y-76511904D01*
X185095238Y-76464285D01*
X185000000Y-76369047D01*
X184952380Y-76273809D01*
X185952380Y-74845238D02*
X185476190Y-75178571D01*
X185952380Y-75416666D02*
X184952380Y-75416666D01*
X184952380Y-75035714D01*
X185000000Y-74940476D01*
X185047619Y-74892857D01*
X185142857Y-74845238D01*
X185285714Y-74845238D01*
X185380952Y-74892857D01*
X185428571Y-74940476D01*
X185476190Y-75035714D01*
X185476190Y-75416666D01*
X185952380Y-73130952D02*
X185952380Y-73702380D01*
X185952380Y-73416666D02*
X184952380Y-73416666D01*
X185095238Y-73511904D01*
X185190476Y-73607142D01*
X185238095Y-73702380D01*
X185000000Y-110702380D02*
X184523809Y-110702380D01*
X184523809Y-109702380D01*
X185333333Y-110178571D02*
X185666666Y-110178571D01*
X185809523Y-110702380D02*
X185333333Y-110702380D01*
X185333333Y-109702380D01*
X185809523Y-109702380D01*
X186238095Y-110702380D02*
X186238095Y-109702380D01*
X186476190Y-109702380D01*
X186619047Y-109750000D01*
X186714285Y-109845238D01*
X186761904Y-109940476D01*
X186809523Y-110130952D01*
X186809523Y-110273809D01*
X186761904Y-110464285D01*
X186714285Y-110559523D01*
X186619047Y-110654761D01*
X186476190Y-110702380D01*
X186238095Y-110702380D01*
X187904761Y-109702380D02*
X188523809Y-109702380D01*
X188190476Y-110083333D01*
X188333333Y-110083333D01*
X188428571Y-110130952D01*
X188476190Y-110178571D01*
X188523809Y-110273809D01*
X188523809Y-110511904D01*
X188476190Y-110607142D01*
X188428571Y-110654761D01*
X188333333Y-110702380D01*
X188047619Y-110702380D01*
X187952380Y-110654761D01*
X187904761Y-110607142D01*
X177000000Y-110702380D02*
X176523809Y-110702380D01*
X176523809Y-109702380D01*
X177333333Y-110178571D02*
X177666666Y-110178571D01*
X177809523Y-110702380D02*
X177333333Y-110702380D01*
X177333333Y-109702380D01*
X177809523Y-109702380D01*
X178238095Y-110702380D02*
X178238095Y-109702380D01*
X178476190Y-109702380D01*
X178619047Y-109750000D01*
X178714285Y-109845238D01*
X178761904Y-109940476D01*
X178809523Y-110130952D01*
X178809523Y-110273809D01*
X178761904Y-110464285D01*
X178714285Y-110559523D01*
X178619047Y-110654761D01*
X178476190Y-110702380D01*
X178238095Y-110702380D01*
X179952380Y-109797619D02*
X180000000Y-109750000D01*
X180095238Y-109702380D01*
X180333333Y-109702380D01*
X180428571Y-109750000D01*
X180476190Y-109797619D01*
X180523809Y-109892857D01*
X180523809Y-109988095D01*
X180476190Y-110130952D01*
X179904761Y-110702380D01*
X180523809Y-110702380D01*
X169000000Y-110702380D02*
X168523809Y-110702380D01*
X168523809Y-109702380D01*
X169333333Y-110178571D02*
X169666666Y-110178571D01*
X169809523Y-110702380D02*
X169333333Y-110702380D01*
X169333333Y-109702380D01*
X169809523Y-109702380D01*
X170238095Y-110702380D02*
X170238095Y-109702380D01*
X170476190Y-109702380D01*
X170619047Y-109750000D01*
X170714285Y-109845238D01*
X170761904Y-109940476D01*
X170809523Y-110130952D01*
X170809523Y-110273809D01*
X170761904Y-110464285D01*
X170714285Y-110559523D01*
X170619047Y-110654761D01*
X170476190Y-110702380D01*
X170238095Y-110702380D01*
X172523809Y-110702380D02*
X171952380Y-110702380D01*
X172238095Y-110702380D02*
X172238095Y-109702380D01*
X172142857Y-109845238D01*
X172047619Y-109940476D01*
X171952380Y-109988095D01*
X163047619Y-90226190D02*
X163523809Y-89892857D01*
X163047619Y-89654761D02*
X164047619Y-89654761D01*
X164047619Y-90035714D01*
X164000000Y-90130952D01*
X163952380Y-90178571D01*
X163857142Y-90226190D01*
X163714285Y-90226190D01*
X163619047Y-90178571D01*
X163571428Y-90130952D01*
X163523809Y-90035714D01*
X163523809Y-89654761D01*
X164000000Y-91178571D02*
X164047619Y-91083333D01*
X164047619Y-90940476D01*
X164000000Y-90797619D01*
X163904761Y-90702380D01*
X163809523Y-90654761D01*
X163619047Y-90607142D01*
X163476190Y-90607142D01*
X163285714Y-90654761D01*
X163190476Y-90702380D01*
X163095238Y-90797619D01*
X163047619Y-90940476D01*
X163047619Y-91035714D01*
X163095238Y-91178571D01*
X163142857Y-91226190D01*
X163476190Y-91226190D01*
X163476190Y-91035714D01*
X163571428Y-91988095D02*
X163523809Y-92130952D01*
X163476190Y-92178571D01*
X163380952Y-92226190D01*
X163238095Y-92226190D01*
X163142857Y-92178571D01*
X163095238Y-92130952D01*
X163047619Y-92035714D01*
X163047619Y-91654761D01*
X164047619Y-91654761D01*
X164047619Y-91988095D01*
X164000000Y-92083333D01*
X163952380Y-92130952D01*
X163857142Y-92178571D01*
X163761904Y-92178571D01*
X163666666Y-92130952D01*
X163619047Y-92083333D01*
X163571428Y-91988095D01*
X163571428Y-91654761D01*
X163095238Y-93369047D02*
X163047619Y-93511904D01*
X163047619Y-93750000D01*
X163095238Y-93845238D01*
X163142857Y-93892857D01*
X163238095Y-93940476D01*
X163333333Y-93940476D01*
X163428571Y-93892857D01*
X163476190Y-93845238D01*
X163523809Y-93750000D01*
X163571428Y-93559523D01*
X163619047Y-93464285D01*
X163666666Y-93416666D01*
X163761904Y-93369047D01*
X163857142Y-93369047D01*
X163952380Y-93416666D01*
X164000000Y-93464285D01*
X164047619Y-93559523D01*
X164047619Y-93797619D01*
X164000000Y-93940476D01*
X164047619Y-94226190D02*
X164047619Y-94797619D01*
X163047619Y-94511904D02*
X164047619Y-94511904D01*
X163047619Y-95702380D02*
X163523809Y-95369047D01*
X163047619Y-95130952D02*
X164047619Y-95130952D01*
X164047619Y-95511904D01*
X164000000Y-95607142D01*
X163952380Y-95654761D01*
X163857142Y-95702380D01*
X163714285Y-95702380D01*
X163619047Y-95654761D01*
X163571428Y-95607142D01*
X163523809Y-95511904D01*
X163523809Y-95130952D01*
X163047619Y-96130952D02*
X164047619Y-96130952D01*
X163047619Y-96607142D02*
X164047619Y-96607142D01*
X164047619Y-96988095D01*
X164000000Y-97083333D01*
X163952380Y-97130952D01*
X163857142Y-97178571D01*
X163714285Y-97178571D01*
X163619047Y-97130952D01*
X163571428Y-97083333D01*
X163523809Y-96988095D01*
X163523809Y-96607142D01*
X163952380Y-98321428D02*
X164000000Y-98369047D01*
X164047619Y-98464285D01*
X164047619Y-98702380D01*
X164000000Y-98797619D01*
X163952380Y-98845238D01*
X163857142Y-98892857D01*
X163761904Y-98892857D01*
X163619047Y-98845238D01*
X163047619Y-98273809D01*
X163047619Y-98892857D01*
X163047619Y-78226190D02*
X163523809Y-77892857D01*
X163047619Y-77654761D02*
X164047619Y-77654761D01*
X164047619Y-78035714D01*
X164000000Y-78130952D01*
X163952380Y-78178571D01*
X163857142Y-78226190D01*
X163714285Y-78226190D01*
X163619047Y-78178571D01*
X163571428Y-78130952D01*
X163523809Y-78035714D01*
X163523809Y-77654761D01*
X164000000Y-79178571D02*
X164047619Y-79083333D01*
X164047619Y-78940476D01*
X164000000Y-78797619D01*
X163904761Y-78702380D01*
X163809523Y-78654761D01*
X163619047Y-78607142D01*
X163476190Y-78607142D01*
X163285714Y-78654761D01*
X163190476Y-78702380D01*
X163095238Y-78797619D01*
X163047619Y-78940476D01*
X163047619Y-79035714D01*
X163095238Y-79178571D01*
X163142857Y-79226190D01*
X163476190Y-79226190D01*
X163476190Y-79035714D01*
X163571428Y-79988095D02*
X163523809Y-80130952D01*
X163476190Y-80178571D01*
X163380952Y-80226190D01*
X163238095Y-80226190D01*
X163142857Y-80178571D01*
X163095238Y-80130952D01*
X163047619Y-80035714D01*
X163047619Y-79654761D01*
X164047619Y-79654761D01*
X164047619Y-79988095D01*
X164000000Y-80083333D01*
X163952380Y-80130952D01*
X163857142Y-80178571D01*
X163761904Y-80178571D01*
X163666666Y-80130952D01*
X163619047Y-80083333D01*
X163571428Y-79988095D01*
X163571428Y-79654761D01*
X163095238Y-81369047D02*
X163047619Y-81511904D01*
X163047619Y-81750000D01*
X163095238Y-81845238D01*
X163142857Y-81892857D01*
X163238095Y-81940476D01*
X163333333Y-81940476D01*
X163428571Y-81892857D01*
X163476190Y-81845238D01*
X163523809Y-81750000D01*
X163571428Y-81559523D01*
X163619047Y-81464285D01*
X163666666Y-81416666D01*
X163761904Y-81369047D01*
X163857142Y-81369047D01*
X163952380Y-81416666D01*
X164000000Y-81464285D01*
X164047619Y-81559523D01*
X164047619Y-81797619D01*
X164000000Y-81940476D01*
X164047619Y-82226190D02*
X164047619Y-82797619D01*
X163047619Y-82511904D02*
X164047619Y-82511904D01*
X163047619Y-83702380D02*
X163523809Y-83369047D01*
X163047619Y-83130952D02*
X164047619Y-83130952D01*
X164047619Y-83511904D01*
X164000000Y-83607142D01*
X163952380Y-83654761D01*
X163857142Y-83702380D01*
X163714285Y-83702380D01*
X163619047Y-83654761D01*
X163571428Y-83607142D01*
X163523809Y-83511904D01*
X163523809Y-83130952D01*
X163047619Y-84130952D02*
X164047619Y-84130952D01*
X163047619Y-84607142D02*
X164047619Y-84607142D01*
X164047619Y-84988095D01*
X164000000Y-85083333D01*
X163952380Y-85130952D01*
X163857142Y-85178571D01*
X163714285Y-85178571D01*
X163619047Y-85130952D01*
X163571428Y-85083333D01*
X163523809Y-84988095D01*
X163523809Y-84607142D01*
X163047619Y-86892857D02*
X163047619Y-86321428D01*
X163047619Y-86607142D02*
X164047619Y-86607142D01*
X163904761Y-86511904D01*
X163809523Y-86416666D01*
X163761904Y-86321428D01*
X159380952Y-110654761D02*
X159523809Y-110702380D01*
X159761904Y-110702380D01*
X159857142Y-110654761D01*
X159904761Y-110607142D01*
X159952380Y-110511904D01*
X159952380Y-110416666D01*
X159904761Y-110321428D01*
X159857142Y-110273809D01*
X159761904Y-110226190D01*
X159571428Y-110178571D01*
X159476190Y-110130952D01*
X159428571Y-110083333D01*
X159380952Y-109988095D01*
X159380952Y-109892857D01*
X159428571Y-109797619D01*
X159476190Y-109750000D01*
X159571428Y-109702380D01*
X159809523Y-109702380D01*
X159952380Y-109750000D01*
X160380952Y-110702380D02*
X160380952Y-109702380D01*
X160761904Y-109702380D01*
X160857142Y-109750000D01*
X160904761Y-109797619D01*
X160952380Y-109892857D01*
X160952380Y-110035714D01*
X160904761Y-110130952D01*
X160857142Y-110178571D01*
X160761904Y-110226190D01*
X160380952Y-110226190D01*
X161380952Y-110178571D02*
X161714285Y-110178571D01*
X161857142Y-110702380D02*
X161380952Y-110702380D01*
X161380952Y-109702380D01*
X161857142Y-109702380D01*
X162238095Y-110416666D02*
X162714285Y-110416666D01*
X162142857Y-110702380D02*
X162476190Y-109702380D01*
X162809523Y-110702380D01*
X163142857Y-110702380D02*
X163142857Y-109702380D01*
X163714285Y-110702380D02*
X163285714Y-110130952D01*
X163714285Y-109702380D02*
X163142857Y-110273809D01*
X164142857Y-110178571D02*
X164476190Y-110178571D01*
X164619047Y-110702380D02*
X164142857Y-110702380D01*
X164142857Y-109702380D01*
X164619047Y-109702380D01*
X165619047Y-110702380D02*
X165285714Y-110226190D01*
X165047619Y-110702380D02*
X165047619Y-109702380D01*
X165428571Y-109702380D01*
X165523809Y-109750000D01*
X165571428Y-109797619D01*
X165619047Y-109892857D01*
X165619047Y-110035714D01*
X165571428Y-110130952D01*
X165523809Y-110178571D01*
X165428571Y-110226190D01*
X165047619Y-110226190D01*
X187452380Y-95238095D02*
X186452380Y-95238095D01*
X186452380Y-95000000D01*
X186500000Y-94857142D01*
X186595238Y-94761904D01*
X186690476Y-94714285D01*
X186880952Y-94666666D01*
X187023809Y-94666666D01*
X187214285Y-94714285D01*
X187309523Y-94761904D01*
X187404761Y-94857142D01*
X187452380Y-95000000D01*
X187452380Y-95238095D01*
X186880952Y-94095238D02*
X186833333Y-94190476D01*
X186785714Y-94238095D01*
X186690476Y-94285714D01*
X186642857Y-94285714D01*
X186547619Y-94238095D01*
X186500000Y-94190476D01*
X186452380Y-94095238D01*
X186452380Y-93904761D01*
X186500000Y-93809523D01*
X186547619Y-93761904D01*
X186642857Y-93714285D01*
X186690476Y-93714285D01*
X186785714Y-93761904D01*
X186833333Y-93809523D01*
X186880952Y-93904761D01*
X186880952Y-94095238D01*
X186928571Y-94190476D01*
X186976190Y-94238095D01*
X187071428Y-94285714D01*
X187261904Y-94285714D01*
X187357142Y-94238095D01*
X187404761Y-94190476D01*
X187452380Y-94095238D01*
X187452380Y-93904761D01*
X187404761Y-93809523D01*
X187357142Y-93761904D01*
X187261904Y-93714285D01*
X187071428Y-93714285D01*
X186976190Y-93761904D01*
X186928571Y-93809523D01*
X186880952Y-93904761D01*
X187452380Y-84488095D02*
X186452380Y-84488095D01*
X186452380Y-84250000D01*
X186500000Y-84107142D01*
X186595238Y-84011904D01*
X186690476Y-83964285D01*
X186880952Y-83916666D01*
X187023809Y-83916666D01*
X187214285Y-83964285D01*
X187309523Y-84011904D01*
X187404761Y-84107142D01*
X187452380Y-84250000D01*
X187452380Y-84488095D01*
X186452380Y-83583333D02*
X186452380Y-82916666D01*
X187452380Y-83345238D01*
X187452380Y-73988095D02*
X186452380Y-73988095D01*
X186452380Y-73750000D01*
X186500000Y-73607142D01*
X186595238Y-73511904D01*
X186690476Y-73464285D01*
X186880952Y-73416666D01*
X187023809Y-73416666D01*
X187214285Y-73464285D01*
X187309523Y-73511904D01*
X187404761Y-73607142D01*
X187452380Y-73750000D01*
X187452380Y-73988095D01*
X186452380Y-72559523D02*
X186452380Y-72750000D01*
X186500000Y-72845238D01*
X186547619Y-72892857D01*
X186690476Y-72988095D01*
X186880952Y-73035714D01*
X187261904Y-73035714D01*
X187357142Y-72988095D01*
X187404761Y-72940476D01*
X187452380Y-72845238D01*
X187452380Y-72654761D01*
X187404761Y-72559523D01*
X187357142Y-72511904D01*
X187261904Y-72464285D01*
X187023809Y-72464285D01*
X186928571Y-72511904D01*
X186880952Y-72559523D01*
X186833333Y-72654761D01*
X186833333Y-72845238D01*
X186880952Y-72940476D01*
X186928571Y-72988095D01*
X187023809Y-73035714D01*
X187761904Y-112202380D02*
X187761904Y-111202380D01*
X188000000Y-111202380D01*
X188142857Y-111250000D01*
X188238095Y-111345238D01*
X188285714Y-111440476D01*
X188333333Y-111630952D01*
X188333333Y-111773809D01*
X188285714Y-111964285D01*
X188238095Y-112059523D01*
X188142857Y-112154761D01*
X188000000Y-112202380D01*
X187761904Y-112202380D01*
X189238095Y-111202380D02*
X188761904Y-111202380D01*
X188714285Y-111678571D01*
X188761904Y-111630952D01*
X188857142Y-111583333D01*
X189095238Y-111583333D01*
X189190476Y-111630952D01*
X189238095Y-111678571D01*
X189285714Y-111773809D01*
X189285714Y-112011904D01*
X189238095Y-112107142D01*
X189190476Y-112154761D01*
X189095238Y-112202380D01*
X188857142Y-112202380D01*
X188761904Y-112154761D01*
X188714285Y-112107142D01*
X161547619Y-93511904D02*
X162547619Y-93511904D01*
X162547619Y-93750000D01*
X162500000Y-93892857D01*
X162404761Y-93988095D01*
X162309523Y-94035714D01*
X162119047Y-94083333D01*
X161976190Y-94083333D01*
X161785714Y-94035714D01*
X161690476Y-93988095D01*
X161595238Y-93892857D01*
X161547619Y-93750000D01*
X161547619Y-93511904D01*
X162214285Y-94940476D02*
X161547619Y-94940476D01*
X162595238Y-94702380D02*
X161880952Y-94464285D01*
X161880952Y-95083333D01*
X179761904Y-112202380D02*
X179761904Y-111202380D01*
X180000000Y-111202380D01*
X180142857Y-111250000D01*
X180238095Y-111345238D01*
X180285714Y-111440476D01*
X180333333Y-111630952D01*
X180333333Y-111773809D01*
X180285714Y-111964285D01*
X180238095Y-112059523D01*
X180142857Y-112154761D01*
X180000000Y-112202380D01*
X179761904Y-112202380D01*
X181190476Y-111535714D02*
X181190476Y-112202380D01*
X180952380Y-111154761D02*
X180714285Y-111869047D01*
X181333333Y-111869047D01*
X161547619Y-81511904D02*
X162547619Y-81511904D01*
X162547619Y-81750000D01*
X162500000Y-81892857D01*
X162404761Y-81988095D01*
X162309523Y-82035714D01*
X162119047Y-82083333D01*
X161976190Y-82083333D01*
X161785714Y-82035714D01*
X161690476Y-81988095D01*
X161595238Y-81892857D01*
X161547619Y-81750000D01*
X161547619Y-81511904D01*
X162547619Y-82416666D02*
X162547619Y-83035714D01*
X162166666Y-82702380D01*
X162166666Y-82845238D01*
X162119047Y-82940476D01*
X162071428Y-82988095D01*
X161976190Y-83035714D01*
X161738095Y-83035714D01*
X161642857Y-82988095D01*
X161595238Y-82940476D01*
X161547619Y-82845238D01*
X161547619Y-82559523D01*
X161595238Y-82464285D01*
X161642857Y-82416666D01*
X171761904Y-112202380D02*
X171761904Y-111202380D01*
X172000000Y-111202380D01*
X172142857Y-111250000D01*
X172238095Y-111345238D01*
X172285714Y-111440476D01*
X172333333Y-111630952D01*
X172333333Y-111773809D01*
X172285714Y-111964285D01*
X172238095Y-112059523D01*
X172142857Y-112154761D01*
X172000000Y-112202380D01*
X171761904Y-112202380D01*
X172666666Y-111202380D02*
X173285714Y-111202380D01*
X172952380Y-111583333D01*
X173095238Y-111583333D01*
X173190476Y-111630952D01*
X173238095Y-111678571D01*
X173285714Y-111773809D01*
X173285714Y-112011904D01*
X173238095Y-112107142D01*
X173190476Y-112154761D01*
X173095238Y-112202380D01*
X172809523Y-112202380D01*
X172714285Y-112154761D01*
X172666666Y-112107142D01*
X163761904Y-112202380D02*
X163761904Y-111202380D01*
X164000000Y-111202380D01*
X164142857Y-111250000D01*
X164238095Y-111345238D01*
X164285714Y-111440476D01*
X164333333Y-111630952D01*
X164333333Y-111773809D01*
X164285714Y-111964285D01*
X164238095Y-112059523D01*
X164142857Y-112154761D01*
X164000000Y-112202380D01*
X163761904Y-112202380D01*
X164714285Y-111297619D02*
X164761904Y-111250000D01*
X164857142Y-111202380D01*
X165095238Y-111202380D01*
X165190476Y-111250000D01*
X165238095Y-111297619D01*
X165285714Y-111392857D01*
X165285714Y-111488095D01*
X165238095Y-111630952D01*
X164666666Y-112202380D01*
X165285714Y-112202380D01*
X179035714Y-105702380D02*
X179035714Y-104702380D01*
X179273809Y-104702380D01*
X179416666Y-104750000D01*
X179511904Y-104845238D01*
X179559523Y-104940476D01*
X179607142Y-105130952D01*
X179607142Y-105273809D01*
X179559523Y-105464285D01*
X179511904Y-105559523D01*
X179416666Y-105654761D01*
X179273809Y-105702380D01*
X179035714Y-105702380D01*
X180559523Y-105702380D02*
X179988095Y-105702380D01*
X180273809Y-105702380D02*
X180273809Y-104702380D01*
X180178571Y-104845238D01*
X180083333Y-104940476D01*
X179988095Y-104988095D01*
X181178571Y-104702380D02*
X181273809Y-104702380D01*
X181369047Y-104750000D01*
X181416666Y-104797619D01*
X181464285Y-104892857D01*
X181511904Y-105083333D01*
X181511904Y-105321428D01*
X181464285Y-105511904D01*
X181416666Y-105607142D01*
X181369047Y-105654761D01*
X181273809Y-105702380D01*
X181178571Y-105702380D01*
X181083333Y-105654761D01*
X181035714Y-105607142D01*
X180988095Y-105511904D01*
X180940476Y-105321428D01*
X180940476Y-105083333D01*
X180988095Y-104892857D01*
X181035714Y-104797619D01*
X181083333Y-104750000D01*
X181178571Y-104702380D01*
X175761904Y-105702380D02*
X175761904Y-104702380D01*
X176000000Y-104702380D01*
X176142857Y-104750000D01*
X176238095Y-104845238D01*
X176285714Y-104940476D01*
X176333333Y-105130952D01*
X176333333Y-105273809D01*
X176285714Y-105464285D01*
X176238095Y-105559523D01*
X176142857Y-105654761D01*
X176000000Y-105702380D01*
X175761904Y-105702380D01*
X176809523Y-105702380D02*
X177000000Y-105702380D01*
X177095238Y-105654761D01*
X177142857Y-105607142D01*
X177238095Y-105464285D01*
X177285714Y-105273809D01*
X177285714Y-104892857D01*
X177238095Y-104797619D01*
X177190476Y-104750000D01*
X177095238Y-104702380D01*
X176904761Y-104702380D01*
X176809523Y-104750000D01*
X176761904Y-104797619D01*
X176714285Y-104892857D01*
X176714285Y-105130952D01*
X176761904Y-105226190D01*
X176809523Y-105273809D01*
X176904761Y-105321428D01*
X177095238Y-105321428D01*
X177190476Y-105273809D01*
X177238095Y-105226190D01*
X177285714Y-105130952D01*
X186452380Y-81083333D02*
X187452380Y-80750000D01*
X186452380Y-80416666D01*
X187357142Y-79511904D02*
X187404761Y-79559523D01*
X187452380Y-79702380D01*
X187452380Y-79797619D01*
X187404761Y-79940476D01*
X187309523Y-80035714D01*
X187214285Y-80083333D01*
X187023809Y-80130952D01*
X186880952Y-80130952D01*
X186690476Y-80083333D01*
X186595238Y-80035714D01*
X186500000Y-79940476D01*
X186452380Y-79797619D01*
X186452380Y-79702380D01*
X186500000Y-79559523D01*
X186547619Y-79511904D01*
X187357142Y-78511904D02*
X187404761Y-78559523D01*
X187452380Y-78702380D01*
X187452380Y-78797619D01*
X187404761Y-78940476D01*
X187309523Y-79035714D01*
X187214285Y-79083333D01*
X187023809Y-79130952D01*
X186880952Y-79130952D01*
X186690476Y-79083333D01*
X186595238Y-79035714D01*
X186500000Y-78940476D01*
X186452380Y-78797619D01*
X186452380Y-78702380D01*
X186500000Y-78559523D01*
X186547619Y-78511904D01*
X186452380Y-91583333D02*
X187452380Y-91250000D01*
X186452380Y-90916666D01*
X187357142Y-90011904D02*
X187404761Y-90059523D01*
X187452380Y-90202380D01*
X187452380Y-90297619D01*
X187404761Y-90440476D01*
X187309523Y-90535714D01*
X187214285Y-90583333D01*
X187023809Y-90630952D01*
X186880952Y-90630952D01*
X186690476Y-90583333D01*
X186595238Y-90535714D01*
X186500000Y-90440476D01*
X186452380Y-90297619D01*
X186452380Y-90202380D01*
X186500000Y-90059523D01*
X186547619Y-90011904D01*
X187357142Y-89011904D02*
X187404761Y-89059523D01*
X187452380Y-89202380D01*
X187452380Y-89297619D01*
X187404761Y-89440476D01*
X187309523Y-89535714D01*
X187214285Y-89583333D01*
X187023809Y-89630952D01*
X186880952Y-89630952D01*
X186690476Y-89583333D01*
X186595238Y-89535714D01*
X186500000Y-89440476D01*
X186452380Y-89297619D01*
X186452380Y-89202380D01*
X186500000Y-89059523D01*
X186547619Y-89011904D01*
X186452380Y-102083333D02*
X187452380Y-101750000D01*
X186452380Y-101416666D01*
X187357142Y-100511904D02*
X187404761Y-100559523D01*
X187452380Y-100702380D01*
X187452380Y-100797619D01*
X187404761Y-100940476D01*
X187309523Y-101035714D01*
X187214285Y-101083333D01*
X187023809Y-101130952D01*
X186880952Y-101130952D01*
X186690476Y-101083333D01*
X186595238Y-101035714D01*
X186500000Y-100940476D01*
X186452380Y-100797619D01*
X186452380Y-100702380D01*
X186500000Y-100559523D01*
X186547619Y-100511904D01*
X187357142Y-99511904D02*
X187404761Y-99559523D01*
X187452380Y-99702380D01*
X187452380Y-99797619D01*
X187404761Y-99940476D01*
X187309523Y-100035714D01*
X187214285Y-100083333D01*
X187023809Y-100130952D01*
X186880952Y-100130952D01*
X186690476Y-100083333D01*
X186595238Y-100035714D01*
X186500000Y-99940476D01*
X186452380Y-99797619D01*
X186452380Y-99702380D01*
X186500000Y-99559523D01*
X186547619Y-99511904D01*
D12*
X159333333Y-104952380D02*
X160000000Y-105952380D01*
X160666666Y-104952380D01*
X162476190Y-105857142D02*
X162380952Y-105904761D01*
X162095238Y-105952380D01*
X161904761Y-105952380D01*
X161619047Y-105904761D01*
X161428571Y-105809523D01*
X161333333Y-105714285D01*
X161238095Y-105523809D01*
X161238095Y-105380952D01*
X161333333Y-105190476D01*
X161428571Y-105095238D01*
X161619047Y-105000000D01*
X161904761Y-104952380D01*
X162095238Y-104952380D01*
X162380952Y-105000000D01*
X162476190Y-105047619D01*
X164476190Y-105857142D02*
X164380952Y-105904761D01*
X164095238Y-105952380D01*
X163904761Y-105952380D01*
X163619047Y-105904761D01*
X163428571Y-105809523D01*
X163333333Y-105714285D01*
X163238095Y-105523809D01*
X163238095Y-105380952D01*
X163333333Y-105190476D01*
X163428571Y-105095238D01*
X163619047Y-105000000D01*
X163904761Y-104952380D01*
X164095238Y-104952380D01*
X164380952Y-105000000D01*
X164476190Y-105047619D01*
D10*
X162547619Y-95916666D02*
X161547619Y-96250000D01*
X162547619Y-96583333D01*
X161642857Y-97488095D02*
X161595238Y-97440476D01*
X161547619Y-97297619D01*
X161547619Y-97202380D01*
X161595238Y-97059523D01*
X161690476Y-96964285D01*
X161785714Y-96916666D01*
X161976190Y-96869047D01*
X162119047Y-96869047D01*
X162309523Y-96916666D01*
X162404761Y-96964285D01*
X162500000Y-97059523D01*
X162547619Y-97202380D01*
X162547619Y-97297619D01*
X162500000Y-97440476D01*
X162452380Y-97488095D01*
X161642857Y-98488095D02*
X161595238Y-98440476D01*
X161547619Y-98297619D01*
X161547619Y-98202380D01*
X161595238Y-98059523D01*
X161690476Y-97964285D01*
X161785714Y-97916666D01*
X161976190Y-97869047D01*
X162119047Y-97869047D01*
X162309523Y-97916666D01*
X162404761Y-97964285D01*
X162500000Y-98059523D01*
X162547619Y-98202380D01*
X162547619Y-98297619D01*
X162500000Y-98440476D01*
X162452380Y-98488095D01*
X162547619Y-83916666D02*
X161547619Y-84250000D01*
X162547619Y-84583333D01*
X161642857Y-85488095D02*
X161595238Y-85440476D01*
X161547619Y-85297619D01*
X161547619Y-85202380D01*
X161595238Y-85059523D01*
X161690476Y-84964285D01*
X161785714Y-84916666D01*
X161976190Y-84869047D01*
X162119047Y-84869047D01*
X162309523Y-84916666D01*
X162404761Y-84964285D01*
X162500000Y-85059523D01*
X162547619Y-85202380D01*
X162547619Y-85297619D01*
X162500000Y-85440476D01*
X162452380Y-85488095D01*
X161642857Y-86488095D02*
X161595238Y-86440476D01*
X161547619Y-86297619D01*
X161547619Y-86202380D01*
X161595238Y-86059523D01*
X161690476Y-85964285D01*
X161785714Y-85916666D01*
X161976190Y-85869047D01*
X162119047Y-85869047D01*
X162309523Y-85916666D01*
X162404761Y-85964285D01*
X162500000Y-86059523D01*
X162547619Y-86202380D01*
X162547619Y-86297619D01*
X162500000Y-86440476D01*
X162452380Y-86488095D01*
X186500000Y-77261904D02*
X186452380Y-77357142D01*
X186452380Y-77500000D01*
X186500000Y-77642857D01*
X186595238Y-77738095D01*
X186690476Y-77785714D01*
X186880952Y-77833333D01*
X187023809Y-77833333D01*
X187214285Y-77785714D01*
X187309523Y-77738095D01*
X187404761Y-77642857D01*
X187452380Y-77500000D01*
X187452380Y-77404761D01*
X187404761Y-77261904D01*
X187357142Y-77214285D01*
X187023809Y-77214285D01*
X187023809Y-77404761D01*
X187452380Y-76785714D02*
X186452380Y-76785714D01*
X187452380Y-76214285D01*
X186452380Y-76214285D01*
X187452380Y-75738095D02*
X186452380Y-75738095D01*
X186452380Y-75500000D01*
X186500000Y-75357142D01*
X186595238Y-75261904D01*
X186690476Y-75214285D01*
X186880952Y-75166666D01*
X187023809Y-75166666D01*
X187214285Y-75214285D01*
X187309523Y-75261904D01*
X187404761Y-75357142D01*
X187452380Y-75500000D01*
X187452380Y-75738095D01*
X186500000Y-87761904D02*
X186452380Y-87857142D01*
X186452380Y-88000000D01*
X186500000Y-88142857D01*
X186595238Y-88238095D01*
X186690476Y-88285714D01*
X186880952Y-88333333D01*
X187023809Y-88333333D01*
X187214285Y-88285714D01*
X187309523Y-88238095D01*
X187404761Y-88142857D01*
X187452380Y-88000000D01*
X187452380Y-87904761D01*
X187404761Y-87761904D01*
X187357142Y-87714285D01*
X187023809Y-87714285D01*
X187023809Y-87904761D01*
X187452380Y-87285714D02*
X186452380Y-87285714D01*
X187452380Y-86714285D01*
X186452380Y-86714285D01*
X187452380Y-86238095D02*
X186452380Y-86238095D01*
X186452380Y-86000000D01*
X186500000Y-85857142D01*
X186595238Y-85761904D01*
X186690476Y-85714285D01*
X186880952Y-85666666D01*
X187023809Y-85666666D01*
X187214285Y-85714285D01*
X187309523Y-85761904D01*
X187404761Y-85857142D01*
X187452380Y-86000000D01*
X187452380Y-86238095D01*
X186500000Y-98261904D02*
X186452380Y-98357142D01*
X186452380Y-98500000D01*
X186500000Y-98642857D01*
X186595238Y-98738095D01*
X186690476Y-98785714D01*
X186880952Y-98833333D01*
X187023809Y-98833333D01*
X187214285Y-98785714D01*
X187309523Y-98738095D01*
X187404761Y-98642857D01*
X187452380Y-98500000D01*
X187452380Y-98404761D01*
X187404761Y-98261904D01*
X187357142Y-98214285D01*
X187023809Y-98214285D01*
X187023809Y-98404761D01*
X187452380Y-97785714D02*
X186452380Y-97785714D01*
X187452380Y-97214285D01*
X186452380Y-97214285D01*
X187452380Y-96738095D02*
X186452380Y-96738095D01*
X186452380Y-96500000D01*
X186500000Y-96357142D01*
X186595238Y-96261904D01*
X186690476Y-96214285D01*
X186880952Y-96166666D01*
X187023809Y-96166666D01*
X187214285Y-96214285D01*
X187309523Y-96261904D01*
X187404761Y-96357142D01*
X187452380Y-96500000D01*
X187452380Y-96738095D01*
X159988095Y-111250000D02*
X159892857Y-111202380D01*
X159750000Y-111202380D01*
X159607142Y-111250000D01*
X159511904Y-111345238D01*
X159464285Y-111440476D01*
X159416666Y-111630952D01*
X159416666Y-111773809D01*
X159464285Y-111964285D01*
X159511904Y-112059523D01*
X159607142Y-112154761D01*
X159750000Y-112202380D01*
X159845238Y-112202380D01*
X159988095Y-112154761D01*
X160035714Y-112107142D01*
X160035714Y-111773809D01*
X159845238Y-111773809D01*
X160464285Y-112202380D02*
X160464285Y-111202380D01*
X161035714Y-112202380D01*
X161035714Y-111202380D01*
X161511904Y-112202380D02*
X161511904Y-111202380D01*
X161750000Y-111202380D01*
X161892857Y-111250000D01*
X161988095Y-111345238D01*
X162035714Y-111440476D01*
X162083333Y-111630952D01*
X162083333Y-111773809D01*
X162035714Y-111964285D01*
X161988095Y-112059523D01*
X161892857Y-112154761D01*
X161750000Y-112202380D01*
X161511904Y-112202380D01*
X183988095Y-111250000D02*
X183892857Y-111202380D01*
X183750000Y-111202380D01*
X183607142Y-111250000D01*
X183511904Y-111345238D01*
X183464285Y-111440476D01*
X183416666Y-111630952D01*
X183416666Y-111773809D01*
X183464285Y-111964285D01*
X183511904Y-112059523D01*
X183607142Y-112154761D01*
X183750000Y-112202380D01*
X183845238Y-112202380D01*
X183988095Y-112154761D01*
X184035714Y-112107142D01*
X184035714Y-111773809D01*
X183845238Y-111773809D01*
X184464285Y-112202380D02*
X184464285Y-111202380D01*
X185035714Y-112202380D01*
X185035714Y-111202380D01*
X185511904Y-112202380D02*
X185511904Y-111202380D01*
X185750000Y-111202380D01*
X185892857Y-111250000D01*
X185988095Y-111345238D01*
X186035714Y-111440476D01*
X186083333Y-111630952D01*
X186083333Y-111773809D01*
X186035714Y-111964285D01*
X185988095Y-112059523D01*
X185892857Y-112154761D01*
X185750000Y-112202380D01*
X185511904Y-112202380D01*
X175988095Y-111250000D02*
X175892857Y-111202380D01*
X175750000Y-111202380D01*
X175607142Y-111250000D01*
X175511904Y-111345238D01*
X175464285Y-111440476D01*
X175416666Y-111630952D01*
X175416666Y-111773809D01*
X175464285Y-111964285D01*
X175511904Y-112059523D01*
X175607142Y-112154761D01*
X175750000Y-112202380D01*
X175845238Y-112202380D01*
X175988095Y-112154761D01*
X176035714Y-112107142D01*
X176035714Y-111773809D01*
X175845238Y-111773809D01*
X176464285Y-112202380D02*
X176464285Y-111202380D01*
X177035714Y-112202380D01*
X177035714Y-111202380D01*
X177511904Y-112202380D02*
X177511904Y-111202380D01*
X177750000Y-111202380D01*
X177892857Y-111250000D01*
X177988095Y-111345238D01*
X178035714Y-111440476D01*
X178083333Y-111630952D01*
X178083333Y-111773809D01*
X178035714Y-111964285D01*
X177988095Y-112059523D01*
X177892857Y-112154761D01*
X177750000Y-112202380D01*
X177511904Y-112202380D01*
X162500000Y-90238095D02*
X162547619Y-90142857D01*
X162547619Y-90000000D01*
X162500000Y-89857142D01*
X162404761Y-89761904D01*
X162309523Y-89714285D01*
X162119047Y-89666666D01*
X161976190Y-89666666D01*
X161785714Y-89714285D01*
X161690476Y-89761904D01*
X161595238Y-89857142D01*
X161547619Y-90000000D01*
X161547619Y-90095238D01*
X161595238Y-90238095D01*
X161642857Y-90285714D01*
X161976190Y-90285714D01*
X161976190Y-90095238D01*
X161547619Y-90714285D02*
X162547619Y-90714285D01*
X161547619Y-91285714D01*
X162547619Y-91285714D01*
X161547619Y-91761904D02*
X162547619Y-91761904D01*
X162547619Y-92000000D01*
X162500000Y-92142857D01*
X162404761Y-92238095D01*
X162309523Y-92285714D01*
X162119047Y-92333333D01*
X161976190Y-92333333D01*
X161785714Y-92285714D01*
X161690476Y-92238095D01*
X161595238Y-92142857D01*
X161547619Y-92000000D01*
X161547619Y-91761904D01*
X167988095Y-111250000D02*
X167892857Y-111202380D01*
X167750000Y-111202380D01*
X167607142Y-111250000D01*
X167511904Y-111345238D01*
X167464285Y-111440476D01*
X167416666Y-111630952D01*
X167416666Y-111773809D01*
X167464285Y-111964285D01*
X167511904Y-112059523D01*
X167607142Y-112154761D01*
X167750000Y-112202380D01*
X167845238Y-112202380D01*
X167988095Y-112154761D01*
X168035714Y-112107142D01*
X168035714Y-111773809D01*
X167845238Y-111773809D01*
X168464285Y-112202380D02*
X168464285Y-111202380D01*
X169035714Y-112202380D01*
X169035714Y-111202380D01*
X169511904Y-112202380D02*
X169511904Y-111202380D01*
X169750000Y-111202380D01*
X169892857Y-111250000D01*
X169988095Y-111345238D01*
X170035714Y-111440476D01*
X170083333Y-111630952D01*
X170083333Y-111773809D01*
X170035714Y-111964285D01*
X169988095Y-112059523D01*
X169892857Y-112154761D01*
X169750000Y-112202380D01*
X169511904Y-112202380D01*
X162500000Y-78238095D02*
X162547619Y-78142857D01*
X162547619Y-78000000D01*
X162500000Y-77857142D01*
X162404761Y-77761904D01*
X162309523Y-77714285D01*
X162119047Y-77666666D01*
X161976190Y-77666666D01*
X161785714Y-77714285D01*
X161690476Y-77761904D01*
X161595238Y-77857142D01*
X161547619Y-78000000D01*
X161547619Y-78095238D01*
X161595238Y-78238095D01*
X161642857Y-78285714D01*
X161976190Y-78285714D01*
X161976190Y-78095238D01*
X161547619Y-78714285D02*
X162547619Y-78714285D01*
X161547619Y-79285714D01*
X162547619Y-79285714D01*
X161547619Y-79761904D02*
X162547619Y-79761904D01*
X162547619Y-80000000D01*
X162500000Y-80142857D01*
X162404761Y-80238095D01*
X162309523Y-80285714D01*
X162119047Y-80333333D01*
X161976190Y-80333333D01*
X161785714Y-80285714D01*
X161690476Y-80238095D01*
X161595238Y-80142857D01*
X161547619Y-80000000D01*
X161547619Y-79761904D01*
D14*
X168150000Y-71760000D02*
X165610000Y-71760000D01*
X165610000Y-69220000D02*
X165610000Y-71760000D01*
X183390000Y-69220000D02*
X165610000Y-69220000D01*
X183390000Y-71760000D02*
X183390000Y-69220000D01*
D10*
G36*
X179431568Y-78239360D02*
G01*
X179431568Y-78439360D01*
X179331568Y-78439360D01*
X179331568Y-78239360D01*
X179431568Y-78239360D01*
G37*
X179431568Y-78239360D02*
X179431568Y-78439360D01*
X179331568Y-78439360D01*
X179331568Y-78239360D01*
X179431568Y-78239360D01*
G36*
X179031568Y-77639360D02*
G01*
X179031568Y-78439360D01*
X178931568Y-78439360D01*
X178931568Y-77639360D01*
X179031568Y-77639360D01*
G37*
X179031568Y-77639360D02*
X179031568Y-78439360D01*
X178931568Y-78439360D01*
X178931568Y-77639360D01*
X179031568Y-77639360D01*
G36*
X179431568Y-77639360D02*
G01*
X179431568Y-77739360D01*
X178931568Y-77739360D01*
X178931568Y-77639360D01*
X179431568Y-77639360D01*
G37*
X179431568Y-77639360D02*
X179431568Y-77739360D01*
X178931568Y-77739360D01*
X178931568Y-77639360D01*
X179431568Y-77639360D01*
G36*
X179231568Y-78039360D02*
G01*
X179231568Y-78139360D01*
X179131568Y-78139360D01*
X179131568Y-78039360D01*
X179231568Y-78039360D01*
G37*
X179231568Y-78039360D02*
X179231568Y-78139360D01*
X179131568Y-78139360D01*
X179131568Y-78039360D01*
X179231568Y-78039360D01*
G36*
X179431568Y-77639360D02*
G01*
X179431568Y-77939360D01*
X179331568Y-77939360D01*
X179331568Y-77639360D01*
X179431568Y-77639360D01*
G37*
X179431568Y-77639360D02*
X179431568Y-77939360D01*
X179331568Y-77939360D01*
X179331568Y-77639360D01*
X179431568Y-77639360D01*
D14*
X168150000Y-74300000D02*
X165610000Y-74300000D01*
X168150000Y-71760000D02*
X168150000Y-74300000D01*
X183390000Y-102240000D02*
X183390000Y-71760000D01*
X165610000Y-102240000D02*
X183390000Y-102240000D01*
X165610000Y-71760000D02*
X165610000Y-102240000D01*
D10*
X168737651Y-72591904D02*
X169194794Y-72591904D01*
X168966223Y-73391904D02*
X168966223Y-72591904D01*
X169385270Y-72591904D02*
X169918604Y-73391904D01*
X169918604Y-72591904D02*
X169385270Y-73391904D01*
X170375747Y-72591904D02*
X170451937Y-72591904D01*
X170528128Y-72630000D01*
X170566223Y-72668095D01*
X170604318Y-72744285D01*
X170642413Y-72896666D01*
X170642413Y-73087142D01*
X170604318Y-73239523D01*
X170566223Y-73315714D01*
X170528128Y-73353809D01*
X170451937Y-73391904D01*
X170375747Y-73391904D01*
X170299556Y-73353809D01*
X170261461Y-73315714D01*
X170223366Y-73239523D01*
X170185270Y-73087142D01*
X170185270Y-72896666D01*
X170223366Y-72744285D01*
X170261461Y-72668095D01*
X170299556Y-72630000D01*
X170375747Y-72591904D01*
X171556699Y-72553809D02*
X170870985Y-73582380D01*
X171823366Y-73391904D02*
X171823366Y-72591904D01*
X172013842Y-72591904D01*
X172128128Y-72630000D01*
X172204318Y-72706190D01*
X172242413Y-72782380D01*
X172280508Y-72934761D01*
X172280508Y-73049047D01*
X172242413Y-73201428D01*
X172204318Y-73277619D01*
X172128128Y-73353809D01*
X172013842Y-73391904D01*
X171823366Y-73391904D01*
X172547175Y-72591904D02*
X173042413Y-72591904D01*
X172775747Y-72896666D01*
X172890032Y-72896666D01*
X172966223Y-72934761D01*
X173004318Y-72972857D01*
X173042413Y-73049047D01*
X173042413Y-73239523D01*
X173004318Y-73315714D01*
X172966223Y-73353809D01*
X172890032Y-73391904D01*
X172661461Y-73391904D01*
X172585270Y-73353809D01*
X172547175Y-73315714D01*
X168448523Y-75931904D02*
X168448523Y-75131904D01*
X168639000Y-75131904D01*
X168753285Y-75170000D01*
X168829476Y-75246190D01*
X168867571Y-75322380D01*
X168905666Y-75474761D01*
X168905666Y-75589047D01*
X168867571Y-75741428D01*
X168829476Y-75817619D01*
X168753285Y-75893809D01*
X168639000Y-75931904D01*
X168448523Y-75931904D01*
X169210428Y-75208095D02*
X169248523Y-75170000D01*
X169324714Y-75131904D01*
X169515190Y-75131904D01*
X169591380Y-75170000D01*
X169629476Y-75208095D01*
X169667571Y-75284285D01*
X169667571Y-75360476D01*
X169629476Y-75474761D01*
X169172333Y-75931904D01*
X169667571Y-75931904D01*
X168448523Y-86091904D02*
X168448523Y-85291904D01*
X168639000Y-85291904D01*
X168753285Y-85330000D01*
X168829476Y-85406190D01*
X168867571Y-85482380D01*
X168905666Y-85634761D01*
X168905666Y-85749047D01*
X168867571Y-85901428D01*
X168829476Y-85977619D01*
X168753285Y-86053809D01*
X168639000Y-86091904D01*
X168448523Y-86091904D01*
X169400904Y-85291904D02*
X169477095Y-85291904D01*
X169553285Y-85330000D01*
X169591380Y-85368095D01*
X169629476Y-85444285D01*
X169667571Y-85596666D01*
X169667571Y-85787142D01*
X169629476Y-85939523D01*
X169591380Y-86015714D01*
X169553285Y-86053809D01*
X169477095Y-86091904D01*
X169400904Y-86091904D01*
X169324714Y-86053809D01*
X169286619Y-86015714D01*
X169248523Y-85939523D01*
X169210428Y-85787142D01*
X169210428Y-85596666D01*
X169248523Y-85444285D01*
X169286619Y-85368095D01*
X169324714Y-85330000D01*
X169400904Y-85291904D01*
X168448523Y-83551904D02*
X168448523Y-82751904D01*
X168639000Y-82751904D01*
X168753285Y-82790000D01*
X168829476Y-82866190D01*
X168867571Y-82942380D01*
X168905666Y-83094761D01*
X168905666Y-83209047D01*
X168867571Y-83361428D01*
X168829476Y-83437619D01*
X168753285Y-83513809D01*
X168639000Y-83551904D01*
X168448523Y-83551904D01*
X169667571Y-83551904D02*
X169210428Y-83551904D01*
X169439000Y-83551904D02*
X169439000Y-82751904D01*
X169362809Y-82866190D01*
X169286619Y-82942380D01*
X169210428Y-82980476D01*
X168429476Y-80250000D02*
X168353285Y-80211904D01*
X168239000Y-80211904D01*
X168124714Y-80250000D01*
X168048523Y-80326190D01*
X168010428Y-80402380D01*
X167972333Y-80554761D01*
X167972333Y-80669047D01*
X168010428Y-80821428D01*
X168048523Y-80897619D01*
X168124714Y-80973809D01*
X168239000Y-81011904D01*
X168315190Y-81011904D01*
X168429476Y-80973809D01*
X168467571Y-80935714D01*
X168467571Y-80669047D01*
X168315190Y-80669047D01*
X168810428Y-81011904D02*
X168810428Y-80211904D01*
X169267571Y-81011904D01*
X169267571Y-80211904D01*
X169648523Y-81011904D02*
X169648523Y-80211904D01*
X169839000Y-80211904D01*
X169953285Y-80250000D01*
X170029476Y-80326190D01*
X170067571Y-80402380D01*
X170105666Y-80554761D01*
X170105666Y-80669047D01*
X170067571Y-80821428D01*
X170029476Y-80897619D01*
X169953285Y-80973809D01*
X169839000Y-81011904D01*
X169648523Y-81011904D01*
X168429476Y-77710000D02*
X168353285Y-77671904D01*
X168239000Y-77671904D01*
X168124714Y-77710000D01*
X168048523Y-77786190D01*
X168010428Y-77862380D01*
X167972333Y-78014761D01*
X167972333Y-78129047D01*
X168010428Y-78281428D01*
X168048523Y-78357619D01*
X168124714Y-78433809D01*
X168239000Y-78471904D01*
X168315190Y-78471904D01*
X168429476Y-78433809D01*
X168467571Y-78395714D01*
X168467571Y-78129047D01*
X168315190Y-78129047D01*
X168810428Y-78471904D02*
X168810428Y-77671904D01*
X169267571Y-78471904D01*
X169267571Y-77671904D01*
X169648523Y-78471904D02*
X169648523Y-77671904D01*
X169839000Y-77671904D01*
X169953285Y-77710000D01*
X170029476Y-77786190D01*
X170067571Y-77862380D01*
X170105666Y-78014761D01*
X170105666Y-78129047D01*
X170067571Y-78281428D01*
X170029476Y-78357619D01*
X169953285Y-78433809D01*
X169839000Y-78471904D01*
X169648523Y-78471904D01*
X168448523Y-88631904D02*
X168448523Y-87831904D01*
X168639000Y-87831904D01*
X168753285Y-87870000D01*
X168829476Y-87946190D01*
X168867571Y-88022380D01*
X168905666Y-88174761D01*
X168905666Y-88289047D01*
X168867571Y-88441428D01*
X168829476Y-88517619D01*
X168753285Y-88593809D01*
X168639000Y-88631904D01*
X168448523Y-88631904D01*
X169591380Y-88098571D02*
X169591380Y-88631904D01*
X169400904Y-87793809D02*
X169210428Y-88365238D01*
X169705666Y-88365238D01*
X168905666Y-91095714D02*
X168867571Y-91133809D01*
X168753285Y-91171904D01*
X168677095Y-91171904D01*
X168562809Y-91133809D01*
X168486619Y-91057619D01*
X168448523Y-90981428D01*
X168410428Y-90829047D01*
X168410428Y-90714761D01*
X168448523Y-90562380D01*
X168486619Y-90486190D01*
X168562809Y-90410000D01*
X168677095Y-90371904D01*
X168753285Y-90371904D01*
X168867571Y-90410000D01*
X168905666Y-90448095D01*
X169591380Y-90371904D02*
X169439000Y-90371904D01*
X169362809Y-90410000D01*
X169324714Y-90448095D01*
X169248523Y-90562380D01*
X169210428Y-90714761D01*
X169210428Y-91019523D01*
X169248523Y-91095714D01*
X169286619Y-91133809D01*
X169362809Y-91171904D01*
X169515190Y-91171904D01*
X169591380Y-91133809D01*
X169629476Y-91095714D01*
X169667571Y-91019523D01*
X169667571Y-90829047D01*
X169629476Y-90752857D01*
X169591380Y-90714761D01*
X169515190Y-90676666D01*
X169362809Y-90676666D01*
X169286619Y-90714761D01*
X169248523Y-90752857D01*
X169210428Y-90829047D01*
X168448523Y-93711904D02*
X168448523Y-92911904D01*
X168639000Y-92911904D01*
X168753285Y-92950000D01*
X168829476Y-93026190D01*
X168867571Y-93102380D01*
X168905666Y-93254761D01*
X168905666Y-93369047D01*
X168867571Y-93521428D01*
X168829476Y-93597619D01*
X168753285Y-93673809D01*
X168639000Y-93711904D01*
X168448523Y-93711904D01*
X169172333Y-92911904D02*
X169705666Y-92911904D01*
X169362809Y-93711904D01*
X168486619Y-95832857D02*
X168753285Y-95832857D01*
X168867571Y-96251904D02*
X168486619Y-96251904D01*
X168486619Y-95451904D01*
X168867571Y-95451904D01*
X169553285Y-95451904D02*
X169400904Y-95451904D01*
X169324714Y-95490000D01*
X169286619Y-95528095D01*
X169210428Y-95642380D01*
X169172333Y-95794761D01*
X169172333Y-96099523D01*
X169210428Y-96175714D01*
X169248523Y-96213809D01*
X169324714Y-96251904D01*
X169477095Y-96251904D01*
X169553285Y-96213809D01*
X169591380Y-96175714D01*
X169629476Y-96099523D01*
X169629476Y-95909047D01*
X169591380Y-95832857D01*
X169553285Y-95794761D01*
X169477095Y-95756666D01*
X169324714Y-95756666D01*
X169248523Y-95794761D01*
X169210428Y-95832857D01*
X169172333Y-95909047D01*
X168715190Y-98372857D02*
X168829476Y-98410952D01*
X168867571Y-98449047D01*
X168905666Y-98525238D01*
X168905666Y-98639523D01*
X168867571Y-98715714D01*
X168829476Y-98753809D01*
X168753285Y-98791904D01*
X168448523Y-98791904D01*
X168448523Y-97991904D01*
X168715190Y-97991904D01*
X168791380Y-98030000D01*
X168829476Y-98068095D01*
X168867571Y-98144285D01*
X168867571Y-98220476D01*
X168829476Y-98296666D01*
X168791380Y-98334761D01*
X168715190Y-98372857D01*
X168448523Y-98372857D01*
X169591380Y-98258571D02*
X169591380Y-98791904D01*
X169400904Y-97953809D02*
X169210428Y-98525238D01*
X169705666Y-98525238D01*
X168715190Y-100912857D02*
X168829476Y-100950952D01*
X168867571Y-100989047D01*
X168905666Y-101065238D01*
X168905666Y-101179523D01*
X168867571Y-101255714D01*
X168829476Y-101293809D01*
X168753285Y-101331904D01*
X168448523Y-101331904D01*
X168448523Y-100531904D01*
X168715190Y-100531904D01*
X168791380Y-100570000D01*
X168829476Y-100608095D01*
X168867571Y-100684285D01*
X168867571Y-100760476D01*
X168829476Y-100836666D01*
X168791380Y-100874761D01*
X168715190Y-100912857D01*
X168448523Y-100912857D01*
X169629476Y-100531904D02*
X169248523Y-100531904D01*
X169210428Y-100912857D01*
X169248523Y-100874761D01*
X169324714Y-100836666D01*
X169515190Y-100836666D01*
X169591380Y-100874761D01*
X169629476Y-100912857D01*
X169667571Y-100989047D01*
X169667571Y-101179523D01*
X169629476Y-101255714D01*
X169591380Y-101293809D01*
X169515190Y-101331904D01*
X169324714Y-101331904D01*
X169248523Y-101293809D01*
X169210428Y-101255714D01*
X179637190Y-100912857D02*
X179751476Y-100950952D01*
X179789571Y-100989047D01*
X179827666Y-101065238D01*
X179827666Y-101179523D01*
X179789571Y-101255714D01*
X179751476Y-101293809D01*
X179675285Y-101331904D01*
X179370523Y-101331904D01*
X179370523Y-100531904D01*
X179637190Y-100531904D01*
X179713380Y-100570000D01*
X179751476Y-100608095D01*
X179789571Y-100684285D01*
X179789571Y-100760476D01*
X179751476Y-100836666D01*
X179713380Y-100874761D01*
X179637190Y-100912857D01*
X179370523Y-100912857D01*
X180513380Y-100531904D02*
X180361000Y-100531904D01*
X180284809Y-100570000D01*
X180246714Y-100608095D01*
X180170523Y-100722380D01*
X180132428Y-100874761D01*
X180132428Y-101179523D01*
X180170523Y-101255714D01*
X180208619Y-101293809D01*
X180284809Y-101331904D01*
X180437190Y-101331904D01*
X180513380Y-101293809D01*
X180551476Y-101255714D01*
X180589571Y-101179523D01*
X180589571Y-100989047D01*
X180551476Y-100912857D01*
X180513380Y-100874761D01*
X180437190Y-100836666D01*
X180284809Y-100836666D01*
X180208619Y-100874761D01*
X180170523Y-100912857D01*
X180132428Y-100989047D01*
X179637190Y-95832857D02*
X179751476Y-95870952D01*
X179789571Y-95909047D01*
X179827666Y-95985238D01*
X179827666Y-96099523D01*
X179789571Y-96175714D01*
X179751476Y-96213809D01*
X179675285Y-96251904D01*
X179370523Y-96251904D01*
X179370523Y-95451904D01*
X179637190Y-95451904D01*
X179713380Y-95490000D01*
X179751476Y-95528095D01*
X179789571Y-95604285D01*
X179789571Y-95680476D01*
X179751476Y-95756666D01*
X179713380Y-95794761D01*
X179637190Y-95832857D01*
X179370523Y-95832857D01*
X180094333Y-95451904D02*
X180589571Y-95451904D01*
X180322904Y-95756666D01*
X180437190Y-95756666D01*
X180513380Y-95794761D01*
X180551476Y-95832857D01*
X180589571Y-95909047D01*
X180589571Y-96099523D01*
X180551476Y-96175714D01*
X180513380Y-96213809D01*
X180437190Y-96251904D01*
X180208619Y-96251904D01*
X180132428Y-96213809D01*
X180094333Y-96175714D01*
X179637190Y-93292857D02*
X179751476Y-93330952D01*
X179789571Y-93369047D01*
X179827666Y-93445238D01*
X179827666Y-93559523D01*
X179789571Y-93635714D01*
X179751476Y-93673809D01*
X179675285Y-93711904D01*
X179370523Y-93711904D01*
X179370523Y-92911904D01*
X179637190Y-92911904D01*
X179713380Y-92950000D01*
X179751476Y-92988095D01*
X179789571Y-93064285D01*
X179789571Y-93140476D01*
X179751476Y-93216666D01*
X179713380Y-93254761D01*
X179637190Y-93292857D01*
X179370523Y-93292857D01*
X180589571Y-93711904D02*
X180132428Y-93711904D01*
X180361000Y-93711904D02*
X180361000Y-92911904D01*
X180284809Y-93026190D01*
X180208619Y-93102380D01*
X180132428Y-93140476D01*
X179694333Y-83132857D02*
X179427666Y-83132857D01*
X179427666Y-83551904D02*
X179427666Y-82751904D01*
X179808619Y-82751904D01*
X180456238Y-83018571D02*
X180456238Y-83551904D01*
X180265761Y-82713809D02*
X180075285Y-83285238D01*
X180570523Y-83285238D01*
X178894333Y-80211904D02*
X179161000Y-81011904D01*
X179427666Y-80211904D01*
X180151476Y-80935714D02*
X180113380Y-80973809D01*
X179999095Y-81011904D01*
X179922904Y-81011904D01*
X179808619Y-80973809D01*
X179732428Y-80897619D01*
X179694333Y-80821428D01*
X179656238Y-80669047D01*
X179656238Y-80554761D01*
X179694333Y-80402380D01*
X179732428Y-80326190D01*
X179808619Y-80250000D01*
X179922904Y-80211904D01*
X179999095Y-80211904D01*
X180113380Y-80250000D01*
X180151476Y-80288095D01*
X180951476Y-80935714D02*
X180913380Y-80973809D01*
X180799095Y-81011904D01*
X180722904Y-81011904D01*
X180608619Y-80973809D01*
X180532428Y-80897619D01*
X180494333Y-80821428D01*
X180456238Y-80669047D01*
X180456238Y-80554761D01*
X180494333Y-80402380D01*
X180532428Y-80326190D01*
X180608619Y-80250000D01*
X180722904Y-80211904D01*
X180799095Y-80211904D01*
X180913380Y-80250000D01*
X180951476Y-80288095D01*
X179699786Y-78403809D02*
X179814072Y-78441904D01*
X180004548Y-78441904D01*
X180080739Y-78403809D01*
X180118834Y-78365714D01*
X180156929Y-78289523D01*
X180156929Y-78213333D01*
X180118834Y-78137142D01*
X180080739Y-78099047D01*
X180004548Y-78060952D01*
X179852167Y-78022857D01*
X179775977Y-77984761D01*
X179737881Y-77946666D01*
X179699786Y-77870476D01*
X179699786Y-77794285D01*
X179737881Y-77718095D01*
X179775977Y-77680000D01*
X179852167Y-77641904D01*
X180042643Y-77641904D01*
X180156929Y-77680000D01*
X180385500Y-77641904D02*
X180842643Y-77641904D01*
X180614072Y-78441904D02*
X180614072Y-77641904D01*
X179351476Y-75170000D02*
X179275285Y-75131904D01*
X179161000Y-75131904D01*
X179046714Y-75170000D01*
X178970523Y-75246190D01*
X178932428Y-75322380D01*
X178894333Y-75474761D01*
X178894333Y-75589047D01*
X178932428Y-75741428D01*
X178970523Y-75817619D01*
X179046714Y-75893809D01*
X179161000Y-75931904D01*
X179237190Y-75931904D01*
X179351476Y-75893809D01*
X179389571Y-75855714D01*
X179389571Y-75589047D01*
X179237190Y-75589047D01*
X179732428Y-75931904D02*
X179732428Y-75131904D01*
X180189571Y-75931904D01*
X180189571Y-75131904D01*
X180570523Y-75931904D02*
X180570523Y-75131904D01*
X180761000Y-75131904D01*
X180875285Y-75170000D01*
X180951476Y-75246190D01*
X180989571Y-75322380D01*
X181027666Y-75474761D01*
X181027666Y-75589047D01*
X180989571Y-75741428D01*
X180951476Y-75817619D01*
X180875285Y-75893809D01*
X180761000Y-75931904D01*
X180570523Y-75931904D01*
X179408619Y-73391904D02*
X179141952Y-73010952D01*
X178951476Y-73391904D02*
X178951476Y-72591904D01*
X179256238Y-72591904D01*
X179332428Y-72630000D01*
X179370523Y-72668095D01*
X179408619Y-72744285D01*
X179408619Y-72858571D01*
X179370523Y-72934761D01*
X179332428Y-72972857D01*
X179256238Y-73010952D01*
X178951476Y-73010952D01*
X179713380Y-73163333D02*
X180094333Y-73163333D01*
X179637190Y-73391904D02*
X179903857Y-72591904D01*
X180170523Y-73391904D01*
X180361000Y-72591904D02*
X180551476Y-73391904D01*
X180703857Y-72820476D01*
X180856238Y-73391904D01*
X181046714Y-72591904D01*
X179694333Y-85672857D02*
X179427666Y-85672857D01*
X179427666Y-86091904D02*
X179427666Y-85291904D01*
X179808619Y-85291904D01*
X180494333Y-85291904D02*
X180113380Y-85291904D01*
X180075285Y-85672857D01*
X180113380Y-85634761D01*
X180189571Y-85596666D01*
X180380047Y-85596666D01*
X180456238Y-85634761D01*
X180494333Y-85672857D01*
X180532428Y-85749047D01*
X180532428Y-85939523D01*
X180494333Y-86015714D01*
X180456238Y-86053809D01*
X180380047Y-86091904D01*
X180189571Y-86091904D01*
X180113380Y-86053809D01*
X180075285Y-86015714D01*
X179694333Y-88212857D02*
X179427666Y-88212857D01*
X179427666Y-88631904D02*
X179427666Y-87831904D01*
X179808619Y-87831904D01*
X180456238Y-87831904D02*
X180303857Y-87831904D01*
X180227666Y-87870000D01*
X180189571Y-87908095D01*
X180113380Y-88022380D01*
X180075285Y-88174761D01*
X180075285Y-88479523D01*
X180113380Y-88555714D01*
X180151476Y-88593809D01*
X180227666Y-88631904D01*
X180380047Y-88631904D01*
X180456238Y-88593809D01*
X180494333Y-88555714D01*
X180532428Y-88479523D01*
X180532428Y-88289047D01*
X180494333Y-88212857D01*
X180456238Y-88174761D01*
X180380047Y-88136666D01*
X180227666Y-88136666D01*
X180151476Y-88174761D01*
X180113380Y-88212857D01*
X180075285Y-88289047D01*
X179694333Y-90752857D02*
X179427666Y-90752857D01*
X179427666Y-91171904D02*
X179427666Y-90371904D01*
X179808619Y-90371904D01*
X180037190Y-90371904D02*
X180570523Y-90371904D01*
X180227666Y-91171904D01*
X179637190Y-98372857D02*
X179751476Y-98410952D01*
X179789571Y-98449047D01*
X179827666Y-98525238D01*
X179827666Y-98639523D01*
X179789571Y-98715714D01*
X179751476Y-98753809D01*
X179675285Y-98791904D01*
X179370523Y-98791904D01*
X179370523Y-97991904D01*
X179637190Y-97991904D01*
X179713380Y-98030000D01*
X179751476Y-98068095D01*
X179789571Y-98144285D01*
X179789571Y-98220476D01*
X179751476Y-98296666D01*
X179713380Y-98334761D01*
X179637190Y-98372857D01*
X179370523Y-98372857D01*
X180132428Y-98068095D02*
X180170523Y-98030000D01*
X180246714Y-97991904D01*
X180437190Y-97991904D01*
X180513380Y-98030000D01*
X180551476Y-98068095D01*
X180589571Y-98144285D01*
X180589571Y-98220476D01*
X180551476Y-98334761D01*
X180094333Y-98791904D01*
X180589571Y-98791904D01*
M02*
