G04 #@! TF.GenerationSoftware,KiCad,Pcbnew,(5.1.5-0-10_14)*
G04 #@! TF.CreationDate,2020-03-07T15:10:29+01:00*
G04 #@! TF.ProjectId,pro_micro_shield,70726f5f-6d69-4637-926f-5f736869656c,rev?*
G04 #@! TF.SameCoordinates,Original*
G04 #@! TF.FileFunction,Copper,L2,Bot*
G04 #@! TF.FilePolarity,Positive*
%FSLAX46Y46*%
G04 Gerber Fmt 4.6, Leading zero omitted, Abs format (unit mm)*
G04 Created by KiCad (PCBNEW (5.1.5-0-10_14)) date 2020-03-07 15:10:29*
%MOMM*%
%LPD*%
G04 APERTURE LIST*
%ADD10C,2.499360*%
%ADD11C,1.752600*%
%ADD12R,1.752600X1.752600*%
%ADD13R,2.499360X2.499360*%
%ADD14C,0.250000*%
%ADD15C,0.254000*%
G04 APERTURE END LIST*
D10*
X163750000Y-109000000D03*
X160000000Y-109000000D03*
D11*
X182120000Y-73030000D03*
X166880000Y-100970000D03*
X182120000Y-75570000D03*
X182120000Y-78110000D03*
X182120000Y-80650000D03*
X182120000Y-83190000D03*
X182120000Y-85730000D03*
X182120000Y-88270000D03*
X182120000Y-90810000D03*
X182120000Y-93350000D03*
X182120000Y-95890000D03*
X182120000Y-98430000D03*
X182120000Y-100970000D03*
X166880000Y-98430000D03*
X166880000Y-95890000D03*
X166880000Y-93350000D03*
X166880000Y-90810000D03*
X166880000Y-88270000D03*
X166880000Y-85730000D03*
X166880000Y-83190000D03*
X166880000Y-80650000D03*
X166880000Y-78110000D03*
X166880000Y-75570000D03*
D12*
X166880000Y-73030000D03*
D10*
X176350000Y-109000000D03*
X173175000Y-109000000D03*
D13*
X170000000Y-109000000D03*
D10*
X153000000Y-99940000D03*
D13*
X153000000Y-103750000D03*
D10*
X189000000Y-96150000D03*
X189000000Y-99325000D03*
D13*
X189000000Y-102500000D03*
D10*
X189000000Y-85650000D03*
X189000000Y-88825000D03*
D13*
X189000000Y-92000000D03*
D10*
X189000000Y-75075000D03*
X189000000Y-78250000D03*
D13*
X189000000Y-81425000D03*
D10*
X153000000Y-94350000D03*
X153000000Y-91175000D03*
D13*
X153000000Y-88000000D03*
D10*
X153000000Y-82350000D03*
X153000000Y-79175000D03*
D13*
X153000000Y-76000000D03*
D10*
X160000000Y-94810000D03*
D13*
X160000000Y-91000000D03*
D10*
X160000000Y-86810000D03*
D13*
X160000000Y-83000000D03*
D10*
X160000000Y-78810000D03*
D13*
X160000000Y-75000000D03*
D10*
X189350000Y-109000000D03*
X186175000Y-109000000D03*
D13*
X183000000Y-109000000D03*
D14*
X184250000Y-104500000D02*
X178030000Y-104500000D01*
X185000000Y-103750000D02*
X184250000Y-104500000D01*
X185000000Y-79075000D02*
X185000000Y-103750000D01*
X178030000Y-104500000D02*
X166880000Y-93350000D01*
X189000000Y-75075000D02*
X185000000Y-79075000D01*
X184750000Y-105250000D02*
X176240000Y-105250000D01*
X185750000Y-104250000D02*
X184750000Y-105250000D01*
X176240000Y-105250000D02*
X166880000Y-95890000D01*
X185750000Y-88900000D02*
X185750000Y-104250000D01*
X189000000Y-85650000D02*
X185750000Y-88900000D01*
X189000000Y-96150000D02*
X186500000Y-98650000D01*
X186500000Y-98650000D02*
X186500000Y-105000000D01*
X186500000Y-105000000D02*
X185500000Y-106000000D01*
X174450000Y-106000000D02*
X166880000Y-98430000D01*
X185500000Y-106000000D02*
X174450000Y-106000000D01*
X161750000Y-97500000D02*
X155440000Y-97500000D01*
X155440000Y-97500000D02*
X153000000Y-99940000D01*
X163750000Y-95500000D02*
X161750000Y-97500000D01*
X163750000Y-86320000D02*
X163750000Y-95500000D01*
X166880000Y-83190000D02*
X163750000Y-86320000D01*
D15*
G36*
X191340001Y-70967572D02*
G01*
X191340000Y-70967582D01*
X191340001Y-110340000D01*
X190472213Y-110340000D01*
X190483771Y-110313377D01*
X189350000Y-109179605D01*
X188216229Y-110313377D01*
X188227787Y-110340000D01*
X187297213Y-110340000D01*
X187308771Y-110313377D01*
X186175000Y-109179605D01*
X186160858Y-109193748D01*
X185981252Y-109014142D01*
X185995395Y-109000000D01*
X186354605Y-109000000D01*
X187488377Y-110133771D01*
X187762500Y-110014762D01*
X188036623Y-110133771D01*
X189170395Y-109000000D01*
X189529605Y-109000000D01*
X190663377Y-110133771D01*
X190953315Y-110007896D01*
X191119139Y-109675738D01*
X191216975Y-109317613D01*
X191243065Y-108947281D01*
X191196405Y-108578975D01*
X191078789Y-108226849D01*
X190953315Y-107992104D01*
X190663377Y-107866229D01*
X189529605Y-109000000D01*
X189170395Y-109000000D01*
X188036623Y-107866229D01*
X187762500Y-107985238D01*
X187488377Y-107866229D01*
X186354605Y-109000000D01*
X185995395Y-109000000D01*
X185981252Y-108985858D01*
X186160858Y-108806252D01*
X186175000Y-108820395D01*
X187308771Y-107686623D01*
X188216229Y-107686623D01*
X189350000Y-108820395D01*
X190483771Y-107686623D01*
X190357896Y-107396685D01*
X190025738Y-107230861D01*
X189667613Y-107133025D01*
X189297281Y-107106935D01*
X188928975Y-107153595D01*
X188576849Y-107271211D01*
X188342104Y-107396685D01*
X188216229Y-107686623D01*
X187308771Y-107686623D01*
X187182896Y-107396685D01*
X186850738Y-107230861D01*
X186492613Y-107133025D01*
X186122281Y-107106935D01*
X185753975Y-107153595D01*
X185401849Y-107271211D01*
X185167104Y-107396685D01*
X185041230Y-107686622D01*
X184926120Y-107571512D01*
X184874631Y-107623001D01*
X184839182Y-107506140D01*
X184780217Y-107395826D01*
X184700865Y-107299135D01*
X184604174Y-107219783D01*
X184493860Y-107160818D01*
X184374162Y-107124508D01*
X184249680Y-107112248D01*
X183285750Y-107115320D01*
X183127000Y-107274070D01*
X183127000Y-108873000D01*
X183147000Y-108873000D01*
X183147000Y-109127000D01*
X183127000Y-109127000D01*
X183127000Y-109147000D01*
X182873000Y-109147000D01*
X182873000Y-109127000D01*
X181274070Y-109127000D01*
X181115320Y-109285750D01*
X181112248Y-110249680D01*
X181121143Y-110340000D01*
X177675339Y-110340000D01*
X177813926Y-110201413D01*
X178020182Y-109892731D01*
X178162253Y-109549741D01*
X178234680Y-109185625D01*
X178234680Y-108814375D01*
X178162253Y-108450259D01*
X178020182Y-108107269D01*
X177813926Y-107798587D01*
X177765659Y-107750320D01*
X181112248Y-107750320D01*
X181115320Y-108714250D01*
X181274070Y-108873000D01*
X182873000Y-108873000D01*
X182873000Y-107274070D01*
X182714250Y-107115320D01*
X181750320Y-107112248D01*
X181625838Y-107124508D01*
X181506140Y-107160818D01*
X181395826Y-107219783D01*
X181299135Y-107299135D01*
X181219783Y-107395826D01*
X181160818Y-107506140D01*
X181124508Y-107625838D01*
X181112248Y-107750320D01*
X177765659Y-107750320D01*
X177551413Y-107536074D01*
X177242731Y-107329818D01*
X176899741Y-107187747D01*
X176535625Y-107115320D01*
X176164375Y-107115320D01*
X175800259Y-107187747D01*
X175457269Y-107329818D01*
X175148587Y-107536074D01*
X174886074Y-107798587D01*
X174762500Y-107983527D01*
X174638926Y-107798587D01*
X174376413Y-107536074D01*
X174067731Y-107329818D01*
X173724741Y-107187747D01*
X173360625Y-107115320D01*
X172989375Y-107115320D01*
X172625259Y-107187747D01*
X172282269Y-107329818D01*
X171973587Y-107536074D01*
X171876239Y-107633422D01*
X171875492Y-107625838D01*
X171839182Y-107506140D01*
X171780217Y-107395826D01*
X171700865Y-107299135D01*
X171604174Y-107219783D01*
X171493860Y-107160818D01*
X171374162Y-107124508D01*
X171249680Y-107112248D01*
X168750320Y-107112248D01*
X168625838Y-107124508D01*
X168506140Y-107160818D01*
X168395826Y-107219783D01*
X168299135Y-107299135D01*
X168219783Y-107395826D01*
X168160818Y-107506140D01*
X168124508Y-107625838D01*
X168112248Y-107750320D01*
X168112248Y-110249680D01*
X168121143Y-110340000D01*
X165075339Y-110340000D01*
X165213926Y-110201413D01*
X165420182Y-109892731D01*
X165562253Y-109549741D01*
X165634680Y-109185625D01*
X165634680Y-108814375D01*
X165562253Y-108450259D01*
X165420182Y-108107269D01*
X165213926Y-107798587D01*
X164951413Y-107536074D01*
X164642731Y-107329818D01*
X164299741Y-107187747D01*
X163935625Y-107115320D01*
X163564375Y-107115320D01*
X163200259Y-107187747D01*
X162857269Y-107329818D01*
X162548587Y-107536074D01*
X162286074Y-107798587D01*
X162079818Y-108107269D01*
X161937747Y-108450259D01*
X161875000Y-108765710D01*
X161812253Y-108450259D01*
X161670182Y-108107269D01*
X161463926Y-107798587D01*
X161201413Y-107536074D01*
X160892731Y-107329818D01*
X160549741Y-107187747D01*
X160185625Y-107115320D01*
X159814375Y-107115320D01*
X159450259Y-107187747D01*
X159107269Y-107329818D01*
X158798587Y-107536074D01*
X158536074Y-107798587D01*
X158329818Y-108107269D01*
X158187747Y-108450259D01*
X158115320Y-108814375D01*
X158115320Y-109185625D01*
X158187747Y-109549741D01*
X158329818Y-109892731D01*
X158536074Y-110201413D01*
X158674661Y-110340000D01*
X150660000Y-110340000D01*
X150660000Y-104999680D01*
X151112248Y-104999680D01*
X151124508Y-105124162D01*
X151160818Y-105243860D01*
X151219783Y-105354174D01*
X151299135Y-105450865D01*
X151395826Y-105530217D01*
X151506140Y-105589182D01*
X151625838Y-105625492D01*
X151750320Y-105637752D01*
X152714250Y-105634680D01*
X152873000Y-105475930D01*
X152873000Y-103877000D01*
X153127000Y-103877000D01*
X153127000Y-105475930D01*
X153285750Y-105634680D01*
X154249680Y-105637752D01*
X154374162Y-105625492D01*
X154493860Y-105589182D01*
X154604174Y-105530217D01*
X154700865Y-105450865D01*
X154780217Y-105354174D01*
X154839182Y-105243860D01*
X154875492Y-105124162D01*
X154887752Y-104999680D01*
X154884680Y-104035750D01*
X154725930Y-103877000D01*
X153127000Y-103877000D01*
X152873000Y-103877000D01*
X151274070Y-103877000D01*
X151115320Y-104035750D01*
X151112248Y-104999680D01*
X150660000Y-104999680D01*
X150660000Y-102500320D01*
X151112248Y-102500320D01*
X151115320Y-103464250D01*
X151274070Y-103623000D01*
X152873000Y-103623000D01*
X152873000Y-102024070D01*
X153127000Y-102024070D01*
X153127000Y-103623000D01*
X154725930Y-103623000D01*
X154884680Y-103464250D01*
X154887752Y-102500320D01*
X154875492Y-102375838D01*
X154839182Y-102256140D01*
X154780217Y-102145826D01*
X154700865Y-102049135D01*
X154604174Y-101969783D01*
X154493860Y-101910818D01*
X154374162Y-101874508D01*
X154249680Y-101862248D01*
X153285750Y-101865320D01*
X153127000Y-102024070D01*
X152873000Y-102024070D01*
X152714250Y-101865320D01*
X151750320Y-101862248D01*
X151625838Y-101874508D01*
X151506140Y-101910818D01*
X151395826Y-101969783D01*
X151299135Y-102049135D01*
X151219783Y-102145826D01*
X151160818Y-102256140D01*
X151124508Y-102375838D01*
X151112248Y-102500320D01*
X150660000Y-102500320D01*
X150660000Y-99754375D01*
X151115320Y-99754375D01*
X151115320Y-100125625D01*
X151187747Y-100489741D01*
X151329818Y-100832731D01*
X151536074Y-101141413D01*
X151798587Y-101403926D01*
X152107269Y-101610182D01*
X152450259Y-101752253D01*
X152814375Y-101824680D01*
X153185625Y-101824680D01*
X153549741Y-101752253D01*
X153892731Y-101610182D01*
X154201413Y-101403926D01*
X154463926Y-101141413D01*
X154670182Y-100832731D01*
X154812253Y-100489741D01*
X154884680Y-100125625D01*
X154884680Y-99754375D01*
X154812253Y-99390259D01*
X154757274Y-99257528D01*
X155754802Y-98260000D01*
X161712678Y-98260000D01*
X161750000Y-98263676D01*
X161787322Y-98260000D01*
X161787333Y-98260000D01*
X161898986Y-98249003D01*
X162042247Y-98205546D01*
X162174276Y-98134974D01*
X162290001Y-98040001D01*
X162313804Y-98010997D01*
X164261003Y-96063799D01*
X164290001Y-96040001D01*
X164352066Y-95964375D01*
X164384974Y-95924277D01*
X164455546Y-95792247D01*
X164475725Y-95725724D01*
X164499003Y-95648986D01*
X164510000Y-95537333D01*
X164510000Y-95537324D01*
X164513676Y-95500001D01*
X164510000Y-95462678D01*
X164510000Y-86634801D01*
X165368700Y-85776102D01*
X165368700Y-85878850D01*
X165426778Y-86170830D01*
X165540703Y-86445869D01*
X165706096Y-86693398D01*
X165916602Y-86903904D01*
X166060420Y-87000000D01*
X165916602Y-87096096D01*
X165706096Y-87306602D01*
X165540703Y-87554131D01*
X165426778Y-87829170D01*
X165368700Y-88121150D01*
X165368700Y-88418850D01*
X165426778Y-88710830D01*
X165540703Y-88985869D01*
X165706096Y-89233398D01*
X165916602Y-89443904D01*
X166060420Y-89540000D01*
X165916602Y-89636096D01*
X165706096Y-89846602D01*
X165540703Y-90094131D01*
X165426778Y-90369170D01*
X165368700Y-90661150D01*
X165368700Y-90958850D01*
X165426778Y-91250830D01*
X165540703Y-91525869D01*
X165706096Y-91773398D01*
X165916602Y-91983904D01*
X166060420Y-92080000D01*
X165916602Y-92176096D01*
X165706096Y-92386602D01*
X165540703Y-92634131D01*
X165426778Y-92909170D01*
X165368700Y-93201150D01*
X165368700Y-93498850D01*
X165426778Y-93790830D01*
X165540703Y-94065869D01*
X165706096Y-94313398D01*
X165916602Y-94523904D01*
X166060420Y-94620000D01*
X165916602Y-94716096D01*
X165706096Y-94926602D01*
X165540703Y-95174131D01*
X165426778Y-95449170D01*
X165368700Y-95741150D01*
X165368700Y-96038850D01*
X165426778Y-96330830D01*
X165540703Y-96605869D01*
X165706096Y-96853398D01*
X165916602Y-97063904D01*
X166060420Y-97160000D01*
X165916602Y-97256096D01*
X165706096Y-97466602D01*
X165540703Y-97714131D01*
X165426778Y-97989170D01*
X165368700Y-98281150D01*
X165368700Y-98578850D01*
X165426778Y-98870830D01*
X165540703Y-99145869D01*
X165706096Y-99393398D01*
X165916602Y-99603904D01*
X166060420Y-99700000D01*
X165916602Y-99796096D01*
X165706096Y-100006602D01*
X165540703Y-100254131D01*
X165426778Y-100529170D01*
X165368700Y-100821150D01*
X165368700Y-101118850D01*
X165426778Y-101410830D01*
X165540703Y-101685869D01*
X165706096Y-101933398D01*
X165916602Y-102143904D01*
X166164131Y-102309297D01*
X166439170Y-102423222D01*
X166731150Y-102481300D01*
X167028850Y-102481300D01*
X167320830Y-102423222D01*
X167595869Y-102309297D01*
X167843398Y-102143904D01*
X168053904Y-101933398D01*
X168219297Y-101685869D01*
X168333222Y-101410830D01*
X168391300Y-101118850D01*
X168391300Y-101016101D01*
X173886201Y-106511003D01*
X173909999Y-106540001D01*
X174025724Y-106634974D01*
X174157753Y-106705546D01*
X174301014Y-106749003D01*
X174412667Y-106760000D01*
X174412675Y-106760000D01*
X174450000Y-106763676D01*
X174487325Y-106760000D01*
X185462678Y-106760000D01*
X185500000Y-106763676D01*
X185537322Y-106760000D01*
X185537333Y-106760000D01*
X185648986Y-106749003D01*
X185792247Y-106705546D01*
X185924276Y-106634974D01*
X186040001Y-106540001D01*
X186063804Y-106510998D01*
X187011003Y-105563799D01*
X187040001Y-105540001D01*
X187134974Y-105424276D01*
X187205546Y-105292247D01*
X187249003Y-105148986D01*
X187260000Y-105037333D01*
X187263677Y-105000000D01*
X187260000Y-104962667D01*
X187260000Y-104153179D01*
X187299135Y-104200865D01*
X187395826Y-104280217D01*
X187506140Y-104339182D01*
X187625838Y-104375492D01*
X187750320Y-104387752D01*
X190249680Y-104387752D01*
X190374162Y-104375492D01*
X190493860Y-104339182D01*
X190604174Y-104280217D01*
X190700865Y-104200865D01*
X190780217Y-104104174D01*
X190839182Y-103993860D01*
X190875492Y-103874162D01*
X190887752Y-103749680D01*
X190887752Y-101250320D01*
X190875492Y-101125838D01*
X190839182Y-101006140D01*
X190780217Y-100895826D01*
X190700865Y-100799135D01*
X190604174Y-100719783D01*
X190493860Y-100660818D01*
X190376999Y-100625369D01*
X190428488Y-100573880D01*
X190313378Y-100458770D01*
X190603315Y-100332896D01*
X190769139Y-100000738D01*
X190866975Y-99642613D01*
X190893065Y-99272281D01*
X190846405Y-98903975D01*
X190728789Y-98551849D01*
X190603315Y-98317104D01*
X190313377Y-98191229D01*
X189179605Y-99325000D01*
X189193748Y-99339142D01*
X189014142Y-99518748D01*
X189000000Y-99504605D01*
X188985858Y-99518748D01*
X188806252Y-99339142D01*
X188820395Y-99325000D01*
X188806252Y-99310858D01*
X188985858Y-99131252D01*
X189000000Y-99145395D01*
X190133771Y-98011623D01*
X190015147Y-97738386D01*
X190201413Y-97613926D01*
X190463926Y-97351413D01*
X190670182Y-97042731D01*
X190812253Y-96699741D01*
X190884680Y-96335625D01*
X190884680Y-95964375D01*
X190812253Y-95600259D01*
X190670182Y-95257269D01*
X190463926Y-94948587D01*
X190201413Y-94686074D01*
X189892731Y-94479818D01*
X189549741Y-94337747D01*
X189185625Y-94265320D01*
X188814375Y-94265320D01*
X188450259Y-94337747D01*
X188107269Y-94479818D01*
X187798587Y-94686074D01*
X187536074Y-94948587D01*
X187329818Y-95257269D01*
X187187747Y-95600259D01*
X187115320Y-95964375D01*
X187115320Y-96335625D01*
X187187747Y-96699741D01*
X187242726Y-96832472D01*
X186510000Y-97565199D01*
X186510000Y-89214801D01*
X187126629Y-88598172D01*
X187106935Y-88877719D01*
X187153595Y-89246025D01*
X187271211Y-89598151D01*
X187396685Y-89832896D01*
X187686622Y-89958770D01*
X187571512Y-90073880D01*
X187623001Y-90125369D01*
X187506140Y-90160818D01*
X187395826Y-90219783D01*
X187299135Y-90299135D01*
X187219783Y-90395826D01*
X187160818Y-90506140D01*
X187124508Y-90625838D01*
X187112248Y-90750320D01*
X187112248Y-93249680D01*
X187124508Y-93374162D01*
X187160818Y-93493860D01*
X187219783Y-93604174D01*
X187299135Y-93700865D01*
X187395826Y-93780217D01*
X187506140Y-93839182D01*
X187625838Y-93875492D01*
X187750320Y-93887752D01*
X190249680Y-93887752D01*
X190374162Y-93875492D01*
X190493860Y-93839182D01*
X190604174Y-93780217D01*
X190700865Y-93700865D01*
X190780217Y-93604174D01*
X190839182Y-93493860D01*
X190875492Y-93374162D01*
X190887752Y-93249680D01*
X190887752Y-90750320D01*
X190875492Y-90625838D01*
X190839182Y-90506140D01*
X190780217Y-90395826D01*
X190700865Y-90299135D01*
X190604174Y-90219783D01*
X190493860Y-90160818D01*
X190376999Y-90125369D01*
X190428488Y-90073880D01*
X190313378Y-89958770D01*
X190603315Y-89832896D01*
X190769139Y-89500738D01*
X190866975Y-89142613D01*
X190893065Y-88772281D01*
X190846405Y-88403975D01*
X190728789Y-88051849D01*
X190603315Y-87817104D01*
X190313377Y-87691229D01*
X189179605Y-88825000D01*
X189193748Y-88839142D01*
X189014142Y-89018748D01*
X189000000Y-89004605D01*
X188985858Y-89018748D01*
X188806252Y-88839142D01*
X188820395Y-88825000D01*
X188806252Y-88810858D01*
X188985858Y-88631252D01*
X189000000Y-88645395D01*
X190133771Y-87511623D01*
X190015147Y-87238386D01*
X190201413Y-87113926D01*
X190463926Y-86851413D01*
X190670182Y-86542731D01*
X190812253Y-86199741D01*
X190884680Y-85835625D01*
X190884680Y-85464375D01*
X190812253Y-85100259D01*
X190670182Y-84757269D01*
X190463926Y-84448587D01*
X190201413Y-84186074D01*
X189892731Y-83979818D01*
X189549741Y-83837747D01*
X189185625Y-83765320D01*
X188814375Y-83765320D01*
X188450259Y-83837747D01*
X188107269Y-83979818D01*
X187798587Y-84186074D01*
X187536074Y-84448587D01*
X187329818Y-84757269D01*
X187187747Y-85100259D01*
X187115320Y-85464375D01*
X187115320Y-85835625D01*
X187187747Y-86199741D01*
X187242726Y-86332472D01*
X185760000Y-87815199D01*
X185760000Y-79389801D01*
X187126629Y-78023172D01*
X187106935Y-78302719D01*
X187153595Y-78671025D01*
X187271211Y-79023151D01*
X187396685Y-79257896D01*
X187686622Y-79383770D01*
X187571512Y-79498880D01*
X187623001Y-79550369D01*
X187506140Y-79585818D01*
X187395826Y-79644783D01*
X187299135Y-79724135D01*
X187219783Y-79820826D01*
X187160818Y-79931140D01*
X187124508Y-80050838D01*
X187112248Y-80175320D01*
X187112248Y-82674680D01*
X187124508Y-82799162D01*
X187160818Y-82918860D01*
X187219783Y-83029174D01*
X187299135Y-83125865D01*
X187395826Y-83205217D01*
X187506140Y-83264182D01*
X187625838Y-83300492D01*
X187750320Y-83312752D01*
X190249680Y-83312752D01*
X190374162Y-83300492D01*
X190493860Y-83264182D01*
X190604174Y-83205217D01*
X190700865Y-83125865D01*
X190780217Y-83029174D01*
X190839182Y-82918860D01*
X190875492Y-82799162D01*
X190887752Y-82674680D01*
X190887752Y-80175320D01*
X190875492Y-80050838D01*
X190839182Y-79931140D01*
X190780217Y-79820826D01*
X190700865Y-79724135D01*
X190604174Y-79644783D01*
X190493860Y-79585818D01*
X190376999Y-79550369D01*
X190428488Y-79498880D01*
X190313378Y-79383770D01*
X190603315Y-79257896D01*
X190769139Y-78925738D01*
X190866975Y-78567613D01*
X190893065Y-78197281D01*
X190846405Y-77828975D01*
X190728789Y-77476849D01*
X190603315Y-77242104D01*
X190313377Y-77116229D01*
X189179605Y-78250000D01*
X189193748Y-78264142D01*
X189014142Y-78443748D01*
X189000000Y-78429605D01*
X188985858Y-78443748D01*
X188806252Y-78264142D01*
X188820395Y-78250000D01*
X188806252Y-78235858D01*
X188985858Y-78056252D01*
X189000000Y-78070395D01*
X190133771Y-76936623D01*
X190015147Y-76663386D01*
X190201413Y-76538926D01*
X190463926Y-76276413D01*
X190670182Y-75967731D01*
X190812253Y-75624741D01*
X190884680Y-75260625D01*
X190884680Y-74889375D01*
X190812253Y-74525259D01*
X190670182Y-74182269D01*
X190463926Y-73873587D01*
X190201413Y-73611074D01*
X189892731Y-73404818D01*
X189549741Y-73262747D01*
X189185625Y-73190320D01*
X188814375Y-73190320D01*
X188450259Y-73262747D01*
X188107269Y-73404818D01*
X187798587Y-73611074D01*
X187536074Y-73873587D01*
X187329818Y-74182269D01*
X187187747Y-74525259D01*
X187115320Y-74889375D01*
X187115320Y-75260625D01*
X187187747Y-75624741D01*
X187242726Y-75757472D01*
X184489003Y-78511196D01*
X184459999Y-78534999D01*
X184433234Y-78567613D01*
X184365026Y-78650724D01*
X184354175Y-78671025D01*
X184294454Y-78782754D01*
X184250997Y-78926015D01*
X184240000Y-79037668D01*
X184240000Y-79037678D01*
X184236324Y-79075000D01*
X184240000Y-79112322D01*
X184240001Y-103435197D01*
X183935199Y-103740000D01*
X178344802Y-103740000D01*
X168343576Y-93738775D01*
X168391300Y-93498850D01*
X168391300Y-93201150D01*
X168333222Y-92909170D01*
X168219297Y-92634131D01*
X168053904Y-92386602D01*
X167843398Y-92176096D01*
X167699580Y-92080000D01*
X167843398Y-91983904D01*
X168053904Y-91773398D01*
X168219297Y-91525869D01*
X168333222Y-91250830D01*
X168391300Y-90958850D01*
X168391300Y-90661150D01*
X168333222Y-90369170D01*
X168219297Y-90094131D01*
X168053904Y-89846602D01*
X167843398Y-89636096D01*
X167699580Y-89540000D01*
X167843398Y-89443904D01*
X168053904Y-89233398D01*
X168219297Y-88985869D01*
X168333222Y-88710830D01*
X168391300Y-88418850D01*
X168391300Y-88121150D01*
X168333222Y-87829170D01*
X168219297Y-87554131D01*
X168053904Y-87306602D01*
X167843398Y-87096096D01*
X167699580Y-87000000D01*
X167843398Y-86903904D01*
X168053904Y-86693398D01*
X168219297Y-86445869D01*
X168333222Y-86170830D01*
X168391300Y-85878850D01*
X168391300Y-85581150D01*
X168333222Y-85289170D01*
X168219297Y-85014131D01*
X168053904Y-84766602D01*
X167843398Y-84556096D01*
X167699580Y-84460000D01*
X167843398Y-84363904D01*
X168053904Y-84153398D01*
X168219297Y-83905869D01*
X168333222Y-83630830D01*
X168391300Y-83338850D01*
X168391300Y-83041150D01*
X168333222Y-82749170D01*
X168219297Y-82474131D01*
X168053904Y-82226602D01*
X167843398Y-82016096D01*
X167680191Y-81907045D01*
X167747563Y-81697169D01*
X166880000Y-80829605D01*
X166012437Y-81697169D01*
X166079809Y-81907045D01*
X165916602Y-82016096D01*
X165706096Y-82226602D01*
X165540703Y-82474131D01*
X165426778Y-82749170D01*
X165368700Y-83041150D01*
X165368700Y-83338850D01*
X165416424Y-83578774D01*
X163239003Y-85756196D01*
X163209999Y-85779999D01*
X163154871Y-85847174D01*
X163115026Y-85895724D01*
X163103510Y-85917269D01*
X163044454Y-86027754D01*
X163000997Y-86171015D01*
X162990000Y-86282668D01*
X162990000Y-86282678D01*
X162986324Y-86320000D01*
X162990000Y-86357322D01*
X162990001Y-95185197D01*
X161435199Y-96740000D01*
X155477322Y-96740000D01*
X155439999Y-96736324D01*
X155402676Y-96740000D01*
X155402667Y-96740000D01*
X155291014Y-96750997D01*
X155147753Y-96794454D01*
X155015723Y-96865026D01*
X154950322Y-96918700D01*
X154899999Y-96959999D01*
X154876201Y-96988997D01*
X153682472Y-98182726D01*
X153549741Y-98127747D01*
X153185625Y-98055320D01*
X152814375Y-98055320D01*
X152450259Y-98127747D01*
X152107269Y-98269818D01*
X151798587Y-98476074D01*
X151536074Y-98738587D01*
X151329818Y-99047269D01*
X151187747Y-99390259D01*
X151115320Y-99754375D01*
X150660000Y-99754375D01*
X150660000Y-89249680D01*
X151112248Y-89249680D01*
X151124508Y-89374162D01*
X151160818Y-89493860D01*
X151219783Y-89604174D01*
X151299135Y-89700865D01*
X151395826Y-89780217D01*
X151506140Y-89839182D01*
X151625838Y-89875492D01*
X151633422Y-89876239D01*
X151536074Y-89973587D01*
X151329818Y-90282269D01*
X151187747Y-90625259D01*
X151115320Y-90989375D01*
X151115320Y-91360625D01*
X151187747Y-91724741D01*
X151329818Y-92067731D01*
X151536074Y-92376413D01*
X151798587Y-92638926D01*
X151983527Y-92762500D01*
X151798587Y-92886074D01*
X151536074Y-93148587D01*
X151329818Y-93457269D01*
X151187747Y-93800259D01*
X151115320Y-94164375D01*
X151115320Y-94535625D01*
X151187747Y-94899741D01*
X151329818Y-95242731D01*
X151536074Y-95551413D01*
X151798587Y-95813926D01*
X152107269Y-96020182D01*
X152450259Y-96162253D01*
X152814375Y-96234680D01*
X153185625Y-96234680D01*
X153549741Y-96162253D01*
X153892731Y-96020182D01*
X154201413Y-95813926D01*
X154463926Y-95551413D01*
X154670182Y-95242731D01*
X154812253Y-94899741D01*
X154867026Y-94624375D01*
X158115320Y-94624375D01*
X158115320Y-94995625D01*
X158187747Y-95359741D01*
X158329818Y-95702731D01*
X158536074Y-96011413D01*
X158798587Y-96273926D01*
X159107269Y-96480182D01*
X159450259Y-96622253D01*
X159814375Y-96694680D01*
X160185625Y-96694680D01*
X160549741Y-96622253D01*
X160892731Y-96480182D01*
X161201413Y-96273926D01*
X161463926Y-96011413D01*
X161670182Y-95702731D01*
X161812253Y-95359741D01*
X161884680Y-94995625D01*
X161884680Y-94624375D01*
X161812253Y-94260259D01*
X161670182Y-93917269D01*
X161463926Y-93608587D01*
X161201413Y-93346074D01*
X160892731Y-93139818D01*
X160549741Y-92997747D01*
X160185625Y-92925320D01*
X159814375Y-92925320D01*
X159450259Y-92997747D01*
X159107269Y-93139818D01*
X158798587Y-93346074D01*
X158536074Y-93608587D01*
X158329818Y-93917269D01*
X158187747Y-94260259D01*
X158115320Y-94624375D01*
X154867026Y-94624375D01*
X154884680Y-94535625D01*
X154884680Y-94164375D01*
X154812253Y-93800259D01*
X154670182Y-93457269D01*
X154463926Y-93148587D01*
X154201413Y-92886074D01*
X154016473Y-92762500D01*
X154201413Y-92638926D01*
X154463926Y-92376413D01*
X154548606Y-92249680D01*
X158112248Y-92249680D01*
X158124508Y-92374162D01*
X158160818Y-92493860D01*
X158219783Y-92604174D01*
X158299135Y-92700865D01*
X158395826Y-92780217D01*
X158506140Y-92839182D01*
X158625838Y-92875492D01*
X158750320Y-92887752D01*
X159714250Y-92884680D01*
X159873000Y-92725930D01*
X159873000Y-91127000D01*
X160127000Y-91127000D01*
X160127000Y-92725930D01*
X160285750Y-92884680D01*
X161249680Y-92887752D01*
X161374162Y-92875492D01*
X161493860Y-92839182D01*
X161604174Y-92780217D01*
X161700865Y-92700865D01*
X161780217Y-92604174D01*
X161839182Y-92493860D01*
X161875492Y-92374162D01*
X161887752Y-92249680D01*
X161884680Y-91285750D01*
X161725930Y-91127000D01*
X160127000Y-91127000D01*
X159873000Y-91127000D01*
X158274070Y-91127000D01*
X158115320Y-91285750D01*
X158112248Y-92249680D01*
X154548606Y-92249680D01*
X154670182Y-92067731D01*
X154812253Y-91724741D01*
X154884680Y-91360625D01*
X154884680Y-90989375D01*
X154812253Y-90625259D01*
X154670182Y-90282269D01*
X154463926Y-89973587D01*
X154366578Y-89876239D01*
X154374162Y-89875492D01*
X154493860Y-89839182D01*
X154604174Y-89780217D01*
X154640603Y-89750320D01*
X158112248Y-89750320D01*
X158115320Y-90714250D01*
X158274070Y-90873000D01*
X159873000Y-90873000D01*
X159873000Y-89274070D01*
X160127000Y-89274070D01*
X160127000Y-90873000D01*
X161725930Y-90873000D01*
X161884680Y-90714250D01*
X161887752Y-89750320D01*
X161875492Y-89625838D01*
X161839182Y-89506140D01*
X161780217Y-89395826D01*
X161700865Y-89299135D01*
X161604174Y-89219783D01*
X161493860Y-89160818D01*
X161374162Y-89124508D01*
X161249680Y-89112248D01*
X160285750Y-89115320D01*
X160127000Y-89274070D01*
X159873000Y-89274070D01*
X159714250Y-89115320D01*
X158750320Y-89112248D01*
X158625838Y-89124508D01*
X158506140Y-89160818D01*
X158395826Y-89219783D01*
X158299135Y-89299135D01*
X158219783Y-89395826D01*
X158160818Y-89506140D01*
X158124508Y-89625838D01*
X158112248Y-89750320D01*
X154640603Y-89750320D01*
X154700865Y-89700865D01*
X154780217Y-89604174D01*
X154839182Y-89493860D01*
X154875492Y-89374162D01*
X154887752Y-89249680D01*
X154884680Y-88285750D01*
X154725930Y-88127000D01*
X153127000Y-88127000D01*
X153127000Y-88147000D01*
X152873000Y-88147000D01*
X152873000Y-88127000D01*
X151274070Y-88127000D01*
X151115320Y-88285750D01*
X151112248Y-89249680D01*
X150660000Y-89249680D01*
X150660000Y-86750320D01*
X151112248Y-86750320D01*
X151115320Y-87714250D01*
X151274070Y-87873000D01*
X152873000Y-87873000D01*
X152873000Y-86274070D01*
X153127000Y-86274070D01*
X153127000Y-87873000D01*
X154725930Y-87873000D01*
X154884680Y-87714250D01*
X154887752Y-86750320D01*
X154875492Y-86625838D01*
X154875049Y-86624375D01*
X158115320Y-86624375D01*
X158115320Y-86995625D01*
X158187747Y-87359741D01*
X158329818Y-87702731D01*
X158536074Y-88011413D01*
X158798587Y-88273926D01*
X159107269Y-88480182D01*
X159450259Y-88622253D01*
X159814375Y-88694680D01*
X160185625Y-88694680D01*
X160549741Y-88622253D01*
X160892731Y-88480182D01*
X161201413Y-88273926D01*
X161463926Y-88011413D01*
X161670182Y-87702731D01*
X161812253Y-87359741D01*
X161884680Y-86995625D01*
X161884680Y-86624375D01*
X161812253Y-86260259D01*
X161670182Y-85917269D01*
X161463926Y-85608587D01*
X161201413Y-85346074D01*
X160892731Y-85139818D01*
X160549741Y-84997747D01*
X160185625Y-84925320D01*
X159814375Y-84925320D01*
X159450259Y-84997747D01*
X159107269Y-85139818D01*
X158798587Y-85346074D01*
X158536074Y-85608587D01*
X158329818Y-85917269D01*
X158187747Y-86260259D01*
X158115320Y-86624375D01*
X154875049Y-86624375D01*
X154839182Y-86506140D01*
X154780217Y-86395826D01*
X154700865Y-86299135D01*
X154604174Y-86219783D01*
X154493860Y-86160818D01*
X154374162Y-86124508D01*
X154249680Y-86112248D01*
X153285750Y-86115320D01*
X153127000Y-86274070D01*
X152873000Y-86274070D01*
X152714250Y-86115320D01*
X151750320Y-86112248D01*
X151625838Y-86124508D01*
X151506140Y-86160818D01*
X151395826Y-86219783D01*
X151299135Y-86299135D01*
X151219783Y-86395826D01*
X151160818Y-86506140D01*
X151124508Y-86625838D01*
X151112248Y-86750320D01*
X150660000Y-86750320D01*
X150660000Y-84249680D01*
X158112248Y-84249680D01*
X158124508Y-84374162D01*
X158160818Y-84493860D01*
X158219783Y-84604174D01*
X158299135Y-84700865D01*
X158395826Y-84780217D01*
X158506140Y-84839182D01*
X158625838Y-84875492D01*
X158750320Y-84887752D01*
X159714250Y-84884680D01*
X159873000Y-84725930D01*
X159873000Y-83127000D01*
X160127000Y-83127000D01*
X160127000Y-84725930D01*
X160285750Y-84884680D01*
X161249680Y-84887752D01*
X161374162Y-84875492D01*
X161493860Y-84839182D01*
X161604174Y-84780217D01*
X161700865Y-84700865D01*
X161780217Y-84604174D01*
X161839182Y-84493860D01*
X161875492Y-84374162D01*
X161887752Y-84249680D01*
X161884680Y-83285750D01*
X161725930Y-83127000D01*
X160127000Y-83127000D01*
X159873000Y-83127000D01*
X158274070Y-83127000D01*
X158115320Y-83285750D01*
X158112248Y-84249680D01*
X150660000Y-84249680D01*
X150660000Y-77249680D01*
X151112248Y-77249680D01*
X151124508Y-77374162D01*
X151160818Y-77493860D01*
X151219783Y-77604174D01*
X151299135Y-77700865D01*
X151395826Y-77780217D01*
X151506140Y-77839182D01*
X151625838Y-77875492D01*
X151633422Y-77876239D01*
X151536074Y-77973587D01*
X151329818Y-78282269D01*
X151187747Y-78625259D01*
X151115320Y-78989375D01*
X151115320Y-79360625D01*
X151187747Y-79724741D01*
X151329818Y-80067731D01*
X151536074Y-80376413D01*
X151798587Y-80638926D01*
X151983527Y-80762500D01*
X151798587Y-80886074D01*
X151536074Y-81148587D01*
X151329818Y-81457269D01*
X151187747Y-81800259D01*
X151115320Y-82164375D01*
X151115320Y-82535625D01*
X151187747Y-82899741D01*
X151329818Y-83242731D01*
X151536074Y-83551413D01*
X151798587Y-83813926D01*
X152107269Y-84020182D01*
X152450259Y-84162253D01*
X152814375Y-84234680D01*
X153185625Y-84234680D01*
X153549741Y-84162253D01*
X153892731Y-84020182D01*
X154201413Y-83813926D01*
X154463926Y-83551413D01*
X154670182Y-83242731D01*
X154812253Y-82899741D01*
X154884680Y-82535625D01*
X154884680Y-82164375D01*
X154812253Y-81800259D01*
X154791568Y-81750320D01*
X158112248Y-81750320D01*
X158115320Y-82714250D01*
X158274070Y-82873000D01*
X159873000Y-82873000D01*
X159873000Y-81274070D01*
X160127000Y-81274070D01*
X160127000Y-82873000D01*
X161725930Y-82873000D01*
X161884680Y-82714250D01*
X161887752Y-81750320D01*
X161875492Y-81625838D01*
X161839182Y-81506140D01*
X161780217Y-81395826D01*
X161700865Y-81299135D01*
X161604174Y-81219783D01*
X161493860Y-81160818D01*
X161374162Y-81124508D01*
X161249680Y-81112248D01*
X160285750Y-81115320D01*
X160127000Y-81274070D01*
X159873000Y-81274070D01*
X159714250Y-81115320D01*
X158750320Y-81112248D01*
X158625838Y-81124508D01*
X158506140Y-81160818D01*
X158395826Y-81219783D01*
X158299135Y-81299135D01*
X158219783Y-81395826D01*
X158160818Y-81506140D01*
X158124508Y-81625838D01*
X158112248Y-81750320D01*
X154791568Y-81750320D01*
X154670182Y-81457269D01*
X154463926Y-81148587D01*
X154201413Y-80886074D01*
X154016473Y-80762500D01*
X154083833Y-80717491D01*
X165362887Y-80717491D01*
X165405204Y-81012167D01*
X165504198Y-81292927D01*
X165581071Y-81436746D01*
X165832831Y-81517563D01*
X166700395Y-80650000D01*
X167059605Y-80650000D01*
X167927169Y-81517563D01*
X168178929Y-81436746D01*
X168307457Y-81168221D01*
X168381129Y-80879781D01*
X168397113Y-80582509D01*
X168354796Y-80287833D01*
X168255802Y-80007073D01*
X168178929Y-79863254D01*
X167927169Y-79782437D01*
X167059605Y-80650000D01*
X166700395Y-80650000D01*
X165832831Y-79782437D01*
X165581071Y-79863254D01*
X165452543Y-80131779D01*
X165378871Y-80420219D01*
X165362887Y-80717491D01*
X154083833Y-80717491D01*
X154201413Y-80638926D01*
X154463926Y-80376413D01*
X154670182Y-80067731D01*
X154812253Y-79724741D01*
X154884680Y-79360625D01*
X154884680Y-78989375D01*
X154812253Y-78625259D01*
X154811887Y-78624375D01*
X158115320Y-78624375D01*
X158115320Y-78995625D01*
X158187747Y-79359741D01*
X158329818Y-79702731D01*
X158536074Y-80011413D01*
X158798587Y-80273926D01*
X159107269Y-80480182D01*
X159450259Y-80622253D01*
X159814375Y-80694680D01*
X160185625Y-80694680D01*
X160549741Y-80622253D01*
X160892731Y-80480182D01*
X161201413Y-80273926D01*
X161463926Y-80011413D01*
X161670182Y-79702731D01*
X161812253Y-79359741D01*
X161852546Y-79157169D01*
X166012437Y-79157169D01*
X166083968Y-79380000D01*
X166012437Y-79602831D01*
X166880000Y-80470395D01*
X167747563Y-79602831D01*
X167676032Y-79380000D01*
X167747563Y-79157169D01*
X166880000Y-78289605D01*
X166012437Y-79157169D01*
X161852546Y-79157169D01*
X161884680Y-78995625D01*
X161884680Y-78624375D01*
X161812253Y-78260259D01*
X161777970Y-78177491D01*
X165362887Y-78177491D01*
X165405204Y-78472167D01*
X165504198Y-78752927D01*
X165581071Y-78896746D01*
X165832831Y-78977563D01*
X166700395Y-78110000D01*
X167059605Y-78110000D01*
X167927169Y-78977563D01*
X168178929Y-78896746D01*
X168307457Y-78628221D01*
X168381129Y-78339781D01*
X168397113Y-78042509D01*
X168385430Y-77961150D01*
X180608700Y-77961150D01*
X180608700Y-78258850D01*
X180666778Y-78550830D01*
X180780703Y-78825869D01*
X180946096Y-79073398D01*
X181156602Y-79283904D01*
X181300420Y-79380000D01*
X181156602Y-79476096D01*
X180946096Y-79686602D01*
X180780703Y-79934131D01*
X180666778Y-80209170D01*
X180608700Y-80501150D01*
X180608700Y-80798850D01*
X180666778Y-81090830D01*
X180780703Y-81365869D01*
X180946096Y-81613398D01*
X181156602Y-81823904D01*
X181300420Y-81920000D01*
X181156602Y-82016096D01*
X180946096Y-82226602D01*
X180780703Y-82474131D01*
X180666778Y-82749170D01*
X180608700Y-83041150D01*
X180608700Y-83338850D01*
X180666778Y-83630830D01*
X180780703Y-83905869D01*
X180946096Y-84153398D01*
X181156602Y-84363904D01*
X181300420Y-84460000D01*
X181156602Y-84556096D01*
X180946096Y-84766602D01*
X180780703Y-85014131D01*
X180666778Y-85289170D01*
X180608700Y-85581150D01*
X180608700Y-85878850D01*
X180666778Y-86170830D01*
X180780703Y-86445869D01*
X180946096Y-86693398D01*
X181156602Y-86903904D01*
X181300420Y-87000000D01*
X181156602Y-87096096D01*
X180946096Y-87306602D01*
X180780703Y-87554131D01*
X180666778Y-87829170D01*
X180608700Y-88121150D01*
X180608700Y-88418850D01*
X180666778Y-88710830D01*
X180780703Y-88985869D01*
X180946096Y-89233398D01*
X181156602Y-89443904D01*
X181300420Y-89540000D01*
X181156602Y-89636096D01*
X180946096Y-89846602D01*
X180780703Y-90094131D01*
X180666778Y-90369170D01*
X180608700Y-90661150D01*
X180608700Y-90958850D01*
X180666778Y-91250830D01*
X180780703Y-91525869D01*
X180946096Y-91773398D01*
X181156602Y-91983904D01*
X181300420Y-92080000D01*
X181156602Y-92176096D01*
X180946096Y-92386602D01*
X180780703Y-92634131D01*
X180666778Y-92909170D01*
X180608700Y-93201150D01*
X180608700Y-93498850D01*
X180666778Y-93790830D01*
X180780703Y-94065869D01*
X180946096Y-94313398D01*
X181156602Y-94523904D01*
X181300420Y-94620000D01*
X181156602Y-94716096D01*
X180946096Y-94926602D01*
X180780703Y-95174131D01*
X180666778Y-95449170D01*
X180608700Y-95741150D01*
X180608700Y-96038850D01*
X180666778Y-96330830D01*
X180780703Y-96605869D01*
X180946096Y-96853398D01*
X181156602Y-97063904D01*
X181300420Y-97160000D01*
X181156602Y-97256096D01*
X180946096Y-97466602D01*
X180780703Y-97714131D01*
X180666778Y-97989170D01*
X180608700Y-98281150D01*
X180608700Y-98578850D01*
X180666778Y-98870830D01*
X180780703Y-99145869D01*
X180946096Y-99393398D01*
X181156602Y-99603904D01*
X181300420Y-99700000D01*
X181156602Y-99796096D01*
X180946096Y-100006602D01*
X180780703Y-100254131D01*
X180666778Y-100529170D01*
X180608700Y-100821150D01*
X180608700Y-101118850D01*
X180666778Y-101410830D01*
X180780703Y-101685869D01*
X180946096Y-101933398D01*
X181156602Y-102143904D01*
X181404131Y-102309297D01*
X181679170Y-102423222D01*
X181971150Y-102481300D01*
X182268850Y-102481300D01*
X182560830Y-102423222D01*
X182835869Y-102309297D01*
X183083398Y-102143904D01*
X183293904Y-101933398D01*
X183459297Y-101685869D01*
X183573222Y-101410830D01*
X183631300Y-101118850D01*
X183631300Y-100821150D01*
X183573222Y-100529170D01*
X183459297Y-100254131D01*
X183293904Y-100006602D01*
X183083398Y-99796096D01*
X182939580Y-99700000D01*
X183083398Y-99603904D01*
X183293904Y-99393398D01*
X183459297Y-99145869D01*
X183573222Y-98870830D01*
X183631300Y-98578850D01*
X183631300Y-98281150D01*
X183573222Y-97989170D01*
X183459297Y-97714131D01*
X183293904Y-97466602D01*
X183083398Y-97256096D01*
X182939580Y-97160000D01*
X183083398Y-97063904D01*
X183293904Y-96853398D01*
X183459297Y-96605869D01*
X183573222Y-96330830D01*
X183631300Y-96038850D01*
X183631300Y-95741150D01*
X183573222Y-95449170D01*
X183459297Y-95174131D01*
X183293904Y-94926602D01*
X183083398Y-94716096D01*
X182939580Y-94620000D01*
X183083398Y-94523904D01*
X183293904Y-94313398D01*
X183459297Y-94065869D01*
X183573222Y-93790830D01*
X183631300Y-93498850D01*
X183631300Y-93201150D01*
X183573222Y-92909170D01*
X183459297Y-92634131D01*
X183293904Y-92386602D01*
X183083398Y-92176096D01*
X182939580Y-92080000D01*
X183083398Y-91983904D01*
X183293904Y-91773398D01*
X183459297Y-91525869D01*
X183573222Y-91250830D01*
X183631300Y-90958850D01*
X183631300Y-90661150D01*
X183573222Y-90369170D01*
X183459297Y-90094131D01*
X183293904Y-89846602D01*
X183083398Y-89636096D01*
X182939580Y-89540000D01*
X183083398Y-89443904D01*
X183293904Y-89233398D01*
X183459297Y-88985869D01*
X183573222Y-88710830D01*
X183631300Y-88418850D01*
X183631300Y-88121150D01*
X183573222Y-87829170D01*
X183459297Y-87554131D01*
X183293904Y-87306602D01*
X183083398Y-87096096D01*
X182939580Y-87000000D01*
X183083398Y-86903904D01*
X183293904Y-86693398D01*
X183459297Y-86445869D01*
X183573222Y-86170830D01*
X183631300Y-85878850D01*
X183631300Y-85581150D01*
X183573222Y-85289170D01*
X183459297Y-85014131D01*
X183293904Y-84766602D01*
X183083398Y-84556096D01*
X182939580Y-84460000D01*
X183083398Y-84363904D01*
X183293904Y-84153398D01*
X183459297Y-83905869D01*
X183573222Y-83630830D01*
X183631300Y-83338850D01*
X183631300Y-83041150D01*
X183573222Y-82749170D01*
X183459297Y-82474131D01*
X183293904Y-82226602D01*
X183083398Y-82016096D01*
X182939580Y-81920000D01*
X183083398Y-81823904D01*
X183293904Y-81613398D01*
X183459297Y-81365869D01*
X183573222Y-81090830D01*
X183631300Y-80798850D01*
X183631300Y-80501150D01*
X183573222Y-80209170D01*
X183459297Y-79934131D01*
X183293904Y-79686602D01*
X183083398Y-79476096D01*
X182939580Y-79380000D01*
X183083398Y-79283904D01*
X183293904Y-79073398D01*
X183459297Y-78825869D01*
X183573222Y-78550830D01*
X183631300Y-78258850D01*
X183631300Y-77961150D01*
X183573222Y-77669170D01*
X183459297Y-77394131D01*
X183293904Y-77146602D01*
X183083398Y-76936096D01*
X182920191Y-76827045D01*
X182987563Y-76617169D01*
X182120000Y-75749605D01*
X181252437Y-76617169D01*
X181319809Y-76827045D01*
X181156602Y-76936096D01*
X180946096Y-77146602D01*
X180780703Y-77394131D01*
X180666778Y-77669170D01*
X180608700Y-77961150D01*
X168385430Y-77961150D01*
X168354796Y-77747833D01*
X168255802Y-77467073D01*
X168178929Y-77323254D01*
X167927169Y-77242437D01*
X167059605Y-78110000D01*
X166700395Y-78110000D01*
X165832831Y-77242437D01*
X165581071Y-77323254D01*
X165452543Y-77591779D01*
X165378871Y-77880219D01*
X165362887Y-78177491D01*
X161777970Y-78177491D01*
X161670182Y-77917269D01*
X161463926Y-77608587D01*
X161201413Y-77346074D01*
X160892731Y-77139818D01*
X160549741Y-76997747D01*
X160185625Y-76925320D01*
X159814375Y-76925320D01*
X159450259Y-76997747D01*
X159107269Y-77139818D01*
X158798587Y-77346074D01*
X158536074Y-77608587D01*
X158329818Y-77917269D01*
X158187747Y-78260259D01*
X158115320Y-78624375D01*
X154811887Y-78624375D01*
X154670182Y-78282269D01*
X154463926Y-77973587D01*
X154366578Y-77876239D01*
X154374162Y-77875492D01*
X154493860Y-77839182D01*
X154604174Y-77780217D01*
X154700865Y-77700865D01*
X154780217Y-77604174D01*
X154839182Y-77493860D01*
X154875492Y-77374162D01*
X154887752Y-77249680D01*
X154884680Y-76285750D01*
X154848610Y-76249680D01*
X158112248Y-76249680D01*
X158124508Y-76374162D01*
X158160818Y-76493860D01*
X158219783Y-76604174D01*
X158299135Y-76700865D01*
X158395826Y-76780217D01*
X158506140Y-76839182D01*
X158625838Y-76875492D01*
X158750320Y-76887752D01*
X159714250Y-76884680D01*
X159873000Y-76725930D01*
X159873000Y-75127000D01*
X160127000Y-75127000D01*
X160127000Y-76725930D01*
X160285750Y-76884680D01*
X161249680Y-76887752D01*
X161374162Y-76875492D01*
X161493860Y-76839182D01*
X161604174Y-76780217D01*
X161700865Y-76700865D01*
X161780217Y-76604174D01*
X161839182Y-76493860D01*
X161875492Y-76374162D01*
X161887752Y-76249680D01*
X161884680Y-75285750D01*
X161725930Y-75127000D01*
X160127000Y-75127000D01*
X159873000Y-75127000D01*
X158274070Y-75127000D01*
X158115320Y-75285750D01*
X158112248Y-76249680D01*
X154848610Y-76249680D01*
X154725930Y-76127000D01*
X153127000Y-76127000D01*
X153127000Y-76147000D01*
X152873000Y-76147000D01*
X152873000Y-76127000D01*
X151274070Y-76127000D01*
X151115320Y-76285750D01*
X151112248Y-77249680D01*
X150660000Y-77249680D01*
X150660000Y-74750320D01*
X151112248Y-74750320D01*
X151115320Y-75714250D01*
X151274070Y-75873000D01*
X152873000Y-75873000D01*
X152873000Y-74274070D01*
X153127000Y-74274070D01*
X153127000Y-75873000D01*
X154725930Y-75873000D01*
X154884680Y-75714250D01*
X154887752Y-74750320D01*
X154875492Y-74625838D01*
X154839182Y-74506140D01*
X154780217Y-74395826D01*
X154700865Y-74299135D01*
X154604174Y-74219783D01*
X154493860Y-74160818D01*
X154374162Y-74124508D01*
X154249680Y-74112248D01*
X153285750Y-74115320D01*
X153127000Y-74274070D01*
X152873000Y-74274070D01*
X152714250Y-74115320D01*
X151750320Y-74112248D01*
X151625838Y-74124508D01*
X151506140Y-74160818D01*
X151395826Y-74219783D01*
X151299135Y-74299135D01*
X151219783Y-74395826D01*
X151160818Y-74506140D01*
X151124508Y-74625838D01*
X151112248Y-74750320D01*
X150660000Y-74750320D01*
X150660000Y-73750320D01*
X158112248Y-73750320D01*
X158115320Y-74714250D01*
X158274070Y-74873000D01*
X159873000Y-74873000D01*
X159873000Y-73274070D01*
X160127000Y-73274070D01*
X160127000Y-74873000D01*
X161725930Y-74873000D01*
X161884680Y-74714250D01*
X161887752Y-73750320D01*
X161875492Y-73625838D01*
X161839182Y-73506140D01*
X161780217Y-73395826D01*
X161700865Y-73299135D01*
X161604174Y-73219783D01*
X161493860Y-73160818D01*
X161374162Y-73124508D01*
X161249680Y-73112248D01*
X160285750Y-73115320D01*
X160127000Y-73274070D01*
X159873000Y-73274070D01*
X159714250Y-73115320D01*
X158750320Y-73112248D01*
X158625838Y-73124508D01*
X158506140Y-73160818D01*
X158395826Y-73219783D01*
X158299135Y-73299135D01*
X158219783Y-73395826D01*
X158160818Y-73506140D01*
X158124508Y-73625838D01*
X158112248Y-73750320D01*
X150660000Y-73750320D01*
X150660000Y-72153700D01*
X165365628Y-72153700D01*
X165365628Y-73906300D01*
X165377888Y-74030782D01*
X165414198Y-74150480D01*
X165473163Y-74260794D01*
X165552515Y-74357485D01*
X165649206Y-74436837D01*
X165759520Y-74495802D01*
X165803542Y-74509156D01*
X165706096Y-74606602D01*
X165540703Y-74854131D01*
X165426778Y-75129170D01*
X165368700Y-75421150D01*
X165368700Y-75718850D01*
X165426778Y-76010830D01*
X165540703Y-76285869D01*
X165706096Y-76533398D01*
X165916602Y-76743904D01*
X166079809Y-76852955D01*
X166012437Y-77062831D01*
X166880000Y-77930395D01*
X167747563Y-77062831D01*
X167680191Y-76852955D01*
X167843398Y-76743904D01*
X168053904Y-76533398D01*
X168219297Y-76285869D01*
X168333222Y-76010830D01*
X168391300Y-75718850D01*
X168391300Y-75637491D01*
X180602887Y-75637491D01*
X180645204Y-75932167D01*
X180744198Y-76212927D01*
X180821071Y-76356746D01*
X181072831Y-76437563D01*
X181940395Y-75570000D01*
X182299605Y-75570000D01*
X183167169Y-76437563D01*
X183418929Y-76356746D01*
X183547457Y-76088221D01*
X183621129Y-75799781D01*
X183637113Y-75502509D01*
X183594796Y-75207833D01*
X183495802Y-74927073D01*
X183418929Y-74783254D01*
X183167169Y-74702437D01*
X182299605Y-75570000D01*
X181940395Y-75570000D01*
X181072831Y-74702437D01*
X180821071Y-74783254D01*
X180692543Y-75051779D01*
X180618871Y-75340219D01*
X180602887Y-75637491D01*
X168391300Y-75637491D01*
X168391300Y-75421150D01*
X168333222Y-75129170D01*
X168219297Y-74854131D01*
X168053904Y-74606602D01*
X167956458Y-74509156D01*
X168000480Y-74495802D01*
X168110794Y-74436837D01*
X168207485Y-74357485D01*
X168286837Y-74260794D01*
X168345802Y-74150480D01*
X168382112Y-74030782D01*
X168394372Y-73906300D01*
X168394372Y-72881150D01*
X180608700Y-72881150D01*
X180608700Y-73178850D01*
X180666778Y-73470830D01*
X180780703Y-73745869D01*
X180946096Y-73993398D01*
X181156602Y-74203904D01*
X181319809Y-74312955D01*
X181252437Y-74522831D01*
X182120000Y-75390395D01*
X182987563Y-74522831D01*
X182920191Y-74312955D01*
X183083398Y-74203904D01*
X183293904Y-73993398D01*
X183459297Y-73745869D01*
X183573222Y-73470830D01*
X183631300Y-73178850D01*
X183631300Y-72881150D01*
X183573222Y-72589170D01*
X183459297Y-72314131D01*
X183293904Y-72066602D01*
X183083398Y-71856096D01*
X182835869Y-71690703D01*
X182560830Y-71576778D01*
X182268850Y-71518700D01*
X181971150Y-71518700D01*
X181679170Y-71576778D01*
X181404131Y-71690703D01*
X181156602Y-71856096D01*
X180946096Y-72066602D01*
X180780703Y-72314131D01*
X180666778Y-72589170D01*
X180608700Y-72881150D01*
X168394372Y-72881150D01*
X168394372Y-72153700D01*
X168382112Y-72029218D01*
X168345802Y-71909520D01*
X168286837Y-71799206D01*
X168207485Y-71702515D01*
X168110794Y-71623163D01*
X168000480Y-71564198D01*
X167880782Y-71527888D01*
X167756300Y-71515628D01*
X166003700Y-71515628D01*
X165879218Y-71527888D01*
X165759520Y-71564198D01*
X165649206Y-71623163D01*
X165552515Y-71702515D01*
X165473163Y-71799206D01*
X165414198Y-71909520D01*
X165377888Y-72029218D01*
X165365628Y-72153700D01*
X150660000Y-72153700D01*
X150660000Y-70660000D01*
X191340001Y-70660000D01*
X191340001Y-70967572D01*
G37*
X191340001Y-70967572D02*
X191340000Y-70967582D01*
X191340001Y-110340000D01*
X190472213Y-110340000D01*
X190483771Y-110313377D01*
X189350000Y-109179605D01*
X188216229Y-110313377D01*
X188227787Y-110340000D01*
X187297213Y-110340000D01*
X187308771Y-110313377D01*
X186175000Y-109179605D01*
X186160858Y-109193748D01*
X185981252Y-109014142D01*
X185995395Y-109000000D01*
X186354605Y-109000000D01*
X187488377Y-110133771D01*
X187762500Y-110014762D01*
X188036623Y-110133771D01*
X189170395Y-109000000D01*
X189529605Y-109000000D01*
X190663377Y-110133771D01*
X190953315Y-110007896D01*
X191119139Y-109675738D01*
X191216975Y-109317613D01*
X191243065Y-108947281D01*
X191196405Y-108578975D01*
X191078789Y-108226849D01*
X190953315Y-107992104D01*
X190663377Y-107866229D01*
X189529605Y-109000000D01*
X189170395Y-109000000D01*
X188036623Y-107866229D01*
X187762500Y-107985238D01*
X187488377Y-107866229D01*
X186354605Y-109000000D01*
X185995395Y-109000000D01*
X185981252Y-108985858D01*
X186160858Y-108806252D01*
X186175000Y-108820395D01*
X187308771Y-107686623D01*
X188216229Y-107686623D01*
X189350000Y-108820395D01*
X190483771Y-107686623D01*
X190357896Y-107396685D01*
X190025738Y-107230861D01*
X189667613Y-107133025D01*
X189297281Y-107106935D01*
X188928975Y-107153595D01*
X188576849Y-107271211D01*
X188342104Y-107396685D01*
X188216229Y-107686623D01*
X187308771Y-107686623D01*
X187182896Y-107396685D01*
X186850738Y-107230861D01*
X186492613Y-107133025D01*
X186122281Y-107106935D01*
X185753975Y-107153595D01*
X185401849Y-107271211D01*
X185167104Y-107396685D01*
X185041230Y-107686622D01*
X184926120Y-107571512D01*
X184874631Y-107623001D01*
X184839182Y-107506140D01*
X184780217Y-107395826D01*
X184700865Y-107299135D01*
X184604174Y-107219783D01*
X184493860Y-107160818D01*
X184374162Y-107124508D01*
X184249680Y-107112248D01*
X183285750Y-107115320D01*
X183127000Y-107274070D01*
X183127000Y-108873000D01*
X183147000Y-108873000D01*
X183147000Y-109127000D01*
X183127000Y-109127000D01*
X183127000Y-109147000D01*
X182873000Y-109147000D01*
X182873000Y-109127000D01*
X181274070Y-109127000D01*
X181115320Y-109285750D01*
X181112248Y-110249680D01*
X181121143Y-110340000D01*
X177675339Y-110340000D01*
X177813926Y-110201413D01*
X178020182Y-109892731D01*
X178162253Y-109549741D01*
X178234680Y-109185625D01*
X178234680Y-108814375D01*
X178162253Y-108450259D01*
X178020182Y-108107269D01*
X177813926Y-107798587D01*
X177765659Y-107750320D01*
X181112248Y-107750320D01*
X181115320Y-108714250D01*
X181274070Y-108873000D01*
X182873000Y-108873000D01*
X182873000Y-107274070D01*
X182714250Y-107115320D01*
X181750320Y-107112248D01*
X181625838Y-107124508D01*
X181506140Y-107160818D01*
X181395826Y-107219783D01*
X181299135Y-107299135D01*
X181219783Y-107395826D01*
X181160818Y-107506140D01*
X181124508Y-107625838D01*
X181112248Y-107750320D01*
X177765659Y-107750320D01*
X177551413Y-107536074D01*
X177242731Y-107329818D01*
X176899741Y-107187747D01*
X176535625Y-107115320D01*
X176164375Y-107115320D01*
X175800259Y-107187747D01*
X175457269Y-107329818D01*
X175148587Y-107536074D01*
X174886074Y-107798587D01*
X174762500Y-107983527D01*
X174638926Y-107798587D01*
X174376413Y-107536074D01*
X174067731Y-107329818D01*
X173724741Y-107187747D01*
X173360625Y-107115320D01*
X172989375Y-107115320D01*
X172625259Y-107187747D01*
X172282269Y-107329818D01*
X171973587Y-107536074D01*
X171876239Y-107633422D01*
X171875492Y-107625838D01*
X171839182Y-107506140D01*
X171780217Y-107395826D01*
X171700865Y-107299135D01*
X171604174Y-107219783D01*
X171493860Y-107160818D01*
X171374162Y-107124508D01*
X171249680Y-107112248D01*
X168750320Y-107112248D01*
X168625838Y-107124508D01*
X168506140Y-107160818D01*
X168395826Y-107219783D01*
X168299135Y-107299135D01*
X168219783Y-107395826D01*
X168160818Y-107506140D01*
X168124508Y-107625838D01*
X168112248Y-107750320D01*
X168112248Y-110249680D01*
X168121143Y-110340000D01*
X165075339Y-110340000D01*
X165213926Y-110201413D01*
X165420182Y-109892731D01*
X165562253Y-109549741D01*
X165634680Y-109185625D01*
X165634680Y-108814375D01*
X165562253Y-108450259D01*
X165420182Y-108107269D01*
X165213926Y-107798587D01*
X164951413Y-107536074D01*
X164642731Y-107329818D01*
X164299741Y-107187747D01*
X163935625Y-107115320D01*
X163564375Y-107115320D01*
X163200259Y-107187747D01*
X162857269Y-107329818D01*
X162548587Y-107536074D01*
X162286074Y-107798587D01*
X162079818Y-108107269D01*
X161937747Y-108450259D01*
X161875000Y-108765710D01*
X161812253Y-108450259D01*
X161670182Y-108107269D01*
X161463926Y-107798587D01*
X161201413Y-107536074D01*
X160892731Y-107329818D01*
X160549741Y-107187747D01*
X160185625Y-107115320D01*
X159814375Y-107115320D01*
X159450259Y-107187747D01*
X159107269Y-107329818D01*
X158798587Y-107536074D01*
X158536074Y-107798587D01*
X158329818Y-108107269D01*
X158187747Y-108450259D01*
X158115320Y-108814375D01*
X158115320Y-109185625D01*
X158187747Y-109549741D01*
X158329818Y-109892731D01*
X158536074Y-110201413D01*
X158674661Y-110340000D01*
X150660000Y-110340000D01*
X150660000Y-104999680D01*
X151112248Y-104999680D01*
X151124508Y-105124162D01*
X151160818Y-105243860D01*
X151219783Y-105354174D01*
X151299135Y-105450865D01*
X151395826Y-105530217D01*
X151506140Y-105589182D01*
X151625838Y-105625492D01*
X151750320Y-105637752D01*
X152714250Y-105634680D01*
X152873000Y-105475930D01*
X152873000Y-103877000D01*
X153127000Y-103877000D01*
X153127000Y-105475930D01*
X153285750Y-105634680D01*
X154249680Y-105637752D01*
X154374162Y-105625492D01*
X154493860Y-105589182D01*
X154604174Y-105530217D01*
X154700865Y-105450865D01*
X154780217Y-105354174D01*
X154839182Y-105243860D01*
X154875492Y-105124162D01*
X154887752Y-104999680D01*
X154884680Y-104035750D01*
X154725930Y-103877000D01*
X153127000Y-103877000D01*
X152873000Y-103877000D01*
X151274070Y-103877000D01*
X151115320Y-104035750D01*
X151112248Y-104999680D01*
X150660000Y-104999680D01*
X150660000Y-102500320D01*
X151112248Y-102500320D01*
X151115320Y-103464250D01*
X151274070Y-103623000D01*
X152873000Y-103623000D01*
X152873000Y-102024070D01*
X153127000Y-102024070D01*
X153127000Y-103623000D01*
X154725930Y-103623000D01*
X154884680Y-103464250D01*
X154887752Y-102500320D01*
X154875492Y-102375838D01*
X154839182Y-102256140D01*
X154780217Y-102145826D01*
X154700865Y-102049135D01*
X154604174Y-101969783D01*
X154493860Y-101910818D01*
X154374162Y-101874508D01*
X154249680Y-101862248D01*
X153285750Y-101865320D01*
X153127000Y-102024070D01*
X152873000Y-102024070D01*
X152714250Y-101865320D01*
X151750320Y-101862248D01*
X151625838Y-101874508D01*
X151506140Y-101910818D01*
X151395826Y-101969783D01*
X151299135Y-102049135D01*
X151219783Y-102145826D01*
X151160818Y-102256140D01*
X151124508Y-102375838D01*
X151112248Y-102500320D01*
X150660000Y-102500320D01*
X150660000Y-99754375D01*
X151115320Y-99754375D01*
X151115320Y-100125625D01*
X151187747Y-100489741D01*
X151329818Y-100832731D01*
X151536074Y-101141413D01*
X151798587Y-101403926D01*
X152107269Y-101610182D01*
X152450259Y-101752253D01*
X152814375Y-101824680D01*
X153185625Y-101824680D01*
X153549741Y-101752253D01*
X153892731Y-101610182D01*
X154201413Y-101403926D01*
X154463926Y-101141413D01*
X154670182Y-100832731D01*
X154812253Y-100489741D01*
X154884680Y-100125625D01*
X154884680Y-99754375D01*
X154812253Y-99390259D01*
X154757274Y-99257528D01*
X155754802Y-98260000D01*
X161712678Y-98260000D01*
X161750000Y-98263676D01*
X161787322Y-98260000D01*
X161787333Y-98260000D01*
X161898986Y-98249003D01*
X162042247Y-98205546D01*
X162174276Y-98134974D01*
X162290001Y-98040001D01*
X162313804Y-98010997D01*
X164261003Y-96063799D01*
X164290001Y-96040001D01*
X164352066Y-95964375D01*
X164384974Y-95924277D01*
X164455546Y-95792247D01*
X164475725Y-95725724D01*
X164499003Y-95648986D01*
X164510000Y-95537333D01*
X164510000Y-95537324D01*
X164513676Y-95500001D01*
X164510000Y-95462678D01*
X164510000Y-86634801D01*
X165368700Y-85776102D01*
X165368700Y-85878850D01*
X165426778Y-86170830D01*
X165540703Y-86445869D01*
X165706096Y-86693398D01*
X165916602Y-86903904D01*
X166060420Y-87000000D01*
X165916602Y-87096096D01*
X165706096Y-87306602D01*
X165540703Y-87554131D01*
X165426778Y-87829170D01*
X165368700Y-88121150D01*
X165368700Y-88418850D01*
X165426778Y-88710830D01*
X165540703Y-88985869D01*
X165706096Y-89233398D01*
X165916602Y-89443904D01*
X166060420Y-89540000D01*
X165916602Y-89636096D01*
X165706096Y-89846602D01*
X165540703Y-90094131D01*
X165426778Y-90369170D01*
X165368700Y-90661150D01*
X165368700Y-90958850D01*
X165426778Y-91250830D01*
X165540703Y-91525869D01*
X165706096Y-91773398D01*
X165916602Y-91983904D01*
X166060420Y-92080000D01*
X165916602Y-92176096D01*
X165706096Y-92386602D01*
X165540703Y-92634131D01*
X165426778Y-92909170D01*
X165368700Y-93201150D01*
X165368700Y-93498850D01*
X165426778Y-93790830D01*
X165540703Y-94065869D01*
X165706096Y-94313398D01*
X165916602Y-94523904D01*
X166060420Y-94620000D01*
X165916602Y-94716096D01*
X165706096Y-94926602D01*
X165540703Y-95174131D01*
X165426778Y-95449170D01*
X165368700Y-95741150D01*
X165368700Y-96038850D01*
X165426778Y-96330830D01*
X165540703Y-96605869D01*
X165706096Y-96853398D01*
X165916602Y-97063904D01*
X166060420Y-97160000D01*
X165916602Y-97256096D01*
X165706096Y-97466602D01*
X165540703Y-97714131D01*
X165426778Y-97989170D01*
X165368700Y-98281150D01*
X165368700Y-98578850D01*
X165426778Y-98870830D01*
X165540703Y-99145869D01*
X165706096Y-99393398D01*
X165916602Y-99603904D01*
X166060420Y-99700000D01*
X165916602Y-99796096D01*
X165706096Y-100006602D01*
X165540703Y-100254131D01*
X165426778Y-100529170D01*
X165368700Y-100821150D01*
X165368700Y-101118850D01*
X165426778Y-101410830D01*
X165540703Y-101685869D01*
X165706096Y-101933398D01*
X165916602Y-102143904D01*
X166164131Y-102309297D01*
X166439170Y-102423222D01*
X166731150Y-102481300D01*
X167028850Y-102481300D01*
X167320830Y-102423222D01*
X167595869Y-102309297D01*
X167843398Y-102143904D01*
X168053904Y-101933398D01*
X168219297Y-101685869D01*
X168333222Y-101410830D01*
X168391300Y-101118850D01*
X168391300Y-101016101D01*
X173886201Y-106511003D01*
X173909999Y-106540001D01*
X174025724Y-106634974D01*
X174157753Y-106705546D01*
X174301014Y-106749003D01*
X174412667Y-106760000D01*
X174412675Y-106760000D01*
X174450000Y-106763676D01*
X174487325Y-106760000D01*
X185462678Y-106760000D01*
X185500000Y-106763676D01*
X185537322Y-106760000D01*
X185537333Y-106760000D01*
X185648986Y-106749003D01*
X185792247Y-106705546D01*
X185924276Y-106634974D01*
X186040001Y-106540001D01*
X186063804Y-106510998D01*
X187011003Y-105563799D01*
X187040001Y-105540001D01*
X187134974Y-105424276D01*
X187205546Y-105292247D01*
X187249003Y-105148986D01*
X187260000Y-105037333D01*
X187263677Y-105000000D01*
X187260000Y-104962667D01*
X187260000Y-104153179D01*
X187299135Y-104200865D01*
X187395826Y-104280217D01*
X187506140Y-104339182D01*
X187625838Y-104375492D01*
X187750320Y-104387752D01*
X190249680Y-104387752D01*
X190374162Y-104375492D01*
X190493860Y-104339182D01*
X190604174Y-104280217D01*
X190700865Y-104200865D01*
X190780217Y-104104174D01*
X190839182Y-103993860D01*
X190875492Y-103874162D01*
X190887752Y-103749680D01*
X190887752Y-101250320D01*
X190875492Y-101125838D01*
X190839182Y-101006140D01*
X190780217Y-100895826D01*
X190700865Y-100799135D01*
X190604174Y-100719783D01*
X190493860Y-100660818D01*
X190376999Y-100625369D01*
X190428488Y-100573880D01*
X190313378Y-100458770D01*
X190603315Y-100332896D01*
X190769139Y-100000738D01*
X190866975Y-99642613D01*
X190893065Y-99272281D01*
X190846405Y-98903975D01*
X190728789Y-98551849D01*
X190603315Y-98317104D01*
X190313377Y-98191229D01*
X189179605Y-99325000D01*
X189193748Y-99339142D01*
X189014142Y-99518748D01*
X189000000Y-99504605D01*
X188985858Y-99518748D01*
X188806252Y-99339142D01*
X188820395Y-99325000D01*
X188806252Y-99310858D01*
X188985858Y-99131252D01*
X189000000Y-99145395D01*
X190133771Y-98011623D01*
X190015147Y-97738386D01*
X190201413Y-97613926D01*
X190463926Y-97351413D01*
X190670182Y-97042731D01*
X190812253Y-96699741D01*
X190884680Y-96335625D01*
X190884680Y-95964375D01*
X190812253Y-95600259D01*
X190670182Y-95257269D01*
X190463926Y-94948587D01*
X190201413Y-94686074D01*
X189892731Y-94479818D01*
X189549741Y-94337747D01*
X189185625Y-94265320D01*
X188814375Y-94265320D01*
X188450259Y-94337747D01*
X188107269Y-94479818D01*
X187798587Y-94686074D01*
X187536074Y-94948587D01*
X187329818Y-95257269D01*
X187187747Y-95600259D01*
X187115320Y-95964375D01*
X187115320Y-96335625D01*
X187187747Y-96699741D01*
X187242726Y-96832472D01*
X186510000Y-97565199D01*
X186510000Y-89214801D01*
X187126629Y-88598172D01*
X187106935Y-88877719D01*
X187153595Y-89246025D01*
X187271211Y-89598151D01*
X187396685Y-89832896D01*
X187686622Y-89958770D01*
X187571512Y-90073880D01*
X187623001Y-90125369D01*
X187506140Y-90160818D01*
X187395826Y-90219783D01*
X187299135Y-90299135D01*
X187219783Y-90395826D01*
X187160818Y-90506140D01*
X187124508Y-90625838D01*
X187112248Y-90750320D01*
X187112248Y-93249680D01*
X187124508Y-93374162D01*
X187160818Y-93493860D01*
X187219783Y-93604174D01*
X187299135Y-93700865D01*
X187395826Y-93780217D01*
X187506140Y-93839182D01*
X187625838Y-93875492D01*
X187750320Y-93887752D01*
X190249680Y-93887752D01*
X190374162Y-93875492D01*
X190493860Y-93839182D01*
X190604174Y-93780217D01*
X190700865Y-93700865D01*
X190780217Y-93604174D01*
X190839182Y-93493860D01*
X190875492Y-93374162D01*
X190887752Y-93249680D01*
X190887752Y-90750320D01*
X190875492Y-90625838D01*
X190839182Y-90506140D01*
X190780217Y-90395826D01*
X190700865Y-90299135D01*
X190604174Y-90219783D01*
X190493860Y-90160818D01*
X190376999Y-90125369D01*
X190428488Y-90073880D01*
X190313378Y-89958770D01*
X190603315Y-89832896D01*
X190769139Y-89500738D01*
X190866975Y-89142613D01*
X190893065Y-88772281D01*
X190846405Y-88403975D01*
X190728789Y-88051849D01*
X190603315Y-87817104D01*
X190313377Y-87691229D01*
X189179605Y-88825000D01*
X189193748Y-88839142D01*
X189014142Y-89018748D01*
X189000000Y-89004605D01*
X188985858Y-89018748D01*
X188806252Y-88839142D01*
X188820395Y-88825000D01*
X188806252Y-88810858D01*
X188985858Y-88631252D01*
X189000000Y-88645395D01*
X190133771Y-87511623D01*
X190015147Y-87238386D01*
X190201413Y-87113926D01*
X190463926Y-86851413D01*
X190670182Y-86542731D01*
X190812253Y-86199741D01*
X190884680Y-85835625D01*
X190884680Y-85464375D01*
X190812253Y-85100259D01*
X190670182Y-84757269D01*
X190463926Y-84448587D01*
X190201413Y-84186074D01*
X189892731Y-83979818D01*
X189549741Y-83837747D01*
X189185625Y-83765320D01*
X188814375Y-83765320D01*
X188450259Y-83837747D01*
X188107269Y-83979818D01*
X187798587Y-84186074D01*
X187536074Y-84448587D01*
X187329818Y-84757269D01*
X187187747Y-85100259D01*
X187115320Y-85464375D01*
X187115320Y-85835625D01*
X187187747Y-86199741D01*
X187242726Y-86332472D01*
X185760000Y-87815199D01*
X185760000Y-79389801D01*
X187126629Y-78023172D01*
X187106935Y-78302719D01*
X187153595Y-78671025D01*
X187271211Y-79023151D01*
X187396685Y-79257896D01*
X187686622Y-79383770D01*
X187571512Y-79498880D01*
X187623001Y-79550369D01*
X187506140Y-79585818D01*
X187395826Y-79644783D01*
X187299135Y-79724135D01*
X187219783Y-79820826D01*
X187160818Y-79931140D01*
X187124508Y-80050838D01*
X187112248Y-80175320D01*
X187112248Y-82674680D01*
X187124508Y-82799162D01*
X187160818Y-82918860D01*
X187219783Y-83029174D01*
X187299135Y-83125865D01*
X187395826Y-83205217D01*
X187506140Y-83264182D01*
X187625838Y-83300492D01*
X187750320Y-83312752D01*
X190249680Y-83312752D01*
X190374162Y-83300492D01*
X190493860Y-83264182D01*
X190604174Y-83205217D01*
X190700865Y-83125865D01*
X190780217Y-83029174D01*
X190839182Y-82918860D01*
X190875492Y-82799162D01*
X190887752Y-82674680D01*
X190887752Y-80175320D01*
X190875492Y-80050838D01*
X190839182Y-79931140D01*
X190780217Y-79820826D01*
X190700865Y-79724135D01*
X190604174Y-79644783D01*
X190493860Y-79585818D01*
X190376999Y-79550369D01*
X190428488Y-79498880D01*
X190313378Y-79383770D01*
X190603315Y-79257896D01*
X190769139Y-78925738D01*
X190866975Y-78567613D01*
X190893065Y-78197281D01*
X190846405Y-77828975D01*
X190728789Y-77476849D01*
X190603315Y-77242104D01*
X190313377Y-77116229D01*
X189179605Y-78250000D01*
X189193748Y-78264142D01*
X189014142Y-78443748D01*
X189000000Y-78429605D01*
X188985858Y-78443748D01*
X188806252Y-78264142D01*
X188820395Y-78250000D01*
X188806252Y-78235858D01*
X188985858Y-78056252D01*
X189000000Y-78070395D01*
X190133771Y-76936623D01*
X190015147Y-76663386D01*
X190201413Y-76538926D01*
X190463926Y-76276413D01*
X190670182Y-75967731D01*
X190812253Y-75624741D01*
X190884680Y-75260625D01*
X190884680Y-74889375D01*
X190812253Y-74525259D01*
X190670182Y-74182269D01*
X190463926Y-73873587D01*
X190201413Y-73611074D01*
X189892731Y-73404818D01*
X189549741Y-73262747D01*
X189185625Y-73190320D01*
X188814375Y-73190320D01*
X188450259Y-73262747D01*
X188107269Y-73404818D01*
X187798587Y-73611074D01*
X187536074Y-73873587D01*
X187329818Y-74182269D01*
X187187747Y-74525259D01*
X187115320Y-74889375D01*
X187115320Y-75260625D01*
X187187747Y-75624741D01*
X187242726Y-75757472D01*
X184489003Y-78511196D01*
X184459999Y-78534999D01*
X184433234Y-78567613D01*
X184365026Y-78650724D01*
X184354175Y-78671025D01*
X184294454Y-78782754D01*
X184250997Y-78926015D01*
X184240000Y-79037668D01*
X184240000Y-79037678D01*
X184236324Y-79075000D01*
X184240000Y-79112322D01*
X184240001Y-103435197D01*
X183935199Y-103740000D01*
X178344802Y-103740000D01*
X168343576Y-93738775D01*
X168391300Y-93498850D01*
X168391300Y-93201150D01*
X168333222Y-92909170D01*
X168219297Y-92634131D01*
X168053904Y-92386602D01*
X167843398Y-92176096D01*
X167699580Y-92080000D01*
X167843398Y-91983904D01*
X168053904Y-91773398D01*
X168219297Y-91525869D01*
X168333222Y-91250830D01*
X168391300Y-90958850D01*
X168391300Y-90661150D01*
X168333222Y-90369170D01*
X168219297Y-90094131D01*
X168053904Y-89846602D01*
X167843398Y-89636096D01*
X167699580Y-89540000D01*
X167843398Y-89443904D01*
X168053904Y-89233398D01*
X168219297Y-88985869D01*
X168333222Y-88710830D01*
X168391300Y-88418850D01*
X168391300Y-88121150D01*
X168333222Y-87829170D01*
X168219297Y-87554131D01*
X168053904Y-87306602D01*
X167843398Y-87096096D01*
X167699580Y-87000000D01*
X167843398Y-86903904D01*
X168053904Y-86693398D01*
X168219297Y-86445869D01*
X168333222Y-86170830D01*
X168391300Y-85878850D01*
X168391300Y-85581150D01*
X168333222Y-85289170D01*
X168219297Y-85014131D01*
X168053904Y-84766602D01*
X167843398Y-84556096D01*
X167699580Y-84460000D01*
X167843398Y-84363904D01*
X168053904Y-84153398D01*
X168219297Y-83905869D01*
X168333222Y-83630830D01*
X168391300Y-83338850D01*
X168391300Y-83041150D01*
X168333222Y-82749170D01*
X168219297Y-82474131D01*
X168053904Y-82226602D01*
X167843398Y-82016096D01*
X167680191Y-81907045D01*
X167747563Y-81697169D01*
X166880000Y-80829605D01*
X166012437Y-81697169D01*
X166079809Y-81907045D01*
X165916602Y-82016096D01*
X165706096Y-82226602D01*
X165540703Y-82474131D01*
X165426778Y-82749170D01*
X165368700Y-83041150D01*
X165368700Y-83338850D01*
X165416424Y-83578774D01*
X163239003Y-85756196D01*
X163209999Y-85779999D01*
X163154871Y-85847174D01*
X163115026Y-85895724D01*
X163103510Y-85917269D01*
X163044454Y-86027754D01*
X163000997Y-86171015D01*
X162990000Y-86282668D01*
X162990000Y-86282678D01*
X162986324Y-86320000D01*
X162990000Y-86357322D01*
X162990001Y-95185197D01*
X161435199Y-96740000D01*
X155477322Y-96740000D01*
X155439999Y-96736324D01*
X155402676Y-96740000D01*
X155402667Y-96740000D01*
X155291014Y-96750997D01*
X155147753Y-96794454D01*
X155015723Y-96865026D01*
X154950322Y-96918700D01*
X154899999Y-96959999D01*
X154876201Y-96988997D01*
X153682472Y-98182726D01*
X153549741Y-98127747D01*
X153185625Y-98055320D01*
X152814375Y-98055320D01*
X152450259Y-98127747D01*
X152107269Y-98269818D01*
X151798587Y-98476074D01*
X151536074Y-98738587D01*
X151329818Y-99047269D01*
X151187747Y-99390259D01*
X151115320Y-99754375D01*
X150660000Y-99754375D01*
X150660000Y-89249680D01*
X151112248Y-89249680D01*
X151124508Y-89374162D01*
X151160818Y-89493860D01*
X151219783Y-89604174D01*
X151299135Y-89700865D01*
X151395826Y-89780217D01*
X151506140Y-89839182D01*
X151625838Y-89875492D01*
X151633422Y-89876239D01*
X151536074Y-89973587D01*
X151329818Y-90282269D01*
X151187747Y-90625259D01*
X151115320Y-90989375D01*
X151115320Y-91360625D01*
X151187747Y-91724741D01*
X151329818Y-92067731D01*
X151536074Y-92376413D01*
X151798587Y-92638926D01*
X151983527Y-92762500D01*
X151798587Y-92886074D01*
X151536074Y-93148587D01*
X151329818Y-93457269D01*
X151187747Y-93800259D01*
X151115320Y-94164375D01*
X151115320Y-94535625D01*
X151187747Y-94899741D01*
X151329818Y-95242731D01*
X151536074Y-95551413D01*
X151798587Y-95813926D01*
X152107269Y-96020182D01*
X152450259Y-96162253D01*
X152814375Y-96234680D01*
X153185625Y-96234680D01*
X153549741Y-96162253D01*
X153892731Y-96020182D01*
X154201413Y-95813926D01*
X154463926Y-95551413D01*
X154670182Y-95242731D01*
X154812253Y-94899741D01*
X154867026Y-94624375D01*
X158115320Y-94624375D01*
X158115320Y-94995625D01*
X158187747Y-95359741D01*
X158329818Y-95702731D01*
X158536074Y-96011413D01*
X158798587Y-96273926D01*
X159107269Y-96480182D01*
X159450259Y-96622253D01*
X159814375Y-96694680D01*
X160185625Y-96694680D01*
X160549741Y-96622253D01*
X160892731Y-96480182D01*
X161201413Y-96273926D01*
X161463926Y-96011413D01*
X161670182Y-95702731D01*
X161812253Y-95359741D01*
X161884680Y-94995625D01*
X161884680Y-94624375D01*
X161812253Y-94260259D01*
X161670182Y-93917269D01*
X161463926Y-93608587D01*
X161201413Y-93346074D01*
X160892731Y-93139818D01*
X160549741Y-92997747D01*
X160185625Y-92925320D01*
X159814375Y-92925320D01*
X159450259Y-92997747D01*
X159107269Y-93139818D01*
X158798587Y-93346074D01*
X158536074Y-93608587D01*
X158329818Y-93917269D01*
X158187747Y-94260259D01*
X158115320Y-94624375D01*
X154867026Y-94624375D01*
X154884680Y-94535625D01*
X154884680Y-94164375D01*
X154812253Y-93800259D01*
X154670182Y-93457269D01*
X154463926Y-93148587D01*
X154201413Y-92886074D01*
X154016473Y-92762500D01*
X154201413Y-92638926D01*
X154463926Y-92376413D01*
X154548606Y-92249680D01*
X158112248Y-92249680D01*
X158124508Y-92374162D01*
X158160818Y-92493860D01*
X158219783Y-92604174D01*
X158299135Y-92700865D01*
X158395826Y-92780217D01*
X158506140Y-92839182D01*
X158625838Y-92875492D01*
X158750320Y-92887752D01*
X159714250Y-92884680D01*
X159873000Y-92725930D01*
X159873000Y-91127000D01*
X160127000Y-91127000D01*
X160127000Y-92725930D01*
X160285750Y-92884680D01*
X161249680Y-92887752D01*
X161374162Y-92875492D01*
X161493860Y-92839182D01*
X161604174Y-92780217D01*
X161700865Y-92700865D01*
X161780217Y-92604174D01*
X161839182Y-92493860D01*
X161875492Y-92374162D01*
X161887752Y-92249680D01*
X161884680Y-91285750D01*
X161725930Y-91127000D01*
X160127000Y-91127000D01*
X159873000Y-91127000D01*
X158274070Y-91127000D01*
X158115320Y-91285750D01*
X158112248Y-92249680D01*
X154548606Y-92249680D01*
X154670182Y-92067731D01*
X154812253Y-91724741D01*
X154884680Y-91360625D01*
X154884680Y-90989375D01*
X154812253Y-90625259D01*
X154670182Y-90282269D01*
X154463926Y-89973587D01*
X154366578Y-89876239D01*
X154374162Y-89875492D01*
X154493860Y-89839182D01*
X154604174Y-89780217D01*
X154640603Y-89750320D01*
X158112248Y-89750320D01*
X158115320Y-90714250D01*
X158274070Y-90873000D01*
X159873000Y-90873000D01*
X159873000Y-89274070D01*
X160127000Y-89274070D01*
X160127000Y-90873000D01*
X161725930Y-90873000D01*
X161884680Y-90714250D01*
X161887752Y-89750320D01*
X161875492Y-89625838D01*
X161839182Y-89506140D01*
X161780217Y-89395826D01*
X161700865Y-89299135D01*
X161604174Y-89219783D01*
X161493860Y-89160818D01*
X161374162Y-89124508D01*
X161249680Y-89112248D01*
X160285750Y-89115320D01*
X160127000Y-89274070D01*
X159873000Y-89274070D01*
X159714250Y-89115320D01*
X158750320Y-89112248D01*
X158625838Y-89124508D01*
X158506140Y-89160818D01*
X158395826Y-89219783D01*
X158299135Y-89299135D01*
X158219783Y-89395826D01*
X158160818Y-89506140D01*
X158124508Y-89625838D01*
X158112248Y-89750320D01*
X154640603Y-89750320D01*
X154700865Y-89700865D01*
X154780217Y-89604174D01*
X154839182Y-89493860D01*
X154875492Y-89374162D01*
X154887752Y-89249680D01*
X154884680Y-88285750D01*
X154725930Y-88127000D01*
X153127000Y-88127000D01*
X153127000Y-88147000D01*
X152873000Y-88147000D01*
X152873000Y-88127000D01*
X151274070Y-88127000D01*
X151115320Y-88285750D01*
X151112248Y-89249680D01*
X150660000Y-89249680D01*
X150660000Y-86750320D01*
X151112248Y-86750320D01*
X151115320Y-87714250D01*
X151274070Y-87873000D01*
X152873000Y-87873000D01*
X152873000Y-86274070D01*
X153127000Y-86274070D01*
X153127000Y-87873000D01*
X154725930Y-87873000D01*
X154884680Y-87714250D01*
X154887752Y-86750320D01*
X154875492Y-86625838D01*
X154875049Y-86624375D01*
X158115320Y-86624375D01*
X158115320Y-86995625D01*
X158187747Y-87359741D01*
X158329818Y-87702731D01*
X158536074Y-88011413D01*
X158798587Y-88273926D01*
X159107269Y-88480182D01*
X159450259Y-88622253D01*
X159814375Y-88694680D01*
X160185625Y-88694680D01*
X160549741Y-88622253D01*
X160892731Y-88480182D01*
X161201413Y-88273926D01*
X161463926Y-88011413D01*
X161670182Y-87702731D01*
X161812253Y-87359741D01*
X161884680Y-86995625D01*
X161884680Y-86624375D01*
X161812253Y-86260259D01*
X161670182Y-85917269D01*
X161463926Y-85608587D01*
X161201413Y-85346074D01*
X160892731Y-85139818D01*
X160549741Y-84997747D01*
X160185625Y-84925320D01*
X159814375Y-84925320D01*
X159450259Y-84997747D01*
X159107269Y-85139818D01*
X158798587Y-85346074D01*
X158536074Y-85608587D01*
X158329818Y-85917269D01*
X158187747Y-86260259D01*
X158115320Y-86624375D01*
X154875049Y-86624375D01*
X154839182Y-86506140D01*
X154780217Y-86395826D01*
X154700865Y-86299135D01*
X154604174Y-86219783D01*
X154493860Y-86160818D01*
X154374162Y-86124508D01*
X154249680Y-86112248D01*
X153285750Y-86115320D01*
X153127000Y-86274070D01*
X152873000Y-86274070D01*
X152714250Y-86115320D01*
X151750320Y-86112248D01*
X151625838Y-86124508D01*
X151506140Y-86160818D01*
X151395826Y-86219783D01*
X151299135Y-86299135D01*
X151219783Y-86395826D01*
X151160818Y-86506140D01*
X151124508Y-86625838D01*
X151112248Y-86750320D01*
X150660000Y-86750320D01*
X150660000Y-84249680D01*
X158112248Y-84249680D01*
X158124508Y-84374162D01*
X158160818Y-84493860D01*
X158219783Y-84604174D01*
X158299135Y-84700865D01*
X158395826Y-84780217D01*
X158506140Y-84839182D01*
X158625838Y-84875492D01*
X158750320Y-84887752D01*
X159714250Y-84884680D01*
X159873000Y-84725930D01*
X159873000Y-83127000D01*
X160127000Y-83127000D01*
X160127000Y-84725930D01*
X160285750Y-84884680D01*
X161249680Y-84887752D01*
X161374162Y-84875492D01*
X161493860Y-84839182D01*
X161604174Y-84780217D01*
X161700865Y-84700865D01*
X161780217Y-84604174D01*
X161839182Y-84493860D01*
X161875492Y-84374162D01*
X161887752Y-84249680D01*
X161884680Y-83285750D01*
X161725930Y-83127000D01*
X160127000Y-83127000D01*
X159873000Y-83127000D01*
X158274070Y-83127000D01*
X158115320Y-83285750D01*
X158112248Y-84249680D01*
X150660000Y-84249680D01*
X150660000Y-77249680D01*
X151112248Y-77249680D01*
X151124508Y-77374162D01*
X151160818Y-77493860D01*
X151219783Y-77604174D01*
X151299135Y-77700865D01*
X151395826Y-77780217D01*
X151506140Y-77839182D01*
X151625838Y-77875492D01*
X151633422Y-77876239D01*
X151536074Y-77973587D01*
X151329818Y-78282269D01*
X151187747Y-78625259D01*
X151115320Y-78989375D01*
X151115320Y-79360625D01*
X151187747Y-79724741D01*
X151329818Y-80067731D01*
X151536074Y-80376413D01*
X151798587Y-80638926D01*
X151983527Y-80762500D01*
X151798587Y-80886074D01*
X151536074Y-81148587D01*
X151329818Y-81457269D01*
X151187747Y-81800259D01*
X151115320Y-82164375D01*
X151115320Y-82535625D01*
X151187747Y-82899741D01*
X151329818Y-83242731D01*
X151536074Y-83551413D01*
X151798587Y-83813926D01*
X152107269Y-84020182D01*
X152450259Y-84162253D01*
X152814375Y-84234680D01*
X153185625Y-84234680D01*
X153549741Y-84162253D01*
X153892731Y-84020182D01*
X154201413Y-83813926D01*
X154463926Y-83551413D01*
X154670182Y-83242731D01*
X154812253Y-82899741D01*
X154884680Y-82535625D01*
X154884680Y-82164375D01*
X154812253Y-81800259D01*
X154791568Y-81750320D01*
X158112248Y-81750320D01*
X158115320Y-82714250D01*
X158274070Y-82873000D01*
X159873000Y-82873000D01*
X159873000Y-81274070D01*
X160127000Y-81274070D01*
X160127000Y-82873000D01*
X161725930Y-82873000D01*
X161884680Y-82714250D01*
X161887752Y-81750320D01*
X161875492Y-81625838D01*
X161839182Y-81506140D01*
X161780217Y-81395826D01*
X161700865Y-81299135D01*
X161604174Y-81219783D01*
X161493860Y-81160818D01*
X161374162Y-81124508D01*
X161249680Y-81112248D01*
X160285750Y-81115320D01*
X160127000Y-81274070D01*
X159873000Y-81274070D01*
X159714250Y-81115320D01*
X158750320Y-81112248D01*
X158625838Y-81124508D01*
X158506140Y-81160818D01*
X158395826Y-81219783D01*
X158299135Y-81299135D01*
X158219783Y-81395826D01*
X158160818Y-81506140D01*
X158124508Y-81625838D01*
X158112248Y-81750320D01*
X154791568Y-81750320D01*
X154670182Y-81457269D01*
X154463926Y-81148587D01*
X154201413Y-80886074D01*
X154016473Y-80762500D01*
X154083833Y-80717491D01*
X165362887Y-80717491D01*
X165405204Y-81012167D01*
X165504198Y-81292927D01*
X165581071Y-81436746D01*
X165832831Y-81517563D01*
X166700395Y-80650000D01*
X167059605Y-80650000D01*
X167927169Y-81517563D01*
X168178929Y-81436746D01*
X168307457Y-81168221D01*
X168381129Y-80879781D01*
X168397113Y-80582509D01*
X168354796Y-80287833D01*
X168255802Y-80007073D01*
X168178929Y-79863254D01*
X167927169Y-79782437D01*
X167059605Y-80650000D01*
X166700395Y-80650000D01*
X165832831Y-79782437D01*
X165581071Y-79863254D01*
X165452543Y-80131779D01*
X165378871Y-80420219D01*
X165362887Y-80717491D01*
X154083833Y-80717491D01*
X154201413Y-80638926D01*
X154463926Y-80376413D01*
X154670182Y-80067731D01*
X154812253Y-79724741D01*
X154884680Y-79360625D01*
X154884680Y-78989375D01*
X154812253Y-78625259D01*
X154811887Y-78624375D01*
X158115320Y-78624375D01*
X158115320Y-78995625D01*
X158187747Y-79359741D01*
X158329818Y-79702731D01*
X158536074Y-80011413D01*
X158798587Y-80273926D01*
X159107269Y-80480182D01*
X159450259Y-80622253D01*
X159814375Y-80694680D01*
X160185625Y-80694680D01*
X160549741Y-80622253D01*
X160892731Y-80480182D01*
X161201413Y-80273926D01*
X161463926Y-80011413D01*
X161670182Y-79702731D01*
X161812253Y-79359741D01*
X161852546Y-79157169D01*
X166012437Y-79157169D01*
X166083968Y-79380000D01*
X166012437Y-79602831D01*
X166880000Y-80470395D01*
X167747563Y-79602831D01*
X167676032Y-79380000D01*
X167747563Y-79157169D01*
X166880000Y-78289605D01*
X166012437Y-79157169D01*
X161852546Y-79157169D01*
X161884680Y-78995625D01*
X161884680Y-78624375D01*
X161812253Y-78260259D01*
X161777970Y-78177491D01*
X165362887Y-78177491D01*
X165405204Y-78472167D01*
X165504198Y-78752927D01*
X165581071Y-78896746D01*
X165832831Y-78977563D01*
X166700395Y-78110000D01*
X167059605Y-78110000D01*
X167927169Y-78977563D01*
X168178929Y-78896746D01*
X168307457Y-78628221D01*
X168381129Y-78339781D01*
X168397113Y-78042509D01*
X168385430Y-77961150D01*
X180608700Y-77961150D01*
X180608700Y-78258850D01*
X180666778Y-78550830D01*
X180780703Y-78825869D01*
X180946096Y-79073398D01*
X181156602Y-79283904D01*
X181300420Y-79380000D01*
X181156602Y-79476096D01*
X180946096Y-79686602D01*
X180780703Y-79934131D01*
X180666778Y-80209170D01*
X180608700Y-80501150D01*
X180608700Y-80798850D01*
X180666778Y-81090830D01*
X180780703Y-81365869D01*
X180946096Y-81613398D01*
X181156602Y-81823904D01*
X181300420Y-81920000D01*
X181156602Y-82016096D01*
X180946096Y-82226602D01*
X180780703Y-82474131D01*
X180666778Y-82749170D01*
X180608700Y-83041150D01*
X180608700Y-83338850D01*
X180666778Y-83630830D01*
X180780703Y-83905869D01*
X180946096Y-84153398D01*
X181156602Y-84363904D01*
X181300420Y-84460000D01*
X181156602Y-84556096D01*
X180946096Y-84766602D01*
X180780703Y-85014131D01*
X180666778Y-85289170D01*
X180608700Y-85581150D01*
X180608700Y-85878850D01*
X180666778Y-86170830D01*
X180780703Y-86445869D01*
X180946096Y-86693398D01*
X181156602Y-86903904D01*
X181300420Y-87000000D01*
X181156602Y-87096096D01*
X180946096Y-87306602D01*
X180780703Y-87554131D01*
X180666778Y-87829170D01*
X180608700Y-88121150D01*
X180608700Y-88418850D01*
X180666778Y-88710830D01*
X180780703Y-88985869D01*
X180946096Y-89233398D01*
X181156602Y-89443904D01*
X181300420Y-89540000D01*
X181156602Y-89636096D01*
X180946096Y-89846602D01*
X180780703Y-90094131D01*
X180666778Y-90369170D01*
X180608700Y-90661150D01*
X180608700Y-90958850D01*
X180666778Y-91250830D01*
X180780703Y-91525869D01*
X180946096Y-91773398D01*
X181156602Y-91983904D01*
X181300420Y-92080000D01*
X181156602Y-92176096D01*
X180946096Y-92386602D01*
X180780703Y-92634131D01*
X180666778Y-92909170D01*
X180608700Y-93201150D01*
X180608700Y-93498850D01*
X180666778Y-93790830D01*
X180780703Y-94065869D01*
X180946096Y-94313398D01*
X181156602Y-94523904D01*
X181300420Y-94620000D01*
X181156602Y-94716096D01*
X180946096Y-94926602D01*
X180780703Y-95174131D01*
X180666778Y-95449170D01*
X180608700Y-95741150D01*
X180608700Y-96038850D01*
X180666778Y-96330830D01*
X180780703Y-96605869D01*
X180946096Y-96853398D01*
X181156602Y-97063904D01*
X181300420Y-97160000D01*
X181156602Y-97256096D01*
X180946096Y-97466602D01*
X180780703Y-97714131D01*
X180666778Y-97989170D01*
X180608700Y-98281150D01*
X180608700Y-98578850D01*
X180666778Y-98870830D01*
X180780703Y-99145869D01*
X180946096Y-99393398D01*
X181156602Y-99603904D01*
X181300420Y-99700000D01*
X181156602Y-99796096D01*
X180946096Y-100006602D01*
X180780703Y-100254131D01*
X180666778Y-100529170D01*
X180608700Y-100821150D01*
X180608700Y-101118850D01*
X180666778Y-101410830D01*
X180780703Y-101685869D01*
X180946096Y-101933398D01*
X181156602Y-102143904D01*
X181404131Y-102309297D01*
X181679170Y-102423222D01*
X181971150Y-102481300D01*
X182268850Y-102481300D01*
X182560830Y-102423222D01*
X182835869Y-102309297D01*
X183083398Y-102143904D01*
X183293904Y-101933398D01*
X183459297Y-101685869D01*
X183573222Y-101410830D01*
X183631300Y-101118850D01*
X183631300Y-100821150D01*
X183573222Y-100529170D01*
X183459297Y-100254131D01*
X183293904Y-100006602D01*
X183083398Y-99796096D01*
X182939580Y-99700000D01*
X183083398Y-99603904D01*
X183293904Y-99393398D01*
X183459297Y-99145869D01*
X183573222Y-98870830D01*
X183631300Y-98578850D01*
X183631300Y-98281150D01*
X183573222Y-97989170D01*
X183459297Y-97714131D01*
X183293904Y-97466602D01*
X183083398Y-97256096D01*
X182939580Y-97160000D01*
X183083398Y-97063904D01*
X183293904Y-96853398D01*
X183459297Y-96605869D01*
X183573222Y-96330830D01*
X183631300Y-96038850D01*
X183631300Y-95741150D01*
X183573222Y-95449170D01*
X183459297Y-95174131D01*
X183293904Y-94926602D01*
X183083398Y-94716096D01*
X182939580Y-94620000D01*
X183083398Y-94523904D01*
X183293904Y-94313398D01*
X183459297Y-94065869D01*
X183573222Y-93790830D01*
X183631300Y-93498850D01*
X183631300Y-93201150D01*
X183573222Y-92909170D01*
X183459297Y-92634131D01*
X183293904Y-92386602D01*
X183083398Y-92176096D01*
X182939580Y-92080000D01*
X183083398Y-91983904D01*
X183293904Y-91773398D01*
X183459297Y-91525869D01*
X183573222Y-91250830D01*
X183631300Y-90958850D01*
X183631300Y-90661150D01*
X183573222Y-90369170D01*
X183459297Y-90094131D01*
X183293904Y-89846602D01*
X183083398Y-89636096D01*
X182939580Y-89540000D01*
X183083398Y-89443904D01*
X183293904Y-89233398D01*
X183459297Y-88985869D01*
X183573222Y-88710830D01*
X183631300Y-88418850D01*
X183631300Y-88121150D01*
X183573222Y-87829170D01*
X183459297Y-87554131D01*
X183293904Y-87306602D01*
X183083398Y-87096096D01*
X182939580Y-87000000D01*
X183083398Y-86903904D01*
X183293904Y-86693398D01*
X183459297Y-86445869D01*
X183573222Y-86170830D01*
X183631300Y-85878850D01*
X183631300Y-85581150D01*
X183573222Y-85289170D01*
X183459297Y-85014131D01*
X183293904Y-84766602D01*
X183083398Y-84556096D01*
X182939580Y-84460000D01*
X183083398Y-84363904D01*
X183293904Y-84153398D01*
X183459297Y-83905869D01*
X183573222Y-83630830D01*
X183631300Y-83338850D01*
X183631300Y-83041150D01*
X183573222Y-82749170D01*
X183459297Y-82474131D01*
X183293904Y-82226602D01*
X183083398Y-82016096D01*
X182939580Y-81920000D01*
X183083398Y-81823904D01*
X183293904Y-81613398D01*
X183459297Y-81365869D01*
X183573222Y-81090830D01*
X183631300Y-80798850D01*
X183631300Y-80501150D01*
X183573222Y-80209170D01*
X183459297Y-79934131D01*
X183293904Y-79686602D01*
X183083398Y-79476096D01*
X182939580Y-79380000D01*
X183083398Y-79283904D01*
X183293904Y-79073398D01*
X183459297Y-78825869D01*
X183573222Y-78550830D01*
X183631300Y-78258850D01*
X183631300Y-77961150D01*
X183573222Y-77669170D01*
X183459297Y-77394131D01*
X183293904Y-77146602D01*
X183083398Y-76936096D01*
X182920191Y-76827045D01*
X182987563Y-76617169D01*
X182120000Y-75749605D01*
X181252437Y-76617169D01*
X181319809Y-76827045D01*
X181156602Y-76936096D01*
X180946096Y-77146602D01*
X180780703Y-77394131D01*
X180666778Y-77669170D01*
X180608700Y-77961150D01*
X168385430Y-77961150D01*
X168354796Y-77747833D01*
X168255802Y-77467073D01*
X168178929Y-77323254D01*
X167927169Y-77242437D01*
X167059605Y-78110000D01*
X166700395Y-78110000D01*
X165832831Y-77242437D01*
X165581071Y-77323254D01*
X165452543Y-77591779D01*
X165378871Y-77880219D01*
X165362887Y-78177491D01*
X161777970Y-78177491D01*
X161670182Y-77917269D01*
X161463926Y-77608587D01*
X161201413Y-77346074D01*
X160892731Y-77139818D01*
X160549741Y-76997747D01*
X160185625Y-76925320D01*
X159814375Y-76925320D01*
X159450259Y-76997747D01*
X159107269Y-77139818D01*
X158798587Y-77346074D01*
X158536074Y-77608587D01*
X158329818Y-77917269D01*
X158187747Y-78260259D01*
X158115320Y-78624375D01*
X154811887Y-78624375D01*
X154670182Y-78282269D01*
X154463926Y-77973587D01*
X154366578Y-77876239D01*
X154374162Y-77875492D01*
X154493860Y-77839182D01*
X154604174Y-77780217D01*
X154700865Y-77700865D01*
X154780217Y-77604174D01*
X154839182Y-77493860D01*
X154875492Y-77374162D01*
X154887752Y-77249680D01*
X154884680Y-76285750D01*
X154848610Y-76249680D01*
X158112248Y-76249680D01*
X158124508Y-76374162D01*
X158160818Y-76493860D01*
X158219783Y-76604174D01*
X158299135Y-76700865D01*
X158395826Y-76780217D01*
X158506140Y-76839182D01*
X158625838Y-76875492D01*
X158750320Y-76887752D01*
X159714250Y-76884680D01*
X159873000Y-76725930D01*
X159873000Y-75127000D01*
X160127000Y-75127000D01*
X160127000Y-76725930D01*
X160285750Y-76884680D01*
X161249680Y-76887752D01*
X161374162Y-76875492D01*
X161493860Y-76839182D01*
X161604174Y-76780217D01*
X161700865Y-76700865D01*
X161780217Y-76604174D01*
X161839182Y-76493860D01*
X161875492Y-76374162D01*
X161887752Y-76249680D01*
X161884680Y-75285750D01*
X161725930Y-75127000D01*
X160127000Y-75127000D01*
X159873000Y-75127000D01*
X158274070Y-75127000D01*
X158115320Y-75285750D01*
X158112248Y-76249680D01*
X154848610Y-76249680D01*
X154725930Y-76127000D01*
X153127000Y-76127000D01*
X153127000Y-76147000D01*
X152873000Y-76147000D01*
X152873000Y-76127000D01*
X151274070Y-76127000D01*
X151115320Y-76285750D01*
X151112248Y-77249680D01*
X150660000Y-77249680D01*
X150660000Y-74750320D01*
X151112248Y-74750320D01*
X151115320Y-75714250D01*
X151274070Y-75873000D01*
X152873000Y-75873000D01*
X152873000Y-74274070D01*
X153127000Y-74274070D01*
X153127000Y-75873000D01*
X154725930Y-75873000D01*
X154884680Y-75714250D01*
X154887752Y-74750320D01*
X154875492Y-74625838D01*
X154839182Y-74506140D01*
X154780217Y-74395826D01*
X154700865Y-74299135D01*
X154604174Y-74219783D01*
X154493860Y-74160818D01*
X154374162Y-74124508D01*
X154249680Y-74112248D01*
X153285750Y-74115320D01*
X153127000Y-74274070D01*
X152873000Y-74274070D01*
X152714250Y-74115320D01*
X151750320Y-74112248D01*
X151625838Y-74124508D01*
X151506140Y-74160818D01*
X151395826Y-74219783D01*
X151299135Y-74299135D01*
X151219783Y-74395826D01*
X151160818Y-74506140D01*
X151124508Y-74625838D01*
X151112248Y-74750320D01*
X150660000Y-74750320D01*
X150660000Y-73750320D01*
X158112248Y-73750320D01*
X158115320Y-74714250D01*
X158274070Y-74873000D01*
X159873000Y-74873000D01*
X159873000Y-73274070D01*
X160127000Y-73274070D01*
X160127000Y-74873000D01*
X161725930Y-74873000D01*
X161884680Y-74714250D01*
X161887752Y-73750320D01*
X161875492Y-73625838D01*
X161839182Y-73506140D01*
X161780217Y-73395826D01*
X161700865Y-73299135D01*
X161604174Y-73219783D01*
X161493860Y-73160818D01*
X161374162Y-73124508D01*
X161249680Y-73112248D01*
X160285750Y-73115320D01*
X160127000Y-73274070D01*
X159873000Y-73274070D01*
X159714250Y-73115320D01*
X158750320Y-73112248D01*
X158625838Y-73124508D01*
X158506140Y-73160818D01*
X158395826Y-73219783D01*
X158299135Y-73299135D01*
X158219783Y-73395826D01*
X158160818Y-73506140D01*
X158124508Y-73625838D01*
X158112248Y-73750320D01*
X150660000Y-73750320D01*
X150660000Y-72153700D01*
X165365628Y-72153700D01*
X165365628Y-73906300D01*
X165377888Y-74030782D01*
X165414198Y-74150480D01*
X165473163Y-74260794D01*
X165552515Y-74357485D01*
X165649206Y-74436837D01*
X165759520Y-74495802D01*
X165803542Y-74509156D01*
X165706096Y-74606602D01*
X165540703Y-74854131D01*
X165426778Y-75129170D01*
X165368700Y-75421150D01*
X165368700Y-75718850D01*
X165426778Y-76010830D01*
X165540703Y-76285869D01*
X165706096Y-76533398D01*
X165916602Y-76743904D01*
X166079809Y-76852955D01*
X166012437Y-77062831D01*
X166880000Y-77930395D01*
X167747563Y-77062831D01*
X167680191Y-76852955D01*
X167843398Y-76743904D01*
X168053904Y-76533398D01*
X168219297Y-76285869D01*
X168333222Y-76010830D01*
X168391300Y-75718850D01*
X168391300Y-75637491D01*
X180602887Y-75637491D01*
X180645204Y-75932167D01*
X180744198Y-76212927D01*
X180821071Y-76356746D01*
X181072831Y-76437563D01*
X181940395Y-75570000D01*
X182299605Y-75570000D01*
X183167169Y-76437563D01*
X183418929Y-76356746D01*
X183547457Y-76088221D01*
X183621129Y-75799781D01*
X183637113Y-75502509D01*
X183594796Y-75207833D01*
X183495802Y-74927073D01*
X183418929Y-74783254D01*
X183167169Y-74702437D01*
X182299605Y-75570000D01*
X181940395Y-75570000D01*
X181072831Y-74702437D01*
X180821071Y-74783254D01*
X180692543Y-75051779D01*
X180618871Y-75340219D01*
X180602887Y-75637491D01*
X168391300Y-75637491D01*
X168391300Y-75421150D01*
X168333222Y-75129170D01*
X168219297Y-74854131D01*
X168053904Y-74606602D01*
X167956458Y-74509156D01*
X168000480Y-74495802D01*
X168110794Y-74436837D01*
X168207485Y-74357485D01*
X168286837Y-74260794D01*
X168345802Y-74150480D01*
X168382112Y-74030782D01*
X168394372Y-73906300D01*
X168394372Y-72881150D01*
X180608700Y-72881150D01*
X180608700Y-73178850D01*
X180666778Y-73470830D01*
X180780703Y-73745869D01*
X180946096Y-73993398D01*
X181156602Y-74203904D01*
X181319809Y-74312955D01*
X181252437Y-74522831D01*
X182120000Y-75390395D01*
X182987563Y-74522831D01*
X182920191Y-74312955D01*
X183083398Y-74203904D01*
X183293904Y-73993398D01*
X183459297Y-73745869D01*
X183573222Y-73470830D01*
X183631300Y-73178850D01*
X183631300Y-72881150D01*
X183573222Y-72589170D01*
X183459297Y-72314131D01*
X183293904Y-72066602D01*
X183083398Y-71856096D01*
X182835869Y-71690703D01*
X182560830Y-71576778D01*
X182268850Y-71518700D01*
X181971150Y-71518700D01*
X181679170Y-71576778D01*
X181404131Y-71690703D01*
X181156602Y-71856096D01*
X180946096Y-72066602D01*
X180780703Y-72314131D01*
X180666778Y-72589170D01*
X180608700Y-72881150D01*
X168394372Y-72881150D01*
X168394372Y-72153700D01*
X168382112Y-72029218D01*
X168345802Y-71909520D01*
X168286837Y-71799206D01*
X168207485Y-71702515D01*
X168110794Y-71623163D01*
X168000480Y-71564198D01*
X167880782Y-71527888D01*
X167756300Y-71515628D01*
X166003700Y-71515628D01*
X165879218Y-71527888D01*
X165759520Y-71564198D01*
X165649206Y-71623163D01*
X165552515Y-71702515D01*
X165473163Y-71799206D01*
X165414198Y-71909520D01*
X165377888Y-72029218D01*
X165365628Y-72153700D01*
X150660000Y-72153700D01*
X150660000Y-70660000D01*
X191340001Y-70660000D01*
X191340001Y-70967572D01*
M02*
