M48
INCH
T1C0.0394
T2C0.0430
%
G90
G05
T1
X6.2992Y-3.2677
X6.2992Y-3.4177
X6.2992Y-3.5827
X6.2992Y-3.7327
X7.4409Y-3.7854
X7.4409Y-3.9104
X7.4409Y-4.0354
X7.4409Y-2.9557
X7.4409Y-3.0807
X7.4409Y-3.2057
X6.0236Y-3.9346
X6.0236Y-4.0846
X7.2047Y-4.2913
X7.3297Y-4.2913
X7.4547Y-4.2913
X6.2992Y-2.9528
X6.2992Y-3.1028
X6.4469Y-4.2913
X7.4409Y-3.372
X7.4409Y-3.497
X7.4409Y-3.622
X6.0236Y-3.4646
X6.0236Y-3.5896
X6.0236Y-3.7146
X6.6929Y-4.2913
X6.8179Y-4.2913
X6.9429Y-4.2913
X6.2992Y-4.2913
X6.0236Y-2.9921
X6.0236Y-3.1171
X6.0236Y-3.2421
T2
X6.5701Y-2.8752
X6.5701Y-2.9752
X6.5701Y-3.0752
X6.5701Y-3.1752
X6.5701Y-3.2752
X6.5701Y-3.3752
X6.5701Y-3.4752
X6.5701Y-3.5752
X6.5701Y-3.6752
X6.5701Y-3.7752
X6.5701Y-3.8752
X6.5701Y-3.9752
X7.1701Y-2.8752
X7.1701Y-2.9752
X7.1701Y-3.0752
X7.1701Y-3.1752
X7.1701Y-3.2752
X7.1701Y-3.3752
X7.1701Y-3.4752
X7.1701Y-3.5752
X7.1701Y-3.6752
X7.1701Y-3.7752
X7.1701Y-3.8752
X7.1701Y-3.9752
T0
M30
