M48
INCH
T1C0.0394
T2C0.0430
%
G90
G05
T1
X6.3287Y-4.4783
X6.4787Y-4.4783
X6.2992Y-3.6122
X6.2992Y-3.7372
X6.2992Y-3.8622
X6.9488Y-4.2224
X7.4409Y-3.372
X7.4409Y-3.497
X7.4409Y-3.622
X6.2992Y-3.1398
X6.2992Y-3.2648
X6.2992Y-3.3898
X7.185Y-4.2323
X7.31Y-4.2323
X7.435Y-4.2323
X6.3051Y-4.2323
X6.4301Y-4.2323
X6.5551Y-4.2323
X6.6437Y-4.4783
X6.7937Y-4.4783
X6.9587Y-4.4783
X7.1087Y-4.4783
X6.7913Y-4.2224
X7.4409Y-2.9557
X7.4409Y-3.0807
X7.4409Y-3.2057
X7.2736Y-4.4783
X7.4236Y-4.4783
X7.4409Y-3.7854
X7.4409Y-3.9104
X7.4409Y-4.0354
T2
X6.5701Y-2.8752
X6.5701Y-2.9752
X6.5701Y-3.0752
X6.5701Y-3.1752
X6.5701Y-3.2752
X6.5701Y-3.3752
X6.5701Y-3.4752
X6.5701Y-3.5752
X6.5701Y-3.6752
X6.5701Y-3.7752
X6.5701Y-3.8752
X6.5701Y-3.9752
X7.1701Y-2.8752
X7.1701Y-2.9752
X7.1701Y-3.0752
X7.1701Y-3.1752
X7.1701Y-3.2752
X7.1701Y-3.3752
X7.1701Y-3.4752
X7.1701Y-3.5752
X7.1701Y-3.6752
X7.1701Y-3.7752
X7.1701Y-3.8752
X7.1701Y-3.9752
T0
M30
