G04 #@! TF.GenerationSoftware,KiCad,Pcbnew,(5.1.5-0-10_14)*
G04 #@! TF.CreationDate,2020-03-08T22:31:04+01:00*
G04 #@! TF.ProjectId,pro_micro_shield,70726f5f-6d69-4637-926f-5f736869656c,rev?*
G04 #@! TF.SameCoordinates,Original*
G04 #@! TF.FileFunction,Legend,Top*
G04 #@! TF.FilePolarity,Positive*
%FSLAX46Y46*%
G04 Gerber Fmt 4.6, Leading zero omitted, Abs format (unit mm)*
G04 Created by KiCad (PCBNEW (5.1.5-0-10_14)) date 2020-03-08 22:31:04*
%MOMM*%
%LPD*%
G04 APERTURE LIST*
%ADD10C,0.150000*%
%ADD11C,0.120000*%
%ADD12C,0.250000*%
%ADD13C,0.300000*%
%ADD14C,0.381000*%
G04 APERTURE END LIST*
D10*
X173490476Y-104073809D02*
X173414285Y-104111904D01*
X173261904Y-104111904D01*
X173185714Y-104073809D01*
X173147619Y-103997619D01*
X173147619Y-103692857D01*
X173185714Y-103616666D01*
X173261904Y-103578571D01*
X173414285Y-103578571D01*
X173490476Y-103616666D01*
X173528571Y-103692857D01*
X173528571Y-103769047D01*
X173147619Y-103845238D01*
X173795238Y-104111904D02*
X174214285Y-103578571D01*
X173795238Y-103578571D02*
X174214285Y-104111904D01*
X174404761Y-103578571D02*
X174709523Y-103578571D01*
X174519047Y-103311904D02*
X174519047Y-103997619D01*
X174557142Y-104073809D01*
X174633333Y-104111904D01*
X174709523Y-104111904D01*
X174976190Y-104111904D02*
X174976190Y-103578571D01*
X174976190Y-103730952D02*
X175014285Y-103654761D01*
X175052380Y-103616666D01*
X175128571Y-103578571D01*
X175204761Y-103578571D01*
X175814285Y-104111904D02*
X175814285Y-103692857D01*
X175776190Y-103616666D01*
X175700000Y-103578571D01*
X175547619Y-103578571D01*
X175471428Y-103616666D01*
X175814285Y-104073809D02*
X175738095Y-104111904D01*
X175547619Y-104111904D01*
X175471428Y-104073809D01*
X175433333Y-103997619D01*
X175433333Y-103921428D01*
X175471428Y-103845238D01*
X175547619Y-103807142D01*
X175738095Y-103807142D01*
X175814285Y-103769047D01*
D11*
X158750000Y-104500000D02*
X158750000Y-109000000D01*
X190250000Y-104500000D02*
X158750000Y-104500000D01*
X190250000Y-109000000D02*
X190250000Y-104500000D01*
X158750000Y-109000000D02*
X190250000Y-109000000D01*
D12*
X184226190Y-104900000D02*
X184035714Y-104842857D01*
X183750000Y-104842857D01*
X183464285Y-104900000D01*
X183273809Y-105014285D01*
X183178571Y-105128571D01*
X183083333Y-105357142D01*
X183083333Y-105528571D01*
X183178571Y-105757142D01*
X183273809Y-105871428D01*
X183464285Y-105985714D01*
X183750000Y-106042857D01*
X183940476Y-106042857D01*
X184226190Y-105985714D01*
X184321428Y-105928571D01*
X184321428Y-105528571D01*
X183940476Y-105528571D01*
X185178571Y-106042857D02*
X185178571Y-104842857D01*
X186321428Y-106042857D01*
X186321428Y-104842857D01*
X187273809Y-106042857D02*
X187273809Y-104842857D01*
X187750000Y-104842857D01*
X188035714Y-104900000D01*
X188226190Y-105014285D01*
X188321428Y-105128571D01*
X188416666Y-105357142D01*
X188416666Y-105528571D01*
X188321428Y-105757142D01*
X188226190Y-105871428D01*
X188035714Y-105985714D01*
X187750000Y-106042857D01*
X187273809Y-106042857D01*
D13*
X175245238Y-77083333D02*
X177245238Y-77083333D01*
X175816666Y-77750000D01*
X177245238Y-78416666D01*
X175245238Y-78416666D01*
X175245238Y-79369047D02*
X176578571Y-79369047D01*
X177245238Y-79369047D02*
X177150000Y-79273809D01*
X177054761Y-79369047D01*
X177150000Y-79464285D01*
X177245238Y-79369047D01*
X177054761Y-79369047D01*
X176578571Y-80321428D02*
X175245238Y-80321428D01*
X176388095Y-80321428D02*
X176483333Y-80416666D01*
X176578571Y-80607142D01*
X176578571Y-80892857D01*
X176483333Y-81083333D01*
X176292857Y-81178571D01*
X175245238Y-81178571D01*
X175245238Y-82130952D02*
X176578571Y-82130952D01*
X177245238Y-82130952D02*
X177150000Y-82035714D01*
X177054761Y-82130952D01*
X177150000Y-82226190D01*
X177245238Y-82130952D01*
X177054761Y-82130952D01*
X176578571Y-83940476D02*
X175245238Y-83940476D01*
X177340476Y-83464285D02*
X175911904Y-82988095D01*
X175911904Y-84226190D01*
X176578571Y-84797619D02*
X175245238Y-85178571D01*
X176197619Y-85559523D01*
X175245238Y-85940476D01*
X176578571Y-86321428D01*
X175245238Y-87940476D02*
X177245238Y-87940476D01*
X175340476Y-87940476D02*
X175245238Y-87750000D01*
X175245238Y-87369047D01*
X175340476Y-87178571D01*
X175435714Y-87083333D01*
X175626190Y-86988095D01*
X176197619Y-86988095D01*
X176388095Y-87083333D01*
X176483333Y-87178571D01*
X176578571Y-87369047D01*
X176578571Y-87750000D01*
X176483333Y-87940476D01*
X175435714Y-90035714D02*
X175340476Y-89940476D01*
X175245238Y-89654761D01*
X175245238Y-89464285D01*
X175340476Y-89178571D01*
X175530952Y-88988095D01*
X175721428Y-88892857D01*
X176102380Y-88797619D01*
X176388095Y-88797619D01*
X176769047Y-88892857D01*
X176959523Y-88988095D01*
X177150000Y-89178571D01*
X177245238Y-89464285D01*
X177245238Y-89654761D01*
X177150000Y-89940476D01*
X177054761Y-90035714D01*
X175245238Y-90892857D02*
X177245238Y-90892857D01*
X175245238Y-91750000D02*
X176292857Y-91750000D01*
X176483333Y-91654761D01*
X176578571Y-91464285D01*
X176578571Y-91178571D01*
X176483333Y-90988095D01*
X176388095Y-90892857D01*
X175245238Y-92702380D02*
X176578571Y-92702380D01*
X176197619Y-92702380D02*
X176388095Y-92797619D01*
X176483333Y-92892857D01*
X176578571Y-93083333D01*
X176578571Y-93273809D01*
X175245238Y-94226190D02*
X175340476Y-94035714D01*
X175435714Y-93940476D01*
X175626190Y-93845238D01*
X176197619Y-93845238D01*
X176388095Y-93940476D01*
X176483333Y-94035714D01*
X176578571Y-94226190D01*
X176578571Y-94511904D01*
X176483333Y-94702380D01*
X176388095Y-94797619D01*
X176197619Y-94892857D01*
X175626190Y-94892857D01*
X175435714Y-94797619D01*
X175340476Y-94702380D01*
X175245238Y-94511904D01*
X175245238Y-94226190D01*
X176578571Y-95750000D02*
X175245238Y-95750000D01*
X176388095Y-95750000D02*
X176483333Y-95845238D01*
X176578571Y-96035714D01*
X176578571Y-96321428D01*
X176483333Y-96511904D01*
X176292857Y-96607142D01*
X175245238Y-96607142D01*
X175245238Y-97845238D02*
X175340476Y-97654761D01*
X175435714Y-97559523D01*
X175626190Y-97464285D01*
X176197619Y-97464285D01*
X176388095Y-97559523D01*
X176483333Y-97654761D01*
X176578571Y-97845238D01*
X176578571Y-98130952D01*
X176483333Y-98321428D01*
X176388095Y-98416666D01*
X176197619Y-98511904D01*
X175626190Y-98511904D01*
X175435714Y-98416666D01*
X175340476Y-98321428D01*
X175245238Y-98130952D01*
X175245238Y-97845238D01*
X172040476Y-78702380D02*
X171945238Y-78988095D01*
X171945238Y-79464285D01*
X172040476Y-79654761D01*
X172135714Y-79750000D01*
X172326190Y-79845238D01*
X172516666Y-79845238D01*
X172707142Y-79750000D01*
X172802380Y-79654761D01*
X172897619Y-79464285D01*
X172992857Y-79083333D01*
X173088095Y-78892857D01*
X173183333Y-78797619D01*
X173373809Y-78702380D01*
X173564285Y-78702380D01*
X173754761Y-78797619D01*
X173850000Y-78892857D01*
X173945238Y-79083333D01*
X173945238Y-79559523D01*
X173850000Y-79845238D01*
X171945238Y-80702380D02*
X173945238Y-80702380D01*
X171945238Y-81559523D02*
X172992857Y-81559523D01*
X173183333Y-81464285D01*
X173278571Y-81273809D01*
X173278571Y-80988095D01*
X173183333Y-80797619D01*
X173088095Y-80702380D01*
X171945238Y-82511904D02*
X173278571Y-82511904D01*
X173945238Y-82511904D02*
X173850000Y-82416666D01*
X173754761Y-82511904D01*
X173850000Y-82607142D01*
X173945238Y-82511904D01*
X173754761Y-82511904D01*
X172040476Y-84226190D02*
X171945238Y-84035714D01*
X171945238Y-83654761D01*
X172040476Y-83464285D01*
X172230952Y-83369047D01*
X172992857Y-83369047D01*
X173183333Y-83464285D01*
X173278571Y-83654761D01*
X173278571Y-84035714D01*
X173183333Y-84226190D01*
X172992857Y-84321428D01*
X172802380Y-84321428D01*
X172611904Y-83369047D01*
X171945238Y-85464285D02*
X172040476Y-85273809D01*
X172230952Y-85178571D01*
X173945238Y-85178571D01*
X171945238Y-87083333D02*
X173945238Y-87083333D01*
X172040476Y-87083333D02*
X171945238Y-86892857D01*
X171945238Y-86511904D01*
X172040476Y-86321428D01*
X172135714Y-86226190D01*
X172326190Y-86130952D01*
X172897619Y-86130952D01*
X173088095Y-86226190D01*
X173183333Y-86321428D01*
X173278571Y-86511904D01*
X173278571Y-86892857D01*
X173183333Y-87083333D01*
X171945238Y-90702380D02*
X172897619Y-90035714D01*
X171945238Y-89559523D02*
X173945238Y-89559523D01*
X173945238Y-90321428D01*
X173850000Y-90511904D01*
X173754761Y-90607142D01*
X173564285Y-90702380D01*
X173278571Y-90702380D01*
X173088095Y-90607142D01*
X172992857Y-90511904D01*
X172897619Y-90321428D01*
X172897619Y-89559523D01*
X172040476Y-92321428D02*
X171945238Y-92130952D01*
X171945238Y-91750000D01*
X172040476Y-91559523D01*
X172230952Y-91464285D01*
X172992857Y-91464285D01*
X173183333Y-91559523D01*
X173278571Y-91750000D01*
X173278571Y-92130952D01*
X173183333Y-92321428D01*
X172992857Y-92416666D01*
X172802380Y-92416666D01*
X172611904Y-91464285D01*
X173278571Y-93083333D02*
X171945238Y-93559523D01*
X173278571Y-94035714D01*
X172135714Y-94797619D02*
X172040476Y-94892857D01*
X171945238Y-94797619D01*
X172040476Y-94702380D01*
X172135714Y-94797619D01*
X171945238Y-94797619D01*
X171945238Y-96797619D02*
X171945238Y-95654761D01*
X171945238Y-96226190D02*
X173945238Y-96226190D01*
X173659523Y-96035714D01*
X173469047Y-95845238D01*
X173373809Y-95654761D01*
D10*
X185904761Y-103119047D02*
X185952380Y-102976190D01*
X185952380Y-102738095D01*
X185904761Y-102642857D01*
X185857142Y-102595238D01*
X185761904Y-102547619D01*
X185666666Y-102547619D01*
X185571428Y-102595238D01*
X185523809Y-102642857D01*
X185476190Y-102738095D01*
X185428571Y-102928571D01*
X185380952Y-103023809D01*
X185333333Y-103071428D01*
X185238095Y-103119047D01*
X185142857Y-103119047D01*
X185047619Y-103071428D01*
X185000000Y-103023809D01*
X184952380Y-102928571D01*
X184952380Y-102690476D01*
X185000000Y-102547619D01*
X185428571Y-102119047D02*
X185428571Y-101785714D01*
X185952380Y-101642857D02*
X185952380Y-102119047D01*
X184952380Y-102119047D01*
X184952380Y-101642857D01*
X185952380Y-101214285D02*
X184952380Y-101214285D01*
X185952380Y-100642857D01*
X184952380Y-100642857D01*
X185904761Y-100214285D02*
X185952380Y-100071428D01*
X185952380Y-99833333D01*
X185904761Y-99738095D01*
X185857142Y-99690476D01*
X185761904Y-99642857D01*
X185666666Y-99642857D01*
X185571428Y-99690476D01*
X185523809Y-99738095D01*
X185476190Y-99833333D01*
X185428571Y-100023809D01*
X185380952Y-100119047D01*
X185333333Y-100166666D01*
X185238095Y-100214285D01*
X185142857Y-100214285D01*
X185047619Y-100166666D01*
X185000000Y-100119047D01*
X184952380Y-100023809D01*
X184952380Y-99785714D01*
X185000000Y-99642857D01*
X184952380Y-99023809D02*
X184952380Y-98833333D01*
X185000000Y-98738095D01*
X185095238Y-98642857D01*
X185285714Y-98595238D01*
X185619047Y-98595238D01*
X185809523Y-98642857D01*
X185904761Y-98738095D01*
X185952380Y-98833333D01*
X185952380Y-99023809D01*
X185904761Y-99119047D01*
X185809523Y-99214285D01*
X185619047Y-99261904D01*
X185285714Y-99261904D01*
X185095238Y-99214285D01*
X185000000Y-99119047D01*
X184952380Y-99023809D01*
X185952380Y-97595238D02*
X185476190Y-97928571D01*
X185952380Y-98166666D02*
X184952380Y-98166666D01*
X184952380Y-97785714D01*
X185000000Y-97690476D01*
X185047619Y-97642857D01*
X185142857Y-97595238D01*
X185285714Y-97595238D01*
X185380952Y-97642857D01*
X185428571Y-97690476D01*
X185476190Y-97785714D01*
X185476190Y-98166666D01*
X184952380Y-96500000D02*
X184952380Y-95880952D01*
X185333333Y-96214285D01*
X185333333Y-96071428D01*
X185380952Y-95976190D01*
X185428571Y-95928571D01*
X185523809Y-95880952D01*
X185761904Y-95880952D01*
X185857142Y-95928571D01*
X185904761Y-95976190D01*
X185952380Y-96071428D01*
X185952380Y-96357142D01*
X185904761Y-96452380D01*
X185857142Y-96500000D01*
X185904761Y-92619047D02*
X185952380Y-92476190D01*
X185952380Y-92238095D01*
X185904761Y-92142857D01*
X185857142Y-92095238D01*
X185761904Y-92047619D01*
X185666666Y-92047619D01*
X185571428Y-92095238D01*
X185523809Y-92142857D01*
X185476190Y-92238095D01*
X185428571Y-92428571D01*
X185380952Y-92523809D01*
X185333333Y-92571428D01*
X185238095Y-92619047D01*
X185142857Y-92619047D01*
X185047619Y-92571428D01*
X185000000Y-92523809D01*
X184952380Y-92428571D01*
X184952380Y-92190476D01*
X185000000Y-92047619D01*
X185428571Y-91619047D02*
X185428571Y-91285714D01*
X185952380Y-91142857D02*
X185952380Y-91619047D01*
X184952380Y-91619047D01*
X184952380Y-91142857D01*
X185952380Y-90714285D02*
X184952380Y-90714285D01*
X185952380Y-90142857D01*
X184952380Y-90142857D01*
X185904761Y-89714285D02*
X185952380Y-89571428D01*
X185952380Y-89333333D01*
X185904761Y-89238095D01*
X185857142Y-89190476D01*
X185761904Y-89142857D01*
X185666666Y-89142857D01*
X185571428Y-89190476D01*
X185523809Y-89238095D01*
X185476190Y-89333333D01*
X185428571Y-89523809D01*
X185380952Y-89619047D01*
X185333333Y-89666666D01*
X185238095Y-89714285D01*
X185142857Y-89714285D01*
X185047619Y-89666666D01*
X185000000Y-89619047D01*
X184952380Y-89523809D01*
X184952380Y-89285714D01*
X185000000Y-89142857D01*
X184952380Y-88523809D02*
X184952380Y-88333333D01*
X185000000Y-88238095D01*
X185095238Y-88142857D01*
X185285714Y-88095238D01*
X185619047Y-88095238D01*
X185809523Y-88142857D01*
X185904761Y-88238095D01*
X185952380Y-88333333D01*
X185952380Y-88523809D01*
X185904761Y-88619047D01*
X185809523Y-88714285D01*
X185619047Y-88761904D01*
X185285714Y-88761904D01*
X185095238Y-88714285D01*
X185000000Y-88619047D01*
X184952380Y-88523809D01*
X185952380Y-87095238D02*
X185476190Y-87428571D01*
X185952380Y-87666666D02*
X184952380Y-87666666D01*
X184952380Y-87285714D01*
X185000000Y-87190476D01*
X185047619Y-87142857D01*
X185142857Y-87095238D01*
X185285714Y-87095238D01*
X185380952Y-87142857D01*
X185428571Y-87190476D01*
X185476190Y-87285714D01*
X185476190Y-87666666D01*
X185047619Y-85952380D02*
X185000000Y-85904761D01*
X184952380Y-85809523D01*
X184952380Y-85571428D01*
X185000000Y-85476190D01*
X185047619Y-85428571D01*
X185142857Y-85380952D01*
X185238095Y-85380952D01*
X185380952Y-85428571D01*
X185952380Y-86000000D01*
X185952380Y-85380952D01*
X185904761Y-82119047D02*
X185952380Y-81976190D01*
X185952380Y-81738095D01*
X185904761Y-81642857D01*
X185857142Y-81595238D01*
X185761904Y-81547619D01*
X185666666Y-81547619D01*
X185571428Y-81595238D01*
X185523809Y-81642857D01*
X185476190Y-81738095D01*
X185428571Y-81928571D01*
X185380952Y-82023809D01*
X185333333Y-82071428D01*
X185238095Y-82119047D01*
X185142857Y-82119047D01*
X185047619Y-82071428D01*
X185000000Y-82023809D01*
X184952380Y-81928571D01*
X184952380Y-81690476D01*
X185000000Y-81547619D01*
X185428571Y-81119047D02*
X185428571Y-80785714D01*
X185952380Y-80642857D02*
X185952380Y-81119047D01*
X184952380Y-81119047D01*
X184952380Y-80642857D01*
X185952380Y-80214285D02*
X184952380Y-80214285D01*
X185952380Y-79642857D01*
X184952380Y-79642857D01*
X185904761Y-79214285D02*
X185952380Y-79071428D01*
X185952380Y-78833333D01*
X185904761Y-78738095D01*
X185857142Y-78690476D01*
X185761904Y-78642857D01*
X185666666Y-78642857D01*
X185571428Y-78690476D01*
X185523809Y-78738095D01*
X185476190Y-78833333D01*
X185428571Y-79023809D01*
X185380952Y-79119047D01*
X185333333Y-79166666D01*
X185238095Y-79214285D01*
X185142857Y-79214285D01*
X185047619Y-79166666D01*
X185000000Y-79119047D01*
X184952380Y-79023809D01*
X184952380Y-78785714D01*
X185000000Y-78642857D01*
X184952380Y-78023809D02*
X184952380Y-77833333D01*
X185000000Y-77738095D01*
X185095238Y-77642857D01*
X185285714Y-77595238D01*
X185619047Y-77595238D01*
X185809523Y-77642857D01*
X185904761Y-77738095D01*
X185952380Y-77833333D01*
X185952380Y-78023809D01*
X185904761Y-78119047D01*
X185809523Y-78214285D01*
X185619047Y-78261904D01*
X185285714Y-78261904D01*
X185095238Y-78214285D01*
X185000000Y-78119047D01*
X184952380Y-78023809D01*
X185952380Y-76595238D02*
X185476190Y-76928571D01*
X185952380Y-77166666D02*
X184952380Y-77166666D01*
X184952380Y-76785714D01*
X185000000Y-76690476D01*
X185047619Y-76642857D01*
X185142857Y-76595238D01*
X185285714Y-76595238D01*
X185380952Y-76642857D01*
X185428571Y-76690476D01*
X185476190Y-76785714D01*
X185476190Y-77166666D01*
X185952380Y-74880952D02*
X185952380Y-75452380D01*
X185952380Y-75166666D02*
X184952380Y-75166666D01*
X185095238Y-75261904D01*
X185190476Y-75357142D01*
X185238095Y-75452380D01*
X185000000Y-110702380D02*
X184523809Y-110702380D01*
X184523809Y-109702380D01*
X185333333Y-110178571D02*
X185666666Y-110178571D01*
X185809523Y-110702380D02*
X185333333Y-110702380D01*
X185333333Y-109702380D01*
X185809523Y-109702380D01*
X186238095Y-110702380D02*
X186238095Y-109702380D01*
X186476190Y-109702380D01*
X186619047Y-109750000D01*
X186714285Y-109845238D01*
X186761904Y-109940476D01*
X186809523Y-110130952D01*
X186809523Y-110273809D01*
X186761904Y-110464285D01*
X186714285Y-110559523D01*
X186619047Y-110654761D01*
X186476190Y-110702380D01*
X186238095Y-110702380D01*
X187904761Y-109702380D02*
X188523809Y-109702380D01*
X188190476Y-110083333D01*
X188333333Y-110083333D01*
X188428571Y-110130952D01*
X188476190Y-110178571D01*
X188523809Y-110273809D01*
X188523809Y-110511904D01*
X188476190Y-110607142D01*
X188428571Y-110654761D01*
X188333333Y-110702380D01*
X188047619Y-110702380D01*
X187952380Y-110654761D01*
X187904761Y-110607142D01*
X177000000Y-110702380D02*
X176523809Y-110702380D01*
X176523809Y-109702380D01*
X177333333Y-110178571D02*
X177666666Y-110178571D01*
X177809523Y-110702380D02*
X177333333Y-110702380D01*
X177333333Y-109702380D01*
X177809523Y-109702380D01*
X178238095Y-110702380D02*
X178238095Y-109702380D01*
X178476190Y-109702380D01*
X178619047Y-109750000D01*
X178714285Y-109845238D01*
X178761904Y-109940476D01*
X178809523Y-110130952D01*
X178809523Y-110273809D01*
X178761904Y-110464285D01*
X178714285Y-110559523D01*
X178619047Y-110654761D01*
X178476190Y-110702380D01*
X178238095Y-110702380D01*
X179952380Y-109797619D02*
X180000000Y-109750000D01*
X180095238Y-109702380D01*
X180333333Y-109702380D01*
X180428571Y-109750000D01*
X180476190Y-109797619D01*
X180523809Y-109892857D01*
X180523809Y-109988095D01*
X180476190Y-110130952D01*
X179904761Y-110702380D01*
X180523809Y-110702380D01*
X169000000Y-110702380D02*
X168523809Y-110702380D01*
X168523809Y-109702380D01*
X169333333Y-110178571D02*
X169666666Y-110178571D01*
X169809523Y-110702380D02*
X169333333Y-110702380D01*
X169333333Y-109702380D01*
X169809523Y-109702380D01*
X170238095Y-110702380D02*
X170238095Y-109702380D01*
X170476190Y-109702380D01*
X170619047Y-109750000D01*
X170714285Y-109845238D01*
X170761904Y-109940476D01*
X170809523Y-110130952D01*
X170809523Y-110273809D01*
X170761904Y-110464285D01*
X170714285Y-110559523D01*
X170619047Y-110654761D01*
X170476190Y-110702380D01*
X170238095Y-110702380D01*
X172523809Y-110702380D02*
X171952380Y-110702380D01*
X172238095Y-110702380D02*
X172238095Y-109702380D01*
X172142857Y-109845238D01*
X172047619Y-109940476D01*
X171952380Y-109988095D01*
X163047619Y-90976190D02*
X163523809Y-90642857D01*
X163047619Y-90404761D02*
X164047619Y-90404761D01*
X164047619Y-90785714D01*
X164000000Y-90880952D01*
X163952380Y-90928571D01*
X163857142Y-90976190D01*
X163714285Y-90976190D01*
X163619047Y-90928571D01*
X163571428Y-90880952D01*
X163523809Y-90785714D01*
X163523809Y-90404761D01*
X164000000Y-91928571D02*
X164047619Y-91833333D01*
X164047619Y-91690476D01*
X164000000Y-91547619D01*
X163904761Y-91452380D01*
X163809523Y-91404761D01*
X163619047Y-91357142D01*
X163476190Y-91357142D01*
X163285714Y-91404761D01*
X163190476Y-91452380D01*
X163095238Y-91547619D01*
X163047619Y-91690476D01*
X163047619Y-91785714D01*
X163095238Y-91928571D01*
X163142857Y-91976190D01*
X163476190Y-91976190D01*
X163476190Y-91785714D01*
X163571428Y-92738095D02*
X163523809Y-92880952D01*
X163476190Y-92928571D01*
X163380952Y-92976190D01*
X163238095Y-92976190D01*
X163142857Y-92928571D01*
X163095238Y-92880952D01*
X163047619Y-92785714D01*
X163047619Y-92404761D01*
X164047619Y-92404761D01*
X164047619Y-92738095D01*
X164000000Y-92833333D01*
X163952380Y-92880952D01*
X163857142Y-92928571D01*
X163761904Y-92928571D01*
X163666666Y-92880952D01*
X163619047Y-92833333D01*
X163571428Y-92738095D01*
X163571428Y-92404761D01*
X163095238Y-94119047D02*
X163047619Y-94261904D01*
X163047619Y-94500000D01*
X163095238Y-94595238D01*
X163142857Y-94642857D01*
X163238095Y-94690476D01*
X163333333Y-94690476D01*
X163428571Y-94642857D01*
X163476190Y-94595238D01*
X163523809Y-94500000D01*
X163571428Y-94309523D01*
X163619047Y-94214285D01*
X163666666Y-94166666D01*
X163761904Y-94119047D01*
X163857142Y-94119047D01*
X163952380Y-94166666D01*
X164000000Y-94214285D01*
X164047619Y-94309523D01*
X164047619Y-94547619D01*
X164000000Y-94690476D01*
X164047619Y-94976190D02*
X164047619Y-95547619D01*
X163047619Y-95261904D02*
X164047619Y-95261904D01*
X163047619Y-96452380D02*
X163523809Y-96119047D01*
X163047619Y-95880952D02*
X164047619Y-95880952D01*
X164047619Y-96261904D01*
X164000000Y-96357142D01*
X163952380Y-96404761D01*
X163857142Y-96452380D01*
X163714285Y-96452380D01*
X163619047Y-96404761D01*
X163571428Y-96357142D01*
X163523809Y-96261904D01*
X163523809Y-95880952D01*
X163047619Y-96880952D02*
X164047619Y-96880952D01*
X163047619Y-97357142D02*
X164047619Y-97357142D01*
X164047619Y-97738095D01*
X164000000Y-97833333D01*
X163952380Y-97880952D01*
X163857142Y-97928571D01*
X163714285Y-97928571D01*
X163619047Y-97880952D01*
X163571428Y-97833333D01*
X163523809Y-97738095D01*
X163523809Y-97357142D01*
X163952380Y-99071428D02*
X164000000Y-99119047D01*
X164047619Y-99214285D01*
X164047619Y-99452380D01*
X164000000Y-99547619D01*
X163952380Y-99595238D01*
X163857142Y-99642857D01*
X163761904Y-99642857D01*
X163619047Y-99595238D01*
X163047619Y-99023809D01*
X163047619Y-99642857D01*
X163047619Y-78976190D02*
X163523809Y-78642857D01*
X163047619Y-78404761D02*
X164047619Y-78404761D01*
X164047619Y-78785714D01*
X164000000Y-78880952D01*
X163952380Y-78928571D01*
X163857142Y-78976190D01*
X163714285Y-78976190D01*
X163619047Y-78928571D01*
X163571428Y-78880952D01*
X163523809Y-78785714D01*
X163523809Y-78404761D01*
X164000000Y-79928571D02*
X164047619Y-79833333D01*
X164047619Y-79690476D01*
X164000000Y-79547619D01*
X163904761Y-79452380D01*
X163809523Y-79404761D01*
X163619047Y-79357142D01*
X163476190Y-79357142D01*
X163285714Y-79404761D01*
X163190476Y-79452380D01*
X163095238Y-79547619D01*
X163047619Y-79690476D01*
X163047619Y-79785714D01*
X163095238Y-79928571D01*
X163142857Y-79976190D01*
X163476190Y-79976190D01*
X163476190Y-79785714D01*
X163571428Y-80738095D02*
X163523809Y-80880952D01*
X163476190Y-80928571D01*
X163380952Y-80976190D01*
X163238095Y-80976190D01*
X163142857Y-80928571D01*
X163095238Y-80880952D01*
X163047619Y-80785714D01*
X163047619Y-80404761D01*
X164047619Y-80404761D01*
X164047619Y-80738095D01*
X164000000Y-80833333D01*
X163952380Y-80880952D01*
X163857142Y-80928571D01*
X163761904Y-80928571D01*
X163666666Y-80880952D01*
X163619047Y-80833333D01*
X163571428Y-80738095D01*
X163571428Y-80404761D01*
X163095238Y-82119047D02*
X163047619Y-82261904D01*
X163047619Y-82500000D01*
X163095238Y-82595238D01*
X163142857Y-82642857D01*
X163238095Y-82690476D01*
X163333333Y-82690476D01*
X163428571Y-82642857D01*
X163476190Y-82595238D01*
X163523809Y-82500000D01*
X163571428Y-82309523D01*
X163619047Y-82214285D01*
X163666666Y-82166666D01*
X163761904Y-82119047D01*
X163857142Y-82119047D01*
X163952380Y-82166666D01*
X164000000Y-82214285D01*
X164047619Y-82309523D01*
X164047619Y-82547619D01*
X164000000Y-82690476D01*
X164047619Y-82976190D02*
X164047619Y-83547619D01*
X163047619Y-83261904D02*
X164047619Y-83261904D01*
X163047619Y-84452380D02*
X163523809Y-84119047D01*
X163047619Y-83880952D02*
X164047619Y-83880952D01*
X164047619Y-84261904D01*
X164000000Y-84357142D01*
X163952380Y-84404761D01*
X163857142Y-84452380D01*
X163714285Y-84452380D01*
X163619047Y-84404761D01*
X163571428Y-84357142D01*
X163523809Y-84261904D01*
X163523809Y-83880952D01*
X163047619Y-84880952D02*
X164047619Y-84880952D01*
X163047619Y-85357142D02*
X164047619Y-85357142D01*
X164047619Y-85738095D01*
X164000000Y-85833333D01*
X163952380Y-85880952D01*
X163857142Y-85928571D01*
X163714285Y-85928571D01*
X163619047Y-85880952D01*
X163571428Y-85833333D01*
X163523809Y-85738095D01*
X163523809Y-85357142D01*
X163047619Y-87642857D02*
X163047619Y-87071428D01*
X163047619Y-87357142D02*
X164047619Y-87357142D01*
X163904761Y-87261904D01*
X163809523Y-87166666D01*
X163761904Y-87071428D01*
X159380952Y-110654761D02*
X159523809Y-110702380D01*
X159761904Y-110702380D01*
X159857142Y-110654761D01*
X159904761Y-110607142D01*
X159952380Y-110511904D01*
X159952380Y-110416666D01*
X159904761Y-110321428D01*
X159857142Y-110273809D01*
X159761904Y-110226190D01*
X159571428Y-110178571D01*
X159476190Y-110130952D01*
X159428571Y-110083333D01*
X159380952Y-109988095D01*
X159380952Y-109892857D01*
X159428571Y-109797619D01*
X159476190Y-109750000D01*
X159571428Y-109702380D01*
X159809523Y-109702380D01*
X159952380Y-109750000D01*
X160380952Y-110702380D02*
X160380952Y-109702380D01*
X160761904Y-109702380D01*
X160857142Y-109750000D01*
X160904761Y-109797619D01*
X160952380Y-109892857D01*
X160952380Y-110035714D01*
X160904761Y-110130952D01*
X160857142Y-110178571D01*
X160761904Y-110226190D01*
X160380952Y-110226190D01*
X161380952Y-110178571D02*
X161714285Y-110178571D01*
X161857142Y-110702380D02*
X161380952Y-110702380D01*
X161380952Y-109702380D01*
X161857142Y-109702380D01*
X162238095Y-110416666D02*
X162714285Y-110416666D01*
X162142857Y-110702380D02*
X162476190Y-109702380D01*
X162809523Y-110702380D01*
X163142857Y-110702380D02*
X163142857Y-109702380D01*
X163714285Y-110702380D02*
X163285714Y-110130952D01*
X163714285Y-109702380D02*
X163142857Y-110273809D01*
X164142857Y-110178571D02*
X164476190Y-110178571D01*
X164619047Y-110702380D02*
X164142857Y-110702380D01*
X164142857Y-109702380D01*
X164619047Y-109702380D01*
X165619047Y-110702380D02*
X165285714Y-110226190D01*
X165047619Y-110702380D02*
X165047619Y-109702380D01*
X165428571Y-109702380D01*
X165523809Y-109750000D01*
X165571428Y-109797619D01*
X165619047Y-109892857D01*
X165619047Y-110035714D01*
X165571428Y-110130952D01*
X165523809Y-110178571D01*
X165428571Y-110226190D01*
X165047619Y-110226190D01*
X187452380Y-96988095D02*
X186452380Y-96988095D01*
X186452380Y-96750000D01*
X186500000Y-96607142D01*
X186595238Y-96511904D01*
X186690476Y-96464285D01*
X186880952Y-96416666D01*
X187023809Y-96416666D01*
X187214285Y-96464285D01*
X187309523Y-96511904D01*
X187404761Y-96607142D01*
X187452380Y-96750000D01*
X187452380Y-96988095D01*
X186880952Y-95845238D02*
X186833333Y-95940476D01*
X186785714Y-95988095D01*
X186690476Y-96035714D01*
X186642857Y-96035714D01*
X186547619Y-95988095D01*
X186500000Y-95940476D01*
X186452380Y-95845238D01*
X186452380Y-95654761D01*
X186500000Y-95559523D01*
X186547619Y-95511904D01*
X186642857Y-95464285D01*
X186690476Y-95464285D01*
X186785714Y-95511904D01*
X186833333Y-95559523D01*
X186880952Y-95654761D01*
X186880952Y-95845238D01*
X186928571Y-95940476D01*
X186976190Y-95988095D01*
X187071428Y-96035714D01*
X187261904Y-96035714D01*
X187357142Y-95988095D01*
X187404761Y-95940476D01*
X187452380Y-95845238D01*
X187452380Y-95654761D01*
X187404761Y-95559523D01*
X187357142Y-95511904D01*
X187261904Y-95464285D01*
X187071428Y-95464285D01*
X186976190Y-95511904D01*
X186928571Y-95559523D01*
X186880952Y-95654761D01*
X187452380Y-86238095D02*
X186452380Y-86238095D01*
X186452380Y-86000000D01*
X186500000Y-85857142D01*
X186595238Y-85761904D01*
X186690476Y-85714285D01*
X186880952Y-85666666D01*
X187023809Y-85666666D01*
X187214285Y-85714285D01*
X187309523Y-85761904D01*
X187404761Y-85857142D01*
X187452380Y-86000000D01*
X187452380Y-86238095D01*
X186452380Y-85333333D02*
X186452380Y-84666666D01*
X187452380Y-85095238D01*
X187452380Y-75738095D02*
X186452380Y-75738095D01*
X186452380Y-75500000D01*
X186500000Y-75357142D01*
X186595238Y-75261904D01*
X186690476Y-75214285D01*
X186880952Y-75166666D01*
X187023809Y-75166666D01*
X187214285Y-75214285D01*
X187309523Y-75261904D01*
X187404761Y-75357142D01*
X187452380Y-75500000D01*
X187452380Y-75738095D01*
X186452380Y-74309523D02*
X186452380Y-74500000D01*
X186500000Y-74595238D01*
X186547619Y-74642857D01*
X186690476Y-74738095D01*
X186880952Y-74785714D01*
X187261904Y-74785714D01*
X187357142Y-74738095D01*
X187404761Y-74690476D01*
X187452380Y-74595238D01*
X187452380Y-74404761D01*
X187404761Y-74309523D01*
X187357142Y-74261904D01*
X187261904Y-74214285D01*
X187023809Y-74214285D01*
X186928571Y-74261904D01*
X186880952Y-74309523D01*
X186833333Y-74404761D01*
X186833333Y-74595238D01*
X186880952Y-74690476D01*
X186928571Y-74738095D01*
X187023809Y-74785714D01*
X187761904Y-112202380D02*
X187761904Y-111202380D01*
X188000000Y-111202380D01*
X188142857Y-111250000D01*
X188238095Y-111345238D01*
X188285714Y-111440476D01*
X188333333Y-111630952D01*
X188333333Y-111773809D01*
X188285714Y-111964285D01*
X188238095Y-112059523D01*
X188142857Y-112154761D01*
X188000000Y-112202380D01*
X187761904Y-112202380D01*
X189238095Y-111202380D02*
X188761904Y-111202380D01*
X188714285Y-111678571D01*
X188761904Y-111630952D01*
X188857142Y-111583333D01*
X189095238Y-111583333D01*
X189190476Y-111630952D01*
X189238095Y-111678571D01*
X189285714Y-111773809D01*
X189285714Y-112011904D01*
X189238095Y-112107142D01*
X189190476Y-112154761D01*
X189095238Y-112202380D01*
X188857142Y-112202380D01*
X188761904Y-112154761D01*
X188714285Y-112107142D01*
X161547619Y-94261904D02*
X162547619Y-94261904D01*
X162547619Y-94500000D01*
X162500000Y-94642857D01*
X162404761Y-94738095D01*
X162309523Y-94785714D01*
X162119047Y-94833333D01*
X161976190Y-94833333D01*
X161785714Y-94785714D01*
X161690476Y-94738095D01*
X161595238Y-94642857D01*
X161547619Y-94500000D01*
X161547619Y-94261904D01*
X162214285Y-95690476D02*
X161547619Y-95690476D01*
X162595238Y-95452380D02*
X161880952Y-95214285D01*
X161880952Y-95833333D01*
X179761904Y-112202380D02*
X179761904Y-111202380D01*
X180000000Y-111202380D01*
X180142857Y-111250000D01*
X180238095Y-111345238D01*
X180285714Y-111440476D01*
X180333333Y-111630952D01*
X180333333Y-111773809D01*
X180285714Y-111964285D01*
X180238095Y-112059523D01*
X180142857Y-112154761D01*
X180000000Y-112202380D01*
X179761904Y-112202380D01*
X181190476Y-111535714D02*
X181190476Y-112202380D01*
X180952380Y-111154761D02*
X180714285Y-111869047D01*
X181333333Y-111869047D01*
X161547619Y-82261904D02*
X162547619Y-82261904D01*
X162547619Y-82500000D01*
X162500000Y-82642857D01*
X162404761Y-82738095D01*
X162309523Y-82785714D01*
X162119047Y-82833333D01*
X161976190Y-82833333D01*
X161785714Y-82785714D01*
X161690476Y-82738095D01*
X161595238Y-82642857D01*
X161547619Y-82500000D01*
X161547619Y-82261904D01*
X162547619Y-83166666D02*
X162547619Y-83785714D01*
X162166666Y-83452380D01*
X162166666Y-83595238D01*
X162119047Y-83690476D01*
X162071428Y-83738095D01*
X161976190Y-83785714D01*
X161738095Y-83785714D01*
X161642857Y-83738095D01*
X161595238Y-83690476D01*
X161547619Y-83595238D01*
X161547619Y-83309523D01*
X161595238Y-83214285D01*
X161642857Y-83166666D01*
X171761904Y-112202380D02*
X171761904Y-111202380D01*
X172000000Y-111202380D01*
X172142857Y-111250000D01*
X172238095Y-111345238D01*
X172285714Y-111440476D01*
X172333333Y-111630952D01*
X172333333Y-111773809D01*
X172285714Y-111964285D01*
X172238095Y-112059523D01*
X172142857Y-112154761D01*
X172000000Y-112202380D01*
X171761904Y-112202380D01*
X172666666Y-111202380D02*
X173285714Y-111202380D01*
X172952380Y-111583333D01*
X173095238Y-111583333D01*
X173190476Y-111630952D01*
X173238095Y-111678571D01*
X173285714Y-111773809D01*
X173285714Y-112011904D01*
X173238095Y-112107142D01*
X173190476Y-112154761D01*
X173095238Y-112202380D01*
X172809523Y-112202380D01*
X172714285Y-112154761D01*
X172666666Y-112107142D01*
X163761904Y-112202380D02*
X163761904Y-111202380D01*
X164000000Y-111202380D01*
X164142857Y-111250000D01*
X164238095Y-111345238D01*
X164285714Y-111440476D01*
X164333333Y-111630952D01*
X164333333Y-111773809D01*
X164285714Y-111964285D01*
X164238095Y-112059523D01*
X164142857Y-112154761D01*
X164000000Y-112202380D01*
X163761904Y-112202380D01*
X164714285Y-111297619D02*
X164761904Y-111250000D01*
X164857142Y-111202380D01*
X165095238Y-111202380D01*
X165190476Y-111250000D01*
X165238095Y-111297619D01*
X165285714Y-111392857D01*
X165285714Y-111488095D01*
X165238095Y-111630952D01*
X164666666Y-112202380D01*
X165285714Y-112202380D01*
X175285714Y-105702380D02*
X175285714Y-104702380D01*
X175523809Y-104702380D01*
X175666666Y-104750000D01*
X175761904Y-104845238D01*
X175809523Y-104940476D01*
X175857142Y-105130952D01*
X175857142Y-105273809D01*
X175809523Y-105464285D01*
X175761904Y-105559523D01*
X175666666Y-105654761D01*
X175523809Y-105702380D01*
X175285714Y-105702380D01*
X176809523Y-105702380D02*
X176238095Y-105702380D01*
X176523809Y-105702380D02*
X176523809Y-104702380D01*
X176428571Y-104845238D01*
X176333333Y-104940476D01*
X176238095Y-104988095D01*
X177428571Y-104702380D02*
X177523809Y-104702380D01*
X177619047Y-104750000D01*
X177666666Y-104797619D01*
X177714285Y-104892857D01*
X177761904Y-105083333D01*
X177761904Y-105321428D01*
X177714285Y-105511904D01*
X177666666Y-105607142D01*
X177619047Y-105654761D01*
X177523809Y-105702380D01*
X177428571Y-105702380D01*
X177333333Y-105654761D01*
X177285714Y-105607142D01*
X177238095Y-105511904D01*
X177190476Y-105321428D01*
X177190476Y-105083333D01*
X177238095Y-104892857D01*
X177285714Y-104797619D01*
X177333333Y-104750000D01*
X177428571Y-104702380D01*
X171761904Y-105702380D02*
X171761904Y-104702380D01*
X172000000Y-104702380D01*
X172142857Y-104750000D01*
X172238095Y-104845238D01*
X172285714Y-104940476D01*
X172333333Y-105130952D01*
X172333333Y-105273809D01*
X172285714Y-105464285D01*
X172238095Y-105559523D01*
X172142857Y-105654761D01*
X172000000Y-105702380D01*
X171761904Y-105702380D01*
X172809523Y-105702380D02*
X173000000Y-105702380D01*
X173095238Y-105654761D01*
X173142857Y-105607142D01*
X173238095Y-105464285D01*
X173285714Y-105273809D01*
X173285714Y-104892857D01*
X173238095Y-104797619D01*
X173190476Y-104750000D01*
X173095238Y-104702380D01*
X172904761Y-104702380D01*
X172809523Y-104750000D01*
X172761904Y-104797619D01*
X172714285Y-104892857D01*
X172714285Y-105130952D01*
X172761904Y-105226190D01*
X172809523Y-105273809D01*
X172904761Y-105321428D01*
X173095238Y-105321428D01*
X173190476Y-105273809D01*
X173238095Y-105226190D01*
X173285714Y-105130952D01*
X186452380Y-82833333D02*
X187452380Y-82500000D01*
X186452380Y-82166666D01*
X187357142Y-81261904D02*
X187404761Y-81309523D01*
X187452380Y-81452380D01*
X187452380Y-81547619D01*
X187404761Y-81690476D01*
X187309523Y-81785714D01*
X187214285Y-81833333D01*
X187023809Y-81880952D01*
X186880952Y-81880952D01*
X186690476Y-81833333D01*
X186595238Y-81785714D01*
X186500000Y-81690476D01*
X186452380Y-81547619D01*
X186452380Y-81452380D01*
X186500000Y-81309523D01*
X186547619Y-81261904D01*
X187357142Y-80261904D02*
X187404761Y-80309523D01*
X187452380Y-80452380D01*
X187452380Y-80547619D01*
X187404761Y-80690476D01*
X187309523Y-80785714D01*
X187214285Y-80833333D01*
X187023809Y-80880952D01*
X186880952Y-80880952D01*
X186690476Y-80833333D01*
X186595238Y-80785714D01*
X186500000Y-80690476D01*
X186452380Y-80547619D01*
X186452380Y-80452380D01*
X186500000Y-80309523D01*
X186547619Y-80261904D01*
X186452380Y-93333333D02*
X187452380Y-93000000D01*
X186452380Y-92666666D01*
X187357142Y-91761904D02*
X187404761Y-91809523D01*
X187452380Y-91952380D01*
X187452380Y-92047619D01*
X187404761Y-92190476D01*
X187309523Y-92285714D01*
X187214285Y-92333333D01*
X187023809Y-92380952D01*
X186880952Y-92380952D01*
X186690476Y-92333333D01*
X186595238Y-92285714D01*
X186500000Y-92190476D01*
X186452380Y-92047619D01*
X186452380Y-91952380D01*
X186500000Y-91809523D01*
X186547619Y-91761904D01*
X187357142Y-90761904D02*
X187404761Y-90809523D01*
X187452380Y-90952380D01*
X187452380Y-91047619D01*
X187404761Y-91190476D01*
X187309523Y-91285714D01*
X187214285Y-91333333D01*
X187023809Y-91380952D01*
X186880952Y-91380952D01*
X186690476Y-91333333D01*
X186595238Y-91285714D01*
X186500000Y-91190476D01*
X186452380Y-91047619D01*
X186452380Y-90952380D01*
X186500000Y-90809523D01*
X186547619Y-90761904D01*
X186452380Y-103833333D02*
X187452380Y-103500000D01*
X186452380Y-103166666D01*
X187357142Y-102261904D02*
X187404761Y-102309523D01*
X187452380Y-102452380D01*
X187452380Y-102547619D01*
X187404761Y-102690476D01*
X187309523Y-102785714D01*
X187214285Y-102833333D01*
X187023809Y-102880952D01*
X186880952Y-102880952D01*
X186690476Y-102833333D01*
X186595238Y-102785714D01*
X186500000Y-102690476D01*
X186452380Y-102547619D01*
X186452380Y-102452380D01*
X186500000Y-102309523D01*
X186547619Y-102261904D01*
X187357142Y-101261904D02*
X187404761Y-101309523D01*
X187452380Y-101452380D01*
X187452380Y-101547619D01*
X187404761Y-101690476D01*
X187309523Y-101785714D01*
X187214285Y-101833333D01*
X187023809Y-101880952D01*
X186880952Y-101880952D01*
X186690476Y-101833333D01*
X186595238Y-101785714D01*
X186500000Y-101690476D01*
X186452380Y-101547619D01*
X186452380Y-101452380D01*
X186500000Y-101309523D01*
X186547619Y-101261904D01*
D12*
X160583333Y-104842857D02*
X161250000Y-106042857D01*
X161916666Y-104842857D01*
X163726190Y-105928571D02*
X163630952Y-105985714D01*
X163345238Y-106042857D01*
X163154761Y-106042857D01*
X162869047Y-105985714D01*
X162678571Y-105871428D01*
X162583333Y-105757142D01*
X162488095Y-105528571D01*
X162488095Y-105357142D01*
X162583333Y-105128571D01*
X162678571Y-105014285D01*
X162869047Y-104900000D01*
X163154761Y-104842857D01*
X163345238Y-104842857D01*
X163630952Y-104900000D01*
X163726190Y-104957142D01*
X165726190Y-105928571D02*
X165630952Y-105985714D01*
X165345238Y-106042857D01*
X165154761Y-106042857D01*
X164869047Y-105985714D01*
X164678571Y-105871428D01*
X164583333Y-105757142D01*
X164488095Y-105528571D01*
X164488095Y-105357142D01*
X164583333Y-105128571D01*
X164678571Y-105014285D01*
X164869047Y-104900000D01*
X165154761Y-104842857D01*
X165345238Y-104842857D01*
X165630952Y-104900000D01*
X165726190Y-104957142D01*
D10*
X162547619Y-96666666D02*
X161547619Y-97000000D01*
X162547619Y-97333333D01*
X161642857Y-98238095D02*
X161595238Y-98190476D01*
X161547619Y-98047619D01*
X161547619Y-97952380D01*
X161595238Y-97809523D01*
X161690476Y-97714285D01*
X161785714Y-97666666D01*
X161976190Y-97619047D01*
X162119047Y-97619047D01*
X162309523Y-97666666D01*
X162404761Y-97714285D01*
X162500000Y-97809523D01*
X162547619Y-97952380D01*
X162547619Y-98047619D01*
X162500000Y-98190476D01*
X162452380Y-98238095D01*
X161642857Y-99238095D02*
X161595238Y-99190476D01*
X161547619Y-99047619D01*
X161547619Y-98952380D01*
X161595238Y-98809523D01*
X161690476Y-98714285D01*
X161785714Y-98666666D01*
X161976190Y-98619047D01*
X162119047Y-98619047D01*
X162309523Y-98666666D01*
X162404761Y-98714285D01*
X162500000Y-98809523D01*
X162547619Y-98952380D01*
X162547619Y-99047619D01*
X162500000Y-99190476D01*
X162452380Y-99238095D01*
X162547619Y-84666666D02*
X161547619Y-85000000D01*
X162547619Y-85333333D01*
X161642857Y-86238095D02*
X161595238Y-86190476D01*
X161547619Y-86047619D01*
X161547619Y-85952380D01*
X161595238Y-85809523D01*
X161690476Y-85714285D01*
X161785714Y-85666666D01*
X161976190Y-85619047D01*
X162119047Y-85619047D01*
X162309523Y-85666666D01*
X162404761Y-85714285D01*
X162500000Y-85809523D01*
X162547619Y-85952380D01*
X162547619Y-86047619D01*
X162500000Y-86190476D01*
X162452380Y-86238095D01*
X161642857Y-87238095D02*
X161595238Y-87190476D01*
X161547619Y-87047619D01*
X161547619Y-86952380D01*
X161595238Y-86809523D01*
X161690476Y-86714285D01*
X161785714Y-86666666D01*
X161976190Y-86619047D01*
X162119047Y-86619047D01*
X162309523Y-86666666D01*
X162404761Y-86714285D01*
X162500000Y-86809523D01*
X162547619Y-86952380D01*
X162547619Y-87047619D01*
X162500000Y-87190476D01*
X162452380Y-87238095D01*
X186500000Y-79011904D02*
X186452380Y-79107142D01*
X186452380Y-79250000D01*
X186500000Y-79392857D01*
X186595238Y-79488095D01*
X186690476Y-79535714D01*
X186880952Y-79583333D01*
X187023809Y-79583333D01*
X187214285Y-79535714D01*
X187309523Y-79488095D01*
X187404761Y-79392857D01*
X187452380Y-79250000D01*
X187452380Y-79154761D01*
X187404761Y-79011904D01*
X187357142Y-78964285D01*
X187023809Y-78964285D01*
X187023809Y-79154761D01*
X187452380Y-78535714D02*
X186452380Y-78535714D01*
X187452380Y-77964285D01*
X186452380Y-77964285D01*
X187452380Y-77488095D02*
X186452380Y-77488095D01*
X186452380Y-77250000D01*
X186500000Y-77107142D01*
X186595238Y-77011904D01*
X186690476Y-76964285D01*
X186880952Y-76916666D01*
X187023809Y-76916666D01*
X187214285Y-76964285D01*
X187309523Y-77011904D01*
X187404761Y-77107142D01*
X187452380Y-77250000D01*
X187452380Y-77488095D01*
X186500000Y-89511904D02*
X186452380Y-89607142D01*
X186452380Y-89750000D01*
X186500000Y-89892857D01*
X186595238Y-89988095D01*
X186690476Y-90035714D01*
X186880952Y-90083333D01*
X187023809Y-90083333D01*
X187214285Y-90035714D01*
X187309523Y-89988095D01*
X187404761Y-89892857D01*
X187452380Y-89750000D01*
X187452380Y-89654761D01*
X187404761Y-89511904D01*
X187357142Y-89464285D01*
X187023809Y-89464285D01*
X187023809Y-89654761D01*
X187452380Y-89035714D02*
X186452380Y-89035714D01*
X187452380Y-88464285D01*
X186452380Y-88464285D01*
X187452380Y-87988095D02*
X186452380Y-87988095D01*
X186452380Y-87750000D01*
X186500000Y-87607142D01*
X186595238Y-87511904D01*
X186690476Y-87464285D01*
X186880952Y-87416666D01*
X187023809Y-87416666D01*
X187214285Y-87464285D01*
X187309523Y-87511904D01*
X187404761Y-87607142D01*
X187452380Y-87750000D01*
X187452380Y-87988095D01*
X186500000Y-100011904D02*
X186452380Y-100107142D01*
X186452380Y-100250000D01*
X186500000Y-100392857D01*
X186595238Y-100488095D01*
X186690476Y-100535714D01*
X186880952Y-100583333D01*
X187023809Y-100583333D01*
X187214285Y-100535714D01*
X187309523Y-100488095D01*
X187404761Y-100392857D01*
X187452380Y-100250000D01*
X187452380Y-100154761D01*
X187404761Y-100011904D01*
X187357142Y-99964285D01*
X187023809Y-99964285D01*
X187023809Y-100154761D01*
X187452380Y-99535714D02*
X186452380Y-99535714D01*
X187452380Y-98964285D01*
X186452380Y-98964285D01*
X187452380Y-98488095D02*
X186452380Y-98488095D01*
X186452380Y-98250000D01*
X186500000Y-98107142D01*
X186595238Y-98011904D01*
X186690476Y-97964285D01*
X186880952Y-97916666D01*
X187023809Y-97916666D01*
X187214285Y-97964285D01*
X187309523Y-98011904D01*
X187404761Y-98107142D01*
X187452380Y-98250000D01*
X187452380Y-98488095D01*
X159988095Y-111250000D02*
X159892857Y-111202380D01*
X159750000Y-111202380D01*
X159607142Y-111250000D01*
X159511904Y-111345238D01*
X159464285Y-111440476D01*
X159416666Y-111630952D01*
X159416666Y-111773809D01*
X159464285Y-111964285D01*
X159511904Y-112059523D01*
X159607142Y-112154761D01*
X159750000Y-112202380D01*
X159845238Y-112202380D01*
X159988095Y-112154761D01*
X160035714Y-112107142D01*
X160035714Y-111773809D01*
X159845238Y-111773809D01*
X160464285Y-112202380D02*
X160464285Y-111202380D01*
X161035714Y-112202380D01*
X161035714Y-111202380D01*
X161511904Y-112202380D02*
X161511904Y-111202380D01*
X161750000Y-111202380D01*
X161892857Y-111250000D01*
X161988095Y-111345238D01*
X162035714Y-111440476D01*
X162083333Y-111630952D01*
X162083333Y-111773809D01*
X162035714Y-111964285D01*
X161988095Y-112059523D01*
X161892857Y-112154761D01*
X161750000Y-112202380D01*
X161511904Y-112202380D01*
X183988095Y-111250000D02*
X183892857Y-111202380D01*
X183750000Y-111202380D01*
X183607142Y-111250000D01*
X183511904Y-111345238D01*
X183464285Y-111440476D01*
X183416666Y-111630952D01*
X183416666Y-111773809D01*
X183464285Y-111964285D01*
X183511904Y-112059523D01*
X183607142Y-112154761D01*
X183750000Y-112202380D01*
X183845238Y-112202380D01*
X183988095Y-112154761D01*
X184035714Y-112107142D01*
X184035714Y-111773809D01*
X183845238Y-111773809D01*
X184464285Y-112202380D02*
X184464285Y-111202380D01*
X185035714Y-112202380D01*
X185035714Y-111202380D01*
X185511904Y-112202380D02*
X185511904Y-111202380D01*
X185750000Y-111202380D01*
X185892857Y-111250000D01*
X185988095Y-111345238D01*
X186035714Y-111440476D01*
X186083333Y-111630952D01*
X186083333Y-111773809D01*
X186035714Y-111964285D01*
X185988095Y-112059523D01*
X185892857Y-112154761D01*
X185750000Y-112202380D01*
X185511904Y-112202380D01*
X175988095Y-111250000D02*
X175892857Y-111202380D01*
X175750000Y-111202380D01*
X175607142Y-111250000D01*
X175511904Y-111345238D01*
X175464285Y-111440476D01*
X175416666Y-111630952D01*
X175416666Y-111773809D01*
X175464285Y-111964285D01*
X175511904Y-112059523D01*
X175607142Y-112154761D01*
X175750000Y-112202380D01*
X175845238Y-112202380D01*
X175988095Y-112154761D01*
X176035714Y-112107142D01*
X176035714Y-111773809D01*
X175845238Y-111773809D01*
X176464285Y-112202380D02*
X176464285Y-111202380D01*
X177035714Y-112202380D01*
X177035714Y-111202380D01*
X177511904Y-112202380D02*
X177511904Y-111202380D01*
X177750000Y-111202380D01*
X177892857Y-111250000D01*
X177988095Y-111345238D01*
X178035714Y-111440476D01*
X178083333Y-111630952D01*
X178083333Y-111773809D01*
X178035714Y-111964285D01*
X177988095Y-112059523D01*
X177892857Y-112154761D01*
X177750000Y-112202380D01*
X177511904Y-112202380D01*
X162500000Y-90988095D02*
X162547619Y-90892857D01*
X162547619Y-90750000D01*
X162500000Y-90607142D01*
X162404761Y-90511904D01*
X162309523Y-90464285D01*
X162119047Y-90416666D01*
X161976190Y-90416666D01*
X161785714Y-90464285D01*
X161690476Y-90511904D01*
X161595238Y-90607142D01*
X161547619Y-90750000D01*
X161547619Y-90845238D01*
X161595238Y-90988095D01*
X161642857Y-91035714D01*
X161976190Y-91035714D01*
X161976190Y-90845238D01*
X161547619Y-91464285D02*
X162547619Y-91464285D01*
X161547619Y-92035714D01*
X162547619Y-92035714D01*
X161547619Y-92511904D02*
X162547619Y-92511904D01*
X162547619Y-92750000D01*
X162500000Y-92892857D01*
X162404761Y-92988095D01*
X162309523Y-93035714D01*
X162119047Y-93083333D01*
X161976190Y-93083333D01*
X161785714Y-93035714D01*
X161690476Y-92988095D01*
X161595238Y-92892857D01*
X161547619Y-92750000D01*
X161547619Y-92511904D01*
X167988095Y-111250000D02*
X167892857Y-111202380D01*
X167750000Y-111202380D01*
X167607142Y-111250000D01*
X167511904Y-111345238D01*
X167464285Y-111440476D01*
X167416666Y-111630952D01*
X167416666Y-111773809D01*
X167464285Y-111964285D01*
X167511904Y-112059523D01*
X167607142Y-112154761D01*
X167750000Y-112202380D01*
X167845238Y-112202380D01*
X167988095Y-112154761D01*
X168035714Y-112107142D01*
X168035714Y-111773809D01*
X167845238Y-111773809D01*
X168464285Y-112202380D02*
X168464285Y-111202380D01*
X169035714Y-112202380D01*
X169035714Y-111202380D01*
X169511904Y-112202380D02*
X169511904Y-111202380D01*
X169750000Y-111202380D01*
X169892857Y-111250000D01*
X169988095Y-111345238D01*
X170035714Y-111440476D01*
X170083333Y-111630952D01*
X170083333Y-111773809D01*
X170035714Y-111964285D01*
X169988095Y-112059523D01*
X169892857Y-112154761D01*
X169750000Y-112202380D01*
X169511904Y-112202380D01*
X162500000Y-78988095D02*
X162547619Y-78892857D01*
X162547619Y-78750000D01*
X162500000Y-78607142D01*
X162404761Y-78511904D01*
X162309523Y-78464285D01*
X162119047Y-78416666D01*
X161976190Y-78416666D01*
X161785714Y-78464285D01*
X161690476Y-78511904D01*
X161595238Y-78607142D01*
X161547619Y-78750000D01*
X161547619Y-78845238D01*
X161595238Y-78988095D01*
X161642857Y-79035714D01*
X161976190Y-79035714D01*
X161976190Y-78845238D01*
X161547619Y-79464285D02*
X162547619Y-79464285D01*
X161547619Y-80035714D01*
X162547619Y-80035714D01*
X161547619Y-80511904D02*
X162547619Y-80511904D01*
X162547619Y-80750000D01*
X162500000Y-80892857D01*
X162404761Y-80988095D01*
X162309523Y-81035714D01*
X162119047Y-81083333D01*
X161976190Y-81083333D01*
X161785714Y-81035714D01*
X161690476Y-80988095D01*
X161595238Y-80892857D01*
X161547619Y-80750000D01*
X161547619Y-80511904D01*
D14*
X168150000Y-71760000D02*
X165610000Y-71760000D01*
X165610000Y-69220000D02*
X165610000Y-71760000D01*
X183390000Y-69220000D02*
X165610000Y-69220000D01*
X183390000Y-71760000D02*
X183390000Y-69220000D01*
D10*
G36*
X179431568Y-78239360D02*
G01*
X179431568Y-78439360D01*
X179331568Y-78439360D01*
X179331568Y-78239360D01*
X179431568Y-78239360D01*
G37*
X179431568Y-78239360D02*
X179431568Y-78439360D01*
X179331568Y-78439360D01*
X179331568Y-78239360D01*
X179431568Y-78239360D01*
G36*
X179031568Y-77639360D02*
G01*
X179031568Y-78439360D01*
X178931568Y-78439360D01*
X178931568Y-77639360D01*
X179031568Y-77639360D01*
G37*
X179031568Y-77639360D02*
X179031568Y-78439360D01*
X178931568Y-78439360D01*
X178931568Y-77639360D01*
X179031568Y-77639360D01*
G36*
X179431568Y-77639360D02*
G01*
X179431568Y-77739360D01*
X178931568Y-77739360D01*
X178931568Y-77639360D01*
X179431568Y-77639360D01*
G37*
X179431568Y-77639360D02*
X179431568Y-77739360D01*
X178931568Y-77739360D01*
X178931568Y-77639360D01*
X179431568Y-77639360D01*
G36*
X179231568Y-78039360D02*
G01*
X179231568Y-78139360D01*
X179131568Y-78139360D01*
X179131568Y-78039360D01*
X179231568Y-78039360D01*
G37*
X179231568Y-78039360D02*
X179231568Y-78139360D01*
X179131568Y-78139360D01*
X179131568Y-78039360D01*
X179231568Y-78039360D01*
G36*
X179431568Y-77639360D02*
G01*
X179431568Y-77939360D01*
X179331568Y-77939360D01*
X179331568Y-77639360D01*
X179431568Y-77639360D01*
G37*
X179431568Y-77639360D02*
X179431568Y-77939360D01*
X179331568Y-77939360D01*
X179331568Y-77639360D01*
X179431568Y-77639360D01*
D14*
X168150000Y-74300000D02*
X165610000Y-74300000D01*
X168150000Y-71760000D02*
X168150000Y-74300000D01*
X183390000Y-102240000D02*
X183390000Y-71760000D01*
X165610000Y-102240000D02*
X183390000Y-102240000D01*
X165610000Y-71760000D02*
X165610000Y-102240000D01*
D10*
X168737651Y-72591904D02*
X169194794Y-72591904D01*
X168966223Y-73391904D02*
X168966223Y-72591904D01*
X169385270Y-72591904D02*
X169918604Y-73391904D01*
X169918604Y-72591904D02*
X169385270Y-73391904D01*
X170375747Y-72591904D02*
X170451937Y-72591904D01*
X170528128Y-72630000D01*
X170566223Y-72668095D01*
X170604318Y-72744285D01*
X170642413Y-72896666D01*
X170642413Y-73087142D01*
X170604318Y-73239523D01*
X170566223Y-73315714D01*
X170528128Y-73353809D01*
X170451937Y-73391904D01*
X170375747Y-73391904D01*
X170299556Y-73353809D01*
X170261461Y-73315714D01*
X170223366Y-73239523D01*
X170185270Y-73087142D01*
X170185270Y-72896666D01*
X170223366Y-72744285D01*
X170261461Y-72668095D01*
X170299556Y-72630000D01*
X170375747Y-72591904D01*
X171556699Y-72553809D02*
X170870985Y-73582380D01*
X171823366Y-73391904D02*
X171823366Y-72591904D01*
X172013842Y-72591904D01*
X172128128Y-72630000D01*
X172204318Y-72706190D01*
X172242413Y-72782380D01*
X172280508Y-72934761D01*
X172280508Y-73049047D01*
X172242413Y-73201428D01*
X172204318Y-73277619D01*
X172128128Y-73353809D01*
X172013842Y-73391904D01*
X171823366Y-73391904D01*
X172547175Y-72591904D02*
X173042413Y-72591904D01*
X172775747Y-72896666D01*
X172890032Y-72896666D01*
X172966223Y-72934761D01*
X173004318Y-72972857D01*
X173042413Y-73049047D01*
X173042413Y-73239523D01*
X173004318Y-73315714D01*
X172966223Y-73353809D01*
X172890032Y-73391904D01*
X172661461Y-73391904D01*
X172585270Y-73353809D01*
X172547175Y-73315714D01*
X168448523Y-75931904D02*
X168448523Y-75131904D01*
X168639000Y-75131904D01*
X168753285Y-75170000D01*
X168829476Y-75246190D01*
X168867571Y-75322380D01*
X168905666Y-75474761D01*
X168905666Y-75589047D01*
X168867571Y-75741428D01*
X168829476Y-75817619D01*
X168753285Y-75893809D01*
X168639000Y-75931904D01*
X168448523Y-75931904D01*
X169210428Y-75208095D02*
X169248523Y-75170000D01*
X169324714Y-75131904D01*
X169515190Y-75131904D01*
X169591380Y-75170000D01*
X169629476Y-75208095D01*
X169667571Y-75284285D01*
X169667571Y-75360476D01*
X169629476Y-75474761D01*
X169172333Y-75931904D01*
X169667571Y-75931904D01*
X168448523Y-86091904D02*
X168448523Y-85291904D01*
X168639000Y-85291904D01*
X168753285Y-85330000D01*
X168829476Y-85406190D01*
X168867571Y-85482380D01*
X168905666Y-85634761D01*
X168905666Y-85749047D01*
X168867571Y-85901428D01*
X168829476Y-85977619D01*
X168753285Y-86053809D01*
X168639000Y-86091904D01*
X168448523Y-86091904D01*
X169400904Y-85291904D02*
X169477095Y-85291904D01*
X169553285Y-85330000D01*
X169591380Y-85368095D01*
X169629476Y-85444285D01*
X169667571Y-85596666D01*
X169667571Y-85787142D01*
X169629476Y-85939523D01*
X169591380Y-86015714D01*
X169553285Y-86053809D01*
X169477095Y-86091904D01*
X169400904Y-86091904D01*
X169324714Y-86053809D01*
X169286619Y-86015714D01*
X169248523Y-85939523D01*
X169210428Y-85787142D01*
X169210428Y-85596666D01*
X169248523Y-85444285D01*
X169286619Y-85368095D01*
X169324714Y-85330000D01*
X169400904Y-85291904D01*
X168448523Y-83551904D02*
X168448523Y-82751904D01*
X168639000Y-82751904D01*
X168753285Y-82790000D01*
X168829476Y-82866190D01*
X168867571Y-82942380D01*
X168905666Y-83094761D01*
X168905666Y-83209047D01*
X168867571Y-83361428D01*
X168829476Y-83437619D01*
X168753285Y-83513809D01*
X168639000Y-83551904D01*
X168448523Y-83551904D01*
X169667571Y-83551904D02*
X169210428Y-83551904D01*
X169439000Y-83551904D02*
X169439000Y-82751904D01*
X169362809Y-82866190D01*
X169286619Y-82942380D01*
X169210428Y-82980476D01*
X168429476Y-80250000D02*
X168353285Y-80211904D01*
X168239000Y-80211904D01*
X168124714Y-80250000D01*
X168048523Y-80326190D01*
X168010428Y-80402380D01*
X167972333Y-80554761D01*
X167972333Y-80669047D01*
X168010428Y-80821428D01*
X168048523Y-80897619D01*
X168124714Y-80973809D01*
X168239000Y-81011904D01*
X168315190Y-81011904D01*
X168429476Y-80973809D01*
X168467571Y-80935714D01*
X168467571Y-80669047D01*
X168315190Y-80669047D01*
X168810428Y-81011904D02*
X168810428Y-80211904D01*
X169267571Y-81011904D01*
X169267571Y-80211904D01*
X169648523Y-81011904D02*
X169648523Y-80211904D01*
X169839000Y-80211904D01*
X169953285Y-80250000D01*
X170029476Y-80326190D01*
X170067571Y-80402380D01*
X170105666Y-80554761D01*
X170105666Y-80669047D01*
X170067571Y-80821428D01*
X170029476Y-80897619D01*
X169953285Y-80973809D01*
X169839000Y-81011904D01*
X169648523Y-81011904D01*
X168429476Y-77710000D02*
X168353285Y-77671904D01*
X168239000Y-77671904D01*
X168124714Y-77710000D01*
X168048523Y-77786190D01*
X168010428Y-77862380D01*
X167972333Y-78014761D01*
X167972333Y-78129047D01*
X168010428Y-78281428D01*
X168048523Y-78357619D01*
X168124714Y-78433809D01*
X168239000Y-78471904D01*
X168315190Y-78471904D01*
X168429476Y-78433809D01*
X168467571Y-78395714D01*
X168467571Y-78129047D01*
X168315190Y-78129047D01*
X168810428Y-78471904D02*
X168810428Y-77671904D01*
X169267571Y-78471904D01*
X169267571Y-77671904D01*
X169648523Y-78471904D02*
X169648523Y-77671904D01*
X169839000Y-77671904D01*
X169953285Y-77710000D01*
X170029476Y-77786190D01*
X170067571Y-77862380D01*
X170105666Y-78014761D01*
X170105666Y-78129047D01*
X170067571Y-78281428D01*
X170029476Y-78357619D01*
X169953285Y-78433809D01*
X169839000Y-78471904D01*
X169648523Y-78471904D01*
X168448523Y-88631904D02*
X168448523Y-87831904D01*
X168639000Y-87831904D01*
X168753285Y-87870000D01*
X168829476Y-87946190D01*
X168867571Y-88022380D01*
X168905666Y-88174761D01*
X168905666Y-88289047D01*
X168867571Y-88441428D01*
X168829476Y-88517619D01*
X168753285Y-88593809D01*
X168639000Y-88631904D01*
X168448523Y-88631904D01*
X169591380Y-88098571D02*
X169591380Y-88631904D01*
X169400904Y-87793809D02*
X169210428Y-88365238D01*
X169705666Y-88365238D01*
X168905666Y-91095714D02*
X168867571Y-91133809D01*
X168753285Y-91171904D01*
X168677095Y-91171904D01*
X168562809Y-91133809D01*
X168486619Y-91057619D01*
X168448523Y-90981428D01*
X168410428Y-90829047D01*
X168410428Y-90714761D01*
X168448523Y-90562380D01*
X168486619Y-90486190D01*
X168562809Y-90410000D01*
X168677095Y-90371904D01*
X168753285Y-90371904D01*
X168867571Y-90410000D01*
X168905666Y-90448095D01*
X169591380Y-90371904D02*
X169439000Y-90371904D01*
X169362809Y-90410000D01*
X169324714Y-90448095D01*
X169248523Y-90562380D01*
X169210428Y-90714761D01*
X169210428Y-91019523D01*
X169248523Y-91095714D01*
X169286619Y-91133809D01*
X169362809Y-91171904D01*
X169515190Y-91171904D01*
X169591380Y-91133809D01*
X169629476Y-91095714D01*
X169667571Y-91019523D01*
X169667571Y-90829047D01*
X169629476Y-90752857D01*
X169591380Y-90714761D01*
X169515190Y-90676666D01*
X169362809Y-90676666D01*
X169286619Y-90714761D01*
X169248523Y-90752857D01*
X169210428Y-90829047D01*
X168448523Y-93711904D02*
X168448523Y-92911904D01*
X168639000Y-92911904D01*
X168753285Y-92950000D01*
X168829476Y-93026190D01*
X168867571Y-93102380D01*
X168905666Y-93254761D01*
X168905666Y-93369047D01*
X168867571Y-93521428D01*
X168829476Y-93597619D01*
X168753285Y-93673809D01*
X168639000Y-93711904D01*
X168448523Y-93711904D01*
X169172333Y-92911904D02*
X169705666Y-92911904D01*
X169362809Y-93711904D01*
X168486619Y-95832857D02*
X168753285Y-95832857D01*
X168867571Y-96251904D02*
X168486619Y-96251904D01*
X168486619Y-95451904D01*
X168867571Y-95451904D01*
X169553285Y-95451904D02*
X169400904Y-95451904D01*
X169324714Y-95490000D01*
X169286619Y-95528095D01*
X169210428Y-95642380D01*
X169172333Y-95794761D01*
X169172333Y-96099523D01*
X169210428Y-96175714D01*
X169248523Y-96213809D01*
X169324714Y-96251904D01*
X169477095Y-96251904D01*
X169553285Y-96213809D01*
X169591380Y-96175714D01*
X169629476Y-96099523D01*
X169629476Y-95909047D01*
X169591380Y-95832857D01*
X169553285Y-95794761D01*
X169477095Y-95756666D01*
X169324714Y-95756666D01*
X169248523Y-95794761D01*
X169210428Y-95832857D01*
X169172333Y-95909047D01*
X168715190Y-98372857D02*
X168829476Y-98410952D01*
X168867571Y-98449047D01*
X168905666Y-98525238D01*
X168905666Y-98639523D01*
X168867571Y-98715714D01*
X168829476Y-98753809D01*
X168753285Y-98791904D01*
X168448523Y-98791904D01*
X168448523Y-97991904D01*
X168715190Y-97991904D01*
X168791380Y-98030000D01*
X168829476Y-98068095D01*
X168867571Y-98144285D01*
X168867571Y-98220476D01*
X168829476Y-98296666D01*
X168791380Y-98334761D01*
X168715190Y-98372857D01*
X168448523Y-98372857D01*
X169591380Y-98258571D02*
X169591380Y-98791904D01*
X169400904Y-97953809D02*
X169210428Y-98525238D01*
X169705666Y-98525238D01*
X168715190Y-100912857D02*
X168829476Y-100950952D01*
X168867571Y-100989047D01*
X168905666Y-101065238D01*
X168905666Y-101179523D01*
X168867571Y-101255714D01*
X168829476Y-101293809D01*
X168753285Y-101331904D01*
X168448523Y-101331904D01*
X168448523Y-100531904D01*
X168715190Y-100531904D01*
X168791380Y-100570000D01*
X168829476Y-100608095D01*
X168867571Y-100684285D01*
X168867571Y-100760476D01*
X168829476Y-100836666D01*
X168791380Y-100874761D01*
X168715190Y-100912857D01*
X168448523Y-100912857D01*
X169629476Y-100531904D02*
X169248523Y-100531904D01*
X169210428Y-100912857D01*
X169248523Y-100874761D01*
X169324714Y-100836666D01*
X169515190Y-100836666D01*
X169591380Y-100874761D01*
X169629476Y-100912857D01*
X169667571Y-100989047D01*
X169667571Y-101179523D01*
X169629476Y-101255714D01*
X169591380Y-101293809D01*
X169515190Y-101331904D01*
X169324714Y-101331904D01*
X169248523Y-101293809D01*
X169210428Y-101255714D01*
X179637190Y-100912857D02*
X179751476Y-100950952D01*
X179789571Y-100989047D01*
X179827666Y-101065238D01*
X179827666Y-101179523D01*
X179789571Y-101255714D01*
X179751476Y-101293809D01*
X179675285Y-101331904D01*
X179370523Y-101331904D01*
X179370523Y-100531904D01*
X179637190Y-100531904D01*
X179713380Y-100570000D01*
X179751476Y-100608095D01*
X179789571Y-100684285D01*
X179789571Y-100760476D01*
X179751476Y-100836666D01*
X179713380Y-100874761D01*
X179637190Y-100912857D01*
X179370523Y-100912857D01*
X180513380Y-100531904D02*
X180361000Y-100531904D01*
X180284809Y-100570000D01*
X180246714Y-100608095D01*
X180170523Y-100722380D01*
X180132428Y-100874761D01*
X180132428Y-101179523D01*
X180170523Y-101255714D01*
X180208619Y-101293809D01*
X180284809Y-101331904D01*
X180437190Y-101331904D01*
X180513380Y-101293809D01*
X180551476Y-101255714D01*
X180589571Y-101179523D01*
X180589571Y-100989047D01*
X180551476Y-100912857D01*
X180513380Y-100874761D01*
X180437190Y-100836666D01*
X180284809Y-100836666D01*
X180208619Y-100874761D01*
X180170523Y-100912857D01*
X180132428Y-100989047D01*
X179637190Y-95832857D02*
X179751476Y-95870952D01*
X179789571Y-95909047D01*
X179827666Y-95985238D01*
X179827666Y-96099523D01*
X179789571Y-96175714D01*
X179751476Y-96213809D01*
X179675285Y-96251904D01*
X179370523Y-96251904D01*
X179370523Y-95451904D01*
X179637190Y-95451904D01*
X179713380Y-95490000D01*
X179751476Y-95528095D01*
X179789571Y-95604285D01*
X179789571Y-95680476D01*
X179751476Y-95756666D01*
X179713380Y-95794761D01*
X179637190Y-95832857D01*
X179370523Y-95832857D01*
X180094333Y-95451904D02*
X180589571Y-95451904D01*
X180322904Y-95756666D01*
X180437190Y-95756666D01*
X180513380Y-95794761D01*
X180551476Y-95832857D01*
X180589571Y-95909047D01*
X180589571Y-96099523D01*
X180551476Y-96175714D01*
X180513380Y-96213809D01*
X180437190Y-96251904D01*
X180208619Y-96251904D01*
X180132428Y-96213809D01*
X180094333Y-96175714D01*
X179637190Y-93292857D02*
X179751476Y-93330952D01*
X179789571Y-93369047D01*
X179827666Y-93445238D01*
X179827666Y-93559523D01*
X179789571Y-93635714D01*
X179751476Y-93673809D01*
X179675285Y-93711904D01*
X179370523Y-93711904D01*
X179370523Y-92911904D01*
X179637190Y-92911904D01*
X179713380Y-92950000D01*
X179751476Y-92988095D01*
X179789571Y-93064285D01*
X179789571Y-93140476D01*
X179751476Y-93216666D01*
X179713380Y-93254761D01*
X179637190Y-93292857D01*
X179370523Y-93292857D01*
X180589571Y-93711904D02*
X180132428Y-93711904D01*
X180361000Y-93711904D02*
X180361000Y-92911904D01*
X180284809Y-93026190D01*
X180208619Y-93102380D01*
X180132428Y-93140476D01*
X179694333Y-83132857D02*
X179427666Y-83132857D01*
X179427666Y-83551904D02*
X179427666Y-82751904D01*
X179808619Y-82751904D01*
X180456238Y-83018571D02*
X180456238Y-83551904D01*
X180265761Y-82713809D02*
X180075285Y-83285238D01*
X180570523Y-83285238D01*
X178894333Y-80211904D02*
X179161000Y-81011904D01*
X179427666Y-80211904D01*
X180151476Y-80935714D02*
X180113380Y-80973809D01*
X179999095Y-81011904D01*
X179922904Y-81011904D01*
X179808619Y-80973809D01*
X179732428Y-80897619D01*
X179694333Y-80821428D01*
X179656238Y-80669047D01*
X179656238Y-80554761D01*
X179694333Y-80402380D01*
X179732428Y-80326190D01*
X179808619Y-80250000D01*
X179922904Y-80211904D01*
X179999095Y-80211904D01*
X180113380Y-80250000D01*
X180151476Y-80288095D01*
X180951476Y-80935714D02*
X180913380Y-80973809D01*
X180799095Y-81011904D01*
X180722904Y-81011904D01*
X180608619Y-80973809D01*
X180532428Y-80897619D01*
X180494333Y-80821428D01*
X180456238Y-80669047D01*
X180456238Y-80554761D01*
X180494333Y-80402380D01*
X180532428Y-80326190D01*
X180608619Y-80250000D01*
X180722904Y-80211904D01*
X180799095Y-80211904D01*
X180913380Y-80250000D01*
X180951476Y-80288095D01*
X179699786Y-78403809D02*
X179814072Y-78441904D01*
X180004548Y-78441904D01*
X180080739Y-78403809D01*
X180118834Y-78365714D01*
X180156929Y-78289523D01*
X180156929Y-78213333D01*
X180118834Y-78137142D01*
X180080739Y-78099047D01*
X180004548Y-78060952D01*
X179852167Y-78022857D01*
X179775977Y-77984761D01*
X179737881Y-77946666D01*
X179699786Y-77870476D01*
X179699786Y-77794285D01*
X179737881Y-77718095D01*
X179775977Y-77680000D01*
X179852167Y-77641904D01*
X180042643Y-77641904D01*
X180156929Y-77680000D01*
X180385500Y-77641904D02*
X180842643Y-77641904D01*
X180614072Y-78441904D02*
X180614072Y-77641904D01*
X179351476Y-75170000D02*
X179275285Y-75131904D01*
X179161000Y-75131904D01*
X179046714Y-75170000D01*
X178970523Y-75246190D01*
X178932428Y-75322380D01*
X178894333Y-75474761D01*
X178894333Y-75589047D01*
X178932428Y-75741428D01*
X178970523Y-75817619D01*
X179046714Y-75893809D01*
X179161000Y-75931904D01*
X179237190Y-75931904D01*
X179351476Y-75893809D01*
X179389571Y-75855714D01*
X179389571Y-75589047D01*
X179237190Y-75589047D01*
X179732428Y-75931904D02*
X179732428Y-75131904D01*
X180189571Y-75931904D01*
X180189571Y-75131904D01*
X180570523Y-75931904D02*
X180570523Y-75131904D01*
X180761000Y-75131904D01*
X180875285Y-75170000D01*
X180951476Y-75246190D01*
X180989571Y-75322380D01*
X181027666Y-75474761D01*
X181027666Y-75589047D01*
X180989571Y-75741428D01*
X180951476Y-75817619D01*
X180875285Y-75893809D01*
X180761000Y-75931904D01*
X180570523Y-75931904D01*
X179408619Y-73391904D02*
X179141952Y-73010952D01*
X178951476Y-73391904D02*
X178951476Y-72591904D01*
X179256238Y-72591904D01*
X179332428Y-72630000D01*
X179370523Y-72668095D01*
X179408619Y-72744285D01*
X179408619Y-72858571D01*
X179370523Y-72934761D01*
X179332428Y-72972857D01*
X179256238Y-73010952D01*
X178951476Y-73010952D01*
X179713380Y-73163333D02*
X180094333Y-73163333D01*
X179637190Y-73391904D02*
X179903857Y-72591904D01*
X180170523Y-73391904D01*
X180361000Y-72591904D02*
X180551476Y-73391904D01*
X180703857Y-72820476D01*
X180856238Y-73391904D01*
X181046714Y-72591904D01*
X179694333Y-85672857D02*
X179427666Y-85672857D01*
X179427666Y-86091904D02*
X179427666Y-85291904D01*
X179808619Y-85291904D01*
X180494333Y-85291904D02*
X180113380Y-85291904D01*
X180075285Y-85672857D01*
X180113380Y-85634761D01*
X180189571Y-85596666D01*
X180380047Y-85596666D01*
X180456238Y-85634761D01*
X180494333Y-85672857D01*
X180532428Y-85749047D01*
X180532428Y-85939523D01*
X180494333Y-86015714D01*
X180456238Y-86053809D01*
X180380047Y-86091904D01*
X180189571Y-86091904D01*
X180113380Y-86053809D01*
X180075285Y-86015714D01*
X179694333Y-88212857D02*
X179427666Y-88212857D01*
X179427666Y-88631904D02*
X179427666Y-87831904D01*
X179808619Y-87831904D01*
X180456238Y-87831904D02*
X180303857Y-87831904D01*
X180227666Y-87870000D01*
X180189571Y-87908095D01*
X180113380Y-88022380D01*
X180075285Y-88174761D01*
X180075285Y-88479523D01*
X180113380Y-88555714D01*
X180151476Y-88593809D01*
X180227666Y-88631904D01*
X180380047Y-88631904D01*
X180456238Y-88593809D01*
X180494333Y-88555714D01*
X180532428Y-88479523D01*
X180532428Y-88289047D01*
X180494333Y-88212857D01*
X180456238Y-88174761D01*
X180380047Y-88136666D01*
X180227666Y-88136666D01*
X180151476Y-88174761D01*
X180113380Y-88212857D01*
X180075285Y-88289047D01*
X179694333Y-90752857D02*
X179427666Y-90752857D01*
X179427666Y-91171904D02*
X179427666Y-90371904D01*
X179808619Y-90371904D01*
X180037190Y-90371904D02*
X180570523Y-90371904D01*
X180227666Y-91171904D01*
X179637190Y-98372857D02*
X179751476Y-98410952D01*
X179789571Y-98449047D01*
X179827666Y-98525238D01*
X179827666Y-98639523D01*
X179789571Y-98715714D01*
X179751476Y-98753809D01*
X179675285Y-98791904D01*
X179370523Y-98791904D01*
X179370523Y-97991904D01*
X179637190Y-97991904D01*
X179713380Y-98030000D01*
X179751476Y-98068095D01*
X179789571Y-98144285D01*
X179789571Y-98220476D01*
X179751476Y-98296666D01*
X179713380Y-98334761D01*
X179637190Y-98372857D01*
X179370523Y-98372857D01*
X180132428Y-98068095D02*
X180170523Y-98030000D01*
X180246714Y-97991904D01*
X180437190Y-97991904D01*
X180513380Y-98030000D01*
X180551476Y-98068095D01*
X180589571Y-98144285D01*
X180589571Y-98220476D01*
X180551476Y-98334761D01*
X180094333Y-98791904D01*
X180589571Y-98791904D01*
M02*
