G04 #@! TF.GenerationSoftware,KiCad,Pcbnew,(5.1.5-0-10_14)*
G04 #@! TF.CreationDate,2020-03-07T15:10:29+01:00*
G04 #@! TF.ProjectId,pro_micro_shield,70726f5f-6d69-4637-926f-5f736869656c,rev?*
G04 #@! TF.SameCoordinates,Original*
G04 #@! TF.FileFunction,Legend,Top*
G04 #@! TF.FilePolarity,Positive*
%FSLAX46Y46*%
G04 Gerber Fmt 4.6, Leading zero omitted, Abs format (unit mm)*
G04 Created by KiCad (PCBNEW (5.1.5-0-10_14)) date 2020-03-07 15:10:29*
%MOMM*%
%LPD*%
G04 APERTURE LIST*
%ADD10C,0.300000*%
%ADD11C,0.150000*%
%ADD12C,0.381000*%
G04 APERTURE END LIST*
D10*
X175245238Y-77083333D02*
X177245238Y-77083333D01*
X175816666Y-77750000D01*
X177245238Y-78416666D01*
X175245238Y-78416666D01*
X175245238Y-79369047D02*
X176578571Y-79369047D01*
X177245238Y-79369047D02*
X177150000Y-79273809D01*
X177054761Y-79369047D01*
X177150000Y-79464285D01*
X177245238Y-79369047D01*
X177054761Y-79369047D01*
X176578571Y-80321428D02*
X175245238Y-80321428D01*
X176388095Y-80321428D02*
X176483333Y-80416666D01*
X176578571Y-80607142D01*
X176578571Y-80892857D01*
X176483333Y-81083333D01*
X176292857Y-81178571D01*
X175245238Y-81178571D01*
X175245238Y-82130952D02*
X176578571Y-82130952D01*
X177245238Y-82130952D02*
X177150000Y-82035714D01*
X177054761Y-82130952D01*
X177150000Y-82226190D01*
X177245238Y-82130952D01*
X177054761Y-82130952D01*
X176578571Y-83940476D02*
X175245238Y-83940476D01*
X177340476Y-83464285D02*
X175911904Y-82988095D01*
X175911904Y-84226190D01*
X176578571Y-84797619D02*
X175245238Y-85178571D01*
X176197619Y-85559523D01*
X175245238Y-85940476D01*
X176578571Y-86321428D01*
X175245238Y-87940476D02*
X177245238Y-87940476D01*
X175340476Y-87940476D02*
X175245238Y-87750000D01*
X175245238Y-87369047D01*
X175340476Y-87178571D01*
X175435714Y-87083333D01*
X175626190Y-86988095D01*
X176197619Y-86988095D01*
X176388095Y-87083333D01*
X176483333Y-87178571D01*
X176578571Y-87369047D01*
X176578571Y-87750000D01*
X176483333Y-87940476D01*
X175435714Y-90035714D02*
X175340476Y-89940476D01*
X175245238Y-89654761D01*
X175245238Y-89464285D01*
X175340476Y-89178571D01*
X175530952Y-88988095D01*
X175721428Y-88892857D01*
X176102380Y-88797619D01*
X176388095Y-88797619D01*
X176769047Y-88892857D01*
X176959523Y-88988095D01*
X177150000Y-89178571D01*
X177245238Y-89464285D01*
X177245238Y-89654761D01*
X177150000Y-89940476D01*
X177054761Y-90035714D01*
X175245238Y-90892857D02*
X177245238Y-90892857D01*
X175245238Y-91750000D02*
X176292857Y-91750000D01*
X176483333Y-91654761D01*
X176578571Y-91464285D01*
X176578571Y-91178571D01*
X176483333Y-90988095D01*
X176388095Y-90892857D01*
X175245238Y-92702380D02*
X176578571Y-92702380D01*
X176197619Y-92702380D02*
X176388095Y-92797619D01*
X176483333Y-92892857D01*
X176578571Y-93083333D01*
X176578571Y-93273809D01*
X175245238Y-94226190D02*
X175340476Y-94035714D01*
X175435714Y-93940476D01*
X175626190Y-93845238D01*
X176197619Y-93845238D01*
X176388095Y-93940476D01*
X176483333Y-94035714D01*
X176578571Y-94226190D01*
X176578571Y-94511904D01*
X176483333Y-94702380D01*
X176388095Y-94797619D01*
X176197619Y-94892857D01*
X175626190Y-94892857D01*
X175435714Y-94797619D01*
X175340476Y-94702380D01*
X175245238Y-94511904D01*
X175245238Y-94226190D01*
X176578571Y-95750000D02*
X175245238Y-95750000D01*
X176388095Y-95750000D02*
X176483333Y-95845238D01*
X176578571Y-96035714D01*
X176578571Y-96321428D01*
X176483333Y-96511904D01*
X176292857Y-96607142D01*
X175245238Y-96607142D01*
X175245238Y-97845238D02*
X175340476Y-97654761D01*
X175435714Y-97559523D01*
X175626190Y-97464285D01*
X176197619Y-97464285D01*
X176388095Y-97559523D01*
X176483333Y-97654761D01*
X176578571Y-97845238D01*
X176578571Y-98130952D01*
X176483333Y-98321428D01*
X176388095Y-98416666D01*
X176197619Y-98511904D01*
X175626190Y-98511904D01*
X175435714Y-98416666D01*
X175340476Y-98321428D01*
X175245238Y-98130952D01*
X175245238Y-97845238D01*
X172040476Y-78702380D02*
X171945238Y-78988095D01*
X171945238Y-79464285D01*
X172040476Y-79654761D01*
X172135714Y-79750000D01*
X172326190Y-79845238D01*
X172516666Y-79845238D01*
X172707142Y-79750000D01*
X172802380Y-79654761D01*
X172897619Y-79464285D01*
X172992857Y-79083333D01*
X173088095Y-78892857D01*
X173183333Y-78797619D01*
X173373809Y-78702380D01*
X173564285Y-78702380D01*
X173754761Y-78797619D01*
X173850000Y-78892857D01*
X173945238Y-79083333D01*
X173945238Y-79559523D01*
X173850000Y-79845238D01*
X171945238Y-80702380D02*
X173945238Y-80702380D01*
X171945238Y-81559523D02*
X172992857Y-81559523D01*
X173183333Y-81464285D01*
X173278571Y-81273809D01*
X173278571Y-80988095D01*
X173183333Y-80797619D01*
X173088095Y-80702380D01*
X171945238Y-82511904D02*
X173278571Y-82511904D01*
X173945238Y-82511904D02*
X173850000Y-82416666D01*
X173754761Y-82511904D01*
X173850000Y-82607142D01*
X173945238Y-82511904D01*
X173754761Y-82511904D01*
X172040476Y-84226190D02*
X171945238Y-84035714D01*
X171945238Y-83654761D01*
X172040476Y-83464285D01*
X172230952Y-83369047D01*
X172992857Y-83369047D01*
X173183333Y-83464285D01*
X173278571Y-83654761D01*
X173278571Y-84035714D01*
X173183333Y-84226190D01*
X172992857Y-84321428D01*
X172802380Y-84321428D01*
X172611904Y-83369047D01*
X171945238Y-85464285D02*
X172040476Y-85273809D01*
X172230952Y-85178571D01*
X173945238Y-85178571D01*
X171945238Y-87083333D02*
X173945238Y-87083333D01*
X172040476Y-87083333D02*
X171945238Y-86892857D01*
X171945238Y-86511904D01*
X172040476Y-86321428D01*
X172135714Y-86226190D01*
X172326190Y-86130952D01*
X172897619Y-86130952D01*
X173088095Y-86226190D01*
X173183333Y-86321428D01*
X173278571Y-86511904D01*
X173278571Y-86892857D01*
X173183333Y-87083333D01*
X171945238Y-90702380D02*
X172897619Y-90035714D01*
X171945238Y-89559523D02*
X173945238Y-89559523D01*
X173945238Y-90321428D01*
X173850000Y-90511904D01*
X173754761Y-90607142D01*
X173564285Y-90702380D01*
X173278571Y-90702380D01*
X173088095Y-90607142D01*
X172992857Y-90511904D01*
X172897619Y-90321428D01*
X172897619Y-89559523D01*
X172040476Y-92321428D02*
X171945238Y-92130952D01*
X171945238Y-91750000D01*
X172040476Y-91559523D01*
X172230952Y-91464285D01*
X172992857Y-91464285D01*
X173183333Y-91559523D01*
X173278571Y-91750000D01*
X173278571Y-92130952D01*
X173183333Y-92321428D01*
X172992857Y-92416666D01*
X172802380Y-92416666D01*
X172611904Y-91464285D01*
X173278571Y-93083333D02*
X171945238Y-93559523D01*
X173278571Y-94035714D01*
X172135714Y-94797619D02*
X172040476Y-94892857D01*
X171945238Y-94797619D01*
X172040476Y-94702380D01*
X172135714Y-94797619D01*
X171945238Y-94797619D01*
X171945238Y-96797619D02*
X171945238Y-95654761D01*
X171945238Y-96226190D02*
X173945238Y-96226190D01*
X173659523Y-96035714D01*
X173469047Y-95845238D01*
X173373809Y-95654761D01*
D11*
X185904761Y-103119047D02*
X185952380Y-102976190D01*
X185952380Y-102738095D01*
X185904761Y-102642857D01*
X185857142Y-102595238D01*
X185761904Y-102547619D01*
X185666666Y-102547619D01*
X185571428Y-102595238D01*
X185523809Y-102642857D01*
X185476190Y-102738095D01*
X185428571Y-102928571D01*
X185380952Y-103023809D01*
X185333333Y-103071428D01*
X185238095Y-103119047D01*
X185142857Y-103119047D01*
X185047619Y-103071428D01*
X185000000Y-103023809D01*
X184952380Y-102928571D01*
X184952380Y-102690476D01*
X185000000Y-102547619D01*
X185428571Y-102119047D02*
X185428571Y-101785714D01*
X185952380Y-101642857D02*
X185952380Y-102119047D01*
X184952380Y-102119047D01*
X184952380Y-101642857D01*
X185952380Y-101214285D02*
X184952380Y-101214285D01*
X185952380Y-100642857D01*
X184952380Y-100642857D01*
X185904761Y-100214285D02*
X185952380Y-100071428D01*
X185952380Y-99833333D01*
X185904761Y-99738095D01*
X185857142Y-99690476D01*
X185761904Y-99642857D01*
X185666666Y-99642857D01*
X185571428Y-99690476D01*
X185523809Y-99738095D01*
X185476190Y-99833333D01*
X185428571Y-100023809D01*
X185380952Y-100119047D01*
X185333333Y-100166666D01*
X185238095Y-100214285D01*
X185142857Y-100214285D01*
X185047619Y-100166666D01*
X185000000Y-100119047D01*
X184952380Y-100023809D01*
X184952380Y-99785714D01*
X185000000Y-99642857D01*
X184952380Y-99023809D02*
X184952380Y-98833333D01*
X185000000Y-98738095D01*
X185095238Y-98642857D01*
X185285714Y-98595238D01*
X185619047Y-98595238D01*
X185809523Y-98642857D01*
X185904761Y-98738095D01*
X185952380Y-98833333D01*
X185952380Y-99023809D01*
X185904761Y-99119047D01*
X185809523Y-99214285D01*
X185619047Y-99261904D01*
X185285714Y-99261904D01*
X185095238Y-99214285D01*
X185000000Y-99119047D01*
X184952380Y-99023809D01*
X185952380Y-97595238D02*
X185476190Y-97928571D01*
X185952380Y-98166666D02*
X184952380Y-98166666D01*
X184952380Y-97785714D01*
X185000000Y-97690476D01*
X185047619Y-97642857D01*
X185142857Y-97595238D01*
X185285714Y-97595238D01*
X185380952Y-97642857D01*
X185428571Y-97690476D01*
X185476190Y-97785714D01*
X185476190Y-98166666D01*
X184952380Y-96500000D02*
X184952380Y-95880952D01*
X185333333Y-96214285D01*
X185333333Y-96071428D01*
X185380952Y-95976190D01*
X185428571Y-95928571D01*
X185523809Y-95880952D01*
X185761904Y-95880952D01*
X185857142Y-95928571D01*
X185904761Y-95976190D01*
X185952380Y-96071428D01*
X185952380Y-96357142D01*
X185904761Y-96452380D01*
X185857142Y-96500000D01*
X185904761Y-92619047D02*
X185952380Y-92476190D01*
X185952380Y-92238095D01*
X185904761Y-92142857D01*
X185857142Y-92095238D01*
X185761904Y-92047619D01*
X185666666Y-92047619D01*
X185571428Y-92095238D01*
X185523809Y-92142857D01*
X185476190Y-92238095D01*
X185428571Y-92428571D01*
X185380952Y-92523809D01*
X185333333Y-92571428D01*
X185238095Y-92619047D01*
X185142857Y-92619047D01*
X185047619Y-92571428D01*
X185000000Y-92523809D01*
X184952380Y-92428571D01*
X184952380Y-92190476D01*
X185000000Y-92047619D01*
X185428571Y-91619047D02*
X185428571Y-91285714D01*
X185952380Y-91142857D02*
X185952380Y-91619047D01*
X184952380Y-91619047D01*
X184952380Y-91142857D01*
X185952380Y-90714285D02*
X184952380Y-90714285D01*
X185952380Y-90142857D01*
X184952380Y-90142857D01*
X185904761Y-89714285D02*
X185952380Y-89571428D01*
X185952380Y-89333333D01*
X185904761Y-89238095D01*
X185857142Y-89190476D01*
X185761904Y-89142857D01*
X185666666Y-89142857D01*
X185571428Y-89190476D01*
X185523809Y-89238095D01*
X185476190Y-89333333D01*
X185428571Y-89523809D01*
X185380952Y-89619047D01*
X185333333Y-89666666D01*
X185238095Y-89714285D01*
X185142857Y-89714285D01*
X185047619Y-89666666D01*
X185000000Y-89619047D01*
X184952380Y-89523809D01*
X184952380Y-89285714D01*
X185000000Y-89142857D01*
X184952380Y-88523809D02*
X184952380Y-88333333D01*
X185000000Y-88238095D01*
X185095238Y-88142857D01*
X185285714Y-88095238D01*
X185619047Y-88095238D01*
X185809523Y-88142857D01*
X185904761Y-88238095D01*
X185952380Y-88333333D01*
X185952380Y-88523809D01*
X185904761Y-88619047D01*
X185809523Y-88714285D01*
X185619047Y-88761904D01*
X185285714Y-88761904D01*
X185095238Y-88714285D01*
X185000000Y-88619047D01*
X184952380Y-88523809D01*
X185952380Y-87095238D02*
X185476190Y-87428571D01*
X185952380Y-87666666D02*
X184952380Y-87666666D01*
X184952380Y-87285714D01*
X185000000Y-87190476D01*
X185047619Y-87142857D01*
X185142857Y-87095238D01*
X185285714Y-87095238D01*
X185380952Y-87142857D01*
X185428571Y-87190476D01*
X185476190Y-87285714D01*
X185476190Y-87666666D01*
X185047619Y-85952380D02*
X185000000Y-85904761D01*
X184952380Y-85809523D01*
X184952380Y-85571428D01*
X185000000Y-85476190D01*
X185047619Y-85428571D01*
X185142857Y-85380952D01*
X185238095Y-85380952D01*
X185380952Y-85428571D01*
X185952380Y-86000000D01*
X185952380Y-85380952D01*
X185904761Y-82119047D02*
X185952380Y-81976190D01*
X185952380Y-81738095D01*
X185904761Y-81642857D01*
X185857142Y-81595238D01*
X185761904Y-81547619D01*
X185666666Y-81547619D01*
X185571428Y-81595238D01*
X185523809Y-81642857D01*
X185476190Y-81738095D01*
X185428571Y-81928571D01*
X185380952Y-82023809D01*
X185333333Y-82071428D01*
X185238095Y-82119047D01*
X185142857Y-82119047D01*
X185047619Y-82071428D01*
X185000000Y-82023809D01*
X184952380Y-81928571D01*
X184952380Y-81690476D01*
X185000000Y-81547619D01*
X185428571Y-81119047D02*
X185428571Y-80785714D01*
X185952380Y-80642857D02*
X185952380Y-81119047D01*
X184952380Y-81119047D01*
X184952380Y-80642857D01*
X185952380Y-80214285D02*
X184952380Y-80214285D01*
X185952380Y-79642857D01*
X184952380Y-79642857D01*
X185904761Y-79214285D02*
X185952380Y-79071428D01*
X185952380Y-78833333D01*
X185904761Y-78738095D01*
X185857142Y-78690476D01*
X185761904Y-78642857D01*
X185666666Y-78642857D01*
X185571428Y-78690476D01*
X185523809Y-78738095D01*
X185476190Y-78833333D01*
X185428571Y-79023809D01*
X185380952Y-79119047D01*
X185333333Y-79166666D01*
X185238095Y-79214285D01*
X185142857Y-79214285D01*
X185047619Y-79166666D01*
X185000000Y-79119047D01*
X184952380Y-79023809D01*
X184952380Y-78785714D01*
X185000000Y-78642857D01*
X184952380Y-78023809D02*
X184952380Y-77833333D01*
X185000000Y-77738095D01*
X185095238Y-77642857D01*
X185285714Y-77595238D01*
X185619047Y-77595238D01*
X185809523Y-77642857D01*
X185904761Y-77738095D01*
X185952380Y-77833333D01*
X185952380Y-78023809D01*
X185904761Y-78119047D01*
X185809523Y-78214285D01*
X185619047Y-78261904D01*
X185285714Y-78261904D01*
X185095238Y-78214285D01*
X185000000Y-78119047D01*
X184952380Y-78023809D01*
X185952380Y-76595238D02*
X185476190Y-76928571D01*
X185952380Y-77166666D02*
X184952380Y-77166666D01*
X184952380Y-76785714D01*
X185000000Y-76690476D01*
X185047619Y-76642857D01*
X185142857Y-76595238D01*
X185285714Y-76595238D01*
X185380952Y-76642857D01*
X185428571Y-76690476D01*
X185476190Y-76785714D01*
X185476190Y-77166666D01*
X185952380Y-74880952D02*
X185952380Y-75452380D01*
X185952380Y-75166666D02*
X184952380Y-75166666D01*
X185095238Y-75261904D01*
X185190476Y-75357142D01*
X185238095Y-75452380D01*
X163047619Y-91250000D02*
X163047619Y-90773809D01*
X164047619Y-90773809D01*
X163571428Y-91583333D02*
X163571428Y-91916666D01*
X163047619Y-92059523D02*
X163047619Y-91583333D01*
X164047619Y-91583333D01*
X164047619Y-92059523D01*
X163047619Y-92488095D02*
X164047619Y-92488095D01*
X164047619Y-92726190D01*
X164000000Y-92869047D01*
X163904761Y-92964285D01*
X163809523Y-93011904D01*
X163619047Y-93059523D01*
X163476190Y-93059523D01*
X163285714Y-93011904D01*
X163190476Y-92964285D01*
X163095238Y-92869047D01*
X163047619Y-92726190D01*
X163047619Y-92488095D01*
X164047619Y-94154761D02*
X164047619Y-94773809D01*
X163666666Y-94440476D01*
X163666666Y-94583333D01*
X163619047Y-94678571D01*
X163571428Y-94726190D01*
X163476190Y-94773809D01*
X163238095Y-94773809D01*
X163142857Y-94726190D01*
X163095238Y-94678571D01*
X163047619Y-94583333D01*
X163047619Y-94297619D01*
X163095238Y-94202380D01*
X163142857Y-94154761D01*
X163047619Y-83250000D02*
X163047619Y-82773809D01*
X164047619Y-82773809D01*
X163571428Y-83583333D02*
X163571428Y-83916666D01*
X163047619Y-84059523D02*
X163047619Y-83583333D01*
X164047619Y-83583333D01*
X164047619Y-84059523D01*
X163047619Y-84488095D02*
X164047619Y-84488095D01*
X164047619Y-84726190D01*
X164000000Y-84869047D01*
X163904761Y-84964285D01*
X163809523Y-85011904D01*
X163619047Y-85059523D01*
X163476190Y-85059523D01*
X163285714Y-85011904D01*
X163190476Y-84964285D01*
X163095238Y-84869047D01*
X163047619Y-84726190D01*
X163047619Y-84488095D01*
X163952380Y-86202380D02*
X164000000Y-86250000D01*
X164047619Y-86345238D01*
X164047619Y-86583333D01*
X164000000Y-86678571D01*
X163952380Y-86726190D01*
X163857142Y-86773809D01*
X163761904Y-86773809D01*
X163619047Y-86726190D01*
X163047619Y-86154761D01*
X163047619Y-86773809D01*
X163047619Y-75250000D02*
X163047619Y-74773809D01*
X164047619Y-74773809D01*
X163571428Y-75583333D02*
X163571428Y-75916666D01*
X163047619Y-76059523D02*
X163047619Y-75583333D01*
X164047619Y-75583333D01*
X164047619Y-76059523D01*
X163047619Y-76488095D02*
X164047619Y-76488095D01*
X164047619Y-76726190D01*
X164000000Y-76869047D01*
X163904761Y-76964285D01*
X163809523Y-77011904D01*
X163619047Y-77059523D01*
X163476190Y-77059523D01*
X163285714Y-77011904D01*
X163190476Y-76964285D01*
X163095238Y-76869047D01*
X163047619Y-76726190D01*
X163047619Y-76488095D01*
X163047619Y-78773809D02*
X163047619Y-78202380D01*
X163047619Y-78488095D02*
X164047619Y-78488095D01*
X163904761Y-78392857D01*
X163809523Y-78297619D01*
X163761904Y-78202380D01*
X156047619Y-87226190D02*
X156523809Y-86892857D01*
X156047619Y-86654761D02*
X157047619Y-86654761D01*
X157047619Y-87035714D01*
X157000000Y-87130952D01*
X156952380Y-87178571D01*
X156857142Y-87226190D01*
X156714285Y-87226190D01*
X156619047Y-87178571D01*
X156571428Y-87130952D01*
X156523809Y-87035714D01*
X156523809Y-86654761D01*
X157000000Y-88178571D02*
X157047619Y-88083333D01*
X157047619Y-87940476D01*
X157000000Y-87797619D01*
X156904761Y-87702380D01*
X156809523Y-87654761D01*
X156619047Y-87607142D01*
X156476190Y-87607142D01*
X156285714Y-87654761D01*
X156190476Y-87702380D01*
X156095238Y-87797619D01*
X156047619Y-87940476D01*
X156047619Y-88035714D01*
X156095238Y-88178571D01*
X156142857Y-88226190D01*
X156476190Y-88226190D01*
X156476190Y-88035714D01*
X156571428Y-88988095D02*
X156523809Y-89130952D01*
X156476190Y-89178571D01*
X156380952Y-89226190D01*
X156238095Y-89226190D01*
X156142857Y-89178571D01*
X156095238Y-89130952D01*
X156047619Y-89035714D01*
X156047619Y-88654761D01*
X157047619Y-88654761D01*
X157047619Y-88988095D01*
X157000000Y-89083333D01*
X156952380Y-89130952D01*
X156857142Y-89178571D01*
X156761904Y-89178571D01*
X156666666Y-89130952D01*
X156619047Y-89083333D01*
X156571428Y-88988095D01*
X156571428Y-88654761D01*
X156095238Y-90369047D02*
X156047619Y-90511904D01*
X156047619Y-90750000D01*
X156095238Y-90845238D01*
X156142857Y-90892857D01*
X156238095Y-90940476D01*
X156333333Y-90940476D01*
X156428571Y-90892857D01*
X156476190Y-90845238D01*
X156523809Y-90750000D01*
X156571428Y-90559523D01*
X156619047Y-90464285D01*
X156666666Y-90416666D01*
X156761904Y-90369047D01*
X156857142Y-90369047D01*
X156952380Y-90416666D01*
X157000000Y-90464285D01*
X157047619Y-90559523D01*
X157047619Y-90797619D01*
X157000000Y-90940476D01*
X157047619Y-91226190D02*
X157047619Y-91797619D01*
X156047619Y-91511904D02*
X157047619Y-91511904D01*
X156047619Y-92702380D02*
X156523809Y-92369047D01*
X156047619Y-92130952D02*
X157047619Y-92130952D01*
X157047619Y-92511904D01*
X157000000Y-92607142D01*
X156952380Y-92654761D01*
X156857142Y-92702380D01*
X156714285Y-92702380D01*
X156619047Y-92654761D01*
X156571428Y-92607142D01*
X156523809Y-92511904D01*
X156523809Y-92130952D01*
X156047619Y-93130952D02*
X157047619Y-93130952D01*
X156047619Y-93607142D02*
X157047619Y-93607142D01*
X157047619Y-93988095D01*
X157000000Y-94083333D01*
X156952380Y-94130952D01*
X156857142Y-94178571D01*
X156714285Y-94178571D01*
X156619047Y-94130952D01*
X156571428Y-94083333D01*
X156523809Y-93988095D01*
X156523809Y-93607142D01*
X156952380Y-95321428D02*
X157000000Y-95369047D01*
X157047619Y-95464285D01*
X157047619Y-95702380D01*
X157000000Y-95797619D01*
X156952380Y-95845238D01*
X156857142Y-95892857D01*
X156761904Y-95892857D01*
X156619047Y-95845238D01*
X156047619Y-95273809D01*
X156047619Y-95892857D01*
X156047619Y-75226190D02*
X156523809Y-74892857D01*
X156047619Y-74654761D02*
X157047619Y-74654761D01*
X157047619Y-75035714D01*
X157000000Y-75130952D01*
X156952380Y-75178571D01*
X156857142Y-75226190D01*
X156714285Y-75226190D01*
X156619047Y-75178571D01*
X156571428Y-75130952D01*
X156523809Y-75035714D01*
X156523809Y-74654761D01*
X157000000Y-76178571D02*
X157047619Y-76083333D01*
X157047619Y-75940476D01*
X157000000Y-75797619D01*
X156904761Y-75702380D01*
X156809523Y-75654761D01*
X156619047Y-75607142D01*
X156476190Y-75607142D01*
X156285714Y-75654761D01*
X156190476Y-75702380D01*
X156095238Y-75797619D01*
X156047619Y-75940476D01*
X156047619Y-76035714D01*
X156095238Y-76178571D01*
X156142857Y-76226190D01*
X156476190Y-76226190D01*
X156476190Y-76035714D01*
X156571428Y-76988095D02*
X156523809Y-77130952D01*
X156476190Y-77178571D01*
X156380952Y-77226190D01*
X156238095Y-77226190D01*
X156142857Y-77178571D01*
X156095238Y-77130952D01*
X156047619Y-77035714D01*
X156047619Y-76654761D01*
X157047619Y-76654761D01*
X157047619Y-76988095D01*
X157000000Y-77083333D01*
X156952380Y-77130952D01*
X156857142Y-77178571D01*
X156761904Y-77178571D01*
X156666666Y-77130952D01*
X156619047Y-77083333D01*
X156571428Y-76988095D01*
X156571428Y-76654761D01*
X156095238Y-78369047D02*
X156047619Y-78511904D01*
X156047619Y-78750000D01*
X156095238Y-78845238D01*
X156142857Y-78892857D01*
X156238095Y-78940476D01*
X156333333Y-78940476D01*
X156428571Y-78892857D01*
X156476190Y-78845238D01*
X156523809Y-78750000D01*
X156571428Y-78559523D01*
X156619047Y-78464285D01*
X156666666Y-78416666D01*
X156761904Y-78369047D01*
X156857142Y-78369047D01*
X156952380Y-78416666D01*
X157000000Y-78464285D01*
X157047619Y-78559523D01*
X157047619Y-78797619D01*
X157000000Y-78940476D01*
X157047619Y-79226190D02*
X157047619Y-79797619D01*
X156047619Y-79511904D02*
X157047619Y-79511904D01*
X156047619Y-80702380D02*
X156523809Y-80369047D01*
X156047619Y-80130952D02*
X157047619Y-80130952D01*
X157047619Y-80511904D01*
X157000000Y-80607142D01*
X156952380Y-80654761D01*
X156857142Y-80702380D01*
X156714285Y-80702380D01*
X156619047Y-80654761D01*
X156571428Y-80607142D01*
X156523809Y-80511904D01*
X156523809Y-80130952D01*
X156047619Y-81130952D02*
X157047619Y-81130952D01*
X156047619Y-81607142D02*
X157047619Y-81607142D01*
X157047619Y-81988095D01*
X157000000Y-82083333D01*
X156952380Y-82130952D01*
X156857142Y-82178571D01*
X156714285Y-82178571D01*
X156619047Y-82130952D01*
X156571428Y-82083333D01*
X156523809Y-81988095D01*
X156523809Y-81607142D01*
X156047619Y-83892857D02*
X156047619Y-83321428D01*
X156047619Y-83607142D02*
X157047619Y-83607142D01*
X156904761Y-83511904D01*
X156809523Y-83416666D01*
X156761904Y-83321428D01*
X156095238Y-98880952D02*
X156047619Y-99023809D01*
X156047619Y-99261904D01*
X156095238Y-99357142D01*
X156142857Y-99404761D01*
X156238095Y-99452380D01*
X156333333Y-99452380D01*
X156428571Y-99404761D01*
X156476190Y-99357142D01*
X156523809Y-99261904D01*
X156571428Y-99071428D01*
X156619047Y-98976190D01*
X156666666Y-98928571D01*
X156761904Y-98880952D01*
X156857142Y-98880952D01*
X156952380Y-98928571D01*
X157000000Y-98976190D01*
X157047619Y-99071428D01*
X157047619Y-99309523D01*
X157000000Y-99452380D01*
X156047619Y-99880952D02*
X157047619Y-99880952D01*
X157047619Y-100261904D01*
X157000000Y-100357142D01*
X156952380Y-100404761D01*
X156857142Y-100452380D01*
X156714285Y-100452380D01*
X156619047Y-100404761D01*
X156571428Y-100357142D01*
X156523809Y-100261904D01*
X156523809Y-99880952D01*
X156571428Y-100880952D02*
X156571428Y-101214285D01*
X156047619Y-101357142D02*
X156047619Y-100880952D01*
X157047619Y-100880952D01*
X157047619Y-101357142D01*
X156333333Y-101738095D02*
X156333333Y-102214285D01*
X156047619Y-101642857D02*
X157047619Y-101976190D01*
X156047619Y-102309523D01*
X156047619Y-102642857D02*
X157047619Y-102642857D01*
X156047619Y-103214285D02*
X156619047Y-102785714D01*
X157047619Y-103214285D02*
X156476190Y-102642857D01*
X156571428Y-103642857D02*
X156571428Y-103976190D01*
X156047619Y-104119047D02*
X156047619Y-103642857D01*
X157047619Y-103642857D01*
X157047619Y-104119047D01*
X156047619Y-105119047D02*
X156523809Y-104785714D01*
X156047619Y-104547619D02*
X157047619Y-104547619D01*
X157047619Y-104928571D01*
X157000000Y-105023809D01*
X156952380Y-105071428D01*
X156857142Y-105119047D01*
X156714285Y-105119047D01*
X156619047Y-105071428D01*
X156571428Y-105023809D01*
X156523809Y-104928571D01*
X156523809Y-104547619D01*
X187452380Y-96988095D02*
X186452380Y-96988095D01*
X186452380Y-96750000D01*
X186500000Y-96607142D01*
X186595238Y-96511904D01*
X186690476Y-96464285D01*
X186880952Y-96416666D01*
X187023809Y-96416666D01*
X187214285Y-96464285D01*
X187309523Y-96511904D01*
X187404761Y-96607142D01*
X187452380Y-96750000D01*
X187452380Y-96988095D01*
X186880952Y-95845238D02*
X186833333Y-95940476D01*
X186785714Y-95988095D01*
X186690476Y-96035714D01*
X186642857Y-96035714D01*
X186547619Y-95988095D01*
X186500000Y-95940476D01*
X186452380Y-95845238D01*
X186452380Y-95654761D01*
X186500000Y-95559523D01*
X186547619Y-95511904D01*
X186642857Y-95464285D01*
X186690476Y-95464285D01*
X186785714Y-95511904D01*
X186833333Y-95559523D01*
X186880952Y-95654761D01*
X186880952Y-95845238D01*
X186928571Y-95940476D01*
X186976190Y-95988095D01*
X187071428Y-96035714D01*
X187261904Y-96035714D01*
X187357142Y-95988095D01*
X187404761Y-95940476D01*
X187452380Y-95845238D01*
X187452380Y-95654761D01*
X187404761Y-95559523D01*
X187357142Y-95511904D01*
X187261904Y-95464285D01*
X187071428Y-95464285D01*
X186976190Y-95511904D01*
X186928571Y-95559523D01*
X186880952Y-95654761D01*
X187452380Y-86238095D02*
X186452380Y-86238095D01*
X186452380Y-86000000D01*
X186500000Y-85857142D01*
X186595238Y-85761904D01*
X186690476Y-85714285D01*
X186880952Y-85666666D01*
X187023809Y-85666666D01*
X187214285Y-85714285D01*
X187309523Y-85761904D01*
X187404761Y-85857142D01*
X187452380Y-86000000D01*
X187452380Y-86238095D01*
X186452380Y-85333333D02*
X186452380Y-84666666D01*
X187452380Y-85095238D01*
X187452380Y-75738095D02*
X186452380Y-75738095D01*
X186452380Y-75500000D01*
X186500000Y-75357142D01*
X186595238Y-75261904D01*
X186690476Y-75214285D01*
X186880952Y-75166666D01*
X187023809Y-75166666D01*
X187214285Y-75214285D01*
X187309523Y-75261904D01*
X187404761Y-75357142D01*
X187452380Y-75500000D01*
X187452380Y-75738095D01*
X186452380Y-74309523D02*
X186452380Y-74500000D01*
X186500000Y-74595238D01*
X186547619Y-74642857D01*
X186690476Y-74738095D01*
X186880952Y-74785714D01*
X187261904Y-74785714D01*
X187357142Y-74738095D01*
X187404761Y-74690476D01*
X187452380Y-74595238D01*
X187452380Y-74404761D01*
X187404761Y-74309523D01*
X187357142Y-74261904D01*
X187261904Y-74214285D01*
X187023809Y-74214285D01*
X186928571Y-74261904D01*
X186880952Y-74309523D01*
X186833333Y-74404761D01*
X186833333Y-74595238D01*
X186880952Y-74690476D01*
X186928571Y-74738095D01*
X187023809Y-74785714D01*
X161547619Y-94011904D02*
X162547619Y-94011904D01*
X162547619Y-94250000D01*
X162500000Y-94392857D01*
X162404761Y-94488095D01*
X162309523Y-94535714D01*
X162119047Y-94583333D01*
X161976190Y-94583333D01*
X161785714Y-94535714D01*
X161690476Y-94488095D01*
X161595238Y-94392857D01*
X161547619Y-94250000D01*
X161547619Y-94011904D01*
X162547619Y-95488095D02*
X162547619Y-95011904D01*
X162071428Y-94964285D01*
X162119047Y-95011904D01*
X162166666Y-95107142D01*
X162166666Y-95345238D01*
X162119047Y-95440476D01*
X162071428Y-95488095D01*
X161976190Y-95535714D01*
X161738095Y-95535714D01*
X161642857Y-95488095D01*
X161595238Y-95440476D01*
X161547619Y-95345238D01*
X161547619Y-95107142D01*
X161595238Y-95011904D01*
X161642857Y-94964285D01*
X154547619Y-90511904D02*
X155547619Y-90511904D01*
X155547619Y-90750000D01*
X155500000Y-90892857D01*
X155404761Y-90988095D01*
X155309523Y-91035714D01*
X155119047Y-91083333D01*
X154976190Y-91083333D01*
X154785714Y-91035714D01*
X154690476Y-90988095D01*
X154595238Y-90892857D01*
X154547619Y-90750000D01*
X154547619Y-90511904D01*
X155214285Y-91940476D02*
X154547619Y-91940476D01*
X155595238Y-91702380D02*
X154880952Y-91464285D01*
X154880952Y-92083333D01*
X161547619Y-86011904D02*
X162547619Y-86011904D01*
X162547619Y-86250000D01*
X162500000Y-86392857D01*
X162404761Y-86488095D01*
X162309523Y-86535714D01*
X162119047Y-86583333D01*
X161976190Y-86583333D01*
X161785714Y-86535714D01*
X161690476Y-86488095D01*
X161595238Y-86392857D01*
X161547619Y-86250000D01*
X161547619Y-86011904D01*
X162214285Y-87440476D02*
X161547619Y-87440476D01*
X162595238Y-87202380D02*
X161880952Y-86964285D01*
X161880952Y-87583333D01*
X154547619Y-78511904D02*
X155547619Y-78511904D01*
X155547619Y-78750000D01*
X155500000Y-78892857D01*
X155404761Y-78988095D01*
X155309523Y-79035714D01*
X155119047Y-79083333D01*
X154976190Y-79083333D01*
X154785714Y-79035714D01*
X154690476Y-78988095D01*
X154595238Y-78892857D01*
X154547619Y-78750000D01*
X154547619Y-78511904D01*
X155547619Y-79416666D02*
X155547619Y-80035714D01*
X155166666Y-79702380D01*
X155166666Y-79845238D01*
X155119047Y-79940476D01*
X155071428Y-79988095D01*
X154976190Y-80035714D01*
X154738095Y-80035714D01*
X154642857Y-79988095D01*
X154595238Y-79940476D01*
X154547619Y-79845238D01*
X154547619Y-79559523D01*
X154595238Y-79464285D01*
X154642857Y-79416666D01*
X161547619Y-78011904D02*
X162547619Y-78011904D01*
X162547619Y-78250000D01*
X162500000Y-78392857D01*
X162404761Y-78488095D01*
X162309523Y-78535714D01*
X162119047Y-78583333D01*
X161976190Y-78583333D01*
X161785714Y-78535714D01*
X161690476Y-78488095D01*
X161595238Y-78392857D01*
X161547619Y-78250000D01*
X161547619Y-78011904D01*
X162547619Y-78916666D02*
X162547619Y-79535714D01*
X162166666Y-79202380D01*
X162166666Y-79345238D01*
X162119047Y-79440476D01*
X162071428Y-79488095D01*
X161976190Y-79535714D01*
X161738095Y-79535714D01*
X161642857Y-79488095D01*
X161595238Y-79440476D01*
X161547619Y-79345238D01*
X161547619Y-79059523D01*
X161595238Y-78964285D01*
X161642857Y-78916666D01*
X154547619Y-99011904D02*
X155547619Y-99011904D01*
X155547619Y-99250000D01*
X155500000Y-99392857D01*
X155404761Y-99488095D01*
X155309523Y-99535714D01*
X155119047Y-99583333D01*
X154976190Y-99583333D01*
X154785714Y-99535714D01*
X154690476Y-99488095D01*
X154595238Y-99392857D01*
X154547619Y-99250000D01*
X154547619Y-99011904D01*
X155452380Y-99964285D02*
X155500000Y-100011904D01*
X155547619Y-100107142D01*
X155547619Y-100345238D01*
X155500000Y-100440476D01*
X155452380Y-100488095D01*
X155357142Y-100535714D01*
X155261904Y-100535714D01*
X155119047Y-100488095D01*
X154547619Y-99916666D01*
X154547619Y-100535714D01*
X162535714Y-107452380D02*
X162535714Y-106452380D01*
X162773809Y-106452380D01*
X162916666Y-106500000D01*
X163011904Y-106595238D01*
X163059523Y-106690476D01*
X163107142Y-106880952D01*
X163107142Y-107023809D01*
X163059523Y-107214285D01*
X163011904Y-107309523D01*
X162916666Y-107404761D01*
X162773809Y-107452380D01*
X162535714Y-107452380D01*
X164059523Y-107452380D02*
X163488095Y-107452380D01*
X163773809Y-107452380D02*
X163773809Y-106452380D01*
X163678571Y-106595238D01*
X163583333Y-106690476D01*
X163488095Y-106738095D01*
X164678571Y-106452380D02*
X164773809Y-106452380D01*
X164869047Y-106500000D01*
X164916666Y-106547619D01*
X164964285Y-106642857D01*
X165011904Y-106833333D01*
X165011904Y-107071428D01*
X164964285Y-107261904D01*
X164916666Y-107357142D01*
X164869047Y-107404761D01*
X164773809Y-107452380D01*
X164678571Y-107452380D01*
X164583333Y-107404761D01*
X164535714Y-107357142D01*
X164488095Y-107261904D01*
X164440476Y-107071428D01*
X164440476Y-106833333D01*
X164488095Y-106642857D01*
X164535714Y-106547619D01*
X164583333Y-106500000D01*
X164678571Y-106452380D01*
X159261904Y-107452380D02*
X159261904Y-106452380D01*
X159500000Y-106452380D01*
X159642857Y-106500000D01*
X159738095Y-106595238D01*
X159785714Y-106690476D01*
X159833333Y-106880952D01*
X159833333Y-107023809D01*
X159785714Y-107214285D01*
X159738095Y-107309523D01*
X159642857Y-107404761D01*
X159500000Y-107452380D01*
X159261904Y-107452380D01*
X160309523Y-107452380D02*
X160500000Y-107452380D01*
X160595238Y-107404761D01*
X160642857Y-107357142D01*
X160738095Y-107214285D01*
X160785714Y-107023809D01*
X160785714Y-106642857D01*
X160738095Y-106547619D01*
X160690476Y-106500000D01*
X160595238Y-106452380D01*
X160404761Y-106452380D01*
X160309523Y-106500000D01*
X160261904Y-106547619D01*
X160214285Y-106642857D01*
X160214285Y-106880952D01*
X160261904Y-106976190D01*
X160309523Y-107023809D01*
X160404761Y-107071428D01*
X160595238Y-107071428D01*
X160690476Y-107023809D01*
X160738095Y-106976190D01*
X160785714Y-106880952D01*
X186452380Y-82833333D02*
X187452380Y-82500000D01*
X186452380Y-82166666D01*
X187357142Y-81261904D02*
X187404761Y-81309523D01*
X187452380Y-81452380D01*
X187452380Y-81547619D01*
X187404761Y-81690476D01*
X187309523Y-81785714D01*
X187214285Y-81833333D01*
X187023809Y-81880952D01*
X186880952Y-81880952D01*
X186690476Y-81833333D01*
X186595238Y-81785714D01*
X186500000Y-81690476D01*
X186452380Y-81547619D01*
X186452380Y-81452380D01*
X186500000Y-81309523D01*
X186547619Y-81261904D01*
X187357142Y-80261904D02*
X187404761Y-80309523D01*
X187452380Y-80452380D01*
X187452380Y-80547619D01*
X187404761Y-80690476D01*
X187309523Y-80785714D01*
X187214285Y-80833333D01*
X187023809Y-80880952D01*
X186880952Y-80880952D01*
X186690476Y-80833333D01*
X186595238Y-80785714D01*
X186500000Y-80690476D01*
X186452380Y-80547619D01*
X186452380Y-80452380D01*
X186500000Y-80309523D01*
X186547619Y-80261904D01*
X186452380Y-93333333D02*
X187452380Y-93000000D01*
X186452380Y-92666666D01*
X187357142Y-91761904D02*
X187404761Y-91809523D01*
X187452380Y-91952380D01*
X187452380Y-92047619D01*
X187404761Y-92190476D01*
X187309523Y-92285714D01*
X187214285Y-92333333D01*
X187023809Y-92380952D01*
X186880952Y-92380952D01*
X186690476Y-92333333D01*
X186595238Y-92285714D01*
X186500000Y-92190476D01*
X186452380Y-92047619D01*
X186452380Y-91952380D01*
X186500000Y-91809523D01*
X186547619Y-91761904D01*
X187357142Y-90761904D02*
X187404761Y-90809523D01*
X187452380Y-90952380D01*
X187452380Y-91047619D01*
X187404761Y-91190476D01*
X187309523Y-91285714D01*
X187214285Y-91333333D01*
X187023809Y-91380952D01*
X186880952Y-91380952D01*
X186690476Y-91333333D01*
X186595238Y-91285714D01*
X186500000Y-91190476D01*
X186452380Y-91047619D01*
X186452380Y-90952380D01*
X186500000Y-90809523D01*
X186547619Y-90761904D01*
X186452380Y-103833333D02*
X187452380Y-103500000D01*
X186452380Y-103166666D01*
X187357142Y-102261904D02*
X187404761Y-102309523D01*
X187452380Y-102452380D01*
X187452380Y-102547619D01*
X187404761Y-102690476D01*
X187309523Y-102785714D01*
X187214285Y-102833333D01*
X187023809Y-102880952D01*
X186880952Y-102880952D01*
X186690476Y-102833333D01*
X186595238Y-102785714D01*
X186500000Y-102690476D01*
X186452380Y-102547619D01*
X186452380Y-102452380D01*
X186500000Y-102309523D01*
X186547619Y-102261904D01*
X187357142Y-101261904D02*
X187404761Y-101309523D01*
X187452380Y-101452380D01*
X187452380Y-101547619D01*
X187404761Y-101690476D01*
X187309523Y-101785714D01*
X187214285Y-101833333D01*
X187023809Y-101880952D01*
X186880952Y-101880952D01*
X186690476Y-101833333D01*
X186595238Y-101785714D01*
X186500000Y-101690476D01*
X186452380Y-101547619D01*
X186452380Y-101452380D01*
X186500000Y-101309523D01*
X186547619Y-101261904D01*
X175166666Y-106452380D02*
X175500000Y-107452380D01*
X175833333Y-106452380D01*
X176738095Y-107357142D02*
X176690476Y-107404761D01*
X176547619Y-107452380D01*
X176452380Y-107452380D01*
X176309523Y-107404761D01*
X176214285Y-107309523D01*
X176166666Y-107214285D01*
X176119047Y-107023809D01*
X176119047Y-106880952D01*
X176166666Y-106690476D01*
X176214285Y-106595238D01*
X176309523Y-106500000D01*
X176452380Y-106452380D01*
X176547619Y-106452380D01*
X176690476Y-106500000D01*
X176738095Y-106547619D01*
X177738095Y-107357142D02*
X177690476Y-107404761D01*
X177547619Y-107452380D01*
X177452380Y-107452380D01*
X177309523Y-107404761D01*
X177214285Y-107309523D01*
X177166666Y-107214285D01*
X177119047Y-107023809D01*
X177119047Y-106880952D01*
X177166666Y-106690476D01*
X177214285Y-106595238D01*
X177309523Y-106500000D01*
X177452380Y-106452380D01*
X177547619Y-106452380D01*
X177690476Y-106500000D01*
X177738095Y-106547619D01*
X171916666Y-106452380D02*
X172250000Y-107452380D01*
X172583333Y-106452380D01*
X173488095Y-107357142D02*
X173440476Y-107404761D01*
X173297619Y-107452380D01*
X173202380Y-107452380D01*
X173059523Y-107404761D01*
X172964285Y-107309523D01*
X172916666Y-107214285D01*
X172869047Y-107023809D01*
X172869047Y-106880952D01*
X172916666Y-106690476D01*
X172964285Y-106595238D01*
X173059523Y-106500000D01*
X173202380Y-106452380D01*
X173297619Y-106452380D01*
X173440476Y-106500000D01*
X173488095Y-106547619D01*
X174488095Y-107357142D02*
X174440476Y-107404761D01*
X174297619Y-107452380D01*
X174202380Y-107452380D01*
X174059523Y-107404761D01*
X173964285Y-107309523D01*
X173916666Y-107214285D01*
X173869047Y-107023809D01*
X173869047Y-106880952D01*
X173916666Y-106690476D01*
X173964285Y-106595238D01*
X174059523Y-106500000D01*
X174202380Y-106452380D01*
X174297619Y-106452380D01*
X174440476Y-106500000D01*
X174488095Y-106547619D01*
X168666666Y-106452380D02*
X169000000Y-107452380D01*
X169333333Y-106452380D01*
X170238095Y-107357142D02*
X170190476Y-107404761D01*
X170047619Y-107452380D01*
X169952380Y-107452380D01*
X169809523Y-107404761D01*
X169714285Y-107309523D01*
X169666666Y-107214285D01*
X169619047Y-107023809D01*
X169619047Y-106880952D01*
X169666666Y-106690476D01*
X169714285Y-106595238D01*
X169809523Y-106500000D01*
X169952380Y-106452380D01*
X170047619Y-106452380D01*
X170190476Y-106500000D01*
X170238095Y-106547619D01*
X171238095Y-107357142D02*
X171190476Y-107404761D01*
X171047619Y-107452380D01*
X170952380Y-107452380D01*
X170809523Y-107404761D01*
X170714285Y-107309523D01*
X170666666Y-107214285D01*
X170619047Y-107023809D01*
X170619047Y-106880952D01*
X170666666Y-106690476D01*
X170714285Y-106595238D01*
X170809523Y-106500000D01*
X170952380Y-106452380D01*
X171047619Y-106452380D01*
X171190476Y-106500000D01*
X171238095Y-106547619D01*
X155547619Y-92916666D02*
X154547619Y-93250000D01*
X155547619Y-93583333D01*
X154642857Y-94488095D02*
X154595238Y-94440476D01*
X154547619Y-94297619D01*
X154547619Y-94202380D01*
X154595238Y-94059523D01*
X154690476Y-93964285D01*
X154785714Y-93916666D01*
X154976190Y-93869047D01*
X155119047Y-93869047D01*
X155309523Y-93916666D01*
X155404761Y-93964285D01*
X155500000Y-94059523D01*
X155547619Y-94202380D01*
X155547619Y-94297619D01*
X155500000Y-94440476D01*
X155452380Y-94488095D01*
X154642857Y-95488095D02*
X154595238Y-95440476D01*
X154547619Y-95297619D01*
X154547619Y-95202380D01*
X154595238Y-95059523D01*
X154690476Y-94964285D01*
X154785714Y-94916666D01*
X154976190Y-94869047D01*
X155119047Y-94869047D01*
X155309523Y-94916666D01*
X155404761Y-94964285D01*
X155500000Y-95059523D01*
X155547619Y-95202380D01*
X155547619Y-95297619D01*
X155500000Y-95440476D01*
X155452380Y-95488095D01*
X155547619Y-80916666D02*
X154547619Y-81250000D01*
X155547619Y-81583333D01*
X154642857Y-82488095D02*
X154595238Y-82440476D01*
X154547619Y-82297619D01*
X154547619Y-82202380D01*
X154595238Y-82059523D01*
X154690476Y-81964285D01*
X154785714Y-81916666D01*
X154976190Y-81869047D01*
X155119047Y-81869047D01*
X155309523Y-81916666D01*
X155404761Y-81964285D01*
X155500000Y-82059523D01*
X155547619Y-82202380D01*
X155547619Y-82297619D01*
X155500000Y-82440476D01*
X155452380Y-82488095D01*
X154642857Y-83488095D02*
X154595238Y-83440476D01*
X154547619Y-83297619D01*
X154547619Y-83202380D01*
X154595238Y-83059523D01*
X154690476Y-82964285D01*
X154785714Y-82916666D01*
X154976190Y-82869047D01*
X155119047Y-82869047D01*
X155309523Y-82916666D01*
X155404761Y-82964285D01*
X155500000Y-83059523D01*
X155547619Y-83202380D01*
X155547619Y-83297619D01*
X155500000Y-83440476D01*
X155452380Y-83488095D01*
X186500000Y-79011904D02*
X186452380Y-79107142D01*
X186452380Y-79250000D01*
X186500000Y-79392857D01*
X186595238Y-79488095D01*
X186690476Y-79535714D01*
X186880952Y-79583333D01*
X187023809Y-79583333D01*
X187214285Y-79535714D01*
X187309523Y-79488095D01*
X187404761Y-79392857D01*
X187452380Y-79250000D01*
X187452380Y-79154761D01*
X187404761Y-79011904D01*
X187357142Y-78964285D01*
X187023809Y-78964285D01*
X187023809Y-79154761D01*
X187452380Y-78535714D02*
X186452380Y-78535714D01*
X187452380Y-77964285D01*
X186452380Y-77964285D01*
X187452380Y-77488095D02*
X186452380Y-77488095D01*
X186452380Y-77250000D01*
X186500000Y-77107142D01*
X186595238Y-77011904D01*
X186690476Y-76964285D01*
X186880952Y-76916666D01*
X187023809Y-76916666D01*
X187214285Y-76964285D01*
X187309523Y-77011904D01*
X187404761Y-77107142D01*
X187452380Y-77250000D01*
X187452380Y-77488095D01*
X186500000Y-89511904D02*
X186452380Y-89607142D01*
X186452380Y-89750000D01*
X186500000Y-89892857D01*
X186595238Y-89988095D01*
X186690476Y-90035714D01*
X186880952Y-90083333D01*
X187023809Y-90083333D01*
X187214285Y-90035714D01*
X187309523Y-89988095D01*
X187404761Y-89892857D01*
X187452380Y-89750000D01*
X187452380Y-89654761D01*
X187404761Y-89511904D01*
X187357142Y-89464285D01*
X187023809Y-89464285D01*
X187023809Y-89654761D01*
X187452380Y-89035714D02*
X186452380Y-89035714D01*
X187452380Y-88464285D01*
X186452380Y-88464285D01*
X187452380Y-87988095D02*
X186452380Y-87988095D01*
X186452380Y-87750000D01*
X186500000Y-87607142D01*
X186595238Y-87511904D01*
X186690476Y-87464285D01*
X186880952Y-87416666D01*
X187023809Y-87416666D01*
X187214285Y-87464285D01*
X187309523Y-87511904D01*
X187404761Y-87607142D01*
X187452380Y-87750000D01*
X187452380Y-87988095D01*
X186500000Y-100011904D02*
X186452380Y-100107142D01*
X186452380Y-100250000D01*
X186500000Y-100392857D01*
X186595238Y-100488095D01*
X186690476Y-100535714D01*
X186880952Y-100583333D01*
X187023809Y-100583333D01*
X187214285Y-100535714D01*
X187309523Y-100488095D01*
X187404761Y-100392857D01*
X187452380Y-100250000D01*
X187452380Y-100154761D01*
X187404761Y-100011904D01*
X187357142Y-99964285D01*
X187023809Y-99964285D01*
X187023809Y-100154761D01*
X187452380Y-99535714D02*
X186452380Y-99535714D01*
X187452380Y-98964285D01*
X186452380Y-98964285D01*
X187452380Y-98488095D02*
X186452380Y-98488095D01*
X186452380Y-98250000D01*
X186500000Y-98107142D01*
X186595238Y-98011904D01*
X186690476Y-97964285D01*
X186880952Y-97916666D01*
X187023809Y-97916666D01*
X187214285Y-97964285D01*
X187309523Y-98011904D01*
X187404761Y-98107142D01*
X187452380Y-98250000D01*
X187452380Y-98488095D01*
X188738095Y-106500000D02*
X188642857Y-106452380D01*
X188500000Y-106452380D01*
X188357142Y-106500000D01*
X188261904Y-106595238D01*
X188214285Y-106690476D01*
X188166666Y-106880952D01*
X188166666Y-107023809D01*
X188214285Y-107214285D01*
X188261904Y-107309523D01*
X188357142Y-107404761D01*
X188500000Y-107452380D01*
X188595238Y-107452380D01*
X188738095Y-107404761D01*
X188785714Y-107357142D01*
X188785714Y-107023809D01*
X188595238Y-107023809D01*
X189214285Y-107452380D02*
X189214285Y-106452380D01*
X189785714Y-107452380D01*
X189785714Y-106452380D01*
X190261904Y-107452380D02*
X190261904Y-106452380D01*
X190500000Y-106452380D01*
X190642857Y-106500000D01*
X190738095Y-106595238D01*
X190785714Y-106690476D01*
X190833333Y-106880952D01*
X190833333Y-107023809D01*
X190785714Y-107214285D01*
X190738095Y-107309523D01*
X190642857Y-107404761D01*
X190500000Y-107452380D01*
X190261904Y-107452380D01*
X185488095Y-106500000D02*
X185392857Y-106452380D01*
X185250000Y-106452380D01*
X185107142Y-106500000D01*
X185011904Y-106595238D01*
X184964285Y-106690476D01*
X184916666Y-106880952D01*
X184916666Y-107023809D01*
X184964285Y-107214285D01*
X185011904Y-107309523D01*
X185107142Y-107404761D01*
X185250000Y-107452380D01*
X185345238Y-107452380D01*
X185488095Y-107404761D01*
X185535714Y-107357142D01*
X185535714Y-107023809D01*
X185345238Y-107023809D01*
X185964285Y-107452380D02*
X185964285Y-106452380D01*
X186535714Y-107452380D01*
X186535714Y-106452380D01*
X187011904Y-107452380D02*
X187011904Y-106452380D01*
X187250000Y-106452380D01*
X187392857Y-106500000D01*
X187488095Y-106595238D01*
X187535714Y-106690476D01*
X187583333Y-106880952D01*
X187583333Y-107023809D01*
X187535714Y-107214285D01*
X187488095Y-107309523D01*
X187392857Y-107404761D01*
X187250000Y-107452380D01*
X187011904Y-107452380D01*
X182238095Y-106500000D02*
X182142857Y-106452380D01*
X182000000Y-106452380D01*
X181857142Y-106500000D01*
X181761904Y-106595238D01*
X181714285Y-106690476D01*
X181666666Y-106880952D01*
X181666666Y-107023809D01*
X181714285Y-107214285D01*
X181761904Y-107309523D01*
X181857142Y-107404761D01*
X182000000Y-107452380D01*
X182095238Y-107452380D01*
X182238095Y-107404761D01*
X182285714Y-107357142D01*
X182285714Y-107023809D01*
X182095238Y-107023809D01*
X182714285Y-107452380D02*
X182714285Y-106452380D01*
X183285714Y-107452380D01*
X183285714Y-106452380D01*
X183761904Y-107452380D02*
X183761904Y-106452380D01*
X184000000Y-106452380D01*
X184142857Y-106500000D01*
X184238095Y-106595238D01*
X184285714Y-106690476D01*
X184333333Y-106880952D01*
X184333333Y-107023809D01*
X184285714Y-107214285D01*
X184238095Y-107309523D01*
X184142857Y-107404761D01*
X184000000Y-107452380D01*
X183761904Y-107452380D01*
X155500000Y-102988095D02*
X155547619Y-102892857D01*
X155547619Y-102750000D01*
X155500000Y-102607142D01*
X155404761Y-102511904D01*
X155309523Y-102464285D01*
X155119047Y-102416666D01*
X154976190Y-102416666D01*
X154785714Y-102464285D01*
X154690476Y-102511904D01*
X154595238Y-102607142D01*
X154547619Y-102750000D01*
X154547619Y-102845238D01*
X154595238Y-102988095D01*
X154642857Y-103035714D01*
X154976190Y-103035714D01*
X154976190Y-102845238D01*
X154547619Y-103464285D02*
X155547619Y-103464285D01*
X154547619Y-104035714D01*
X155547619Y-104035714D01*
X154547619Y-104511904D02*
X155547619Y-104511904D01*
X155547619Y-104750000D01*
X155500000Y-104892857D01*
X155404761Y-104988095D01*
X155309523Y-105035714D01*
X155119047Y-105083333D01*
X154976190Y-105083333D01*
X154785714Y-105035714D01*
X154690476Y-104988095D01*
X154595238Y-104892857D01*
X154547619Y-104750000D01*
X154547619Y-104511904D01*
X162500000Y-90238095D02*
X162547619Y-90142857D01*
X162547619Y-90000000D01*
X162500000Y-89857142D01*
X162404761Y-89761904D01*
X162309523Y-89714285D01*
X162119047Y-89666666D01*
X161976190Y-89666666D01*
X161785714Y-89714285D01*
X161690476Y-89761904D01*
X161595238Y-89857142D01*
X161547619Y-90000000D01*
X161547619Y-90095238D01*
X161595238Y-90238095D01*
X161642857Y-90285714D01*
X161976190Y-90285714D01*
X161976190Y-90095238D01*
X161547619Y-90714285D02*
X162547619Y-90714285D01*
X161547619Y-91285714D01*
X162547619Y-91285714D01*
X161547619Y-91761904D02*
X162547619Y-91761904D01*
X162547619Y-92000000D01*
X162500000Y-92142857D01*
X162404761Y-92238095D01*
X162309523Y-92285714D01*
X162119047Y-92333333D01*
X161976190Y-92333333D01*
X161785714Y-92285714D01*
X161690476Y-92238095D01*
X161595238Y-92142857D01*
X161547619Y-92000000D01*
X161547619Y-91761904D01*
X162500000Y-82238095D02*
X162547619Y-82142857D01*
X162547619Y-82000000D01*
X162500000Y-81857142D01*
X162404761Y-81761904D01*
X162309523Y-81714285D01*
X162119047Y-81666666D01*
X161976190Y-81666666D01*
X161785714Y-81714285D01*
X161690476Y-81761904D01*
X161595238Y-81857142D01*
X161547619Y-82000000D01*
X161547619Y-82095238D01*
X161595238Y-82238095D01*
X161642857Y-82285714D01*
X161976190Y-82285714D01*
X161976190Y-82095238D01*
X161547619Y-82714285D02*
X162547619Y-82714285D01*
X161547619Y-83285714D01*
X162547619Y-83285714D01*
X161547619Y-83761904D02*
X162547619Y-83761904D01*
X162547619Y-84000000D01*
X162500000Y-84142857D01*
X162404761Y-84238095D01*
X162309523Y-84285714D01*
X162119047Y-84333333D01*
X161976190Y-84333333D01*
X161785714Y-84285714D01*
X161690476Y-84238095D01*
X161595238Y-84142857D01*
X161547619Y-84000000D01*
X161547619Y-83761904D01*
X155500000Y-87238095D02*
X155547619Y-87142857D01*
X155547619Y-87000000D01*
X155500000Y-86857142D01*
X155404761Y-86761904D01*
X155309523Y-86714285D01*
X155119047Y-86666666D01*
X154976190Y-86666666D01*
X154785714Y-86714285D01*
X154690476Y-86761904D01*
X154595238Y-86857142D01*
X154547619Y-87000000D01*
X154547619Y-87095238D01*
X154595238Y-87238095D01*
X154642857Y-87285714D01*
X154976190Y-87285714D01*
X154976190Y-87095238D01*
X154547619Y-87714285D02*
X155547619Y-87714285D01*
X154547619Y-88285714D01*
X155547619Y-88285714D01*
X154547619Y-88761904D02*
X155547619Y-88761904D01*
X155547619Y-89000000D01*
X155500000Y-89142857D01*
X155404761Y-89238095D01*
X155309523Y-89285714D01*
X155119047Y-89333333D01*
X154976190Y-89333333D01*
X154785714Y-89285714D01*
X154690476Y-89238095D01*
X154595238Y-89142857D01*
X154547619Y-89000000D01*
X154547619Y-88761904D01*
X162500000Y-74238095D02*
X162547619Y-74142857D01*
X162547619Y-74000000D01*
X162500000Y-73857142D01*
X162404761Y-73761904D01*
X162309523Y-73714285D01*
X162119047Y-73666666D01*
X161976190Y-73666666D01*
X161785714Y-73714285D01*
X161690476Y-73761904D01*
X161595238Y-73857142D01*
X161547619Y-74000000D01*
X161547619Y-74095238D01*
X161595238Y-74238095D01*
X161642857Y-74285714D01*
X161976190Y-74285714D01*
X161976190Y-74095238D01*
X161547619Y-74714285D02*
X162547619Y-74714285D01*
X161547619Y-75285714D01*
X162547619Y-75285714D01*
X161547619Y-75761904D02*
X162547619Y-75761904D01*
X162547619Y-76000000D01*
X162500000Y-76142857D01*
X162404761Y-76238095D01*
X162309523Y-76285714D01*
X162119047Y-76333333D01*
X161976190Y-76333333D01*
X161785714Y-76285714D01*
X161690476Y-76238095D01*
X161595238Y-76142857D01*
X161547619Y-76000000D01*
X161547619Y-75761904D01*
X155500000Y-75238095D02*
X155547619Y-75142857D01*
X155547619Y-75000000D01*
X155500000Y-74857142D01*
X155404761Y-74761904D01*
X155309523Y-74714285D01*
X155119047Y-74666666D01*
X154976190Y-74666666D01*
X154785714Y-74714285D01*
X154690476Y-74761904D01*
X154595238Y-74857142D01*
X154547619Y-75000000D01*
X154547619Y-75095238D01*
X154595238Y-75238095D01*
X154642857Y-75285714D01*
X154976190Y-75285714D01*
X154976190Y-75095238D01*
X154547619Y-75714285D02*
X155547619Y-75714285D01*
X154547619Y-76285714D01*
X155547619Y-76285714D01*
X154547619Y-76761904D02*
X155547619Y-76761904D01*
X155547619Y-77000000D01*
X155500000Y-77142857D01*
X155404761Y-77238095D01*
X155309523Y-77285714D01*
X155119047Y-77333333D01*
X154976190Y-77333333D01*
X154785714Y-77285714D01*
X154690476Y-77238095D01*
X154595238Y-77142857D01*
X154547619Y-77000000D01*
X154547619Y-76761904D01*
D12*
X168150000Y-71760000D02*
X165610000Y-71760000D01*
X165610000Y-69220000D02*
X165610000Y-71760000D01*
X183390000Y-69220000D02*
X165610000Y-69220000D01*
X183390000Y-71760000D02*
X183390000Y-69220000D01*
D11*
G36*
X179431568Y-78239360D02*
G01*
X179431568Y-78439360D01*
X179331568Y-78439360D01*
X179331568Y-78239360D01*
X179431568Y-78239360D01*
G37*
X179431568Y-78239360D02*
X179431568Y-78439360D01*
X179331568Y-78439360D01*
X179331568Y-78239360D01*
X179431568Y-78239360D01*
G36*
X179031568Y-77639360D02*
G01*
X179031568Y-78439360D01*
X178931568Y-78439360D01*
X178931568Y-77639360D01*
X179031568Y-77639360D01*
G37*
X179031568Y-77639360D02*
X179031568Y-78439360D01*
X178931568Y-78439360D01*
X178931568Y-77639360D01*
X179031568Y-77639360D01*
G36*
X179431568Y-77639360D02*
G01*
X179431568Y-77739360D01*
X178931568Y-77739360D01*
X178931568Y-77639360D01*
X179431568Y-77639360D01*
G37*
X179431568Y-77639360D02*
X179431568Y-77739360D01*
X178931568Y-77739360D01*
X178931568Y-77639360D01*
X179431568Y-77639360D01*
G36*
X179231568Y-78039360D02*
G01*
X179231568Y-78139360D01*
X179131568Y-78139360D01*
X179131568Y-78039360D01*
X179231568Y-78039360D01*
G37*
X179231568Y-78039360D02*
X179231568Y-78139360D01*
X179131568Y-78139360D01*
X179131568Y-78039360D01*
X179231568Y-78039360D01*
G36*
X179431568Y-77639360D02*
G01*
X179431568Y-77939360D01*
X179331568Y-77939360D01*
X179331568Y-77639360D01*
X179431568Y-77639360D01*
G37*
X179431568Y-77639360D02*
X179431568Y-77939360D01*
X179331568Y-77939360D01*
X179331568Y-77639360D01*
X179431568Y-77639360D01*
D12*
X168150000Y-74300000D02*
X165610000Y-74300000D01*
X168150000Y-71760000D02*
X168150000Y-74300000D01*
X183390000Y-102240000D02*
X183390000Y-71760000D01*
X165610000Y-102240000D02*
X183390000Y-102240000D01*
X165610000Y-71760000D02*
X165610000Y-102240000D01*
D11*
X168737651Y-72591904D02*
X169194794Y-72591904D01*
X168966223Y-73391904D02*
X168966223Y-72591904D01*
X169385270Y-72591904D02*
X169918604Y-73391904D01*
X169918604Y-72591904D02*
X169385270Y-73391904D01*
X170375747Y-72591904D02*
X170451937Y-72591904D01*
X170528128Y-72630000D01*
X170566223Y-72668095D01*
X170604318Y-72744285D01*
X170642413Y-72896666D01*
X170642413Y-73087142D01*
X170604318Y-73239523D01*
X170566223Y-73315714D01*
X170528128Y-73353809D01*
X170451937Y-73391904D01*
X170375747Y-73391904D01*
X170299556Y-73353809D01*
X170261461Y-73315714D01*
X170223366Y-73239523D01*
X170185270Y-73087142D01*
X170185270Y-72896666D01*
X170223366Y-72744285D01*
X170261461Y-72668095D01*
X170299556Y-72630000D01*
X170375747Y-72591904D01*
X171556699Y-72553809D02*
X170870985Y-73582380D01*
X171823366Y-73391904D02*
X171823366Y-72591904D01*
X172013842Y-72591904D01*
X172128128Y-72630000D01*
X172204318Y-72706190D01*
X172242413Y-72782380D01*
X172280508Y-72934761D01*
X172280508Y-73049047D01*
X172242413Y-73201428D01*
X172204318Y-73277619D01*
X172128128Y-73353809D01*
X172013842Y-73391904D01*
X171823366Y-73391904D01*
X172547175Y-72591904D02*
X173042413Y-72591904D01*
X172775747Y-72896666D01*
X172890032Y-72896666D01*
X172966223Y-72934761D01*
X173004318Y-72972857D01*
X173042413Y-73049047D01*
X173042413Y-73239523D01*
X173004318Y-73315714D01*
X172966223Y-73353809D01*
X172890032Y-73391904D01*
X172661461Y-73391904D01*
X172585270Y-73353809D01*
X172547175Y-73315714D01*
X168448523Y-75931904D02*
X168448523Y-75131904D01*
X168639000Y-75131904D01*
X168753285Y-75170000D01*
X168829476Y-75246190D01*
X168867571Y-75322380D01*
X168905666Y-75474761D01*
X168905666Y-75589047D01*
X168867571Y-75741428D01*
X168829476Y-75817619D01*
X168753285Y-75893809D01*
X168639000Y-75931904D01*
X168448523Y-75931904D01*
X169210428Y-75208095D02*
X169248523Y-75170000D01*
X169324714Y-75131904D01*
X169515190Y-75131904D01*
X169591380Y-75170000D01*
X169629476Y-75208095D01*
X169667571Y-75284285D01*
X169667571Y-75360476D01*
X169629476Y-75474761D01*
X169172333Y-75931904D01*
X169667571Y-75931904D01*
X168448523Y-86091904D02*
X168448523Y-85291904D01*
X168639000Y-85291904D01*
X168753285Y-85330000D01*
X168829476Y-85406190D01*
X168867571Y-85482380D01*
X168905666Y-85634761D01*
X168905666Y-85749047D01*
X168867571Y-85901428D01*
X168829476Y-85977619D01*
X168753285Y-86053809D01*
X168639000Y-86091904D01*
X168448523Y-86091904D01*
X169400904Y-85291904D02*
X169477095Y-85291904D01*
X169553285Y-85330000D01*
X169591380Y-85368095D01*
X169629476Y-85444285D01*
X169667571Y-85596666D01*
X169667571Y-85787142D01*
X169629476Y-85939523D01*
X169591380Y-86015714D01*
X169553285Y-86053809D01*
X169477095Y-86091904D01*
X169400904Y-86091904D01*
X169324714Y-86053809D01*
X169286619Y-86015714D01*
X169248523Y-85939523D01*
X169210428Y-85787142D01*
X169210428Y-85596666D01*
X169248523Y-85444285D01*
X169286619Y-85368095D01*
X169324714Y-85330000D01*
X169400904Y-85291904D01*
X168448523Y-83551904D02*
X168448523Y-82751904D01*
X168639000Y-82751904D01*
X168753285Y-82790000D01*
X168829476Y-82866190D01*
X168867571Y-82942380D01*
X168905666Y-83094761D01*
X168905666Y-83209047D01*
X168867571Y-83361428D01*
X168829476Y-83437619D01*
X168753285Y-83513809D01*
X168639000Y-83551904D01*
X168448523Y-83551904D01*
X169667571Y-83551904D02*
X169210428Y-83551904D01*
X169439000Y-83551904D02*
X169439000Y-82751904D01*
X169362809Y-82866190D01*
X169286619Y-82942380D01*
X169210428Y-82980476D01*
X168429476Y-80250000D02*
X168353285Y-80211904D01*
X168239000Y-80211904D01*
X168124714Y-80250000D01*
X168048523Y-80326190D01*
X168010428Y-80402380D01*
X167972333Y-80554761D01*
X167972333Y-80669047D01*
X168010428Y-80821428D01*
X168048523Y-80897619D01*
X168124714Y-80973809D01*
X168239000Y-81011904D01*
X168315190Y-81011904D01*
X168429476Y-80973809D01*
X168467571Y-80935714D01*
X168467571Y-80669047D01*
X168315190Y-80669047D01*
X168810428Y-81011904D02*
X168810428Y-80211904D01*
X169267571Y-81011904D01*
X169267571Y-80211904D01*
X169648523Y-81011904D02*
X169648523Y-80211904D01*
X169839000Y-80211904D01*
X169953285Y-80250000D01*
X170029476Y-80326190D01*
X170067571Y-80402380D01*
X170105666Y-80554761D01*
X170105666Y-80669047D01*
X170067571Y-80821428D01*
X170029476Y-80897619D01*
X169953285Y-80973809D01*
X169839000Y-81011904D01*
X169648523Y-81011904D01*
X168429476Y-77710000D02*
X168353285Y-77671904D01*
X168239000Y-77671904D01*
X168124714Y-77710000D01*
X168048523Y-77786190D01*
X168010428Y-77862380D01*
X167972333Y-78014761D01*
X167972333Y-78129047D01*
X168010428Y-78281428D01*
X168048523Y-78357619D01*
X168124714Y-78433809D01*
X168239000Y-78471904D01*
X168315190Y-78471904D01*
X168429476Y-78433809D01*
X168467571Y-78395714D01*
X168467571Y-78129047D01*
X168315190Y-78129047D01*
X168810428Y-78471904D02*
X168810428Y-77671904D01*
X169267571Y-78471904D01*
X169267571Y-77671904D01*
X169648523Y-78471904D02*
X169648523Y-77671904D01*
X169839000Y-77671904D01*
X169953285Y-77710000D01*
X170029476Y-77786190D01*
X170067571Y-77862380D01*
X170105666Y-78014761D01*
X170105666Y-78129047D01*
X170067571Y-78281428D01*
X170029476Y-78357619D01*
X169953285Y-78433809D01*
X169839000Y-78471904D01*
X169648523Y-78471904D01*
X168448523Y-88631904D02*
X168448523Y-87831904D01*
X168639000Y-87831904D01*
X168753285Y-87870000D01*
X168829476Y-87946190D01*
X168867571Y-88022380D01*
X168905666Y-88174761D01*
X168905666Y-88289047D01*
X168867571Y-88441428D01*
X168829476Y-88517619D01*
X168753285Y-88593809D01*
X168639000Y-88631904D01*
X168448523Y-88631904D01*
X169591380Y-88098571D02*
X169591380Y-88631904D01*
X169400904Y-87793809D02*
X169210428Y-88365238D01*
X169705666Y-88365238D01*
X168905666Y-91095714D02*
X168867571Y-91133809D01*
X168753285Y-91171904D01*
X168677095Y-91171904D01*
X168562809Y-91133809D01*
X168486619Y-91057619D01*
X168448523Y-90981428D01*
X168410428Y-90829047D01*
X168410428Y-90714761D01*
X168448523Y-90562380D01*
X168486619Y-90486190D01*
X168562809Y-90410000D01*
X168677095Y-90371904D01*
X168753285Y-90371904D01*
X168867571Y-90410000D01*
X168905666Y-90448095D01*
X169591380Y-90371904D02*
X169439000Y-90371904D01*
X169362809Y-90410000D01*
X169324714Y-90448095D01*
X169248523Y-90562380D01*
X169210428Y-90714761D01*
X169210428Y-91019523D01*
X169248523Y-91095714D01*
X169286619Y-91133809D01*
X169362809Y-91171904D01*
X169515190Y-91171904D01*
X169591380Y-91133809D01*
X169629476Y-91095714D01*
X169667571Y-91019523D01*
X169667571Y-90829047D01*
X169629476Y-90752857D01*
X169591380Y-90714761D01*
X169515190Y-90676666D01*
X169362809Y-90676666D01*
X169286619Y-90714761D01*
X169248523Y-90752857D01*
X169210428Y-90829047D01*
X168448523Y-93711904D02*
X168448523Y-92911904D01*
X168639000Y-92911904D01*
X168753285Y-92950000D01*
X168829476Y-93026190D01*
X168867571Y-93102380D01*
X168905666Y-93254761D01*
X168905666Y-93369047D01*
X168867571Y-93521428D01*
X168829476Y-93597619D01*
X168753285Y-93673809D01*
X168639000Y-93711904D01*
X168448523Y-93711904D01*
X169172333Y-92911904D02*
X169705666Y-92911904D01*
X169362809Y-93711904D01*
X168486619Y-95832857D02*
X168753285Y-95832857D01*
X168867571Y-96251904D02*
X168486619Y-96251904D01*
X168486619Y-95451904D01*
X168867571Y-95451904D01*
X169553285Y-95451904D02*
X169400904Y-95451904D01*
X169324714Y-95490000D01*
X169286619Y-95528095D01*
X169210428Y-95642380D01*
X169172333Y-95794761D01*
X169172333Y-96099523D01*
X169210428Y-96175714D01*
X169248523Y-96213809D01*
X169324714Y-96251904D01*
X169477095Y-96251904D01*
X169553285Y-96213809D01*
X169591380Y-96175714D01*
X169629476Y-96099523D01*
X169629476Y-95909047D01*
X169591380Y-95832857D01*
X169553285Y-95794761D01*
X169477095Y-95756666D01*
X169324714Y-95756666D01*
X169248523Y-95794761D01*
X169210428Y-95832857D01*
X169172333Y-95909047D01*
X168715190Y-98372857D02*
X168829476Y-98410952D01*
X168867571Y-98449047D01*
X168905666Y-98525238D01*
X168905666Y-98639523D01*
X168867571Y-98715714D01*
X168829476Y-98753809D01*
X168753285Y-98791904D01*
X168448523Y-98791904D01*
X168448523Y-97991904D01*
X168715190Y-97991904D01*
X168791380Y-98030000D01*
X168829476Y-98068095D01*
X168867571Y-98144285D01*
X168867571Y-98220476D01*
X168829476Y-98296666D01*
X168791380Y-98334761D01*
X168715190Y-98372857D01*
X168448523Y-98372857D01*
X169591380Y-98258571D02*
X169591380Y-98791904D01*
X169400904Y-97953809D02*
X169210428Y-98525238D01*
X169705666Y-98525238D01*
X168715190Y-100912857D02*
X168829476Y-100950952D01*
X168867571Y-100989047D01*
X168905666Y-101065238D01*
X168905666Y-101179523D01*
X168867571Y-101255714D01*
X168829476Y-101293809D01*
X168753285Y-101331904D01*
X168448523Y-101331904D01*
X168448523Y-100531904D01*
X168715190Y-100531904D01*
X168791380Y-100570000D01*
X168829476Y-100608095D01*
X168867571Y-100684285D01*
X168867571Y-100760476D01*
X168829476Y-100836666D01*
X168791380Y-100874761D01*
X168715190Y-100912857D01*
X168448523Y-100912857D01*
X169629476Y-100531904D02*
X169248523Y-100531904D01*
X169210428Y-100912857D01*
X169248523Y-100874761D01*
X169324714Y-100836666D01*
X169515190Y-100836666D01*
X169591380Y-100874761D01*
X169629476Y-100912857D01*
X169667571Y-100989047D01*
X169667571Y-101179523D01*
X169629476Y-101255714D01*
X169591380Y-101293809D01*
X169515190Y-101331904D01*
X169324714Y-101331904D01*
X169248523Y-101293809D01*
X169210428Y-101255714D01*
X179637190Y-100912857D02*
X179751476Y-100950952D01*
X179789571Y-100989047D01*
X179827666Y-101065238D01*
X179827666Y-101179523D01*
X179789571Y-101255714D01*
X179751476Y-101293809D01*
X179675285Y-101331904D01*
X179370523Y-101331904D01*
X179370523Y-100531904D01*
X179637190Y-100531904D01*
X179713380Y-100570000D01*
X179751476Y-100608095D01*
X179789571Y-100684285D01*
X179789571Y-100760476D01*
X179751476Y-100836666D01*
X179713380Y-100874761D01*
X179637190Y-100912857D01*
X179370523Y-100912857D01*
X180513380Y-100531904D02*
X180361000Y-100531904D01*
X180284809Y-100570000D01*
X180246714Y-100608095D01*
X180170523Y-100722380D01*
X180132428Y-100874761D01*
X180132428Y-101179523D01*
X180170523Y-101255714D01*
X180208619Y-101293809D01*
X180284809Y-101331904D01*
X180437190Y-101331904D01*
X180513380Y-101293809D01*
X180551476Y-101255714D01*
X180589571Y-101179523D01*
X180589571Y-100989047D01*
X180551476Y-100912857D01*
X180513380Y-100874761D01*
X180437190Y-100836666D01*
X180284809Y-100836666D01*
X180208619Y-100874761D01*
X180170523Y-100912857D01*
X180132428Y-100989047D01*
X179637190Y-95832857D02*
X179751476Y-95870952D01*
X179789571Y-95909047D01*
X179827666Y-95985238D01*
X179827666Y-96099523D01*
X179789571Y-96175714D01*
X179751476Y-96213809D01*
X179675285Y-96251904D01*
X179370523Y-96251904D01*
X179370523Y-95451904D01*
X179637190Y-95451904D01*
X179713380Y-95490000D01*
X179751476Y-95528095D01*
X179789571Y-95604285D01*
X179789571Y-95680476D01*
X179751476Y-95756666D01*
X179713380Y-95794761D01*
X179637190Y-95832857D01*
X179370523Y-95832857D01*
X180094333Y-95451904D02*
X180589571Y-95451904D01*
X180322904Y-95756666D01*
X180437190Y-95756666D01*
X180513380Y-95794761D01*
X180551476Y-95832857D01*
X180589571Y-95909047D01*
X180589571Y-96099523D01*
X180551476Y-96175714D01*
X180513380Y-96213809D01*
X180437190Y-96251904D01*
X180208619Y-96251904D01*
X180132428Y-96213809D01*
X180094333Y-96175714D01*
X179637190Y-93292857D02*
X179751476Y-93330952D01*
X179789571Y-93369047D01*
X179827666Y-93445238D01*
X179827666Y-93559523D01*
X179789571Y-93635714D01*
X179751476Y-93673809D01*
X179675285Y-93711904D01*
X179370523Y-93711904D01*
X179370523Y-92911904D01*
X179637190Y-92911904D01*
X179713380Y-92950000D01*
X179751476Y-92988095D01*
X179789571Y-93064285D01*
X179789571Y-93140476D01*
X179751476Y-93216666D01*
X179713380Y-93254761D01*
X179637190Y-93292857D01*
X179370523Y-93292857D01*
X180589571Y-93711904D02*
X180132428Y-93711904D01*
X180361000Y-93711904D02*
X180361000Y-92911904D01*
X180284809Y-93026190D01*
X180208619Y-93102380D01*
X180132428Y-93140476D01*
X179694333Y-83132857D02*
X179427666Y-83132857D01*
X179427666Y-83551904D02*
X179427666Y-82751904D01*
X179808619Y-82751904D01*
X180456238Y-83018571D02*
X180456238Y-83551904D01*
X180265761Y-82713809D02*
X180075285Y-83285238D01*
X180570523Y-83285238D01*
X178894333Y-80211904D02*
X179161000Y-81011904D01*
X179427666Y-80211904D01*
X180151476Y-80935714D02*
X180113380Y-80973809D01*
X179999095Y-81011904D01*
X179922904Y-81011904D01*
X179808619Y-80973809D01*
X179732428Y-80897619D01*
X179694333Y-80821428D01*
X179656238Y-80669047D01*
X179656238Y-80554761D01*
X179694333Y-80402380D01*
X179732428Y-80326190D01*
X179808619Y-80250000D01*
X179922904Y-80211904D01*
X179999095Y-80211904D01*
X180113380Y-80250000D01*
X180151476Y-80288095D01*
X180951476Y-80935714D02*
X180913380Y-80973809D01*
X180799095Y-81011904D01*
X180722904Y-81011904D01*
X180608619Y-80973809D01*
X180532428Y-80897619D01*
X180494333Y-80821428D01*
X180456238Y-80669047D01*
X180456238Y-80554761D01*
X180494333Y-80402380D01*
X180532428Y-80326190D01*
X180608619Y-80250000D01*
X180722904Y-80211904D01*
X180799095Y-80211904D01*
X180913380Y-80250000D01*
X180951476Y-80288095D01*
X179699786Y-78403809D02*
X179814072Y-78441904D01*
X180004548Y-78441904D01*
X180080739Y-78403809D01*
X180118834Y-78365714D01*
X180156929Y-78289523D01*
X180156929Y-78213333D01*
X180118834Y-78137142D01*
X180080739Y-78099047D01*
X180004548Y-78060952D01*
X179852167Y-78022857D01*
X179775977Y-77984761D01*
X179737881Y-77946666D01*
X179699786Y-77870476D01*
X179699786Y-77794285D01*
X179737881Y-77718095D01*
X179775977Y-77680000D01*
X179852167Y-77641904D01*
X180042643Y-77641904D01*
X180156929Y-77680000D01*
X180385500Y-77641904D02*
X180842643Y-77641904D01*
X180614072Y-78441904D02*
X180614072Y-77641904D01*
X179351476Y-75170000D02*
X179275285Y-75131904D01*
X179161000Y-75131904D01*
X179046714Y-75170000D01*
X178970523Y-75246190D01*
X178932428Y-75322380D01*
X178894333Y-75474761D01*
X178894333Y-75589047D01*
X178932428Y-75741428D01*
X178970523Y-75817619D01*
X179046714Y-75893809D01*
X179161000Y-75931904D01*
X179237190Y-75931904D01*
X179351476Y-75893809D01*
X179389571Y-75855714D01*
X179389571Y-75589047D01*
X179237190Y-75589047D01*
X179732428Y-75931904D02*
X179732428Y-75131904D01*
X180189571Y-75931904D01*
X180189571Y-75131904D01*
X180570523Y-75931904D02*
X180570523Y-75131904D01*
X180761000Y-75131904D01*
X180875285Y-75170000D01*
X180951476Y-75246190D01*
X180989571Y-75322380D01*
X181027666Y-75474761D01*
X181027666Y-75589047D01*
X180989571Y-75741428D01*
X180951476Y-75817619D01*
X180875285Y-75893809D01*
X180761000Y-75931904D01*
X180570523Y-75931904D01*
X179408619Y-73391904D02*
X179141952Y-73010952D01*
X178951476Y-73391904D02*
X178951476Y-72591904D01*
X179256238Y-72591904D01*
X179332428Y-72630000D01*
X179370523Y-72668095D01*
X179408619Y-72744285D01*
X179408619Y-72858571D01*
X179370523Y-72934761D01*
X179332428Y-72972857D01*
X179256238Y-73010952D01*
X178951476Y-73010952D01*
X179713380Y-73163333D02*
X180094333Y-73163333D01*
X179637190Y-73391904D02*
X179903857Y-72591904D01*
X180170523Y-73391904D01*
X180361000Y-72591904D02*
X180551476Y-73391904D01*
X180703857Y-72820476D01*
X180856238Y-73391904D01*
X181046714Y-72591904D01*
X179694333Y-85672857D02*
X179427666Y-85672857D01*
X179427666Y-86091904D02*
X179427666Y-85291904D01*
X179808619Y-85291904D01*
X180494333Y-85291904D02*
X180113380Y-85291904D01*
X180075285Y-85672857D01*
X180113380Y-85634761D01*
X180189571Y-85596666D01*
X180380047Y-85596666D01*
X180456238Y-85634761D01*
X180494333Y-85672857D01*
X180532428Y-85749047D01*
X180532428Y-85939523D01*
X180494333Y-86015714D01*
X180456238Y-86053809D01*
X180380047Y-86091904D01*
X180189571Y-86091904D01*
X180113380Y-86053809D01*
X180075285Y-86015714D01*
X179694333Y-88212857D02*
X179427666Y-88212857D01*
X179427666Y-88631904D02*
X179427666Y-87831904D01*
X179808619Y-87831904D01*
X180456238Y-87831904D02*
X180303857Y-87831904D01*
X180227666Y-87870000D01*
X180189571Y-87908095D01*
X180113380Y-88022380D01*
X180075285Y-88174761D01*
X180075285Y-88479523D01*
X180113380Y-88555714D01*
X180151476Y-88593809D01*
X180227666Y-88631904D01*
X180380047Y-88631904D01*
X180456238Y-88593809D01*
X180494333Y-88555714D01*
X180532428Y-88479523D01*
X180532428Y-88289047D01*
X180494333Y-88212857D01*
X180456238Y-88174761D01*
X180380047Y-88136666D01*
X180227666Y-88136666D01*
X180151476Y-88174761D01*
X180113380Y-88212857D01*
X180075285Y-88289047D01*
X179694333Y-90752857D02*
X179427666Y-90752857D01*
X179427666Y-91171904D02*
X179427666Y-90371904D01*
X179808619Y-90371904D01*
X180037190Y-90371904D02*
X180570523Y-90371904D01*
X180227666Y-91171904D01*
X179637190Y-98372857D02*
X179751476Y-98410952D01*
X179789571Y-98449047D01*
X179827666Y-98525238D01*
X179827666Y-98639523D01*
X179789571Y-98715714D01*
X179751476Y-98753809D01*
X179675285Y-98791904D01*
X179370523Y-98791904D01*
X179370523Y-97991904D01*
X179637190Y-97991904D01*
X179713380Y-98030000D01*
X179751476Y-98068095D01*
X179789571Y-98144285D01*
X179789571Y-98220476D01*
X179751476Y-98296666D01*
X179713380Y-98334761D01*
X179637190Y-98372857D01*
X179370523Y-98372857D01*
X180132428Y-98068095D02*
X180170523Y-98030000D01*
X180246714Y-97991904D01*
X180437190Y-97991904D01*
X180513380Y-98030000D01*
X180551476Y-98068095D01*
X180589571Y-98144285D01*
X180589571Y-98220476D01*
X180551476Y-98334761D01*
X180094333Y-98791904D01*
X180589571Y-98791904D01*
M02*
