G04 #@! TF.GenerationSoftware,KiCad,Pcbnew,(5.1.5-0-10_14)*
G04 #@! TF.CreationDate,2020-03-09T11:35:15+01:00*
G04 #@! TF.ProjectId,pro_micro_shield,70726f5f-6d69-4637-926f-5f736869656c,rev?*
G04 #@! TF.SameCoordinates,Original*
G04 #@! TF.FileFunction,Soldermask,Top*
G04 #@! TF.FilePolarity,Negative*
%FSLAX46Y46*%
G04 Gerber Fmt 4.6, Leading zero omitted, Abs format (unit mm)*
G04 Created by KiCad (PCBNEW (5.1.5-0-10_14)) date 2020-03-09 11:35:15*
%MOMM*%
%LPD*%
G04 APERTURE LIST*
%ADD10C,0.100000*%
G04 APERTURE END LIST*
D10*
G36*
X188939393Y-112499304D02*
G01*
X189176101Y-112597352D01*
X189176103Y-112597353D01*
X189389135Y-112739696D01*
X189570304Y-112920865D01*
X189712647Y-113133897D01*
X189712648Y-113133899D01*
X189810696Y-113370607D01*
X189860680Y-113621893D01*
X189860680Y-113878107D01*
X189810696Y-114129393D01*
X189712648Y-114366101D01*
X189712647Y-114366103D01*
X189570304Y-114579135D01*
X189389135Y-114760304D01*
X189176103Y-114902647D01*
X189176102Y-114902648D01*
X189176101Y-114902648D01*
X188939393Y-115000696D01*
X188688107Y-115050680D01*
X188431893Y-115050680D01*
X188180607Y-115000696D01*
X187943899Y-114902648D01*
X187943898Y-114902648D01*
X187943897Y-114902647D01*
X187730865Y-114760304D01*
X187549696Y-114579135D01*
X187407353Y-114366103D01*
X187407352Y-114366101D01*
X187309304Y-114129393D01*
X187259320Y-113878107D01*
X187259320Y-113621893D01*
X187309304Y-113370607D01*
X187407352Y-113133899D01*
X187407353Y-113133897D01*
X187549696Y-112920865D01*
X187730865Y-112739696D01*
X187943897Y-112597353D01*
X187943899Y-112597352D01*
X188180607Y-112499304D01*
X188431893Y-112449320D01*
X188688107Y-112449320D01*
X188939393Y-112499304D01*
G37*
G36*
X186050680Y-115050680D02*
G01*
X183449320Y-115050680D01*
X183449320Y-112449320D01*
X186050680Y-112449320D01*
X186050680Y-115050680D01*
G37*
G36*
X180939393Y-112499304D02*
G01*
X181176101Y-112597352D01*
X181176103Y-112597353D01*
X181389135Y-112739696D01*
X181570304Y-112920865D01*
X181712647Y-113133897D01*
X181712648Y-113133899D01*
X181810696Y-113370607D01*
X181860680Y-113621893D01*
X181860680Y-113878107D01*
X181810696Y-114129393D01*
X181712648Y-114366101D01*
X181712647Y-114366103D01*
X181570304Y-114579135D01*
X181389135Y-114760304D01*
X181176103Y-114902647D01*
X181176102Y-114902648D01*
X181176101Y-114902648D01*
X180939393Y-115000696D01*
X180688107Y-115050680D01*
X180431893Y-115050680D01*
X180180607Y-115000696D01*
X179943899Y-114902648D01*
X179943898Y-114902648D01*
X179943897Y-114902647D01*
X179730865Y-114760304D01*
X179549696Y-114579135D01*
X179407353Y-114366103D01*
X179407352Y-114366101D01*
X179309304Y-114129393D01*
X179259320Y-113878107D01*
X179259320Y-113621893D01*
X179309304Y-113370607D01*
X179407352Y-113133899D01*
X179407353Y-113133897D01*
X179549696Y-112920865D01*
X179730865Y-112739696D01*
X179943897Y-112597353D01*
X179943899Y-112597352D01*
X180180607Y-112499304D01*
X180431893Y-112449320D01*
X180688107Y-112449320D01*
X180939393Y-112499304D01*
G37*
G36*
X178050680Y-115050680D02*
G01*
X175449320Y-115050680D01*
X175449320Y-112449320D01*
X178050680Y-112449320D01*
X178050680Y-115050680D01*
G37*
G36*
X172939393Y-112499304D02*
G01*
X173176101Y-112597352D01*
X173176103Y-112597353D01*
X173389135Y-112739696D01*
X173570304Y-112920865D01*
X173712647Y-113133897D01*
X173712648Y-113133899D01*
X173810696Y-113370607D01*
X173860680Y-113621893D01*
X173860680Y-113878107D01*
X173810696Y-114129393D01*
X173712648Y-114366101D01*
X173712647Y-114366103D01*
X173570304Y-114579135D01*
X173389135Y-114760304D01*
X173176103Y-114902647D01*
X173176102Y-114902648D01*
X173176101Y-114902648D01*
X172939393Y-115000696D01*
X172688107Y-115050680D01*
X172431893Y-115050680D01*
X172180607Y-115000696D01*
X171943899Y-114902648D01*
X171943898Y-114902648D01*
X171943897Y-114902647D01*
X171730865Y-114760304D01*
X171549696Y-114579135D01*
X171407353Y-114366103D01*
X171407352Y-114366101D01*
X171309304Y-114129393D01*
X171259320Y-113878107D01*
X171259320Y-113621893D01*
X171309304Y-113370607D01*
X171407352Y-113133899D01*
X171407353Y-113133897D01*
X171549696Y-112920865D01*
X171730865Y-112739696D01*
X171943897Y-112597353D01*
X171943899Y-112597352D01*
X172180607Y-112499304D01*
X172431893Y-112449320D01*
X172688107Y-112449320D01*
X172939393Y-112499304D01*
G37*
G36*
X170050680Y-115050680D02*
G01*
X167449320Y-115050680D01*
X167449320Y-112449320D01*
X170050680Y-112449320D01*
X170050680Y-115050680D01*
G37*
G36*
X164939393Y-112499304D02*
G01*
X165176101Y-112597352D01*
X165176103Y-112597353D01*
X165389135Y-112739696D01*
X165570304Y-112920865D01*
X165712647Y-113133897D01*
X165712648Y-113133899D01*
X165810696Y-113370607D01*
X165860680Y-113621893D01*
X165860680Y-113878107D01*
X165810696Y-114129393D01*
X165712648Y-114366101D01*
X165712647Y-114366103D01*
X165570304Y-114579135D01*
X165389135Y-114760304D01*
X165176103Y-114902647D01*
X165176102Y-114902648D01*
X165176101Y-114902648D01*
X164939393Y-115000696D01*
X164688107Y-115050680D01*
X164431893Y-115050680D01*
X164180607Y-115000696D01*
X163943899Y-114902648D01*
X163943898Y-114902648D01*
X163943897Y-114902647D01*
X163730865Y-114760304D01*
X163549696Y-114579135D01*
X163407353Y-114366103D01*
X163407352Y-114366101D01*
X163309304Y-114129393D01*
X163259320Y-113878107D01*
X163259320Y-113621893D01*
X163309304Y-113370607D01*
X163407352Y-113133899D01*
X163407353Y-113133897D01*
X163549696Y-112920865D01*
X163730865Y-112739696D01*
X163943897Y-112597353D01*
X163943899Y-112597352D01*
X164180607Y-112499304D01*
X164431893Y-112449320D01*
X164688107Y-112449320D01*
X164939393Y-112499304D01*
G37*
G36*
X162050680Y-115050680D02*
G01*
X159449320Y-115050680D01*
X159449320Y-112449320D01*
X162050680Y-112449320D01*
X162050680Y-115050680D01*
G37*
G36*
X180629393Y-105999304D02*
G01*
X180866101Y-106097352D01*
X180866103Y-106097353D01*
X181079135Y-106239696D01*
X181260304Y-106420865D01*
X181402647Y-106633897D01*
X181402648Y-106633899D01*
X181500696Y-106870607D01*
X181550680Y-107121893D01*
X181550680Y-107378107D01*
X181500696Y-107629393D01*
X181402648Y-107866101D01*
X181402647Y-107866103D01*
X181260304Y-108079135D01*
X181079135Y-108260304D01*
X180866103Y-108402647D01*
X180866102Y-108402648D01*
X180866101Y-108402648D01*
X180629393Y-108500696D01*
X180378107Y-108550680D01*
X180121893Y-108550680D01*
X179870607Y-108500696D01*
X179633899Y-108402648D01*
X179633898Y-108402648D01*
X179633897Y-108402647D01*
X179420865Y-108260304D01*
X179239696Y-108079135D01*
X179097353Y-107866103D01*
X179097352Y-107866101D01*
X178999304Y-107629393D01*
X178949320Y-107378107D01*
X178949320Y-107121893D01*
X178999304Y-106870607D01*
X179097352Y-106633899D01*
X179097353Y-106633897D01*
X179239696Y-106420865D01*
X179420865Y-106239696D01*
X179633897Y-106097353D01*
X179633899Y-106097352D01*
X179870607Y-105999304D01*
X180121893Y-105949320D01*
X180378107Y-105949320D01*
X180629393Y-105999304D01*
G37*
G36*
X189439393Y-105999304D02*
G01*
X189676101Y-106097352D01*
X189676103Y-106097353D01*
X189889135Y-106239696D01*
X190070304Y-106420865D01*
X190212647Y-106633897D01*
X190212648Y-106633899D01*
X190310696Y-106870607D01*
X190360680Y-107121893D01*
X190360680Y-107378107D01*
X190310696Y-107629393D01*
X190212648Y-107866101D01*
X190212647Y-107866103D01*
X190070304Y-108079135D01*
X189889135Y-108260304D01*
X189676103Y-108402647D01*
X189676102Y-108402648D01*
X189676101Y-108402648D01*
X189439393Y-108500696D01*
X189188107Y-108550680D01*
X188931893Y-108550680D01*
X188680607Y-108500696D01*
X188443899Y-108402648D01*
X188443898Y-108402648D01*
X188443897Y-108402647D01*
X188230865Y-108260304D01*
X188049696Y-108079135D01*
X187907353Y-107866103D01*
X187907352Y-107866101D01*
X187809304Y-107629393D01*
X187759320Y-107378107D01*
X187759320Y-107121893D01*
X187809304Y-106870607D01*
X187907352Y-106633899D01*
X187907353Y-106633897D01*
X188049696Y-106420865D01*
X188230865Y-106239696D01*
X188443897Y-106097353D01*
X188443899Y-106097352D01*
X188680607Y-105999304D01*
X188931893Y-105949320D01*
X189188107Y-105949320D01*
X189439393Y-105999304D01*
G37*
G36*
X186550680Y-108550680D02*
G01*
X183949320Y-108550680D01*
X183949320Y-105949320D01*
X186550680Y-105949320D01*
X186550680Y-108550680D01*
G37*
G36*
X176879393Y-105999304D02*
G01*
X177116101Y-106097352D01*
X177116103Y-106097353D01*
X177329135Y-106239696D01*
X177510304Y-106420865D01*
X177652647Y-106633897D01*
X177652648Y-106633899D01*
X177750696Y-106870607D01*
X177800680Y-107121893D01*
X177800680Y-107378107D01*
X177750696Y-107629393D01*
X177652648Y-107866101D01*
X177652647Y-107866103D01*
X177510304Y-108079135D01*
X177329135Y-108260304D01*
X177116103Y-108402647D01*
X177116102Y-108402648D01*
X177116101Y-108402648D01*
X176879393Y-108500696D01*
X176628107Y-108550680D01*
X176371893Y-108550680D01*
X176120607Y-108500696D01*
X175883899Y-108402648D01*
X175883898Y-108402648D01*
X175883897Y-108402647D01*
X175670865Y-108260304D01*
X175489696Y-108079135D01*
X175347353Y-107866103D01*
X175347352Y-107866101D01*
X175249304Y-107629393D01*
X175199320Y-107378107D01*
X175199320Y-107121893D01*
X175249304Y-106870607D01*
X175347352Y-106633899D01*
X175347353Y-106633897D01*
X175489696Y-106420865D01*
X175670865Y-106239696D01*
X175883897Y-106097353D01*
X175883899Y-106097352D01*
X176120607Y-105999304D01*
X176371893Y-105949320D01*
X176628107Y-105949320D01*
X176879393Y-105999304D01*
G37*
G36*
X172379393Y-105999304D02*
G01*
X172616101Y-106097352D01*
X172616103Y-106097353D01*
X172829135Y-106239696D01*
X173010304Y-106420865D01*
X173152647Y-106633897D01*
X173152648Y-106633899D01*
X173250696Y-106870607D01*
X173300680Y-107121893D01*
X173300680Y-107378107D01*
X173250696Y-107629393D01*
X173152648Y-107866101D01*
X173152647Y-107866103D01*
X173010304Y-108079135D01*
X172829135Y-108260304D01*
X172616103Y-108402647D01*
X172616102Y-108402648D01*
X172616101Y-108402648D01*
X172379393Y-108500696D01*
X172128107Y-108550680D01*
X171871893Y-108550680D01*
X171620607Y-108500696D01*
X171383899Y-108402648D01*
X171383898Y-108402648D01*
X171383897Y-108402647D01*
X171170865Y-108260304D01*
X170989696Y-108079135D01*
X170847353Y-107866103D01*
X170847352Y-107866101D01*
X170749304Y-107629393D01*
X170699320Y-107378107D01*
X170699320Y-107121893D01*
X170749304Y-106870607D01*
X170847352Y-106633899D01*
X170847353Y-106633897D01*
X170989696Y-106420865D01*
X171170865Y-106239696D01*
X171383897Y-106097353D01*
X171383899Y-106097352D01*
X171620607Y-105999304D01*
X171871893Y-105949320D01*
X172128107Y-105949320D01*
X172379393Y-105999304D01*
G37*
G36*
X168629393Y-105999304D02*
G01*
X168866101Y-106097352D01*
X168866103Y-106097353D01*
X169079135Y-106239696D01*
X169260304Y-106420865D01*
X169402647Y-106633897D01*
X169402648Y-106633899D01*
X169500696Y-106870607D01*
X169550680Y-107121893D01*
X169550680Y-107378107D01*
X169500696Y-107629393D01*
X169402648Y-107866101D01*
X169402647Y-107866103D01*
X169260304Y-108079135D01*
X169079135Y-108260304D01*
X168866103Y-108402647D01*
X168866102Y-108402648D01*
X168866101Y-108402648D01*
X168629393Y-108500696D01*
X168378107Y-108550680D01*
X168121893Y-108550680D01*
X167870607Y-108500696D01*
X167633899Y-108402648D01*
X167633898Y-108402648D01*
X167633897Y-108402647D01*
X167420865Y-108260304D01*
X167239696Y-108079135D01*
X167097353Y-107866103D01*
X167097352Y-107866101D01*
X166999304Y-107629393D01*
X166949320Y-107378107D01*
X166949320Y-107121893D01*
X166999304Y-106870607D01*
X167097352Y-106633899D01*
X167097353Y-106633897D01*
X167239696Y-106420865D01*
X167420865Y-106239696D01*
X167633897Y-106097353D01*
X167633899Y-106097352D01*
X167870607Y-105999304D01*
X168121893Y-105949320D01*
X168378107Y-105949320D01*
X168629393Y-105999304D01*
G37*
G36*
X164129393Y-105999304D02*
G01*
X164366101Y-106097352D01*
X164366103Y-106097353D01*
X164579135Y-106239696D01*
X164760304Y-106420865D01*
X164902647Y-106633897D01*
X164902648Y-106633899D01*
X165000696Y-106870607D01*
X165050680Y-107121893D01*
X165050680Y-107378107D01*
X165000696Y-107629393D01*
X164902648Y-107866101D01*
X164902647Y-107866103D01*
X164760304Y-108079135D01*
X164579135Y-108260304D01*
X164366103Y-108402647D01*
X164366102Y-108402648D01*
X164366101Y-108402648D01*
X164129393Y-108500696D01*
X163878107Y-108550680D01*
X163621893Y-108550680D01*
X163370607Y-108500696D01*
X163133899Y-108402648D01*
X163133898Y-108402648D01*
X163133897Y-108402647D01*
X162920865Y-108260304D01*
X162739696Y-108079135D01*
X162597353Y-107866103D01*
X162597352Y-107866101D01*
X162499304Y-107629393D01*
X162449320Y-107378107D01*
X162449320Y-107121893D01*
X162499304Y-106870607D01*
X162597352Y-106633899D01*
X162597353Y-106633897D01*
X162739696Y-106420865D01*
X162920865Y-106239696D01*
X163133897Y-106097353D01*
X163133899Y-106097352D01*
X163370607Y-105999304D01*
X163621893Y-105949320D01*
X163878107Y-105949320D01*
X164129393Y-105999304D01*
G37*
G36*
X160379393Y-105999304D02*
G01*
X160616101Y-106097352D01*
X160616103Y-106097353D01*
X160829135Y-106239696D01*
X161010304Y-106420865D01*
X161152647Y-106633897D01*
X161152648Y-106633899D01*
X161250696Y-106870607D01*
X161300680Y-107121893D01*
X161300680Y-107378107D01*
X161250696Y-107629393D01*
X161152648Y-107866101D01*
X161152647Y-107866103D01*
X161010304Y-108079135D01*
X160829135Y-108260304D01*
X160616103Y-108402647D01*
X160616102Y-108402648D01*
X160616101Y-108402648D01*
X160379393Y-108500696D01*
X160128107Y-108550680D01*
X159871893Y-108550680D01*
X159620607Y-108500696D01*
X159383899Y-108402648D01*
X159383898Y-108402648D01*
X159383897Y-108402647D01*
X159170865Y-108260304D01*
X158989696Y-108079135D01*
X158847353Y-107866103D01*
X158847352Y-107866101D01*
X158749304Y-107629393D01*
X158699320Y-107378107D01*
X158699320Y-107121893D01*
X158749304Y-106870607D01*
X158847352Y-106633899D01*
X158847353Y-106633897D01*
X158989696Y-106420865D01*
X159170865Y-106239696D01*
X159383897Y-106097353D01*
X159383899Y-106097352D01*
X159620607Y-105999304D01*
X159871893Y-105949320D01*
X160128107Y-105949320D01*
X160379393Y-105999304D01*
G37*
G36*
X160724549Y-101621116D02*
G01*
X160835734Y-101643232D01*
X161045203Y-101729997D01*
X161233720Y-101855960D01*
X161394040Y-102016280D01*
X161520003Y-102204797D01*
X161606768Y-102414266D01*
X161651000Y-102636636D01*
X161651000Y-102863364D01*
X161606768Y-103085734D01*
X161520003Y-103295203D01*
X161394040Y-103483720D01*
X161233720Y-103644040D01*
X161045203Y-103770003D01*
X160835734Y-103856768D01*
X160724549Y-103878884D01*
X160613365Y-103901000D01*
X160386635Y-103901000D01*
X160275451Y-103878884D01*
X160164266Y-103856768D01*
X159954797Y-103770003D01*
X159766280Y-103644040D01*
X159605960Y-103483720D01*
X159479997Y-103295203D01*
X159393232Y-103085734D01*
X159349000Y-102863364D01*
X159349000Y-102636636D01*
X159393232Y-102414266D01*
X159479997Y-102204797D01*
X159605960Y-102016280D01*
X159766280Y-101855960D01*
X159954797Y-101729997D01*
X160164266Y-101643232D01*
X160275451Y-101621116D01*
X160386635Y-101599000D01*
X160613365Y-101599000D01*
X160724549Y-101621116D01*
G37*
G36*
X190300680Y-102050680D02*
G01*
X187699320Y-102050680D01*
X187699320Y-99449320D01*
X190300680Y-99449320D01*
X190300680Y-102050680D01*
G37*
G36*
X182390483Y-100078335D02*
G01*
X182559240Y-100148236D01*
X182711118Y-100249718D01*
X182840282Y-100378882D01*
X182941764Y-100530760D01*
X183011665Y-100699517D01*
X183047300Y-100878668D01*
X183047300Y-101061332D01*
X183011665Y-101240483D01*
X182941764Y-101409240D01*
X182840282Y-101561118D01*
X182711118Y-101690282D01*
X182559240Y-101791764D01*
X182390483Y-101861665D01*
X182211332Y-101897300D01*
X182028668Y-101897300D01*
X181849517Y-101861665D01*
X181680760Y-101791764D01*
X181528882Y-101690282D01*
X181399718Y-101561118D01*
X181298236Y-101409240D01*
X181228335Y-101240483D01*
X181192700Y-101061332D01*
X181192700Y-100878668D01*
X181228335Y-100699517D01*
X181298236Y-100530760D01*
X181399718Y-100378882D01*
X181528882Y-100249718D01*
X181680760Y-100148236D01*
X181849517Y-100078335D01*
X182028668Y-100042700D01*
X182211332Y-100042700D01*
X182390483Y-100078335D01*
G37*
G36*
X167150483Y-100078335D02*
G01*
X167319240Y-100148236D01*
X167471118Y-100249718D01*
X167600282Y-100378882D01*
X167701764Y-100530760D01*
X167771665Y-100699517D01*
X167807300Y-100878668D01*
X167807300Y-101061332D01*
X167771665Y-101240483D01*
X167701764Y-101409240D01*
X167600282Y-101561118D01*
X167471118Y-101690282D01*
X167319240Y-101791764D01*
X167150483Y-101861665D01*
X166971332Y-101897300D01*
X166788668Y-101897300D01*
X166609517Y-101861665D01*
X166440760Y-101791764D01*
X166288882Y-101690282D01*
X166159718Y-101561118D01*
X166058236Y-101409240D01*
X165988335Y-101240483D01*
X165952700Y-101061332D01*
X165952700Y-100878668D01*
X165988335Y-100699517D01*
X166058236Y-100530760D01*
X166159718Y-100378882D01*
X166288882Y-100249718D01*
X166440760Y-100148236D01*
X166609517Y-100078335D01*
X166788668Y-100042700D01*
X166971332Y-100042700D01*
X167150483Y-100078335D01*
G37*
G36*
X182390483Y-97538335D02*
G01*
X182559240Y-97608236D01*
X182711118Y-97709718D01*
X182840282Y-97838882D01*
X182941764Y-97990760D01*
X183011665Y-98159517D01*
X183047300Y-98338668D01*
X183047300Y-98521332D01*
X183011665Y-98700483D01*
X182941764Y-98869240D01*
X182840282Y-99021118D01*
X182711118Y-99150282D01*
X182559240Y-99251764D01*
X182390483Y-99321665D01*
X182211332Y-99357300D01*
X182028668Y-99357300D01*
X181849517Y-99321665D01*
X181680760Y-99251764D01*
X181528882Y-99150282D01*
X181399718Y-99021118D01*
X181298236Y-98869240D01*
X181228335Y-98700483D01*
X181192700Y-98521332D01*
X181192700Y-98338668D01*
X181228335Y-98159517D01*
X181298236Y-97990760D01*
X181399718Y-97838882D01*
X181528882Y-97709718D01*
X181680760Y-97608236D01*
X181849517Y-97538335D01*
X182028668Y-97502700D01*
X182211332Y-97502700D01*
X182390483Y-97538335D01*
G37*
G36*
X167150483Y-97538335D02*
G01*
X167319240Y-97608236D01*
X167471118Y-97709718D01*
X167600282Y-97838882D01*
X167701764Y-97990760D01*
X167771665Y-98159517D01*
X167807300Y-98338668D01*
X167807300Y-98521332D01*
X167771665Y-98700483D01*
X167701764Y-98869240D01*
X167600282Y-99021118D01*
X167471118Y-99150282D01*
X167319240Y-99251764D01*
X167150483Y-99321665D01*
X166971332Y-99357300D01*
X166788668Y-99357300D01*
X166609517Y-99321665D01*
X166440760Y-99251764D01*
X166288882Y-99150282D01*
X166159718Y-99021118D01*
X166058236Y-98869240D01*
X165988335Y-98700483D01*
X165952700Y-98521332D01*
X165952700Y-98338668D01*
X165988335Y-98159517D01*
X166058236Y-97990760D01*
X166159718Y-97838882D01*
X166288882Y-97709718D01*
X166440760Y-97608236D01*
X166609517Y-97538335D01*
X166788668Y-97502700D01*
X166971332Y-97502700D01*
X167150483Y-97538335D01*
G37*
G36*
X189379393Y-96324304D02*
G01*
X189616101Y-96422352D01*
X189616103Y-96422353D01*
X189829135Y-96564696D01*
X190010304Y-96745865D01*
X190058035Y-96817300D01*
X190152648Y-96958899D01*
X190250696Y-97195607D01*
X190300680Y-97446893D01*
X190300680Y-97703107D01*
X190250696Y-97954393D01*
X190157605Y-98179134D01*
X190152647Y-98191103D01*
X190010304Y-98404135D01*
X189829135Y-98585304D01*
X189616103Y-98727647D01*
X189616102Y-98727648D01*
X189616101Y-98727648D01*
X189379393Y-98825696D01*
X189128107Y-98875680D01*
X188871893Y-98875680D01*
X188620607Y-98825696D01*
X188383899Y-98727648D01*
X188383898Y-98727648D01*
X188383897Y-98727647D01*
X188170865Y-98585304D01*
X187989696Y-98404135D01*
X187847353Y-98191103D01*
X187842395Y-98179134D01*
X187749304Y-97954393D01*
X187699320Y-97703107D01*
X187699320Y-97446893D01*
X187749304Y-97195607D01*
X187847352Y-96958899D01*
X187941965Y-96817300D01*
X187989696Y-96745865D01*
X188170865Y-96564696D01*
X188383897Y-96422353D01*
X188383899Y-96422352D01*
X188620607Y-96324304D01*
X188871893Y-96274320D01*
X189128107Y-96274320D01*
X189379393Y-96324304D01*
G37*
G36*
X160379393Y-96099304D02*
G01*
X160616101Y-96197352D01*
X160616103Y-96197353D01*
X160829135Y-96339696D01*
X161010304Y-96520865D01*
X161137858Y-96711764D01*
X161152648Y-96733899D01*
X161250696Y-96970607D01*
X161300680Y-97221893D01*
X161300680Y-97478107D01*
X161250696Y-97729393D01*
X161157497Y-97954394D01*
X161152647Y-97966103D01*
X161010304Y-98179135D01*
X160829135Y-98360304D01*
X160616103Y-98502647D01*
X160616102Y-98502648D01*
X160616101Y-98502648D01*
X160379393Y-98600696D01*
X160128107Y-98650680D01*
X159871893Y-98650680D01*
X159620607Y-98600696D01*
X159383899Y-98502648D01*
X159383898Y-98502648D01*
X159383897Y-98502647D01*
X159170865Y-98360304D01*
X158989696Y-98179135D01*
X158847353Y-97966103D01*
X158842503Y-97954394D01*
X158749304Y-97729393D01*
X158699320Y-97478107D01*
X158699320Y-97221893D01*
X158749304Y-96970607D01*
X158847352Y-96733899D01*
X158862142Y-96711764D01*
X158989696Y-96520865D01*
X159170865Y-96339696D01*
X159383897Y-96197353D01*
X159383899Y-96197352D01*
X159620607Y-96099304D01*
X159871893Y-96049320D01*
X160128107Y-96049320D01*
X160379393Y-96099304D01*
G37*
G36*
X167150483Y-94998335D02*
G01*
X167319240Y-95068236D01*
X167471118Y-95169718D01*
X167600282Y-95298882D01*
X167701764Y-95450760D01*
X167771665Y-95619517D01*
X167807300Y-95798668D01*
X167807300Y-95981332D01*
X167771665Y-96160483D01*
X167701764Y-96329240D01*
X167600282Y-96481118D01*
X167471118Y-96610282D01*
X167319240Y-96711764D01*
X167150483Y-96781665D01*
X166971332Y-96817300D01*
X166788668Y-96817300D01*
X166609517Y-96781665D01*
X166440760Y-96711764D01*
X166288882Y-96610282D01*
X166159718Y-96481118D01*
X166058236Y-96329240D01*
X165988335Y-96160483D01*
X165952700Y-95981332D01*
X165952700Y-95798668D01*
X165988335Y-95619517D01*
X166058236Y-95450760D01*
X166159718Y-95298882D01*
X166288882Y-95169718D01*
X166440760Y-95068236D01*
X166609517Y-94998335D01*
X166788668Y-94962700D01*
X166971332Y-94962700D01*
X167150483Y-94998335D01*
G37*
G36*
X182390483Y-94998335D02*
G01*
X182559240Y-95068236D01*
X182711118Y-95169718D01*
X182840282Y-95298882D01*
X182941764Y-95450760D01*
X183011665Y-95619517D01*
X183047300Y-95798668D01*
X183047300Y-95981332D01*
X183011665Y-96160483D01*
X182941764Y-96329240D01*
X182840282Y-96481118D01*
X182711118Y-96610282D01*
X182559240Y-96711764D01*
X182390483Y-96781665D01*
X182211332Y-96817300D01*
X182028668Y-96817300D01*
X181849517Y-96781665D01*
X181680760Y-96711764D01*
X181528882Y-96610282D01*
X181399718Y-96481118D01*
X181298236Y-96329240D01*
X181228335Y-96160483D01*
X181192700Y-95981332D01*
X181192700Y-95798668D01*
X181228335Y-95619517D01*
X181298236Y-95450760D01*
X181399718Y-95298882D01*
X181528882Y-95169718D01*
X181680760Y-95068236D01*
X181849517Y-94998335D01*
X182028668Y-94962700D01*
X182211332Y-94962700D01*
X182390483Y-94998335D01*
G37*
G36*
X189379393Y-93149304D02*
G01*
X189616101Y-93247352D01*
X189616103Y-93247353D01*
X189829135Y-93389696D01*
X190010304Y-93570865D01*
X190152647Y-93783897D01*
X190152648Y-93783899D01*
X190250696Y-94020607D01*
X190300680Y-94271893D01*
X190300680Y-94528107D01*
X190250696Y-94779393D01*
X190174767Y-94962700D01*
X190152647Y-95016103D01*
X190010304Y-95229135D01*
X189829135Y-95410304D01*
X189616103Y-95552647D01*
X189616102Y-95552648D01*
X189616101Y-95552648D01*
X189379393Y-95650696D01*
X189128107Y-95700680D01*
X188871893Y-95700680D01*
X188620607Y-95650696D01*
X188383899Y-95552648D01*
X188383898Y-95552648D01*
X188383897Y-95552647D01*
X188170865Y-95410304D01*
X187989696Y-95229135D01*
X187847353Y-95016103D01*
X187825233Y-94962700D01*
X187749304Y-94779393D01*
X187699320Y-94528107D01*
X187699320Y-94271893D01*
X187749304Y-94020607D01*
X187847352Y-93783899D01*
X187847353Y-93783897D01*
X187989696Y-93570865D01*
X188170865Y-93389696D01*
X188383897Y-93247353D01*
X188383899Y-93247352D01*
X188620607Y-93149304D01*
X188871893Y-93099320D01*
X189128107Y-93099320D01*
X189379393Y-93149304D01*
G37*
G36*
X160379393Y-92924304D02*
G01*
X160616101Y-93022352D01*
X160616103Y-93022353D01*
X160829135Y-93164696D01*
X161010304Y-93345865D01*
X161152647Y-93558897D01*
X161152648Y-93558899D01*
X161250696Y-93795607D01*
X161300680Y-94046893D01*
X161300680Y-94303107D01*
X161250696Y-94554393D01*
X161157497Y-94779394D01*
X161152647Y-94791103D01*
X161010304Y-95004135D01*
X160829135Y-95185304D01*
X160616103Y-95327647D01*
X160616102Y-95327648D01*
X160616101Y-95327648D01*
X160379393Y-95425696D01*
X160128107Y-95475680D01*
X159871893Y-95475680D01*
X159620607Y-95425696D01*
X159383899Y-95327648D01*
X159383898Y-95327648D01*
X159383897Y-95327647D01*
X159170865Y-95185304D01*
X158989696Y-95004135D01*
X158847353Y-94791103D01*
X158842503Y-94779394D01*
X158749304Y-94554393D01*
X158699320Y-94303107D01*
X158699320Y-94046893D01*
X158749304Y-93795607D01*
X158847352Y-93558899D01*
X158847353Y-93558897D01*
X158989696Y-93345865D01*
X159170865Y-93164696D01*
X159383897Y-93022353D01*
X159383899Y-93022352D01*
X159620607Y-92924304D01*
X159871893Y-92874320D01*
X160128107Y-92874320D01*
X160379393Y-92924304D01*
G37*
G36*
X167150483Y-92458335D02*
G01*
X167319240Y-92528236D01*
X167471118Y-92629718D01*
X167600282Y-92758882D01*
X167701764Y-92910760D01*
X167771665Y-93079517D01*
X167807300Y-93258668D01*
X167807300Y-93441332D01*
X167771665Y-93620483D01*
X167701764Y-93789240D01*
X167600282Y-93941118D01*
X167471118Y-94070282D01*
X167319240Y-94171764D01*
X167150483Y-94241665D01*
X166971332Y-94277300D01*
X166788668Y-94277300D01*
X166609517Y-94241665D01*
X166440760Y-94171764D01*
X166288882Y-94070282D01*
X166159718Y-93941118D01*
X166058236Y-93789240D01*
X165988335Y-93620483D01*
X165952700Y-93441332D01*
X165952700Y-93258668D01*
X165988335Y-93079517D01*
X166058236Y-92910760D01*
X166159718Y-92758882D01*
X166288882Y-92629718D01*
X166440760Y-92528236D01*
X166609517Y-92458335D01*
X166788668Y-92422700D01*
X166971332Y-92422700D01*
X167150483Y-92458335D01*
G37*
G36*
X182390483Y-92458335D02*
G01*
X182559240Y-92528236D01*
X182711118Y-92629718D01*
X182840282Y-92758882D01*
X182941764Y-92910760D01*
X183011665Y-93079517D01*
X183047300Y-93258668D01*
X183047300Y-93441332D01*
X183011665Y-93620483D01*
X182941764Y-93789240D01*
X182840282Y-93941118D01*
X182711118Y-94070282D01*
X182559240Y-94171764D01*
X182390483Y-94241665D01*
X182211332Y-94277300D01*
X182028668Y-94277300D01*
X181849517Y-94241665D01*
X181680760Y-94171764D01*
X181528882Y-94070282D01*
X181399718Y-93941118D01*
X181298236Y-93789240D01*
X181228335Y-93620483D01*
X181192700Y-93441332D01*
X181192700Y-93258668D01*
X181228335Y-93079517D01*
X181298236Y-92910760D01*
X181399718Y-92758882D01*
X181528882Y-92629718D01*
X181680760Y-92528236D01*
X181849517Y-92458335D01*
X182028668Y-92422700D01*
X182211332Y-92422700D01*
X182390483Y-92458335D01*
G37*
G36*
X161300680Y-92300680D02*
G01*
X158699320Y-92300680D01*
X158699320Y-89699320D01*
X161300680Y-89699320D01*
X161300680Y-92300680D01*
G37*
G36*
X182390483Y-89918335D02*
G01*
X182559240Y-89988236D01*
X182711118Y-90089718D01*
X182840282Y-90218882D01*
X182941764Y-90370760D01*
X183011665Y-90539517D01*
X183047300Y-90718668D01*
X183047300Y-90901332D01*
X183011665Y-91080483D01*
X182941764Y-91249240D01*
X182840282Y-91401118D01*
X182711118Y-91530282D01*
X182559240Y-91631764D01*
X182390483Y-91701665D01*
X182211332Y-91737300D01*
X182028668Y-91737300D01*
X181849517Y-91701665D01*
X181680760Y-91631764D01*
X181528882Y-91530282D01*
X181399718Y-91401118D01*
X181298236Y-91249240D01*
X181228335Y-91080483D01*
X181192700Y-90901332D01*
X181192700Y-90718668D01*
X181228335Y-90539517D01*
X181298236Y-90370760D01*
X181399718Y-90218882D01*
X181528882Y-90089718D01*
X181680760Y-89988236D01*
X181849517Y-89918335D01*
X182028668Y-89882700D01*
X182211332Y-89882700D01*
X182390483Y-89918335D01*
G37*
G36*
X167150483Y-89918335D02*
G01*
X167319240Y-89988236D01*
X167471118Y-90089718D01*
X167600282Y-90218882D01*
X167701764Y-90370760D01*
X167771665Y-90539517D01*
X167807300Y-90718668D01*
X167807300Y-90901332D01*
X167771665Y-91080483D01*
X167701764Y-91249240D01*
X167600282Y-91401118D01*
X167471118Y-91530282D01*
X167319240Y-91631764D01*
X167150483Y-91701665D01*
X166971332Y-91737300D01*
X166788668Y-91737300D01*
X166609517Y-91701665D01*
X166440760Y-91631764D01*
X166288882Y-91530282D01*
X166159718Y-91401118D01*
X166058236Y-91249240D01*
X165988335Y-91080483D01*
X165952700Y-90901332D01*
X165952700Y-90718668D01*
X165988335Y-90539517D01*
X166058236Y-90370760D01*
X166159718Y-90218882D01*
X166288882Y-90089718D01*
X166440760Y-89988236D01*
X166609517Y-89918335D01*
X166788668Y-89882700D01*
X166971332Y-89882700D01*
X167150483Y-89918335D01*
G37*
G36*
X190300680Y-91550680D02*
G01*
X187699320Y-91550680D01*
X187699320Y-88949320D01*
X190300680Y-88949320D01*
X190300680Y-91550680D01*
G37*
G36*
X182390483Y-87378335D02*
G01*
X182559240Y-87448236D01*
X182711118Y-87549718D01*
X182840282Y-87678882D01*
X182941764Y-87830760D01*
X183011665Y-87999517D01*
X183047300Y-88178668D01*
X183047300Y-88361332D01*
X183011665Y-88540483D01*
X182941764Y-88709240D01*
X182840282Y-88861118D01*
X182711118Y-88990282D01*
X182559240Y-89091764D01*
X182390483Y-89161665D01*
X182211332Y-89197300D01*
X182028668Y-89197300D01*
X181849517Y-89161665D01*
X181680760Y-89091764D01*
X181528882Y-88990282D01*
X181399718Y-88861118D01*
X181298236Y-88709240D01*
X181228335Y-88540483D01*
X181192700Y-88361332D01*
X181192700Y-88178668D01*
X181228335Y-87999517D01*
X181298236Y-87830760D01*
X181399718Y-87678882D01*
X181528882Y-87549718D01*
X181680760Y-87448236D01*
X181849517Y-87378335D01*
X182028668Y-87342700D01*
X182211332Y-87342700D01*
X182390483Y-87378335D01*
G37*
G36*
X167150483Y-87378335D02*
G01*
X167319240Y-87448236D01*
X167471118Y-87549718D01*
X167600282Y-87678882D01*
X167701764Y-87830760D01*
X167771665Y-87999517D01*
X167807300Y-88178668D01*
X167807300Y-88361332D01*
X167771665Y-88540483D01*
X167701764Y-88709240D01*
X167600282Y-88861118D01*
X167471118Y-88990282D01*
X167319240Y-89091764D01*
X167150483Y-89161665D01*
X166971332Y-89197300D01*
X166788668Y-89197300D01*
X166609517Y-89161665D01*
X166440760Y-89091764D01*
X166288882Y-88990282D01*
X166159718Y-88861118D01*
X166058236Y-88709240D01*
X165988335Y-88540483D01*
X165952700Y-88361332D01*
X165952700Y-88178668D01*
X165988335Y-87999517D01*
X166058236Y-87830760D01*
X166159718Y-87678882D01*
X166288882Y-87549718D01*
X166440760Y-87448236D01*
X166609517Y-87378335D01*
X166788668Y-87342700D01*
X166971332Y-87342700D01*
X167150483Y-87378335D01*
G37*
G36*
X189379393Y-85824304D02*
G01*
X189616101Y-85922352D01*
X189616103Y-85922353D01*
X189829135Y-86064696D01*
X190010304Y-86245865D01*
X190152647Y-86458897D01*
X190152648Y-86458899D01*
X190250696Y-86695607D01*
X190300680Y-86946893D01*
X190300680Y-87203107D01*
X190250696Y-87454393D01*
X190157710Y-87678881D01*
X190152647Y-87691103D01*
X190010304Y-87904135D01*
X189829135Y-88085304D01*
X189616103Y-88227647D01*
X189616102Y-88227648D01*
X189616101Y-88227648D01*
X189379393Y-88325696D01*
X189128107Y-88375680D01*
X188871893Y-88375680D01*
X188620607Y-88325696D01*
X188383899Y-88227648D01*
X188383898Y-88227648D01*
X188383897Y-88227647D01*
X188170865Y-88085304D01*
X187989696Y-87904135D01*
X187847353Y-87691103D01*
X187842290Y-87678881D01*
X187749304Y-87454393D01*
X187699320Y-87203107D01*
X187699320Y-86946893D01*
X187749304Y-86695607D01*
X187847352Y-86458899D01*
X187847353Y-86458897D01*
X187989696Y-86245865D01*
X188170865Y-86064696D01*
X188383897Y-85922353D01*
X188383899Y-85922352D01*
X188620607Y-85824304D01*
X188871893Y-85774320D01*
X189128107Y-85774320D01*
X189379393Y-85824304D01*
G37*
G36*
X182390483Y-84838335D02*
G01*
X182559240Y-84908236D01*
X182711118Y-85009718D01*
X182840282Y-85138882D01*
X182941764Y-85290760D01*
X183011665Y-85459517D01*
X183047300Y-85638668D01*
X183047300Y-85821332D01*
X183011665Y-86000483D01*
X182941764Y-86169240D01*
X182840282Y-86321118D01*
X182711118Y-86450282D01*
X182559240Y-86551764D01*
X182390483Y-86621665D01*
X182211332Y-86657300D01*
X182028668Y-86657300D01*
X181849517Y-86621665D01*
X181680760Y-86551764D01*
X181528882Y-86450282D01*
X181399718Y-86321118D01*
X181298236Y-86169240D01*
X181228335Y-86000483D01*
X181192700Y-85821332D01*
X181192700Y-85638668D01*
X181228335Y-85459517D01*
X181298236Y-85290760D01*
X181399718Y-85138882D01*
X181528882Y-85009718D01*
X181680760Y-84908236D01*
X181849517Y-84838335D01*
X182028668Y-84802700D01*
X182211332Y-84802700D01*
X182390483Y-84838335D01*
G37*
G36*
X167150483Y-84838335D02*
G01*
X167319240Y-84908236D01*
X167471118Y-85009718D01*
X167600282Y-85138882D01*
X167701764Y-85290760D01*
X167771665Y-85459517D01*
X167807300Y-85638668D01*
X167807300Y-85821332D01*
X167771665Y-86000483D01*
X167701764Y-86169240D01*
X167600282Y-86321118D01*
X167471118Y-86450282D01*
X167319240Y-86551764D01*
X167150483Y-86621665D01*
X166971332Y-86657300D01*
X166788668Y-86657300D01*
X166609517Y-86621665D01*
X166440760Y-86551764D01*
X166288882Y-86450282D01*
X166159718Y-86321118D01*
X166058236Y-86169240D01*
X165988335Y-86000483D01*
X165952700Y-85821332D01*
X165952700Y-85638668D01*
X165988335Y-85459517D01*
X166058236Y-85290760D01*
X166159718Y-85138882D01*
X166288882Y-85009718D01*
X166440760Y-84908236D01*
X166609517Y-84838335D01*
X166788668Y-84802700D01*
X166971332Y-84802700D01*
X167150483Y-84838335D01*
G37*
G36*
X160379393Y-84099304D02*
G01*
X160616101Y-84197352D01*
X160616103Y-84197353D01*
X160829135Y-84339696D01*
X161010304Y-84520865D01*
X161149464Y-84729134D01*
X161152648Y-84733899D01*
X161250696Y-84970607D01*
X161300680Y-85221893D01*
X161300680Y-85478107D01*
X161250696Y-85729393D01*
X161212613Y-85821332D01*
X161152647Y-85966103D01*
X161010304Y-86179135D01*
X160829135Y-86360304D01*
X160616103Y-86502647D01*
X160616102Y-86502648D01*
X160616101Y-86502648D01*
X160379393Y-86600696D01*
X160128107Y-86650680D01*
X159871893Y-86650680D01*
X159620607Y-86600696D01*
X159383899Y-86502648D01*
X159383898Y-86502648D01*
X159383897Y-86502647D01*
X159170865Y-86360304D01*
X158989696Y-86179135D01*
X158847353Y-85966103D01*
X158787387Y-85821332D01*
X158749304Y-85729393D01*
X158699320Y-85478107D01*
X158699320Y-85221893D01*
X158749304Y-84970607D01*
X158847352Y-84733899D01*
X158850536Y-84729134D01*
X158989696Y-84520865D01*
X159170865Y-84339696D01*
X159383897Y-84197353D01*
X159383899Y-84197352D01*
X159620607Y-84099304D01*
X159871893Y-84049320D01*
X160128107Y-84049320D01*
X160379393Y-84099304D01*
G37*
G36*
X189379393Y-82649304D02*
G01*
X189616101Y-82747352D01*
X189616103Y-82747353D01*
X189829135Y-82889696D01*
X190010304Y-83070865D01*
X190086769Y-83185304D01*
X190152648Y-83283899D01*
X190250696Y-83520607D01*
X190300680Y-83771893D01*
X190300680Y-84028107D01*
X190250696Y-84279393D01*
X190152648Y-84516101D01*
X190152647Y-84516103D01*
X190010304Y-84729135D01*
X189829135Y-84910304D01*
X189616103Y-85052647D01*
X189616102Y-85052648D01*
X189616101Y-85052648D01*
X189379393Y-85150696D01*
X189128107Y-85200680D01*
X188871893Y-85200680D01*
X188620607Y-85150696D01*
X188383899Y-85052648D01*
X188383898Y-85052648D01*
X188383897Y-85052647D01*
X188170865Y-84910304D01*
X187989696Y-84729135D01*
X187847353Y-84516103D01*
X187847352Y-84516101D01*
X187749304Y-84279393D01*
X187699320Y-84028107D01*
X187699320Y-83771893D01*
X187749304Y-83520607D01*
X187847352Y-83283899D01*
X187913231Y-83185304D01*
X187989696Y-83070865D01*
X188170865Y-82889696D01*
X188383897Y-82747353D01*
X188383899Y-82747352D01*
X188620607Y-82649304D01*
X188871893Y-82599320D01*
X189128107Y-82599320D01*
X189379393Y-82649304D01*
G37*
G36*
X182390483Y-82298335D02*
G01*
X182559240Y-82368236D01*
X182711118Y-82469718D01*
X182840282Y-82598882D01*
X182941764Y-82750760D01*
X183011665Y-82919517D01*
X183047300Y-83098668D01*
X183047300Y-83281332D01*
X183011665Y-83460483D01*
X182941764Y-83629240D01*
X182840282Y-83781118D01*
X182711118Y-83910282D01*
X182559240Y-84011764D01*
X182390483Y-84081665D01*
X182211332Y-84117300D01*
X182028668Y-84117300D01*
X181849517Y-84081665D01*
X181680760Y-84011764D01*
X181528882Y-83910282D01*
X181399718Y-83781118D01*
X181298236Y-83629240D01*
X181228335Y-83460483D01*
X181192700Y-83281332D01*
X181192700Y-83098668D01*
X181228335Y-82919517D01*
X181298236Y-82750760D01*
X181399718Y-82598882D01*
X181528882Y-82469718D01*
X181680760Y-82368236D01*
X181849517Y-82298335D01*
X182028668Y-82262700D01*
X182211332Y-82262700D01*
X182390483Y-82298335D01*
G37*
G36*
X167150483Y-82298335D02*
G01*
X167319240Y-82368236D01*
X167471118Y-82469718D01*
X167600282Y-82598882D01*
X167701764Y-82750760D01*
X167771665Y-82919517D01*
X167807300Y-83098668D01*
X167807300Y-83281332D01*
X167771665Y-83460483D01*
X167701764Y-83629240D01*
X167600282Y-83781118D01*
X167471118Y-83910282D01*
X167319240Y-84011764D01*
X167150483Y-84081665D01*
X166971332Y-84117300D01*
X166788668Y-84117300D01*
X166609517Y-84081665D01*
X166440760Y-84011764D01*
X166288882Y-83910282D01*
X166159718Y-83781118D01*
X166058236Y-83629240D01*
X165988335Y-83460483D01*
X165952700Y-83281332D01*
X165952700Y-83098668D01*
X165988335Y-82919517D01*
X166058236Y-82750760D01*
X166159718Y-82598882D01*
X166288882Y-82469718D01*
X166440760Y-82368236D01*
X166609517Y-82298335D01*
X166788668Y-82262700D01*
X166971332Y-82262700D01*
X167150483Y-82298335D01*
G37*
G36*
X160379393Y-80924304D02*
G01*
X160616101Y-81022352D01*
X160616103Y-81022353D01*
X160829135Y-81164696D01*
X161010304Y-81345865D01*
X161141133Y-81541665D01*
X161152648Y-81558899D01*
X161250696Y-81795607D01*
X161300680Y-82046893D01*
X161300680Y-82303107D01*
X161250696Y-82554393D01*
X161211382Y-82649304D01*
X161152647Y-82791103D01*
X161010304Y-83004135D01*
X160829135Y-83185304D01*
X160616103Y-83327647D01*
X160616102Y-83327648D01*
X160616101Y-83327648D01*
X160379393Y-83425696D01*
X160128107Y-83475680D01*
X159871893Y-83475680D01*
X159620607Y-83425696D01*
X159383899Y-83327648D01*
X159383898Y-83327648D01*
X159383897Y-83327647D01*
X159170865Y-83185304D01*
X158989696Y-83004135D01*
X158847353Y-82791103D01*
X158788618Y-82649304D01*
X158749304Y-82554393D01*
X158699320Y-82303107D01*
X158699320Y-82046893D01*
X158749304Y-81795607D01*
X158847352Y-81558899D01*
X158858867Y-81541665D01*
X158989696Y-81345865D01*
X159170865Y-81164696D01*
X159383897Y-81022353D01*
X159383899Y-81022352D01*
X159620607Y-80924304D01*
X159871893Y-80874320D01*
X160128107Y-80874320D01*
X160379393Y-80924304D01*
G37*
G36*
X182390483Y-79758335D02*
G01*
X182559240Y-79828236D01*
X182711118Y-79929718D01*
X182840282Y-80058882D01*
X182941764Y-80210760D01*
X183011665Y-80379517D01*
X183047300Y-80558668D01*
X183047300Y-80741332D01*
X183011665Y-80920483D01*
X182941764Y-81089240D01*
X182840282Y-81241118D01*
X182711118Y-81370282D01*
X182559240Y-81471764D01*
X182390483Y-81541665D01*
X182211332Y-81577300D01*
X182028668Y-81577300D01*
X181849517Y-81541665D01*
X181680760Y-81471764D01*
X181528882Y-81370282D01*
X181399718Y-81241118D01*
X181298236Y-81089240D01*
X181228335Y-80920483D01*
X181192700Y-80741332D01*
X181192700Y-80558668D01*
X181228335Y-80379517D01*
X181298236Y-80210760D01*
X181399718Y-80058882D01*
X181528882Y-79929718D01*
X181680760Y-79828236D01*
X181849517Y-79758335D01*
X182028668Y-79722700D01*
X182211332Y-79722700D01*
X182390483Y-79758335D01*
G37*
G36*
X167150483Y-79758335D02*
G01*
X167319240Y-79828236D01*
X167471118Y-79929718D01*
X167600282Y-80058882D01*
X167701764Y-80210760D01*
X167771665Y-80379517D01*
X167807300Y-80558668D01*
X167807300Y-80741332D01*
X167771665Y-80920483D01*
X167701764Y-81089240D01*
X167600282Y-81241118D01*
X167471118Y-81370282D01*
X167319240Y-81471764D01*
X167150483Y-81541665D01*
X166971332Y-81577300D01*
X166788668Y-81577300D01*
X166609517Y-81541665D01*
X166440760Y-81471764D01*
X166288882Y-81370282D01*
X166159718Y-81241118D01*
X166058236Y-81089240D01*
X165988335Y-80920483D01*
X165952700Y-80741332D01*
X165952700Y-80558668D01*
X165988335Y-80379517D01*
X166058236Y-80210760D01*
X166159718Y-80058882D01*
X166288882Y-79929718D01*
X166440760Y-79828236D01*
X166609517Y-79758335D01*
X166788668Y-79722700D01*
X166971332Y-79722700D01*
X167150483Y-79758335D01*
G37*
G36*
X190300680Y-80975680D02*
G01*
X187699320Y-80975680D01*
X187699320Y-78374320D01*
X190300680Y-78374320D01*
X190300680Y-80975680D01*
G37*
G36*
X161300680Y-80300680D02*
G01*
X158699320Y-80300680D01*
X158699320Y-77699320D01*
X161300680Y-77699320D01*
X161300680Y-80300680D01*
G37*
G36*
X167150483Y-77218335D02*
G01*
X167319240Y-77288236D01*
X167471118Y-77389718D01*
X167600282Y-77518882D01*
X167701764Y-77670760D01*
X167771665Y-77839517D01*
X167807300Y-78018668D01*
X167807300Y-78201332D01*
X167771665Y-78380483D01*
X167701764Y-78549240D01*
X167600282Y-78701118D01*
X167471118Y-78830282D01*
X167319240Y-78931764D01*
X167150483Y-79001665D01*
X166971332Y-79037300D01*
X166788668Y-79037300D01*
X166609517Y-79001665D01*
X166440760Y-78931764D01*
X166288882Y-78830282D01*
X166159718Y-78701118D01*
X166058236Y-78549240D01*
X165988335Y-78380483D01*
X165952700Y-78201332D01*
X165952700Y-78018668D01*
X165988335Y-77839517D01*
X166058236Y-77670760D01*
X166159718Y-77518882D01*
X166288882Y-77389718D01*
X166440760Y-77288236D01*
X166609517Y-77218335D01*
X166788668Y-77182700D01*
X166971332Y-77182700D01*
X167150483Y-77218335D01*
G37*
G36*
X182390483Y-77218335D02*
G01*
X182559240Y-77288236D01*
X182711118Y-77389718D01*
X182840282Y-77518882D01*
X182941764Y-77670760D01*
X183011665Y-77839517D01*
X183047300Y-78018668D01*
X183047300Y-78201332D01*
X183011665Y-78380483D01*
X182941764Y-78549240D01*
X182840282Y-78701118D01*
X182711118Y-78830282D01*
X182559240Y-78931764D01*
X182390483Y-79001665D01*
X182211332Y-79037300D01*
X182028668Y-79037300D01*
X181849517Y-79001665D01*
X181680760Y-78931764D01*
X181528882Y-78830282D01*
X181399718Y-78701118D01*
X181298236Y-78549240D01*
X181228335Y-78380483D01*
X181192700Y-78201332D01*
X181192700Y-78018668D01*
X181228335Y-77839517D01*
X181298236Y-77670760D01*
X181399718Y-77518882D01*
X181528882Y-77389718D01*
X181680760Y-77288236D01*
X181849517Y-77218335D01*
X182028668Y-77182700D01*
X182211332Y-77182700D01*
X182390483Y-77218335D01*
G37*
G36*
X189379393Y-75249304D02*
G01*
X189500617Y-75299517D01*
X189616103Y-75347353D01*
X189829135Y-75489696D01*
X190010304Y-75670865D01*
X190152647Y-75883897D01*
X190152648Y-75883899D01*
X190250696Y-76120607D01*
X190300680Y-76371893D01*
X190300680Y-76628107D01*
X190250696Y-76879393D01*
X190152648Y-77116101D01*
X190152647Y-77116103D01*
X190010304Y-77329135D01*
X189829135Y-77510304D01*
X189616103Y-77652647D01*
X189616102Y-77652648D01*
X189616101Y-77652648D01*
X189379393Y-77750696D01*
X189128107Y-77800680D01*
X188871893Y-77800680D01*
X188620607Y-77750696D01*
X188383899Y-77652648D01*
X188383898Y-77652648D01*
X188383897Y-77652647D01*
X188170865Y-77510304D01*
X187989696Y-77329135D01*
X187847353Y-77116103D01*
X187847352Y-77116101D01*
X187749304Y-76879393D01*
X187699320Y-76628107D01*
X187699320Y-76371893D01*
X187749304Y-76120607D01*
X187847352Y-75883899D01*
X187847353Y-75883897D01*
X187989696Y-75670865D01*
X188170865Y-75489696D01*
X188383897Y-75347353D01*
X188499383Y-75299517D01*
X188620607Y-75249304D01*
X188871893Y-75199320D01*
X189128107Y-75199320D01*
X189379393Y-75249304D01*
G37*
G36*
X167150483Y-74678335D02*
G01*
X167319240Y-74748236D01*
X167471118Y-74849718D01*
X167600282Y-74978882D01*
X167701764Y-75130760D01*
X167771665Y-75299517D01*
X167807300Y-75478668D01*
X167807300Y-75661332D01*
X167771665Y-75840483D01*
X167701764Y-76009240D01*
X167600282Y-76161118D01*
X167471118Y-76290282D01*
X167319240Y-76391764D01*
X167150483Y-76461665D01*
X166971332Y-76497300D01*
X166788668Y-76497300D01*
X166609517Y-76461665D01*
X166440760Y-76391764D01*
X166288882Y-76290282D01*
X166159718Y-76161118D01*
X166058236Y-76009240D01*
X165988335Y-75840483D01*
X165952700Y-75661332D01*
X165952700Y-75478668D01*
X165988335Y-75299517D01*
X166058236Y-75130760D01*
X166159718Y-74978882D01*
X166288882Y-74849718D01*
X166440760Y-74748236D01*
X166609517Y-74678335D01*
X166788668Y-74642700D01*
X166971332Y-74642700D01*
X167150483Y-74678335D01*
G37*
G36*
X182390483Y-74678335D02*
G01*
X182559240Y-74748236D01*
X182711118Y-74849718D01*
X182840282Y-74978882D01*
X182941764Y-75130760D01*
X183011665Y-75299517D01*
X183047300Y-75478668D01*
X183047300Y-75661332D01*
X183011665Y-75840483D01*
X182941764Y-76009240D01*
X182840282Y-76161118D01*
X182711118Y-76290282D01*
X182559240Y-76391764D01*
X182390483Y-76461665D01*
X182211332Y-76497300D01*
X182028668Y-76497300D01*
X181849517Y-76461665D01*
X181680760Y-76391764D01*
X181528882Y-76290282D01*
X181399718Y-76161118D01*
X181298236Y-76009240D01*
X181228335Y-75840483D01*
X181192700Y-75661332D01*
X181192700Y-75478668D01*
X181228335Y-75299517D01*
X181298236Y-75130760D01*
X181399718Y-74978882D01*
X181528882Y-74849718D01*
X181680760Y-74748236D01*
X181849517Y-74678335D01*
X182028668Y-74642700D01*
X182211332Y-74642700D01*
X182390483Y-74678335D01*
G37*
G36*
X160724549Y-72871116D02*
G01*
X160835734Y-72893232D01*
X161045203Y-72979997D01*
X161233720Y-73105960D01*
X161394040Y-73266280D01*
X161520003Y-73454797D01*
X161520004Y-73454799D01*
X161525986Y-73469241D01*
X161606768Y-73664266D01*
X161651000Y-73886636D01*
X161651000Y-74113364D01*
X161606768Y-74335734D01*
X161520003Y-74545203D01*
X161394040Y-74733720D01*
X161233720Y-74894040D01*
X161045203Y-75020003D01*
X160835734Y-75106768D01*
X160724549Y-75128884D01*
X160613365Y-75151000D01*
X160386635Y-75151000D01*
X160275451Y-75128884D01*
X160164266Y-75106768D01*
X159954797Y-75020003D01*
X159766280Y-74894040D01*
X159605960Y-74733720D01*
X159479997Y-74545203D01*
X159393232Y-74335734D01*
X159349000Y-74113364D01*
X159349000Y-73886636D01*
X159393232Y-73664266D01*
X159474014Y-73469241D01*
X159479996Y-73454799D01*
X159479997Y-73454797D01*
X159605960Y-73266280D01*
X159766280Y-73105960D01*
X159954797Y-72979997D01*
X160164266Y-72893232D01*
X160275451Y-72871116D01*
X160386635Y-72849000D01*
X160613365Y-72849000D01*
X160724549Y-72871116D01*
G37*
G36*
X189379393Y-72074304D02*
G01*
X189616101Y-72172352D01*
X189616103Y-72172353D01*
X189829135Y-72314696D01*
X190010304Y-72495865D01*
X190152647Y-72708897D01*
X190152648Y-72708899D01*
X190250696Y-72945607D01*
X190300680Y-73196893D01*
X190300680Y-73453107D01*
X190250696Y-73704393D01*
X190152648Y-73941101D01*
X190152647Y-73941103D01*
X190010304Y-74154135D01*
X189829135Y-74335304D01*
X189616103Y-74477647D01*
X189616102Y-74477648D01*
X189616101Y-74477648D01*
X189379393Y-74575696D01*
X189128107Y-74625680D01*
X188871893Y-74625680D01*
X188620607Y-74575696D01*
X188383899Y-74477648D01*
X188383898Y-74477648D01*
X188383897Y-74477647D01*
X188170865Y-74335304D01*
X187989696Y-74154135D01*
X187847353Y-73941103D01*
X187847352Y-73941101D01*
X187749304Y-73704393D01*
X187699320Y-73453107D01*
X187699320Y-73196893D01*
X187749304Y-72945607D01*
X187847352Y-72708899D01*
X187847353Y-72708897D01*
X187989696Y-72495865D01*
X188170865Y-72314696D01*
X188383897Y-72172353D01*
X188383899Y-72172352D01*
X188620607Y-72074304D01*
X188871893Y-72024320D01*
X189128107Y-72024320D01*
X189379393Y-72074304D01*
G37*
G36*
X167807300Y-73957300D02*
G01*
X165952700Y-73957300D01*
X165952700Y-72102700D01*
X167807300Y-72102700D01*
X167807300Y-73957300D01*
G37*
G36*
X182390483Y-72138335D02*
G01*
X182559240Y-72208236D01*
X182711118Y-72309718D01*
X182840282Y-72438882D01*
X182941764Y-72590760D01*
X183011665Y-72759517D01*
X183047300Y-72938668D01*
X183047300Y-73121332D01*
X183011665Y-73300483D01*
X182941764Y-73469240D01*
X182840282Y-73621118D01*
X182711118Y-73750282D01*
X182559240Y-73851764D01*
X182390483Y-73921665D01*
X182211332Y-73957300D01*
X182028668Y-73957300D01*
X181849517Y-73921665D01*
X181680760Y-73851764D01*
X181528882Y-73750282D01*
X181399718Y-73621118D01*
X181298236Y-73469240D01*
X181228335Y-73300483D01*
X181192700Y-73121332D01*
X181192700Y-72938668D01*
X181228335Y-72759517D01*
X181298236Y-72590760D01*
X181399718Y-72438882D01*
X181528882Y-72309718D01*
X181680760Y-72208236D01*
X181849517Y-72138335D01*
X182028668Y-72102700D01*
X182211332Y-72102700D01*
X182390483Y-72138335D01*
G37*
M02*
