G04 #@! TF.GenerationSoftware,KiCad,Pcbnew,(5.1.5-0-10_14)*
G04 #@! TF.CreationDate,2020-03-08T22:31:04+01:00*
G04 #@! TF.ProjectId,pro_micro_shield,70726f5f-6d69-4637-926f-5f736869656c,rev?*
G04 #@! TF.SameCoordinates,Original*
G04 #@! TF.FileFunction,Copper,L2,Bot*
G04 #@! TF.FilePolarity,Positive*
%FSLAX46Y46*%
G04 Gerber Fmt 4.6, Leading zero omitted, Abs format (unit mm)*
G04 Created by KiCad (PCBNEW (5.1.5-0-10_14)) date 2020-03-08 22:31:04*
%MOMM*%
%LPD*%
G04 APERTURE LIST*
%ADD10C,2.499360*%
%ADD11C,1.752600*%
%ADD12R,1.752600X1.752600*%
%ADD13R,2.499360X2.499360*%
%ADD14C,0.250000*%
%ADD15C,0.254000*%
G04 APERTURE END LIST*
D10*
X176500000Y-107250000D03*
X172500000Y-107250000D03*
D11*
X182120000Y-73030000D03*
X166880000Y-100970000D03*
X182120000Y-75570000D03*
X182120000Y-78110000D03*
X182120000Y-80650000D03*
X182120000Y-83190000D03*
X182120000Y-85730000D03*
X182120000Y-88270000D03*
X182120000Y-90810000D03*
X182120000Y-93350000D03*
X182120000Y-95890000D03*
X182120000Y-98430000D03*
X182120000Y-100970000D03*
X166880000Y-98430000D03*
X166880000Y-95890000D03*
X166880000Y-93350000D03*
X166880000Y-90810000D03*
X166880000Y-88270000D03*
X166880000Y-85730000D03*
X166880000Y-83190000D03*
X166880000Y-80650000D03*
X166880000Y-78110000D03*
X166880000Y-75570000D03*
D12*
X166880000Y-73030000D03*
D10*
X160150000Y-107500000D03*
X163325000Y-107500000D03*
D13*
X166500000Y-107500000D03*
D10*
X164560000Y-113750000D03*
D13*
X160750000Y-113750000D03*
D10*
X189000000Y-96150000D03*
X189000000Y-99325000D03*
D13*
X189000000Y-102500000D03*
D10*
X189000000Y-85650000D03*
X189000000Y-88825000D03*
D13*
X189000000Y-92000000D03*
D10*
X189000000Y-75075000D03*
X189000000Y-78250000D03*
D13*
X189000000Y-81425000D03*
D10*
X160000000Y-98100000D03*
X160000000Y-94925000D03*
D13*
X160000000Y-91750000D03*
D10*
X160000000Y-86100000D03*
X160000000Y-82925000D03*
D13*
X160000000Y-79750000D03*
D10*
X188560000Y-113750000D03*
D13*
X184750000Y-113750000D03*
D10*
X180560000Y-113750000D03*
D13*
X176750000Y-113750000D03*
D10*
X172560000Y-113750000D03*
D13*
X168750000Y-113750000D03*
D10*
X188850000Y-107500000D03*
X185675000Y-107500000D03*
D13*
X182500000Y-107500000D03*
D14*
X185500000Y-103250000D02*
X185250000Y-103500000D01*
X185500000Y-78575000D02*
X185500000Y-103250000D01*
X177030000Y-103500000D02*
X166880000Y-93350000D01*
X189000000Y-75075000D02*
X185500000Y-78575000D01*
X185250000Y-103500000D02*
X177030000Y-103500000D01*
X189000000Y-85650000D02*
X186000000Y-88650000D01*
X185386411Y-104000000D02*
X174990000Y-104000000D01*
X186000000Y-88650000D02*
X186000000Y-103386411D01*
X174990000Y-104000000D02*
X167756299Y-96766299D01*
X167756299Y-96766299D02*
X166880000Y-95890000D01*
X186000000Y-103386411D02*
X185386411Y-104000000D01*
X172950000Y-104500000D02*
X167756299Y-99306299D01*
X167756299Y-99306299D02*
X166880000Y-98430000D01*
X186500000Y-98650000D02*
X186500000Y-103522822D01*
X189000000Y-96150000D02*
X186500000Y-98650000D01*
X186500000Y-103522822D02*
X185522822Y-104500000D01*
X185522822Y-104500000D02*
X172950000Y-104500000D01*
X164099980Y-88510020D02*
X166880000Y-85730000D01*
X164099980Y-101349980D02*
X164099980Y-88510020D01*
X169349980Y-106599980D02*
X164099980Y-101349980D01*
X169349980Y-110539980D02*
X169349980Y-106599980D01*
X172560000Y-113750000D02*
X169349980Y-110539980D01*
X170563599Y-109950009D02*
X169799991Y-109186401D01*
X164549991Y-101163580D02*
X164549991Y-90600009D01*
X180560000Y-113750000D02*
X176760010Y-109950010D01*
X176760010Y-109950010D02*
X170563599Y-109950009D01*
X169799991Y-109186401D02*
X169799991Y-106413580D01*
X169799991Y-106413580D02*
X164549991Y-101163580D01*
X164549991Y-90600009D02*
X166003701Y-89146299D01*
X166003701Y-89146299D02*
X166880000Y-88270000D01*
X188560000Y-113750000D02*
X184309999Y-109499999D01*
X170250002Y-106227180D02*
X165000002Y-100977180D01*
X165000002Y-100977180D02*
X165000002Y-92689998D01*
X170749999Y-109499999D02*
X170250002Y-109000002D01*
X184309999Y-109499999D02*
X170749999Y-109499999D01*
X165000002Y-92689998D02*
X166003701Y-91686299D01*
X170250002Y-109000002D02*
X170250002Y-106227180D01*
X166003701Y-91686299D02*
X166880000Y-90810000D01*
X164560000Y-113750000D02*
X168899970Y-109410030D01*
X168899970Y-109410030D02*
X168899970Y-106786380D01*
X168899970Y-106786380D02*
X163649970Y-101536380D01*
X163649970Y-86420030D02*
X166880000Y-83190000D01*
X163649970Y-101536380D02*
X163649970Y-86420030D01*
D15*
G36*
X191090001Y-73217572D02*
G01*
X191090000Y-73217582D01*
X191090001Y-115467572D01*
X191090000Y-115467582D01*
X191090000Y-115840000D01*
X157910000Y-115840000D01*
X157910000Y-114999680D01*
X158862248Y-114999680D01*
X158874508Y-115124162D01*
X158910818Y-115243860D01*
X158969783Y-115354174D01*
X159049135Y-115450865D01*
X159145826Y-115530217D01*
X159256140Y-115589182D01*
X159375838Y-115625492D01*
X159500320Y-115637752D01*
X160464250Y-115634680D01*
X160623000Y-115475930D01*
X160623000Y-113877000D01*
X160877000Y-113877000D01*
X160877000Y-115475930D01*
X161035750Y-115634680D01*
X161999680Y-115637752D01*
X162124162Y-115625492D01*
X162243860Y-115589182D01*
X162354174Y-115530217D01*
X162450865Y-115450865D01*
X162530217Y-115354174D01*
X162589182Y-115243860D01*
X162625492Y-115124162D01*
X162637752Y-114999680D01*
X162634680Y-114035750D01*
X162475930Y-113877000D01*
X160877000Y-113877000D01*
X160623000Y-113877000D01*
X159024070Y-113877000D01*
X158865320Y-114035750D01*
X158862248Y-114999680D01*
X157910000Y-114999680D01*
X157910000Y-112500320D01*
X158862248Y-112500320D01*
X158865320Y-113464250D01*
X159024070Y-113623000D01*
X160623000Y-113623000D01*
X160623000Y-112024070D01*
X160877000Y-112024070D01*
X160877000Y-113623000D01*
X162475930Y-113623000D01*
X162634680Y-113464250D01*
X162637752Y-112500320D01*
X162625492Y-112375838D01*
X162589182Y-112256140D01*
X162530217Y-112145826D01*
X162450865Y-112049135D01*
X162354174Y-111969783D01*
X162243860Y-111910818D01*
X162124162Y-111874508D01*
X161999680Y-111862248D01*
X161035750Y-111865320D01*
X160877000Y-112024070D01*
X160623000Y-112024070D01*
X160464250Y-111865320D01*
X159500320Y-111862248D01*
X159375838Y-111874508D01*
X159256140Y-111910818D01*
X159145826Y-111969783D01*
X159049135Y-112049135D01*
X158969783Y-112145826D01*
X158910818Y-112256140D01*
X158874508Y-112375838D01*
X158862248Y-112500320D01*
X157910000Y-112500320D01*
X157910000Y-107314375D01*
X158265320Y-107314375D01*
X158265320Y-107685625D01*
X158337747Y-108049741D01*
X158479818Y-108392731D01*
X158686074Y-108701413D01*
X158948587Y-108963926D01*
X159257269Y-109170182D01*
X159600259Y-109312253D01*
X159964375Y-109384680D01*
X160335625Y-109384680D01*
X160699741Y-109312253D01*
X161042731Y-109170182D01*
X161351413Y-108963926D01*
X161613926Y-108701413D01*
X161737500Y-108516473D01*
X161861074Y-108701413D01*
X162123587Y-108963926D01*
X162432269Y-109170182D01*
X162775259Y-109312253D01*
X163139375Y-109384680D01*
X163510625Y-109384680D01*
X163874741Y-109312253D01*
X164217731Y-109170182D01*
X164526413Y-108963926D01*
X164623761Y-108866578D01*
X164624508Y-108874162D01*
X164660818Y-108993860D01*
X164719783Y-109104174D01*
X164799135Y-109200865D01*
X164895826Y-109280217D01*
X165006140Y-109339182D01*
X165125838Y-109375492D01*
X165250320Y-109387752D01*
X167749680Y-109387752D01*
X167858126Y-109377071D01*
X165242472Y-111992726D01*
X165109741Y-111937747D01*
X164745625Y-111865320D01*
X164374375Y-111865320D01*
X164010259Y-111937747D01*
X163667269Y-112079818D01*
X163358587Y-112286074D01*
X163096074Y-112548587D01*
X162889818Y-112857269D01*
X162747747Y-113200259D01*
X162675320Y-113564375D01*
X162675320Y-113935625D01*
X162747747Y-114299741D01*
X162889818Y-114642731D01*
X163096074Y-114951413D01*
X163358587Y-115213926D01*
X163667269Y-115420182D01*
X164010259Y-115562253D01*
X164374375Y-115634680D01*
X164745625Y-115634680D01*
X165109741Y-115562253D01*
X165452731Y-115420182D01*
X165761413Y-115213926D01*
X165975659Y-114999680D01*
X166862248Y-114999680D01*
X166874508Y-115124162D01*
X166910818Y-115243860D01*
X166969783Y-115354174D01*
X167049135Y-115450865D01*
X167145826Y-115530217D01*
X167256140Y-115589182D01*
X167375838Y-115625492D01*
X167500320Y-115637752D01*
X168464250Y-115634680D01*
X168623000Y-115475930D01*
X168623000Y-113877000D01*
X168877000Y-113877000D01*
X168877000Y-115475930D01*
X169035750Y-115634680D01*
X169999680Y-115637752D01*
X170124162Y-115625492D01*
X170243860Y-115589182D01*
X170354174Y-115530217D01*
X170450865Y-115450865D01*
X170530217Y-115354174D01*
X170589182Y-115243860D01*
X170625492Y-115124162D01*
X170637752Y-114999680D01*
X170634680Y-114035750D01*
X170475930Y-113877000D01*
X168877000Y-113877000D01*
X168623000Y-113877000D01*
X167024070Y-113877000D01*
X166865320Y-114035750D01*
X166862248Y-114999680D01*
X165975659Y-114999680D01*
X166023926Y-114951413D01*
X166230182Y-114642731D01*
X166372253Y-114299741D01*
X166444680Y-113935625D01*
X166444680Y-113564375D01*
X166372253Y-113200259D01*
X166317274Y-113067528D01*
X166862319Y-112522483D01*
X166865320Y-113464250D01*
X167024070Y-113623000D01*
X168623000Y-113623000D01*
X168623000Y-112024070D01*
X168464250Y-111865320D01*
X167522483Y-111862319D01*
X168623055Y-110761747D01*
X168644434Y-110832226D01*
X168715006Y-110964256D01*
X168754851Y-111012806D01*
X168809979Y-111079981D01*
X168838983Y-111103784D01*
X169598725Y-111863526D01*
X169035750Y-111865320D01*
X168877000Y-112024070D01*
X168877000Y-113623000D01*
X170475930Y-113623000D01*
X170634680Y-113464250D01*
X170636474Y-112901276D01*
X170802726Y-113067528D01*
X170747747Y-113200259D01*
X170675320Y-113564375D01*
X170675320Y-113935625D01*
X170747747Y-114299741D01*
X170889818Y-114642731D01*
X171096074Y-114951413D01*
X171358587Y-115213926D01*
X171667269Y-115420182D01*
X172010259Y-115562253D01*
X172374375Y-115634680D01*
X172745625Y-115634680D01*
X173109741Y-115562253D01*
X173452731Y-115420182D01*
X173761413Y-115213926D01*
X173975659Y-114999680D01*
X174862248Y-114999680D01*
X174874508Y-115124162D01*
X174910818Y-115243860D01*
X174969783Y-115354174D01*
X175049135Y-115450865D01*
X175145826Y-115530217D01*
X175256140Y-115589182D01*
X175375838Y-115625492D01*
X175500320Y-115637752D01*
X176464250Y-115634680D01*
X176623000Y-115475930D01*
X176623000Y-113877000D01*
X176877000Y-113877000D01*
X176877000Y-115475930D01*
X177035750Y-115634680D01*
X177999680Y-115637752D01*
X178124162Y-115625492D01*
X178243860Y-115589182D01*
X178354174Y-115530217D01*
X178450865Y-115450865D01*
X178530217Y-115354174D01*
X178589182Y-115243860D01*
X178625492Y-115124162D01*
X178637752Y-114999680D01*
X178634680Y-114035750D01*
X178475930Y-113877000D01*
X176877000Y-113877000D01*
X176623000Y-113877000D01*
X175024070Y-113877000D01*
X174865320Y-114035750D01*
X174862248Y-114999680D01*
X173975659Y-114999680D01*
X174023926Y-114951413D01*
X174230182Y-114642731D01*
X174372253Y-114299741D01*
X174444680Y-113935625D01*
X174444680Y-113564375D01*
X174372253Y-113200259D01*
X174230182Y-112857269D01*
X174023926Y-112548587D01*
X173975659Y-112500320D01*
X174862248Y-112500320D01*
X174865320Y-113464250D01*
X175024070Y-113623000D01*
X176623000Y-113623000D01*
X176623000Y-112024070D01*
X176464250Y-111865320D01*
X175500320Y-111862248D01*
X175375838Y-111874508D01*
X175256140Y-111910818D01*
X175145826Y-111969783D01*
X175049135Y-112049135D01*
X174969783Y-112145826D01*
X174910818Y-112256140D01*
X174874508Y-112375838D01*
X174862248Y-112500320D01*
X173975659Y-112500320D01*
X173761413Y-112286074D01*
X173452731Y-112079818D01*
X173109741Y-111937747D01*
X172745625Y-111865320D01*
X172374375Y-111865320D01*
X172010259Y-111937747D01*
X171877528Y-111992726D01*
X170595358Y-110710557D01*
X170600934Y-110710008D01*
X176445209Y-110710010D01*
X177598724Y-111863526D01*
X177035750Y-111865320D01*
X176877000Y-112024070D01*
X176877000Y-113623000D01*
X178475930Y-113623000D01*
X178634680Y-113464250D01*
X178636474Y-112901276D01*
X178802726Y-113067528D01*
X178747747Y-113200259D01*
X178675320Y-113564375D01*
X178675320Y-113935625D01*
X178747747Y-114299741D01*
X178889818Y-114642731D01*
X179096074Y-114951413D01*
X179358587Y-115213926D01*
X179667269Y-115420182D01*
X180010259Y-115562253D01*
X180374375Y-115634680D01*
X180745625Y-115634680D01*
X181109741Y-115562253D01*
X181452731Y-115420182D01*
X181761413Y-115213926D01*
X181975659Y-114999680D01*
X182862248Y-114999680D01*
X182874508Y-115124162D01*
X182910818Y-115243860D01*
X182969783Y-115354174D01*
X183049135Y-115450865D01*
X183145826Y-115530217D01*
X183256140Y-115589182D01*
X183375838Y-115625492D01*
X183500320Y-115637752D01*
X184464250Y-115634680D01*
X184623000Y-115475930D01*
X184623000Y-113877000D01*
X184877000Y-113877000D01*
X184877000Y-115475930D01*
X185035750Y-115634680D01*
X185999680Y-115637752D01*
X186124162Y-115625492D01*
X186243860Y-115589182D01*
X186354174Y-115530217D01*
X186450865Y-115450865D01*
X186530217Y-115354174D01*
X186589182Y-115243860D01*
X186625492Y-115124162D01*
X186637752Y-114999680D01*
X186634680Y-114035750D01*
X186475930Y-113877000D01*
X184877000Y-113877000D01*
X184623000Y-113877000D01*
X183024070Y-113877000D01*
X182865320Y-114035750D01*
X182862248Y-114999680D01*
X181975659Y-114999680D01*
X182023926Y-114951413D01*
X182230182Y-114642731D01*
X182372253Y-114299741D01*
X182444680Y-113935625D01*
X182444680Y-113564375D01*
X182372253Y-113200259D01*
X182230182Y-112857269D01*
X182023926Y-112548587D01*
X181975659Y-112500320D01*
X182862248Y-112500320D01*
X182865320Y-113464250D01*
X183024070Y-113623000D01*
X184623000Y-113623000D01*
X184623000Y-112024070D01*
X184464250Y-111865320D01*
X183500320Y-111862248D01*
X183375838Y-111874508D01*
X183256140Y-111910818D01*
X183145826Y-111969783D01*
X183049135Y-112049135D01*
X182969783Y-112145826D01*
X182910818Y-112256140D01*
X182874508Y-112375838D01*
X182862248Y-112500320D01*
X181975659Y-112500320D01*
X181761413Y-112286074D01*
X181452731Y-112079818D01*
X181109741Y-111937747D01*
X180745625Y-111865320D01*
X180374375Y-111865320D01*
X180010259Y-111937747D01*
X179877528Y-111992726D01*
X178144800Y-110259999D01*
X183995198Y-110259999D01*
X185598724Y-111863526D01*
X185035750Y-111865320D01*
X184877000Y-112024070D01*
X184877000Y-113623000D01*
X186475930Y-113623000D01*
X186634680Y-113464250D01*
X186636474Y-112901276D01*
X186802726Y-113067528D01*
X186747747Y-113200259D01*
X186675320Y-113564375D01*
X186675320Y-113935625D01*
X186747747Y-114299741D01*
X186889818Y-114642731D01*
X187096074Y-114951413D01*
X187358587Y-115213926D01*
X187667269Y-115420182D01*
X188010259Y-115562253D01*
X188374375Y-115634680D01*
X188745625Y-115634680D01*
X189109741Y-115562253D01*
X189452731Y-115420182D01*
X189761413Y-115213926D01*
X190023926Y-114951413D01*
X190230182Y-114642731D01*
X190372253Y-114299741D01*
X190444680Y-113935625D01*
X190444680Y-113564375D01*
X190372253Y-113200259D01*
X190230182Y-112857269D01*
X190023926Y-112548587D01*
X189761413Y-112286074D01*
X189452731Y-112079818D01*
X189109741Y-111937747D01*
X188745625Y-111865320D01*
X188374375Y-111865320D01*
X188010259Y-111937747D01*
X187877528Y-111992726D01*
X185212080Y-109327279D01*
X185357387Y-109366975D01*
X185727719Y-109393065D01*
X186096025Y-109346405D01*
X186448151Y-109228789D01*
X186682896Y-109103315D01*
X186808771Y-108813377D01*
X187716229Y-108813377D01*
X187842104Y-109103315D01*
X188174262Y-109269139D01*
X188532387Y-109366975D01*
X188902719Y-109393065D01*
X189271025Y-109346405D01*
X189623151Y-109228789D01*
X189857896Y-109103315D01*
X189983771Y-108813377D01*
X188850000Y-107679605D01*
X187716229Y-108813377D01*
X186808771Y-108813377D01*
X185675000Y-107679605D01*
X185660858Y-107693748D01*
X185481252Y-107514142D01*
X185495395Y-107500000D01*
X185854605Y-107500000D01*
X186988377Y-108633771D01*
X187262500Y-108514762D01*
X187536623Y-108633771D01*
X188670395Y-107500000D01*
X189029605Y-107500000D01*
X190163377Y-108633771D01*
X190453315Y-108507896D01*
X190619139Y-108175738D01*
X190716975Y-107817613D01*
X190743065Y-107447281D01*
X190696405Y-107078975D01*
X190578789Y-106726849D01*
X190453315Y-106492104D01*
X190163377Y-106366229D01*
X189029605Y-107500000D01*
X188670395Y-107500000D01*
X187536623Y-106366229D01*
X187262500Y-106485238D01*
X186988377Y-106366229D01*
X185854605Y-107500000D01*
X185495395Y-107500000D01*
X185481252Y-107485858D01*
X185660858Y-107306252D01*
X185675000Y-107320395D01*
X186808771Y-106186623D01*
X187716229Y-106186623D01*
X188850000Y-107320395D01*
X189983771Y-106186623D01*
X189857896Y-105896685D01*
X189525738Y-105730861D01*
X189167613Y-105633025D01*
X188797281Y-105606935D01*
X188428975Y-105653595D01*
X188076849Y-105771211D01*
X187842104Y-105896685D01*
X187716229Y-106186623D01*
X186808771Y-106186623D01*
X186682896Y-105896685D01*
X186350738Y-105730861D01*
X185992613Y-105633025D01*
X185622281Y-105606935D01*
X185253975Y-105653595D01*
X184901849Y-105771211D01*
X184667104Y-105896685D01*
X184541230Y-106186622D01*
X184426120Y-106071512D01*
X184374631Y-106123001D01*
X184339182Y-106006140D01*
X184280217Y-105895826D01*
X184200865Y-105799135D01*
X184104174Y-105719783D01*
X183993860Y-105660818D01*
X183874162Y-105624508D01*
X183749680Y-105612248D01*
X182785750Y-105615320D01*
X182627000Y-105774070D01*
X182627000Y-107373000D01*
X182647000Y-107373000D01*
X182647000Y-107627000D01*
X182627000Y-107627000D01*
X182627000Y-107647000D01*
X182373000Y-107647000D01*
X182373000Y-107627000D01*
X180774070Y-107627000D01*
X180615320Y-107785750D01*
X180612279Y-108739999D01*
X177662392Y-108739999D01*
X177701413Y-108713926D01*
X177963926Y-108451413D01*
X178170182Y-108142731D01*
X178312253Y-107799741D01*
X178384680Y-107435625D01*
X178384680Y-107064375D01*
X178312253Y-106700259D01*
X178170182Y-106357269D01*
X178098721Y-106250320D01*
X180612248Y-106250320D01*
X180615320Y-107214250D01*
X180774070Y-107373000D01*
X182373000Y-107373000D01*
X182373000Y-105774070D01*
X182214250Y-105615320D01*
X181250320Y-105612248D01*
X181125838Y-105624508D01*
X181006140Y-105660818D01*
X180895826Y-105719783D01*
X180799135Y-105799135D01*
X180719783Y-105895826D01*
X180660818Y-106006140D01*
X180624508Y-106125838D01*
X180612248Y-106250320D01*
X178098721Y-106250320D01*
X177963926Y-106048587D01*
X177701413Y-105786074D01*
X177392731Y-105579818D01*
X177049741Y-105437747D01*
X176685625Y-105365320D01*
X176314375Y-105365320D01*
X175950259Y-105437747D01*
X175607269Y-105579818D01*
X175298587Y-105786074D01*
X175036074Y-106048587D01*
X174829818Y-106357269D01*
X174687747Y-106700259D01*
X174615320Y-107064375D01*
X174615320Y-107435625D01*
X174687747Y-107799741D01*
X174829818Y-108142731D01*
X175036074Y-108451413D01*
X175298587Y-108713926D01*
X175337608Y-108739999D01*
X173662392Y-108739999D01*
X173701413Y-108713926D01*
X173963926Y-108451413D01*
X174170182Y-108142731D01*
X174312253Y-107799741D01*
X174384680Y-107435625D01*
X174384680Y-107064375D01*
X174312253Y-106700259D01*
X174170182Y-106357269D01*
X173963926Y-106048587D01*
X173701413Y-105786074D01*
X173392731Y-105579818D01*
X173049741Y-105437747D01*
X172685625Y-105365320D01*
X172314375Y-105365320D01*
X171950259Y-105437747D01*
X171607269Y-105579818D01*
X171298587Y-105786074D01*
X171036074Y-106048587D01*
X171001226Y-106100741D01*
X170999005Y-106078194D01*
X170955548Y-105934933D01*
X170884976Y-105802904D01*
X170790003Y-105687179D01*
X170761005Y-105663381D01*
X167462262Y-102364639D01*
X167595869Y-102309297D01*
X167843398Y-102143904D01*
X168053904Y-101933398D01*
X168219297Y-101685869D01*
X168333222Y-101410830D01*
X168391300Y-101118850D01*
X168391300Y-101016101D01*
X172386205Y-105011008D01*
X172409999Y-105040001D01*
X172438992Y-105063795D01*
X172438996Y-105063799D01*
X172509685Y-105121811D01*
X172525724Y-105134974D01*
X172657753Y-105205546D01*
X172801014Y-105249003D01*
X172912667Y-105260000D01*
X172912676Y-105260000D01*
X172949999Y-105263676D01*
X172987322Y-105260000D01*
X185485500Y-105260000D01*
X185522822Y-105263676D01*
X185560144Y-105260000D01*
X185560155Y-105260000D01*
X185671808Y-105249003D01*
X185815069Y-105205546D01*
X185947098Y-105134974D01*
X186062823Y-105040001D01*
X186086625Y-105010998D01*
X187011008Y-104086617D01*
X187040001Y-104062823D01*
X187063795Y-104033830D01*
X187063799Y-104033826D01*
X187134973Y-103947099D01*
X187142412Y-103933182D01*
X187160818Y-103993860D01*
X187219783Y-104104174D01*
X187299135Y-104200865D01*
X187395826Y-104280217D01*
X187506140Y-104339182D01*
X187625838Y-104375492D01*
X187750320Y-104387752D01*
X190249680Y-104387752D01*
X190374162Y-104375492D01*
X190493860Y-104339182D01*
X190604174Y-104280217D01*
X190700865Y-104200865D01*
X190780217Y-104104174D01*
X190839182Y-103993860D01*
X190875492Y-103874162D01*
X190887752Y-103749680D01*
X190887752Y-101250320D01*
X190875492Y-101125838D01*
X190839182Y-101006140D01*
X190780217Y-100895826D01*
X190700865Y-100799135D01*
X190604174Y-100719783D01*
X190493860Y-100660818D01*
X190376999Y-100625369D01*
X190428488Y-100573880D01*
X190313378Y-100458770D01*
X190603315Y-100332896D01*
X190769139Y-100000738D01*
X190866975Y-99642613D01*
X190893065Y-99272281D01*
X190846405Y-98903975D01*
X190728789Y-98551849D01*
X190603315Y-98317104D01*
X190313377Y-98191229D01*
X189179605Y-99325000D01*
X189193748Y-99339142D01*
X189014142Y-99518748D01*
X189000000Y-99504605D01*
X188985858Y-99518748D01*
X188806252Y-99339142D01*
X188820395Y-99325000D01*
X188806252Y-99310858D01*
X188985858Y-99131252D01*
X189000000Y-99145395D01*
X190133771Y-98011623D01*
X190015147Y-97738386D01*
X190201413Y-97613926D01*
X190463926Y-97351413D01*
X190670182Y-97042731D01*
X190812253Y-96699741D01*
X190884680Y-96335625D01*
X190884680Y-95964375D01*
X190812253Y-95600259D01*
X190670182Y-95257269D01*
X190463926Y-94948587D01*
X190201413Y-94686074D01*
X189892731Y-94479818D01*
X189549741Y-94337747D01*
X189185625Y-94265320D01*
X188814375Y-94265320D01*
X188450259Y-94337747D01*
X188107269Y-94479818D01*
X187798587Y-94686074D01*
X187536074Y-94948587D01*
X187329818Y-95257269D01*
X187187747Y-95600259D01*
X187115320Y-95964375D01*
X187115320Y-96335625D01*
X187187747Y-96699741D01*
X187242726Y-96832472D01*
X186760000Y-97315199D01*
X186760000Y-88964801D01*
X187126629Y-88598172D01*
X187106935Y-88877719D01*
X187153595Y-89246025D01*
X187271211Y-89598151D01*
X187396685Y-89832896D01*
X187686622Y-89958770D01*
X187571512Y-90073880D01*
X187623001Y-90125369D01*
X187506140Y-90160818D01*
X187395826Y-90219783D01*
X187299135Y-90299135D01*
X187219783Y-90395826D01*
X187160818Y-90506140D01*
X187124508Y-90625838D01*
X187112248Y-90750320D01*
X187112248Y-93249680D01*
X187124508Y-93374162D01*
X187160818Y-93493860D01*
X187219783Y-93604174D01*
X187299135Y-93700865D01*
X187395826Y-93780217D01*
X187506140Y-93839182D01*
X187625838Y-93875492D01*
X187750320Y-93887752D01*
X190249680Y-93887752D01*
X190374162Y-93875492D01*
X190493860Y-93839182D01*
X190604174Y-93780217D01*
X190700865Y-93700865D01*
X190780217Y-93604174D01*
X190839182Y-93493860D01*
X190875492Y-93374162D01*
X190887752Y-93249680D01*
X190887752Y-90750320D01*
X190875492Y-90625838D01*
X190839182Y-90506140D01*
X190780217Y-90395826D01*
X190700865Y-90299135D01*
X190604174Y-90219783D01*
X190493860Y-90160818D01*
X190376999Y-90125369D01*
X190428488Y-90073880D01*
X190313378Y-89958770D01*
X190603315Y-89832896D01*
X190769139Y-89500738D01*
X190866975Y-89142613D01*
X190893065Y-88772281D01*
X190846405Y-88403975D01*
X190728789Y-88051849D01*
X190603315Y-87817104D01*
X190313377Y-87691229D01*
X189179605Y-88825000D01*
X189193748Y-88839142D01*
X189014142Y-89018748D01*
X189000000Y-89004605D01*
X188985858Y-89018748D01*
X188806252Y-88839142D01*
X188820395Y-88825000D01*
X188806252Y-88810858D01*
X188985858Y-88631252D01*
X189000000Y-88645395D01*
X190133771Y-87511623D01*
X190015147Y-87238386D01*
X190201413Y-87113926D01*
X190463926Y-86851413D01*
X190670182Y-86542731D01*
X190812253Y-86199741D01*
X190884680Y-85835625D01*
X190884680Y-85464375D01*
X190812253Y-85100259D01*
X190670182Y-84757269D01*
X190463926Y-84448587D01*
X190201413Y-84186074D01*
X189892731Y-83979818D01*
X189549741Y-83837747D01*
X189185625Y-83765320D01*
X188814375Y-83765320D01*
X188450259Y-83837747D01*
X188107269Y-83979818D01*
X187798587Y-84186074D01*
X187536074Y-84448587D01*
X187329818Y-84757269D01*
X187187747Y-85100259D01*
X187115320Y-85464375D01*
X187115320Y-85835625D01*
X187187747Y-86199741D01*
X187242726Y-86332472D01*
X186260000Y-87315199D01*
X186260000Y-78889801D01*
X187126629Y-78023172D01*
X187106935Y-78302719D01*
X187153595Y-78671025D01*
X187271211Y-79023151D01*
X187396685Y-79257896D01*
X187686622Y-79383770D01*
X187571512Y-79498880D01*
X187623001Y-79550369D01*
X187506140Y-79585818D01*
X187395826Y-79644783D01*
X187299135Y-79724135D01*
X187219783Y-79820826D01*
X187160818Y-79931140D01*
X187124508Y-80050838D01*
X187112248Y-80175320D01*
X187112248Y-82674680D01*
X187124508Y-82799162D01*
X187160818Y-82918860D01*
X187219783Y-83029174D01*
X187299135Y-83125865D01*
X187395826Y-83205217D01*
X187506140Y-83264182D01*
X187625838Y-83300492D01*
X187750320Y-83312752D01*
X190249680Y-83312752D01*
X190374162Y-83300492D01*
X190493860Y-83264182D01*
X190604174Y-83205217D01*
X190700865Y-83125865D01*
X190780217Y-83029174D01*
X190839182Y-82918860D01*
X190875492Y-82799162D01*
X190887752Y-82674680D01*
X190887752Y-80175320D01*
X190875492Y-80050838D01*
X190839182Y-79931140D01*
X190780217Y-79820826D01*
X190700865Y-79724135D01*
X190604174Y-79644783D01*
X190493860Y-79585818D01*
X190376999Y-79550369D01*
X190428488Y-79498880D01*
X190313378Y-79383770D01*
X190603315Y-79257896D01*
X190769139Y-78925738D01*
X190866975Y-78567613D01*
X190893065Y-78197281D01*
X190846405Y-77828975D01*
X190728789Y-77476849D01*
X190603315Y-77242104D01*
X190313377Y-77116229D01*
X189179605Y-78250000D01*
X189193748Y-78264142D01*
X189014142Y-78443748D01*
X189000000Y-78429605D01*
X188985858Y-78443748D01*
X188806252Y-78264142D01*
X188820395Y-78250000D01*
X188806252Y-78235858D01*
X188985858Y-78056252D01*
X189000000Y-78070395D01*
X190133771Y-76936623D01*
X190015147Y-76663386D01*
X190201413Y-76538926D01*
X190463926Y-76276413D01*
X190670182Y-75967731D01*
X190812253Y-75624741D01*
X190884680Y-75260625D01*
X190884680Y-74889375D01*
X190812253Y-74525259D01*
X190670182Y-74182269D01*
X190463926Y-73873587D01*
X190201413Y-73611074D01*
X189892731Y-73404818D01*
X189549741Y-73262747D01*
X189185625Y-73190320D01*
X188814375Y-73190320D01*
X188450259Y-73262747D01*
X188107269Y-73404818D01*
X187798587Y-73611074D01*
X187536074Y-73873587D01*
X187329818Y-74182269D01*
X187187747Y-74525259D01*
X187115320Y-74889375D01*
X187115320Y-75260625D01*
X187187747Y-75624741D01*
X187242726Y-75757472D01*
X184989003Y-78011196D01*
X184959999Y-78034999D01*
X184930951Y-78070395D01*
X184865026Y-78150724D01*
X184850719Y-78177491D01*
X184794454Y-78282754D01*
X184750997Y-78426015D01*
X184740000Y-78537668D01*
X184740000Y-78537678D01*
X184736324Y-78575000D01*
X184740000Y-78612322D01*
X184740001Y-102740000D01*
X177344802Y-102740000D01*
X168343576Y-93738775D01*
X168391300Y-93498850D01*
X168391300Y-93201150D01*
X168333222Y-92909170D01*
X168219297Y-92634131D01*
X168053904Y-92386602D01*
X167843398Y-92176096D01*
X167699580Y-92080000D01*
X167843398Y-91983904D01*
X168053904Y-91773398D01*
X168219297Y-91525869D01*
X168333222Y-91250830D01*
X168391300Y-90958850D01*
X168391300Y-90661150D01*
X168333222Y-90369170D01*
X168219297Y-90094131D01*
X168053904Y-89846602D01*
X167843398Y-89636096D01*
X167699580Y-89540000D01*
X167843398Y-89443904D01*
X168053904Y-89233398D01*
X168219297Y-88985869D01*
X168333222Y-88710830D01*
X168391300Y-88418850D01*
X168391300Y-88121150D01*
X168333222Y-87829170D01*
X168219297Y-87554131D01*
X168053904Y-87306602D01*
X167843398Y-87096096D01*
X167699580Y-87000000D01*
X167843398Y-86903904D01*
X168053904Y-86693398D01*
X168219297Y-86445869D01*
X168333222Y-86170830D01*
X168391300Y-85878850D01*
X168391300Y-85581150D01*
X168333222Y-85289170D01*
X168219297Y-85014131D01*
X168053904Y-84766602D01*
X167843398Y-84556096D01*
X167699580Y-84460000D01*
X167843398Y-84363904D01*
X168053904Y-84153398D01*
X168219297Y-83905869D01*
X168333222Y-83630830D01*
X168391300Y-83338850D01*
X168391300Y-83041150D01*
X168333222Y-82749170D01*
X168219297Y-82474131D01*
X168053904Y-82226602D01*
X167843398Y-82016096D01*
X167680191Y-81907045D01*
X167747563Y-81697169D01*
X166880000Y-80829605D01*
X166012437Y-81697169D01*
X166079809Y-81907045D01*
X165916602Y-82016096D01*
X165706096Y-82226602D01*
X165540703Y-82474131D01*
X165426778Y-82749170D01*
X165368700Y-83041150D01*
X165368700Y-83338850D01*
X165416424Y-83578775D01*
X163138968Y-85856231D01*
X163109970Y-85880029D01*
X163086172Y-85909027D01*
X163086171Y-85909028D01*
X163014996Y-85995754D01*
X162944424Y-86127784D01*
X162900968Y-86271045D01*
X162886294Y-86420030D01*
X162889971Y-86457363D01*
X162889970Y-101499058D01*
X162886294Y-101536380D01*
X162889970Y-101573702D01*
X162889970Y-101573712D01*
X162900967Y-101685365D01*
X162935302Y-101798554D01*
X162944424Y-101828626D01*
X163014996Y-101960656D01*
X163034937Y-101984954D01*
X163109969Y-102076381D01*
X163138973Y-102100184D01*
X166651036Y-105612248D01*
X165250320Y-105612248D01*
X165125838Y-105624508D01*
X165006140Y-105660818D01*
X164895826Y-105719783D01*
X164799135Y-105799135D01*
X164719783Y-105895826D01*
X164660818Y-106006140D01*
X164624508Y-106125838D01*
X164623761Y-106133422D01*
X164526413Y-106036074D01*
X164217731Y-105829818D01*
X163874741Y-105687747D01*
X163510625Y-105615320D01*
X163139375Y-105615320D01*
X162775259Y-105687747D01*
X162432269Y-105829818D01*
X162123587Y-106036074D01*
X161861074Y-106298587D01*
X161737500Y-106483527D01*
X161613926Y-106298587D01*
X161351413Y-106036074D01*
X161042731Y-105829818D01*
X160699741Y-105687747D01*
X160335625Y-105615320D01*
X159964375Y-105615320D01*
X159600259Y-105687747D01*
X159257269Y-105829818D01*
X158948587Y-106036074D01*
X158686074Y-106298587D01*
X158479818Y-106607269D01*
X158337747Y-106950259D01*
X158265320Y-107314375D01*
X157910000Y-107314375D01*
X157910000Y-102579117D01*
X158765000Y-102579117D01*
X158765000Y-102920883D01*
X158831675Y-103256081D01*
X158962463Y-103571831D01*
X159152337Y-103855998D01*
X159394002Y-104097663D01*
X159678169Y-104287537D01*
X159993919Y-104418325D01*
X160329117Y-104485000D01*
X160670883Y-104485000D01*
X161006081Y-104418325D01*
X161321831Y-104287537D01*
X161605998Y-104097663D01*
X161847663Y-103855998D01*
X162037537Y-103571831D01*
X162168325Y-103256081D01*
X162235000Y-102920883D01*
X162235000Y-102579117D01*
X162168325Y-102243919D01*
X162037537Y-101928169D01*
X161847663Y-101644002D01*
X161605998Y-101402337D01*
X161321831Y-101212463D01*
X161006081Y-101081675D01*
X160670883Y-101015000D01*
X160329117Y-101015000D01*
X159993919Y-101081675D01*
X159678169Y-101212463D01*
X159394002Y-101402337D01*
X159152337Y-101644002D01*
X158962463Y-101928169D01*
X158831675Y-102243919D01*
X158765000Y-102579117D01*
X157910000Y-102579117D01*
X157910000Y-92999680D01*
X158112248Y-92999680D01*
X158124508Y-93124162D01*
X158160818Y-93243860D01*
X158219783Y-93354174D01*
X158299135Y-93450865D01*
X158395826Y-93530217D01*
X158506140Y-93589182D01*
X158625838Y-93625492D01*
X158633422Y-93626239D01*
X158536074Y-93723587D01*
X158329818Y-94032269D01*
X158187747Y-94375259D01*
X158115320Y-94739375D01*
X158115320Y-95110625D01*
X158187747Y-95474741D01*
X158329818Y-95817731D01*
X158536074Y-96126413D01*
X158798587Y-96388926D01*
X158983527Y-96512500D01*
X158798587Y-96636074D01*
X158536074Y-96898587D01*
X158329818Y-97207269D01*
X158187747Y-97550259D01*
X158115320Y-97914375D01*
X158115320Y-98285625D01*
X158187747Y-98649741D01*
X158329818Y-98992731D01*
X158536074Y-99301413D01*
X158798587Y-99563926D01*
X159107269Y-99770182D01*
X159450259Y-99912253D01*
X159814375Y-99984680D01*
X160185625Y-99984680D01*
X160549741Y-99912253D01*
X160892731Y-99770182D01*
X161201413Y-99563926D01*
X161463926Y-99301413D01*
X161670182Y-98992731D01*
X161812253Y-98649741D01*
X161884680Y-98285625D01*
X161884680Y-97914375D01*
X161812253Y-97550259D01*
X161670182Y-97207269D01*
X161463926Y-96898587D01*
X161201413Y-96636074D01*
X161016473Y-96512500D01*
X161201413Y-96388926D01*
X161463926Y-96126413D01*
X161670182Y-95817731D01*
X161812253Y-95474741D01*
X161884680Y-95110625D01*
X161884680Y-94739375D01*
X161812253Y-94375259D01*
X161670182Y-94032269D01*
X161463926Y-93723587D01*
X161366578Y-93626239D01*
X161374162Y-93625492D01*
X161493860Y-93589182D01*
X161604174Y-93530217D01*
X161700865Y-93450865D01*
X161780217Y-93354174D01*
X161839182Y-93243860D01*
X161875492Y-93124162D01*
X161887752Y-92999680D01*
X161884680Y-92035750D01*
X161725930Y-91877000D01*
X160127000Y-91877000D01*
X160127000Y-91897000D01*
X159873000Y-91897000D01*
X159873000Y-91877000D01*
X158274070Y-91877000D01*
X158115320Y-92035750D01*
X158112248Y-92999680D01*
X157910000Y-92999680D01*
X157910000Y-90500320D01*
X158112248Y-90500320D01*
X158115320Y-91464250D01*
X158274070Y-91623000D01*
X159873000Y-91623000D01*
X159873000Y-90024070D01*
X160127000Y-90024070D01*
X160127000Y-91623000D01*
X161725930Y-91623000D01*
X161884680Y-91464250D01*
X161887752Y-90500320D01*
X161875492Y-90375838D01*
X161839182Y-90256140D01*
X161780217Y-90145826D01*
X161700865Y-90049135D01*
X161604174Y-89969783D01*
X161493860Y-89910818D01*
X161374162Y-89874508D01*
X161249680Y-89862248D01*
X160285750Y-89865320D01*
X160127000Y-90024070D01*
X159873000Y-90024070D01*
X159714250Y-89865320D01*
X158750320Y-89862248D01*
X158625838Y-89874508D01*
X158506140Y-89910818D01*
X158395826Y-89969783D01*
X158299135Y-90049135D01*
X158219783Y-90145826D01*
X158160818Y-90256140D01*
X158124508Y-90375838D01*
X158112248Y-90500320D01*
X157910000Y-90500320D01*
X157910000Y-80999680D01*
X158112248Y-80999680D01*
X158124508Y-81124162D01*
X158160818Y-81243860D01*
X158219783Y-81354174D01*
X158299135Y-81450865D01*
X158395826Y-81530217D01*
X158506140Y-81589182D01*
X158625838Y-81625492D01*
X158633422Y-81626239D01*
X158536074Y-81723587D01*
X158329818Y-82032269D01*
X158187747Y-82375259D01*
X158115320Y-82739375D01*
X158115320Y-83110625D01*
X158187747Y-83474741D01*
X158329818Y-83817731D01*
X158536074Y-84126413D01*
X158798587Y-84388926D01*
X158983527Y-84512500D01*
X158798587Y-84636074D01*
X158536074Y-84898587D01*
X158329818Y-85207269D01*
X158187747Y-85550259D01*
X158115320Y-85914375D01*
X158115320Y-86285625D01*
X158187747Y-86649741D01*
X158329818Y-86992731D01*
X158536074Y-87301413D01*
X158798587Y-87563926D01*
X159107269Y-87770182D01*
X159450259Y-87912253D01*
X159814375Y-87984680D01*
X160185625Y-87984680D01*
X160549741Y-87912253D01*
X160892731Y-87770182D01*
X161201413Y-87563926D01*
X161463926Y-87301413D01*
X161670182Y-86992731D01*
X161812253Y-86649741D01*
X161884680Y-86285625D01*
X161884680Y-85914375D01*
X161812253Y-85550259D01*
X161670182Y-85207269D01*
X161463926Y-84898587D01*
X161201413Y-84636074D01*
X161016473Y-84512500D01*
X161201413Y-84388926D01*
X161463926Y-84126413D01*
X161670182Y-83817731D01*
X161812253Y-83474741D01*
X161884680Y-83110625D01*
X161884680Y-82739375D01*
X161812253Y-82375259D01*
X161670182Y-82032269D01*
X161463926Y-81723587D01*
X161366578Y-81626239D01*
X161374162Y-81625492D01*
X161493860Y-81589182D01*
X161604174Y-81530217D01*
X161700865Y-81450865D01*
X161780217Y-81354174D01*
X161839182Y-81243860D01*
X161875492Y-81124162D01*
X161887752Y-80999680D01*
X161886853Y-80717491D01*
X165362887Y-80717491D01*
X165405204Y-81012167D01*
X165504198Y-81292927D01*
X165581071Y-81436746D01*
X165832831Y-81517563D01*
X166700395Y-80650000D01*
X167059605Y-80650000D01*
X167927169Y-81517563D01*
X168178929Y-81436746D01*
X168307457Y-81168221D01*
X168381129Y-80879781D01*
X168397113Y-80582509D01*
X168354796Y-80287833D01*
X168255802Y-80007073D01*
X168178929Y-79863254D01*
X167927169Y-79782437D01*
X167059605Y-80650000D01*
X166700395Y-80650000D01*
X165832831Y-79782437D01*
X165581071Y-79863254D01*
X165452543Y-80131779D01*
X165378871Y-80420219D01*
X165362887Y-80717491D01*
X161886853Y-80717491D01*
X161884680Y-80035750D01*
X161725930Y-79877000D01*
X160127000Y-79877000D01*
X160127000Y-79897000D01*
X159873000Y-79897000D01*
X159873000Y-79877000D01*
X158274070Y-79877000D01*
X158115320Y-80035750D01*
X158112248Y-80999680D01*
X157910000Y-80999680D01*
X157910000Y-78500320D01*
X158112248Y-78500320D01*
X158115320Y-79464250D01*
X158274070Y-79623000D01*
X159873000Y-79623000D01*
X159873000Y-78024070D01*
X160127000Y-78024070D01*
X160127000Y-79623000D01*
X161725930Y-79623000D01*
X161884680Y-79464250D01*
X161885658Y-79157169D01*
X166012437Y-79157169D01*
X166083968Y-79380000D01*
X166012437Y-79602831D01*
X166880000Y-80470395D01*
X167747563Y-79602831D01*
X167676032Y-79380000D01*
X167747563Y-79157169D01*
X166880000Y-78289605D01*
X166012437Y-79157169D01*
X161885658Y-79157169D01*
X161887752Y-78500320D01*
X161875492Y-78375838D01*
X161839182Y-78256140D01*
X161797143Y-78177491D01*
X165362887Y-78177491D01*
X165405204Y-78472167D01*
X165504198Y-78752927D01*
X165581071Y-78896746D01*
X165832831Y-78977563D01*
X166700395Y-78110000D01*
X167059605Y-78110000D01*
X167927169Y-78977563D01*
X168178929Y-78896746D01*
X168307457Y-78628221D01*
X168381129Y-78339781D01*
X168397113Y-78042509D01*
X168385430Y-77961150D01*
X180608700Y-77961150D01*
X180608700Y-78258850D01*
X180666778Y-78550830D01*
X180780703Y-78825869D01*
X180946096Y-79073398D01*
X181156602Y-79283904D01*
X181300420Y-79380000D01*
X181156602Y-79476096D01*
X180946096Y-79686602D01*
X180780703Y-79934131D01*
X180666778Y-80209170D01*
X180608700Y-80501150D01*
X180608700Y-80798850D01*
X180666778Y-81090830D01*
X180780703Y-81365869D01*
X180946096Y-81613398D01*
X181156602Y-81823904D01*
X181300420Y-81920000D01*
X181156602Y-82016096D01*
X180946096Y-82226602D01*
X180780703Y-82474131D01*
X180666778Y-82749170D01*
X180608700Y-83041150D01*
X180608700Y-83338850D01*
X180666778Y-83630830D01*
X180780703Y-83905869D01*
X180946096Y-84153398D01*
X181156602Y-84363904D01*
X181300420Y-84460000D01*
X181156602Y-84556096D01*
X180946096Y-84766602D01*
X180780703Y-85014131D01*
X180666778Y-85289170D01*
X180608700Y-85581150D01*
X180608700Y-85878850D01*
X180666778Y-86170830D01*
X180780703Y-86445869D01*
X180946096Y-86693398D01*
X181156602Y-86903904D01*
X181300420Y-87000000D01*
X181156602Y-87096096D01*
X180946096Y-87306602D01*
X180780703Y-87554131D01*
X180666778Y-87829170D01*
X180608700Y-88121150D01*
X180608700Y-88418850D01*
X180666778Y-88710830D01*
X180780703Y-88985869D01*
X180946096Y-89233398D01*
X181156602Y-89443904D01*
X181300420Y-89540000D01*
X181156602Y-89636096D01*
X180946096Y-89846602D01*
X180780703Y-90094131D01*
X180666778Y-90369170D01*
X180608700Y-90661150D01*
X180608700Y-90958850D01*
X180666778Y-91250830D01*
X180780703Y-91525869D01*
X180946096Y-91773398D01*
X181156602Y-91983904D01*
X181300420Y-92080000D01*
X181156602Y-92176096D01*
X180946096Y-92386602D01*
X180780703Y-92634131D01*
X180666778Y-92909170D01*
X180608700Y-93201150D01*
X180608700Y-93498850D01*
X180666778Y-93790830D01*
X180780703Y-94065869D01*
X180946096Y-94313398D01*
X181156602Y-94523904D01*
X181300420Y-94620000D01*
X181156602Y-94716096D01*
X180946096Y-94926602D01*
X180780703Y-95174131D01*
X180666778Y-95449170D01*
X180608700Y-95741150D01*
X180608700Y-96038850D01*
X180666778Y-96330830D01*
X180780703Y-96605869D01*
X180946096Y-96853398D01*
X181156602Y-97063904D01*
X181300420Y-97160000D01*
X181156602Y-97256096D01*
X180946096Y-97466602D01*
X180780703Y-97714131D01*
X180666778Y-97989170D01*
X180608700Y-98281150D01*
X180608700Y-98578850D01*
X180666778Y-98870830D01*
X180780703Y-99145869D01*
X180946096Y-99393398D01*
X181156602Y-99603904D01*
X181300420Y-99700000D01*
X181156602Y-99796096D01*
X180946096Y-100006602D01*
X180780703Y-100254131D01*
X180666778Y-100529170D01*
X180608700Y-100821150D01*
X180608700Y-101118850D01*
X180666778Y-101410830D01*
X180780703Y-101685869D01*
X180946096Y-101933398D01*
X181156602Y-102143904D01*
X181404131Y-102309297D01*
X181679170Y-102423222D01*
X181971150Y-102481300D01*
X182268850Y-102481300D01*
X182560830Y-102423222D01*
X182835869Y-102309297D01*
X183083398Y-102143904D01*
X183293904Y-101933398D01*
X183459297Y-101685869D01*
X183573222Y-101410830D01*
X183631300Y-101118850D01*
X183631300Y-100821150D01*
X183573222Y-100529170D01*
X183459297Y-100254131D01*
X183293904Y-100006602D01*
X183083398Y-99796096D01*
X182939580Y-99700000D01*
X183083398Y-99603904D01*
X183293904Y-99393398D01*
X183459297Y-99145869D01*
X183573222Y-98870830D01*
X183631300Y-98578850D01*
X183631300Y-98281150D01*
X183573222Y-97989170D01*
X183459297Y-97714131D01*
X183293904Y-97466602D01*
X183083398Y-97256096D01*
X182939580Y-97160000D01*
X183083398Y-97063904D01*
X183293904Y-96853398D01*
X183459297Y-96605869D01*
X183573222Y-96330830D01*
X183631300Y-96038850D01*
X183631300Y-95741150D01*
X183573222Y-95449170D01*
X183459297Y-95174131D01*
X183293904Y-94926602D01*
X183083398Y-94716096D01*
X182939580Y-94620000D01*
X183083398Y-94523904D01*
X183293904Y-94313398D01*
X183459297Y-94065869D01*
X183573222Y-93790830D01*
X183631300Y-93498850D01*
X183631300Y-93201150D01*
X183573222Y-92909170D01*
X183459297Y-92634131D01*
X183293904Y-92386602D01*
X183083398Y-92176096D01*
X182939580Y-92080000D01*
X183083398Y-91983904D01*
X183293904Y-91773398D01*
X183459297Y-91525869D01*
X183573222Y-91250830D01*
X183631300Y-90958850D01*
X183631300Y-90661150D01*
X183573222Y-90369170D01*
X183459297Y-90094131D01*
X183293904Y-89846602D01*
X183083398Y-89636096D01*
X182939580Y-89540000D01*
X183083398Y-89443904D01*
X183293904Y-89233398D01*
X183459297Y-88985869D01*
X183573222Y-88710830D01*
X183631300Y-88418850D01*
X183631300Y-88121150D01*
X183573222Y-87829170D01*
X183459297Y-87554131D01*
X183293904Y-87306602D01*
X183083398Y-87096096D01*
X182939580Y-87000000D01*
X183083398Y-86903904D01*
X183293904Y-86693398D01*
X183459297Y-86445869D01*
X183573222Y-86170830D01*
X183631300Y-85878850D01*
X183631300Y-85581150D01*
X183573222Y-85289170D01*
X183459297Y-85014131D01*
X183293904Y-84766602D01*
X183083398Y-84556096D01*
X182939580Y-84460000D01*
X183083398Y-84363904D01*
X183293904Y-84153398D01*
X183459297Y-83905869D01*
X183573222Y-83630830D01*
X183631300Y-83338850D01*
X183631300Y-83041150D01*
X183573222Y-82749170D01*
X183459297Y-82474131D01*
X183293904Y-82226602D01*
X183083398Y-82016096D01*
X182939580Y-81920000D01*
X183083398Y-81823904D01*
X183293904Y-81613398D01*
X183459297Y-81365869D01*
X183573222Y-81090830D01*
X183631300Y-80798850D01*
X183631300Y-80501150D01*
X183573222Y-80209170D01*
X183459297Y-79934131D01*
X183293904Y-79686602D01*
X183083398Y-79476096D01*
X182939580Y-79380000D01*
X183083398Y-79283904D01*
X183293904Y-79073398D01*
X183459297Y-78825869D01*
X183573222Y-78550830D01*
X183631300Y-78258850D01*
X183631300Y-77961150D01*
X183573222Y-77669170D01*
X183459297Y-77394131D01*
X183293904Y-77146602D01*
X183083398Y-76936096D01*
X182920191Y-76827045D01*
X182987563Y-76617169D01*
X182120000Y-75749605D01*
X181252437Y-76617169D01*
X181319809Y-76827045D01*
X181156602Y-76936096D01*
X180946096Y-77146602D01*
X180780703Y-77394131D01*
X180666778Y-77669170D01*
X180608700Y-77961150D01*
X168385430Y-77961150D01*
X168354796Y-77747833D01*
X168255802Y-77467073D01*
X168178929Y-77323254D01*
X167927169Y-77242437D01*
X167059605Y-78110000D01*
X166700395Y-78110000D01*
X165832831Y-77242437D01*
X165581071Y-77323254D01*
X165452543Y-77591779D01*
X165378871Y-77880219D01*
X165362887Y-78177491D01*
X161797143Y-78177491D01*
X161780217Y-78145826D01*
X161700865Y-78049135D01*
X161604174Y-77969783D01*
X161493860Y-77910818D01*
X161374162Y-77874508D01*
X161249680Y-77862248D01*
X160285750Y-77865320D01*
X160127000Y-78024070D01*
X159873000Y-78024070D01*
X159714250Y-77865320D01*
X158750320Y-77862248D01*
X158625838Y-77874508D01*
X158506140Y-77910818D01*
X158395826Y-77969783D01*
X158299135Y-78049135D01*
X158219783Y-78145826D01*
X158160818Y-78256140D01*
X158124508Y-78375838D01*
X158112248Y-78500320D01*
X157910000Y-78500320D01*
X157910000Y-73829117D01*
X158765000Y-73829117D01*
X158765000Y-74170883D01*
X158831675Y-74506081D01*
X158962463Y-74821831D01*
X159152337Y-75105998D01*
X159394002Y-75347663D01*
X159678169Y-75537537D01*
X159993919Y-75668325D01*
X160329117Y-75735000D01*
X160670883Y-75735000D01*
X161006081Y-75668325D01*
X161321831Y-75537537D01*
X161605998Y-75347663D01*
X161847663Y-75105998D01*
X162037537Y-74821831D01*
X162168325Y-74506081D01*
X162235000Y-74170883D01*
X162235000Y-73829117D01*
X162168325Y-73493919D01*
X162037537Y-73178169D01*
X161847663Y-72894002D01*
X161605998Y-72652337D01*
X161321831Y-72462463D01*
X161006081Y-72331675D01*
X160670883Y-72265000D01*
X160329117Y-72265000D01*
X159993919Y-72331675D01*
X159678169Y-72462463D01*
X159394002Y-72652337D01*
X159152337Y-72894002D01*
X158962463Y-73178169D01*
X158831675Y-73493919D01*
X158765000Y-73829117D01*
X157910000Y-73829117D01*
X157910000Y-72153700D01*
X165365628Y-72153700D01*
X165365628Y-73906300D01*
X165377888Y-74030782D01*
X165414198Y-74150480D01*
X165473163Y-74260794D01*
X165552515Y-74357485D01*
X165649206Y-74436837D01*
X165759520Y-74495802D01*
X165803542Y-74509156D01*
X165706096Y-74606602D01*
X165540703Y-74854131D01*
X165426778Y-75129170D01*
X165368700Y-75421150D01*
X165368700Y-75718850D01*
X165426778Y-76010830D01*
X165540703Y-76285869D01*
X165706096Y-76533398D01*
X165916602Y-76743904D01*
X166079809Y-76852955D01*
X166012437Y-77062831D01*
X166880000Y-77930395D01*
X167747563Y-77062831D01*
X167680191Y-76852955D01*
X167843398Y-76743904D01*
X168053904Y-76533398D01*
X168219297Y-76285869D01*
X168333222Y-76010830D01*
X168391300Y-75718850D01*
X168391300Y-75637491D01*
X180602887Y-75637491D01*
X180645204Y-75932167D01*
X180744198Y-76212927D01*
X180821071Y-76356746D01*
X181072831Y-76437563D01*
X181940395Y-75570000D01*
X182299605Y-75570000D01*
X183167169Y-76437563D01*
X183418929Y-76356746D01*
X183547457Y-76088221D01*
X183621129Y-75799781D01*
X183637113Y-75502509D01*
X183594796Y-75207833D01*
X183495802Y-74927073D01*
X183418929Y-74783254D01*
X183167169Y-74702437D01*
X182299605Y-75570000D01*
X181940395Y-75570000D01*
X181072831Y-74702437D01*
X180821071Y-74783254D01*
X180692543Y-75051779D01*
X180618871Y-75340219D01*
X180602887Y-75637491D01*
X168391300Y-75637491D01*
X168391300Y-75421150D01*
X168333222Y-75129170D01*
X168219297Y-74854131D01*
X168053904Y-74606602D01*
X167956458Y-74509156D01*
X168000480Y-74495802D01*
X168110794Y-74436837D01*
X168207485Y-74357485D01*
X168286837Y-74260794D01*
X168345802Y-74150480D01*
X168382112Y-74030782D01*
X168394372Y-73906300D01*
X168394372Y-72881150D01*
X180608700Y-72881150D01*
X180608700Y-73178850D01*
X180666778Y-73470830D01*
X180780703Y-73745869D01*
X180946096Y-73993398D01*
X181156602Y-74203904D01*
X181319809Y-74312955D01*
X181252437Y-74522831D01*
X182120000Y-75390395D01*
X182987563Y-74522831D01*
X182920191Y-74312955D01*
X183083398Y-74203904D01*
X183293904Y-73993398D01*
X183459297Y-73745869D01*
X183573222Y-73470830D01*
X183631300Y-73178850D01*
X183631300Y-72881150D01*
X183573222Y-72589170D01*
X183459297Y-72314131D01*
X183293904Y-72066602D01*
X183083398Y-71856096D01*
X182835869Y-71690703D01*
X182560830Y-71576778D01*
X182268850Y-71518700D01*
X181971150Y-71518700D01*
X181679170Y-71576778D01*
X181404131Y-71690703D01*
X181156602Y-71856096D01*
X180946096Y-72066602D01*
X180780703Y-72314131D01*
X180666778Y-72589170D01*
X180608700Y-72881150D01*
X168394372Y-72881150D01*
X168394372Y-72153700D01*
X168382112Y-72029218D01*
X168345802Y-71909520D01*
X168286837Y-71799206D01*
X168207485Y-71702515D01*
X168110794Y-71623163D01*
X168000480Y-71564198D01*
X167880782Y-71527888D01*
X167756300Y-71515628D01*
X166003700Y-71515628D01*
X165879218Y-71527888D01*
X165759520Y-71564198D01*
X165649206Y-71623163D01*
X165552515Y-71702515D01*
X165473163Y-71799206D01*
X165414198Y-71909520D01*
X165377888Y-72029218D01*
X165365628Y-72153700D01*
X157910000Y-72153700D01*
X157910000Y-71410000D01*
X191090000Y-71410000D01*
X191090001Y-73217572D01*
G37*
X191090001Y-73217572D02*
X191090000Y-73217582D01*
X191090001Y-115467572D01*
X191090000Y-115467582D01*
X191090000Y-115840000D01*
X157910000Y-115840000D01*
X157910000Y-114999680D01*
X158862248Y-114999680D01*
X158874508Y-115124162D01*
X158910818Y-115243860D01*
X158969783Y-115354174D01*
X159049135Y-115450865D01*
X159145826Y-115530217D01*
X159256140Y-115589182D01*
X159375838Y-115625492D01*
X159500320Y-115637752D01*
X160464250Y-115634680D01*
X160623000Y-115475930D01*
X160623000Y-113877000D01*
X160877000Y-113877000D01*
X160877000Y-115475930D01*
X161035750Y-115634680D01*
X161999680Y-115637752D01*
X162124162Y-115625492D01*
X162243860Y-115589182D01*
X162354174Y-115530217D01*
X162450865Y-115450865D01*
X162530217Y-115354174D01*
X162589182Y-115243860D01*
X162625492Y-115124162D01*
X162637752Y-114999680D01*
X162634680Y-114035750D01*
X162475930Y-113877000D01*
X160877000Y-113877000D01*
X160623000Y-113877000D01*
X159024070Y-113877000D01*
X158865320Y-114035750D01*
X158862248Y-114999680D01*
X157910000Y-114999680D01*
X157910000Y-112500320D01*
X158862248Y-112500320D01*
X158865320Y-113464250D01*
X159024070Y-113623000D01*
X160623000Y-113623000D01*
X160623000Y-112024070D01*
X160877000Y-112024070D01*
X160877000Y-113623000D01*
X162475930Y-113623000D01*
X162634680Y-113464250D01*
X162637752Y-112500320D01*
X162625492Y-112375838D01*
X162589182Y-112256140D01*
X162530217Y-112145826D01*
X162450865Y-112049135D01*
X162354174Y-111969783D01*
X162243860Y-111910818D01*
X162124162Y-111874508D01*
X161999680Y-111862248D01*
X161035750Y-111865320D01*
X160877000Y-112024070D01*
X160623000Y-112024070D01*
X160464250Y-111865320D01*
X159500320Y-111862248D01*
X159375838Y-111874508D01*
X159256140Y-111910818D01*
X159145826Y-111969783D01*
X159049135Y-112049135D01*
X158969783Y-112145826D01*
X158910818Y-112256140D01*
X158874508Y-112375838D01*
X158862248Y-112500320D01*
X157910000Y-112500320D01*
X157910000Y-107314375D01*
X158265320Y-107314375D01*
X158265320Y-107685625D01*
X158337747Y-108049741D01*
X158479818Y-108392731D01*
X158686074Y-108701413D01*
X158948587Y-108963926D01*
X159257269Y-109170182D01*
X159600259Y-109312253D01*
X159964375Y-109384680D01*
X160335625Y-109384680D01*
X160699741Y-109312253D01*
X161042731Y-109170182D01*
X161351413Y-108963926D01*
X161613926Y-108701413D01*
X161737500Y-108516473D01*
X161861074Y-108701413D01*
X162123587Y-108963926D01*
X162432269Y-109170182D01*
X162775259Y-109312253D01*
X163139375Y-109384680D01*
X163510625Y-109384680D01*
X163874741Y-109312253D01*
X164217731Y-109170182D01*
X164526413Y-108963926D01*
X164623761Y-108866578D01*
X164624508Y-108874162D01*
X164660818Y-108993860D01*
X164719783Y-109104174D01*
X164799135Y-109200865D01*
X164895826Y-109280217D01*
X165006140Y-109339182D01*
X165125838Y-109375492D01*
X165250320Y-109387752D01*
X167749680Y-109387752D01*
X167858126Y-109377071D01*
X165242472Y-111992726D01*
X165109741Y-111937747D01*
X164745625Y-111865320D01*
X164374375Y-111865320D01*
X164010259Y-111937747D01*
X163667269Y-112079818D01*
X163358587Y-112286074D01*
X163096074Y-112548587D01*
X162889818Y-112857269D01*
X162747747Y-113200259D01*
X162675320Y-113564375D01*
X162675320Y-113935625D01*
X162747747Y-114299741D01*
X162889818Y-114642731D01*
X163096074Y-114951413D01*
X163358587Y-115213926D01*
X163667269Y-115420182D01*
X164010259Y-115562253D01*
X164374375Y-115634680D01*
X164745625Y-115634680D01*
X165109741Y-115562253D01*
X165452731Y-115420182D01*
X165761413Y-115213926D01*
X165975659Y-114999680D01*
X166862248Y-114999680D01*
X166874508Y-115124162D01*
X166910818Y-115243860D01*
X166969783Y-115354174D01*
X167049135Y-115450865D01*
X167145826Y-115530217D01*
X167256140Y-115589182D01*
X167375838Y-115625492D01*
X167500320Y-115637752D01*
X168464250Y-115634680D01*
X168623000Y-115475930D01*
X168623000Y-113877000D01*
X168877000Y-113877000D01*
X168877000Y-115475930D01*
X169035750Y-115634680D01*
X169999680Y-115637752D01*
X170124162Y-115625492D01*
X170243860Y-115589182D01*
X170354174Y-115530217D01*
X170450865Y-115450865D01*
X170530217Y-115354174D01*
X170589182Y-115243860D01*
X170625492Y-115124162D01*
X170637752Y-114999680D01*
X170634680Y-114035750D01*
X170475930Y-113877000D01*
X168877000Y-113877000D01*
X168623000Y-113877000D01*
X167024070Y-113877000D01*
X166865320Y-114035750D01*
X166862248Y-114999680D01*
X165975659Y-114999680D01*
X166023926Y-114951413D01*
X166230182Y-114642731D01*
X166372253Y-114299741D01*
X166444680Y-113935625D01*
X166444680Y-113564375D01*
X166372253Y-113200259D01*
X166317274Y-113067528D01*
X166862319Y-112522483D01*
X166865320Y-113464250D01*
X167024070Y-113623000D01*
X168623000Y-113623000D01*
X168623000Y-112024070D01*
X168464250Y-111865320D01*
X167522483Y-111862319D01*
X168623055Y-110761747D01*
X168644434Y-110832226D01*
X168715006Y-110964256D01*
X168754851Y-111012806D01*
X168809979Y-111079981D01*
X168838983Y-111103784D01*
X169598725Y-111863526D01*
X169035750Y-111865320D01*
X168877000Y-112024070D01*
X168877000Y-113623000D01*
X170475930Y-113623000D01*
X170634680Y-113464250D01*
X170636474Y-112901276D01*
X170802726Y-113067528D01*
X170747747Y-113200259D01*
X170675320Y-113564375D01*
X170675320Y-113935625D01*
X170747747Y-114299741D01*
X170889818Y-114642731D01*
X171096074Y-114951413D01*
X171358587Y-115213926D01*
X171667269Y-115420182D01*
X172010259Y-115562253D01*
X172374375Y-115634680D01*
X172745625Y-115634680D01*
X173109741Y-115562253D01*
X173452731Y-115420182D01*
X173761413Y-115213926D01*
X173975659Y-114999680D01*
X174862248Y-114999680D01*
X174874508Y-115124162D01*
X174910818Y-115243860D01*
X174969783Y-115354174D01*
X175049135Y-115450865D01*
X175145826Y-115530217D01*
X175256140Y-115589182D01*
X175375838Y-115625492D01*
X175500320Y-115637752D01*
X176464250Y-115634680D01*
X176623000Y-115475930D01*
X176623000Y-113877000D01*
X176877000Y-113877000D01*
X176877000Y-115475930D01*
X177035750Y-115634680D01*
X177999680Y-115637752D01*
X178124162Y-115625492D01*
X178243860Y-115589182D01*
X178354174Y-115530217D01*
X178450865Y-115450865D01*
X178530217Y-115354174D01*
X178589182Y-115243860D01*
X178625492Y-115124162D01*
X178637752Y-114999680D01*
X178634680Y-114035750D01*
X178475930Y-113877000D01*
X176877000Y-113877000D01*
X176623000Y-113877000D01*
X175024070Y-113877000D01*
X174865320Y-114035750D01*
X174862248Y-114999680D01*
X173975659Y-114999680D01*
X174023926Y-114951413D01*
X174230182Y-114642731D01*
X174372253Y-114299741D01*
X174444680Y-113935625D01*
X174444680Y-113564375D01*
X174372253Y-113200259D01*
X174230182Y-112857269D01*
X174023926Y-112548587D01*
X173975659Y-112500320D01*
X174862248Y-112500320D01*
X174865320Y-113464250D01*
X175024070Y-113623000D01*
X176623000Y-113623000D01*
X176623000Y-112024070D01*
X176464250Y-111865320D01*
X175500320Y-111862248D01*
X175375838Y-111874508D01*
X175256140Y-111910818D01*
X175145826Y-111969783D01*
X175049135Y-112049135D01*
X174969783Y-112145826D01*
X174910818Y-112256140D01*
X174874508Y-112375838D01*
X174862248Y-112500320D01*
X173975659Y-112500320D01*
X173761413Y-112286074D01*
X173452731Y-112079818D01*
X173109741Y-111937747D01*
X172745625Y-111865320D01*
X172374375Y-111865320D01*
X172010259Y-111937747D01*
X171877528Y-111992726D01*
X170595358Y-110710557D01*
X170600934Y-110710008D01*
X176445209Y-110710010D01*
X177598724Y-111863526D01*
X177035750Y-111865320D01*
X176877000Y-112024070D01*
X176877000Y-113623000D01*
X178475930Y-113623000D01*
X178634680Y-113464250D01*
X178636474Y-112901276D01*
X178802726Y-113067528D01*
X178747747Y-113200259D01*
X178675320Y-113564375D01*
X178675320Y-113935625D01*
X178747747Y-114299741D01*
X178889818Y-114642731D01*
X179096074Y-114951413D01*
X179358587Y-115213926D01*
X179667269Y-115420182D01*
X180010259Y-115562253D01*
X180374375Y-115634680D01*
X180745625Y-115634680D01*
X181109741Y-115562253D01*
X181452731Y-115420182D01*
X181761413Y-115213926D01*
X181975659Y-114999680D01*
X182862248Y-114999680D01*
X182874508Y-115124162D01*
X182910818Y-115243860D01*
X182969783Y-115354174D01*
X183049135Y-115450865D01*
X183145826Y-115530217D01*
X183256140Y-115589182D01*
X183375838Y-115625492D01*
X183500320Y-115637752D01*
X184464250Y-115634680D01*
X184623000Y-115475930D01*
X184623000Y-113877000D01*
X184877000Y-113877000D01*
X184877000Y-115475930D01*
X185035750Y-115634680D01*
X185999680Y-115637752D01*
X186124162Y-115625492D01*
X186243860Y-115589182D01*
X186354174Y-115530217D01*
X186450865Y-115450865D01*
X186530217Y-115354174D01*
X186589182Y-115243860D01*
X186625492Y-115124162D01*
X186637752Y-114999680D01*
X186634680Y-114035750D01*
X186475930Y-113877000D01*
X184877000Y-113877000D01*
X184623000Y-113877000D01*
X183024070Y-113877000D01*
X182865320Y-114035750D01*
X182862248Y-114999680D01*
X181975659Y-114999680D01*
X182023926Y-114951413D01*
X182230182Y-114642731D01*
X182372253Y-114299741D01*
X182444680Y-113935625D01*
X182444680Y-113564375D01*
X182372253Y-113200259D01*
X182230182Y-112857269D01*
X182023926Y-112548587D01*
X181975659Y-112500320D01*
X182862248Y-112500320D01*
X182865320Y-113464250D01*
X183024070Y-113623000D01*
X184623000Y-113623000D01*
X184623000Y-112024070D01*
X184464250Y-111865320D01*
X183500320Y-111862248D01*
X183375838Y-111874508D01*
X183256140Y-111910818D01*
X183145826Y-111969783D01*
X183049135Y-112049135D01*
X182969783Y-112145826D01*
X182910818Y-112256140D01*
X182874508Y-112375838D01*
X182862248Y-112500320D01*
X181975659Y-112500320D01*
X181761413Y-112286074D01*
X181452731Y-112079818D01*
X181109741Y-111937747D01*
X180745625Y-111865320D01*
X180374375Y-111865320D01*
X180010259Y-111937747D01*
X179877528Y-111992726D01*
X178144800Y-110259999D01*
X183995198Y-110259999D01*
X185598724Y-111863526D01*
X185035750Y-111865320D01*
X184877000Y-112024070D01*
X184877000Y-113623000D01*
X186475930Y-113623000D01*
X186634680Y-113464250D01*
X186636474Y-112901276D01*
X186802726Y-113067528D01*
X186747747Y-113200259D01*
X186675320Y-113564375D01*
X186675320Y-113935625D01*
X186747747Y-114299741D01*
X186889818Y-114642731D01*
X187096074Y-114951413D01*
X187358587Y-115213926D01*
X187667269Y-115420182D01*
X188010259Y-115562253D01*
X188374375Y-115634680D01*
X188745625Y-115634680D01*
X189109741Y-115562253D01*
X189452731Y-115420182D01*
X189761413Y-115213926D01*
X190023926Y-114951413D01*
X190230182Y-114642731D01*
X190372253Y-114299741D01*
X190444680Y-113935625D01*
X190444680Y-113564375D01*
X190372253Y-113200259D01*
X190230182Y-112857269D01*
X190023926Y-112548587D01*
X189761413Y-112286074D01*
X189452731Y-112079818D01*
X189109741Y-111937747D01*
X188745625Y-111865320D01*
X188374375Y-111865320D01*
X188010259Y-111937747D01*
X187877528Y-111992726D01*
X185212080Y-109327279D01*
X185357387Y-109366975D01*
X185727719Y-109393065D01*
X186096025Y-109346405D01*
X186448151Y-109228789D01*
X186682896Y-109103315D01*
X186808771Y-108813377D01*
X187716229Y-108813377D01*
X187842104Y-109103315D01*
X188174262Y-109269139D01*
X188532387Y-109366975D01*
X188902719Y-109393065D01*
X189271025Y-109346405D01*
X189623151Y-109228789D01*
X189857896Y-109103315D01*
X189983771Y-108813377D01*
X188850000Y-107679605D01*
X187716229Y-108813377D01*
X186808771Y-108813377D01*
X185675000Y-107679605D01*
X185660858Y-107693748D01*
X185481252Y-107514142D01*
X185495395Y-107500000D01*
X185854605Y-107500000D01*
X186988377Y-108633771D01*
X187262500Y-108514762D01*
X187536623Y-108633771D01*
X188670395Y-107500000D01*
X189029605Y-107500000D01*
X190163377Y-108633771D01*
X190453315Y-108507896D01*
X190619139Y-108175738D01*
X190716975Y-107817613D01*
X190743065Y-107447281D01*
X190696405Y-107078975D01*
X190578789Y-106726849D01*
X190453315Y-106492104D01*
X190163377Y-106366229D01*
X189029605Y-107500000D01*
X188670395Y-107500000D01*
X187536623Y-106366229D01*
X187262500Y-106485238D01*
X186988377Y-106366229D01*
X185854605Y-107500000D01*
X185495395Y-107500000D01*
X185481252Y-107485858D01*
X185660858Y-107306252D01*
X185675000Y-107320395D01*
X186808771Y-106186623D01*
X187716229Y-106186623D01*
X188850000Y-107320395D01*
X189983771Y-106186623D01*
X189857896Y-105896685D01*
X189525738Y-105730861D01*
X189167613Y-105633025D01*
X188797281Y-105606935D01*
X188428975Y-105653595D01*
X188076849Y-105771211D01*
X187842104Y-105896685D01*
X187716229Y-106186623D01*
X186808771Y-106186623D01*
X186682896Y-105896685D01*
X186350738Y-105730861D01*
X185992613Y-105633025D01*
X185622281Y-105606935D01*
X185253975Y-105653595D01*
X184901849Y-105771211D01*
X184667104Y-105896685D01*
X184541230Y-106186622D01*
X184426120Y-106071512D01*
X184374631Y-106123001D01*
X184339182Y-106006140D01*
X184280217Y-105895826D01*
X184200865Y-105799135D01*
X184104174Y-105719783D01*
X183993860Y-105660818D01*
X183874162Y-105624508D01*
X183749680Y-105612248D01*
X182785750Y-105615320D01*
X182627000Y-105774070D01*
X182627000Y-107373000D01*
X182647000Y-107373000D01*
X182647000Y-107627000D01*
X182627000Y-107627000D01*
X182627000Y-107647000D01*
X182373000Y-107647000D01*
X182373000Y-107627000D01*
X180774070Y-107627000D01*
X180615320Y-107785750D01*
X180612279Y-108739999D01*
X177662392Y-108739999D01*
X177701413Y-108713926D01*
X177963926Y-108451413D01*
X178170182Y-108142731D01*
X178312253Y-107799741D01*
X178384680Y-107435625D01*
X178384680Y-107064375D01*
X178312253Y-106700259D01*
X178170182Y-106357269D01*
X178098721Y-106250320D01*
X180612248Y-106250320D01*
X180615320Y-107214250D01*
X180774070Y-107373000D01*
X182373000Y-107373000D01*
X182373000Y-105774070D01*
X182214250Y-105615320D01*
X181250320Y-105612248D01*
X181125838Y-105624508D01*
X181006140Y-105660818D01*
X180895826Y-105719783D01*
X180799135Y-105799135D01*
X180719783Y-105895826D01*
X180660818Y-106006140D01*
X180624508Y-106125838D01*
X180612248Y-106250320D01*
X178098721Y-106250320D01*
X177963926Y-106048587D01*
X177701413Y-105786074D01*
X177392731Y-105579818D01*
X177049741Y-105437747D01*
X176685625Y-105365320D01*
X176314375Y-105365320D01*
X175950259Y-105437747D01*
X175607269Y-105579818D01*
X175298587Y-105786074D01*
X175036074Y-106048587D01*
X174829818Y-106357269D01*
X174687747Y-106700259D01*
X174615320Y-107064375D01*
X174615320Y-107435625D01*
X174687747Y-107799741D01*
X174829818Y-108142731D01*
X175036074Y-108451413D01*
X175298587Y-108713926D01*
X175337608Y-108739999D01*
X173662392Y-108739999D01*
X173701413Y-108713926D01*
X173963926Y-108451413D01*
X174170182Y-108142731D01*
X174312253Y-107799741D01*
X174384680Y-107435625D01*
X174384680Y-107064375D01*
X174312253Y-106700259D01*
X174170182Y-106357269D01*
X173963926Y-106048587D01*
X173701413Y-105786074D01*
X173392731Y-105579818D01*
X173049741Y-105437747D01*
X172685625Y-105365320D01*
X172314375Y-105365320D01*
X171950259Y-105437747D01*
X171607269Y-105579818D01*
X171298587Y-105786074D01*
X171036074Y-106048587D01*
X171001226Y-106100741D01*
X170999005Y-106078194D01*
X170955548Y-105934933D01*
X170884976Y-105802904D01*
X170790003Y-105687179D01*
X170761005Y-105663381D01*
X167462262Y-102364639D01*
X167595869Y-102309297D01*
X167843398Y-102143904D01*
X168053904Y-101933398D01*
X168219297Y-101685869D01*
X168333222Y-101410830D01*
X168391300Y-101118850D01*
X168391300Y-101016101D01*
X172386205Y-105011008D01*
X172409999Y-105040001D01*
X172438992Y-105063795D01*
X172438996Y-105063799D01*
X172509685Y-105121811D01*
X172525724Y-105134974D01*
X172657753Y-105205546D01*
X172801014Y-105249003D01*
X172912667Y-105260000D01*
X172912676Y-105260000D01*
X172949999Y-105263676D01*
X172987322Y-105260000D01*
X185485500Y-105260000D01*
X185522822Y-105263676D01*
X185560144Y-105260000D01*
X185560155Y-105260000D01*
X185671808Y-105249003D01*
X185815069Y-105205546D01*
X185947098Y-105134974D01*
X186062823Y-105040001D01*
X186086625Y-105010998D01*
X187011008Y-104086617D01*
X187040001Y-104062823D01*
X187063795Y-104033830D01*
X187063799Y-104033826D01*
X187134973Y-103947099D01*
X187142412Y-103933182D01*
X187160818Y-103993860D01*
X187219783Y-104104174D01*
X187299135Y-104200865D01*
X187395826Y-104280217D01*
X187506140Y-104339182D01*
X187625838Y-104375492D01*
X187750320Y-104387752D01*
X190249680Y-104387752D01*
X190374162Y-104375492D01*
X190493860Y-104339182D01*
X190604174Y-104280217D01*
X190700865Y-104200865D01*
X190780217Y-104104174D01*
X190839182Y-103993860D01*
X190875492Y-103874162D01*
X190887752Y-103749680D01*
X190887752Y-101250320D01*
X190875492Y-101125838D01*
X190839182Y-101006140D01*
X190780217Y-100895826D01*
X190700865Y-100799135D01*
X190604174Y-100719783D01*
X190493860Y-100660818D01*
X190376999Y-100625369D01*
X190428488Y-100573880D01*
X190313378Y-100458770D01*
X190603315Y-100332896D01*
X190769139Y-100000738D01*
X190866975Y-99642613D01*
X190893065Y-99272281D01*
X190846405Y-98903975D01*
X190728789Y-98551849D01*
X190603315Y-98317104D01*
X190313377Y-98191229D01*
X189179605Y-99325000D01*
X189193748Y-99339142D01*
X189014142Y-99518748D01*
X189000000Y-99504605D01*
X188985858Y-99518748D01*
X188806252Y-99339142D01*
X188820395Y-99325000D01*
X188806252Y-99310858D01*
X188985858Y-99131252D01*
X189000000Y-99145395D01*
X190133771Y-98011623D01*
X190015147Y-97738386D01*
X190201413Y-97613926D01*
X190463926Y-97351413D01*
X190670182Y-97042731D01*
X190812253Y-96699741D01*
X190884680Y-96335625D01*
X190884680Y-95964375D01*
X190812253Y-95600259D01*
X190670182Y-95257269D01*
X190463926Y-94948587D01*
X190201413Y-94686074D01*
X189892731Y-94479818D01*
X189549741Y-94337747D01*
X189185625Y-94265320D01*
X188814375Y-94265320D01*
X188450259Y-94337747D01*
X188107269Y-94479818D01*
X187798587Y-94686074D01*
X187536074Y-94948587D01*
X187329818Y-95257269D01*
X187187747Y-95600259D01*
X187115320Y-95964375D01*
X187115320Y-96335625D01*
X187187747Y-96699741D01*
X187242726Y-96832472D01*
X186760000Y-97315199D01*
X186760000Y-88964801D01*
X187126629Y-88598172D01*
X187106935Y-88877719D01*
X187153595Y-89246025D01*
X187271211Y-89598151D01*
X187396685Y-89832896D01*
X187686622Y-89958770D01*
X187571512Y-90073880D01*
X187623001Y-90125369D01*
X187506140Y-90160818D01*
X187395826Y-90219783D01*
X187299135Y-90299135D01*
X187219783Y-90395826D01*
X187160818Y-90506140D01*
X187124508Y-90625838D01*
X187112248Y-90750320D01*
X187112248Y-93249680D01*
X187124508Y-93374162D01*
X187160818Y-93493860D01*
X187219783Y-93604174D01*
X187299135Y-93700865D01*
X187395826Y-93780217D01*
X187506140Y-93839182D01*
X187625838Y-93875492D01*
X187750320Y-93887752D01*
X190249680Y-93887752D01*
X190374162Y-93875492D01*
X190493860Y-93839182D01*
X190604174Y-93780217D01*
X190700865Y-93700865D01*
X190780217Y-93604174D01*
X190839182Y-93493860D01*
X190875492Y-93374162D01*
X190887752Y-93249680D01*
X190887752Y-90750320D01*
X190875492Y-90625838D01*
X190839182Y-90506140D01*
X190780217Y-90395826D01*
X190700865Y-90299135D01*
X190604174Y-90219783D01*
X190493860Y-90160818D01*
X190376999Y-90125369D01*
X190428488Y-90073880D01*
X190313378Y-89958770D01*
X190603315Y-89832896D01*
X190769139Y-89500738D01*
X190866975Y-89142613D01*
X190893065Y-88772281D01*
X190846405Y-88403975D01*
X190728789Y-88051849D01*
X190603315Y-87817104D01*
X190313377Y-87691229D01*
X189179605Y-88825000D01*
X189193748Y-88839142D01*
X189014142Y-89018748D01*
X189000000Y-89004605D01*
X188985858Y-89018748D01*
X188806252Y-88839142D01*
X188820395Y-88825000D01*
X188806252Y-88810858D01*
X188985858Y-88631252D01*
X189000000Y-88645395D01*
X190133771Y-87511623D01*
X190015147Y-87238386D01*
X190201413Y-87113926D01*
X190463926Y-86851413D01*
X190670182Y-86542731D01*
X190812253Y-86199741D01*
X190884680Y-85835625D01*
X190884680Y-85464375D01*
X190812253Y-85100259D01*
X190670182Y-84757269D01*
X190463926Y-84448587D01*
X190201413Y-84186074D01*
X189892731Y-83979818D01*
X189549741Y-83837747D01*
X189185625Y-83765320D01*
X188814375Y-83765320D01*
X188450259Y-83837747D01*
X188107269Y-83979818D01*
X187798587Y-84186074D01*
X187536074Y-84448587D01*
X187329818Y-84757269D01*
X187187747Y-85100259D01*
X187115320Y-85464375D01*
X187115320Y-85835625D01*
X187187747Y-86199741D01*
X187242726Y-86332472D01*
X186260000Y-87315199D01*
X186260000Y-78889801D01*
X187126629Y-78023172D01*
X187106935Y-78302719D01*
X187153595Y-78671025D01*
X187271211Y-79023151D01*
X187396685Y-79257896D01*
X187686622Y-79383770D01*
X187571512Y-79498880D01*
X187623001Y-79550369D01*
X187506140Y-79585818D01*
X187395826Y-79644783D01*
X187299135Y-79724135D01*
X187219783Y-79820826D01*
X187160818Y-79931140D01*
X187124508Y-80050838D01*
X187112248Y-80175320D01*
X187112248Y-82674680D01*
X187124508Y-82799162D01*
X187160818Y-82918860D01*
X187219783Y-83029174D01*
X187299135Y-83125865D01*
X187395826Y-83205217D01*
X187506140Y-83264182D01*
X187625838Y-83300492D01*
X187750320Y-83312752D01*
X190249680Y-83312752D01*
X190374162Y-83300492D01*
X190493860Y-83264182D01*
X190604174Y-83205217D01*
X190700865Y-83125865D01*
X190780217Y-83029174D01*
X190839182Y-82918860D01*
X190875492Y-82799162D01*
X190887752Y-82674680D01*
X190887752Y-80175320D01*
X190875492Y-80050838D01*
X190839182Y-79931140D01*
X190780217Y-79820826D01*
X190700865Y-79724135D01*
X190604174Y-79644783D01*
X190493860Y-79585818D01*
X190376999Y-79550369D01*
X190428488Y-79498880D01*
X190313378Y-79383770D01*
X190603315Y-79257896D01*
X190769139Y-78925738D01*
X190866975Y-78567613D01*
X190893065Y-78197281D01*
X190846405Y-77828975D01*
X190728789Y-77476849D01*
X190603315Y-77242104D01*
X190313377Y-77116229D01*
X189179605Y-78250000D01*
X189193748Y-78264142D01*
X189014142Y-78443748D01*
X189000000Y-78429605D01*
X188985858Y-78443748D01*
X188806252Y-78264142D01*
X188820395Y-78250000D01*
X188806252Y-78235858D01*
X188985858Y-78056252D01*
X189000000Y-78070395D01*
X190133771Y-76936623D01*
X190015147Y-76663386D01*
X190201413Y-76538926D01*
X190463926Y-76276413D01*
X190670182Y-75967731D01*
X190812253Y-75624741D01*
X190884680Y-75260625D01*
X190884680Y-74889375D01*
X190812253Y-74525259D01*
X190670182Y-74182269D01*
X190463926Y-73873587D01*
X190201413Y-73611074D01*
X189892731Y-73404818D01*
X189549741Y-73262747D01*
X189185625Y-73190320D01*
X188814375Y-73190320D01*
X188450259Y-73262747D01*
X188107269Y-73404818D01*
X187798587Y-73611074D01*
X187536074Y-73873587D01*
X187329818Y-74182269D01*
X187187747Y-74525259D01*
X187115320Y-74889375D01*
X187115320Y-75260625D01*
X187187747Y-75624741D01*
X187242726Y-75757472D01*
X184989003Y-78011196D01*
X184959999Y-78034999D01*
X184930951Y-78070395D01*
X184865026Y-78150724D01*
X184850719Y-78177491D01*
X184794454Y-78282754D01*
X184750997Y-78426015D01*
X184740000Y-78537668D01*
X184740000Y-78537678D01*
X184736324Y-78575000D01*
X184740000Y-78612322D01*
X184740001Y-102740000D01*
X177344802Y-102740000D01*
X168343576Y-93738775D01*
X168391300Y-93498850D01*
X168391300Y-93201150D01*
X168333222Y-92909170D01*
X168219297Y-92634131D01*
X168053904Y-92386602D01*
X167843398Y-92176096D01*
X167699580Y-92080000D01*
X167843398Y-91983904D01*
X168053904Y-91773398D01*
X168219297Y-91525869D01*
X168333222Y-91250830D01*
X168391300Y-90958850D01*
X168391300Y-90661150D01*
X168333222Y-90369170D01*
X168219297Y-90094131D01*
X168053904Y-89846602D01*
X167843398Y-89636096D01*
X167699580Y-89540000D01*
X167843398Y-89443904D01*
X168053904Y-89233398D01*
X168219297Y-88985869D01*
X168333222Y-88710830D01*
X168391300Y-88418850D01*
X168391300Y-88121150D01*
X168333222Y-87829170D01*
X168219297Y-87554131D01*
X168053904Y-87306602D01*
X167843398Y-87096096D01*
X167699580Y-87000000D01*
X167843398Y-86903904D01*
X168053904Y-86693398D01*
X168219297Y-86445869D01*
X168333222Y-86170830D01*
X168391300Y-85878850D01*
X168391300Y-85581150D01*
X168333222Y-85289170D01*
X168219297Y-85014131D01*
X168053904Y-84766602D01*
X167843398Y-84556096D01*
X167699580Y-84460000D01*
X167843398Y-84363904D01*
X168053904Y-84153398D01*
X168219297Y-83905869D01*
X168333222Y-83630830D01*
X168391300Y-83338850D01*
X168391300Y-83041150D01*
X168333222Y-82749170D01*
X168219297Y-82474131D01*
X168053904Y-82226602D01*
X167843398Y-82016096D01*
X167680191Y-81907045D01*
X167747563Y-81697169D01*
X166880000Y-80829605D01*
X166012437Y-81697169D01*
X166079809Y-81907045D01*
X165916602Y-82016096D01*
X165706096Y-82226602D01*
X165540703Y-82474131D01*
X165426778Y-82749170D01*
X165368700Y-83041150D01*
X165368700Y-83338850D01*
X165416424Y-83578775D01*
X163138968Y-85856231D01*
X163109970Y-85880029D01*
X163086172Y-85909027D01*
X163086171Y-85909028D01*
X163014996Y-85995754D01*
X162944424Y-86127784D01*
X162900968Y-86271045D01*
X162886294Y-86420030D01*
X162889971Y-86457363D01*
X162889970Y-101499058D01*
X162886294Y-101536380D01*
X162889970Y-101573702D01*
X162889970Y-101573712D01*
X162900967Y-101685365D01*
X162935302Y-101798554D01*
X162944424Y-101828626D01*
X163014996Y-101960656D01*
X163034937Y-101984954D01*
X163109969Y-102076381D01*
X163138973Y-102100184D01*
X166651036Y-105612248D01*
X165250320Y-105612248D01*
X165125838Y-105624508D01*
X165006140Y-105660818D01*
X164895826Y-105719783D01*
X164799135Y-105799135D01*
X164719783Y-105895826D01*
X164660818Y-106006140D01*
X164624508Y-106125838D01*
X164623761Y-106133422D01*
X164526413Y-106036074D01*
X164217731Y-105829818D01*
X163874741Y-105687747D01*
X163510625Y-105615320D01*
X163139375Y-105615320D01*
X162775259Y-105687747D01*
X162432269Y-105829818D01*
X162123587Y-106036074D01*
X161861074Y-106298587D01*
X161737500Y-106483527D01*
X161613926Y-106298587D01*
X161351413Y-106036074D01*
X161042731Y-105829818D01*
X160699741Y-105687747D01*
X160335625Y-105615320D01*
X159964375Y-105615320D01*
X159600259Y-105687747D01*
X159257269Y-105829818D01*
X158948587Y-106036074D01*
X158686074Y-106298587D01*
X158479818Y-106607269D01*
X158337747Y-106950259D01*
X158265320Y-107314375D01*
X157910000Y-107314375D01*
X157910000Y-102579117D01*
X158765000Y-102579117D01*
X158765000Y-102920883D01*
X158831675Y-103256081D01*
X158962463Y-103571831D01*
X159152337Y-103855998D01*
X159394002Y-104097663D01*
X159678169Y-104287537D01*
X159993919Y-104418325D01*
X160329117Y-104485000D01*
X160670883Y-104485000D01*
X161006081Y-104418325D01*
X161321831Y-104287537D01*
X161605998Y-104097663D01*
X161847663Y-103855998D01*
X162037537Y-103571831D01*
X162168325Y-103256081D01*
X162235000Y-102920883D01*
X162235000Y-102579117D01*
X162168325Y-102243919D01*
X162037537Y-101928169D01*
X161847663Y-101644002D01*
X161605998Y-101402337D01*
X161321831Y-101212463D01*
X161006081Y-101081675D01*
X160670883Y-101015000D01*
X160329117Y-101015000D01*
X159993919Y-101081675D01*
X159678169Y-101212463D01*
X159394002Y-101402337D01*
X159152337Y-101644002D01*
X158962463Y-101928169D01*
X158831675Y-102243919D01*
X158765000Y-102579117D01*
X157910000Y-102579117D01*
X157910000Y-92999680D01*
X158112248Y-92999680D01*
X158124508Y-93124162D01*
X158160818Y-93243860D01*
X158219783Y-93354174D01*
X158299135Y-93450865D01*
X158395826Y-93530217D01*
X158506140Y-93589182D01*
X158625838Y-93625492D01*
X158633422Y-93626239D01*
X158536074Y-93723587D01*
X158329818Y-94032269D01*
X158187747Y-94375259D01*
X158115320Y-94739375D01*
X158115320Y-95110625D01*
X158187747Y-95474741D01*
X158329818Y-95817731D01*
X158536074Y-96126413D01*
X158798587Y-96388926D01*
X158983527Y-96512500D01*
X158798587Y-96636074D01*
X158536074Y-96898587D01*
X158329818Y-97207269D01*
X158187747Y-97550259D01*
X158115320Y-97914375D01*
X158115320Y-98285625D01*
X158187747Y-98649741D01*
X158329818Y-98992731D01*
X158536074Y-99301413D01*
X158798587Y-99563926D01*
X159107269Y-99770182D01*
X159450259Y-99912253D01*
X159814375Y-99984680D01*
X160185625Y-99984680D01*
X160549741Y-99912253D01*
X160892731Y-99770182D01*
X161201413Y-99563926D01*
X161463926Y-99301413D01*
X161670182Y-98992731D01*
X161812253Y-98649741D01*
X161884680Y-98285625D01*
X161884680Y-97914375D01*
X161812253Y-97550259D01*
X161670182Y-97207269D01*
X161463926Y-96898587D01*
X161201413Y-96636074D01*
X161016473Y-96512500D01*
X161201413Y-96388926D01*
X161463926Y-96126413D01*
X161670182Y-95817731D01*
X161812253Y-95474741D01*
X161884680Y-95110625D01*
X161884680Y-94739375D01*
X161812253Y-94375259D01*
X161670182Y-94032269D01*
X161463926Y-93723587D01*
X161366578Y-93626239D01*
X161374162Y-93625492D01*
X161493860Y-93589182D01*
X161604174Y-93530217D01*
X161700865Y-93450865D01*
X161780217Y-93354174D01*
X161839182Y-93243860D01*
X161875492Y-93124162D01*
X161887752Y-92999680D01*
X161884680Y-92035750D01*
X161725930Y-91877000D01*
X160127000Y-91877000D01*
X160127000Y-91897000D01*
X159873000Y-91897000D01*
X159873000Y-91877000D01*
X158274070Y-91877000D01*
X158115320Y-92035750D01*
X158112248Y-92999680D01*
X157910000Y-92999680D01*
X157910000Y-90500320D01*
X158112248Y-90500320D01*
X158115320Y-91464250D01*
X158274070Y-91623000D01*
X159873000Y-91623000D01*
X159873000Y-90024070D01*
X160127000Y-90024070D01*
X160127000Y-91623000D01*
X161725930Y-91623000D01*
X161884680Y-91464250D01*
X161887752Y-90500320D01*
X161875492Y-90375838D01*
X161839182Y-90256140D01*
X161780217Y-90145826D01*
X161700865Y-90049135D01*
X161604174Y-89969783D01*
X161493860Y-89910818D01*
X161374162Y-89874508D01*
X161249680Y-89862248D01*
X160285750Y-89865320D01*
X160127000Y-90024070D01*
X159873000Y-90024070D01*
X159714250Y-89865320D01*
X158750320Y-89862248D01*
X158625838Y-89874508D01*
X158506140Y-89910818D01*
X158395826Y-89969783D01*
X158299135Y-90049135D01*
X158219783Y-90145826D01*
X158160818Y-90256140D01*
X158124508Y-90375838D01*
X158112248Y-90500320D01*
X157910000Y-90500320D01*
X157910000Y-80999680D01*
X158112248Y-80999680D01*
X158124508Y-81124162D01*
X158160818Y-81243860D01*
X158219783Y-81354174D01*
X158299135Y-81450865D01*
X158395826Y-81530217D01*
X158506140Y-81589182D01*
X158625838Y-81625492D01*
X158633422Y-81626239D01*
X158536074Y-81723587D01*
X158329818Y-82032269D01*
X158187747Y-82375259D01*
X158115320Y-82739375D01*
X158115320Y-83110625D01*
X158187747Y-83474741D01*
X158329818Y-83817731D01*
X158536074Y-84126413D01*
X158798587Y-84388926D01*
X158983527Y-84512500D01*
X158798587Y-84636074D01*
X158536074Y-84898587D01*
X158329818Y-85207269D01*
X158187747Y-85550259D01*
X158115320Y-85914375D01*
X158115320Y-86285625D01*
X158187747Y-86649741D01*
X158329818Y-86992731D01*
X158536074Y-87301413D01*
X158798587Y-87563926D01*
X159107269Y-87770182D01*
X159450259Y-87912253D01*
X159814375Y-87984680D01*
X160185625Y-87984680D01*
X160549741Y-87912253D01*
X160892731Y-87770182D01*
X161201413Y-87563926D01*
X161463926Y-87301413D01*
X161670182Y-86992731D01*
X161812253Y-86649741D01*
X161884680Y-86285625D01*
X161884680Y-85914375D01*
X161812253Y-85550259D01*
X161670182Y-85207269D01*
X161463926Y-84898587D01*
X161201413Y-84636074D01*
X161016473Y-84512500D01*
X161201413Y-84388926D01*
X161463926Y-84126413D01*
X161670182Y-83817731D01*
X161812253Y-83474741D01*
X161884680Y-83110625D01*
X161884680Y-82739375D01*
X161812253Y-82375259D01*
X161670182Y-82032269D01*
X161463926Y-81723587D01*
X161366578Y-81626239D01*
X161374162Y-81625492D01*
X161493860Y-81589182D01*
X161604174Y-81530217D01*
X161700865Y-81450865D01*
X161780217Y-81354174D01*
X161839182Y-81243860D01*
X161875492Y-81124162D01*
X161887752Y-80999680D01*
X161886853Y-80717491D01*
X165362887Y-80717491D01*
X165405204Y-81012167D01*
X165504198Y-81292927D01*
X165581071Y-81436746D01*
X165832831Y-81517563D01*
X166700395Y-80650000D01*
X167059605Y-80650000D01*
X167927169Y-81517563D01*
X168178929Y-81436746D01*
X168307457Y-81168221D01*
X168381129Y-80879781D01*
X168397113Y-80582509D01*
X168354796Y-80287833D01*
X168255802Y-80007073D01*
X168178929Y-79863254D01*
X167927169Y-79782437D01*
X167059605Y-80650000D01*
X166700395Y-80650000D01*
X165832831Y-79782437D01*
X165581071Y-79863254D01*
X165452543Y-80131779D01*
X165378871Y-80420219D01*
X165362887Y-80717491D01*
X161886853Y-80717491D01*
X161884680Y-80035750D01*
X161725930Y-79877000D01*
X160127000Y-79877000D01*
X160127000Y-79897000D01*
X159873000Y-79897000D01*
X159873000Y-79877000D01*
X158274070Y-79877000D01*
X158115320Y-80035750D01*
X158112248Y-80999680D01*
X157910000Y-80999680D01*
X157910000Y-78500320D01*
X158112248Y-78500320D01*
X158115320Y-79464250D01*
X158274070Y-79623000D01*
X159873000Y-79623000D01*
X159873000Y-78024070D01*
X160127000Y-78024070D01*
X160127000Y-79623000D01*
X161725930Y-79623000D01*
X161884680Y-79464250D01*
X161885658Y-79157169D01*
X166012437Y-79157169D01*
X166083968Y-79380000D01*
X166012437Y-79602831D01*
X166880000Y-80470395D01*
X167747563Y-79602831D01*
X167676032Y-79380000D01*
X167747563Y-79157169D01*
X166880000Y-78289605D01*
X166012437Y-79157169D01*
X161885658Y-79157169D01*
X161887752Y-78500320D01*
X161875492Y-78375838D01*
X161839182Y-78256140D01*
X161797143Y-78177491D01*
X165362887Y-78177491D01*
X165405204Y-78472167D01*
X165504198Y-78752927D01*
X165581071Y-78896746D01*
X165832831Y-78977563D01*
X166700395Y-78110000D01*
X167059605Y-78110000D01*
X167927169Y-78977563D01*
X168178929Y-78896746D01*
X168307457Y-78628221D01*
X168381129Y-78339781D01*
X168397113Y-78042509D01*
X168385430Y-77961150D01*
X180608700Y-77961150D01*
X180608700Y-78258850D01*
X180666778Y-78550830D01*
X180780703Y-78825869D01*
X180946096Y-79073398D01*
X181156602Y-79283904D01*
X181300420Y-79380000D01*
X181156602Y-79476096D01*
X180946096Y-79686602D01*
X180780703Y-79934131D01*
X180666778Y-80209170D01*
X180608700Y-80501150D01*
X180608700Y-80798850D01*
X180666778Y-81090830D01*
X180780703Y-81365869D01*
X180946096Y-81613398D01*
X181156602Y-81823904D01*
X181300420Y-81920000D01*
X181156602Y-82016096D01*
X180946096Y-82226602D01*
X180780703Y-82474131D01*
X180666778Y-82749170D01*
X180608700Y-83041150D01*
X180608700Y-83338850D01*
X180666778Y-83630830D01*
X180780703Y-83905869D01*
X180946096Y-84153398D01*
X181156602Y-84363904D01*
X181300420Y-84460000D01*
X181156602Y-84556096D01*
X180946096Y-84766602D01*
X180780703Y-85014131D01*
X180666778Y-85289170D01*
X180608700Y-85581150D01*
X180608700Y-85878850D01*
X180666778Y-86170830D01*
X180780703Y-86445869D01*
X180946096Y-86693398D01*
X181156602Y-86903904D01*
X181300420Y-87000000D01*
X181156602Y-87096096D01*
X180946096Y-87306602D01*
X180780703Y-87554131D01*
X180666778Y-87829170D01*
X180608700Y-88121150D01*
X180608700Y-88418850D01*
X180666778Y-88710830D01*
X180780703Y-88985869D01*
X180946096Y-89233398D01*
X181156602Y-89443904D01*
X181300420Y-89540000D01*
X181156602Y-89636096D01*
X180946096Y-89846602D01*
X180780703Y-90094131D01*
X180666778Y-90369170D01*
X180608700Y-90661150D01*
X180608700Y-90958850D01*
X180666778Y-91250830D01*
X180780703Y-91525869D01*
X180946096Y-91773398D01*
X181156602Y-91983904D01*
X181300420Y-92080000D01*
X181156602Y-92176096D01*
X180946096Y-92386602D01*
X180780703Y-92634131D01*
X180666778Y-92909170D01*
X180608700Y-93201150D01*
X180608700Y-93498850D01*
X180666778Y-93790830D01*
X180780703Y-94065869D01*
X180946096Y-94313398D01*
X181156602Y-94523904D01*
X181300420Y-94620000D01*
X181156602Y-94716096D01*
X180946096Y-94926602D01*
X180780703Y-95174131D01*
X180666778Y-95449170D01*
X180608700Y-95741150D01*
X180608700Y-96038850D01*
X180666778Y-96330830D01*
X180780703Y-96605869D01*
X180946096Y-96853398D01*
X181156602Y-97063904D01*
X181300420Y-97160000D01*
X181156602Y-97256096D01*
X180946096Y-97466602D01*
X180780703Y-97714131D01*
X180666778Y-97989170D01*
X180608700Y-98281150D01*
X180608700Y-98578850D01*
X180666778Y-98870830D01*
X180780703Y-99145869D01*
X180946096Y-99393398D01*
X181156602Y-99603904D01*
X181300420Y-99700000D01*
X181156602Y-99796096D01*
X180946096Y-100006602D01*
X180780703Y-100254131D01*
X180666778Y-100529170D01*
X180608700Y-100821150D01*
X180608700Y-101118850D01*
X180666778Y-101410830D01*
X180780703Y-101685869D01*
X180946096Y-101933398D01*
X181156602Y-102143904D01*
X181404131Y-102309297D01*
X181679170Y-102423222D01*
X181971150Y-102481300D01*
X182268850Y-102481300D01*
X182560830Y-102423222D01*
X182835869Y-102309297D01*
X183083398Y-102143904D01*
X183293904Y-101933398D01*
X183459297Y-101685869D01*
X183573222Y-101410830D01*
X183631300Y-101118850D01*
X183631300Y-100821150D01*
X183573222Y-100529170D01*
X183459297Y-100254131D01*
X183293904Y-100006602D01*
X183083398Y-99796096D01*
X182939580Y-99700000D01*
X183083398Y-99603904D01*
X183293904Y-99393398D01*
X183459297Y-99145869D01*
X183573222Y-98870830D01*
X183631300Y-98578850D01*
X183631300Y-98281150D01*
X183573222Y-97989170D01*
X183459297Y-97714131D01*
X183293904Y-97466602D01*
X183083398Y-97256096D01*
X182939580Y-97160000D01*
X183083398Y-97063904D01*
X183293904Y-96853398D01*
X183459297Y-96605869D01*
X183573222Y-96330830D01*
X183631300Y-96038850D01*
X183631300Y-95741150D01*
X183573222Y-95449170D01*
X183459297Y-95174131D01*
X183293904Y-94926602D01*
X183083398Y-94716096D01*
X182939580Y-94620000D01*
X183083398Y-94523904D01*
X183293904Y-94313398D01*
X183459297Y-94065869D01*
X183573222Y-93790830D01*
X183631300Y-93498850D01*
X183631300Y-93201150D01*
X183573222Y-92909170D01*
X183459297Y-92634131D01*
X183293904Y-92386602D01*
X183083398Y-92176096D01*
X182939580Y-92080000D01*
X183083398Y-91983904D01*
X183293904Y-91773398D01*
X183459297Y-91525869D01*
X183573222Y-91250830D01*
X183631300Y-90958850D01*
X183631300Y-90661150D01*
X183573222Y-90369170D01*
X183459297Y-90094131D01*
X183293904Y-89846602D01*
X183083398Y-89636096D01*
X182939580Y-89540000D01*
X183083398Y-89443904D01*
X183293904Y-89233398D01*
X183459297Y-88985869D01*
X183573222Y-88710830D01*
X183631300Y-88418850D01*
X183631300Y-88121150D01*
X183573222Y-87829170D01*
X183459297Y-87554131D01*
X183293904Y-87306602D01*
X183083398Y-87096096D01*
X182939580Y-87000000D01*
X183083398Y-86903904D01*
X183293904Y-86693398D01*
X183459297Y-86445869D01*
X183573222Y-86170830D01*
X183631300Y-85878850D01*
X183631300Y-85581150D01*
X183573222Y-85289170D01*
X183459297Y-85014131D01*
X183293904Y-84766602D01*
X183083398Y-84556096D01*
X182939580Y-84460000D01*
X183083398Y-84363904D01*
X183293904Y-84153398D01*
X183459297Y-83905869D01*
X183573222Y-83630830D01*
X183631300Y-83338850D01*
X183631300Y-83041150D01*
X183573222Y-82749170D01*
X183459297Y-82474131D01*
X183293904Y-82226602D01*
X183083398Y-82016096D01*
X182939580Y-81920000D01*
X183083398Y-81823904D01*
X183293904Y-81613398D01*
X183459297Y-81365869D01*
X183573222Y-81090830D01*
X183631300Y-80798850D01*
X183631300Y-80501150D01*
X183573222Y-80209170D01*
X183459297Y-79934131D01*
X183293904Y-79686602D01*
X183083398Y-79476096D01*
X182939580Y-79380000D01*
X183083398Y-79283904D01*
X183293904Y-79073398D01*
X183459297Y-78825869D01*
X183573222Y-78550830D01*
X183631300Y-78258850D01*
X183631300Y-77961150D01*
X183573222Y-77669170D01*
X183459297Y-77394131D01*
X183293904Y-77146602D01*
X183083398Y-76936096D01*
X182920191Y-76827045D01*
X182987563Y-76617169D01*
X182120000Y-75749605D01*
X181252437Y-76617169D01*
X181319809Y-76827045D01*
X181156602Y-76936096D01*
X180946096Y-77146602D01*
X180780703Y-77394131D01*
X180666778Y-77669170D01*
X180608700Y-77961150D01*
X168385430Y-77961150D01*
X168354796Y-77747833D01*
X168255802Y-77467073D01*
X168178929Y-77323254D01*
X167927169Y-77242437D01*
X167059605Y-78110000D01*
X166700395Y-78110000D01*
X165832831Y-77242437D01*
X165581071Y-77323254D01*
X165452543Y-77591779D01*
X165378871Y-77880219D01*
X165362887Y-78177491D01*
X161797143Y-78177491D01*
X161780217Y-78145826D01*
X161700865Y-78049135D01*
X161604174Y-77969783D01*
X161493860Y-77910818D01*
X161374162Y-77874508D01*
X161249680Y-77862248D01*
X160285750Y-77865320D01*
X160127000Y-78024070D01*
X159873000Y-78024070D01*
X159714250Y-77865320D01*
X158750320Y-77862248D01*
X158625838Y-77874508D01*
X158506140Y-77910818D01*
X158395826Y-77969783D01*
X158299135Y-78049135D01*
X158219783Y-78145826D01*
X158160818Y-78256140D01*
X158124508Y-78375838D01*
X158112248Y-78500320D01*
X157910000Y-78500320D01*
X157910000Y-73829117D01*
X158765000Y-73829117D01*
X158765000Y-74170883D01*
X158831675Y-74506081D01*
X158962463Y-74821831D01*
X159152337Y-75105998D01*
X159394002Y-75347663D01*
X159678169Y-75537537D01*
X159993919Y-75668325D01*
X160329117Y-75735000D01*
X160670883Y-75735000D01*
X161006081Y-75668325D01*
X161321831Y-75537537D01*
X161605998Y-75347663D01*
X161847663Y-75105998D01*
X162037537Y-74821831D01*
X162168325Y-74506081D01*
X162235000Y-74170883D01*
X162235000Y-73829117D01*
X162168325Y-73493919D01*
X162037537Y-73178169D01*
X161847663Y-72894002D01*
X161605998Y-72652337D01*
X161321831Y-72462463D01*
X161006081Y-72331675D01*
X160670883Y-72265000D01*
X160329117Y-72265000D01*
X159993919Y-72331675D01*
X159678169Y-72462463D01*
X159394002Y-72652337D01*
X159152337Y-72894002D01*
X158962463Y-73178169D01*
X158831675Y-73493919D01*
X158765000Y-73829117D01*
X157910000Y-73829117D01*
X157910000Y-72153700D01*
X165365628Y-72153700D01*
X165365628Y-73906300D01*
X165377888Y-74030782D01*
X165414198Y-74150480D01*
X165473163Y-74260794D01*
X165552515Y-74357485D01*
X165649206Y-74436837D01*
X165759520Y-74495802D01*
X165803542Y-74509156D01*
X165706096Y-74606602D01*
X165540703Y-74854131D01*
X165426778Y-75129170D01*
X165368700Y-75421150D01*
X165368700Y-75718850D01*
X165426778Y-76010830D01*
X165540703Y-76285869D01*
X165706096Y-76533398D01*
X165916602Y-76743904D01*
X166079809Y-76852955D01*
X166012437Y-77062831D01*
X166880000Y-77930395D01*
X167747563Y-77062831D01*
X167680191Y-76852955D01*
X167843398Y-76743904D01*
X168053904Y-76533398D01*
X168219297Y-76285869D01*
X168333222Y-76010830D01*
X168391300Y-75718850D01*
X168391300Y-75637491D01*
X180602887Y-75637491D01*
X180645204Y-75932167D01*
X180744198Y-76212927D01*
X180821071Y-76356746D01*
X181072831Y-76437563D01*
X181940395Y-75570000D01*
X182299605Y-75570000D01*
X183167169Y-76437563D01*
X183418929Y-76356746D01*
X183547457Y-76088221D01*
X183621129Y-75799781D01*
X183637113Y-75502509D01*
X183594796Y-75207833D01*
X183495802Y-74927073D01*
X183418929Y-74783254D01*
X183167169Y-74702437D01*
X182299605Y-75570000D01*
X181940395Y-75570000D01*
X181072831Y-74702437D01*
X180821071Y-74783254D01*
X180692543Y-75051779D01*
X180618871Y-75340219D01*
X180602887Y-75637491D01*
X168391300Y-75637491D01*
X168391300Y-75421150D01*
X168333222Y-75129170D01*
X168219297Y-74854131D01*
X168053904Y-74606602D01*
X167956458Y-74509156D01*
X168000480Y-74495802D01*
X168110794Y-74436837D01*
X168207485Y-74357485D01*
X168286837Y-74260794D01*
X168345802Y-74150480D01*
X168382112Y-74030782D01*
X168394372Y-73906300D01*
X168394372Y-72881150D01*
X180608700Y-72881150D01*
X180608700Y-73178850D01*
X180666778Y-73470830D01*
X180780703Y-73745869D01*
X180946096Y-73993398D01*
X181156602Y-74203904D01*
X181319809Y-74312955D01*
X181252437Y-74522831D01*
X182120000Y-75390395D01*
X182987563Y-74522831D01*
X182920191Y-74312955D01*
X183083398Y-74203904D01*
X183293904Y-73993398D01*
X183459297Y-73745869D01*
X183573222Y-73470830D01*
X183631300Y-73178850D01*
X183631300Y-72881150D01*
X183573222Y-72589170D01*
X183459297Y-72314131D01*
X183293904Y-72066602D01*
X183083398Y-71856096D01*
X182835869Y-71690703D01*
X182560830Y-71576778D01*
X182268850Y-71518700D01*
X181971150Y-71518700D01*
X181679170Y-71576778D01*
X181404131Y-71690703D01*
X181156602Y-71856096D01*
X180946096Y-72066602D01*
X180780703Y-72314131D01*
X180666778Y-72589170D01*
X180608700Y-72881150D01*
X168394372Y-72881150D01*
X168394372Y-72153700D01*
X168382112Y-72029218D01*
X168345802Y-71909520D01*
X168286837Y-71799206D01*
X168207485Y-71702515D01*
X168110794Y-71623163D01*
X168000480Y-71564198D01*
X167880782Y-71527888D01*
X167756300Y-71515628D01*
X166003700Y-71515628D01*
X165879218Y-71527888D01*
X165759520Y-71564198D01*
X165649206Y-71623163D01*
X165552515Y-71702515D01*
X165473163Y-71799206D01*
X165414198Y-71909520D01*
X165377888Y-72029218D01*
X165365628Y-72153700D01*
X157910000Y-72153700D01*
X157910000Y-71410000D01*
X191090000Y-71410000D01*
X191090001Y-73217572D01*
M02*
