G04 #@! TF.GenerationSoftware,KiCad,Pcbnew,(5.1.5-0-10_14)*
G04 #@! TF.CreationDate,2020-03-07T15:10:29+01:00*
G04 #@! TF.ProjectId,pro_micro_shield,70726f5f-6d69-4637-926f-5f736869656c,rev?*
G04 #@! TF.SameCoordinates,Original*
G04 #@! TF.FileFunction,Soldermask,Top*
G04 #@! TF.FilePolarity,Negative*
%FSLAX46Y46*%
G04 Gerber Fmt 4.6, Leading zero omitted, Abs format (unit mm)*
G04 Created by KiCad (PCBNEW (5.1.5-0-10_14)) date 2020-03-07 15:10:29*
%MOMM*%
%LPD*%
G04 APERTURE LIST*
%ADD10C,0.100000*%
G04 APERTURE END LIST*
D10*
G36*
X189729393Y-107749304D02*
G01*
X189966101Y-107847352D01*
X189966103Y-107847353D01*
X190179135Y-107989696D01*
X190360304Y-108170865D01*
X190502647Y-108383897D01*
X190502648Y-108383899D01*
X190600696Y-108620607D01*
X190650680Y-108871893D01*
X190650680Y-109128107D01*
X190600696Y-109379393D01*
X190502648Y-109616101D01*
X190502647Y-109616103D01*
X190360304Y-109829135D01*
X190179135Y-110010304D01*
X189966103Y-110152647D01*
X189966102Y-110152648D01*
X189966101Y-110152648D01*
X189729393Y-110250696D01*
X189478107Y-110300680D01*
X189221893Y-110300680D01*
X188970607Y-110250696D01*
X188733899Y-110152648D01*
X188733898Y-110152648D01*
X188733897Y-110152647D01*
X188520865Y-110010304D01*
X188339696Y-109829135D01*
X188197353Y-109616103D01*
X188197352Y-109616101D01*
X188099304Y-109379393D01*
X188049320Y-109128107D01*
X188049320Y-108871893D01*
X188099304Y-108620607D01*
X188197352Y-108383899D01*
X188197353Y-108383897D01*
X188339696Y-108170865D01*
X188520865Y-107989696D01*
X188733897Y-107847353D01*
X188733899Y-107847352D01*
X188970607Y-107749304D01*
X189221893Y-107699320D01*
X189478107Y-107699320D01*
X189729393Y-107749304D01*
G37*
G36*
X186554393Y-107749304D02*
G01*
X186791101Y-107847352D01*
X186791103Y-107847353D01*
X187004135Y-107989696D01*
X187185304Y-108170865D01*
X187327647Y-108383897D01*
X187327648Y-108383899D01*
X187425696Y-108620607D01*
X187475680Y-108871893D01*
X187475680Y-109128107D01*
X187425696Y-109379393D01*
X187327648Y-109616101D01*
X187327647Y-109616103D01*
X187185304Y-109829135D01*
X187004135Y-110010304D01*
X186791103Y-110152647D01*
X186791102Y-110152648D01*
X186791101Y-110152648D01*
X186554393Y-110250696D01*
X186303107Y-110300680D01*
X186046893Y-110300680D01*
X185795607Y-110250696D01*
X185558899Y-110152648D01*
X185558898Y-110152648D01*
X185558897Y-110152647D01*
X185345865Y-110010304D01*
X185164696Y-109829135D01*
X185022353Y-109616103D01*
X185022352Y-109616101D01*
X184924304Y-109379393D01*
X184874320Y-109128107D01*
X184874320Y-108871893D01*
X184924304Y-108620607D01*
X185022352Y-108383899D01*
X185022353Y-108383897D01*
X185164696Y-108170865D01*
X185345865Y-107989696D01*
X185558897Y-107847353D01*
X185558899Y-107847352D01*
X185795607Y-107749304D01*
X186046893Y-107699320D01*
X186303107Y-107699320D01*
X186554393Y-107749304D01*
G37*
G36*
X184300680Y-110300680D02*
G01*
X181699320Y-110300680D01*
X181699320Y-107699320D01*
X184300680Y-107699320D01*
X184300680Y-110300680D01*
G37*
G36*
X176729393Y-107749304D02*
G01*
X176966101Y-107847352D01*
X176966103Y-107847353D01*
X177179135Y-107989696D01*
X177360304Y-108170865D01*
X177502647Y-108383897D01*
X177502648Y-108383899D01*
X177600696Y-108620607D01*
X177650680Y-108871893D01*
X177650680Y-109128107D01*
X177600696Y-109379393D01*
X177502648Y-109616101D01*
X177502647Y-109616103D01*
X177360304Y-109829135D01*
X177179135Y-110010304D01*
X176966103Y-110152647D01*
X176966102Y-110152648D01*
X176966101Y-110152648D01*
X176729393Y-110250696D01*
X176478107Y-110300680D01*
X176221893Y-110300680D01*
X175970607Y-110250696D01*
X175733899Y-110152648D01*
X175733898Y-110152648D01*
X175733897Y-110152647D01*
X175520865Y-110010304D01*
X175339696Y-109829135D01*
X175197353Y-109616103D01*
X175197352Y-109616101D01*
X175099304Y-109379393D01*
X175049320Y-109128107D01*
X175049320Y-108871893D01*
X175099304Y-108620607D01*
X175197352Y-108383899D01*
X175197353Y-108383897D01*
X175339696Y-108170865D01*
X175520865Y-107989696D01*
X175733897Y-107847353D01*
X175733899Y-107847352D01*
X175970607Y-107749304D01*
X176221893Y-107699320D01*
X176478107Y-107699320D01*
X176729393Y-107749304D01*
G37*
G36*
X173554393Y-107749304D02*
G01*
X173791101Y-107847352D01*
X173791103Y-107847353D01*
X174004135Y-107989696D01*
X174185304Y-108170865D01*
X174327647Y-108383897D01*
X174327648Y-108383899D01*
X174425696Y-108620607D01*
X174475680Y-108871893D01*
X174475680Y-109128107D01*
X174425696Y-109379393D01*
X174327648Y-109616101D01*
X174327647Y-109616103D01*
X174185304Y-109829135D01*
X174004135Y-110010304D01*
X173791103Y-110152647D01*
X173791102Y-110152648D01*
X173791101Y-110152648D01*
X173554393Y-110250696D01*
X173303107Y-110300680D01*
X173046893Y-110300680D01*
X172795607Y-110250696D01*
X172558899Y-110152648D01*
X172558898Y-110152648D01*
X172558897Y-110152647D01*
X172345865Y-110010304D01*
X172164696Y-109829135D01*
X172022353Y-109616103D01*
X172022352Y-109616101D01*
X171924304Y-109379393D01*
X171874320Y-109128107D01*
X171874320Y-108871893D01*
X171924304Y-108620607D01*
X172022352Y-108383899D01*
X172022353Y-108383897D01*
X172164696Y-108170865D01*
X172345865Y-107989696D01*
X172558897Y-107847353D01*
X172558899Y-107847352D01*
X172795607Y-107749304D01*
X173046893Y-107699320D01*
X173303107Y-107699320D01*
X173554393Y-107749304D01*
G37*
G36*
X171300680Y-110300680D02*
G01*
X168699320Y-110300680D01*
X168699320Y-107699320D01*
X171300680Y-107699320D01*
X171300680Y-110300680D01*
G37*
G36*
X164129393Y-107749304D02*
G01*
X164366101Y-107847352D01*
X164366103Y-107847353D01*
X164579135Y-107989696D01*
X164760304Y-108170865D01*
X164902647Y-108383897D01*
X164902648Y-108383899D01*
X165000696Y-108620607D01*
X165050680Y-108871893D01*
X165050680Y-109128107D01*
X165000696Y-109379393D01*
X164902648Y-109616101D01*
X164902647Y-109616103D01*
X164760304Y-109829135D01*
X164579135Y-110010304D01*
X164366103Y-110152647D01*
X164366102Y-110152648D01*
X164366101Y-110152648D01*
X164129393Y-110250696D01*
X163878107Y-110300680D01*
X163621893Y-110300680D01*
X163370607Y-110250696D01*
X163133899Y-110152648D01*
X163133898Y-110152648D01*
X163133897Y-110152647D01*
X162920865Y-110010304D01*
X162739696Y-109829135D01*
X162597353Y-109616103D01*
X162597352Y-109616101D01*
X162499304Y-109379393D01*
X162449320Y-109128107D01*
X162449320Y-108871893D01*
X162499304Y-108620607D01*
X162597352Y-108383899D01*
X162597353Y-108383897D01*
X162739696Y-108170865D01*
X162920865Y-107989696D01*
X163133897Y-107847353D01*
X163133899Y-107847352D01*
X163370607Y-107749304D01*
X163621893Y-107699320D01*
X163878107Y-107699320D01*
X164129393Y-107749304D01*
G37*
G36*
X160379393Y-107749304D02*
G01*
X160616101Y-107847352D01*
X160616103Y-107847353D01*
X160829135Y-107989696D01*
X161010304Y-108170865D01*
X161152647Y-108383897D01*
X161152648Y-108383899D01*
X161250696Y-108620607D01*
X161300680Y-108871893D01*
X161300680Y-109128107D01*
X161250696Y-109379393D01*
X161152648Y-109616101D01*
X161152647Y-109616103D01*
X161010304Y-109829135D01*
X160829135Y-110010304D01*
X160616103Y-110152647D01*
X160616102Y-110152648D01*
X160616101Y-110152648D01*
X160379393Y-110250696D01*
X160128107Y-110300680D01*
X159871893Y-110300680D01*
X159620607Y-110250696D01*
X159383899Y-110152648D01*
X159383898Y-110152648D01*
X159383897Y-110152647D01*
X159170865Y-110010304D01*
X158989696Y-109829135D01*
X158847353Y-109616103D01*
X158847352Y-109616101D01*
X158749304Y-109379393D01*
X158699320Y-109128107D01*
X158699320Y-108871893D01*
X158749304Y-108620607D01*
X158847352Y-108383899D01*
X158847353Y-108383897D01*
X158989696Y-108170865D01*
X159170865Y-107989696D01*
X159383897Y-107847353D01*
X159383899Y-107847352D01*
X159620607Y-107749304D01*
X159871893Y-107699320D01*
X160128107Y-107699320D01*
X160379393Y-107749304D01*
G37*
G36*
X154300680Y-105050680D02*
G01*
X151699320Y-105050680D01*
X151699320Y-102449320D01*
X154300680Y-102449320D01*
X154300680Y-105050680D01*
G37*
G36*
X190300680Y-103800680D02*
G01*
X187699320Y-103800680D01*
X187699320Y-101199320D01*
X190300680Y-101199320D01*
X190300680Y-103800680D01*
G37*
G36*
X182390483Y-100078335D02*
G01*
X182559240Y-100148236D01*
X182711118Y-100249718D01*
X182840282Y-100378882D01*
X182941764Y-100530760D01*
X183011665Y-100699517D01*
X183047300Y-100878668D01*
X183047300Y-101061332D01*
X183011665Y-101240483D01*
X182941764Y-101409240D01*
X182840282Y-101561118D01*
X182711118Y-101690282D01*
X182559240Y-101791764D01*
X182390483Y-101861665D01*
X182211332Y-101897300D01*
X182028668Y-101897300D01*
X181849517Y-101861665D01*
X181680760Y-101791764D01*
X181528882Y-101690282D01*
X181399718Y-101561118D01*
X181298236Y-101409240D01*
X181228335Y-101240483D01*
X181192700Y-101061332D01*
X181192700Y-100878668D01*
X181228335Y-100699517D01*
X181298236Y-100530760D01*
X181399718Y-100378882D01*
X181528882Y-100249718D01*
X181680760Y-100148236D01*
X181849517Y-100078335D01*
X182028668Y-100042700D01*
X182211332Y-100042700D01*
X182390483Y-100078335D01*
G37*
G36*
X167150483Y-100078335D02*
G01*
X167319240Y-100148236D01*
X167471118Y-100249718D01*
X167600282Y-100378882D01*
X167701764Y-100530760D01*
X167771665Y-100699517D01*
X167807300Y-100878668D01*
X167807300Y-101061332D01*
X167771665Y-101240483D01*
X167701764Y-101409240D01*
X167600282Y-101561118D01*
X167471118Y-101690282D01*
X167319240Y-101791764D01*
X167150483Y-101861665D01*
X166971332Y-101897300D01*
X166788668Y-101897300D01*
X166609517Y-101861665D01*
X166440760Y-101791764D01*
X166288882Y-101690282D01*
X166159718Y-101561118D01*
X166058236Y-101409240D01*
X165988335Y-101240483D01*
X165952700Y-101061332D01*
X165952700Y-100878668D01*
X165988335Y-100699517D01*
X166058236Y-100530760D01*
X166159718Y-100378882D01*
X166288882Y-100249718D01*
X166440760Y-100148236D01*
X166609517Y-100078335D01*
X166788668Y-100042700D01*
X166971332Y-100042700D01*
X167150483Y-100078335D01*
G37*
G36*
X153379393Y-98689304D02*
G01*
X153616101Y-98787352D01*
X153616103Y-98787353D01*
X153829135Y-98929696D01*
X154010304Y-99110865D01*
X154152647Y-99323897D01*
X154152648Y-99323899D01*
X154250696Y-99560607D01*
X154300680Y-99811893D01*
X154300680Y-100068107D01*
X154250696Y-100319393D01*
X154152648Y-100556101D01*
X154152647Y-100556103D01*
X154010304Y-100769135D01*
X153829135Y-100950304D01*
X153616103Y-101092647D01*
X153616102Y-101092648D01*
X153616101Y-101092648D01*
X153379393Y-101190696D01*
X153128107Y-101240680D01*
X152871893Y-101240680D01*
X152620607Y-101190696D01*
X152383899Y-101092648D01*
X152383898Y-101092648D01*
X152383897Y-101092647D01*
X152170865Y-100950304D01*
X151989696Y-100769135D01*
X151847353Y-100556103D01*
X151847352Y-100556101D01*
X151749304Y-100319393D01*
X151699320Y-100068107D01*
X151699320Y-99811893D01*
X151749304Y-99560607D01*
X151847352Y-99323899D01*
X151847353Y-99323897D01*
X151989696Y-99110865D01*
X152170865Y-98929696D01*
X152383897Y-98787353D01*
X152383899Y-98787352D01*
X152620607Y-98689304D01*
X152871893Y-98639320D01*
X153128107Y-98639320D01*
X153379393Y-98689304D01*
G37*
G36*
X189379393Y-98074304D02*
G01*
X189616101Y-98172352D01*
X189616103Y-98172353D01*
X189829135Y-98314696D01*
X190010304Y-98495865D01*
X190027320Y-98521332D01*
X190152648Y-98708899D01*
X190250696Y-98945607D01*
X190300680Y-99196893D01*
X190300680Y-99453107D01*
X190250696Y-99704393D01*
X190206167Y-99811894D01*
X190152647Y-99941103D01*
X190010304Y-100154135D01*
X189829135Y-100335304D01*
X189616103Y-100477647D01*
X189616102Y-100477648D01*
X189616101Y-100477648D01*
X189379393Y-100575696D01*
X189128107Y-100625680D01*
X188871893Y-100625680D01*
X188620607Y-100575696D01*
X188383899Y-100477648D01*
X188383898Y-100477648D01*
X188383897Y-100477647D01*
X188170865Y-100335304D01*
X187989696Y-100154135D01*
X187847353Y-99941103D01*
X187793833Y-99811894D01*
X187749304Y-99704393D01*
X187699320Y-99453107D01*
X187699320Y-99196893D01*
X187749304Y-98945607D01*
X187847352Y-98708899D01*
X187972680Y-98521332D01*
X187989696Y-98495865D01*
X188170865Y-98314696D01*
X188383897Y-98172353D01*
X188383899Y-98172352D01*
X188620607Y-98074304D01*
X188871893Y-98024320D01*
X189128107Y-98024320D01*
X189379393Y-98074304D01*
G37*
G36*
X167150483Y-97538335D02*
G01*
X167319240Y-97608236D01*
X167471118Y-97709718D01*
X167600282Y-97838882D01*
X167701764Y-97990760D01*
X167771665Y-98159517D01*
X167807300Y-98338668D01*
X167807300Y-98521332D01*
X167771665Y-98700483D01*
X167701764Y-98869240D01*
X167600282Y-99021118D01*
X167471118Y-99150282D01*
X167319240Y-99251764D01*
X167150483Y-99321665D01*
X166971332Y-99357300D01*
X166788668Y-99357300D01*
X166609517Y-99321665D01*
X166440760Y-99251764D01*
X166288882Y-99150282D01*
X166159718Y-99021118D01*
X166058236Y-98869240D01*
X165988335Y-98700483D01*
X165952700Y-98521332D01*
X165952700Y-98338668D01*
X165988335Y-98159517D01*
X166058236Y-97990760D01*
X166159718Y-97838882D01*
X166288882Y-97709718D01*
X166440760Y-97608236D01*
X166609517Y-97538335D01*
X166788668Y-97502700D01*
X166971332Y-97502700D01*
X167150483Y-97538335D01*
G37*
G36*
X182390483Y-97538335D02*
G01*
X182559240Y-97608236D01*
X182711118Y-97709718D01*
X182840282Y-97838882D01*
X182941764Y-97990760D01*
X183011665Y-98159517D01*
X183047300Y-98338668D01*
X183047300Y-98521332D01*
X183011665Y-98700483D01*
X182941764Y-98869240D01*
X182840282Y-99021118D01*
X182711118Y-99150282D01*
X182559240Y-99251764D01*
X182390483Y-99321665D01*
X182211332Y-99357300D01*
X182028668Y-99357300D01*
X181849517Y-99321665D01*
X181680760Y-99251764D01*
X181528882Y-99150282D01*
X181399718Y-99021118D01*
X181298236Y-98869240D01*
X181228335Y-98700483D01*
X181192700Y-98521332D01*
X181192700Y-98338668D01*
X181228335Y-98159517D01*
X181298236Y-97990760D01*
X181399718Y-97838882D01*
X181528882Y-97709718D01*
X181680760Y-97608236D01*
X181849517Y-97538335D01*
X182028668Y-97502700D01*
X182211332Y-97502700D01*
X182390483Y-97538335D01*
G37*
G36*
X189379393Y-94899304D02*
G01*
X189540659Y-94966103D01*
X189616103Y-94997353D01*
X189829135Y-95139696D01*
X190010304Y-95320865D01*
X190131766Y-95502647D01*
X190152648Y-95533899D01*
X190250696Y-95770607D01*
X190300680Y-96021893D01*
X190300680Y-96278107D01*
X190250696Y-96529393D01*
X190175155Y-96711764D01*
X190152647Y-96766103D01*
X190010304Y-96979135D01*
X189829135Y-97160304D01*
X189616103Y-97302647D01*
X189616102Y-97302648D01*
X189616101Y-97302648D01*
X189379393Y-97400696D01*
X189128107Y-97450680D01*
X188871893Y-97450680D01*
X188620607Y-97400696D01*
X188383899Y-97302648D01*
X188383898Y-97302648D01*
X188383897Y-97302647D01*
X188170865Y-97160304D01*
X187989696Y-96979135D01*
X187847353Y-96766103D01*
X187824845Y-96711764D01*
X187749304Y-96529393D01*
X187699320Y-96278107D01*
X187699320Y-96021893D01*
X187749304Y-95770607D01*
X187847352Y-95533899D01*
X187868234Y-95502647D01*
X187989696Y-95320865D01*
X188170865Y-95139696D01*
X188383897Y-94997353D01*
X188459341Y-94966103D01*
X188620607Y-94899304D01*
X188871893Y-94849320D01*
X189128107Y-94849320D01*
X189379393Y-94899304D01*
G37*
G36*
X167150483Y-94998335D02*
G01*
X167319240Y-95068236D01*
X167471118Y-95169718D01*
X167600282Y-95298882D01*
X167701764Y-95450760D01*
X167771665Y-95619517D01*
X167807300Y-95798668D01*
X167807300Y-95981332D01*
X167771665Y-96160483D01*
X167701764Y-96329240D01*
X167600282Y-96481118D01*
X167471118Y-96610282D01*
X167319240Y-96711764D01*
X167150483Y-96781665D01*
X166971332Y-96817300D01*
X166788668Y-96817300D01*
X166609517Y-96781665D01*
X166440760Y-96711764D01*
X166288882Y-96610282D01*
X166159718Y-96481118D01*
X166058236Y-96329240D01*
X165988335Y-96160483D01*
X165952700Y-95981332D01*
X165952700Y-95798668D01*
X165988335Y-95619517D01*
X166058236Y-95450760D01*
X166159718Y-95298882D01*
X166288882Y-95169718D01*
X166440760Y-95068236D01*
X166609517Y-94998335D01*
X166788668Y-94962700D01*
X166971332Y-94962700D01*
X167150483Y-94998335D01*
G37*
G36*
X182390483Y-94998335D02*
G01*
X182559240Y-95068236D01*
X182711118Y-95169718D01*
X182840282Y-95298882D01*
X182941764Y-95450760D01*
X183011665Y-95619517D01*
X183047300Y-95798668D01*
X183047300Y-95981332D01*
X183011665Y-96160483D01*
X182941764Y-96329240D01*
X182840282Y-96481118D01*
X182711118Y-96610282D01*
X182559240Y-96711764D01*
X182390483Y-96781665D01*
X182211332Y-96817300D01*
X182028668Y-96817300D01*
X181849517Y-96781665D01*
X181680760Y-96711764D01*
X181528882Y-96610282D01*
X181399718Y-96481118D01*
X181298236Y-96329240D01*
X181228335Y-96160483D01*
X181192700Y-95981332D01*
X181192700Y-95798668D01*
X181228335Y-95619517D01*
X181298236Y-95450760D01*
X181399718Y-95298882D01*
X181528882Y-95169718D01*
X181680760Y-95068236D01*
X181849517Y-94998335D01*
X182028668Y-94962700D01*
X182211332Y-94962700D01*
X182390483Y-94998335D01*
G37*
G36*
X160379393Y-93559304D02*
G01*
X160616101Y-93657352D01*
X160616103Y-93657353D01*
X160829135Y-93799696D01*
X161010304Y-93980865D01*
X161137858Y-94171764D01*
X161152648Y-94193899D01*
X161250696Y-94430607D01*
X161300680Y-94681893D01*
X161300680Y-94938107D01*
X161250696Y-95189393D01*
X161205344Y-95298881D01*
X161152647Y-95426103D01*
X161010304Y-95639135D01*
X160829135Y-95820304D01*
X160616103Y-95962647D01*
X160616102Y-95962648D01*
X160616101Y-95962648D01*
X160379393Y-96060696D01*
X160128107Y-96110680D01*
X159871893Y-96110680D01*
X159620607Y-96060696D01*
X159383899Y-95962648D01*
X159383898Y-95962648D01*
X159383897Y-95962647D01*
X159170865Y-95820304D01*
X158989696Y-95639135D01*
X158847353Y-95426103D01*
X158794656Y-95298881D01*
X158749304Y-95189393D01*
X158699320Y-94938107D01*
X158699320Y-94681893D01*
X158749304Y-94430607D01*
X158847352Y-94193899D01*
X158862142Y-94171764D01*
X158989696Y-93980865D01*
X159170865Y-93799696D01*
X159383897Y-93657353D01*
X159383899Y-93657352D01*
X159620607Y-93559304D01*
X159871893Y-93509320D01*
X160128107Y-93509320D01*
X160379393Y-93559304D01*
G37*
G36*
X153379393Y-93099304D02*
G01*
X153616101Y-93197352D01*
X153616103Y-93197353D01*
X153829135Y-93339696D01*
X154010304Y-93520865D01*
X154076866Y-93620483D01*
X154152648Y-93733899D01*
X154250696Y-93970607D01*
X154300680Y-94221893D01*
X154300680Y-94478107D01*
X154250696Y-94729393D01*
X154154057Y-94962700D01*
X154152647Y-94966103D01*
X154010304Y-95179135D01*
X153829135Y-95360304D01*
X153616103Y-95502647D01*
X153616102Y-95502648D01*
X153616101Y-95502648D01*
X153379393Y-95600696D01*
X153128107Y-95650680D01*
X152871893Y-95650680D01*
X152620607Y-95600696D01*
X152383899Y-95502648D01*
X152383898Y-95502648D01*
X152383897Y-95502647D01*
X152170865Y-95360304D01*
X151989696Y-95179135D01*
X151847353Y-94966103D01*
X151845943Y-94962700D01*
X151749304Y-94729393D01*
X151699320Y-94478107D01*
X151699320Y-94221893D01*
X151749304Y-93970607D01*
X151847352Y-93733899D01*
X151923134Y-93620483D01*
X151989696Y-93520865D01*
X152170865Y-93339696D01*
X152383897Y-93197353D01*
X152383899Y-93197352D01*
X152620607Y-93099304D01*
X152871893Y-93049320D01*
X153128107Y-93049320D01*
X153379393Y-93099304D01*
G37*
G36*
X182390483Y-92458335D02*
G01*
X182559240Y-92528236D01*
X182711118Y-92629718D01*
X182840282Y-92758882D01*
X182941764Y-92910760D01*
X183011665Y-93079517D01*
X183047300Y-93258668D01*
X183047300Y-93441332D01*
X183011665Y-93620483D01*
X182941764Y-93789240D01*
X182840282Y-93941118D01*
X182711118Y-94070282D01*
X182559240Y-94171764D01*
X182390483Y-94241665D01*
X182211332Y-94277300D01*
X182028668Y-94277300D01*
X181849517Y-94241665D01*
X181680760Y-94171764D01*
X181528882Y-94070282D01*
X181399718Y-93941118D01*
X181298236Y-93789240D01*
X181228335Y-93620483D01*
X181192700Y-93441332D01*
X181192700Y-93258668D01*
X181228335Y-93079517D01*
X181298236Y-92910760D01*
X181399718Y-92758882D01*
X181528882Y-92629718D01*
X181680760Y-92528236D01*
X181849517Y-92458335D01*
X182028668Y-92422700D01*
X182211332Y-92422700D01*
X182390483Y-92458335D01*
G37*
G36*
X167150483Y-92458335D02*
G01*
X167319240Y-92528236D01*
X167471118Y-92629718D01*
X167600282Y-92758882D01*
X167701764Y-92910760D01*
X167771665Y-93079517D01*
X167807300Y-93258668D01*
X167807300Y-93441332D01*
X167771665Y-93620483D01*
X167701764Y-93789240D01*
X167600282Y-93941118D01*
X167471118Y-94070282D01*
X167319240Y-94171764D01*
X167150483Y-94241665D01*
X166971332Y-94277300D01*
X166788668Y-94277300D01*
X166609517Y-94241665D01*
X166440760Y-94171764D01*
X166288882Y-94070282D01*
X166159718Y-93941118D01*
X166058236Y-93789240D01*
X165988335Y-93620483D01*
X165952700Y-93441332D01*
X165952700Y-93258668D01*
X165988335Y-93079517D01*
X166058236Y-92910760D01*
X166159718Y-92758882D01*
X166288882Y-92629718D01*
X166440760Y-92528236D01*
X166609517Y-92458335D01*
X166788668Y-92422700D01*
X166971332Y-92422700D01*
X167150483Y-92458335D01*
G37*
G36*
X190300680Y-93300680D02*
G01*
X187699320Y-93300680D01*
X187699320Y-90699320D01*
X190300680Y-90699320D01*
X190300680Y-93300680D01*
G37*
G36*
X153379393Y-89924304D02*
G01*
X153533740Y-89988237D01*
X153616103Y-90022353D01*
X153829135Y-90164696D01*
X154010304Y-90345865D01*
X154152647Y-90558897D01*
X154152648Y-90558899D01*
X154250696Y-90795607D01*
X154300680Y-91046893D01*
X154300680Y-91303107D01*
X154250696Y-91554393D01*
X154174933Y-91737300D01*
X154152647Y-91791103D01*
X154010304Y-92004135D01*
X153829135Y-92185304D01*
X153616103Y-92327647D01*
X153616102Y-92327648D01*
X153616101Y-92327648D01*
X153379393Y-92425696D01*
X153128107Y-92475680D01*
X152871893Y-92475680D01*
X152620607Y-92425696D01*
X152383899Y-92327648D01*
X152383898Y-92327648D01*
X152383897Y-92327647D01*
X152170865Y-92185304D01*
X151989696Y-92004135D01*
X151847353Y-91791103D01*
X151825067Y-91737300D01*
X151749304Y-91554393D01*
X151699320Y-91303107D01*
X151699320Y-91046893D01*
X151749304Y-90795607D01*
X151847352Y-90558899D01*
X151847353Y-90558897D01*
X151989696Y-90345865D01*
X152170865Y-90164696D01*
X152383897Y-90022353D01*
X152466260Y-89988237D01*
X152620607Y-89924304D01*
X152871893Y-89874320D01*
X153128107Y-89874320D01*
X153379393Y-89924304D01*
G37*
G36*
X161300680Y-92300680D02*
G01*
X158699320Y-92300680D01*
X158699320Y-89699320D01*
X161300680Y-89699320D01*
X161300680Y-92300680D01*
G37*
G36*
X167150483Y-89918335D02*
G01*
X167319240Y-89988236D01*
X167471118Y-90089718D01*
X167600282Y-90218882D01*
X167701764Y-90370760D01*
X167771665Y-90539517D01*
X167807300Y-90718668D01*
X167807300Y-90901332D01*
X167771665Y-91080483D01*
X167701764Y-91249240D01*
X167600282Y-91401118D01*
X167471118Y-91530282D01*
X167319240Y-91631764D01*
X167150483Y-91701665D01*
X166971332Y-91737300D01*
X166788668Y-91737300D01*
X166609517Y-91701665D01*
X166440760Y-91631764D01*
X166288882Y-91530282D01*
X166159718Y-91401118D01*
X166058236Y-91249240D01*
X165988335Y-91080483D01*
X165952700Y-90901332D01*
X165952700Y-90718668D01*
X165988335Y-90539517D01*
X166058236Y-90370760D01*
X166159718Y-90218882D01*
X166288882Y-90089718D01*
X166440760Y-89988236D01*
X166609517Y-89918335D01*
X166788668Y-89882700D01*
X166971332Y-89882700D01*
X167150483Y-89918335D01*
G37*
G36*
X182390483Y-89918335D02*
G01*
X182559240Y-89988236D01*
X182711118Y-90089718D01*
X182840282Y-90218882D01*
X182941764Y-90370760D01*
X183011665Y-90539517D01*
X183047300Y-90718668D01*
X183047300Y-90901332D01*
X183011665Y-91080483D01*
X182941764Y-91249240D01*
X182840282Y-91401118D01*
X182711118Y-91530282D01*
X182559240Y-91631764D01*
X182390483Y-91701665D01*
X182211332Y-91737300D01*
X182028668Y-91737300D01*
X181849517Y-91701665D01*
X181680760Y-91631764D01*
X181528882Y-91530282D01*
X181399718Y-91401118D01*
X181298236Y-91249240D01*
X181228335Y-91080483D01*
X181192700Y-90901332D01*
X181192700Y-90718668D01*
X181228335Y-90539517D01*
X181298236Y-90370760D01*
X181399718Y-90218882D01*
X181528882Y-90089718D01*
X181680760Y-89988236D01*
X181849517Y-89918335D01*
X182028668Y-89882700D01*
X182211332Y-89882700D01*
X182390483Y-89918335D01*
G37*
G36*
X189379393Y-87574304D02*
G01*
X189535908Y-87639135D01*
X189616103Y-87672353D01*
X189829135Y-87814696D01*
X190010304Y-87995865D01*
X190132449Y-88178669D01*
X190152648Y-88208899D01*
X190250696Y-88445607D01*
X190300680Y-88696893D01*
X190300680Y-88953107D01*
X190250696Y-89204393D01*
X190210812Y-89300680D01*
X190152647Y-89441103D01*
X190010304Y-89654135D01*
X189829135Y-89835304D01*
X189616103Y-89977647D01*
X189616102Y-89977648D01*
X189616101Y-89977648D01*
X189379393Y-90075696D01*
X189128107Y-90125680D01*
X188871893Y-90125680D01*
X188620607Y-90075696D01*
X188383899Y-89977648D01*
X188383898Y-89977648D01*
X188383897Y-89977647D01*
X188170865Y-89835304D01*
X187989696Y-89654135D01*
X187847353Y-89441103D01*
X187789188Y-89300680D01*
X187749304Y-89204393D01*
X187699320Y-88953107D01*
X187699320Y-88696893D01*
X187749304Y-88445607D01*
X187847352Y-88208899D01*
X187867551Y-88178669D01*
X187989696Y-87995865D01*
X188170865Y-87814696D01*
X188383897Y-87672353D01*
X188464092Y-87639135D01*
X188620607Y-87574304D01*
X188871893Y-87524320D01*
X189128107Y-87524320D01*
X189379393Y-87574304D01*
G37*
G36*
X154300680Y-89300680D02*
G01*
X151699320Y-89300680D01*
X151699320Y-86699320D01*
X154300680Y-86699320D01*
X154300680Y-89300680D01*
G37*
G36*
X167150483Y-87378335D02*
G01*
X167319240Y-87448236D01*
X167471118Y-87549718D01*
X167600282Y-87678882D01*
X167701764Y-87830760D01*
X167771665Y-87999517D01*
X167807300Y-88178668D01*
X167807300Y-88361332D01*
X167771665Y-88540483D01*
X167701764Y-88709240D01*
X167600282Y-88861118D01*
X167471118Y-88990282D01*
X167319240Y-89091764D01*
X167150483Y-89161665D01*
X166971332Y-89197300D01*
X166788668Y-89197300D01*
X166609517Y-89161665D01*
X166440760Y-89091764D01*
X166288882Y-88990282D01*
X166159718Y-88861118D01*
X166058236Y-88709240D01*
X165988335Y-88540483D01*
X165952700Y-88361332D01*
X165952700Y-88178668D01*
X165988335Y-87999517D01*
X166058236Y-87830760D01*
X166159718Y-87678882D01*
X166288882Y-87549718D01*
X166440760Y-87448236D01*
X166609517Y-87378335D01*
X166788668Y-87342700D01*
X166971332Y-87342700D01*
X167150483Y-87378335D01*
G37*
G36*
X182390483Y-87378335D02*
G01*
X182559240Y-87448236D01*
X182711118Y-87549718D01*
X182840282Y-87678882D01*
X182941764Y-87830760D01*
X183011665Y-87999517D01*
X183047300Y-88178668D01*
X183047300Y-88361332D01*
X183011665Y-88540483D01*
X182941764Y-88709240D01*
X182840282Y-88861118D01*
X182711118Y-88990282D01*
X182559240Y-89091764D01*
X182390483Y-89161665D01*
X182211332Y-89197300D01*
X182028668Y-89197300D01*
X181849517Y-89161665D01*
X181680760Y-89091764D01*
X181528882Y-88990282D01*
X181399718Y-88861118D01*
X181298236Y-88709240D01*
X181228335Y-88540483D01*
X181192700Y-88361332D01*
X181192700Y-88178668D01*
X181228335Y-87999517D01*
X181298236Y-87830760D01*
X181399718Y-87678882D01*
X181528882Y-87549718D01*
X181680760Y-87448236D01*
X181849517Y-87378335D01*
X182028668Y-87342700D01*
X182211332Y-87342700D01*
X182390483Y-87378335D01*
G37*
G36*
X160379393Y-85559304D02*
G01*
X160570996Y-85638669D01*
X160616103Y-85657353D01*
X160829135Y-85799696D01*
X161010304Y-85980865D01*
X161136172Y-86169241D01*
X161152648Y-86193899D01*
X161250696Y-86430607D01*
X161300680Y-86681893D01*
X161300680Y-86938107D01*
X161250696Y-87189393D01*
X161187194Y-87342700D01*
X161152647Y-87426103D01*
X161010304Y-87639135D01*
X160829135Y-87820304D01*
X160616103Y-87962647D01*
X160616102Y-87962648D01*
X160616101Y-87962648D01*
X160379393Y-88060696D01*
X160128107Y-88110680D01*
X159871893Y-88110680D01*
X159620607Y-88060696D01*
X159383899Y-87962648D01*
X159383898Y-87962648D01*
X159383897Y-87962647D01*
X159170865Y-87820304D01*
X158989696Y-87639135D01*
X158847353Y-87426103D01*
X158812806Y-87342700D01*
X158749304Y-87189393D01*
X158699320Y-86938107D01*
X158699320Y-86681893D01*
X158749304Y-86430607D01*
X158847352Y-86193899D01*
X158863828Y-86169241D01*
X158989696Y-85980865D01*
X159170865Y-85799696D01*
X159383897Y-85657353D01*
X159429004Y-85638669D01*
X159620607Y-85559304D01*
X159871893Y-85509320D01*
X160128107Y-85509320D01*
X160379393Y-85559304D01*
G37*
G36*
X189379393Y-84399304D02*
G01*
X189616101Y-84497352D01*
X189616103Y-84497353D01*
X189829135Y-84639696D01*
X190010304Y-84820865D01*
X190152647Y-85033897D01*
X190152648Y-85033899D01*
X190250696Y-85270607D01*
X190300680Y-85521893D01*
X190300680Y-85778107D01*
X190250696Y-86029393D01*
X190192769Y-86169240D01*
X190152647Y-86266103D01*
X190010304Y-86479135D01*
X189829135Y-86660304D01*
X189616103Y-86802647D01*
X189616102Y-86802648D01*
X189616101Y-86802648D01*
X189379393Y-86900696D01*
X189128107Y-86950680D01*
X188871893Y-86950680D01*
X188620607Y-86900696D01*
X188383899Y-86802648D01*
X188383898Y-86802648D01*
X188383897Y-86802647D01*
X188170865Y-86660304D01*
X187989696Y-86479135D01*
X187847353Y-86266103D01*
X187807231Y-86169240D01*
X187749304Y-86029393D01*
X187699320Y-85778107D01*
X187699320Y-85521893D01*
X187749304Y-85270607D01*
X187847352Y-85033899D01*
X187847353Y-85033897D01*
X187989696Y-84820865D01*
X188170865Y-84639696D01*
X188383897Y-84497353D01*
X188383899Y-84497352D01*
X188620607Y-84399304D01*
X188871893Y-84349320D01*
X189128107Y-84349320D01*
X189379393Y-84399304D01*
G37*
G36*
X182390483Y-84838335D02*
G01*
X182559240Y-84908236D01*
X182711118Y-85009718D01*
X182840282Y-85138882D01*
X182941764Y-85290760D01*
X183011665Y-85459517D01*
X183047300Y-85638668D01*
X183047300Y-85821332D01*
X183011665Y-86000483D01*
X182941764Y-86169240D01*
X182840282Y-86321118D01*
X182711118Y-86450282D01*
X182559240Y-86551764D01*
X182390483Y-86621665D01*
X182211332Y-86657300D01*
X182028668Y-86657300D01*
X181849517Y-86621665D01*
X181680760Y-86551764D01*
X181528882Y-86450282D01*
X181399718Y-86321118D01*
X181298236Y-86169240D01*
X181228335Y-86000483D01*
X181192700Y-85821332D01*
X181192700Y-85638668D01*
X181228335Y-85459517D01*
X181298236Y-85290760D01*
X181399718Y-85138882D01*
X181528882Y-85009718D01*
X181680760Y-84908236D01*
X181849517Y-84838335D01*
X182028668Y-84802700D01*
X182211332Y-84802700D01*
X182390483Y-84838335D01*
G37*
G36*
X167150483Y-84838335D02*
G01*
X167319240Y-84908236D01*
X167471118Y-85009718D01*
X167600282Y-85138882D01*
X167701764Y-85290760D01*
X167771665Y-85459517D01*
X167807300Y-85638668D01*
X167807300Y-85821332D01*
X167771665Y-86000483D01*
X167701764Y-86169240D01*
X167600282Y-86321118D01*
X167471118Y-86450282D01*
X167319240Y-86551764D01*
X167150483Y-86621665D01*
X166971332Y-86657300D01*
X166788668Y-86657300D01*
X166609517Y-86621665D01*
X166440760Y-86551764D01*
X166288882Y-86450282D01*
X166159718Y-86321118D01*
X166058236Y-86169240D01*
X165988335Y-86000483D01*
X165952700Y-85821332D01*
X165952700Y-85638668D01*
X165988335Y-85459517D01*
X166058236Y-85290760D01*
X166159718Y-85138882D01*
X166288882Y-85009718D01*
X166440760Y-84908236D01*
X166609517Y-84838335D01*
X166788668Y-84802700D01*
X166971332Y-84802700D01*
X167150483Y-84838335D01*
G37*
G36*
X161300680Y-84300680D02*
G01*
X158699320Y-84300680D01*
X158699320Y-81699320D01*
X161300680Y-81699320D01*
X161300680Y-84300680D01*
G37*
G36*
X182390483Y-82298335D02*
G01*
X182559240Y-82368236D01*
X182711118Y-82469718D01*
X182840282Y-82598882D01*
X182941764Y-82750760D01*
X183011665Y-82919517D01*
X183047300Y-83098668D01*
X183047300Y-83281332D01*
X183011665Y-83460483D01*
X182941764Y-83629240D01*
X182840282Y-83781118D01*
X182711118Y-83910282D01*
X182559240Y-84011764D01*
X182390483Y-84081665D01*
X182211332Y-84117300D01*
X182028668Y-84117300D01*
X181849517Y-84081665D01*
X181680760Y-84011764D01*
X181528882Y-83910282D01*
X181399718Y-83781118D01*
X181298236Y-83629240D01*
X181228335Y-83460483D01*
X181192700Y-83281332D01*
X181192700Y-83098668D01*
X181228335Y-82919517D01*
X181298236Y-82750760D01*
X181399718Y-82598882D01*
X181528882Y-82469718D01*
X181680760Y-82368236D01*
X181849517Y-82298335D01*
X182028668Y-82262700D01*
X182211332Y-82262700D01*
X182390483Y-82298335D01*
G37*
G36*
X167150483Y-82298335D02*
G01*
X167319240Y-82368236D01*
X167471118Y-82469718D01*
X167600282Y-82598882D01*
X167701764Y-82750760D01*
X167771665Y-82919517D01*
X167807300Y-83098668D01*
X167807300Y-83281332D01*
X167771665Y-83460483D01*
X167701764Y-83629240D01*
X167600282Y-83781118D01*
X167471118Y-83910282D01*
X167319240Y-84011764D01*
X167150483Y-84081665D01*
X166971332Y-84117300D01*
X166788668Y-84117300D01*
X166609517Y-84081665D01*
X166440760Y-84011764D01*
X166288882Y-83910282D01*
X166159718Y-83781118D01*
X166058236Y-83629240D01*
X165988335Y-83460483D01*
X165952700Y-83281332D01*
X165952700Y-83098668D01*
X165988335Y-82919517D01*
X166058236Y-82750760D01*
X166159718Y-82598882D01*
X166288882Y-82469718D01*
X166440760Y-82368236D01*
X166609517Y-82298335D01*
X166788668Y-82262700D01*
X166971332Y-82262700D01*
X167150483Y-82298335D01*
G37*
G36*
X153379393Y-81099304D02*
G01*
X153616101Y-81197352D01*
X153616103Y-81197353D01*
X153829135Y-81339696D01*
X154010304Y-81520865D01*
X154129543Y-81699320D01*
X154152648Y-81733899D01*
X154250696Y-81970607D01*
X154300680Y-82221893D01*
X154300680Y-82478107D01*
X154250696Y-82729393D01*
X154241845Y-82750760D01*
X154152647Y-82966103D01*
X154010304Y-83179135D01*
X153829135Y-83360304D01*
X153616103Y-83502647D01*
X153616102Y-83502648D01*
X153616101Y-83502648D01*
X153379393Y-83600696D01*
X153128107Y-83650680D01*
X152871893Y-83650680D01*
X152620607Y-83600696D01*
X152383899Y-83502648D01*
X152383898Y-83502648D01*
X152383897Y-83502647D01*
X152170865Y-83360304D01*
X151989696Y-83179135D01*
X151847353Y-82966103D01*
X151758155Y-82750760D01*
X151749304Y-82729393D01*
X151699320Y-82478107D01*
X151699320Y-82221893D01*
X151749304Y-81970607D01*
X151847352Y-81733899D01*
X151870457Y-81699320D01*
X151989696Y-81520865D01*
X152170865Y-81339696D01*
X152383897Y-81197353D01*
X152383899Y-81197352D01*
X152620607Y-81099304D01*
X152871893Y-81049320D01*
X153128107Y-81049320D01*
X153379393Y-81099304D01*
G37*
G36*
X190300680Y-82725680D02*
G01*
X187699320Y-82725680D01*
X187699320Y-80124320D01*
X190300680Y-80124320D01*
X190300680Y-82725680D01*
G37*
G36*
X182390483Y-79758335D02*
G01*
X182559240Y-79828236D01*
X182711118Y-79929718D01*
X182840282Y-80058882D01*
X182941764Y-80210760D01*
X183011665Y-80379517D01*
X183047300Y-80558668D01*
X183047300Y-80741332D01*
X183011665Y-80920483D01*
X182941764Y-81089240D01*
X182840282Y-81241118D01*
X182711118Y-81370282D01*
X182559240Y-81471764D01*
X182390483Y-81541665D01*
X182211332Y-81577300D01*
X182028668Y-81577300D01*
X181849517Y-81541665D01*
X181680760Y-81471764D01*
X181528882Y-81370282D01*
X181399718Y-81241118D01*
X181298236Y-81089240D01*
X181228335Y-80920483D01*
X181192700Y-80741332D01*
X181192700Y-80558668D01*
X181228335Y-80379517D01*
X181298236Y-80210760D01*
X181399718Y-80058882D01*
X181528882Y-79929718D01*
X181680760Y-79828236D01*
X181849517Y-79758335D01*
X182028668Y-79722700D01*
X182211332Y-79722700D01*
X182390483Y-79758335D01*
G37*
G36*
X167150483Y-79758335D02*
G01*
X167319240Y-79828236D01*
X167471118Y-79929718D01*
X167600282Y-80058882D01*
X167701764Y-80210760D01*
X167771665Y-80379517D01*
X167807300Y-80558668D01*
X167807300Y-80741332D01*
X167771665Y-80920483D01*
X167701764Y-81089240D01*
X167600282Y-81241118D01*
X167471118Y-81370282D01*
X167319240Y-81471764D01*
X167150483Y-81541665D01*
X166971332Y-81577300D01*
X166788668Y-81577300D01*
X166609517Y-81541665D01*
X166440760Y-81471764D01*
X166288882Y-81370282D01*
X166159718Y-81241118D01*
X166058236Y-81089240D01*
X165988335Y-80920483D01*
X165952700Y-80741332D01*
X165952700Y-80558668D01*
X165988335Y-80379517D01*
X166058236Y-80210760D01*
X166159718Y-80058882D01*
X166288882Y-79929718D01*
X166440760Y-79828236D01*
X166609517Y-79758335D01*
X166788668Y-79722700D01*
X166971332Y-79722700D01*
X167150483Y-79758335D01*
G37*
G36*
X153379393Y-77924304D02*
G01*
X153607207Y-78018668D01*
X153616103Y-78022353D01*
X153829135Y-78164696D01*
X154010304Y-78345865D01*
X154146194Y-78549240D01*
X154152648Y-78558899D01*
X154250696Y-78795607D01*
X154300680Y-79046893D01*
X154300680Y-79303107D01*
X154250696Y-79554393D01*
X154166220Y-79758335D01*
X154152647Y-79791103D01*
X154010304Y-80004135D01*
X153829135Y-80185304D01*
X153616103Y-80327647D01*
X153616102Y-80327648D01*
X153616101Y-80327648D01*
X153379393Y-80425696D01*
X153128107Y-80475680D01*
X152871893Y-80475680D01*
X152620607Y-80425696D01*
X152383899Y-80327648D01*
X152383898Y-80327648D01*
X152383897Y-80327647D01*
X152170865Y-80185304D01*
X151989696Y-80004135D01*
X151847353Y-79791103D01*
X151833780Y-79758335D01*
X151749304Y-79554393D01*
X151699320Y-79303107D01*
X151699320Y-79046893D01*
X151749304Y-78795607D01*
X151847352Y-78558899D01*
X151853806Y-78549240D01*
X151989696Y-78345865D01*
X152170865Y-78164696D01*
X152383897Y-78022353D01*
X152392793Y-78018668D01*
X152620607Y-77924304D01*
X152871893Y-77874320D01*
X153128107Y-77874320D01*
X153379393Y-77924304D01*
G37*
G36*
X160379393Y-77559304D02*
G01*
X160616101Y-77657352D01*
X160616103Y-77657353D01*
X160829135Y-77799696D01*
X161010304Y-77980865D01*
X161152647Y-78193897D01*
X161152648Y-78193899D01*
X161250696Y-78430607D01*
X161300680Y-78681893D01*
X161300680Y-78938107D01*
X161250696Y-79189393D01*
X161152648Y-79426101D01*
X161152647Y-79426103D01*
X161010304Y-79639135D01*
X160829135Y-79820304D01*
X160616103Y-79962647D01*
X160616102Y-79962648D01*
X160616101Y-79962648D01*
X160379393Y-80060696D01*
X160128107Y-80110680D01*
X159871893Y-80110680D01*
X159620607Y-80060696D01*
X159383899Y-79962648D01*
X159383898Y-79962648D01*
X159383897Y-79962647D01*
X159170865Y-79820304D01*
X158989696Y-79639135D01*
X158847353Y-79426103D01*
X158847352Y-79426101D01*
X158749304Y-79189393D01*
X158699320Y-78938107D01*
X158699320Y-78681893D01*
X158749304Y-78430607D01*
X158847352Y-78193899D01*
X158847353Y-78193897D01*
X158989696Y-77980865D01*
X159170865Y-77799696D01*
X159383897Y-77657353D01*
X159383899Y-77657352D01*
X159620607Y-77559304D01*
X159871893Y-77509320D01*
X160128107Y-77509320D01*
X160379393Y-77559304D01*
G37*
G36*
X189379393Y-76999304D02*
G01*
X189616101Y-77097352D01*
X189616103Y-77097353D01*
X189829135Y-77239696D01*
X190010304Y-77420865D01*
X190102806Y-77559305D01*
X190152648Y-77633899D01*
X190250696Y-77870607D01*
X190300680Y-78121893D01*
X190300680Y-78378107D01*
X190250696Y-78629393D01*
X190167485Y-78830281D01*
X190152647Y-78866103D01*
X190010304Y-79079135D01*
X189829135Y-79260304D01*
X189616103Y-79402647D01*
X189616102Y-79402648D01*
X189616101Y-79402648D01*
X189379393Y-79500696D01*
X189128107Y-79550680D01*
X188871893Y-79550680D01*
X188620607Y-79500696D01*
X188383899Y-79402648D01*
X188383898Y-79402648D01*
X188383897Y-79402647D01*
X188170865Y-79260304D01*
X187989696Y-79079135D01*
X187847353Y-78866103D01*
X187832515Y-78830281D01*
X187749304Y-78629393D01*
X187699320Y-78378107D01*
X187699320Y-78121893D01*
X187749304Y-77870607D01*
X187847352Y-77633899D01*
X187897194Y-77559305D01*
X187989696Y-77420865D01*
X188170865Y-77239696D01*
X188383897Y-77097353D01*
X188383899Y-77097352D01*
X188620607Y-76999304D01*
X188871893Y-76949320D01*
X189128107Y-76949320D01*
X189379393Y-76999304D01*
G37*
G36*
X167150483Y-77218335D02*
G01*
X167319240Y-77288236D01*
X167471118Y-77389718D01*
X167600282Y-77518882D01*
X167701764Y-77670760D01*
X167771665Y-77839517D01*
X167807300Y-78018668D01*
X167807300Y-78201332D01*
X167771665Y-78380483D01*
X167701764Y-78549240D01*
X167600282Y-78701118D01*
X167471118Y-78830282D01*
X167319240Y-78931764D01*
X167150483Y-79001665D01*
X166971332Y-79037300D01*
X166788668Y-79037300D01*
X166609517Y-79001665D01*
X166440760Y-78931764D01*
X166288882Y-78830282D01*
X166159718Y-78701118D01*
X166058236Y-78549240D01*
X165988335Y-78380483D01*
X165952700Y-78201332D01*
X165952700Y-78018668D01*
X165988335Y-77839517D01*
X166058236Y-77670760D01*
X166159718Y-77518882D01*
X166288882Y-77389718D01*
X166440760Y-77288236D01*
X166609517Y-77218335D01*
X166788668Y-77182700D01*
X166971332Y-77182700D01*
X167150483Y-77218335D01*
G37*
G36*
X182390483Y-77218335D02*
G01*
X182559240Y-77288236D01*
X182711118Y-77389718D01*
X182840282Y-77518882D01*
X182941764Y-77670760D01*
X183011665Y-77839517D01*
X183047300Y-78018668D01*
X183047300Y-78201332D01*
X183011665Y-78380483D01*
X182941764Y-78549240D01*
X182840282Y-78701118D01*
X182711118Y-78830282D01*
X182559240Y-78931764D01*
X182390483Y-79001665D01*
X182211332Y-79037300D01*
X182028668Y-79037300D01*
X181849517Y-79001665D01*
X181680760Y-78931764D01*
X181528882Y-78830282D01*
X181399718Y-78701118D01*
X181298236Y-78549240D01*
X181228335Y-78380483D01*
X181192700Y-78201332D01*
X181192700Y-78018668D01*
X181228335Y-77839517D01*
X181298236Y-77670760D01*
X181399718Y-77518882D01*
X181528882Y-77389718D01*
X181680760Y-77288236D01*
X181849517Y-77218335D01*
X182028668Y-77182700D01*
X182211332Y-77182700D01*
X182390483Y-77218335D01*
G37*
G36*
X154300680Y-77300680D02*
G01*
X151699320Y-77300680D01*
X151699320Y-74699320D01*
X154300680Y-74699320D01*
X154300680Y-77300680D01*
G37*
G36*
X182390483Y-74678335D02*
G01*
X182559240Y-74748236D01*
X182711118Y-74849718D01*
X182840282Y-74978882D01*
X182941764Y-75130760D01*
X183011665Y-75299517D01*
X183047300Y-75478668D01*
X183047300Y-75661332D01*
X183011665Y-75840483D01*
X182941764Y-76009240D01*
X182840282Y-76161118D01*
X182711118Y-76290282D01*
X182559240Y-76391764D01*
X182390483Y-76461665D01*
X182211332Y-76497300D01*
X182028668Y-76497300D01*
X181849517Y-76461665D01*
X181680760Y-76391764D01*
X181528882Y-76290282D01*
X181399718Y-76161118D01*
X181298236Y-76009240D01*
X181228335Y-75840483D01*
X181192700Y-75661332D01*
X181192700Y-75478668D01*
X181228335Y-75299517D01*
X181298236Y-75130760D01*
X181399718Y-74978882D01*
X181528882Y-74849718D01*
X181680760Y-74748236D01*
X181849517Y-74678335D01*
X182028668Y-74642700D01*
X182211332Y-74642700D01*
X182390483Y-74678335D01*
G37*
G36*
X167150483Y-74678335D02*
G01*
X167319240Y-74748236D01*
X167471118Y-74849718D01*
X167600282Y-74978882D01*
X167701764Y-75130760D01*
X167771665Y-75299517D01*
X167807300Y-75478668D01*
X167807300Y-75661332D01*
X167771665Y-75840483D01*
X167701764Y-76009240D01*
X167600282Y-76161118D01*
X167471118Y-76290282D01*
X167319240Y-76391764D01*
X167150483Y-76461665D01*
X166971332Y-76497300D01*
X166788668Y-76497300D01*
X166609517Y-76461665D01*
X166440760Y-76391764D01*
X166288882Y-76290282D01*
X166159718Y-76161118D01*
X166058236Y-76009240D01*
X165988335Y-75840483D01*
X165952700Y-75661332D01*
X165952700Y-75478668D01*
X165988335Y-75299517D01*
X166058236Y-75130760D01*
X166159718Y-74978882D01*
X166288882Y-74849718D01*
X166440760Y-74748236D01*
X166609517Y-74678335D01*
X166788668Y-74642700D01*
X166971332Y-74642700D01*
X167150483Y-74678335D01*
G37*
G36*
X189379393Y-73824304D02*
G01*
X189614442Y-73921665D01*
X189616103Y-73922353D01*
X189829135Y-74064696D01*
X190010304Y-74245865D01*
X190152647Y-74458897D01*
X190152648Y-74458899D01*
X190250696Y-74695607D01*
X190300680Y-74946893D01*
X190300680Y-75203107D01*
X190250696Y-75454393D01*
X190164979Y-75661331D01*
X190152647Y-75691103D01*
X190010304Y-75904135D01*
X189829135Y-76085304D01*
X189616103Y-76227647D01*
X189616102Y-76227648D01*
X189616101Y-76227648D01*
X189379393Y-76325696D01*
X189128107Y-76375680D01*
X188871893Y-76375680D01*
X188620607Y-76325696D01*
X188383899Y-76227648D01*
X188383898Y-76227648D01*
X188383897Y-76227647D01*
X188170865Y-76085304D01*
X187989696Y-75904135D01*
X187847353Y-75691103D01*
X187835021Y-75661331D01*
X187749304Y-75454393D01*
X187699320Y-75203107D01*
X187699320Y-74946893D01*
X187749304Y-74695607D01*
X187847352Y-74458899D01*
X187847353Y-74458897D01*
X187989696Y-74245865D01*
X188170865Y-74064696D01*
X188383897Y-73922353D01*
X188385558Y-73921665D01*
X188620607Y-73824304D01*
X188871893Y-73774320D01*
X189128107Y-73774320D01*
X189379393Y-73824304D01*
G37*
G36*
X161300680Y-76300680D02*
G01*
X158699320Y-76300680D01*
X158699320Y-73699320D01*
X161300680Y-73699320D01*
X161300680Y-76300680D01*
G37*
G36*
X167807300Y-73957300D02*
G01*
X165952700Y-73957300D01*
X165952700Y-72102700D01*
X167807300Y-72102700D01*
X167807300Y-73957300D01*
G37*
G36*
X182390483Y-72138335D02*
G01*
X182559240Y-72208236D01*
X182711118Y-72309718D01*
X182840282Y-72438882D01*
X182941764Y-72590760D01*
X183011665Y-72759517D01*
X183047300Y-72938668D01*
X183047300Y-73121332D01*
X183011665Y-73300483D01*
X182941764Y-73469240D01*
X182840282Y-73621118D01*
X182711118Y-73750282D01*
X182559240Y-73851764D01*
X182390483Y-73921665D01*
X182211332Y-73957300D01*
X182028668Y-73957300D01*
X181849517Y-73921665D01*
X181680760Y-73851764D01*
X181528882Y-73750282D01*
X181399718Y-73621118D01*
X181298236Y-73469240D01*
X181228335Y-73300483D01*
X181192700Y-73121332D01*
X181192700Y-72938668D01*
X181228335Y-72759517D01*
X181298236Y-72590760D01*
X181399718Y-72438882D01*
X181528882Y-72309718D01*
X181680760Y-72208236D01*
X181849517Y-72138335D01*
X182028668Y-72102700D01*
X182211332Y-72102700D01*
X182390483Y-72138335D01*
G37*
M02*
