M48
INCH
T1C0.0394
T2C0.0430
%
G90
G05
T1
X6.4469Y-4.2224
X6.7717Y-4.2224
X7.0965Y-4.2224
X6.9488Y-4.2224
X7.4409Y-2.8868
X7.4409Y-3.0118
X7.4409Y-3.1368
X6.6437Y-4.4783
X6.7937Y-4.4783
X6.2992Y-4.2224
X7.4409Y-3.7165
X7.4409Y-3.8415
X7.4409Y-3.9665
X6.2992Y-3.5827
X6.2992Y-3.7077
X6.2992Y-3.8327
X6.9587Y-4.4783
X7.1087Y-4.4783
X6.3287Y-4.4783
X6.4787Y-4.4783
X6.624Y-4.2224
X7.4409Y-3.3031
X7.4409Y-3.4281
X7.4409Y-3.5531
X7.2736Y-4.4783
X7.4236Y-4.4783
X7.2933Y-4.2224
X7.4433Y-4.2224
X6.2992Y-3.1102
X6.2992Y-3.2352
X6.2992Y-3.3602
T2
X6.5701Y-2.8752
X6.5701Y-2.9752
X6.5701Y-3.0752
X6.5701Y-3.1752
X6.5701Y-3.2752
X6.5701Y-3.3752
X6.5701Y-3.4752
X6.5701Y-3.5752
X6.5701Y-3.6752
X6.5701Y-3.7752
X6.5701Y-3.8752
X6.5701Y-3.9752
X7.1701Y-2.8752
X7.1701Y-2.9752
X7.1701Y-3.0752
X7.1701Y-3.1752
X7.1701Y-3.2752
X7.1701Y-3.3752
X7.1701Y-3.4752
X7.1701Y-3.5752
X7.1701Y-3.6752
X7.1701Y-3.7752
X7.1701Y-3.8752
X7.1701Y-3.9752
T0
M30
