G04 #@! TF.GenerationSoftware,KiCad,Pcbnew,(5.1.5-0-10_14)*
G04 #@! TF.CreationDate,2020-12-13T15:36:32+01:00*
G04 #@! TF.ProjectId,pro_micro_shield,70726f5f-6d69-4637-926f-5f736869656c,rev?*
G04 #@! TF.SameCoordinates,Original*
G04 #@! TF.FileFunction,Soldermask,Bot*
G04 #@! TF.FilePolarity,Negative*
%FSLAX46Y46*%
G04 Gerber Fmt 4.6, Leading zero omitted, Abs format (unit mm)*
G04 Created by KiCad (PCBNEW (5.1.5-0-10_14)) date 2020-12-13 15:36:32*
%MOMM*%
%LPD*%
G04 APERTURE LIST*
%ADD10C,0.100000*%
G04 APERTURE END LIST*
D10*
G36*
X160498228Y-113801703D02*
G01*
X160653100Y-113865853D01*
X160792481Y-113958985D01*
X160911015Y-114077519D01*
X161004147Y-114216900D01*
X161068297Y-114371772D01*
X161101000Y-114536184D01*
X161101000Y-114703816D01*
X161068297Y-114868228D01*
X161004147Y-115023100D01*
X160911015Y-115162481D01*
X160792481Y-115281015D01*
X160653100Y-115374147D01*
X160498228Y-115438297D01*
X160333816Y-115471000D01*
X160166184Y-115471000D01*
X160001772Y-115438297D01*
X159846900Y-115374147D01*
X159707519Y-115281015D01*
X159588985Y-115162481D01*
X159495853Y-115023100D01*
X159431703Y-114868228D01*
X159399000Y-114703816D01*
X159399000Y-114536184D01*
X159431703Y-114371772D01*
X159495853Y-114216900D01*
X159588985Y-114077519D01*
X159707519Y-113958985D01*
X159846900Y-113865853D01*
X160001772Y-113801703D01*
X160166184Y-113769000D01*
X160333816Y-113769000D01*
X160498228Y-113801703D01*
G37*
G36*
X180554393Y-112249304D02*
G01*
X180791101Y-112347352D01*
X180791103Y-112347353D01*
X181004135Y-112489696D01*
X181185304Y-112670865D01*
X181327647Y-112883897D01*
X181327648Y-112883899D01*
X181425696Y-113120607D01*
X181475680Y-113371893D01*
X181475680Y-113628107D01*
X181425696Y-113879393D01*
X181343629Y-114077519D01*
X181327647Y-114116103D01*
X181185304Y-114329135D01*
X181004135Y-114510304D01*
X180791103Y-114652647D01*
X180791102Y-114652648D01*
X180791101Y-114652648D01*
X180554393Y-114750696D01*
X180303107Y-114800680D01*
X180046893Y-114800680D01*
X179795607Y-114750696D01*
X179558899Y-114652648D01*
X179558898Y-114652648D01*
X179558897Y-114652647D01*
X179345865Y-114510304D01*
X179164696Y-114329135D01*
X179022353Y-114116103D01*
X179006371Y-114077519D01*
X178924304Y-113879393D01*
X178874320Y-113628107D01*
X178874320Y-113371893D01*
X178924304Y-113120607D01*
X179022352Y-112883899D01*
X179022353Y-112883897D01*
X179164696Y-112670865D01*
X179345865Y-112489696D01*
X179558897Y-112347353D01*
X179558899Y-112347352D01*
X179795607Y-112249304D01*
X180046893Y-112199320D01*
X180303107Y-112199320D01*
X180554393Y-112249304D01*
G37*
G36*
X178300680Y-114800680D02*
G01*
X175699320Y-114800680D01*
X175699320Y-112199320D01*
X178300680Y-112199320D01*
X178300680Y-114800680D01*
G37*
G36*
X172229393Y-112249304D02*
G01*
X172466101Y-112347352D01*
X172466103Y-112347353D01*
X172679135Y-112489696D01*
X172860304Y-112670865D01*
X173002647Y-112883897D01*
X173002648Y-112883899D01*
X173100696Y-113120607D01*
X173150680Y-113371893D01*
X173150680Y-113628107D01*
X173100696Y-113879393D01*
X173018629Y-114077519D01*
X173002647Y-114116103D01*
X172860304Y-114329135D01*
X172679135Y-114510304D01*
X172466103Y-114652647D01*
X172466102Y-114652648D01*
X172466101Y-114652648D01*
X172229393Y-114750696D01*
X171978107Y-114800680D01*
X171721893Y-114800680D01*
X171470607Y-114750696D01*
X171233899Y-114652648D01*
X171233898Y-114652648D01*
X171233897Y-114652647D01*
X171020865Y-114510304D01*
X170839696Y-114329135D01*
X170697353Y-114116103D01*
X170681371Y-114077519D01*
X170599304Y-113879393D01*
X170549320Y-113628107D01*
X170549320Y-113371893D01*
X170599304Y-113120607D01*
X170697352Y-112883899D01*
X170697353Y-112883897D01*
X170839696Y-112670865D01*
X171020865Y-112489696D01*
X171233897Y-112347353D01*
X171233899Y-112347352D01*
X171470607Y-112249304D01*
X171721893Y-112199320D01*
X171978107Y-112199320D01*
X172229393Y-112249304D01*
G37*
G36*
X169054393Y-112249304D02*
G01*
X169291101Y-112347352D01*
X169291103Y-112347353D01*
X169504135Y-112489696D01*
X169685304Y-112670865D01*
X169827647Y-112883897D01*
X169827648Y-112883899D01*
X169925696Y-113120607D01*
X169975680Y-113371893D01*
X169975680Y-113628107D01*
X169925696Y-113879393D01*
X169843629Y-114077519D01*
X169827647Y-114116103D01*
X169685304Y-114329135D01*
X169504135Y-114510304D01*
X169291103Y-114652647D01*
X169291102Y-114652648D01*
X169291101Y-114652648D01*
X169054393Y-114750696D01*
X168803107Y-114800680D01*
X168546893Y-114800680D01*
X168295607Y-114750696D01*
X168058899Y-114652648D01*
X168058898Y-114652648D01*
X168058897Y-114652647D01*
X167845865Y-114510304D01*
X167664696Y-114329135D01*
X167522353Y-114116103D01*
X167506371Y-114077519D01*
X167424304Y-113879393D01*
X167374320Y-113628107D01*
X167374320Y-113371893D01*
X167424304Y-113120607D01*
X167522352Y-112883899D01*
X167522353Y-112883897D01*
X167664696Y-112670865D01*
X167845865Y-112489696D01*
X168058897Y-112347353D01*
X168058899Y-112347352D01*
X168295607Y-112249304D01*
X168546893Y-112199320D01*
X168803107Y-112199320D01*
X169054393Y-112249304D01*
G37*
G36*
X166800680Y-114800680D02*
G01*
X164199320Y-114800680D01*
X164199320Y-112199320D01*
X166800680Y-112199320D01*
X166800680Y-114800680D01*
G37*
G36*
X183729393Y-112249304D02*
G01*
X183966101Y-112347352D01*
X183966103Y-112347353D01*
X184179135Y-112489696D01*
X184360304Y-112670865D01*
X184502647Y-112883897D01*
X184502648Y-112883899D01*
X184600696Y-113120607D01*
X184650680Y-113371893D01*
X184650680Y-113628107D01*
X184600696Y-113879393D01*
X184518629Y-114077519D01*
X184502647Y-114116103D01*
X184360304Y-114329135D01*
X184179135Y-114510304D01*
X183966103Y-114652647D01*
X183966102Y-114652648D01*
X183966101Y-114652648D01*
X183729393Y-114750696D01*
X183478107Y-114800680D01*
X183221893Y-114800680D01*
X182970607Y-114750696D01*
X182733899Y-114652648D01*
X182733898Y-114652648D01*
X182733897Y-114652647D01*
X182520865Y-114510304D01*
X182339696Y-114329135D01*
X182197353Y-114116103D01*
X182181371Y-114077519D01*
X182099304Y-113879393D01*
X182049320Y-113628107D01*
X182049320Y-113371893D01*
X182099304Y-113120607D01*
X182197352Y-112883899D01*
X182197353Y-112883897D01*
X182339696Y-112670865D01*
X182520865Y-112489696D01*
X182733897Y-112347353D01*
X182733899Y-112347352D01*
X182970607Y-112249304D01*
X183221893Y-112199320D01*
X183478107Y-112199320D01*
X183729393Y-112249304D01*
G37*
G36*
X190300680Y-108800680D02*
G01*
X187699320Y-108800680D01*
X187699320Y-106199320D01*
X190300680Y-106199320D01*
X190300680Y-108800680D01*
G37*
G36*
X181939393Y-105999304D02*
G01*
X182176101Y-106097352D01*
X182176103Y-106097353D01*
X182389135Y-106239696D01*
X182570304Y-106420865D01*
X182687926Y-106596900D01*
X182712648Y-106633899D01*
X182810696Y-106870607D01*
X182860680Y-107121893D01*
X182860680Y-107378107D01*
X182810696Y-107629393D01*
X182732450Y-107818295D01*
X182712647Y-107866103D01*
X182570304Y-108079135D01*
X182389135Y-108260304D01*
X182176103Y-108402647D01*
X182176102Y-108402648D01*
X182176101Y-108402648D01*
X181939393Y-108500696D01*
X181688107Y-108550680D01*
X181431893Y-108550680D01*
X181180607Y-108500696D01*
X180943899Y-108402648D01*
X180943898Y-108402648D01*
X180943897Y-108402647D01*
X180730865Y-108260304D01*
X180549696Y-108079135D01*
X180407353Y-107866103D01*
X180387550Y-107818295D01*
X180309304Y-107629393D01*
X180259320Y-107378107D01*
X180259320Y-107121893D01*
X180309304Y-106870607D01*
X180407352Y-106633899D01*
X180432074Y-106596900D01*
X180549696Y-106420865D01*
X180730865Y-106239696D01*
X180943897Y-106097353D01*
X180943899Y-106097352D01*
X181180607Y-105999304D01*
X181431893Y-105949320D01*
X181688107Y-105949320D01*
X181939393Y-105999304D01*
G37*
G36*
X179050680Y-108550680D02*
G01*
X176449320Y-108550680D01*
X176449320Y-105949320D01*
X179050680Y-105949320D01*
X179050680Y-108550680D01*
G37*
G36*
X171439393Y-105999304D02*
G01*
X171676101Y-106097352D01*
X171676103Y-106097353D01*
X171889135Y-106239696D01*
X172070304Y-106420865D01*
X172187926Y-106596900D01*
X172212648Y-106633899D01*
X172310696Y-106870607D01*
X172360680Y-107121893D01*
X172360680Y-107378107D01*
X172310696Y-107629393D01*
X172232450Y-107818295D01*
X172212647Y-107866103D01*
X172070304Y-108079135D01*
X171889135Y-108260304D01*
X171676103Y-108402647D01*
X171676102Y-108402648D01*
X171676101Y-108402648D01*
X171439393Y-108500696D01*
X171188107Y-108550680D01*
X170931893Y-108550680D01*
X170680607Y-108500696D01*
X170443899Y-108402648D01*
X170443898Y-108402648D01*
X170443897Y-108402647D01*
X170230865Y-108260304D01*
X170049696Y-108079135D01*
X169907353Y-107866103D01*
X169887550Y-107818295D01*
X169809304Y-107629393D01*
X169759320Y-107378107D01*
X169759320Y-107121893D01*
X169809304Y-106870607D01*
X169907352Y-106633899D01*
X169932074Y-106596900D01*
X170049696Y-106420865D01*
X170230865Y-106239696D01*
X170443897Y-106097353D01*
X170443899Y-106097352D01*
X170680607Y-105999304D01*
X170931893Y-105949320D01*
X171188107Y-105949320D01*
X171439393Y-105999304D01*
G37*
G36*
X168550680Y-108550680D02*
G01*
X165949320Y-108550680D01*
X165949320Y-105949320D01*
X168550680Y-105949320D01*
X168550680Y-108550680D01*
G37*
G36*
X160498228Y-106181703D02*
G01*
X160653100Y-106245853D01*
X160792481Y-106338985D01*
X160911015Y-106457519D01*
X161004147Y-106596900D01*
X161068297Y-106751772D01*
X161101000Y-106916184D01*
X161101000Y-107083816D01*
X161068297Y-107248228D01*
X161004147Y-107403100D01*
X160911015Y-107542481D01*
X160792481Y-107661015D01*
X160653100Y-107754147D01*
X160498228Y-107818297D01*
X160333816Y-107851000D01*
X160166184Y-107851000D01*
X160001772Y-107818297D01*
X159846900Y-107754147D01*
X159707519Y-107661015D01*
X159588985Y-107542481D01*
X159495853Y-107403100D01*
X159431703Y-107248228D01*
X159399000Y-107083816D01*
X159399000Y-106916184D01*
X159431703Y-106751772D01*
X159495853Y-106596900D01*
X159588985Y-106457519D01*
X159707519Y-106338985D01*
X159846900Y-106245853D01*
X160001772Y-106181703D01*
X160166184Y-106149000D01*
X160333816Y-106149000D01*
X160498228Y-106181703D01*
G37*
G36*
X189379393Y-103074304D02*
G01*
X189616101Y-103172352D01*
X189616103Y-103172353D01*
X189829135Y-103314696D01*
X190010304Y-103495865D01*
X190109311Y-103644040D01*
X190152648Y-103708899D01*
X190250696Y-103945607D01*
X190300680Y-104196893D01*
X190300680Y-104453107D01*
X190250696Y-104704393D01*
X190152648Y-104941101D01*
X190152647Y-104941103D01*
X190010304Y-105154135D01*
X189829135Y-105335304D01*
X189616103Y-105477647D01*
X189616102Y-105477648D01*
X189616101Y-105477648D01*
X189379393Y-105575696D01*
X189128107Y-105625680D01*
X188871893Y-105625680D01*
X188620607Y-105575696D01*
X188383899Y-105477648D01*
X188383898Y-105477648D01*
X188383897Y-105477647D01*
X188170865Y-105335304D01*
X187989696Y-105154135D01*
X187847353Y-104941103D01*
X187847352Y-104941101D01*
X187749304Y-104704393D01*
X187699320Y-104453107D01*
X187699320Y-104196893D01*
X187749304Y-103945607D01*
X187847352Y-103708899D01*
X187890689Y-103644040D01*
X187989696Y-103495865D01*
X188170865Y-103314696D01*
X188383897Y-103172353D01*
X188383899Y-103172352D01*
X188620607Y-103074304D01*
X188871893Y-103024320D01*
X189128107Y-103024320D01*
X189379393Y-103074304D01*
G37*
G36*
X160724549Y-101621116D02*
G01*
X160835734Y-101643232D01*
X161045203Y-101729997D01*
X161233720Y-101855960D01*
X161394040Y-102016280D01*
X161520003Y-102204797D01*
X161606768Y-102414266D01*
X161651000Y-102636636D01*
X161651000Y-102863364D01*
X161606768Y-103085734D01*
X161520003Y-103295203D01*
X161394040Y-103483720D01*
X161233720Y-103644040D01*
X161045203Y-103770003D01*
X160835734Y-103856768D01*
X160724549Y-103878884D01*
X160613365Y-103901000D01*
X160386635Y-103901000D01*
X160275451Y-103878884D01*
X160164266Y-103856768D01*
X159954797Y-103770003D01*
X159766280Y-103644040D01*
X159605960Y-103483720D01*
X159479997Y-103295203D01*
X159393232Y-103085734D01*
X159349000Y-102863364D01*
X159349000Y-102636636D01*
X159393232Y-102414266D01*
X159479997Y-102204797D01*
X159605960Y-102016280D01*
X159766280Y-101855960D01*
X159954797Y-101729997D01*
X160164266Y-101643232D01*
X160275451Y-101621116D01*
X160386635Y-101599000D01*
X160613365Y-101599000D01*
X160724549Y-101621116D01*
G37*
G36*
X189379393Y-99899304D02*
G01*
X189616101Y-99997352D01*
X189616103Y-99997353D01*
X189829135Y-100139696D01*
X190010304Y-100320865D01*
X190150550Y-100530759D01*
X190152648Y-100533899D01*
X190250696Y-100770607D01*
X190300680Y-101021893D01*
X190300680Y-101278107D01*
X190250696Y-101529393D01*
X190184053Y-101690282D01*
X190152647Y-101766103D01*
X190010304Y-101979135D01*
X189829135Y-102160304D01*
X189616103Y-102302647D01*
X189616102Y-102302648D01*
X189616101Y-102302648D01*
X189379393Y-102400696D01*
X189128107Y-102450680D01*
X188871893Y-102450680D01*
X188620607Y-102400696D01*
X188383899Y-102302648D01*
X188383898Y-102302648D01*
X188383897Y-102302647D01*
X188170865Y-102160304D01*
X187989696Y-101979135D01*
X187847353Y-101766103D01*
X187815947Y-101690282D01*
X187749304Y-101529393D01*
X187699320Y-101278107D01*
X187699320Y-101021893D01*
X187749304Y-100770607D01*
X187847352Y-100533899D01*
X187849450Y-100530759D01*
X187989696Y-100320865D01*
X188170865Y-100139696D01*
X188383897Y-99997353D01*
X188383899Y-99997352D01*
X188620607Y-99899304D01*
X188871893Y-99849320D01*
X189128107Y-99849320D01*
X189379393Y-99899304D01*
G37*
G36*
X182390483Y-100078335D02*
G01*
X182559240Y-100148236D01*
X182711118Y-100249718D01*
X182840282Y-100378882D01*
X182941764Y-100530760D01*
X183011665Y-100699517D01*
X183047300Y-100878668D01*
X183047300Y-101061332D01*
X183011665Y-101240483D01*
X182941764Y-101409240D01*
X182840282Y-101561118D01*
X182711118Y-101690282D01*
X182559240Y-101791764D01*
X182390483Y-101861665D01*
X182211332Y-101897300D01*
X182028668Y-101897300D01*
X181849517Y-101861665D01*
X181680760Y-101791764D01*
X181528882Y-101690282D01*
X181399718Y-101561118D01*
X181298236Y-101409240D01*
X181228335Y-101240483D01*
X181192700Y-101061332D01*
X181192700Y-100878668D01*
X181228335Y-100699517D01*
X181298236Y-100530760D01*
X181399718Y-100378882D01*
X181528882Y-100249718D01*
X181680760Y-100148236D01*
X181849517Y-100078335D01*
X182028668Y-100042700D01*
X182211332Y-100042700D01*
X182390483Y-100078335D01*
G37*
G36*
X167150483Y-100078335D02*
G01*
X167319240Y-100148236D01*
X167471118Y-100249718D01*
X167600282Y-100378882D01*
X167701764Y-100530760D01*
X167771665Y-100699517D01*
X167807300Y-100878668D01*
X167807300Y-101061332D01*
X167771665Y-101240483D01*
X167701764Y-101409240D01*
X167600282Y-101561118D01*
X167471118Y-101690282D01*
X167319240Y-101791764D01*
X167150483Y-101861665D01*
X166971332Y-101897300D01*
X166788668Y-101897300D01*
X166609517Y-101861665D01*
X166440760Y-101791764D01*
X166288882Y-101690282D01*
X166159718Y-101561118D01*
X166058236Y-101409240D01*
X165988335Y-101240483D01*
X165952700Y-101061332D01*
X165952700Y-100878668D01*
X165988335Y-100699517D01*
X166058236Y-100530760D01*
X166159718Y-100378882D01*
X166288882Y-100249718D01*
X166440760Y-100148236D01*
X166609517Y-100078335D01*
X166788668Y-100042700D01*
X166971332Y-100042700D01*
X167150483Y-100078335D01*
G37*
G36*
X167150483Y-97538335D02*
G01*
X167319240Y-97608236D01*
X167471118Y-97709718D01*
X167600282Y-97838882D01*
X167701764Y-97990760D01*
X167771665Y-98159517D01*
X167807300Y-98338668D01*
X167807300Y-98521332D01*
X167771665Y-98700483D01*
X167701764Y-98869240D01*
X167600282Y-99021118D01*
X167471118Y-99150282D01*
X167319240Y-99251764D01*
X167150483Y-99321665D01*
X166971332Y-99357300D01*
X166788668Y-99357300D01*
X166609517Y-99321665D01*
X166440760Y-99251764D01*
X166288882Y-99150282D01*
X166159718Y-99021118D01*
X166058236Y-98869240D01*
X165988335Y-98700483D01*
X165952700Y-98521332D01*
X165952700Y-98338668D01*
X165988335Y-98159517D01*
X166058236Y-97990760D01*
X166159718Y-97838882D01*
X166288882Y-97709718D01*
X166440760Y-97608236D01*
X166609517Y-97538335D01*
X166788668Y-97502700D01*
X166971332Y-97502700D01*
X167150483Y-97538335D01*
G37*
G36*
X182390483Y-97538335D02*
G01*
X182559240Y-97608236D01*
X182711118Y-97709718D01*
X182840282Y-97838882D01*
X182941764Y-97990760D01*
X183011665Y-98159517D01*
X183047300Y-98338668D01*
X183047300Y-98521332D01*
X183011665Y-98700483D01*
X182941764Y-98869240D01*
X182840282Y-99021118D01*
X182711118Y-99150282D01*
X182559240Y-99251764D01*
X182390483Y-99321665D01*
X182211332Y-99357300D01*
X182028668Y-99357300D01*
X181849517Y-99321665D01*
X181680760Y-99251764D01*
X181528882Y-99150282D01*
X181399718Y-99021118D01*
X181298236Y-98869240D01*
X181228335Y-98700483D01*
X181192700Y-98521332D01*
X181192700Y-98338668D01*
X181228335Y-98159517D01*
X181298236Y-97990760D01*
X181399718Y-97838882D01*
X181528882Y-97709718D01*
X181680760Y-97608236D01*
X181849517Y-97538335D01*
X182028668Y-97502700D01*
X182211332Y-97502700D01*
X182390483Y-97538335D01*
G37*
G36*
X190300680Y-98300680D02*
G01*
X187699320Y-98300680D01*
X187699320Y-95699320D01*
X190300680Y-95699320D01*
X190300680Y-98300680D01*
G37*
G36*
X167150483Y-94998335D02*
G01*
X167319240Y-95068236D01*
X167471118Y-95169718D01*
X167600282Y-95298882D01*
X167701764Y-95450760D01*
X167771665Y-95619517D01*
X167807300Y-95798668D01*
X167807300Y-95981332D01*
X167771665Y-96160483D01*
X167701764Y-96329240D01*
X167600282Y-96481118D01*
X167471118Y-96610282D01*
X167319240Y-96711764D01*
X167150483Y-96781665D01*
X166971332Y-96817300D01*
X166788668Y-96817300D01*
X166609517Y-96781665D01*
X166440760Y-96711764D01*
X166288882Y-96610282D01*
X166159718Y-96481118D01*
X166058236Y-96329240D01*
X165988335Y-96160483D01*
X165952700Y-95981332D01*
X165952700Y-95798668D01*
X165988335Y-95619517D01*
X166058236Y-95450760D01*
X166159718Y-95298882D01*
X166288882Y-95169718D01*
X166440760Y-95068236D01*
X166609517Y-94998335D01*
X166788668Y-94962700D01*
X166971332Y-94962700D01*
X167150483Y-94998335D01*
G37*
G36*
X182390483Y-94998335D02*
G01*
X182559240Y-95068236D01*
X182711118Y-95169718D01*
X182840282Y-95298882D01*
X182941764Y-95450760D01*
X183011665Y-95619517D01*
X183047300Y-95798668D01*
X183047300Y-95981332D01*
X183011665Y-96160483D01*
X182941764Y-96329240D01*
X182840282Y-96481118D01*
X182711118Y-96610282D01*
X182559240Y-96711764D01*
X182390483Y-96781665D01*
X182211332Y-96817300D01*
X182028668Y-96817300D01*
X181849517Y-96781665D01*
X181680760Y-96711764D01*
X181528882Y-96610282D01*
X181399718Y-96481118D01*
X181298236Y-96329240D01*
X181228335Y-96160483D01*
X181192700Y-95981332D01*
X181192700Y-95798668D01*
X181228335Y-95619517D01*
X181298236Y-95450760D01*
X181399718Y-95298882D01*
X181528882Y-95169718D01*
X181680760Y-95068236D01*
X181849517Y-94998335D01*
X182028668Y-94962700D01*
X182211332Y-94962700D01*
X182390483Y-94998335D01*
G37*
G36*
X160379393Y-94059304D02*
G01*
X160616101Y-94157352D01*
X160616103Y-94157353D01*
X160829135Y-94299696D01*
X161010304Y-94480865D01*
X161126078Y-94654134D01*
X161152648Y-94693899D01*
X161250696Y-94930607D01*
X161300680Y-95181893D01*
X161300680Y-95438107D01*
X161250696Y-95689393D01*
X161205432Y-95798669D01*
X161152647Y-95926103D01*
X161010304Y-96139135D01*
X160829135Y-96320304D01*
X160616103Y-96462647D01*
X160616102Y-96462648D01*
X160616101Y-96462648D01*
X160379393Y-96560696D01*
X160128107Y-96610680D01*
X159871893Y-96610680D01*
X159620607Y-96560696D01*
X159383899Y-96462648D01*
X159383898Y-96462648D01*
X159383897Y-96462647D01*
X159170865Y-96320304D01*
X158989696Y-96139135D01*
X158847353Y-95926103D01*
X158794568Y-95798669D01*
X158749304Y-95689393D01*
X158699320Y-95438107D01*
X158699320Y-95181893D01*
X158749304Y-94930607D01*
X158847352Y-94693899D01*
X158873922Y-94654134D01*
X158989696Y-94480865D01*
X159170865Y-94299696D01*
X159383897Y-94157353D01*
X159383899Y-94157352D01*
X159620607Y-94059304D01*
X159871893Y-94009320D01*
X160128107Y-94009320D01*
X160379393Y-94059304D01*
G37*
G36*
X189379393Y-92574304D02*
G01*
X189616101Y-92672352D01*
X189616103Y-92672353D01*
X189829135Y-92814696D01*
X190010304Y-92995865D01*
X190066198Y-93079517D01*
X190152648Y-93208899D01*
X190250696Y-93445607D01*
X190300680Y-93696893D01*
X190300680Y-93953107D01*
X190250696Y-94204393D01*
X190211220Y-94299696D01*
X190152647Y-94441103D01*
X190010304Y-94654135D01*
X189829135Y-94835304D01*
X189616103Y-94977647D01*
X189616102Y-94977648D01*
X189616101Y-94977648D01*
X189379393Y-95075696D01*
X189128107Y-95125680D01*
X188871893Y-95125680D01*
X188620607Y-95075696D01*
X188383899Y-94977648D01*
X188383898Y-94977648D01*
X188383897Y-94977647D01*
X188170865Y-94835304D01*
X187989696Y-94654135D01*
X187847353Y-94441103D01*
X187788780Y-94299696D01*
X187749304Y-94204393D01*
X187699320Y-93953107D01*
X187699320Y-93696893D01*
X187749304Y-93445607D01*
X187847352Y-93208899D01*
X187933802Y-93079517D01*
X187989696Y-92995865D01*
X188170865Y-92814696D01*
X188383897Y-92672353D01*
X188383899Y-92672352D01*
X188620607Y-92574304D01*
X188871893Y-92524320D01*
X189128107Y-92524320D01*
X189379393Y-92574304D01*
G37*
G36*
X167150483Y-92458335D02*
G01*
X167319240Y-92528236D01*
X167471118Y-92629718D01*
X167600282Y-92758882D01*
X167701764Y-92910760D01*
X167771665Y-93079517D01*
X167807300Y-93258668D01*
X167807300Y-93441332D01*
X167771665Y-93620483D01*
X167701764Y-93789240D01*
X167600282Y-93941118D01*
X167471118Y-94070282D01*
X167319240Y-94171764D01*
X167150483Y-94241665D01*
X166971332Y-94277300D01*
X166788668Y-94277300D01*
X166609517Y-94241665D01*
X166440760Y-94171764D01*
X166288882Y-94070282D01*
X166159718Y-93941118D01*
X166058236Y-93789240D01*
X165988335Y-93620483D01*
X165952700Y-93441332D01*
X165952700Y-93258668D01*
X165988335Y-93079517D01*
X166058236Y-92910760D01*
X166159718Y-92758882D01*
X166288882Y-92629718D01*
X166440760Y-92528236D01*
X166609517Y-92458335D01*
X166788668Y-92422700D01*
X166971332Y-92422700D01*
X167150483Y-92458335D01*
G37*
G36*
X182390483Y-92458335D02*
G01*
X182559240Y-92528236D01*
X182711118Y-92629718D01*
X182840282Y-92758882D01*
X182941764Y-92910760D01*
X183011665Y-93079517D01*
X183047300Y-93258668D01*
X183047300Y-93441332D01*
X183011665Y-93620483D01*
X182941764Y-93789240D01*
X182840282Y-93941118D01*
X182711118Y-94070282D01*
X182559240Y-94171764D01*
X182390483Y-94241665D01*
X182211332Y-94277300D01*
X182028668Y-94277300D01*
X181849517Y-94241665D01*
X181680760Y-94171764D01*
X181528882Y-94070282D01*
X181399718Y-93941118D01*
X181298236Y-93789240D01*
X181228335Y-93620483D01*
X181192700Y-93441332D01*
X181192700Y-93258668D01*
X181228335Y-93079517D01*
X181298236Y-92910760D01*
X181399718Y-92758882D01*
X181528882Y-92629718D01*
X181680760Y-92528236D01*
X181849517Y-92458335D01*
X182028668Y-92422700D01*
X182211332Y-92422700D01*
X182390483Y-92458335D01*
G37*
G36*
X161300680Y-92800680D02*
G01*
X158699320Y-92800680D01*
X158699320Y-90199320D01*
X161300680Y-90199320D01*
X161300680Y-92800680D01*
G37*
G36*
X189379393Y-89399304D02*
G01*
X189616101Y-89497352D01*
X189616103Y-89497353D01*
X189829135Y-89639696D01*
X190010304Y-89820865D01*
X190075431Y-89918335D01*
X190152648Y-90033899D01*
X190250696Y-90270607D01*
X190300680Y-90521893D01*
X190300680Y-90778107D01*
X190250696Y-91029393D01*
X190152648Y-91266101D01*
X190152647Y-91266103D01*
X190010304Y-91479135D01*
X189829135Y-91660304D01*
X189616103Y-91802647D01*
X189616102Y-91802648D01*
X189616101Y-91802648D01*
X189379393Y-91900696D01*
X189128107Y-91950680D01*
X188871893Y-91950680D01*
X188620607Y-91900696D01*
X188383899Y-91802648D01*
X188383898Y-91802648D01*
X188383897Y-91802647D01*
X188170865Y-91660304D01*
X187989696Y-91479135D01*
X187847353Y-91266103D01*
X187847352Y-91266101D01*
X187749304Y-91029393D01*
X187699320Y-90778107D01*
X187699320Y-90521893D01*
X187749304Y-90270607D01*
X187847352Y-90033899D01*
X187924569Y-89918335D01*
X187989696Y-89820865D01*
X188170865Y-89639696D01*
X188383897Y-89497353D01*
X188383899Y-89497352D01*
X188620607Y-89399304D01*
X188871893Y-89349320D01*
X189128107Y-89349320D01*
X189379393Y-89399304D01*
G37*
G36*
X182390483Y-89918335D02*
G01*
X182559240Y-89988236D01*
X182711118Y-90089718D01*
X182840282Y-90218882D01*
X182941764Y-90370760D01*
X183011665Y-90539517D01*
X183047300Y-90718668D01*
X183047300Y-90901332D01*
X183011665Y-91080483D01*
X182941764Y-91249240D01*
X182840282Y-91401118D01*
X182711118Y-91530282D01*
X182559240Y-91631764D01*
X182390483Y-91701665D01*
X182211332Y-91737300D01*
X182028668Y-91737300D01*
X181849517Y-91701665D01*
X181680760Y-91631764D01*
X181528882Y-91530282D01*
X181399718Y-91401118D01*
X181298236Y-91249240D01*
X181228335Y-91080483D01*
X181192700Y-90901332D01*
X181192700Y-90718668D01*
X181228335Y-90539517D01*
X181298236Y-90370760D01*
X181399718Y-90218882D01*
X181528882Y-90089718D01*
X181680760Y-89988236D01*
X181849517Y-89918335D01*
X182028668Y-89882700D01*
X182211332Y-89882700D01*
X182390483Y-89918335D01*
G37*
G36*
X167150483Y-89918335D02*
G01*
X167319240Y-89988236D01*
X167471118Y-90089718D01*
X167600282Y-90218882D01*
X167701764Y-90370760D01*
X167771665Y-90539517D01*
X167807300Y-90718668D01*
X167807300Y-90901332D01*
X167771665Y-91080483D01*
X167701764Y-91249240D01*
X167600282Y-91401118D01*
X167471118Y-91530282D01*
X167319240Y-91631764D01*
X167150483Y-91701665D01*
X166971332Y-91737300D01*
X166788668Y-91737300D01*
X166609517Y-91701665D01*
X166440760Y-91631764D01*
X166288882Y-91530282D01*
X166159718Y-91401118D01*
X166058236Y-91249240D01*
X165988335Y-91080483D01*
X165952700Y-90901332D01*
X165952700Y-90718668D01*
X165988335Y-90539517D01*
X166058236Y-90370760D01*
X166159718Y-90218882D01*
X166288882Y-90089718D01*
X166440760Y-89988236D01*
X166609517Y-89918335D01*
X166788668Y-89882700D01*
X166971332Y-89882700D01*
X167150483Y-89918335D01*
G37*
G36*
X182390483Y-87378335D02*
G01*
X182559240Y-87448236D01*
X182711118Y-87549718D01*
X182840282Y-87678882D01*
X182941764Y-87830760D01*
X183011665Y-87999517D01*
X183047300Y-88178668D01*
X183047300Y-88361332D01*
X183011665Y-88540483D01*
X182941764Y-88709240D01*
X182840282Y-88861118D01*
X182711118Y-88990282D01*
X182559240Y-89091764D01*
X182390483Y-89161665D01*
X182211332Y-89197300D01*
X182028668Y-89197300D01*
X181849517Y-89161665D01*
X181680760Y-89091764D01*
X181528882Y-88990282D01*
X181399718Y-88861118D01*
X181298236Y-88709240D01*
X181228335Y-88540483D01*
X181192700Y-88361332D01*
X181192700Y-88178668D01*
X181228335Y-87999517D01*
X181298236Y-87830760D01*
X181399718Y-87678882D01*
X181528882Y-87549718D01*
X181680760Y-87448236D01*
X181849517Y-87378335D01*
X182028668Y-87342700D01*
X182211332Y-87342700D01*
X182390483Y-87378335D01*
G37*
G36*
X167150483Y-87378335D02*
G01*
X167319240Y-87448236D01*
X167471118Y-87549718D01*
X167600282Y-87678882D01*
X167701764Y-87830760D01*
X167771665Y-87999517D01*
X167807300Y-88178668D01*
X167807300Y-88361332D01*
X167771665Y-88540483D01*
X167701764Y-88709240D01*
X167600282Y-88861118D01*
X167471118Y-88990282D01*
X167319240Y-89091764D01*
X167150483Y-89161665D01*
X166971332Y-89197300D01*
X166788668Y-89197300D01*
X166609517Y-89161665D01*
X166440760Y-89091764D01*
X166288882Y-88990282D01*
X166159718Y-88861118D01*
X166058236Y-88709240D01*
X165988335Y-88540483D01*
X165952700Y-88361332D01*
X165952700Y-88178668D01*
X165988335Y-87999517D01*
X166058236Y-87830760D01*
X166159718Y-87678882D01*
X166288882Y-87549718D01*
X166440760Y-87448236D01*
X166609517Y-87378335D01*
X166788668Y-87342700D01*
X166971332Y-87342700D01*
X167150483Y-87378335D01*
G37*
G36*
X190300680Y-87725680D02*
G01*
X187699320Y-87725680D01*
X187699320Y-85124320D01*
X190300680Y-85124320D01*
X190300680Y-87725680D01*
G37*
G36*
X160379393Y-85099304D02*
G01*
X160616101Y-85197352D01*
X160616103Y-85197353D01*
X160829135Y-85339696D01*
X161010304Y-85520865D01*
X161152647Y-85733897D01*
X161152648Y-85733899D01*
X161250696Y-85970607D01*
X161300680Y-86221893D01*
X161300680Y-86478107D01*
X161250696Y-86729393D01*
X161152648Y-86966101D01*
X161152647Y-86966103D01*
X161010304Y-87179135D01*
X160829135Y-87360304D01*
X160616103Y-87502647D01*
X160616102Y-87502648D01*
X160616101Y-87502648D01*
X160379393Y-87600696D01*
X160128107Y-87650680D01*
X159871893Y-87650680D01*
X159620607Y-87600696D01*
X159383899Y-87502648D01*
X159383898Y-87502648D01*
X159383897Y-87502647D01*
X159170865Y-87360304D01*
X158989696Y-87179135D01*
X158847353Y-86966103D01*
X158847352Y-86966101D01*
X158749304Y-86729393D01*
X158699320Y-86478107D01*
X158699320Y-86221893D01*
X158749304Y-85970607D01*
X158847352Y-85733899D01*
X158847353Y-85733897D01*
X158989696Y-85520865D01*
X159170865Y-85339696D01*
X159383897Y-85197353D01*
X159383899Y-85197352D01*
X159620607Y-85099304D01*
X159871893Y-85049320D01*
X160128107Y-85049320D01*
X160379393Y-85099304D01*
G37*
G36*
X182390483Y-84838335D02*
G01*
X182559240Y-84908236D01*
X182711118Y-85009718D01*
X182840282Y-85138882D01*
X182941764Y-85290760D01*
X183011665Y-85459517D01*
X183047300Y-85638668D01*
X183047300Y-85821332D01*
X183011665Y-86000483D01*
X182941764Y-86169240D01*
X182840282Y-86321118D01*
X182711118Y-86450282D01*
X182559240Y-86551764D01*
X182390483Y-86621665D01*
X182211332Y-86657300D01*
X182028668Y-86657300D01*
X181849517Y-86621665D01*
X181680760Y-86551764D01*
X181528882Y-86450282D01*
X181399718Y-86321118D01*
X181298236Y-86169240D01*
X181228335Y-86000483D01*
X181192700Y-85821332D01*
X181192700Y-85638668D01*
X181228335Y-85459517D01*
X181298236Y-85290760D01*
X181399718Y-85138882D01*
X181528882Y-85009718D01*
X181680760Y-84908236D01*
X181849517Y-84838335D01*
X182028668Y-84802700D01*
X182211332Y-84802700D01*
X182390483Y-84838335D01*
G37*
G36*
X167150483Y-84838335D02*
G01*
X167319240Y-84908236D01*
X167471118Y-85009718D01*
X167600282Y-85138882D01*
X167701764Y-85290760D01*
X167771665Y-85459517D01*
X167807300Y-85638668D01*
X167807300Y-85821332D01*
X167771665Y-86000483D01*
X167701764Y-86169240D01*
X167600282Y-86321118D01*
X167471118Y-86450282D01*
X167319240Y-86551764D01*
X167150483Y-86621665D01*
X166971332Y-86657300D01*
X166788668Y-86657300D01*
X166609517Y-86621665D01*
X166440760Y-86551764D01*
X166288882Y-86450282D01*
X166159718Y-86321118D01*
X166058236Y-86169240D01*
X165988335Y-86000483D01*
X165952700Y-85821332D01*
X165952700Y-85638668D01*
X165988335Y-85459517D01*
X166058236Y-85290760D01*
X166159718Y-85138882D01*
X166288882Y-85009718D01*
X166440760Y-84908236D01*
X166609517Y-84838335D01*
X166788668Y-84802700D01*
X166971332Y-84802700D01*
X167150483Y-84838335D01*
G37*
G36*
X189379393Y-81999304D02*
G01*
X189616101Y-82097352D01*
X189616103Y-82097353D01*
X189829135Y-82239696D01*
X190010304Y-82420865D01*
X190152647Y-82633897D01*
X190152648Y-82633899D01*
X190250696Y-82870607D01*
X190300680Y-83121893D01*
X190300680Y-83378107D01*
X190250696Y-83629393D01*
X190183714Y-83791101D01*
X190152647Y-83866103D01*
X190010304Y-84079135D01*
X189829135Y-84260304D01*
X189616103Y-84402647D01*
X189616102Y-84402648D01*
X189616101Y-84402648D01*
X189379393Y-84500696D01*
X189128107Y-84550680D01*
X188871893Y-84550680D01*
X188620607Y-84500696D01*
X188383899Y-84402648D01*
X188383898Y-84402648D01*
X188383897Y-84402647D01*
X188170865Y-84260304D01*
X187989696Y-84079135D01*
X187847353Y-83866103D01*
X187816286Y-83791101D01*
X187749304Y-83629393D01*
X187699320Y-83378107D01*
X187699320Y-83121893D01*
X187749304Y-82870607D01*
X187847352Y-82633899D01*
X187847353Y-82633897D01*
X187989696Y-82420865D01*
X188170865Y-82239696D01*
X188383897Y-82097353D01*
X188383899Y-82097352D01*
X188620607Y-81999304D01*
X188871893Y-81949320D01*
X189128107Y-81949320D01*
X189379393Y-81999304D01*
G37*
G36*
X160379393Y-81924304D02*
G01*
X160616101Y-82022352D01*
X160616103Y-82022353D01*
X160829135Y-82164696D01*
X161010304Y-82345865D01*
X161093060Y-82469719D01*
X161152648Y-82558899D01*
X161250696Y-82795607D01*
X161300680Y-83046893D01*
X161300680Y-83303107D01*
X161250696Y-83554393D01*
X161219629Y-83629394D01*
X161152647Y-83791103D01*
X161010304Y-84004135D01*
X160829135Y-84185304D01*
X160616103Y-84327647D01*
X160616102Y-84327648D01*
X160616101Y-84327648D01*
X160379393Y-84425696D01*
X160128107Y-84475680D01*
X159871893Y-84475680D01*
X159620607Y-84425696D01*
X159383899Y-84327648D01*
X159383898Y-84327648D01*
X159383897Y-84327647D01*
X159170865Y-84185304D01*
X158989696Y-84004135D01*
X158847353Y-83791103D01*
X158780371Y-83629394D01*
X158749304Y-83554393D01*
X158699320Y-83303107D01*
X158699320Y-83046893D01*
X158749304Y-82795607D01*
X158847352Y-82558899D01*
X158906940Y-82469719D01*
X158989696Y-82345865D01*
X159170865Y-82164696D01*
X159383897Y-82022353D01*
X159383899Y-82022352D01*
X159620607Y-81924304D01*
X159871893Y-81874320D01*
X160128107Y-81874320D01*
X160379393Y-81924304D01*
G37*
G36*
X167150483Y-82298335D02*
G01*
X167319240Y-82368236D01*
X167471118Y-82469718D01*
X167600282Y-82598882D01*
X167701764Y-82750760D01*
X167771665Y-82919517D01*
X167807300Y-83098668D01*
X167807300Y-83281332D01*
X167771665Y-83460483D01*
X167701764Y-83629240D01*
X167600282Y-83781118D01*
X167471118Y-83910282D01*
X167319240Y-84011764D01*
X167150483Y-84081665D01*
X166971332Y-84117300D01*
X166788668Y-84117300D01*
X166609517Y-84081665D01*
X166440760Y-84011764D01*
X166288882Y-83910282D01*
X166159718Y-83781118D01*
X166058236Y-83629240D01*
X165988335Y-83460483D01*
X165952700Y-83281332D01*
X165952700Y-83098668D01*
X165988335Y-82919517D01*
X166058236Y-82750760D01*
X166159718Y-82598882D01*
X166288882Y-82469718D01*
X166440760Y-82368236D01*
X166609517Y-82298335D01*
X166788668Y-82262700D01*
X166971332Y-82262700D01*
X167150483Y-82298335D01*
G37*
G36*
X182390483Y-82298335D02*
G01*
X182559240Y-82368236D01*
X182711118Y-82469718D01*
X182840282Y-82598882D01*
X182941764Y-82750760D01*
X183011665Y-82919517D01*
X183047300Y-83098668D01*
X183047300Y-83281332D01*
X183011665Y-83460483D01*
X182941764Y-83629240D01*
X182840282Y-83781118D01*
X182711118Y-83910282D01*
X182559240Y-84011764D01*
X182390483Y-84081665D01*
X182211332Y-84117300D01*
X182028668Y-84117300D01*
X181849517Y-84081665D01*
X181680760Y-84011764D01*
X181528882Y-83910282D01*
X181399718Y-83781118D01*
X181298236Y-83629240D01*
X181228335Y-83460483D01*
X181192700Y-83281332D01*
X181192700Y-83098668D01*
X181228335Y-82919517D01*
X181298236Y-82750760D01*
X181399718Y-82598882D01*
X181528882Y-82469718D01*
X181680760Y-82368236D01*
X181849517Y-82298335D01*
X182028668Y-82262700D01*
X182211332Y-82262700D01*
X182390483Y-82298335D01*
G37*
G36*
X167150483Y-79758335D02*
G01*
X167319240Y-79828236D01*
X167471118Y-79929718D01*
X167600282Y-80058882D01*
X167701764Y-80210760D01*
X167771665Y-80379517D01*
X167807300Y-80558668D01*
X167807300Y-80741332D01*
X167771665Y-80920483D01*
X167701764Y-81089240D01*
X167600282Y-81241118D01*
X167471118Y-81370282D01*
X167319240Y-81471764D01*
X167150483Y-81541665D01*
X166971332Y-81577300D01*
X166788668Y-81577300D01*
X166609517Y-81541665D01*
X166440760Y-81471764D01*
X166288882Y-81370282D01*
X166159718Y-81241118D01*
X166058236Y-81089240D01*
X165988335Y-80920483D01*
X165952700Y-80741332D01*
X165952700Y-80558668D01*
X165988335Y-80379517D01*
X166058236Y-80210760D01*
X166159718Y-80058882D01*
X166288882Y-79929718D01*
X166440760Y-79828236D01*
X166609517Y-79758335D01*
X166788668Y-79722700D01*
X166971332Y-79722700D01*
X167150483Y-79758335D01*
G37*
G36*
X182390483Y-79758335D02*
G01*
X182559240Y-79828236D01*
X182711118Y-79929718D01*
X182840282Y-80058882D01*
X182941764Y-80210760D01*
X183011665Y-80379517D01*
X183047300Y-80558668D01*
X183047300Y-80741332D01*
X183011665Y-80920483D01*
X182941764Y-81089240D01*
X182840282Y-81241118D01*
X182711118Y-81370282D01*
X182559240Y-81471764D01*
X182390483Y-81541665D01*
X182211332Y-81577300D01*
X182028668Y-81577300D01*
X181849517Y-81541665D01*
X181680760Y-81471764D01*
X181528882Y-81370282D01*
X181399718Y-81241118D01*
X181298236Y-81089240D01*
X181228335Y-80920483D01*
X181192700Y-80741332D01*
X181192700Y-80558668D01*
X181228335Y-80379517D01*
X181298236Y-80210760D01*
X181399718Y-80058882D01*
X181528882Y-79929718D01*
X181680760Y-79828236D01*
X181849517Y-79758335D01*
X182028668Y-79722700D01*
X182211332Y-79722700D01*
X182390483Y-79758335D01*
G37*
G36*
X189379393Y-78824304D02*
G01*
X189616101Y-78922352D01*
X189616103Y-78922353D01*
X189829135Y-79064696D01*
X190010304Y-79245865D01*
X190152647Y-79458897D01*
X190152648Y-79458899D01*
X190250696Y-79695607D01*
X190300680Y-79946893D01*
X190300680Y-80203107D01*
X190250696Y-80454393D01*
X190207503Y-80558669D01*
X190152647Y-80691103D01*
X190010304Y-80904135D01*
X189829135Y-81085304D01*
X189616103Y-81227647D01*
X189616102Y-81227648D01*
X189616101Y-81227648D01*
X189379393Y-81325696D01*
X189128107Y-81375680D01*
X188871893Y-81375680D01*
X188620607Y-81325696D01*
X188383899Y-81227648D01*
X188383898Y-81227648D01*
X188383897Y-81227647D01*
X188170865Y-81085304D01*
X187989696Y-80904135D01*
X187847353Y-80691103D01*
X187792497Y-80558669D01*
X187749304Y-80454393D01*
X187699320Y-80203107D01*
X187699320Y-79946893D01*
X187749304Y-79695607D01*
X187847352Y-79458899D01*
X187847353Y-79458897D01*
X187989696Y-79245865D01*
X188170865Y-79064696D01*
X188383897Y-78922353D01*
X188383899Y-78922352D01*
X188620607Y-78824304D01*
X188871893Y-78774320D01*
X189128107Y-78774320D01*
X189379393Y-78824304D01*
G37*
G36*
X161300680Y-81300680D02*
G01*
X158699320Y-81300680D01*
X158699320Y-78699320D01*
X161300680Y-78699320D01*
X161300680Y-81300680D01*
G37*
G36*
X167150483Y-77218335D02*
G01*
X167319240Y-77288236D01*
X167471118Y-77389718D01*
X167600282Y-77518882D01*
X167701764Y-77670760D01*
X167771665Y-77839517D01*
X167807300Y-78018668D01*
X167807300Y-78201332D01*
X167771665Y-78380483D01*
X167701764Y-78549240D01*
X167600282Y-78701118D01*
X167471118Y-78830282D01*
X167319240Y-78931764D01*
X167150483Y-79001665D01*
X166971332Y-79037300D01*
X166788668Y-79037300D01*
X166609517Y-79001665D01*
X166440760Y-78931764D01*
X166288882Y-78830282D01*
X166159718Y-78701118D01*
X166058236Y-78549240D01*
X165988335Y-78380483D01*
X165952700Y-78201332D01*
X165952700Y-78018668D01*
X165988335Y-77839517D01*
X166058236Y-77670760D01*
X166159718Y-77518882D01*
X166288882Y-77389718D01*
X166440760Y-77288236D01*
X166609517Y-77218335D01*
X166788668Y-77182700D01*
X166971332Y-77182700D01*
X167150483Y-77218335D01*
G37*
G36*
X182390483Y-77218335D02*
G01*
X182559240Y-77288236D01*
X182711118Y-77389718D01*
X182840282Y-77518882D01*
X182941764Y-77670760D01*
X183011665Y-77839517D01*
X183047300Y-78018668D01*
X183047300Y-78201332D01*
X183011665Y-78380483D01*
X182941764Y-78549240D01*
X182840282Y-78701118D01*
X182711118Y-78830282D01*
X182559240Y-78931764D01*
X182390483Y-79001665D01*
X182211332Y-79037300D01*
X182028668Y-79037300D01*
X181849517Y-79001665D01*
X181680760Y-78931764D01*
X181528882Y-78830282D01*
X181399718Y-78701118D01*
X181298236Y-78549240D01*
X181228335Y-78380483D01*
X181192700Y-78201332D01*
X181192700Y-78018668D01*
X181228335Y-77839517D01*
X181298236Y-77670760D01*
X181399718Y-77518882D01*
X181528882Y-77389718D01*
X181680760Y-77288236D01*
X181849517Y-77218335D01*
X182028668Y-77182700D01*
X182211332Y-77182700D01*
X182390483Y-77218335D01*
G37*
G36*
X167150483Y-74678335D02*
G01*
X167319240Y-74748236D01*
X167471118Y-74849718D01*
X167600282Y-74978882D01*
X167701764Y-75130760D01*
X167771665Y-75299517D01*
X167807300Y-75478668D01*
X167807300Y-75661332D01*
X167771665Y-75840483D01*
X167701764Y-76009240D01*
X167600282Y-76161118D01*
X167471118Y-76290282D01*
X167319240Y-76391764D01*
X167150483Y-76461665D01*
X166971332Y-76497300D01*
X166788668Y-76497300D01*
X166609517Y-76461665D01*
X166440760Y-76391764D01*
X166288882Y-76290282D01*
X166159718Y-76161118D01*
X166058236Y-76009240D01*
X165988335Y-75840483D01*
X165952700Y-75661332D01*
X165952700Y-75478668D01*
X165988335Y-75299517D01*
X166058236Y-75130760D01*
X166159718Y-74978882D01*
X166288882Y-74849718D01*
X166440760Y-74748236D01*
X166609517Y-74678335D01*
X166788668Y-74642700D01*
X166971332Y-74642700D01*
X167150483Y-74678335D01*
G37*
G36*
X182390483Y-74678335D02*
G01*
X182559240Y-74748236D01*
X182711118Y-74849718D01*
X182840282Y-74978882D01*
X182941764Y-75130760D01*
X183011665Y-75299517D01*
X183047300Y-75478668D01*
X183047300Y-75661332D01*
X183011665Y-75840483D01*
X182941764Y-76009240D01*
X182840282Y-76161118D01*
X182711118Y-76290282D01*
X182559240Y-76391764D01*
X182390483Y-76461665D01*
X182211332Y-76497300D01*
X182028668Y-76497300D01*
X181849517Y-76461665D01*
X181680760Y-76391764D01*
X181528882Y-76290282D01*
X181399718Y-76161118D01*
X181298236Y-76009240D01*
X181228335Y-75840483D01*
X181192700Y-75661332D01*
X181192700Y-75478668D01*
X181228335Y-75299517D01*
X181298236Y-75130760D01*
X181399718Y-74978882D01*
X181528882Y-74849718D01*
X181680760Y-74748236D01*
X181849517Y-74678335D01*
X182028668Y-74642700D01*
X182211332Y-74642700D01*
X182390483Y-74678335D01*
G37*
G36*
X160724549Y-72871116D02*
G01*
X160835734Y-72893232D01*
X161045203Y-72979997D01*
X161233720Y-73105960D01*
X161394040Y-73266280D01*
X161520003Y-73454797D01*
X161520004Y-73454799D01*
X161525986Y-73469241D01*
X161606768Y-73664266D01*
X161651000Y-73886636D01*
X161651000Y-74113364D01*
X161606768Y-74335734D01*
X161520003Y-74545203D01*
X161394040Y-74733720D01*
X161233720Y-74894040D01*
X161045203Y-75020003D01*
X160835734Y-75106768D01*
X160724549Y-75128884D01*
X160613365Y-75151000D01*
X160386635Y-75151000D01*
X160275451Y-75128884D01*
X160164266Y-75106768D01*
X159954797Y-75020003D01*
X159766280Y-74894040D01*
X159605960Y-74733720D01*
X159479997Y-74545203D01*
X159393232Y-74335734D01*
X159349000Y-74113364D01*
X159349000Y-73886636D01*
X159393232Y-73664266D01*
X159474014Y-73469241D01*
X159479996Y-73454799D01*
X159479997Y-73454797D01*
X159605960Y-73266280D01*
X159766280Y-73105960D01*
X159954797Y-72979997D01*
X160164266Y-72893232D01*
X160275451Y-72871116D01*
X160386635Y-72849000D01*
X160613365Y-72849000D01*
X160724549Y-72871116D01*
G37*
G36*
X188724549Y-72871116D02*
G01*
X188835734Y-72893232D01*
X189045203Y-72979997D01*
X189233720Y-73105960D01*
X189394040Y-73266280D01*
X189520003Y-73454797D01*
X189520004Y-73454799D01*
X189525986Y-73469241D01*
X189606768Y-73664266D01*
X189651000Y-73886636D01*
X189651000Y-74113364D01*
X189606768Y-74335734D01*
X189520003Y-74545203D01*
X189394040Y-74733720D01*
X189233720Y-74894040D01*
X189045203Y-75020003D01*
X188835734Y-75106768D01*
X188724549Y-75128884D01*
X188613365Y-75151000D01*
X188386635Y-75151000D01*
X188275451Y-75128884D01*
X188164266Y-75106768D01*
X187954797Y-75020003D01*
X187766280Y-74894040D01*
X187605960Y-74733720D01*
X187479997Y-74545203D01*
X187393232Y-74335734D01*
X187349000Y-74113364D01*
X187349000Y-73886636D01*
X187393232Y-73664266D01*
X187474014Y-73469241D01*
X187479996Y-73454799D01*
X187479997Y-73454797D01*
X187605960Y-73266280D01*
X187766280Y-73105960D01*
X187954797Y-72979997D01*
X188164266Y-72893232D01*
X188275451Y-72871116D01*
X188386635Y-72849000D01*
X188613365Y-72849000D01*
X188724549Y-72871116D01*
G37*
G36*
X167807300Y-73957300D02*
G01*
X165952700Y-73957300D01*
X165952700Y-72102700D01*
X167807300Y-72102700D01*
X167807300Y-73957300D01*
G37*
G36*
X182390483Y-72138335D02*
G01*
X182559240Y-72208236D01*
X182711118Y-72309718D01*
X182840282Y-72438882D01*
X182941764Y-72590760D01*
X183011665Y-72759517D01*
X183047300Y-72938668D01*
X183047300Y-73121332D01*
X183011665Y-73300483D01*
X182941764Y-73469240D01*
X182840282Y-73621118D01*
X182711118Y-73750282D01*
X182559240Y-73851764D01*
X182390483Y-73921665D01*
X182211332Y-73957300D01*
X182028668Y-73957300D01*
X181849517Y-73921665D01*
X181680760Y-73851764D01*
X181528882Y-73750282D01*
X181399718Y-73621118D01*
X181298236Y-73469240D01*
X181228335Y-73300483D01*
X181192700Y-73121332D01*
X181192700Y-72938668D01*
X181228335Y-72759517D01*
X181298236Y-72590760D01*
X181399718Y-72438882D01*
X181528882Y-72309718D01*
X181680760Y-72208236D01*
X181849517Y-72138335D01*
X182028668Y-72102700D01*
X182211332Y-72102700D01*
X182390483Y-72138335D01*
G37*
M02*
