G04 #@! TF.GenerationSoftware,KiCad,Pcbnew,(5.1.5-0-10_14)*
G04 #@! TF.CreationDate,2020-12-12T23:26:27+01:00*
G04 #@! TF.ProjectId,pro_micro_shield,70726f5f-6d69-4637-926f-5f736869656c,rev?*
G04 #@! TF.SameCoordinates,Original*
G04 #@! TF.FileFunction,Copper,L1,Top*
G04 #@! TF.FilePolarity,Positive*
%FSLAX46Y46*%
G04 Gerber Fmt 4.6, Leading zero omitted, Abs format (unit mm)*
G04 Created by KiCad (PCBNEW (5.1.5-0-10_14)) date 2020-12-12 23:26:27*
%MOMM*%
%LPD*%
G04 APERTURE LIST*
%ADD10O,1.600000X1.600000*%
%ADD11C,1.600000*%
%ADD12C,2.499360*%
%ADD13R,2.499360X2.499360*%
%ADD14C,1.752600*%
%ADD15R,1.752600X1.752600*%
%ADD16C,0.250000*%
%ADD17C,0.254000*%
G04 APERTURE END LIST*
D10*
X160250000Y-114620000D03*
D11*
X160250000Y-107000000D03*
D12*
X160000000Y-95310000D03*
D13*
X160000000Y-91500000D03*
D12*
X160000000Y-86350000D03*
X160000000Y-83175000D03*
D13*
X160000000Y-80000000D03*
D12*
X181560000Y-107250000D03*
D13*
X177750000Y-107250000D03*
D14*
X182120000Y-73030000D03*
X166880000Y-100970000D03*
X182120000Y-75570000D03*
X182120000Y-78110000D03*
X182120000Y-80650000D03*
X182120000Y-83190000D03*
X182120000Y-85730000D03*
X182120000Y-88270000D03*
X182120000Y-90810000D03*
X182120000Y-93350000D03*
X182120000Y-95890000D03*
X182120000Y-98430000D03*
X182120000Y-100970000D03*
X166880000Y-98430000D03*
X166880000Y-95890000D03*
X166880000Y-93350000D03*
X166880000Y-90810000D03*
X166880000Y-88270000D03*
X166880000Y-85730000D03*
X166880000Y-83190000D03*
X166880000Y-80650000D03*
X166880000Y-78110000D03*
X166880000Y-75570000D03*
D15*
X166880000Y-73030000D03*
D12*
X171060000Y-107250000D03*
D13*
X167250000Y-107250000D03*
D12*
X189000000Y-101150000D03*
X189000000Y-104325000D03*
D13*
X189000000Y-107500000D03*
D12*
X189000000Y-90650000D03*
X189000000Y-93825000D03*
D13*
X189000000Y-97000000D03*
D12*
X189000000Y-80075000D03*
X189000000Y-83250000D03*
D13*
X189000000Y-86425000D03*
D12*
X183350000Y-113500000D03*
X180175000Y-113500000D03*
D13*
X177000000Y-113500000D03*
D12*
X171850000Y-113500000D03*
X168675000Y-113500000D03*
D13*
X165500000Y-113500000D03*
D16*
X184500000Y-84575000D02*
X189000000Y-80075000D01*
X184500000Y-101802180D02*
X184500000Y-84575000D01*
X182802180Y-103500000D02*
X184500000Y-101802180D01*
X177030000Y-103500000D02*
X182802180Y-103500000D01*
X166880000Y-93350000D02*
X177030000Y-103500000D01*
X166880000Y-95890000D02*
X174990000Y-104000000D01*
X182938590Y-104000000D02*
X185000000Y-101938590D01*
X174990000Y-104000000D02*
X182938590Y-104000000D01*
X185000000Y-94650000D02*
X189000000Y-90650000D01*
X185000000Y-101938590D02*
X185000000Y-94650000D01*
X188675000Y-101150000D02*
X189000000Y-101150000D01*
X172950000Y-104500000D02*
X183075000Y-104500000D01*
X166880000Y-98430000D02*
X172950000Y-104500000D01*
X186425000Y-101150000D02*
X189000000Y-101150000D01*
X183075000Y-104500000D02*
X186425000Y-101150000D01*
X161920000Y-88270000D02*
X166880000Y-88270000D01*
X160000000Y-86350000D02*
X161920000Y-88270000D01*
X165660000Y-100970000D02*
X166880000Y-100970000D01*
X160250000Y-107000000D02*
X163750000Y-103500000D01*
X163750000Y-103500000D02*
X163750000Y-99250000D01*
X163750000Y-99250000D02*
X165660000Y-100970000D01*
X160000000Y-95310000D02*
X163750000Y-99250000D01*
D17*
G36*
X191090001Y-73217572D02*
G01*
X191090000Y-73217582D01*
X191090001Y-115467572D01*
X191090000Y-115467582D01*
X191090000Y-115840000D01*
X161002310Y-115840000D01*
X161213414Y-115683519D01*
X161402385Y-115475131D01*
X161547070Y-115233881D01*
X161641909Y-114969040D01*
X161522088Y-114749680D01*
X163612248Y-114749680D01*
X163624508Y-114874162D01*
X163660818Y-114993860D01*
X163719783Y-115104174D01*
X163799135Y-115200865D01*
X163895826Y-115280217D01*
X164006140Y-115339182D01*
X164125838Y-115375492D01*
X164250320Y-115387752D01*
X165214250Y-115384680D01*
X165373000Y-115225930D01*
X165373000Y-113627000D01*
X163774070Y-113627000D01*
X163615320Y-113785750D01*
X163612248Y-114749680D01*
X161522088Y-114749680D01*
X161520624Y-114747000D01*
X160377000Y-114747000D01*
X160377000Y-114767000D01*
X160123000Y-114767000D01*
X160123000Y-114747000D01*
X158979376Y-114747000D01*
X158858091Y-114969040D01*
X158952930Y-115233881D01*
X159097615Y-115475131D01*
X159286586Y-115683519D01*
X159497690Y-115840000D01*
X157910000Y-115840000D01*
X157910000Y-114270960D01*
X158858091Y-114270960D01*
X158979376Y-114493000D01*
X160123000Y-114493000D01*
X160123000Y-113350085D01*
X160377000Y-113350085D01*
X160377000Y-114493000D01*
X161520624Y-114493000D01*
X161641909Y-114270960D01*
X161547070Y-114006119D01*
X161402385Y-113764869D01*
X161213414Y-113556481D01*
X160987420Y-113388963D01*
X160733087Y-113268754D01*
X160599039Y-113228096D01*
X160377000Y-113350085D01*
X160123000Y-113350085D01*
X159900961Y-113228096D01*
X159766913Y-113268754D01*
X159512580Y-113388963D01*
X159286586Y-113556481D01*
X159097615Y-113764869D01*
X158952930Y-114006119D01*
X158858091Y-114270960D01*
X157910000Y-114270960D01*
X157910000Y-112250320D01*
X163612248Y-112250320D01*
X163615320Y-113214250D01*
X163774070Y-113373000D01*
X165373000Y-113373000D01*
X165373000Y-111774070D01*
X165627000Y-111774070D01*
X165627000Y-113373000D01*
X165647000Y-113373000D01*
X165647000Y-113627000D01*
X165627000Y-113627000D01*
X165627000Y-115225930D01*
X165785750Y-115384680D01*
X166749680Y-115387752D01*
X166874162Y-115375492D01*
X166993860Y-115339182D01*
X167104174Y-115280217D01*
X167200865Y-115200865D01*
X167280217Y-115104174D01*
X167339182Y-114993860D01*
X167375492Y-114874162D01*
X167376239Y-114866578D01*
X167473587Y-114963926D01*
X167782269Y-115170182D01*
X168125259Y-115312253D01*
X168489375Y-115384680D01*
X168860625Y-115384680D01*
X169224741Y-115312253D01*
X169567731Y-115170182D01*
X169876413Y-114963926D01*
X170138926Y-114701413D01*
X170262500Y-114516473D01*
X170386074Y-114701413D01*
X170648587Y-114963926D01*
X170957269Y-115170182D01*
X171300259Y-115312253D01*
X171664375Y-115384680D01*
X172035625Y-115384680D01*
X172399741Y-115312253D01*
X172742731Y-115170182D01*
X173051413Y-114963926D01*
X173265659Y-114749680D01*
X175112248Y-114749680D01*
X175124508Y-114874162D01*
X175160818Y-114993860D01*
X175219783Y-115104174D01*
X175299135Y-115200865D01*
X175395826Y-115280217D01*
X175506140Y-115339182D01*
X175625838Y-115375492D01*
X175750320Y-115387752D01*
X176714250Y-115384680D01*
X176873000Y-115225930D01*
X176873000Y-113627000D01*
X175274070Y-113627000D01*
X175115320Y-113785750D01*
X175112248Y-114749680D01*
X173265659Y-114749680D01*
X173313926Y-114701413D01*
X173520182Y-114392731D01*
X173662253Y-114049741D01*
X173734680Y-113685625D01*
X173734680Y-113314375D01*
X173662253Y-112950259D01*
X173520182Y-112607269D01*
X173313926Y-112298587D01*
X173265659Y-112250320D01*
X175112248Y-112250320D01*
X175115320Y-113214250D01*
X175274070Y-113373000D01*
X176873000Y-113373000D01*
X176873000Y-111774070D01*
X177127000Y-111774070D01*
X177127000Y-113373000D01*
X177147000Y-113373000D01*
X177147000Y-113627000D01*
X177127000Y-113627000D01*
X177127000Y-115225930D01*
X177285750Y-115384680D01*
X178249680Y-115387752D01*
X178374162Y-115375492D01*
X178493860Y-115339182D01*
X178604174Y-115280217D01*
X178700865Y-115200865D01*
X178780217Y-115104174D01*
X178839182Y-114993860D01*
X178875492Y-114874162D01*
X178876239Y-114866578D01*
X178973587Y-114963926D01*
X179282269Y-115170182D01*
X179625259Y-115312253D01*
X179989375Y-115384680D01*
X180360625Y-115384680D01*
X180724741Y-115312253D01*
X181067731Y-115170182D01*
X181376413Y-114963926D01*
X181638926Y-114701413D01*
X181762500Y-114516473D01*
X181886074Y-114701413D01*
X182148587Y-114963926D01*
X182457269Y-115170182D01*
X182800259Y-115312253D01*
X183164375Y-115384680D01*
X183535625Y-115384680D01*
X183899741Y-115312253D01*
X184242731Y-115170182D01*
X184551413Y-114963926D01*
X184813926Y-114701413D01*
X185020182Y-114392731D01*
X185162253Y-114049741D01*
X185234680Y-113685625D01*
X185234680Y-113314375D01*
X185162253Y-112950259D01*
X185020182Y-112607269D01*
X184813926Y-112298587D01*
X184551413Y-112036074D01*
X184242731Y-111829818D01*
X183899741Y-111687747D01*
X183535625Y-111615320D01*
X183164375Y-111615320D01*
X182800259Y-111687747D01*
X182457269Y-111829818D01*
X182148587Y-112036074D01*
X181886074Y-112298587D01*
X181762500Y-112483527D01*
X181638926Y-112298587D01*
X181376413Y-112036074D01*
X181067731Y-111829818D01*
X180724741Y-111687747D01*
X180360625Y-111615320D01*
X179989375Y-111615320D01*
X179625259Y-111687747D01*
X179282269Y-111829818D01*
X178973587Y-112036074D01*
X178876239Y-112133422D01*
X178875492Y-112125838D01*
X178839182Y-112006140D01*
X178780217Y-111895826D01*
X178700865Y-111799135D01*
X178604174Y-111719783D01*
X178493860Y-111660818D01*
X178374162Y-111624508D01*
X178249680Y-111612248D01*
X177285750Y-111615320D01*
X177127000Y-111774070D01*
X176873000Y-111774070D01*
X176714250Y-111615320D01*
X175750320Y-111612248D01*
X175625838Y-111624508D01*
X175506140Y-111660818D01*
X175395826Y-111719783D01*
X175299135Y-111799135D01*
X175219783Y-111895826D01*
X175160818Y-112006140D01*
X175124508Y-112125838D01*
X175112248Y-112250320D01*
X173265659Y-112250320D01*
X173051413Y-112036074D01*
X172742731Y-111829818D01*
X172399741Y-111687747D01*
X172035625Y-111615320D01*
X171664375Y-111615320D01*
X171300259Y-111687747D01*
X170957269Y-111829818D01*
X170648587Y-112036074D01*
X170386074Y-112298587D01*
X170262500Y-112483527D01*
X170138926Y-112298587D01*
X169876413Y-112036074D01*
X169567731Y-111829818D01*
X169224741Y-111687747D01*
X168860625Y-111615320D01*
X168489375Y-111615320D01*
X168125259Y-111687747D01*
X167782269Y-111829818D01*
X167473587Y-112036074D01*
X167376239Y-112133422D01*
X167375492Y-112125838D01*
X167339182Y-112006140D01*
X167280217Y-111895826D01*
X167200865Y-111799135D01*
X167104174Y-111719783D01*
X166993860Y-111660818D01*
X166874162Y-111624508D01*
X166749680Y-111612248D01*
X165785750Y-111615320D01*
X165627000Y-111774070D01*
X165373000Y-111774070D01*
X165214250Y-111615320D01*
X164250320Y-111612248D01*
X164125838Y-111624508D01*
X164006140Y-111660818D01*
X163895826Y-111719783D01*
X163799135Y-111799135D01*
X163719783Y-111895826D01*
X163660818Y-112006140D01*
X163624508Y-112125838D01*
X163612248Y-112250320D01*
X157910000Y-112250320D01*
X157910000Y-108499680D01*
X165362248Y-108499680D01*
X165374508Y-108624162D01*
X165410818Y-108743860D01*
X165469783Y-108854174D01*
X165549135Y-108950865D01*
X165645826Y-109030217D01*
X165756140Y-109089182D01*
X165875838Y-109125492D01*
X166000320Y-109137752D01*
X166964250Y-109134680D01*
X167123000Y-108975930D01*
X167123000Y-107377000D01*
X167377000Y-107377000D01*
X167377000Y-108975930D01*
X167535750Y-109134680D01*
X168499680Y-109137752D01*
X168624162Y-109125492D01*
X168743860Y-109089182D01*
X168854174Y-109030217D01*
X168950865Y-108950865D01*
X169030217Y-108854174D01*
X169089182Y-108743860D01*
X169125492Y-108624162D01*
X169137752Y-108499680D01*
X169134680Y-107535750D01*
X168975930Y-107377000D01*
X167377000Y-107377000D01*
X167123000Y-107377000D01*
X165524070Y-107377000D01*
X165365320Y-107535750D01*
X165362248Y-108499680D01*
X157910000Y-108499680D01*
X157910000Y-102579117D01*
X158765000Y-102579117D01*
X158765000Y-102920883D01*
X158831675Y-103256081D01*
X158962463Y-103571831D01*
X159152337Y-103855998D01*
X159394002Y-104097663D01*
X159678169Y-104287537D01*
X159993919Y-104418325D01*
X160329117Y-104485000D01*
X160670883Y-104485000D01*
X161006081Y-104418325D01*
X161321831Y-104287537D01*
X161605998Y-104097663D01*
X161847663Y-103855998D01*
X162037537Y-103571831D01*
X162168325Y-103256081D01*
X162235000Y-102920883D01*
X162235000Y-102579117D01*
X162168325Y-102243919D01*
X162037537Y-101928169D01*
X161847663Y-101644002D01*
X161605998Y-101402337D01*
X161321831Y-101212463D01*
X161006081Y-101081675D01*
X160670883Y-101015000D01*
X160329117Y-101015000D01*
X159993919Y-101081675D01*
X159678169Y-101212463D01*
X159394002Y-101402337D01*
X159152337Y-101644002D01*
X158962463Y-101928169D01*
X158831675Y-102243919D01*
X158765000Y-102579117D01*
X157910000Y-102579117D01*
X157910000Y-90250320D01*
X158112248Y-90250320D01*
X158112248Y-92749680D01*
X158124508Y-92874162D01*
X158160818Y-92993860D01*
X158219783Y-93104174D01*
X158299135Y-93200865D01*
X158395826Y-93280217D01*
X158506140Y-93339182D01*
X158625838Y-93375492D01*
X158750320Y-93387752D01*
X161249680Y-93387752D01*
X161374162Y-93375492D01*
X161493860Y-93339182D01*
X161604174Y-93280217D01*
X161700865Y-93200865D01*
X161780217Y-93104174D01*
X161839182Y-92993860D01*
X161875492Y-92874162D01*
X161887752Y-92749680D01*
X161887752Y-90250320D01*
X161875492Y-90125838D01*
X161839182Y-90006140D01*
X161780217Y-89895826D01*
X161700865Y-89799135D01*
X161604174Y-89719783D01*
X161493860Y-89660818D01*
X161374162Y-89624508D01*
X161249680Y-89612248D01*
X158750320Y-89612248D01*
X158625838Y-89624508D01*
X158506140Y-89660818D01*
X158395826Y-89719783D01*
X158299135Y-89799135D01*
X158219783Y-89895826D01*
X158160818Y-90006140D01*
X158124508Y-90125838D01*
X158112248Y-90250320D01*
X157910000Y-90250320D01*
X157910000Y-86164375D01*
X158115320Y-86164375D01*
X158115320Y-86535625D01*
X158187747Y-86899741D01*
X158329818Y-87242731D01*
X158536074Y-87551413D01*
X158798587Y-87813926D01*
X159107269Y-88020182D01*
X159450259Y-88162253D01*
X159814375Y-88234680D01*
X160185625Y-88234680D01*
X160549741Y-88162253D01*
X160682472Y-88107274D01*
X161356201Y-88781003D01*
X161379999Y-88810001D01*
X161408997Y-88833799D01*
X161495723Y-88904974D01*
X161627753Y-88975546D01*
X161771014Y-89019003D01*
X161882667Y-89030000D01*
X161882676Y-89030000D01*
X161919999Y-89033676D01*
X161957322Y-89030000D01*
X165570190Y-89030000D01*
X165706096Y-89233398D01*
X165916602Y-89443904D01*
X166060420Y-89540000D01*
X165916602Y-89636096D01*
X165706096Y-89846602D01*
X165540703Y-90094131D01*
X165426778Y-90369170D01*
X165368700Y-90661150D01*
X165368700Y-90958850D01*
X165426778Y-91250830D01*
X165540703Y-91525869D01*
X165706096Y-91773398D01*
X165916602Y-91983904D01*
X166060420Y-92080000D01*
X165916602Y-92176096D01*
X165706096Y-92386602D01*
X165540703Y-92634131D01*
X165426778Y-92909170D01*
X165368700Y-93201150D01*
X165368700Y-93498850D01*
X165426778Y-93790830D01*
X165540703Y-94065869D01*
X165706096Y-94313398D01*
X165916602Y-94523904D01*
X166060420Y-94620000D01*
X165916602Y-94716096D01*
X165706096Y-94926602D01*
X165540703Y-95174131D01*
X165426778Y-95449170D01*
X165368700Y-95741150D01*
X165368700Y-96038850D01*
X165426778Y-96330830D01*
X165540703Y-96605869D01*
X165706096Y-96853398D01*
X165916602Y-97063904D01*
X166060420Y-97160000D01*
X165916602Y-97256096D01*
X165706096Y-97466602D01*
X165540703Y-97714131D01*
X165426778Y-97989170D01*
X165368700Y-98281150D01*
X165368700Y-98578850D01*
X165426778Y-98870830D01*
X165540703Y-99145869D01*
X165706096Y-99393398D01*
X165916602Y-99603904D01*
X166060420Y-99700000D01*
X165916602Y-99796096D01*
X165715479Y-99997219D01*
X164301147Y-98723580D01*
X164290001Y-98709999D01*
X164268281Y-98692173D01*
X161739533Y-96035303D01*
X161812253Y-95859741D01*
X161884680Y-95495625D01*
X161884680Y-95124375D01*
X161812253Y-94760259D01*
X161670182Y-94417269D01*
X161463926Y-94108587D01*
X161201413Y-93846074D01*
X160892731Y-93639818D01*
X160549741Y-93497747D01*
X160185625Y-93425320D01*
X159814375Y-93425320D01*
X159450259Y-93497747D01*
X159107269Y-93639818D01*
X158798587Y-93846074D01*
X158536074Y-94108587D01*
X158329818Y-94417269D01*
X158187747Y-94760259D01*
X158115320Y-95124375D01*
X158115320Y-95495625D01*
X158187747Y-95859741D01*
X158329818Y-96202731D01*
X158536074Y-96511413D01*
X158798587Y-96773926D01*
X159107269Y-96980182D01*
X159450259Y-97122253D01*
X159814375Y-97194680D01*
X160185625Y-97194680D01*
X160549741Y-97122253D01*
X160640050Y-97084846D01*
X162990001Y-99553862D01*
X162990000Y-103185197D01*
X160573886Y-105601312D01*
X160391335Y-105565000D01*
X160108665Y-105565000D01*
X159831426Y-105620147D01*
X159570273Y-105728320D01*
X159335241Y-105885363D01*
X159135363Y-106085241D01*
X158978320Y-106320273D01*
X158870147Y-106581426D01*
X158815000Y-106858665D01*
X158815000Y-107141335D01*
X158870147Y-107418574D01*
X158978320Y-107679727D01*
X159135363Y-107914759D01*
X159335241Y-108114637D01*
X159570273Y-108271680D01*
X159831426Y-108379853D01*
X160108665Y-108435000D01*
X160391335Y-108435000D01*
X160668574Y-108379853D01*
X160929727Y-108271680D01*
X161164759Y-108114637D01*
X161364637Y-107914759D01*
X161521680Y-107679727D01*
X161629853Y-107418574D01*
X161685000Y-107141335D01*
X161685000Y-106858665D01*
X161648688Y-106676114D01*
X162324482Y-106000320D01*
X165362248Y-106000320D01*
X165365320Y-106964250D01*
X165524070Y-107123000D01*
X167123000Y-107123000D01*
X167123000Y-105524070D01*
X167377000Y-105524070D01*
X167377000Y-107123000D01*
X168975930Y-107123000D01*
X169034555Y-107064375D01*
X169175320Y-107064375D01*
X169175320Y-107435625D01*
X169247747Y-107799741D01*
X169389818Y-108142731D01*
X169596074Y-108451413D01*
X169858587Y-108713926D01*
X170167269Y-108920182D01*
X170510259Y-109062253D01*
X170874375Y-109134680D01*
X171245625Y-109134680D01*
X171609741Y-109062253D01*
X171952731Y-108920182D01*
X172261413Y-108713926D01*
X172475659Y-108499680D01*
X175862248Y-108499680D01*
X175874508Y-108624162D01*
X175910818Y-108743860D01*
X175969783Y-108854174D01*
X176049135Y-108950865D01*
X176145826Y-109030217D01*
X176256140Y-109089182D01*
X176375838Y-109125492D01*
X176500320Y-109137752D01*
X177464250Y-109134680D01*
X177623000Y-108975930D01*
X177623000Y-107377000D01*
X177877000Y-107377000D01*
X177877000Y-108975930D01*
X178035750Y-109134680D01*
X178999680Y-109137752D01*
X179124162Y-109125492D01*
X179243860Y-109089182D01*
X179354174Y-109030217D01*
X179450865Y-108950865D01*
X179530217Y-108854174D01*
X179589182Y-108743860D01*
X179625492Y-108624162D01*
X179637752Y-108499680D01*
X179634680Y-107535750D01*
X179475930Y-107377000D01*
X177877000Y-107377000D01*
X177623000Y-107377000D01*
X176024070Y-107377000D01*
X175865320Y-107535750D01*
X175862248Y-108499680D01*
X172475659Y-108499680D01*
X172523926Y-108451413D01*
X172730182Y-108142731D01*
X172872253Y-107799741D01*
X172944680Y-107435625D01*
X172944680Y-107064375D01*
X172872253Y-106700259D01*
X172730182Y-106357269D01*
X172523926Y-106048587D01*
X172475659Y-106000320D01*
X175862248Y-106000320D01*
X175865320Y-106964250D01*
X176024070Y-107123000D01*
X177623000Y-107123000D01*
X177623000Y-105524070D01*
X177877000Y-105524070D01*
X177877000Y-107123000D01*
X179475930Y-107123000D01*
X179534555Y-107064375D01*
X179675320Y-107064375D01*
X179675320Y-107435625D01*
X179747747Y-107799741D01*
X179889818Y-108142731D01*
X180096074Y-108451413D01*
X180358587Y-108713926D01*
X180667269Y-108920182D01*
X181010259Y-109062253D01*
X181374375Y-109134680D01*
X181745625Y-109134680D01*
X182109741Y-109062253D01*
X182452731Y-108920182D01*
X182761413Y-108713926D01*
X183023926Y-108451413D01*
X183230182Y-108142731D01*
X183372253Y-107799741D01*
X183444680Y-107435625D01*
X183444680Y-107064375D01*
X183372253Y-106700259D01*
X183230182Y-106357269D01*
X183023926Y-106048587D01*
X182761413Y-105786074D01*
X182452731Y-105579818D01*
X182109741Y-105437747D01*
X181745625Y-105365320D01*
X181374375Y-105365320D01*
X181010259Y-105437747D01*
X180667269Y-105579818D01*
X180358587Y-105786074D01*
X180096074Y-106048587D01*
X179889818Y-106357269D01*
X179747747Y-106700259D01*
X179675320Y-107064375D01*
X179534555Y-107064375D01*
X179634680Y-106964250D01*
X179637752Y-106000320D01*
X179625492Y-105875838D01*
X179589182Y-105756140D01*
X179530217Y-105645826D01*
X179450865Y-105549135D01*
X179354174Y-105469783D01*
X179243860Y-105410818D01*
X179124162Y-105374508D01*
X178999680Y-105362248D01*
X178035750Y-105365320D01*
X177877000Y-105524070D01*
X177623000Y-105524070D01*
X177464250Y-105365320D01*
X176500320Y-105362248D01*
X176375838Y-105374508D01*
X176256140Y-105410818D01*
X176145826Y-105469783D01*
X176049135Y-105549135D01*
X175969783Y-105645826D01*
X175910818Y-105756140D01*
X175874508Y-105875838D01*
X175862248Y-106000320D01*
X172475659Y-106000320D01*
X172261413Y-105786074D01*
X171952731Y-105579818D01*
X171609741Y-105437747D01*
X171245625Y-105365320D01*
X170874375Y-105365320D01*
X170510259Y-105437747D01*
X170167269Y-105579818D01*
X169858587Y-105786074D01*
X169596074Y-106048587D01*
X169389818Y-106357269D01*
X169247747Y-106700259D01*
X169175320Y-107064375D01*
X169034555Y-107064375D01*
X169134680Y-106964250D01*
X169137752Y-106000320D01*
X169125492Y-105875838D01*
X169089182Y-105756140D01*
X169030217Y-105645826D01*
X168950865Y-105549135D01*
X168854174Y-105469783D01*
X168743860Y-105410818D01*
X168624162Y-105374508D01*
X168499680Y-105362248D01*
X167535750Y-105365320D01*
X167377000Y-105524070D01*
X167123000Y-105524070D01*
X166964250Y-105365320D01*
X166000320Y-105362248D01*
X165875838Y-105374508D01*
X165756140Y-105410818D01*
X165645826Y-105469783D01*
X165549135Y-105549135D01*
X165469783Y-105645826D01*
X165410818Y-105756140D01*
X165374508Y-105875838D01*
X165362248Y-106000320D01*
X162324482Y-106000320D01*
X164261009Y-104063794D01*
X164290001Y-104040001D01*
X164313795Y-104011008D01*
X164313799Y-104011004D01*
X164384973Y-103924277D01*
X164384974Y-103924276D01*
X164455546Y-103792247D01*
X164499003Y-103648986D01*
X164510000Y-103537333D01*
X164510000Y-103537324D01*
X164513676Y-103500001D01*
X164510000Y-103462678D01*
X164510000Y-100957139D01*
X165108856Y-101496423D01*
X165119999Y-101510001D01*
X165164377Y-101546421D01*
X165179165Y-101559738D01*
X165193224Y-101570095D01*
X165235724Y-101604974D01*
X165253379Y-101614411D01*
X165269493Y-101626282D01*
X165319260Y-101649625D01*
X165367753Y-101675546D01*
X165386909Y-101681357D01*
X165405031Y-101689857D01*
X165458403Y-101703044D01*
X165511014Y-101719003D01*
X165530937Y-101720965D01*
X165550367Y-101725766D01*
X165567899Y-101726571D01*
X165706096Y-101933398D01*
X165916602Y-102143904D01*
X166164131Y-102309297D01*
X166439170Y-102423222D01*
X166731150Y-102481300D01*
X167028850Y-102481300D01*
X167320830Y-102423222D01*
X167595869Y-102309297D01*
X167843398Y-102143904D01*
X168053904Y-101933398D01*
X168219297Y-101685869D01*
X168333222Y-101410830D01*
X168391300Y-101118850D01*
X168391300Y-101016101D01*
X172386201Y-105011003D01*
X172409999Y-105040001D01*
X172525724Y-105134974D01*
X172657753Y-105205546D01*
X172801014Y-105249003D01*
X172912667Y-105260000D01*
X172912676Y-105260000D01*
X172949999Y-105263676D01*
X172987322Y-105260000D01*
X183037678Y-105260000D01*
X183075000Y-105263676D01*
X183112322Y-105260000D01*
X183112333Y-105260000D01*
X183223986Y-105249003D01*
X183367247Y-105205546D01*
X183499276Y-105134974D01*
X183615001Y-105040001D01*
X183638804Y-105010997D01*
X184272082Y-104377719D01*
X187106935Y-104377719D01*
X187153595Y-104746025D01*
X187271211Y-105098151D01*
X187396685Y-105332896D01*
X187686622Y-105458770D01*
X187571512Y-105573880D01*
X187623001Y-105625369D01*
X187506140Y-105660818D01*
X187395826Y-105719783D01*
X187299135Y-105799135D01*
X187219783Y-105895826D01*
X187160818Y-106006140D01*
X187124508Y-106125838D01*
X187112248Y-106250320D01*
X187112248Y-108749680D01*
X187124508Y-108874162D01*
X187160818Y-108993860D01*
X187219783Y-109104174D01*
X187299135Y-109200865D01*
X187395826Y-109280217D01*
X187506140Y-109339182D01*
X187625838Y-109375492D01*
X187750320Y-109387752D01*
X190249680Y-109387752D01*
X190374162Y-109375492D01*
X190493860Y-109339182D01*
X190604174Y-109280217D01*
X190700865Y-109200865D01*
X190780217Y-109104174D01*
X190839182Y-108993860D01*
X190875492Y-108874162D01*
X190887752Y-108749680D01*
X190887752Y-106250320D01*
X190875492Y-106125838D01*
X190839182Y-106006140D01*
X190780217Y-105895826D01*
X190700865Y-105799135D01*
X190604174Y-105719783D01*
X190493860Y-105660818D01*
X190376999Y-105625369D01*
X190428488Y-105573880D01*
X190313378Y-105458770D01*
X190603315Y-105332896D01*
X190769139Y-105000738D01*
X190866975Y-104642613D01*
X190893065Y-104272281D01*
X190846405Y-103903975D01*
X190728789Y-103551849D01*
X190603315Y-103317104D01*
X190313377Y-103191229D01*
X189179605Y-104325000D01*
X189193748Y-104339142D01*
X189014142Y-104518748D01*
X189000000Y-104504605D01*
X188985858Y-104518748D01*
X188806252Y-104339142D01*
X188820395Y-104325000D01*
X187686623Y-103191229D01*
X187396685Y-103317104D01*
X187230861Y-103649262D01*
X187133025Y-104007387D01*
X187106935Y-104377719D01*
X184272082Y-104377719D01*
X186739803Y-101910000D01*
X187274839Y-101910000D01*
X187329818Y-102042731D01*
X187536074Y-102351413D01*
X187798587Y-102613926D01*
X187984853Y-102738386D01*
X187866229Y-103011623D01*
X189000000Y-104145395D01*
X190133771Y-103011623D01*
X190015147Y-102738386D01*
X190201413Y-102613926D01*
X190463926Y-102351413D01*
X190670182Y-102042731D01*
X190812253Y-101699741D01*
X190884680Y-101335625D01*
X190884680Y-100964375D01*
X190812253Y-100600259D01*
X190670182Y-100257269D01*
X190463926Y-99948587D01*
X190201413Y-99686074D01*
X189892731Y-99479818D01*
X189549741Y-99337747D01*
X189185625Y-99265320D01*
X188814375Y-99265320D01*
X188450259Y-99337747D01*
X188107269Y-99479818D01*
X187798587Y-99686074D01*
X187536074Y-99948587D01*
X187329818Y-100257269D01*
X187274839Y-100390000D01*
X186462322Y-100390000D01*
X186424999Y-100386324D01*
X186387676Y-100390000D01*
X186387667Y-100390000D01*
X186276014Y-100400997D01*
X186132753Y-100444454D01*
X186000724Y-100515026D01*
X186000722Y-100515027D01*
X186000723Y-100515027D01*
X185913996Y-100586201D01*
X185913992Y-100586205D01*
X185884999Y-100609999D01*
X185861205Y-100638992D01*
X185760000Y-100740197D01*
X185760000Y-94964801D01*
X187126629Y-93598172D01*
X187106935Y-93877719D01*
X187153595Y-94246025D01*
X187271211Y-94598151D01*
X187396685Y-94832896D01*
X187686622Y-94958770D01*
X187571512Y-95073880D01*
X187623001Y-95125369D01*
X187506140Y-95160818D01*
X187395826Y-95219783D01*
X187299135Y-95299135D01*
X187219783Y-95395826D01*
X187160818Y-95506140D01*
X187124508Y-95625838D01*
X187112248Y-95750320D01*
X187112248Y-98249680D01*
X187124508Y-98374162D01*
X187160818Y-98493860D01*
X187219783Y-98604174D01*
X187299135Y-98700865D01*
X187395826Y-98780217D01*
X187506140Y-98839182D01*
X187625838Y-98875492D01*
X187750320Y-98887752D01*
X190249680Y-98887752D01*
X190374162Y-98875492D01*
X190493860Y-98839182D01*
X190604174Y-98780217D01*
X190700865Y-98700865D01*
X190780217Y-98604174D01*
X190839182Y-98493860D01*
X190875492Y-98374162D01*
X190887752Y-98249680D01*
X190887752Y-95750320D01*
X190875492Y-95625838D01*
X190839182Y-95506140D01*
X190780217Y-95395826D01*
X190700865Y-95299135D01*
X190604174Y-95219783D01*
X190493860Y-95160818D01*
X190376999Y-95125369D01*
X190428488Y-95073880D01*
X190313378Y-94958770D01*
X190603315Y-94832896D01*
X190769139Y-94500738D01*
X190866975Y-94142613D01*
X190893065Y-93772281D01*
X190846405Y-93403975D01*
X190728789Y-93051849D01*
X190603315Y-92817104D01*
X190313377Y-92691229D01*
X189179605Y-93825000D01*
X189193748Y-93839142D01*
X189014142Y-94018748D01*
X189000000Y-94004605D01*
X188985858Y-94018748D01*
X188806252Y-93839142D01*
X188820395Y-93825000D01*
X188806252Y-93810858D01*
X188985858Y-93631252D01*
X189000000Y-93645395D01*
X190133771Y-92511623D01*
X190015147Y-92238386D01*
X190201413Y-92113926D01*
X190463926Y-91851413D01*
X190670182Y-91542731D01*
X190812253Y-91199741D01*
X190884680Y-90835625D01*
X190884680Y-90464375D01*
X190812253Y-90100259D01*
X190670182Y-89757269D01*
X190463926Y-89448587D01*
X190201413Y-89186074D01*
X189892731Y-88979818D01*
X189549741Y-88837747D01*
X189185625Y-88765320D01*
X188814375Y-88765320D01*
X188450259Y-88837747D01*
X188107269Y-88979818D01*
X187798587Y-89186074D01*
X187536074Y-89448587D01*
X187329818Y-89757269D01*
X187187747Y-90100259D01*
X187115320Y-90464375D01*
X187115320Y-90835625D01*
X187187747Y-91199741D01*
X187242726Y-91332472D01*
X185260000Y-93315199D01*
X185260000Y-84889801D01*
X187126629Y-83023172D01*
X187106935Y-83302719D01*
X187153595Y-83671025D01*
X187271211Y-84023151D01*
X187396685Y-84257896D01*
X187686622Y-84383770D01*
X187571512Y-84498880D01*
X187623001Y-84550369D01*
X187506140Y-84585818D01*
X187395826Y-84644783D01*
X187299135Y-84724135D01*
X187219783Y-84820826D01*
X187160818Y-84931140D01*
X187124508Y-85050838D01*
X187112248Y-85175320D01*
X187112248Y-87674680D01*
X187124508Y-87799162D01*
X187160818Y-87918860D01*
X187219783Y-88029174D01*
X187299135Y-88125865D01*
X187395826Y-88205217D01*
X187506140Y-88264182D01*
X187625838Y-88300492D01*
X187750320Y-88312752D01*
X190249680Y-88312752D01*
X190374162Y-88300492D01*
X190493860Y-88264182D01*
X190604174Y-88205217D01*
X190700865Y-88125865D01*
X190780217Y-88029174D01*
X190839182Y-87918860D01*
X190875492Y-87799162D01*
X190887752Y-87674680D01*
X190887752Y-85175320D01*
X190875492Y-85050838D01*
X190839182Y-84931140D01*
X190780217Y-84820826D01*
X190700865Y-84724135D01*
X190604174Y-84644783D01*
X190493860Y-84585818D01*
X190376999Y-84550369D01*
X190428488Y-84498880D01*
X190313378Y-84383770D01*
X190603315Y-84257896D01*
X190769139Y-83925738D01*
X190866975Y-83567613D01*
X190893065Y-83197281D01*
X190846405Y-82828975D01*
X190728789Y-82476849D01*
X190603315Y-82242104D01*
X190313377Y-82116229D01*
X189179605Y-83250000D01*
X189193748Y-83264142D01*
X189014142Y-83443748D01*
X189000000Y-83429605D01*
X188985858Y-83443748D01*
X188806252Y-83264142D01*
X188820395Y-83250000D01*
X188806252Y-83235858D01*
X188985858Y-83056252D01*
X189000000Y-83070395D01*
X190133771Y-81936623D01*
X190015147Y-81663386D01*
X190201413Y-81538926D01*
X190463926Y-81276413D01*
X190670182Y-80967731D01*
X190812253Y-80624741D01*
X190884680Y-80260625D01*
X190884680Y-79889375D01*
X190812253Y-79525259D01*
X190670182Y-79182269D01*
X190463926Y-78873587D01*
X190201413Y-78611074D01*
X189892731Y-78404818D01*
X189549741Y-78262747D01*
X189185625Y-78190320D01*
X188814375Y-78190320D01*
X188450259Y-78262747D01*
X188107269Y-78404818D01*
X187798587Y-78611074D01*
X187536074Y-78873587D01*
X187329818Y-79182269D01*
X187187747Y-79525259D01*
X187115320Y-79889375D01*
X187115320Y-80260625D01*
X187187747Y-80624741D01*
X187242726Y-80757472D01*
X183988998Y-84011201D01*
X183960000Y-84034999D01*
X183936202Y-84063997D01*
X183936201Y-84063998D01*
X183865026Y-84150724D01*
X183794454Y-84282754D01*
X183750998Y-84426015D01*
X183736324Y-84575000D01*
X183740001Y-84612333D01*
X183740000Y-101487378D01*
X182487379Y-102740000D01*
X177344802Y-102740000D01*
X168343576Y-93738775D01*
X168391300Y-93498850D01*
X168391300Y-93201150D01*
X168333222Y-92909170D01*
X168219297Y-92634131D01*
X168053904Y-92386602D01*
X167843398Y-92176096D01*
X167699580Y-92080000D01*
X167843398Y-91983904D01*
X168053904Y-91773398D01*
X168219297Y-91525869D01*
X168333222Y-91250830D01*
X168391300Y-90958850D01*
X168391300Y-90661150D01*
X168333222Y-90369170D01*
X168219297Y-90094131D01*
X168053904Y-89846602D01*
X167843398Y-89636096D01*
X167699580Y-89540000D01*
X167843398Y-89443904D01*
X168053904Y-89233398D01*
X168219297Y-88985869D01*
X168333222Y-88710830D01*
X168391300Y-88418850D01*
X168391300Y-88121150D01*
X168333222Y-87829170D01*
X168219297Y-87554131D01*
X168053904Y-87306602D01*
X167843398Y-87096096D01*
X167699580Y-87000000D01*
X167843398Y-86903904D01*
X168053904Y-86693398D01*
X168219297Y-86445869D01*
X168333222Y-86170830D01*
X168391300Y-85878850D01*
X168391300Y-85581150D01*
X168333222Y-85289170D01*
X168219297Y-85014131D01*
X168053904Y-84766602D01*
X167843398Y-84556096D01*
X167699580Y-84460000D01*
X167843398Y-84363904D01*
X168053904Y-84153398D01*
X168219297Y-83905869D01*
X168333222Y-83630830D01*
X168391300Y-83338850D01*
X168391300Y-83041150D01*
X168333222Y-82749170D01*
X168219297Y-82474131D01*
X168053904Y-82226602D01*
X167843398Y-82016096D01*
X167680191Y-81907045D01*
X167747563Y-81697169D01*
X166880000Y-80829605D01*
X166012437Y-81697169D01*
X166079809Y-81907045D01*
X165916602Y-82016096D01*
X165706096Y-82226602D01*
X165540703Y-82474131D01*
X165426778Y-82749170D01*
X165368700Y-83041150D01*
X165368700Y-83338850D01*
X165426778Y-83630830D01*
X165540703Y-83905869D01*
X165706096Y-84153398D01*
X165916602Y-84363904D01*
X166060420Y-84460000D01*
X165916602Y-84556096D01*
X165706096Y-84766602D01*
X165540703Y-85014131D01*
X165426778Y-85289170D01*
X165368700Y-85581150D01*
X165368700Y-85878850D01*
X165426778Y-86170830D01*
X165540703Y-86445869D01*
X165706096Y-86693398D01*
X165916602Y-86903904D01*
X166060420Y-87000000D01*
X165916602Y-87096096D01*
X165706096Y-87306602D01*
X165570190Y-87510000D01*
X162234802Y-87510000D01*
X161757274Y-87032472D01*
X161812253Y-86899741D01*
X161884680Y-86535625D01*
X161884680Y-86164375D01*
X161812253Y-85800259D01*
X161670182Y-85457269D01*
X161463926Y-85148587D01*
X161201413Y-84886074D01*
X161015147Y-84761614D01*
X161133771Y-84488377D01*
X160000000Y-83354605D01*
X158866229Y-84488377D01*
X158984853Y-84761614D01*
X158798587Y-84886074D01*
X158536074Y-85148587D01*
X158329818Y-85457269D01*
X158187747Y-85800259D01*
X158115320Y-86164375D01*
X157910000Y-86164375D01*
X157910000Y-83227719D01*
X158106935Y-83227719D01*
X158153595Y-83596025D01*
X158271211Y-83948151D01*
X158396685Y-84182896D01*
X158686623Y-84308771D01*
X159820395Y-83175000D01*
X159806252Y-83160858D01*
X159985858Y-82981252D01*
X160000000Y-82995395D01*
X160014142Y-82981252D01*
X160193748Y-83160858D01*
X160179605Y-83175000D01*
X161313377Y-84308771D01*
X161603315Y-84182896D01*
X161769139Y-83850738D01*
X161866975Y-83492613D01*
X161893065Y-83122281D01*
X161846405Y-82753975D01*
X161728789Y-82401849D01*
X161603315Y-82167104D01*
X161313378Y-82041230D01*
X161428488Y-81926120D01*
X161376999Y-81874631D01*
X161493860Y-81839182D01*
X161604174Y-81780217D01*
X161700865Y-81700865D01*
X161780217Y-81604174D01*
X161839182Y-81493860D01*
X161875492Y-81374162D01*
X161887752Y-81249680D01*
X161887752Y-80717491D01*
X165362887Y-80717491D01*
X165405204Y-81012167D01*
X165504198Y-81292927D01*
X165581071Y-81436746D01*
X165832831Y-81517563D01*
X166700395Y-80650000D01*
X167059605Y-80650000D01*
X167927169Y-81517563D01*
X168178929Y-81436746D01*
X168307457Y-81168221D01*
X168381129Y-80879781D01*
X168397113Y-80582509D01*
X168354796Y-80287833D01*
X168255802Y-80007073D01*
X168178929Y-79863254D01*
X167927169Y-79782437D01*
X167059605Y-80650000D01*
X166700395Y-80650000D01*
X165832831Y-79782437D01*
X165581071Y-79863254D01*
X165452543Y-80131779D01*
X165378871Y-80420219D01*
X165362887Y-80717491D01*
X161887752Y-80717491D01*
X161887752Y-79157169D01*
X166012437Y-79157169D01*
X166083968Y-79380000D01*
X166012437Y-79602831D01*
X166880000Y-80470395D01*
X167747563Y-79602831D01*
X167676032Y-79380000D01*
X167747563Y-79157169D01*
X166880000Y-78289605D01*
X166012437Y-79157169D01*
X161887752Y-79157169D01*
X161887752Y-78750320D01*
X161875492Y-78625838D01*
X161839182Y-78506140D01*
X161780217Y-78395826D01*
X161700865Y-78299135D01*
X161604174Y-78219783D01*
X161525053Y-78177491D01*
X165362887Y-78177491D01*
X165405204Y-78472167D01*
X165504198Y-78752927D01*
X165581071Y-78896746D01*
X165832831Y-78977563D01*
X166700395Y-78110000D01*
X167059605Y-78110000D01*
X167927169Y-78977563D01*
X168178929Y-78896746D01*
X168307457Y-78628221D01*
X168381129Y-78339781D01*
X168397113Y-78042509D01*
X168385430Y-77961150D01*
X180608700Y-77961150D01*
X180608700Y-78258850D01*
X180666778Y-78550830D01*
X180780703Y-78825869D01*
X180946096Y-79073398D01*
X181156602Y-79283904D01*
X181300420Y-79380000D01*
X181156602Y-79476096D01*
X180946096Y-79686602D01*
X180780703Y-79934131D01*
X180666778Y-80209170D01*
X180608700Y-80501150D01*
X180608700Y-80798850D01*
X180666778Y-81090830D01*
X180780703Y-81365869D01*
X180946096Y-81613398D01*
X181156602Y-81823904D01*
X181300420Y-81920000D01*
X181156602Y-82016096D01*
X180946096Y-82226602D01*
X180780703Y-82474131D01*
X180666778Y-82749170D01*
X180608700Y-83041150D01*
X180608700Y-83338850D01*
X180666778Y-83630830D01*
X180780703Y-83905869D01*
X180946096Y-84153398D01*
X181156602Y-84363904D01*
X181300420Y-84460000D01*
X181156602Y-84556096D01*
X180946096Y-84766602D01*
X180780703Y-85014131D01*
X180666778Y-85289170D01*
X180608700Y-85581150D01*
X180608700Y-85878850D01*
X180666778Y-86170830D01*
X180780703Y-86445869D01*
X180946096Y-86693398D01*
X181156602Y-86903904D01*
X181300420Y-87000000D01*
X181156602Y-87096096D01*
X180946096Y-87306602D01*
X180780703Y-87554131D01*
X180666778Y-87829170D01*
X180608700Y-88121150D01*
X180608700Y-88418850D01*
X180666778Y-88710830D01*
X180780703Y-88985869D01*
X180946096Y-89233398D01*
X181156602Y-89443904D01*
X181300420Y-89540000D01*
X181156602Y-89636096D01*
X180946096Y-89846602D01*
X180780703Y-90094131D01*
X180666778Y-90369170D01*
X180608700Y-90661150D01*
X180608700Y-90958850D01*
X180666778Y-91250830D01*
X180780703Y-91525869D01*
X180946096Y-91773398D01*
X181156602Y-91983904D01*
X181300420Y-92080000D01*
X181156602Y-92176096D01*
X180946096Y-92386602D01*
X180780703Y-92634131D01*
X180666778Y-92909170D01*
X180608700Y-93201150D01*
X180608700Y-93498850D01*
X180666778Y-93790830D01*
X180780703Y-94065869D01*
X180946096Y-94313398D01*
X181156602Y-94523904D01*
X181300420Y-94620000D01*
X181156602Y-94716096D01*
X180946096Y-94926602D01*
X180780703Y-95174131D01*
X180666778Y-95449170D01*
X180608700Y-95741150D01*
X180608700Y-96038850D01*
X180666778Y-96330830D01*
X180780703Y-96605869D01*
X180946096Y-96853398D01*
X181156602Y-97063904D01*
X181300420Y-97160000D01*
X181156602Y-97256096D01*
X180946096Y-97466602D01*
X180780703Y-97714131D01*
X180666778Y-97989170D01*
X180608700Y-98281150D01*
X180608700Y-98578850D01*
X180666778Y-98870830D01*
X180780703Y-99145869D01*
X180946096Y-99393398D01*
X181156602Y-99603904D01*
X181300420Y-99700000D01*
X181156602Y-99796096D01*
X180946096Y-100006602D01*
X180780703Y-100254131D01*
X180666778Y-100529170D01*
X180608700Y-100821150D01*
X180608700Y-101118850D01*
X180666778Y-101410830D01*
X180780703Y-101685869D01*
X180946096Y-101933398D01*
X181156602Y-102143904D01*
X181404131Y-102309297D01*
X181679170Y-102423222D01*
X181971150Y-102481300D01*
X182268850Y-102481300D01*
X182560830Y-102423222D01*
X182835869Y-102309297D01*
X183083398Y-102143904D01*
X183293904Y-101933398D01*
X183459297Y-101685869D01*
X183573222Y-101410830D01*
X183631300Y-101118850D01*
X183631300Y-100821150D01*
X183573222Y-100529170D01*
X183459297Y-100254131D01*
X183293904Y-100006602D01*
X183083398Y-99796096D01*
X182939580Y-99700000D01*
X183083398Y-99603904D01*
X183293904Y-99393398D01*
X183459297Y-99145869D01*
X183573222Y-98870830D01*
X183631300Y-98578850D01*
X183631300Y-98281150D01*
X183573222Y-97989170D01*
X183459297Y-97714131D01*
X183293904Y-97466602D01*
X183083398Y-97256096D01*
X182939580Y-97160000D01*
X183083398Y-97063904D01*
X183293904Y-96853398D01*
X183459297Y-96605869D01*
X183573222Y-96330830D01*
X183631300Y-96038850D01*
X183631300Y-95741150D01*
X183573222Y-95449170D01*
X183459297Y-95174131D01*
X183293904Y-94926602D01*
X183083398Y-94716096D01*
X182939580Y-94620000D01*
X183083398Y-94523904D01*
X183293904Y-94313398D01*
X183459297Y-94065869D01*
X183573222Y-93790830D01*
X183631300Y-93498850D01*
X183631300Y-93201150D01*
X183573222Y-92909170D01*
X183459297Y-92634131D01*
X183293904Y-92386602D01*
X183083398Y-92176096D01*
X182939580Y-92080000D01*
X183083398Y-91983904D01*
X183293904Y-91773398D01*
X183459297Y-91525869D01*
X183573222Y-91250830D01*
X183631300Y-90958850D01*
X183631300Y-90661150D01*
X183573222Y-90369170D01*
X183459297Y-90094131D01*
X183293904Y-89846602D01*
X183083398Y-89636096D01*
X182939580Y-89540000D01*
X183083398Y-89443904D01*
X183293904Y-89233398D01*
X183459297Y-88985869D01*
X183573222Y-88710830D01*
X183631300Y-88418850D01*
X183631300Y-88121150D01*
X183573222Y-87829170D01*
X183459297Y-87554131D01*
X183293904Y-87306602D01*
X183083398Y-87096096D01*
X182939580Y-87000000D01*
X183083398Y-86903904D01*
X183293904Y-86693398D01*
X183459297Y-86445869D01*
X183573222Y-86170830D01*
X183631300Y-85878850D01*
X183631300Y-85581150D01*
X183573222Y-85289170D01*
X183459297Y-85014131D01*
X183293904Y-84766602D01*
X183083398Y-84556096D01*
X182939580Y-84460000D01*
X183083398Y-84363904D01*
X183293904Y-84153398D01*
X183459297Y-83905869D01*
X183573222Y-83630830D01*
X183631300Y-83338850D01*
X183631300Y-83041150D01*
X183573222Y-82749170D01*
X183459297Y-82474131D01*
X183293904Y-82226602D01*
X183083398Y-82016096D01*
X182939580Y-81920000D01*
X183083398Y-81823904D01*
X183293904Y-81613398D01*
X183459297Y-81365869D01*
X183573222Y-81090830D01*
X183631300Y-80798850D01*
X183631300Y-80501150D01*
X183573222Y-80209170D01*
X183459297Y-79934131D01*
X183293904Y-79686602D01*
X183083398Y-79476096D01*
X182939580Y-79380000D01*
X183083398Y-79283904D01*
X183293904Y-79073398D01*
X183459297Y-78825869D01*
X183573222Y-78550830D01*
X183631300Y-78258850D01*
X183631300Y-77961150D01*
X183573222Y-77669170D01*
X183459297Y-77394131D01*
X183293904Y-77146602D01*
X183083398Y-76936096D01*
X182920191Y-76827045D01*
X182987563Y-76617169D01*
X182120000Y-75749605D01*
X181252437Y-76617169D01*
X181319809Y-76827045D01*
X181156602Y-76936096D01*
X180946096Y-77146602D01*
X180780703Y-77394131D01*
X180666778Y-77669170D01*
X180608700Y-77961150D01*
X168385430Y-77961150D01*
X168354796Y-77747833D01*
X168255802Y-77467073D01*
X168178929Y-77323254D01*
X167927169Y-77242437D01*
X167059605Y-78110000D01*
X166700395Y-78110000D01*
X165832831Y-77242437D01*
X165581071Y-77323254D01*
X165452543Y-77591779D01*
X165378871Y-77880219D01*
X165362887Y-78177491D01*
X161525053Y-78177491D01*
X161493860Y-78160818D01*
X161374162Y-78124508D01*
X161249680Y-78112248D01*
X158750320Y-78112248D01*
X158625838Y-78124508D01*
X158506140Y-78160818D01*
X158395826Y-78219783D01*
X158299135Y-78299135D01*
X158219783Y-78395826D01*
X158160818Y-78506140D01*
X158124508Y-78625838D01*
X158112248Y-78750320D01*
X158112248Y-81249680D01*
X158124508Y-81374162D01*
X158160818Y-81493860D01*
X158219783Y-81604174D01*
X158299135Y-81700865D01*
X158395826Y-81780217D01*
X158506140Y-81839182D01*
X158623001Y-81874631D01*
X158571512Y-81926120D01*
X158686622Y-82041230D01*
X158396685Y-82167104D01*
X158230861Y-82499262D01*
X158133025Y-82857387D01*
X158106935Y-83227719D01*
X157910000Y-83227719D01*
X157910000Y-73829117D01*
X158765000Y-73829117D01*
X158765000Y-74170883D01*
X158831675Y-74506081D01*
X158962463Y-74821831D01*
X159152337Y-75105998D01*
X159394002Y-75347663D01*
X159678169Y-75537537D01*
X159993919Y-75668325D01*
X160329117Y-75735000D01*
X160670883Y-75735000D01*
X161006081Y-75668325D01*
X161321831Y-75537537D01*
X161605998Y-75347663D01*
X161847663Y-75105998D01*
X162037537Y-74821831D01*
X162168325Y-74506081D01*
X162235000Y-74170883D01*
X162235000Y-73829117D01*
X162168325Y-73493919D01*
X162037537Y-73178169D01*
X161847663Y-72894002D01*
X161605998Y-72652337D01*
X161321831Y-72462463D01*
X161006081Y-72331675D01*
X160670883Y-72265000D01*
X160329117Y-72265000D01*
X159993919Y-72331675D01*
X159678169Y-72462463D01*
X159394002Y-72652337D01*
X159152337Y-72894002D01*
X158962463Y-73178169D01*
X158831675Y-73493919D01*
X158765000Y-73829117D01*
X157910000Y-73829117D01*
X157910000Y-72153700D01*
X165365628Y-72153700D01*
X165365628Y-73906300D01*
X165377888Y-74030782D01*
X165414198Y-74150480D01*
X165473163Y-74260794D01*
X165552515Y-74357485D01*
X165649206Y-74436837D01*
X165759520Y-74495802D01*
X165803542Y-74509156D01*
X165706096Y-74606602D01*
X165540703Y-74854131D01*
X165426778Y-75129170D01*
X165368700Y-75421150D01*
X165368700Y-75718850D01*
X165426778Y-76010830D01*
X165540703Y-76285869D01*
X165706096Y-76533398D01*
X165916602Y-76743904D01*
X166079809Y-76852955D01*
X166012437Y-77062831D01*
X166880000Y-77930395D01*
X167747563Y-77062831D01*
X167680191Y-76852955D01*
X167843398Y-76743904D01*
X168053904Y-76533398D01*
X168219297Y-76285869D01*
X168333222Y-76010830D01*
X168391300Y-75718850D01*
X168391300Y-75637491D01*
X180602887Y-75637491D01*
X180645204Y-75932167D01*
X180744198Y-76212927D01*
X180821071Y-76356746D01*
X181072831Y-76437563D01*
X181940395Y-75570000D01*
X182299605Y-75570000D01*
X183167169Y-76437563D01*
X183418929Y-76356746D01*
X183547457Y-76088221D01*
X183621129Y-75799781D01*
X183637113Y-75502509D01*
X183594796Y-75207833D01*
X183495802Y-74927073D01*
X183418929Y-74783254D01*
X183167169Y-74702437D01*
X182299605Y-75570000D01*
X181940395Y-75570000D01*
X181072831Y-74702437D01*
X180821071Y-74783254D01*
X180692543Y-75051779D01*
X180618871Y-75340219D01*
X180602887Y-75637491D01*
X168391300Y-75637491D01*
X168391300Y-75421150D01*
X168333222Y-75129170D01*
X168219297Y-74854131D01*
X168053904Y-74606602D01*
X167956458Y-74509156D01*
X168000480Y-74495802D01*
X168110794Y-74436837D01*
X168207485Y-74357485D01*
X168286837Y-74260794D01*
X168345802Y-74150480D01*
X168382112Y-74030782D01*
X168394372Y-73906300D01*
X168394372Y-72881150D01*
X180608700Y-72881150D01*
X180608700Y-73178850D01*
X180666778Y-73470830D01*
X180780703Y-73745869D01*
X180946096Y-73993398D01*
X181156602Y-74203904D01*
X181319809Y-74312955D01*
X181252437Y-74522831D01*
X182120000Y-75390395D01*
X182987563Y-74522831D01*
X182920191Y-74312955D01*
X183083398Y-74203904D01*
X183293904Y-73993398D01*
X183403672Y-73829117D01*
X186765000Y-73829117D01*
X186765000Y-74170883D01*
X186831675Y-74506081D01*
X186962463Y-74821831D01*
X187152337Y-75105998D01*
X187394002Y-75347663D01*
X187678169Y-75537537D01*
X187993919Y-75668325D01*
X188329117Y-75735000D01*
X188670883Y-75735000D01*
X189006081Y-75668325D01*
X189321831Y-75537537D01*
X189605998Y-75347663D01*
X189847663Y-75105998D01*
X190037537Y-74821831D01*
X190168325Y-74506081D01*
X190235000Y-74170883D01*
X190235000Y-73829117D01*
X190168325Y-73493919D01*
X190037537Y-73178169D01*
X189847663Y-72894002D01*
X189605998Y-72652337D01*
X189321831Y-72462463D01*
X189006081Y-72331675D01*
X188670883Y-72265000D01*
X188329117Y-72265000D01*
X187993919Y-72331675D01*
X187678169Y-72462463D01*
X187394002Y-72652337D01*
X187152337Y-72894002D01*
X186962463Y-73178169D01*
X186831675Y-73493919D01*
X186765000Y-73829117D01*
X183403672Y-73829117D01*
X183459297Y-73745869D01*
X183573222Y-73470830D01*
X183631300Y-73178850D01*
X183631300Y-72881150D01*
X183573222Y-72589170D01*
X183459297Y-72314131D01*
X183293904Y-72066602D01*
X183083398Y-71856096D01*
X182835869Y-71690703D01*
X182560830Y-71576778D01*
X182268850Y-71518700D01*
X181971150Y-71518700D01*
X181679170Y-71576778D01*
X181404131Y-71690703D01*
X181156602Y-71856096D01*
X180946096Y-72066602D01*
X180780703Y-72314131D01*
X180666778Y-72589170D01*
X180608700Y-72881150D01*
X168394372Y-72881150D01*
X168394372Y-72153700D01*
X168382112Y-72029218D01*
X168345802Y-71909520D01*
X168286837Y-71799206D01*
X168207485Y-71702515D01*
X168110794Y-71623163D01*
X168000480Y-71564198D01*
X167880782Y-71527888D01*
X167756300Y-71515628D01*
X166003700Y-71515628D01*
X165879218Y-71527888D01*
X165759520Y-71564198D01*
X165649206Y-71623163D01*
X165552515Y-71702515D01*
X165473163Y-71799206D01*
X165414198Y-71909520D01*
X165377888Y-72029218D01*
X165365628Y-72153700D01*
X157910000Y-72153700D01*
X157910000Y-71410000D01*
X191090000Y-71410000D01*
X191090001Y-73217572D01*
G37*
X191090001Y-73217572D02*
X191090000Y-73217582D01*
X191090001Y-115467572D01*
X191090000Y-115467582D01*
X191090000Y-115840000D01*
X161002310Y-115840000D01*
X161213414Y-115683519D01*
X161402385Y-115475131D01*
X161547070Y-115233881D01*
X161641909Y-114969040D01*
X161522088Y-114749680D01*
X163612248Y-114749680D01*
X163624508Y-114874162D01*
X163660818Y-114993860D01*
X163719783Y-115104174D01*
X163799135Y-115200865D01*
X163895826Y-115280217D01*
X164006140Y-115339182D01*
X164125838Y-115375492D01*
X164250320Y-115387752D01*
X165214250Y-115384680D01*
X165373000Y-115225930D01*
X165373000Y-113627000D01*
X163774070Y-113627000D01*
X163615320Y-113785750D01*
X163612248Y-114749680D01*
X161522088Y-114749680D01*
X161520624Y-114747000D01*
X160377000Y-114747000D01*
X160377000Y-114767000D01*
X160123000Y-114767000D01*
X160123000Y-114747000D01*
X158979376Y-114747000D01*
X158858091Y-114969040D01*
X158952930Y-115233881D01*
X159097615Y-115475131D01*
X159286586Y-115683519D01*
X159497690Y-115840000D01*
X157910000Y-115840000D01*
X157910000Y-114270960D01*
X158858091Y-114270960D01*
X158979376Y-114493000D01*
X160123000Y-114493000D01*
X160123000Y-113350085D01*
X160377000Y-113350085D01*
X160377000Y-114493000D01*
X161520624Y-114493000D01*
X161641909Y-114270960D01*
X161547070Y-114006119D01*
X161402385Y-113764869D01*
X161213414Y-113556481D01*
X160987420Y-113388963D01*
X160733087Y-113268754D01*
X160599039Y-113228096D01*
X160377000Y-113350085D01*
X160123000Y-113350085D01*
X159900961Y-113228096D01*
X159766913Y-113268754D01*
X159512580Y-113388963D01*
X159286586Y-113556481D01*
X159097615Y-113764869D01*
X158952930Y-114006119D01*
X158858091Y-114270960D01*
X157910000Y-114270960D01*
X157910000Y-112250320D01*
X163612248Y-112250320D01*
X163615320Y-113214250D01*
X163774070Y-113373000D01*
X165373000Y-113373000D01*
X165373000Y-111774070D01*
X165627000Y-111774070D01*
X165627000Y-113373000D01*
X165647000Y-113373000D01*
X165647000Y-113627000D01*
X165627000Y-113627000D01*
X165627000Y-115225930D01*
X165785750Y-115384680D01*
X166749680Y-115387752D01*
X166874162Y-115375492D01*
X166993860Y-115339182D01*
X167104174Y-115280217D01*
X167200865Y-115200865D01*
X167280217Y-115104174D01*
X167339182Y-114993860D01*
X167375492Y-114874162D01*
X167376239Y-114866578D01*
X167473587Y-114963926D01*
X167782269Y-115170182D01*
X168125259Y-115312253D01*
X168489375Y-115384680D01*
X168860625Y-115384680D01*
X169224741Y-115312253D01*
X169567731Y-115170182D01*
X169876413Y-114963926D01*
X170138926Y-114701413D01*
X170262500Y-114516473D01*
X170386074Y-114701413D01*
X170648587Y-114963926D01*
X170957269Y-115170182D01*
X171300259Y-115312253D01*
X171664375Y-115384680D01*
X172035625Y-115384680D01*
X172399741Y-115312253D01*
X172742731Y-115170182D01*
X173051413Y-114963926D01*
X173265659Y-114749680D01*
X175112248Y-114749680D01*
X175124508Y-114874162D01*
X175160818Y-114993860D01*
X175219783Y-115104174D01*
X175299135Y-115200865D01*
X175395826Y-115280217D01*
X175506140Y-115339182D01*
X175625838Y-115375492D01*
X175750320Y-115387752D01*
X176714250Y-115384680D01*
X176873000Y-115225930D01*
X176873000Y-113627000D01*
X175274070Y-113627000D01*
X175115320Y-113785750D01*
X175112248Y-114749680D01*
X173265659Y-114749680D01*
X173313926Y-114701413D01*
X173520182Y-114392731D01*
X173662253Y-114049741D01*
X173734680Y-113685625D01*
X173734680Y-113314375D01*
X173662253Y-112950259D01*
X173520182Y-112607269D01*
X173313926Y-112298587D01*
X173265659Y-112250320D01*
X175112248Y-112250320D01*
X175115320Y-113214250D01*
X175274070Y-113373000D01*
X176873000Y-113373000D01*
X176873000Y-111774070D01*
X177127000Y-111774070D01*
X177127000Y-113373000D01*
X177147000Y-113373000D01*
X177147000Y-113627000D01*
X177127000Y-113627000D01*
X177127000Y-115225930D01*
X177285750Y-115384680D01*
X178249680Y-115387752D01*
X178374162Y-115375492D01*
X178493860Y-115339182D01*
X178604174Y-115280217D01*
X178700865Y-115200865D01*
X178780217Y-115104174D01*
X178839182Y-114993860D01*
X178875492Y-114874162D01*
X178876239Y-114866578D01*
X178973587Y-114963926D01*
X179282269Y-115170182D01*
X179625259Y-115312253D01*
X179989375Y-115384680D01*
X180360625Y-115384680D01*
X180724741Y-115312253D01*
X181067731Y-115170182D01*
X181376413Y-114963926D01*
X181638926Y-114701413D01*
X181762500Y-114516473D01*
X181886074Y-114701413D01*
X182148587Y-114963926D01*
X182457269Y-115170182D01*
X182800259Y-115312253D01*
X183164375Y-115384680D01*
X183535625Y-115384680D01*
X183899741Y-115312253D01*
X184242731Y-115170182D01*
X184551413Y-114963926D01*
X184813926Y-114701413D01*
X185020182Y-114392731D01*
X185162253Y-114049741D01*
X185234680Y-113685625D01*
X185234680Y-113314375D01*
X185162253Y-112950259D01*
X185020182Y-112607269D01*
X184813926Y-112298587D01*
X184551413Y-112036074D01*
X184242731Y-111829818D01*
X183899741Y-111687747D01*
X183535625Y-111615320D01*
X183164375Y-111615320D01*
X182800259Y-111687747D01*
X182457269Y-111829818D01*
X182148587Y-112036074D01*
X181886074Y-112298587D01*
X181762500Y-112483527D01*
X181638926Y-112298587D01*
X181376413Y-112036074D01*
X181067731Y-111829818D01*
X180724741Y-111687747D01*
X180360625Y-111615320D01*
X179989375Y-111615320D01*
X179625259Y-111687747D01*
X179282269Y-111829818D01*
X178973587Y-112036074D01*
X178876239Y-112133422D01*
X178875492Y-112125838D01*
X178839182Y-112006140D01*
X178780217Y-111895826D01*
X178700865Y-111799135D01*
X178604174Y-111719783D01*
X178493860Y-111660818D01*
X178374162Y-111624508D01*
X178249680Y-111612248D01*
X177285750Y-111615320D01*
X177127000Y-111774070D01*
X176873000Y-111774070D01*
X176714250Y-111615320D01*
X175750320Y-111612248D01*
X175625838Y-111624508D01*
X175506140Y-111660818D01*
X175395826Y-111719783D01*
X175299135Y-111799135D01*
X175219783Y-111895826D01*
X175160818Y-112006140D01*
X175124508Y-112125838D01*
X175112248Y-112250320D01*
X173265659Y-112250320D01*
X173051413Y-112036074D01*
X172742731Y-111829818D01*
X172399741Y-111687747D01*
X172035625Y-111615320D01*
X171664375Y-111615320D01*
X171300259Y-111687747D01*
X170957269Y-111829818D01*
X170648587Y-112036074D01*
X170386074Y-112298587D01*
X170262500Y-112483527D01*
X170138926Y-112298587D01*
X169876413Y-112036074D01*
X169567731Y-111829818D01*
X169224741Y-111687747D01*
X168860625Y-111615320D01*
X168489375Y-111615320D01*
X168125259Y-111687747D01*
X167782269Y-111829818D01*
X167473587Y-112036074D01*
X167376239Y-112133422D01*
X167375492Y-112125838D01*
X167339182Y-112006140D01*
X167280217Y-111895826D01*
X167200865Y-111799135D01*
X167104174Y-111719783D01*
X166993860Y-111660818D01*
X166874162Y-111624508D01*
X166749680Y-111612248D01*
X165785750Y-111615320D01*
X165627000Y-111774070D01*
X165373000Y-111774070D01*
X165214250Y-111615320D01*
X164250320Y-111612248D01*
X164125838Y-111624508D01*
X164006140Y-111660818D01*
X163895826Y-111719783D01*
X163799135Y-111799135D01*
X163719783Y-111895826D01*
X163660818Y-112006140D01*
X163624508Y-112125838D01*
X163612248Y-112250320D01*
X157910000Y-112250320D01*
X157910000Y-108499680D01*
X165362248Y-108499680D01*
X165374508Y-108624162D01*
X165410818Y-108743860D01*
X165469783Y-108854174D01*
X165549135Y-108950865D01*
X165645826Y-109030217D01*
X165756140Y-109089182D01*
X165875838Y-109125492D01*
X166000320Y-109137752D01*
X166964250Y-109134680D01*
X167123000Y-108975930D01*
X167123000Y-107377000D01*
X167377000Y-107377000D01*
X167377000Y-108975930D01*
X167535750Y-109134680D01*
X168499680Y-109137752D01*
X168624162Y-109125492D01*
X168743860Y-109089182D01*
X168854174Y-109030217D01*
X168950865Y-108950865D01*
X169030217Y-108854174D01*
X169089182Y-108743860D01*
X169125492Y-108624162D01*
X169137752Y-108499680D01*
X169134680Y-107535750D01*
X168975930Y-107377000D01*
X167377000Y-107377000D01*
X167123000Y-107377000D01*
X165524070Y-107377000D01*
X165365320Y-107535750D01*
X165362248Y-108499680D01*
X157910000Y-108499680D01*
X157910000Y-102579117D01*
X158765000Y-102579117D01*
X158765000Y-102920883D01*
X158831675Y-103256081D01*
X158962463Y-103571831D01*
X159152337Y-103855998D01*
X159394002Y-104097663D01*
X159678169Y-104287537D01*
X159993919Y-104418325D01*
X160329117Y-104485000D01*
X160670883Y-104485000D01*
X161006081Y-104418325D01*
X161321831Y-104287537D01*
X161605998Y-104097663D01*
X161847663Y-103855998D01*
X162037537Y-103571831D01*
X162168325Y-103256081D01*
X162235000Y-102920883D01*
X162235000Y-102579117D01*
X162168325Y-102243919D01*
X162037537Y-101928169D01*
X161847663Y-101644002D01*
X161605998Y-101402337D01*
X161321831Y-101212463D01*
X161006081Y-101081675D01*
X160670883Y-101015000D01*
X160329117Y-101015000D01*
X159993919Y-101081675D01*
X159678169Y-101212463D01*
X159394002Y-101402337D01*
X159152337Y-101644002D01*
X158962463Y-101928169D01*
X158831675Y-102243919D01*
X158765000Y-102579117D01*
X157910000Y-102579117D01*
X157910000Y-90250320D01*
X158112248Y-90250320D01*
X158112248Y-92749680D01*
X158124508Y-92874162D01*
X158160818Y-92993860D01*
X158219783Y-93104174D01*
X158299135Y-93200865D01*
X158395826Y-93280217D01*
X158506140Y-93339182D01*
X158625838Y-93375492D01*
X158750320Y-93387752D01*
X161249680Y-93387752D01*
X161374162Y-93375492D01*
X161493860Y-93339182D01*
X161604174Y-93280217D01*
X161700865Y-93200865D01*
X161780217Y-93104174D01*
X161839182Y-92993860D01*
X161875492Y-92874162D01*
X161887752Y-92749680D01*
X161887752Y-90250320D01*
X161875492Y-90125838D01*
X161839182Y-90006140D01*
X161780217Y-89895826D01*
X161700865Y-89799135D01*
X161604174Y-89719783D01*
X161493860Y-89660818D01*
X161374162Y-89624508D01*
X161249680Y-89612248D01*
X158750320Y-89612248D01*
X158625838Y-89624508D01*
X158506140Y-89660818D01*
X158395826Y-89719783D01*
X158299135Y-89799135D01*
X158219783Y-89895826D01*
X158160818Y-90006140D01*
X158124508Y-90125838D01*
X158112248Y-90250320D01*
X157910000Y-90250320D01*
X157910000Y-86164375D01*
X158115320Y-86164375D01*
X158115320Y-86535625D01*
X158187747Y-86899741D01*
X158329818Y-87242731D01*
X158536074Y-87551413D01*
X158798587Y-87813926D01*
X159107269Y-88020182D01*
X159450259Y-88162253D01*
X159814375Y-88234680D01*
X160185625Y-88234680D01*
X160549741Y-88162253D01*
X160682472Y-88107274D01*
X161356201Y-88781003D01*
X161379999Y-88810001D01*
X161408997Y-88833799D01*
X161495723Y-88904974D01*
X161627753Y-88975546D01*
X161771014Y-89019003D01*
X161882667Y-89030000D01*
X161882676Y-89030000D01*
X161919999Y-89033676D01*
X161957322Y-89030000D01*
X165570190Y-89030000D01*
X165706096Y-89233398D01*
X165916602Y-89443904D01*
X166060420Y-89540000D01*
X165916602Y-89636096D01*
X165706096Y-89846602D01*
X165540703Y-90094131D01*
X165426778Y-90369170D01*
X165368700Y-90661150D01*
X165368700Y-90958850D01*
X165426778Y-91250830D01*
X165540703Y-91525869D01*
X165706096Y-91773398D01*
X165916602Y-91983904D01*
X166060420Y-92080000D01*
X165916602Y-92176096D01*
X165706096Y-92386602D01*
X165540703Y-92634131D01*
X165426778Y-92909170D01*
X165368700Y-93201150D01*
X165368700Y-93498850D01*
X165426778Y-93790830D01*
X165540703Y-94065869D01*
X165706096Y-94313398D01*
X165916602Y-94523904D01*
X166060420Y-94620000D01*
X165916602Y-94716096D01*
X165706096Y-94926602D01*
X165540703Y-95174131D01*
X165426778Y-95449170D01*
X165368700Y-95741150D01*
X165368700Y-96038850D01*
X165426778Y-96330830D01*
X165540703Y-96605869D01*
X165706096Y-96853398D01*
X165916602Y-97063904D01*
X166060420Y-97160000D01*
X165916602Y-97256096D01*
X165706096Y-97466602D01*
X165540703Y-97714131D01*
X165426778Y-97989170D01*
X165368700Y-98281150D01*
X165368700Y-98578850D01*
X165426778Y-98870830D01*
X165540703Y-99145869D01*
X165706096Y-99393398D01*
X165916602Y-99603904D01*
X166060420Y-99700000D01*
X165916602Y-99796096D01*
X165715479Y-99997219D01*
X164301147Y-98723580D01*
X164290001Y-98709999D01*
X164268281Y-98692173D01*
X161739533Y-96035303D01*
X161812253Y-95859741D01*
X161884680Y-95495625D01*
X161884680Y-95124375D01*
X161812253Y-94760259D01*
X161670182Y-94417269D01*
X161463926Y-94108587D01*
X161201413Y-93846074D01*
X160892731Y-93639818D01*
X160549741Y-93497747D01*
X160185625Y-93425320D01*
X159814375Y-93425320D01*
X159450259Y-93497747D01*
X159107269Y-93639818D01*
X158798587Y-93846074D01*
X158536074Y-94108587D01*
X158329818Y-94417269D01*
X158187747Y-94760259D01*
X158115320Y-95124375D01*
X158115320Y-95495625D01*
X158187747Y-95859741D01*
X158329818Y-96202731D01*
X158536074Y-96511413D01*
X158798587Y-96773926D01*
X159107269Y-96980182D01*
X159450259Y-97122253D01*
X159814375Y-97194680D01*
X160185625Y-97194680D01*
X160549741Y-97122253D01*
X160640050Y-97084846D01*
X162990001Y-99553862D01*
X162990000Y-103185197D01*
X160573886Y-105601312D01*
X160391335Y-105565000D01*
X160108665Y-105565000D01*
X159831426Y-105620147D01*
X159570273Y-105728320D01*
X159335241Y-105885363D01*
X159135363Y-106085241D01*
X158978320Y-106320273D01*
X158870147Y-106581426D01*
X158815000Y-106858665D01*
X158815000Y-107141335D01*
X158870147Y-107418574D01*
X158978320Y-107679727D01*
X159135363Y-107914759D01*
X159335241Y-108114637D01*
X159570273Y-108271680D01*
X159831426Y-108379853D01*
X160108665Y-108435000D01*
X160391335Y-108435000D01*
X160668574Y-108379853D01*
X160929727Y-108271680D01*
X161164759Y-108114637D01*
X161364637Y-107914759D01*
X161521680Y-107679727D01*
X161629853Y-107418574D01*
X161685000Y-107141335D01*
X161685000Y-106858665D01*
X161648688Y-106676114D01*
X162324482Y-106000320D01*
X165362248Y-106000320D01*
X165365320Y-106964250D01*
X165524070Y-107123000D01*
X167123000Y-107123000D01*
X167123000Y-105524070D01*
X167377000Y-105524070D01*
X167377000Y-107123000D01*
X168975930Y-107123000D01*
X169034555Y-107064375D01*
X169175320Y-107064375D01*
X169175320Y-107435625D01*
X169247747Y-107799741D01*
X169389818Y-108142731D01*
X169596074Y-108451413D01*
X169858587Y-108713926D01*
X170167269Y-108920182D01*
X170510259Y-109062253D01*
X170874375Y-109134680D01*
X171245625Y-109134680D01*
X171609741Y-109062253D01*
X171952731Y-108920182D01*
X172261413Y-108713926D01*
X172475659Y-108499680D01*
X175862248Y-108499680D01*
X175874508Y-108624162D01*
X175910818Y-108743860D01*
X175969783Y-108854174D01*
X176049135Y-108950865D01*
X176145826Y-109030217D01*
X176256140Y-109089182D01*
X176375838Y-109125492D01*
X176500320Y-109137752D01*
X177464250Y-109134680D01*
X177623000Y-108975930D01*
X177623000Y-107377000D01*
X177877000Y-107377000D01*
X177877000Y-108975930D01*
X178035750Y-109134680D01*
X178999680Y-109137752D01*
X179124162Y-109125492D01*
X179243860Y-109089182D01*
X179354174Y-109030217D01*
X179450865Y-108950865D01*
X179530217Y-108854174D01*
X179589182Y-108743860D01*
X179625492Y-108624162D01*
X179637752Y-108499680D01*
X179634680Y-107535750D01*
X179475930Y-107377000D01*
X177877000Y-107377000D01*
X177623000Y-107377000D01*
X176024070Y-107377000D01*
X175865320Y-107535750D01*
X175862248Y-108499680D01*
X172475659Y-108499680D01*
X172523926Y-108451413D01*
X172730182Y-108142731D01*
X172872253Y-107799741D01*
X172944680Y-107435625D01*
X172944680Y-107064375D01*
X172872253Y-106700259D01*
X172730182Y-106357269D01*
X172523926Y-106048587D01*
X172475659Y-106000320D01*
X175862248Y-106000320D01*
X175865320Y-106964250D01*
X176024070Y-107123000D01*
X177623000Y-107123000D01*
X177623000Y-105524070D01*
X177877000Y-105524070D01*
X177877000Y-107123000D01*
X179475930Y-107123000D01*
X179534555Y-107064375D01*
X179675320Y-107064375D01*
X179675320Y-107435625D01*
X179747747Y-107799741D01*
X179889818Y-108142731D01*
X180096074Y-108451413D01*
X180358587Y-108713926D01*
X180667269Y-108920182D01*
X181010259Y-109062253D01*
X181374375Y-109134680D01*
X181745625Y-109134680D01*
X182109741Y-109062253D01*
X182452731Y-108920182D01*
X182761413Y-108713926D01*
X183023926Y-108451413D01*
X183230182Y-108142731D01*
X183372253Y-107799741D01*
X183444680Y-107435625D01*
X183444680Y-107064375D01*
X183372253Y-106700259D01*
X183230182Y-106357269D01*
X183023926Y-106048587D01*
X182761413Y-105786074D01*
X182452731Y-105579818D01*
X182109741Y-105437747D01*
X181745625Y-105365320D01*
X181374375Y-105365320D01*
X181010259Y-105437747D01*
X180667269Y-105579818D01*
X180358587Y-105786074D01*
X180096074Y-106048587D01*
X179889818Y-106357269D01*
X179747747Y-106700259D01*
X179675320Y-107064375D01*
X179534555Y-107064375D01*
X179634680Y-106964250D01*
X179637752Y-106000320D01*
X179625492Y-105875838D01*
X179589182Y-105756140D01*
X179530217Y-105645826D01*
X179450865Y-105549135D01*
X179354174Y-105469783D01*
X179243860Y-105410818D01*
X179124162Y-105374508D01*
X178999680Y-105362248D01*
X178035750Y-105365320D01*
X177877000Y-105524070D01*
X177623000Y-105524070D01*
X177464250Y-105365320D01*
X176500320Y-105362248D01*
X176375838Y-105374508D01*
X176256140Y-105410818D01*
X176145826Y-105469783D01*
X176049135Y-105549135D01*
X175969783Y-105645826D01*
X175910818Y-105756140D01*
X175874508Y-105875838D01*
X175862248Y-106000320D01*
X172475659Y-106000320D01*
X172261413Y-105786074D01*
X171952731Y-105579818D01*
X171609741Y-105437747D01*
X171245625Y-105365320D01*
X170874375Y-105365320D01*
X170510259Y-105437747D01*
X170167269Y-105579818D01*
X169858587Y-105786074D01*
X169596074Y-106048587D01*
X169389818Y-106357269D01*
X169247747Y-106700259D01*
X169175320Y-107064375D01*
X169034555Y-107064375D01*
X169134680Y-106964250D01*
X169137752Y-106000320D01*
X169125492Y-105875838D01*
X169089182Y-105756140D01*
X169030217Y-105645826D01*
X168950865Y-105549135D01*
X168854174Y-105469783D01*
X168743860Y-105410818D01*
X168624162Y-105374508D01*
X168499680Y-105362248D01*
X167535750Y-105365320D01*
X167377000Y-105524070D01*
X167123000Y-105524070D01*
X166964250Y-105365320D01*
X166000320Y-105362248D01*
X165875838Y-105374508D01*
X165756140Y-105410818D01*
X165645826Y-105469783D01*
X165549135Y-105549135D01*
X165469783Y-105645826D01*
X165410818Y-105756140D01*
X165374508Y-105875838D01*
X165362248Y-106000320D01*
X162324482Y-106000320D01*
X164261009Y-104063794D01*
X164290001Y-104040001D01*
X164313795Y-104011008D01*
X164313799Y-104011004D01*
X164384973Y-103924277D01*
X164384974Y-103924276D01*
X164455546Y-103792247D01*
X164499003Y-103648986D01*
X164510000Y-103537333D01*
X164510000Y-103537324D01*
X164513676Y-103500001D01*
X164510000Y-103462678D01*
X164510000Y-100957139D01*
X165108856Y-101496423D01*
X165119999Y-101510001D01*
X165164377Y-101546421D01*
X165179165Y-101559738D01*
X165193224Y-101570095D01*
X165235724Y-101604974D01*
X165253379Y-101614411D01*
X165269493Y-101626282D01*
X165319260Y-101649625D01*
X165367753Y-101675546D01*
X165386909Y-101681357D01*
X165405031Y-101689857D01*
X165458403Y-101703044D01*
X165511014Y-101719003D01*
X165530937Y-101720965D01*
X165550367Y-101725766D01*
X165567899Y-101726571D01*
X165706096Y-101933398D01*
X165916602Y-102143904D01*
X166164131Y-102309297D01*
X166439170Y-102423222D01*
X166731150Y-102481300D01*
X167028850Y-102481300D01*
X167320830Y-102423222D01*
X167595869Y-102309297D01*
X167843398Y-102143904D01*
X168053904Y-101933398D01*
X168219297Y-101685869D01*
X168333222Y-101410830D01*
X168391300Y-101118850D01*
X168391300Y-101016101D01*
X172386201Y-105011003D01*
X172409999Y-105040001D01*
X172525724Y-105134974D01*
X172657753Y-105205546D01*
X172801014Y-105249003D01*
X172912667Y-105260000D01*
X172912676Y-105260000D01*
X172949999Y-105263676D01*
X172987322Y-105260000D01*
X183037678Y-105260000D01*
X183075000Y-105263676D01*
X183112322Y-105260000D01*
X183112333Y-105260000D01*
X183223986Y-105249003D01*
X183367247Y-105205546D01*
X183499276Y-105134974D01*
X183615001Y-105040001D01*
X183638804Y-105010997D01*
X184272082Y-104377719D01*
X187106935Y-104377719D01*
X187153595Y-104746025D01*
X187271211Y-105098151D01*
X187396685Y-105332896D01*
X187686622Y-105458770D01*
X187571512Y-105573880D01*
X187623001Y-105625369D01*
X187506140Y-105660818D01*
X187395826Y-105719783D01*
X187299135Y-105799135D01*
X187219783Y-105895826D01*
X187160818Y-106006140D01*
X187124508Y-106125838D01*
X187112248Y-106250320D01*
X187112248Y-108749680D01*
X187124508Y-108874162D01*
X187160818Y-108993860D01*
X187219783Y-109104174D01*
X187299135Y-109200865D01*
X187395826Y-109280217D01*
X187506140Y-109339182D01*
X187625838Y-109375492D01*
X187750320Y-109387752D01*
X190249680Y-109387752D01*
X190374162Y-109375492D01*
X190493860Y-109339182D01*
X190604174Y-109280217D01*
X190700865Y-109200865D01*
X190780217Y-109104174D01*
X190839182Y-108993860D01*
X190875492Y-108874162D01*
X190887752Y-108749680D01*
X190887752Y-106250320D01*
X190875492Y-106125838D01*
X190839182Y-106006140D01*
X190780217Y-105895826D01*
X190700865Y-105799135D01*
X190604174Y-105719783D01*
X190493860Y-105660818D01*
X190376999Y-105625369D01*
X190428488Y-105573880D01*
X190313378Y-105458770D01*
X190603315Y-105332896D01*
X190769139Y-105000738D01*
X190866975Y-104642613D01*
X190893065Y-104272281D01*
X190846405Y-103903975D01*
X190728789Y-103551849D01*
X190603315Y-103317104D01*
X190313377Y-103191229D01*
X189179605Y-104325000D01*
X189193748Y-104339142D01*
X189014142Y-104518748D01*
X189000000Y-104504605D01*
X188985858Y-104518748D01*
X188806252Y-104339142D01*
X188820395Y-104325000D01*
X187686623Y-103191229D01*
X187396685Y-103317104D01*
X187230861Y-103649262D01*
X187133025Y-104007387D01*
X187106935Y-104377719D01*
X184272082Y-104377719D01*
X186739803Y-101910000D01*
X187274839Y-101910000D01*
X187329818Y-102042731D01*
X187536074Y-102351413D01*
X187798587Y-102613926D01*
X187984853Y-102738386D01*
X187866229Y-103011623D01*
X189000000Y-104145395D01*
X190133771Y-103011623D01*
X190015147Y-102738386D01*
X190201413Y-102613926D01*
X190463926Y-102351413D01*
X190670182Y-102042731D01*
X190812253Y-101699741D01*
X190884680Y-101335625D01*
X190884680Y-100964375D01*
X190812253Y-100600259D01*
X190670182Y-100257269D01*
X190463926Y-99948587D01*
X190201413Y-99686074D01*
X189892731Y-99479818D01*
X189549741Y-99337747D01*
X189185625Y-99265320D01*
X188814375Y-99265320D01*
X188450259Y-99337747D01*
X188107269Y-99479818D01*
X187798587Y-99686074D01*
X187536074Y-99948587D01*
X187329818Y-100257269D01*
X187274839Y-100390000D01*
X186462322Y-100390000D01*
X186424999Y-100386324D01*
X186387676Y-100390000D01*
X186387667Y-100390000D01*
X186276014Y-100400997D01*
X186132753Y-100444454D01*
X186000724Y-100515026D01*
X186000722Y-100515027D01*
X186000723Y-100515027D01*
X185913996Y-100586201D01*
X185913992Y-100586205D01*
X185884999Y-100609999D01*
X185861205Y-100638992D01*
X185760000Y-100740197D01*
X185760000Y-94964801D01*
X187126629Y-93598172D01*
X187106935Y-93877719D01*
X187153595Y-94246025D01*
X187271211Y-94598151D01*
X187396685Y-94832896D01*
X187686622Y-94958770D01*
X187571512Y-95073880D01*
X187623001Y-95125369D01*
X187506140Y-95160818D01*
X187395826Y-95219783D01*
X187299135Y-95299135D01*
X187219783Y-95395826D01*
X187160818Y-95506140D01*
X187124508Y-95625838D01*
X187112248Y-95750320D01*
X187112248Y-98249680D01*
X187124508Y-98374162D01*
X187160818Y-98493860D01*
X187219783Y-98604174D01*
X187299135Y-98700865D01*
X187395826Y-98780217D01*
X187506140Y-98839182D01*
X187625838Y-98875492D01*
X187750320Y-98887752D01*
X190249680Y-98887752D01*
X190374162Y-98875492D01*
X190493860Y-98839182D01*
X190604174Y-98780217D01*
X190700865Y-98700865D01*
X190780217Y-98604174D01*
X190839182Y-98493860D01*
X190875492Y-98374162D01*
X190887752Y-98249680D01*
X190887752Y-95750320D01*
X190875492Y-95625838D01*
X190839182Y-95506140D01*
X190780217Y-95395826D01*
X190700865Y-95299135D01*
X190604174Y-95219783D01*
X190493860Y-95160818D01*
X190376999Y-95125369D01*
X190428488Y-95073880D01*
X190313378Y-94958770D01*
X190603315Y-94832896D01*
X190769139Y-94500738D01*
X190866975Y-94142613D01*
X190893065Y-93772281D01*
X190846405Y-93403975D01*
X190728789Y-93051849D01*
X190603315Y-92817104D01*
X190313377Y-92691229D01*
X189179605Y-93825000D01*
X189193748Y-93839142D01*
X189014142Y-94018748D01*
X189000000Y-94004605D01*
X188985858Y-94018748D01*
X188806252Y-93839142D01*
X188820395Y-93825000D01*
X188806252Y-93810858D01*
X188985858Y-93631252D01*
X189000000Y-93645395D01*
X190133771Y-92511623D01*
X190015147Y-92238386D01*
X190201413Y-92113926D01*
X190463926Y-91851413D01*
X190670182Y-91542731D01*
X190812253Y-91199741D01*
X190884680Y-90835625D01*
X190884680Y-90464375D01*
X190812253Y-90100259D01*
X190670182Y-89757269D01*
X190463926Y-89448587D01*
X190201413Y-89186074D01*
X189892731Y-88979818D01*
X189549741Y-88837747D01*
X189185625Y-88765320D01*
X188814375Y-88765320D01*
X188450259Y-88837747D01*
X188107269Y-88979818D01*
X187798587Y-89186074D01*
X187536074Y-89448587D01*
X187329818Y-89757269D01*
X187187747Y-90100259D01*
X187115320Y-90464375D01*
X187115320Y-90835625D01*
X187187747Y-91199741D01*
X187242726Y-91332472D01*
X185260000Y-93315199D01*
X185260000Y-84889801D01*
X187126629Y-83023172D01*
X187106935Y-83302719D01*
X187153595Y-83671025D01*
X187271211Y-84023151D01*
X187396685Y-84257896D01*
X187686622Y-84383770D01*
X187571512Y-84498880D01*
X187623001Y-84550369D01*
X187506140Y-84585818D01*
X187395826Y-84644783D01*
X187299135Y-84724135D01*
X187219783Y-84820826D01*
X187160818Y-84931140D01*
X187124508Y-85050838D01*
X187112248Y-85175320D01*
X187112248Y-87674680D01*
X187124508Y-87799162D01*
X187160818Y-87918860D01*
X187219783Y-88029174D01*
X187299135Y-88125865D01*
X187395826Y-88205217D01*
X187506140Y-88264182D01*
X187625838Y-88300492D01*
X187750320Y-88312752D01*
X190249680Y-88312752D01*
X190374162Y-88300492D01*
X190493860Y-88264182D01*
X190604174Y-88205217D01*
X190700865Y-88125865D01*
X190780217Y-88029174D01*
X190839182Y-87918860D01*
X190875492Y-87799162D01*
X190887752Y-87674680D01*
X190887752Y-85175320D01*
X190875492Y-85050838D01*
X190839182Y-84931140D01*
X190780217Y-84820826D01*
X190700865Y-84724135D01*
X190604174Y-84644783D01*
X190493860Y-84585818D01*
X190376999Y-84550369D01*
X190428488Y-84498880D01*
X190313378Y-84383770D01*
X190603315Y-84257896D01*
X190769139Y-83925738D01*
X190866975Y-83567613D01*
X190893065Y-83197281D01*
X190846405Y-82828975D01*
X190728789Y-82476849D01*
X190603315Y-82242104D01*
X190313377Y-82116229D01*
X189179605Y-83250000D01*
X189193748Y-83264142D01*
X189014142Y-83443748D01*
X189000000Y-83429605D01*
X188985858Y-83443748D01*
X188806252Y-83264142D01*
X188820395Y-83250000D01*
X188806252Y-83235858D01*
X188985858Y-83056252D01*
X189000000Y-83070395D01*
X190133771Y-81936623D01*
X190015147Y-81663386D01*
X190201413Y-81538926D01*
X190463926Y-81276413D01*
X190670182Y-80967731D01*
X190812253Y-80624741D01*
X190884680Y-80260625D01*
X190884680Y-79889375D01*
X190812253Y-79525259D01*
X190670182Y-79182269D01*
X190463926Y-78873587D01*
X190201413Y-78611074D01*
X189892731Y-78404818D01*
X189549741Y-78262747D01*
X189185625Y-78190320D01*
X188814375Y-78190320D01*
X188450259Y-78262747D01*
X188107269Y-78404818D01*
X187798587Y-78611074D01*
X187536074Y-78873587D01*
X187329818Y-79182269D01*
X187187747Y-79525259D01*
X187115320Y-79889375D01*
X187115320Y-80260625D01*
X187187747Y-80624741D01*
X187242726Y-80757472D01*
X183988998Y-84011201D01*
X183960000Y-84034999D01*
X183936202Y-84063997D01*
X183936201Y-84063998D01*
X183865026Y-84150724D01*
X183794454Y-84282754D01*
X183750998Y-84426015D01*
X183736324Y-84575000D01*
X183740001Y-84612333D01*
X183740000Y-101487378D01*
X182487379Y-102740000D01*
X177344802Y-102740000D01*
X168343576Y-93738775D01*
X168391300Y-93498850D01*
X168391300Y-93201150D01*
X168333222Y-92909170D01*
X168219297Y-92634131D01*
X168053904Y-92386602D01*
X167843398Y-92176096D01*
X167699580Y-92080000D01*
X167843398Y-91983904D01*
X168053904Y-91773398D01*
X168219297Y-91525869D01*
X168333222Y-91250830D01*
X168391300Y-90958850D01*
X168391300Y-90661150D01*
X168333222Y-90369170D01*
X168219297Y-90094131D01*
X168053904Y-89846602D01*
X167843398Y-89636096D01*
X167699580Y-89540000D01*
X167843398Y-89443904D01*
X168053904Y-89233398D01*
X168219297Y-88985869D01*
X168333222Y-88710830D01*
X168391300Y-88418850D01*
X168391300Y-88121150D01*
X168333222Y-87829170D01*
X168219297Y-87554131D01*
X168053904Y-87306602D01*
X167843398Y-87096096D01*
X167699580Y-87000000D01*
X167843398Y-86903904D01*
X168053904Y-86693398D01*
X168219297Y-86445869D01*
X168333222Y-86170830D01*
X168391300Y-85878850D01*
X168391300Y-85581150D01*
X168333222Y-85289170D01*
X168219297Y-85014131D01*
X168053904Y-84766602D01*
X167843398Y-84556096D01*
X167699580Y-84460000D01*
X167843398Y-84363904D01*
X168053904Y-84153398D01*
X168219297Y-83905869D01*
X168333222Y-83630830D01*
X168391300Y-83338850D01*
X168391300Y-83041150D01*
X168333222Y-82749170D01*
X168219297Y-82474131D01*
X168053904Y-82226602D01*
X167843398Y-82016096D01*
X167680191Y-81907045D01*
X167747563Y-81697169D01*
X166880000Y-80829605D01*
X166012437Y-81697169D01*
X166079809Y-81907045D01*
X165916602Y-82016096D01*
X165706096Y-82226602D01*
X165540703Y-82474131D01*
X165426778Y-82749170D01*
X165368700Y-83041150D01*
X165368700Y-83338850D01*
X165426778Y-83630830D01*
X165540703Y-83905869D01*
X165706096Y-84153398D01*
X165916602Y-84363904D01*
X166060420Y-84460000D01*
X165916602Y-84556096D01*
X165706096Y-84766602D01*
X165540703Y-85014131D01*
X165426778Y-85289170D01*
X165368700Y-85581150D01*
X165368700Y-85878850D01*
X165426778Y-86170830D01*
X165540703Y-86445869D01*
X165706096Y-86693398D01*
X165916602Y-86903904D01*
X166060420Y-87000000D01*
X165916602Y-87096096D01*
X165706096Y-87306602D01*
X165570190Y-87510000D01*
X162234802Y-87510000D01*
X161757274Y-87032472D01*
X161812253Y-86899741D01*
X161884680Y-86535625D01*
X161884680Y-86164375D01*
X161812253Y-85800259D01*
X161670182Y-85457269D01*
X161463926Y-85148587D01*
X161201413Y-84886074D01*
X161015147Y-84761614D01*
X161133771Y-84488377D01*
X160000000Y-83354605D01*
X158866229Y-84488377D01*
X158984853Y-84761614D01*
X158798587Y-84886074D01*
X158536074Y-85148587D01*
X158329818Y-85457269D01*
X158187747Y-85800259D01*
X158115320Y-86164375D01*
X157910000Y-86164375D01*
X157910000Y-83227719D01*
X158106935Y-83227719D01*
X158153595Y-83596025D01*
X158271211Y-83948151D01*
X158396685Y-84182896D01*
X158686623Y-84308771D01*
X159820395Y-83175000D01*
X159806252Y-83160858D01*
X159985858Y-82981252D01*
X160000000Y-82995395D01*
X160014142Y-82981252D01*
X160193748Y-83160858D01*
X160179605Y-83175000D01*
X161313377Y-84308771D01*
X161603315Y-84182896D01*
X161769139Y-83850738D01*
X161866975Y-83492613D01*
X161893065Y-83122281D01*
X161846405Y-82753975D01*
X161728789Y-82401849D01*
X161603315Y-82167104D01*
X161313378Y-82041230D01*
X161428488Y-81926120D01*
X161376999Y-81874631D01*
X161493860Y-81839182D01*
X161604174Y-81780217D01*
X161700865Y-81700865D01*
X161780217Y-81604174D01*
X161839182Y-81493860D01*
X161875492Y-81374162D01*
X161887752Y-81249680D01*
X161887752Y-80717491D01*
X165362887Y-80717491D01*
X165405204Y-81012167D01*
X165504198Y-81292927D01*
X165581071Y-81436746D01*
X165832831Y-81517563D01*
X166700395Y-80650000D01*
X167059605Y-80650000D01*
X167927169Y-81517563D01*
X168178929Y-81436746D01*
X168307457Y-81168221D01*
X168381129Y-80879781D01*
X168397113Y-80582509D01*
X168354796Y-80287833D01*
X168255802Y-80007073D01*
X168178929Y-79863254D01*
X167927169Y-79782437D01*
X167059605Y-80650000D01*
X166700395Y-80650000D01*
X165832831Y-79782437D01*
X165581071Y-79863254D01*
X165452543Y-80131779D01*
X165378871Y-80420219D01*
X165362887Y-80717491D01*
X161887752Y-80717491D01*
X161887752Y-79157169D01*
X166012437Y-79157169D01*
X166083968Y-79380000D01*
X166012437Y-79602831D01*
X166880000Y-80470395D01*
X167747563Y-79602831D01*
X167676032Y-79380000D01*
X167747563Y-79157169D01*
X166880000Y-78289605D01*
X166012437Y-79157169D01*
X161887752Y-79157169D01*
X161887752Y-78750320D01*
X161875492Y-78625838D01*
X161839182Y-78506140D01*
X161780217Y-78395826D01*
X161700865Y-78299135D01*
X161604174Y-78219783D01*
X161525053Y-78177491D01*
X165362887Y-78177491D01*
X165405204Y-78472167D01*
X165504198Y-78752927D01*
X165581071Y-78896746D01*
X165832831Y-78977563D01*
X166700395Y-78110000D01*
X167059605Y-78110000D01*
X167927169Y-78977563D01*
X168178929Y-78896746D01*
X168307457Y-78628221D01*
X168381129Y-78339781D01*
X168397113Y-78042509D01*
X168385430Y-77961150D01*
X180608700Y-77961150D01*
X180608700Y-78258850D01*
X180666778Y-78550830D01*
X180780703Y-78825869D01*
X180946096Y-79073398D01*
X181156602Y-79283904D01*
X181300420Y-79380000D01*
X181156602Y-79476096D01*
X180946096Y-79686602D01*
X180780703Y-79934131D01*
X180666778Y-80209170D01*
X180608700Y-80501150D01*
X180608700Y-80798850D01*
X180666778Y-81090830D01*
X180780703Y-81365869D01*
X180946096Y-81613398D01*
X181156602Y-81823904D01*
X181300420Y-81920000D01*
X181156602Y-82016096D01*
X180946096Y-82226602D01*
X180780703Y-82474131D01*
X180666778Y-82749170D01*
X180608700Y-83041150D01*
X180608700Y-83338850D01*
X180666778Y-83630830D01*
X180780703Y-83905869D01*
X180946096Y-84153398D01*
X181156602Y-84363904D01*
X181300420Y-84460000D01*
X181156602Y-84556096D01*
X180946096Y-84766602D01*
X180780703Y-85014131D01*
X180666778Y-85289170D01*
X180608700Y-85581150D01*
X180608700Y-85878850D01*
X180666778Y-86170830D01*
X180780703Y-86445869D01*
X180946096Y-86693398D01*
X181156602Y-86903904D01*
X181300420Y-87000000D01*
X181156602Y-87096096D01*
X180946096Y-87306602D01*
X180780703Y-87554131D01*
X180666778Y-87829170D01*
X180608700Y-88121150D01*
X180608700Y-88418850D01*
X180666778Y-88710830D01*
X180780703Y-88985869D01*
X180946096Y-89233398D01*
X181156602Y-89443904D01*
X181300420Y-89540000D01*
X181156602Y-89636096D01*
X180946096Y-89846602D01*
X180780703Y-90094131D01*
X180666778Y-90369170D01*
X180608700Y-90661150D01*
X180608700Y-90958850D01*
X180666778Y-91250830D01*
X180780703Y-91525869D01*
X180946096Y-91773398D01*
X181156602Y-91983904D01*
X181300420Y-92080000D01*
X181156602Y-92176096D01*
X180946096Y-92386602D01*
X180780703Y-92634131D01*
X180666778Y-92909170D01*
X180608700Y-93201150D01*
X180608700Y-93498850D01*
X180666778Y-93790830D01*
X180780703Y-94065869D01*
X180946096Y-94313398D01*
X181156602Y-94523904D01*
X181300420Y-94620000D01*
X181156602Y-94716096D01*
X180946096Y-94926602D01*
X180780703Y-95174131D01*
X180666778Y-95449170D01*
X180608700Y-95741150D01*
X180608700Y-96038850D01*
X180666778Y-96330830D01*
X180780703Y-96605869D01*
X180946096Y-96853398D01*
X181156602Y-97063904D01*
X181300420Y-97160000D01*
X181156602Y-97256096D01*
X180946096Y-97466602D01*
X180780703Y-97714131D01*
X180666778Y-97989170D01*
X180608700Y-98281150D01*
X180608700Y-98578850D01*
X180666778Y-98870830D01*
X180780703Y-99145869D01*
X180946096Y-99393398D01*
X181156602Y-99603904D01*
X181300420Y-99700000D01*
X181156602Y-99796096D01*
X180946096Y-100006602D01*
X180780703Y-100254131D01*
X180666778Y-100529170D01*
X180608700Y-100821150D01*
X180608700Y-101118850D01*
X180666778Y-101410830D01*
X180780703Y-101685869D01*
X180946096Y-101933398D01*
X181156602Y-102143904D01*
X181404131Y-102309297D01*
X181679170Y-102423222D01*
X181971150Y-102481300D01*
X182268850Y-102481300D01*
X182560830Y-102423222D01*
X182835869Y-102309297D01*
X183083398Y-102143904D01*
X183293904Y-101933398D01*
X183459297Y-101685869D01*
X183573222Y-101410830D01*
X183631300Y-101118850D01*
X183631300Y-100821150D01*
X183573222Y-100529170D01*
X183459297Y-100254131D01*
X183293904Y-100006602D01*
X183083398Y-99796096D01*
X182939580Y-99700000D01*
X183083398Y-99603904D01*
X183293904Y-99393398D01*
X183459297Y-99145869D01*
X183573222Y-98870830D01*
X183631300Y-98578850D01*
X183631300Y-98281150D01*
X183573222Y-97989170D01*
X183459297Y-97714131D01*
X183293904Y-97466602D01*
X183083398Y-97256096D01*
X182939580Y-97160000D01*
X183083398Y-97063904D01*
X183293904Y-96853398D01*
X183459297Y-96605869D01*
X183573222Y-96330830D01*
X183631300Y-96038850D01*
X183631300Y-95741150D01*
X183573222Y-95449170D01*
X183459297Y-95174131D01*
X183293904Y-94926602D01*
X183083398Y-94716096D01*
X182939580Y-94620000D01*
X183083398Y-94523904D01*
X183293904Y-94313398D01*
X183459297Y-94065869D01*
X183573222Y-93790830D01*
X183631300Y-93498850D01*
X183631300Y-93201150D01*
X183573222Y-92909170D01*
X183459297Y-92634131D01*
X183293904Y-92386602D01*
X183083398Y-92176096D01*
X182939580Y-92080000D01*
X183083398Y-91983904D01*
X183293904Y-91773398D01*
X183459297Y-91525869D01*
X183573222Y-91250830D01*
X183631300Y-90958850D01*
X183631300Y-90661150D01*
X183573222Y-90369170D01*
X183459297Y-90094131D01*
X183293904Y-89846602D01*
X183083398Y-89636096D01*
X182939580Y-89540000D01*
X183083398Y-89443904D01*
X183293904Y-89233398D01*
X183459297Y-88985869D01*
X183573222Y-88710830D01*
X183631300Y-88418850D01*
X183631300Y-88121150D01*
X183573222Y-87829170D01*
X183459297Y-87554131D01*
X183293904Y-87306602D01*
X183083398Y-87096096D01*
X182939580Y-87000000D01*
X183083398Y-86903904D01*
X183293904Y-86693398D01*
X183459297Y-86445869D01*
X183573222Y-86170830D01*
X183631300Y-85878850D01*
X183631300Y-85581150D01*
X183573222Y-85289170D01*
X183459297Y-85014131D01*
X183293904Y-84766602D01*
X183083398Y-84556096D01*
X182939580Y-84460000D01*
X183083398Y-84363904D01*
X183293904Y-84153398D01*
X183459297Y-83905869D01*
X183573222Y-83630830D01*
X183631300Y-83338850D01*
X183631300Y-83041150D01*
X183573222Y-82749170D01*
X183459297Y-82474131D01*
X183293904Y-82226602D01*
X183083398Y-82016096D01*
X182939580Y-81920000D01*
X183083398Y-81823904D01*
X183293904Y-81613398D01*
X183459297Y-81365869D01*
X183573222Y-81090830D01*
X183631300Y-80798850D01*
X183631300Y-80501150D01*
X183573222Y-80209170D01*
X183459297Y-79934131D01*
X183293904Y-79686602D01*
X183083398Y-79476096D01*
X182939580Y-79380000D01*
X183083398Y-79283904D01*
X183293904Y-79073398D01*
X183459297Y-78825869D01*
X183573222Y-78550830D01*
X183631300Y-78258850D01*
X183631300Y-77961150D01*
X183573222Y-77669170D01*
X183459297Y-77394131D01*
X183293904Y-77146602D01*
X183083398Y-76936096D01*
X182920191Y-76827045D01*
X182987563Y-76617169D01*
X182120000Y-75749605D01*
X181252437Y-76617169D01*
X181319809Y-76827045D01*
X181156602Y-76936096D01*
X180946096Y-77146602D01*
X180780703Y-77394131D01*
X180666778Y-77669170D01*
X180608700Y-77961150D01*
X168385430Y-77961150D01*
X168354796Y-77747833D01*
X168255802Y-77467073D01*
X168178929Y-77323254D01*
X167927169Y-77242437D01*
X167059605Y-78110000D01*
X166700395Y-78110000D01*
X165832831Y-77242437D01*
X165581071Y-77323254D01*
X165452543Y-77591779D01*
X165378871Y-77880219D01*
X165362887Y-78177491D01*
X161525053Y-78177491D01*
X161493860Y-78160818D01*
X161374162Y-78124508D01*
X161249680Y-78112248D01*
X158750320Y-78112248D01*
X158625838Y-78124508D01*
X158506140Y-78160818D01*
X158395826Y-78219783D01*
X158299135Y-78299135D01*
X158219783Y-78395826D01*
X158160818Y-78506140D01*
X158124508Y-78625838D01*
X158112248Y-78750320D01*
X158112248Y-81249680D01*
X158124508Y-81374162D01*
X158160818Y-81493860D01*
X158219783Y-81604174D01*
X158299135Y-81700865D01*
X158395826Y-81780217D01*
X158506140Y-81839182D01*
X158623001Y-81874631D01*
X158571512Y-81926120D01*
X158686622Y-82041230D01*
X158396685Y-82167104D01*
X158230861Y-82499262D01*
X158133025Y-82857387D01*
X158106935Y-83227719D01*
X157910000Y-83227719D01*
X157910000Y-73829117D01*
X158765000Y-73829117D01*
X158765000Y-74170883D01*
X158831675Y-74506081D01*
X158962463Y-74821831D01*
X159152337Y-75105998D01*
X159394002Y-75347663D01*
X159678169Y-75537537D01*
X159993919Y-75668325D01*
X160329117Y-75735000D01*
X160670883Y-75735000D01*
X161006081Y-75668325D01*
X161321831Y-75537537D01*
X161605998Y-75347663D01*
X161847663Y-75105998D01*
X162037537Y-74821831D01*
X162168325Y-74506081D01*
X162235000Y-74170883D01*
X162235000Y-73829117D01*
X162168325Y-73493919D01*
X162037537Y-73178169D01*
X161847663Y-72894002D01*
X161605998Y-72652337D01*
X161321831Y-72462463D01*
X161006081Y-72331675D01*
X160670883Y-72265000D01*
X160329117Y-72265000D01*
X159993919Y-72331675D01*
X159678169Y-72462463D01*
X159394002Y-72652337D01*
X159152337Y-72894002D01*
X158962463Y-73178169D01*
X158831675Y-73493919D01*
X158765000Y-73829117D01*
X157910000Y-73829117D01*
X157910000Y-72153700D01*
X165365628Y-72153700D01*
X165365628Y-73906300D01*
X165377888Y-74030782D01*
X165414198Y-74150480D01*
X165473163Y-74260794D01*
X165552515Y-74357485D01*
X165649206Y-74436837D01*
X165759520Y-74495802D01*
X165803542Y-74509156D01*
X165706096Y-74606602D01*
X165540703Y-74854131D01*
X165426778Y-75129170D01*
X165368700Y-75421150D01*
X165368700Y-75718850D01*
X165426778Y-76010830D01*
X165540703Y-76285869D01*
X165706096Y-76533398D01*
X165916602Y-76743904D01*
X166079809Y-76852955D01*
X166012437Y-77062831D01*
X166880000Y-77930395D01*
X167747563Y-77062831D01*
X167680191Y-76852955D01*
X167843398Y-76743904D01*
X168053904Y-76533398D01*
X168219297Y-76285869D01*
X168333222Y-76010830D01*
X168391300Y-75718850D01*
X168391300Y-75637491D01*
X180602887Y-75637491D01*
X180645204Y-75932167D01*
X180744198Y-76212927D01*
X180821071Y-76356746D01*
X181072831Y-76437563D01*
X181940395Y-75570000D01*
X182299605Y-75570000D01*
X183167169Y-76437563D01*
X183418929Y-76356746D01*
X183547457Y-76088221D01*
X183621129Y-75799781D01*
X183637113Y-75502509D01*
X183594796Y-75207833D01*
X183495802Y-74927073D01*
X183418929Y-74783254D01*
X183167169Y-74702437D01*
X182299605Y-75570000D01*
X181940395Y-75570000D01*
X181072831Y-74702437D01*
X180821071Y-74783254D01*
X180692543Y-75051779D01*
X180618871Y-75340219D01*
X180602887Y-75637491D01*
X168391300Y-75637491D01*
X168391300Y-75421150D01*
X168333222Y-75129170D01*
X168219297Y-74854131D01*
X168053904Y-74606602D01*
X167956458Y-74509156D01*
X168000480Y-74495802D01*
X168110794Y-74436837D01*
X168207485Y-74357485D01*
X168286837Y-74260794D01*
X168345802Y-74150480D01*
X168382112Y-74030782D01*
X168394372Y-73906300D01*
X168394372Y-72881150D01*
X180608700Y-72881150D01*
X180608700Y-73178850D01*
X180666778Y-73470830D01*
X180780703Y-73745869D01*
X180946096Y-73993398D01*
X181156602Y-74203904D01*
X181319809Y-74312955D01*
X181252437Y-74522831D01*
X182120000Y-75390395D01*
X182987563Y-74522831D01*
X182920191Y-74312955D01*
X183083398Y-74203904D01*
X183293904Y-73993398D01*
X183403672Y-73829117D01*
X186765000Y-73829117D01*
X186765000Y-74170883D01*
X186831675Y-74506081D01*
X186962463Y-74821831D01*
X187152337Y-75105998D01*
X187394002Y-75347663D01*
X187678169Y-75537537D01*
X187993919Y-75668325D01*
X188329117Y-75735000D01*
X188670883Y-75735000D01*
X189006081Y-75668325D01*
X189321831Y-75537537D01*
X189605998Y-75347663D01*
X189847663Y-75105998D01*
X190037537Y-74821831D01*
X190168325Y-74506081D01*
X190235000Y-74170883D01*
X190235000Y-73829117D01*
X190168325Y-73493919D01*
X190037537Y-73178169D01*
X189847663Y-72894002D01*
X189605998Y-72652337D01*
X189321831Y-72462463D01*
X189006081Y-72331675D01*
X188670883Y-72265000D01*
X188329117Y-72265000D01*
X187993919Y-72331675D01*
X187678169Y-72462463D01*
X187394002Y-72652337D01*
X187152337Y-72894002D01*
X186962463Y-73178169D01*
X186831675Y-73493919D01*
X186765000Y-73829117D01*
X183403672Y-73829117D01*
X183459297Y-73745869D01*
X183573222Y-73470830D01*
X183631300Y-73178850D01*
X183631300Y-72881150D01*
X183573222Y-72589170D01*
X183459297Y-72314131D01*
X183293904Y-72066602D01*
X183083398Y-71856096D01*
X182835869Y-71690703D01*
X182560830Y-71576778D01*
X182268850Y-71518700D01*
X181971150Y-71518700D01*
X181679170Y-71576778D01*
X181404131Y-71690703D01*
X181156602Y-71856096D01*
X180946096Y-72066602D01*
X180780703Y-72314131D01*
X180666778Y-72589170D01*
X180608700Y-72881150D01*
X168394372Y-72881150D01*
X168394372Y-72153700D01*
X168382112Y-72029218D01*
X168345802Y-71909520D01*
X168286837Y-71799206D01*
X168207485Y-71702515D01*
X168110794Y-71623163D01*
X168000480Y-71564198D01*
X167880782Y-71527888D01*
X167756300Y-71515628D01*
X166003700Y-71515628D01*
X165879218Y-71527888D01*
X165759520Y-71564198D01*
X165649206Y-71623163D01*
X165552515Y-71702515D01*
X165473163Y-71799206D01*
X165414198Y-71909520D01*
X165377888Y-72029218D01*
X165365628Y-72153700D01*
X157910000Y-72153700D01*
X157910000Y-71410000D01*
X191090000Y-71410000D01*
X191090001Y-73217572D01*
M02*
