G04 #@! TF.GenerationSoftware,KiCad,Pcbnew,(5.1.5-0-10_14)*
G04 #@! TF.CreationDate,2020-12-13T15:36:32+01:00*
G04 #@! TF.ProjectId,pro_micro_shield,70726f5f-6d69-4637-926f-5f736869656c,rev?*
G04 #@! TF.SameCoordinates,Original*
G04 #@! TF.FileFunction,Copper,L2,Bot*
G04 #@! TF.FilePolarity,Positive*
%FSLAX46Y46*%
G04 Gerber Fmt 4.6, Leading zero omitted, Abs format (unit mm)*
G04 Created by KiCad (PCBNEW (5.1.5-0-10_14)) date 2020-12-13 15:36:32*
%MOMM*%
%LPD*%
G04 APERTURE LIST*
%ADD10O,1.600000X1.600000*%
%ADD11C,1.600000*%
%ADD12C,2.499360*%
%ADD13R,2.499360X2.499360*%
%ADD14C,1.752600*%
%ADD15R,1.752600X1.752600*%
%ADD16C,0.250000*%
%ADD17C,0.254000*%
G04 APERTURE END LIST*
D10*
X160250000Y-114620000D03*
D11*
X160250000Y-107000000D03*
D12*
X160000000Y-95310000D03*
D13*
X160000000Y-91500000D03*
D12*
X160000000Y-86350000D03*
X160000000Y-83175000D03*
D13*
X160000000Y-80000000D03*
D12*
X181560000Y-107250000D03*
D13*
X177750000Y-107250000D03*
D14*
X182120000Y-73030000D03*
X166880000Y-100970000D03*
X182120000Y-75570000D03*
X182120000Y-78110000D03*
X182120000Y-80650000D03*
X182120000Y-83190000D03*
X182120000Y-85730000D03*
X182120000Y-88270000D03*
X182120000Y-90810000D03*
X182120000Y-93350000D03*
X182120000Y-95890000D03*
X182120000Y-98430000D03*
X182120000Y-100970000D03*
X166880000Y-98430000D03*
X166880000Y-95890000D03*
X166880000Y-93350000D03*
X166880000Y-90810000D03*
X166880000Y-88270000D03*
X166880000Y-85730000D03*
X166880000Y-83190000D03*
X166880000Y-80650000D03*
X166880000Y-78110000D03*
X166880000Y-75570000D03*
D15*
X166880000Y-73030000D03*
D12*
X171060000Y-107250000D03*
D13*
X167250000Y-107250000D03*
D12*
X189000000Y-101150000D03*
X189000000Y-104325000D03*
D13*
X189000000Y-107500000D03*
D12*
X189000000Y-90650000D03*
X189000000Y-93825000D03*
D13*
X189000000Y-97000000D03*
D12*
X189000000Y-80075000D03*
X189000000Y-83250000D03*
D13*
X189000000Y-86425000D03*
D12*
X183350000Y-113500000D03*
X180175000Y-113500000D03*
D13*
X177000000Y-113500000D03*
D12*
X171850000Y-113500000D03*
X168675000Y-113500000D03*
D13*
X165500000Y-113500000D03*
D16*
X171060000Y-87370000D02*
X166880000Y-83190000D01*
X171060000Y-107250000D02*
X171060000Y-87370000D01*
X168675000Y-113500000D02*
X164250000Y-109075000D01*
X168675000Y-113500000D02*
X170925000Y-111250000D01*
X177925000Y-111250000D02*
X180175000Y-113500000D01*
X170925000Y-111250000D02*
X177925000Y-111250000D01*
X164250000Y-88360000D02*
X166880000Y-85730000D01*
X164250000Y-109000000D02*
X164250000Y-88360000D01*
D17*
G36*
X191090001Y-73217572D02*
G01*
X191090000Y-73217582D01*
X191090001Y-115467572D01*
X191090000Y-115467582D01*
X191090000Y-115840000D01*
X161007072Y-115840000D01*
X161164759Y-115734637D01*
X161364637Y-115534759D01*
X161521680Y-115299727D01*
X161629853Y-115038574D01*
X161685000Y-114761335D01*
X161685000Y-114478665D01*
X161629853Y-114201426D01*
X161521680Y-113940273D01*
X161364637Y-113705241D01*
X161164759Y-113505363D01*
X160929727Y-113348320D01*
X160668574Y-113240147D01*
X160391335Y-113185000D01*
X160108665Y-113185000D01*
X159831426Y-113240147D01*
X159570273Y-113348320D01*
X159335241Y-113505363D01*
X159135363Y-113705241D01*
X158978320Y-113940273D01*
X158870147Y-114201426D01*
X158815000Y-114478665D01*
X158815000Y-114761335D01*
X158870147Y-115038574D01*
X158978320Y-115299727D01*
X159135363Y-115534759D01*
X159335241Y-115734637D01*
X159492928Y-115840000D01*
X157910000Y-115840000D01*
X157910000Y-106858665D01*
X158815000Y-106858665D01*
X158815000Y-107141335D01*
X158870147Y-107418574D01*
X158978320Y-107679727D01*
X159135363Y-107914759D01*
X159335241Y-108114637D01*
X159570273Y-108271680D01*
X159831426Y-108379853D01*
X160108665Y-108435000D01*
X160391335Y-108435000D01*
X160668574Y-108379853D01*
X160929727Y-108271680D01*
X161164759Y-108114637D01*
X161364637Y-107914759D01*
X161521680Y-107679727D01*
X161629853Y-107418574D01*
X161685000Y-107141335D01*
X161685000Y-106858665D01*
X161629853Y-106581426D01*
X161521680Y-106320273D01*
X161364637Y-106085241D01*
X161164759Y-105885363D01*
X160929727Y-105728320D01*
X160668574Y-105620147D01*
X160391335Y-105565000D01*
X160108665Y-105565000D01*
X159831426Y-105620147D01*
X159570273Y-105728320D01*
X159335241Y-105885363D01*
X159135363Y-106085241D01*
X158978320Y-106320273D01*
X158870147Y-106581426D01*
X158815000Y-106858665D01*
X157910000Y-106858665D01*
X157910000Y-102579117D01*
X158765000Y-102579117D01*
X158765000Y-102920883D01*
X158831675Y-103256081D01*
X158962463Y-103571831D01*
X159152337Y-103855998D01*
X159394002Y-104097663D01*
X159678169Y-104287537D01*
X159993919Y-104418325D01*
X160329117Y-104485000D01*
X160670883Y-104485000D01*
X161006081Y-104418325D01*
X161321831Y-104287537D01*
X161605998Y-104097663D01*
X161847663Y-103855998D01*
X162037537Y-103571831D01*
X162168325Y-103256081D01*
X162235000Y-102920883D01*
X162235000Y-102579117D01*
X162168325Y-102243919D01*
X162037537Y-101928169D01*
X161847663Y-101644002D01*
X161605998Y-101402337D01*
X161321831Y-101212463D01*
X161006081Y-101081675D01*
X160670883Y-101015000D01*
X160329117Y-101015000D01*
X159993919Y-101081675D01*
X159678169Y-101212463D01*
X159394002Y-101402337D01*
X159152337Y-101644002D01*
X158962463Y-101928169D01*
X158831675Y-102243919D01*
X158765000Y-102579117D01*
X157910000Y-102579117D01*
X157910000Y-95124375D01*
X158115320Y-95124375D01*
X158115320Y-95495625D01*
X158187747Y-95859741D01*
X158329818Y-96202731D01*
X158536074Y-96511413D01*
X158798587Y-96773926D01*
X159107269Y-96980182D01*
X159450259Y-97122253D01*
X159814375Y-97194680D01*
X160185625Y-97194680D01*
X160549741Y-97122253D01*
X160892731Y-96980182D01*
X161201413Y-96773926D01*
X161463926Y-96511413D01*
X161670182Y-96202731D01*
X161812253Y-95859741D01*
X161884680Y-95495625D01*
X161884680Y-95124375D01*
X161812253Y-94760259D01*
X161670182Y-94417269D01*
X161463926Y-94108587D01*
X161201413Y-93846074D01*
X160892731Y-93639818D01*
X160549741Y-93497747D01*
X160185625Y-93425320D01*
X159814375Y-93425320D01*
X159450259Y-93497747D01*
X159107269Y-93639818D01*
X158798587Y-93846074D01*
X158536074Y-94108587D01*
X158329818Y-94417269D01*
X158187747Y-94760259D01*
X158115320Y-95124375D01*
X157910000Y-95124375D01*
X157910000Y-92749680D01*
X158112248Y-92749680D01*
X158124508Y-92874162D01*
X158160818Y-92993860D01*
X158219783Y-93104174D01*
X158299135Y-93200865D01*
X158395826Y-93280217D01*
X158506140Y-93339182D01*
X158625838Y-93375492D01*
X158750320Y-93387752D01*
X159714250Y-93384680D01*
X159873000Y-93225930D01*
X159873000Y-91627000D01*
X160127000Y-91627000D01*
X160127000Y-93225930D01*
X160285750Y-93384680D01*
X161249680Y-93387752D01*
X161374162Y-93375492D01*
X161493860Y-93339182D01*
X161604174Y-93280217D01*
X161700865Y-93200865D01*
X161780217Y-93104174D01*
X161839182Y-92993860D01*
X161875492Y-92874162D01*
X161887752Y-92749680D01*
X161884680Y-91785750D01*
X161725930Y-91627000D01*
X160127000Y-91627000D01*
X159873000Y-91627000D01*
X158274070Y-91627000D01*
X158115320Y-91785750D01*
X158112248Y-92749680D01*
X157910000Y-92749680D01*
X157910000Y-90250320D01*
X158112248Y-90250320D01*
X158115320Y-91214250D01*
X158274070Y-91373000D01*
X159873000Y-91373000D01*
X159873000Y-89774070D01*
X160127000Y-89774070D01*
X160127000Y-91373000D01*
X161725930Y-91373000D01*
X161884680Y-91214250D01*
X161887752Y-90250320D01*
X161875492Y-90125838D01*
X161839182Y-90006140D01*
X161780217Y-89895826D01*
X161700865Y-89799135D01*
X161604174Y-89719783D01*
X161493860Y-89660818D01*
X161374162Y-89624508D01*
X161249680Y-89612248D01*
X160285750Y-89615320D01*
X160127000Y-89774070D01*
X159873000Y-89774070D01*
X159714250Y-89615320D01*
X158750320Y-89612248D01*
X158625838Y-89624508D01*
X158506140Y-89660818D01*
X158395826Y-89719783D01*
X158299135Y-89799135D01*
X158219783Y-89895826D01*
X158160818Y-90006140D01*
X158124508Y-90125838D01*
X158112248Y-90250320D01*
X157910000Y-90250320D01*
X157910000Y-88360000D01*
X163486324Y-88360000D01*
X163490001Y-88397333D01*
X163490000Y-109037332D01*
X163490017Y-109037505D01*
X163486324Y-109075000D01*
X163500998Y-109223985D01*
X163544454Y-109367246D01*
X163615026Y-109499276D01*
X163686201Y-109586002D01*
X165712447Y-111612248D01*
X164250320Y-111612248D01*
X164125838Y-111624508D01*
X164006140Y-111660818D01*
X163895826Y-111719783D01*
X163799135Y-111799135D01*
X163719783Y-111895826D01*
X163660818Y-112006140D01*
X163624508Y-112125838D01*
X163612248Y-112250320D01*
X163612248Y-114749680D01*
X163624508Y-114874162D01*
X163660818Y-114993860D01*
X163719783Y-115104174D01*
X163799135Y-115200865D01*
X163895826Y-115280217D01*
X164006140Y-115339182D01*
X164125838Y-115375492D01*
X164250320Y-115387752D01*
X166749680Y-115387752D01*
X166874162Y-115375492D01*
X166993860Y-115339182D01*
X167104174Y-115280217D01*
X167200865Y-115200865D01*
X167280217Y-115104174D01*
X167339182Y-114993860D01*
X167375492Y-114874162D01*
X167376239Y-114866578D01*
X167473587Y-114963926D01*
X167782269Y-115170182D01*
X168125259Y-115312253D01*
X168489375Y-115384680D01*
X168860625Y-115384680D01*
X169224741Y-115312253D01*
X169567731Y-115170182D01*
X169876413Y-114963926D01*
X170026962Y-114813377D01*
X170716229Y-114813377D01*
X170842104Y-115103315D01*
X171174262Y-115269139D01*
X171532387Y-115366975D01*
X171902719Y-115393065D01*
X172271025Y-115346405D01*
X172623151Y-115228789D01*
X172857896Y-115103315D01*
X172983771Y-114813377D01*
X171850000Y-113679605D01*
X170716229Y-114813377D01*
X170026962Y-114813377D01*
X170138926Y-114701413D01*
X170263386Y-114515147D01*
X170536623Y-114633771D01*
X171670395Y-113500000D01*
X172029605Y-113500000D01*
X173163377Y-114633771D01*
X173453315Y-114507896D01*
X173619139Y-114175738D01*
X173716975Y-113817613D01*
X173743065Y-113447281D01*
X173696405Y-113078975D01*
X173578789Y-112726849D01*
X173453315Y-112492104D01*
X173163377Y-112366229D01*
X172029605Y-113500000D01*
X171670395Y-113500000D01*
X171656252Y-113485858D01*
X171835858Y-113306252D01*
X171850000Y-113320395D01*
X172983771Y-112186623D01*
X172907091Y-112010000D01*
X175159647Y-112010000D01*
X175124508Y-112125838D01*
X175112248Y-112250320D01*
X175112248Y-114749680D01*
X175124508Y-114874162D01*
X175160818Y-114993860D01*
X175219783Y-115104174D01*
X175299135Y-115200865D01*
X175395826Y-115280217D01*
X175506140Y-115339182D01*
X175625838Y-115375492D01*
X175750320Y-115387752D01*
X178249680Y-115387752D01*
X178374162Y-115375492D01*
X178493860Y-115339182D01*
X178604174Y-115280217D01*
X178700865Y-115200865D01*
X178780217Y-115104174D01*
X178839182Y-114993860D01*
X178875492Y-114874162D01*
X178876239Y-114866578D01*
X178973587Y-114963926D01*
X179282269Y-115170182D01*
X179625259Y-115312253D01*
X179989375Y-115384680D01*
X180360625Y-115384680D01*
X180724741Y-115312253D01*
X181067731Y-115170182D01*
X181376413Y-114963926D01*
X181526962Y-114813377D01*
X182216229Y-114813377D01*
X182342104Y-115103315D01*
X182674262Y-115269139D01*
X183032387Y-115366975D01*
X183402719Y-115393065D01*
X183771025Y-115346405D01*
X184123151Y-115228789D01*
X184357896Y-115103315D01*
X184483771Y-114813377D01*
X183350000Y-113679605D01*
X182216229Y-114813377D01*
X181526962Y-114813377D01*
X181638926Y-114701413D01*
X181763386Y-114515147D01*
X182036623Y-114633771D01*
X183170395Y-113500000D01*
X183529605Y-113500000D01*
X184663377Y-114633771D01*
X184953315Y-114507896D01*
X185119139Y-114175738D01*
X185216975Y-113817613D01*
X185243065Y-113447281D01*
X185196405Y-113078975D01*
X185078789Y-112726849D01*
X184953315Y-112492104D01*
X184663377Y-112366229D01*
X183529605Y-113500000D01*
X183170395Y-113500000D01*
X182036623Y-112366229D01*
X181763386Y-112484853D01*
X181638926Y-112298587D01*
X181526962Y-112186623D01*
X182216229Y-112186623D01*
X183350000Y-113320395D01*
X184483771Y-112186623D01*
X184357896Y-111896685D01*
X184025738Y-111730861D01*
X183667613Y-111633025D01*
X183297281Y-111606935D01*
X182928975Y-111653595D01*
X182576849Y-111771211D01*
X182342104Y-111896685D01*
X182216229Y-112186623D01*
X181526962Y-112186623D01*
X181376413Y-112036074D01*
X181067731Y-111829818D01*
X180724741Y-111687747D01*
X180360625Y-111615320D01*
X179989375Y-111615320D01*
X179625259Y-111687747D01*
X179492528Y-111742726D01*
X178488804Y-110739003D01*
X178465001Y-110709999D01*
X178349276Y-110615026D01*
X178217247Y-110544454D01*
X178073986Y-110500997D01*
X177962333Y-110490000D01*
X177962322Y-110490000D01*
X177925000Y-110486324D01*
X177887678Y-110490000D01*
X170962333Y-110490000D01*
X170925000Y-110486323D01*
X170887667Y-110490000D01*
X170776014Y-110500997D01*
X170632753Y-110544454D01*
X170500724Y-110615026D01*
X170384999Y-110709999D01*
X170361201Y-110738997D01*
X169357472Y-111742726D01*
X169224741Y-111687747D01*
X168860625Y-111615320D01*
X168489375Y-111615320D01*
X168125259Y-111687747D01*
X167992528Y-111742726D01*
X165010000Y-108760199D01*
X165010000Y-106000320D01*
X165362248Y-106000320D01*
X165362248Y-108499680D01*
X165374508Y-108624162D01*
X165410818Y-108743860D01*
X165469783Y-108854174D01*
X165549135Y-108950865D01*
X165645826Y-109030217D01*
X165756140Y-109089182D01*
X165875838Y-109125492D01*
X166000320Y-109137752D01*
X168499680Y-109137752D01*
X168624162Y-109125492D01*
X168743860Y-109089182D01*
X168854174Y-109030217D01*
X168950865Y-108950865D01*
X169030217Y-108854174D01*
X169089182Y-108743860D01*
X169125492Y-108624162D01*
X169137752Y-108499680D01*
X169137752Y-106000320D01*
X169125492Y-105875838D01*
X169089182Y-105756140D01*
X169030217Y-105645826D01*
X168950865Y-105549135D01*
X168854174Y-105469783D01*
X168743860Y-105410818D01*
X168624162Y-105374508D01*
X168499680Y-105362248D01*
X166000320Y-105362248D01*
X165875838Y-105374508D01*
X165756140Y-105410818D01*
X165645826Y-105469783D01*
X165549135Y-105549135D01*
X165469783Y-105645826D01*
X165410818Y-105756140D01*
X165374508Y-105875838D01*
X165362248Y-106000320D01*
X165010000Y-106000320D01*
X165010000Y-88674801D01*
X165368700Y-88316101D01*
X165368700Y-88418850D01*
X165426778Y-88710830D01*
X165540703Y-88985869D01*
X165706096Y-89233398D01*
X165916602Y-89443904D01*
X166060420Y-89540000D01*
X165916602Y-89636096D01*
X165706096Y-89846602D01*
X165540703Y-90094131D01*
X165426778Y-90369170D01*
X165368700Y-90661150D01*
X165368700Y-90958850D01*
X165426778Y-91250830D01*
X165540703Y-91525869D01*
X165706096Y-91773398D01*
X165916602Y-91983904D01*
X166060420Y-92080000D01*
X165916602Y-92176096D01*
X165706096Y-92386602D01*
X165540703Y-92634131D01*
X165426778Y-92909170D01*
X165368700Y-93201150D01*
X165368700Y-93498850D01*
X165426778Y-93790830D01*
X165540703Y-94065869D01*
X165706096Y-94313398D01*
X165916602Y-94523904D01*
X166060420Y-94620000D01*
X165916602Y-94716096D01*
X165706096Y-94926602D01*
X165540703Y-95174131D01*
X165426778Y-95449170D01*
X165368700Y-95741150D01*
X165368700Y-96038850D01*
X165426778Y-96330830D01*
X165540703Y-96605869D01*
X165706096Y-96853398D01*
X165916602Y-97063904D01*
X166060420Y-97160000D01*
X165916602Y-97256096D01*
X165706096Y-97466602D01*
X165540703Y-97714131D01*
X165426778Y-97989170D01*
X165368700Y-98281150D01*
X165368700Y-98578850D01*
X165426778Y-98870830D01*
X165540703Y-99145869D01*
X165706096Y-99393398D01*
X165916602Y-99603904D01*
X166060420Y-99700000D01*
X165916602Y-99796096D01*
X165706096Y-100006602D01*
X165540703Y-100254131D01*
X165426778Y-100529170D01*
X165368700Y-100821150D01*
X165368700Y-101118850D01*
X165426778Y-101410830D01*
X165540703Y-101685869D01*
X165706096Y-101933398D01*
X165916602Y-102143904D01*
X166164131Y-102309297D01*
X166439170Y-102423222D01*
X166731150Y-102481300D01*
X167028850Y-102481300D01*
X167320830Y-102423222D01*
X167595869Y-102309297D01*
X167843398Y-102143904D01*
X168053904Y-101933398D01*
X168219297Y-101685869D01*
X168333222Y-101410830D01*
X168391300Y-101118850D01*
X168391300Y-100821150D01*
X168333222Y-100529170D01*
X168219297Y-100254131D01*
X168053904Y-100006602D01*
X167843398Y-99796096D01*
X167699580Y-99700000D01*
X167843398Y-99603904D01*
X168053904Y-99393398D01*
X168219297Y-99145869D01*
X168333222Y-98870830D01*
X168391300Y-98578850D01*
X168391300Y-98281150D01*
X168333222Y-97989170D01*
X168219297Y-97714131D01*
X168053904Y-97466602D01*
X167843398Y-97256096D01*
X167699580Y-97160000D01*
X167843398Y-97063904D01*
X168053904Y-96853398D01*
X168219297Y-96605869D01*
X168333222Y-96330830D01*
X168391300Y-96038850D01*
X168391300Y-95741150D01*
X168333222Y-95449170D01*
X168219297Y-95174131D01*
X168053904Y-94926602D01*
X167843398Y-94716096D01*
X167699580Y-94620000D01*
X167843398Y-94523904D01*
X168053904Y-94313398D01*
X168219297Y-94065869D01*
X168333222Y-93790830D01*
X168391300Y-93498850D01*
X168391300Y-93201150D01*
X168333222Y-92909170D01*
X168219297Y-92634131D01*
X168053904Y-92386602D01*
X167843398Y-92176096D01*
X167699580Y-92080000D01*
X167843398Y-91983904D01*
X168053904Y-91773398D01*
X168219297Y-91525869D01*
X168333222Y-91250830D01*
X168391300Y-90958850D01*
X168391300Y-90661150D01*
X168333222Y-90369170D01*
X168219297Y-90094131D01*
X168053904Y-89846602D01*
X167843398Y-89636096D01*
X167699580Y-89540000D01*
X167843398Y-89443904D01*
X168053904Y-89233398D01*
X168219297Y-88985869D01*
X168333222Y-88710830D01*
X168391300Y-88418850D01*
X168391300Y-88121150D01*
X168333222Y-87829170D01*
X168219297Y-87554131D01*
X168053904Y-87306602D01*
X167843398Y-87096096D01*
X167699580Y-87000000D01*
X167843398Y-86903904D01*
X168053904Y-86693398D01*
X168219297Y-86445869D01*
X168333222Y-86170830D01*
X168391300Y-85878850D01*
X168391300Y-85776101D01*
X170300001Y-87684803D01*
X170300000Y-105524839D01*
X170167269Y-105579818D01*
X169858587Y-105786074D01*
X169596074Y-106048587D01*
X169389818Y-106357269D01*
X169247747Y-106700259D01*
X169175320Y-107064375D01*
X169175320Y-107435625D01*
X169247747Y-107799741D01*
X169389818Y-108142731D01*
X169596074Y-108451413D01*
X169858587Y-108713926D01*
X170167269Y-108920182D01*
X170510259Y-109062253D01*
X170874375Y-109134680D01*
X171245625Y-109134680D01*
X171609741Y-109062253D01*
X171952731Y-108920182D01*
X172261413Y-108713926D01*
X172523926Y-108451413D01*
X172730182Y-108142731D01*
X172872253Y-107799741D01*
X172944680Y-107435625D01*
X172944680Y-107064375D01*
X172872253Y-106700259D01*
X172730182Y-106357269D01*
X172523926Y-106048587D01*
X172475659Y-106000320D01*
X175862248Y-106000320D01*
X175862248Y-108499680D01*
X175874508Y-108624162D01*
X175910818Y-108743860D01*
X175969783Y-108854174D01*
X176049135Y-108950865D01*
X176145826Y-109030217D01*
X176256140Y-109089182D01*
X176375838Y-109125492D01*
X176500320Y-109137752D01*
X178999680Y-109137752D01*
X179124162Y-109125492D01*
X179243860Y-109089182D01*
X179354174Y-109030217D01*
X179450865Y-108950865D01*
X179530217Y-108854174D01*
X179589182Y-108743860D01*
X179625492Y-108624162D01*
X179631478Y-108563377D01*
X180426229Y-108563377D01*
X180552104Y-108853315D01*
X180884262Y-109019139D01*
X181242387Y-109116975D01*
X181612719Y-109143065D01*
X181981025Y-109096405D01*
X182333151Y-108978789D01*
X182567896Y-108853315D01*
X182612888Y-108749680D01*
X187112248Y-108749680D01*
X187124508Y-108874162D01*
X187160818Y-108993860D01*
X187219783Y-109104174D01*
X187299135Y-109200865D01*
X187395826Y-109280217D01*
X187506140Y-109339182D01*
X187625838Y-109375492D01*
X187750320Y-109387752D01*
X188714250Y-109384680D01*
X188873000Y-109225930D01*
X188873000Y-107627000D01*
X189127000Y-107627000D01*
X189127000Y-109225930D01*
X189285750Y-109384680D01*
X190249680Y-109387752D01*
X190374162Y-109375492D01*
X190493860Y-109339182D01*
X190604174Y-109280217D01*
X190700865Y-109200865D01*
X190780217Y-109104174D01*
X190839182Y-108993860D01*
X190875492Y-108874162D01*
X190887752Y-108749680D01*
X190884680Y-107785750D01*
X190725930Y-107627000D01*
X189127000Y-107627000D01*
X188873000Y-107627000D01*
X187274070Y-107627000D01*
X187115320Y-107785750D01*
X187112248Y-108749680D01*
X182612888Y-108749680D01*
X182693771Y-108563377D01*
X181560000Y-107429605D01*
X180426229Y-108563377D01*
X179631478Y-108563377D01*
X179637752Y-108499680D01*
X179637752Y-107302719D01*
X179666935Y-107302719D01*
X179713595Y-107671025D01*
X179831211Y-108023151D01*
X179956685Y-108257896D01*
X180246623Y-108383771D01*
X181380395Y-107250000D01*
X181739605Y-107250000D01*
X182873377Y-108383771D01*
X183163315Y-108257896D01*
X183329139Y-107925738D01*
X183426975Y-107567613D01*
X183453065Y-107197281D01*
X183406405Y-106828975D01*
X183288789Y-106476849D01*
X183167707Y-106250320D01*
X187112248Y-106250320D01*
X187115320Y-107214250D01*
X187274070Y-107373000D01*
X188873000Y-107373000D01*
X188873000Y-107353000D01*
X189127000Y-107353000D01*
X189127000Y-107373000D01*
X190725930Y-107373000D01*
X190884680Y-107214250D01*
X190887752Y-106250320D01*
X190875492Y-106125838D01*
X190839182Y-106006140D01*
X190780217Y-105895826D01*
X190700865Y-105799135D01*
X190604174Y-105719783D01*
X190493860Y-105660818D01*
X190374162Y-105624508D01*
X190366578Y-105623761D01*
X190463926Y-105526413D01*
X190670182Y-105217731D01*
X190812253Y-104874741D01*
X190884680Y-104510625D01*
X190884680Y-104139375D01*
X190812253Y-103775259D01*
X190670182Y-103432269D01*
X190463926Y-103123587D01*
X190201413Y-102861074D01*
X190016473Y-102737500D01*
X190201413Y-102613926D01*
X190463926Y-102351413D01*
X190670182Y-102042731D01*
X190812253Y-101699741D01*
X190884680Y-101335625D01*
X190884680Y-100964375D01*
X190812253Y-100600259D01*
X190670182Y-100257269D01*
X190463926Y-99948587D01*
X190201413Y-99686074D01*
X189892731Y-99479818D01*
X189549741Y-99337747D01*
X189185625Y-99265320D01*
X188814375Y-99265320D01*
X188450259Y-99337747D01*
X188107269Y-99479818D01*
X187798587Y-99686074D01*
X187536074Y-99948587D01*
X187329818Y-100257269D01*
X187187747Y-100600259D01*
X187115320Y-100964375D01*
X187115320Y-101335625D01*
X187187747Y-101699741D01*
X187329818Y-102042731D01*
X187536074Y-102351413D01*
X187798587Y-102613926D01*
X187983527Y-102737500D01*
X187798587Y-102861074D01*
X187536074Y-103123587D01*
X187329818Y-103432269D01*
X187187747Y-103775259D01*
X187115320Y-104139375D01*
X187115320Y-104510625D01*
X187187747Y-104874741D01*
X187329818Y-105217731D01*
X187536074Y-105526413D01*
X187633422Y-105623761D01*
X187625838Y-105624508D01*
X187506140Y-105660818D01*
X187395826Y-105719783D01*
X187299135Y-105799135D01*
X187219783Y-105895826D01*
X187160818Y-106006140D01*
X187124508Y-106125838D01*
X187112248Y-106250320D01*
X183167707Y-106250320D01*
X183163315Y-106242104D01*
X182873377Y-106116229D01*
X181739605Y-107250000D01*
X181380395Y-107250000D01*
X180246623Y-106116229D01*
X179956685Y-106242104D01*
X179790861Y-106574262D01*
X179693025Y-106932387D01*
X179666935Y-107302719D01*
X179637752Y-107302719D01*
X179637752Y-106000320D01*
X179631479Y-105936623D01*
X180426229Y-105936623D01*
X181560000Y-107070395D01*
X182693771Y-105936623D01*
X182567896Y-105646685D01*
X182235738Y-105480861D01*
X181877613Y-105383025D01*
X181507281Y-105356935D01*
X181138975Y-105403595D01*
X180786849Y-105521211D01*
X180552104Y-105646685D01*
X180426229Y-105936623D01*
X179631479Y-105936623D01*
X179625492Y-105875838D01*
X179589182Y-105756140D01*
X179530217Y-105645826D01*
X179450865Y-105549135D01*
X179354174Y-105469783D01*
X179243860Y-105410818D01*
X179124162Y-105374508D01*
X178999680Y-105362248D01*
X176500320Y-105362248D01*
X176375838Y-105374508D01*
X176256140Y-105410818D01*
X176145826Y-105469783D01*
X176049135Y-105549135D01*
X175969783Y-105645826D01*
X175910818Y-105756140D01*
X175874508Y-105875838D01*
X175862248Y-106000320D01*
X172475659Y-106000320D01*
X172261413Y-105786074D01*
X171952731Y-105579818D01*
X171820000Y-105524839D01*
X171820000Y-87407325D01*
X171823676Y-87370000D01*
X171820000Y-87332675D01*
X171820000Y-87332667D01*
X171809003Y-87221014D01*
X171765546Y-87077753D01*
X171694974Y-86945724D01*
X171600001Y-86829999D01*
X171571003Y-86806201D01*
X168343576Y-83578775D01*
X168391300Y-83338850D01*
X168391300Y-83041150D01*
X180608700Y-83041150D01*
X180608700Y-83338850D01*
X180666778Y-83630830D01*
X180780703Y-83905869D01*
X180946096Y-84153398D01*
X181156602Y-84363904D01*
X181300420Y-84460000D01*
X181156602Y-84556096D01*
X180946096Y-84766602D01*
X180780703Y-85014131D01*
X180666778Y-85289170D01*
X180608700Y-85581150D01*
X180608700Y-85878850D01*
X180666778Y-86170830D01*
X180780703Y-86445869D01*
X180946096Y-86693398D01*
X181156602Y-86903904D01*
X181300420Y-87000000D01*
X181156602Y-87096096D01*
X180946096Y-87306602D01*
X180780703Y-87554131D01*
X180666778Y-87829170D01*
X180608700Y-88121150D01*
X180608700Y-88418850D01*
X180666778Y-88710830D01*
X180780703Y-88985869D01*
X180946096Y-89233398D01*
X181156602Y-89443904D01*
X181300420Y-89540000D01*
X181156602Y-89636096D01*
X180946096Y-89846602D01*
X180780703Y-90094131D01*
X180666778Y-90369170D01*
X180608700Y-90661150D01*
X180608700Y-90958850D01*
X180666778Y-91250830D01*
X180780703Y-91525869D01*
X180946096Y-91773398D01*
X181156602Y-91983904D01*
X181300420Y-92080000D01*
X181156602Y-92176096D01*
X180946096Y-92386602D01*
X180780703Y-92634131D01*
X180666778Y-92909170D01*
X180608700Y-93201150D01*
X180608700Y-93498850D01*
X180666778Y-93790830D01*
X180780703Y-94065869D01*
X180946096Y-94313398D01*
X181156602Y-94523904D01*
X181300420Y-94620000D01*
X181156602Y-94716096D01*
X180946096Y-94926602D01*
X180780703Y-95174131D01*
X180666778Y-95449170D01*
X180608700Y-95741150D01*
X180608700Y-96038850D01*
X180666778Y-96330830D01*
X180780703Y-96605869D01*
X180946096Y-96853398D01*
X181156602Y-97063904D01*
X181300420Y-97160000D01*
X181156602Y-97256096D01*
X180946096Y-97466602D01*
X180780703Y-97714131D01*
X180666778Y-97989170D01*
X180608700Y-98281150D01*
X180608700Y-98578850D01*
X180666778Y-98870830D01*
X180780703Y-99145869D01*
X180946096Y-99393398D01*
X181156602Y-99603904D01*
X181300420Y-99700000D01*
X181156602Y-99796096D01*
X180946096Y-100006602D01*
X180780703Y-100254131D01*
X180666778Y-100529170D01*
X180608700Y-100821150D01*
X180608700Y-101118850D01*
X180666778Y-101410830D01*
X180780703Y-101685869D01*
X180946096Y-101933398D01*
X181156602Y-102143904D01*
X181404131Y-102309297D01*
X181679170Y-102423222D01*
X181971150Y-102481300D01*
X182268850Y-102481300D01*
X182560830Y-102423222D01*
X182835869Y-102309297D01*
X183083398Y-102143904D01*
X183293904Y-101933398D01*
X183459297Y-101685869D01*
X183573222Y-101410830D01*
X183631300Y-101118850D01*
X183631300Y-100821150D01*
X183573222Y-100529170D01*
X183459297Y-100254131D01*
X183293904Y-100006602D01*
X183083398Y-99796096D01*
X182939580Y-99700000D01*
X183083398Y-99603904D01*
X183293904Y-99393398D01*
X183459297Y-99145869D01*
X183573222Y-98870830D01*
X183631300Y-98578850D01*
X183631300Y-98281150D01*
X183625041Y-98249680D01*
X187112248Y-98249680D01*
X187124508Y-98374162D01*
X187160818Y-98493860D01*
X187219783Y-98604174D01*
X187299135Y-98700865D01*
X187395826Y-98780217D01*
X187506140Y-98839182D01*
X187625838Y-98875492D01*
X187750320Y-98887752D01*
X188714250Y-98884680D01*
X188873000Y-98725930D01*
X188873000Y-97127000D01*
X189127000Y-97127000D01*
X189127000Y-98725930D01*
X189285750Y-98884680D01*
X190249680Y-98887752D01*
X190374162Y-98875492D01*
X190493860Y-98839182D01*
X190604174Y-98780217D01*
X190700865Y-98700865D01*
X190780217Y-98604174D01*
X190839182Y-98493860D01*
X190875492Y-98374162D01*
X190887752Y-98249680D01*
X190884680Y-97285750D01*
X190725930Y-97127000D01*
X189127000Y-97127000D01*
X188873000Y-97127000D01*
X187274070Y-97127000D01*
X187115320Y-97285750D01*
X187112248Y-98249680D01*
X183625041Y-98249680D01*
X183573222Y-97989170D01*
X183459297Y-97714131D01*
X183293904Y-97466602D01*
X183083398Y-97256096D01*
X182939580Y-97160000D01*
X183083398Y-97063904D01*
X183293904Y-96853398D01*
X183459297Y-96605869D01*
X183573222Y-96330830D01*
X183631300Y-96038850D01*
X183631300Y-95750320D01*
X187112248Y-95750320D01*
X187115320Y-96714250D01*
X187274070Y-96873000D01*
X188873000Y-96873000D01*
X188873000Y-96853000D01*
X189127000Y-96853000D01*
X189127000Y-96873000D01*
X190725930Y-96873000D01*
X190884680Y-96714250D01*
X190887752Y-95750320D01*
X190875492Y-95625838D01*
X190839182Y-95506140D01*
X190780217Y-95395826D01*
X190700865Y-95299135D01*
X190604174Y-95219783D01*
X190493860Y-95160818D01*
X190374162Y-95124508D01*
X190366578Y-95123761D01*
X190463926Y-95026413D01*
X190670182Y-94717731D01*
X190812253Y-94374741D01*
X190884680Y-94010625D01*
X190884680Y-93639375D01*
X190812253Y-93275259D01*
X190670182Y-92932269D01*
X190463926Y-92623587D01*
X190201413Y-92361074D01*
X190016473Y-92237500D01*
X190201413Y-92113926D01*
X190463926Y-91851413D01*
X190670182Y-91542731D01*
X190812253Y-91199741D01*
X190884680Y-90835625D01*
X190884680Y-90464375D01*
X190812253Y-90100259D01*
X190670182Y-89757269D01*
X190463926Y-89448587D01*
X190201413Y-89186074D01*
X189892731Y-88979818D01*
X189549741Y-88837747D01*
X189185625Y-88765320D01*
X188814375Y-88765320D01*
X188450259Y-88837747D01*
X188107269Y-88979818D01*
X187798587Y-89186074D01*
X187536074Y-89448587D01*
X187329818Y-89757269D01*
X187187747Y-90100259D01*
X187115320Y-90464375D01*
X187115320Y-90835625D01*
X187187747Y-91199741D01*
X187329818Y-91542731D01*
X187536074Y-91851413D01*
X187798587Y-92113926D01*
X187983527Y-92237500D01*
X187798587Y-92361074D01*
X187536074Y-92623587D01*
X187329818Y-92932269D01*
X187187747Y-93275259D01*
X187115320Y-93639375D01*
X187115320Y-94010625D01*
X187187747Y-94374741D01*
X187329818Y-94717731D01*
X187536074Y-95026413D01*
X187633422Y-95123761D01*
X187625838Y-95124508D01*
X187506140Y-95160818D01*
X187395826Y-95219783D01*
X187299135Y-95299135D01*
X187219783Y-95395826D01*
X187160818Y-95506140D01*
X187124508Y-95625838D01*
X187112248Y-95750320D01*
X183631300Y-95750320D01*
X183631300Y-95741150D01*
X183573222Y-95449170D01*
X183459297Y-95174131D01*
X183293904Y-94926602D01*
X183083398Y-94716096D01*
X182939580Y-94620000D01*
X183083398Y-94523904D01*
X183293904Y-94313398D01*
X183459297Y-94065869D01*
X183573222Y-93790830D01*
X183631300Y-93498850D01*
X183631300Y-93201150D01*
X183573222Y-92909170D01*
X183459297Y-92634131D01*
X183293904Y-92386602D01*
X183083398Y-92176096D01*
X182939580Y-92080000D01*
X183083398Y-91983904D01*
X183293904Y-91773398D01*
X183459297Y-91525869D01*
X183573222Y-91250830D01*
X183631300Y-90958850D01*
X183631300Y-90661150D01*
X183573222Y-90369170D01*
X183459297Y-90094131D01*
X183293904Y-89846602D01*
X183083398Y-89636096D01*
X182939580Y-89540000D01*
X183083398Y-89443904D01*
X183293904Y-89233398D01*
X183459297Y-88985869D01*
X183573222Y-88710830D01*
X183631300Y-88418850D01*
X183631300Y-88121150D01*
X183573222Y-87829170D01*
X183509231Y-87674680D01*
X187112248Y-87674680D01*
X187124508Y-87799162D01*
X187160818Y-87918860D01*
X187219783Y-88029174D01*
X187299135Y-88125865D01*
X187395826Y-88205217D01*
X187506140Y-88264182D01*
X187625838Y-88300492D01*
X187750320Y-88312752D01*
X188714250Y-88309680D01*
X188873000Y-88150930D01*
X188873000Y-86552000D01*
X189127000Y-86552000D01*
X189127000Y-88150930D01*
X189285750Y-88309680D01*
X190249680Y-88312752D01*
X190374162Y-88300492D01*
X190493860Y-88264182D01*
X190604174Y-88205217D01*
X190700865Y-88125865D01*
X190780217Y-88029174D01*
X190839182Y-87918860D01*
X190875492Y-87799162D01*
X190887752Y-87674680D01*
X190884680Y-86710750D01*
X190725930Y-86552000D01*
X189127000Y-86552000D01*
X188873000Y-86552000D01*
X187274070Y-86552000D01*
X187115320Y-86710750D01*
X187112248Y-87674680D01*
X183509231Y-87674680D01*
X183459297Y-87554131D01*
X183293904Y-87306602D01*
X183083398Y-87096096D01*
X182939580Y-87000000D01*
X183083398Y-86903904D01*
X183293904Y-86693398D01*
X183459297Y-86445869D01*
X183573222Y-86170830D01*
X183631300Y-85878850D01*
X183631300Y-85581150D01*
X183573222Y-85289170D01*
X183526064Y-85175320D01*
X187112248Y-85175320D01*
X187115320Y-86139250D01*
X187274070Y-86298000D01*
X188873000Y-86298000D01*
X188873000Y-86278000D01*
X189127000Y-86278000D01*
X189127000Y-86298000D01*
X190725930Y-86298000D01*
X190884680Y-86139250D01*
X190887752Y-85175320D01*
X190875492Y-85050838D01*
X190839182Y-84931140D01*
X190780217Y-84820826D01*
X190700865Y-84724135D01*
X190604174Y-84644783D01*
X190493860Y-84585818D01*
X190374162Y-84549508D01*
X190366578Y-84548761D01*
X190463926Y-84451413D01*
X190670182Y-84142731D01*
X190812253Y-83799741D01*
X190884680Y-83435625D01*
X190884680Y-83064375D01*
X190812253Y-82700259D01*
X190670182Y-82357269D01*
X190463926Y-82048587D01*
X190201413Y-81786074D01*
X190016473Y-81662500D01*
X190201413Y-81538926D01*
X190463926Y-81276413D01*
X190670182Y-80967731D01*
X190812253Y-80624741D01*
X190884680Y-80260625D01*
X190884680Y-79889375D01*
X190812253Y-79525259D01*
X190670182Y-79182269D01*
X190463926Y-78873587D01*
X190201413Y-78611074D01*
X189892731Y-78404818D01*
X189549741Y-78262747D01*
X189185625Y-78190320D01*
X188814375Y-78190320D01*
X188450259Y-78262747D01*
X188107269Y-78404818D01*
X187798587Y-78611074D01*
X187536074Y-78873587D01*
X187329818Y-79182269D01*
X187187747Y-79525259D01*
X187115320Y-79889375D01*
X187115320Y-80260625D01*
X187187747Y-80624741D01*
X187329818Y-80967731D01*
X187536074Y-81276413D01*
X187798587Y-81538926D01*
X187983527Y-81662500D01*
X187798587Y-81786074D01*
X187536074Y-82048587D01*
X187329818Y-82357269D01*
X187187747Y-82700259D01*
X187115320Y-83064375D01*
X187115320Y-83435625D01*
X187187747Y-83799741D01*
X187329818Y-84142731D01*
X187536074Y-84451413D01*
X187633422Y-84548761D01*
X187625838Y-84549508D01*
X187506140Y-84585818D01*
X187395826Y-84644783D01*
X187299135Y-84724135D01*
X187219783Y-84820826D01*
X187160818Y-84931140D01*
X187124508Y-85050838D01*
X187112248Y-85175320D01*
X183526064Y-85175320D01*
X183459297Y-85014131D01*
X183293904Y-84766602D01*
X183083398Y-84556096D01*
X182939580Y-84460000D01*
X183083398Y-84363904D01*
X183293904Y-84153398D01*
X183459297Y-83905869D01*
X183573222Y-83630830D01*
X183631300Y-83338850D01*
X183631300Y-83041150D01*
X183573222Y-82749170D01*
X183459297Y-82474131D01*
X183293904Y-82226602D01*
X183083398Y-82016096D01*
X182920191Y-81907045D01*
X182987563Y-81697169D01*
X182120000Y-80829605D01*
X181252437Y-81697169D01*
X181319809Y-81907045D01*
X181156602Y-82016096D01*
X180946096Y-82226602D01*
X180780703Y-82474131D01*
X180666778Y-82749170D01*
X180608700Y-83041150D01*
X168391300Y-83041150D01*
X168333222Y-82749170D01*
X168219297Y-82474131D01*
X168053904Y-82226602D01*
X167843398Y-82016096D01*
X167699580Y-81920000D01*
X167843398Y-81823904D01*
X168053904Y-81613398D01*
X168219297Y-81365869D01*
X168333222Y-81090830D01*
X168391300Y-80798850D01*
X168391300Y-80717491D01*
X180602887Y-80717491D01*
X180645204Y-81012167D01*
X180744198Y-81292927D01*
X180821071Y-81436746D01*
X181072831Y-81517563D01*
X181940395Y-80650000D01*
X182299605Y-80650000D01*
X183167169Y-81517563D01*
X183418929Y-81436746D01*
X183547457Y-81168221D01*
X183621129Y-80879781D01*
X183637113Y-80582509D01*
X183594796Y-80287833D01*
X183495802Y-80007073D01*
X183418929Y-79863254D01*
X183167169Y-79782437D01*
X182299605Y-80650000D01*
X181940395Y-80650000D01*
X181072831Y-79782437D01*
X180821071Y-79863254D01*
X180692543Y-80131779D01*
X180618871Y-80420219D01*
X180602887Y-80717491D01*
X168391300Y-80717491D01*
X168391300Y-80501150D01*
X168333222Y-80209170D01*
X168219297Y-79934131D01*
X168053904Y-79686602D01*
X167843398Y-79476096D01*
X167699580Y-79380000D01*
X167843398Y-79283904D01*
X168053904Y-79073398D01*
X168219297Y-78825869D01*
X168333222Y-78550830D01*
X168391300Y-78258850D01*
X168391300Y-77961150D01*
X168333222Y-77669170D01*
X168219297Y-77394131D01*
X168053904Y-77146602D01*
X167843398Y-76936096D01*
X167699580Y-76840000D01*
X167843398Y-76743904D01*
X168053904Y-76533398D01*
X168219297Y-76285869D01*
X168333222Y-76010830D01*
X168391300Y-75718850D01*
X168391300Y-75421150D01*
X168333222Y-75129170D01*
X168219297Y-74854131D01*
X168053904Y-74606602D01*
X167956458Y-74509156D01*
X168000480Y-74495802D01*
X168110794Y-74436837D01*
X168207485Y-74357485D01*
X168286837Y-74260794D01*
X168345802Y-74150480D01*
X168382112Y-74030782D01*
X168394372Y-73906300D01*
X168394372Y-72881150D01*
X180608700Y-72881150D01*
X180608700Y-73178850D01*
X180666778Y-73470830D01*
X180780703Y-73745869D01*
X180946096Y-73993398D01*
X181156602Y-74203904D01*
X181300420Y-74300000D01*
X181156602Y-74396096D01*
X180946096Y-74606602D01*
X180780703Y-74854131D01*
X180666778Y-75129170D01*
X180608700Y-75421150D01*
X180608700Y-75718850D01*
X180666778Y-76010830D01*
X180780703Y-76285869D01*
X180946096Y-76533398D01*
X181156602Y-76743904D01*
X181300420Y-76840000D01*
X181156602Y-76936096D01*
X180946096Y-77146602D01*
X180780703Y-77394131D01*
X180666778Y-77669170D01*
X180608700Y-77961150D01*
X180608700Y-78258850D01*
X180666778Y-78550830D01*
X180780703Y-78825869D01*
X180946096Y-79073398D01*
X181156602Y-79283904D01*
X181319809Y-79392955D01*
X181252437Y-79602831D01*
X182120000Y-80470395D01*
X182987563Y-79602831D01*
X182920191Y-79392955D01*
X183083398Y-79283904D01*
X183293904Y-79073398D01*
X183459297Y-78825869D01*
X183573222Y-78550830D01*
X183631300Y-78258850D01*
X183631300Y-77961150D01*
X183573222Y-77669170D01*
X183459297Y-77394131D01*
X183293904Y-77146602D01*
X183083398Y-76936096D01*
X182939580Y-76840000D01*
X183083398Y-76743904D01*
X183293904Y-76533398D01*
X183459297Y-76285869D01*
X183573222Y-76010830D01*
X183631300Y-75718850D01*
X183631300Y-75421150D01*
X183573222Y-75129170D01*
X183459297Y-74854131D01*
X183293904Y-74606602D01*
X183083398Y-74396096D01*
X182939580Y-74300000D01*
X183083398Y-74203904D01*
X183293904Y-73993398D01*
X183403672Y-73829117D01*
X186765000Y-73829117D01*
X186765000Y-74170883D01*
X186831675Y-74506081D01*
X186962463Y-74821831D01*
X187152337Y-75105998D01*
X187394002Y-75347663D01*
X187678169Y-75537537D01*
X187993919Y-75668325D01*
X188329117Y-75735000D01*
X188670883Y-75735000D01*
X189006081Y-75668325D01*
X189321831Y-75537537D01*
X189605998Y-75347663D01*
X189847663Y-75105998D01*
X190037537Y-74821831D01*
X190168325Y-74506081D01*
X190235000Y-74170883D01*
X190235000Y-73829117D01*
X190168325Y-73493919D01*
X190037537Y-73178169D01*
X189847663Y-72894002D01*
X189605998Y-72652337D01*
X189321831Y-72462463D01*
X189006081Y-72331675D01*
X188670883Y-72265000D01*
X188329117Y-72265000D01*
X187993919Y-72331675D01*
X187678169Y-72462463D01*
X187394002Y-72652337D01*
X187152337Y-72894002D01*
X186962463Y-73178169D01*
X186831675Y-73493919D01*
X186765000Y-73829117D01*
X183403672Y-73829117D01*
X183459297Y-73745869D01*
X183573222Y-73470830D01*
X183631300Y-73178850D01*
X183631300Y-72881150D01*
X183573222Y-72589170D01*
X183459297Y-72314131D01*
X183293904Y-72066602D01*
X183083398Y-71856096D01*
X182835869Y-71690703D01*
X182560830Y-71576778D01*
X182268850Y-71518700D01*
X181971150Y-71518700D01*
X181679170Y-71576778D01*
X181404131Y-71690703D01*
X181156602Y-71856096D01*
X180946096Y-72066602D01*
X180780703Y-72314131D01*
X180666778Y-72589170D01*
X180608700Y-72881150D01*
X168394372Y-72881150D01*
X168394372Y-72153700D01*
X168382112Y-72029218D01*
X168345802Y-71909520D01*
X168286837Y-71799206D01*
X168207485Y-71702515D01*
X168110794Y-71623163D01*
X168000480Y-71564198D01*
X167880782Y-71527888D01*
X167756300Y-71515628D01*
X166003700Y-71515628D01*
X165879218Y-71527888D01*
X165759520Y-71564198D01*
X165649206Y-71623163D01*
X165552515Y-71702515D01*
X165473163Y-71799206D01*
X165414198Y-71909520D01*
X165377888Y-72029218D01*
X165365628Y-72153700D01*
X165365628Y-73906300D01*
X165377888Y-74030782D01*
X165414198Y-74150480D01*
X165473163Y-74260794D01*
X165552515Y-74357485D01*
X165649206Y-74436837D01*
X165759520Y-74495802D01*
X165803542Y-74509156D01*
X165706096Y-74606602D01*
X165540703Y-74854131D01*
X165426778Y-75129170D01*
X165368700Y-75421150D01*
X165368700Y-75718850D01*
X165426778Y-76010830D01*
X165540703Y-76285869D01*
X165706096Y-76533398D01*
X165916602Y-76743904D01*
X166060420Y-76840000D01*
X165916602Y-76936096D01*
X165706096Y-77146602D01*
X165540703Y-77394131D01*
X165426778Y-77669170D01*
X165368700Y-77961150D01*
X165368700Y-78258850D01*
X165426778Y-78550830D01*
X165540703Y-78825869D01*
X165706096Y-79073398D01*
X165916602Y-79283904D01*
X166060420Y-79380000D01*
X165916602Y-79476096D01*
X165706096Y-79686602D01*
X165540703Y-79934131D01*
X165426778Y-80209170D01*
X165368700Y-80501150D01*
X165368700Y-80798850D01*
X165426778Y-81090830D01*
X165540703Y-81365869D01*
X165706096Y-81613398D01*
X165916602Y-81823904D01*
X166060420Y-81920000D01*
X165916602Y-82016096D01*
X165706096Y-82226602D01*
X165540703Y-82474131D01*
X165426778Y-82749170D01*
X165368700Y-83041150D01*
X165368700Y-83338850D01*
X165426778Y-83630830D01*
X165540703Y-83905869D01*
X165706096Y-84153398D01*
X165916602Y-84363904D01*
X166060420Y-84460000D01*
X165916602Y-84556096D01*
X165706096Y-84766602D01*
X165540703Y-85014131D01*
X165426778Y-85289170D01*
X165368700Y-85581150D01*
X165368700Y-85878850D01*
X165416424Y-86118775D01*
X163738998Y-87796201D01*
X163710000Y-87819999D01*
X163686202Y-87848997D01*
X163686201Y-87848998D01*
X163615026Y-87935724D01*
X163544454Y-88067754D01*
X163519224Y-88150930D01*
X163502757Y-88205217D01*
X163500998Y-88211015D01*
X163486324Y-88360000D01*
X157910000Y-88360000D01*
X157910000Y-81249680D01*
X158112248Y-81249680D01*
X158124508Y-81374162D01*
X158160818Y-81493860D01*
X158219783Y-81604174D01*
X158299135Y-81700865D01*
X158395826Y-81780217D01*
X158506140Y-81839182D01*
X158625838Y-81875492D01*
X158633422Y-81876239D01*
X158536074Y-81973587D01*
X158329818Y-82282269D01*
X158187747Y-82625259D01*
X158115320Y-82989375D01*
X158115320Y-83360625D01*
X158187747Y-83724741D01*
X158329818Y-84067731D01*
X158536074Y-84376413D01*
X158798587Y-84638926D01*
X158983527Y-84762500D01*
X158798587Y-84886074D01*
X158536074Y-85148587D01*
X158329818Y-85457269D01*
X158187747Y-85800259D01*
X158115320Y-86164375D01*
X158115320Y-86535625D01*
X158187747Y-86899741D01*
X158329818Y-87242731D01*
X158536074Y-87551413D01*
X158798587Y-87813926D01*
X159107269Y-88020182D01*
X159450259Y-88162253D01*
X159814375Y-88234680D01*
X160185625Y-88234680D01*
X160549741Y-88162253D01*
X160892731Y-88020182D01*
X161201413Y-87813926D01*
X161463926Y-87551413D01*
X161670182Y-87242731D01*
X161812253Y-86899741D01*
X161884680Y-86535625D01*
X161884680Y-86164375D01*
X161812253Y-85800259D01*
X161670182Y-85457269D01*
X161463926Y-85148587D01*
X161201413Y-84886074D01*
X161016473Y-84762500D01*
X161201413Y-84638926D01*
X161463926Y-84376413D01*
X161670182Y-84067731D01*
X161812253Y-83724741D01*
X161884680Y-83360625D01*
X161884680Y-82989375D01*
X161812253Y-82625259D01*
X161670182Y-82282269D01*
X161463926Y-81973587D01*
X161366578Y-81876239D01*
X161374162Y-81875492D01*
X161493860Y-81839182D01*
X161604174Y-81780217D01*
X161700865Y-81700865D01*
X161780217Y-81604174D01*
X161839182Y-81493860D01*
X161875492Y-81374162D01*
X161887752Y-81249680D01*
X161884680Y-80285750D01*
X161725930Y-80127000D01*
X160127000Y-80127000D01*
X160127000Y-80147000D01*
X159873000Y-80147000D01*
X159873000Y-80127000D01*
X158274070Y-80127000D01*
X158115320Y-80285750D01*
X158112248Y-81249680D01*
X157910000Y-81249680D01*
X157910000Y-78750320D01*
X158112248Y-78750320D01*
X158115320Y-79714250D01*
X158274070Y-79873000D01*
X159873000Y-79873000D01*
X159873000Y-78274070D01*
X160127000Y-78274070D01*
X160127000Y-79873000D01*
X161725930Y-79873000D01*
X161884680Y-79714250D01*
X161887752Y-78750320D01*
X161875492Y-78625838D01*
X161839182Y-78506140D01*
X161780217Y-78395826D01*
X161700865Y-78299135D01*
X161604174Y-78219783D01*
X161493860Y-78160818D01*
X161374162Y-78124508D01*
X161249680Y-78112248D01*
X160285750Y-78115320D01*
X160127000Y-78274070D01*
X159873000Y-78274070D01*
X159714250Y-78115320D01*
X158750320Y-78112248D01*
X158625838Y-78124508D01*
X158506140Y-78160818D01*
X158395826Y-78219783D01*
X158299135Y-78299135D01*
X158219783Y-78395826D01*
X158160818Y-78506140D01*
X158124508Y-78625838D01*
X158112248Y-78750320D01*
X157910000Y-78750320D01*
X157910000Y-73829117D01*
X158765000Y-73829117D01*
X158765000Y-74170883D01*
X158831675Y-74506081D01*
X158962463Y-74821831D01*
X159152337Y-75105998D01*
X159394002Y-75347663D01*
X159678169Y-75537537D01*
X159993919Y-75668325D01*
X160329117Y-75735000D01*
X160670883Y-75735000D01*
X161006081Y-75668325D01*
X161321831Y-75537537D01*
X161605998Y-75347663D01*
X161847663Y-75105998D01*
X162037537Y-74821831D01*
X162168325Y-74506081D01*
X162235000Y-74170883D01*
X162235000Y-73829117D01*
X162168325Y-73493919D01*
X162037537Y-73178169D01*
X161847663Y-72894002D01*
X161605998Y-72652337D01*
X161321831Y-72462463D01*
X161006081Y-72331675D01*
X160670883Y-72265000D01*
X160329117Y-72265000D01*
X159993919Y-72331675D01*
X159678169Y-72462463D01*
X159394002Y-72652337D01*
X159152337Y-72894002D01*
X158962463Y-73178169D01*
X158831675Y-73493919D01*
X158765000Y-73829117D01*
X157910000Y-73829117D01*
X157910000Y-71410000D01*
X191090000Y-71410000D01*
X191090001Y-73217572D01*
G37*
X191090001Y-73217572D02*
X191090000Y-73217582D01*
X191090001Y-115467572D01*
X191090000Y-115467582D01*
X191090000Y-115840000D01*
X161007072Y-115840000D01*
X161164759Y-115734637D01*
X161364637Y-115534759D01*
X161521680Y-115299727D01*
X161629853Y-115038574D01*
X161685000Y-114761335D01*
X161685000Y-114478665D01*
X161629853Y-114201426D01*
X161521680Y-113940273D01*
X161364637Y-113705241D01*
X161164759Y-113505363D01*
X160929727Y-113348320D01*
X160668574Y-113240147D01*
X160391335Y-113185000D01*
X160108665Y-113185000D01*
X159831426Y-113240147D01*
X159570273Y-113348320D01*
X159335241Y-113505363D01*
X159135363Y-113705241D01*
X158978320Y-113940273D01*
X158870147Y-114201426D01*
X158815000Y-114478665D01*
X158815000Y-114761335D01*
X158870147Y-115038574D01*
X158978320Y-115299727D01*
X159135363Y-115534759D01*
X159335241Y-115734637D01*
X159492928Y-115840000D01*
X157910000Y-115840000D01*
X157910000Y-106858665D01*
X158815000Y-106858665D01*
X158815000Y-107141335D01*
X158870147Y-107418574D01*
X158978320Y-107679727D01*
X159135363Y-107914759D01*
X159335241Y-108114637D01*
X159570273Y-108271680D01*
X159831426Y-108379853D01*
X160108665Y-108435000D01*
X160391335Y-108435000D01*
X160668574Y-108379853D01*
X160929727Y-108271680D01*
X161164759Y-108114637D01*
X161364637Y-107914759D01*
X161521680Y-107679727D01*
X161629853Y-107418574D01*
X161685000Y-107141335D01*
X161685000Y-106858665D01*
X161629853Y-106581426D01*
X161521680Y-106320273D01*
X161364637Y-106085241D01*
X161164759Y-105885363D01*
X160929727Y-105728320D01*
X160668574Y-105620147D01*
X160391335Y-105565000D01*
X160108665Y-105565000D01*
X159831426Y-105620147D01*
X159570273Y-105728320D01*
X159335241Y-105885363D01*
X159135363Y-106085241D01*
X158978320Y-106320273D01*
X158870147Y-106581426D01*
X158815000Y-106858665D01*
X157910000Y-106858665D01*
X157910000Y-102579117D01*
X158765000Y-102579117D01*
X158765000Y-102920883D01*
X158831675Y-103256081D01*
X158962463Y-103571831D01*
X159152337Y-103855998D01*
X159394002Y-104097663D01*
X159678169Y-104287537D01*
X159993919Y-104418325D01*
X160329117Y-104485000D01*
X160670883Y-104485000D01*
X161006081Y-104418325D01*
X161321831Y-104287537D01*
X161605998Y-104097663D01*
X161847663Y-103855998D01*
X162037537Y-103571831D01*
X162168325Y-103256081D01*
X162235000Y-102920883D01*
X162235000Y-102579117D01*
X162168325Y-102243919D01*
X162037537Y-101928169D01*
X161847663Y-101644002D01*
X161605998Y-101402337D01*
X161321831Y-101212463D01*
X161006081Y-101081675D01*
X160670883Y-101015000D01*
X160329117Y-101015000D01*
X159993919Y-101081675D01*
X159678169Y-101212463D01*
X159394002Y-101402337D01*
X159152337Y-101644002D01*
X158962463Y-101928169D01*
X158831675Y-102243919D01*
X158765000Y-102579117D01*
X157910000Y-102579117D01*
X157910000Y-95124375D01*
X158115320Y-95124375D01*
X158115320Y-95495625D01*
X158187747Y-95859741D01*
X158329818Y-96202731D01*
X158536074Y-96511413D01*
X158798587Y-96773926D01*
X159107269Y-96980182D01*
X159450259Y-97122253D01*
X159814375Y-97194680D01*
X160185625Y-97194680D01*
X160549741Y-97122253D01*
X160892731Y-96980182D01*
X161201413Y-96773926D01*
X161463926Y-96511413D01*
X161670182Y-96202731D01*
X161812253Y-95859741D01*
X161884680Y-95495625D01*
X161884680Y-95124375D01*
X161812253Y-94760259D01*
X161670182Y-94417269D01*
X161463926Y-94108587D01*
X161201413Y-93846074D01*
X160892731Y-93639818D01*
X160549741Y-93497747D01*
X160185625Y-93425320D01*
X159814375Y-93425320D01*
X159450259Y-93497747D01*
X159107269Y-93639818D01*
X158798587Y-93846074D01*
X158536074Y-94108587D01*
X158329818Y-94417269D01*
X158187747Y-94760259D01*
X158115320Y-95124375D01*
X157910000Y-95124375D01*
X157910000Y-92749680D01*
X158112248Y-92749680D01*
X158124508Y-92874162D01*
X158160818Y-92993860D01*
X158219783Y-93104174D01*
X158299135Y-93200865D01*
X158395826Y-93280217D01*
X158506140Y-93339182D01*
X158625838Y-93375492D01*
X158750320Y-93387752D01*
X159714250Y-93384680D01*
X159873000Y-93225930D01*
X159873000Y-91627000D01*
X160127000Y-91627000D01*
X160127000Y-93225930D01*
X160285750Y-93384680D01*
X161249680Y-93387752D01*
X161374162Y-93375492D01*
X161493860Y-93339182D01*
X161604174Y-93280217D01*
X161700865Y-93200865D01*
X161780217Y-93104174D01*
X161839182Y-92993860D01*
X161875492Y-92874162D01*
X161887752Y-92749680D01*
X161884680Y-91785750D01*
X161725930Y-91627000D01*
X160127000Y-91627000D01*
X159873000Y-91627000D01*
X158274070Y-91627000D01*
X158115320Y-91785750D01*
X158112248Y-92749680D01*
X157910000Y-92749680D01*
X157910000Y-90250320D01*
X158112248Y-90250320D01*
X158115320Y-91214250D01*
X158274070Y-91373000D01*
X159873000Y-91373000D01*
X159873000Y-89774070D01*
X160127000Y-89774070D01*
X160127000Y-91373000D01*
X161725930Y-91373000D01*
X161884680Y-91214250D01*
X161887752Y-90250320D01*
X161875492Y-90125838D01*
X161839182Y-90006140D01*
X161780217Y-89895826D01*
X161700865Y-89799135D01*
X161604174Y-89719783D01*
X161493860Y-89660818D01*
X161374162Y-89624508D01*
X161249680Y-89612248D01*
X160285750Y-89615320D01*
X160127000Y-89774070D01*
X159873000Y-89774070D01*
X159714250Y-89615320D01*
X158750320Y-89612248D01*
X158625838Y-89624508D01*
X158506140Y-89660818D01*
X158395826Y-89719783D01*
X158299135Y-89799135D01*
X158219783Y-89895826D01*
X158160818Y-90006140D01*
X158124508Y-90125838D01*
X158112248Y-90250320D01*
X157910000Y-90250320D01*
X157910000Y-88360000D01*
X163486324Y-88360000D01*
X163490001Y-88397333D01*
X163490000Y-109037332D01*
X163490017Y-109037505D01*
X163486324Y-109075000D01*
X163500998Y-109223985D01*
X163544454Y-109367246D01*
X163615026Y-109499276D01*
X163686201Y-109586002D01*
X165712447Y-111612248D01*
X164250320Y-111612248D01*
X164125838Y-111624508D01*
X164006140Y-111660818D01*
X163895826Y-111719783D01*
X163799135Y-111799135D01*
X163719783Y-111895826D01*
X163660818Y-112006140D01*
X163624508Y-112125838D01*
X163612248Y-112250320D01*
X163612248Y-114749680D01*
X163624508Y-114874162D01*
X163660818Y-114993860D01*
X163719783Y-115104174D01*
X163799135Y-115200865D01*
X163895826Y-115280217D01*
X164006140Y-115339182D01*
X164125838Y-115375492D01*
X164250320Y-115387752D01*
X166749680Y-115387752D01*
X166874162Y-115375492D01*
X166993860Y-115339182D01*
X167104174Y-115280217D01*
X167200865Y-115200865D01*
X167280217Y-115104174D01*
X167339182Y-114993860D01*
X167375492Y-114874162D01*
X167376239Y-114866578D01*
X167473587Y-114963926D01*
X167782269Y-115170182D01*
X168125259Y-115312253D01*
X168489375Y-115384680D01*
X168860625Y-115384680D01*
X169224741Y-115312253D01*
X169567731Y-115170182D01*
X169876413Y-114963926D01*
X170026962Y-114813377D01*
X170716229Y-114813377D01*
X170842104Y-115103315D01*
X171174262Y-115269139D01*
X171532387Y-115366975D01*
X171902719Y-115393065D01*
X172271025Y-115346405D01*
X172623151Y-115228789D01*
X172857896Y-115103315D01*
X172983771Y-114813377D01*
X171850000Y-113679605D01*
X170716229Y-114813377D01*
X170026962Y-114813377D01*
X170138926Y-114701413D01*
X170263386Y-114515147D01*
X170536623Y-114633771D01*
X171670395Y-113500000D01*
X172029605Y-113500000D01*
X173163377Y-114633771D01*
X173453315Y-114507896D01*
X173619139Y-114175738D01*
X173716975Y-113817613D01*
X173743065Y-113447281D01*
X173696405Y-113078975D01*
X173578789Y-112726849D01*
X173453315Y-112492104D01*
X173163377Y-112366229D01*
X172029605Y-113500000D01*
X171670395Y-113500000D01*
X171656252Y-113485858D01*
X171835858Y-113306252D01*
X171850000Y-113320395D01*
X172983771Y-112186623D01*
X172907091Y-112010000D01*
X175159647Y-112010000D01*
X175124508Y-112125838D01*
X175112248Y-112250320D01*
X175112248Y-114749680D01*
X175124508Y-114874162D01*
X175160818Y-114993860D01*
X175219783Y-115104174D01*
X175299135Y-115200865D01*
X175395826Y-115280217D01*
X175506140Y-115339182D01*
X175625838Y-115375492D01*
X175750320Y-115387752D01*
X178249680Y-115387752D01*
X178374162Y-115375492D01*
X178493860Y-115339182D01*
X178604174Y-115280217D01*
X178700865Y-115200865D01*
X178780217Y-115104174D01*
X178839182Y-114993860D01*
X178875492Y-114874162D01*
X178876239Y-114866578D01*
X178973587Y-114963926D01*
X179282269Y-115170182D01*
X179625259Y-115312253D01*
X179989375Y-115384680D01*
X180360625Y-115384680D01*
X180724741Y-115312253D01*
X181067731Y-115170182D01*
X181376413Y-114963926D01*
X181526962Y-114813377D01*
X182216229Y-114813377D01*
X182342104Y-115103315D01*
X182674262Y-115269139D01*
X183032387Y-115366975D01*
X183402719Y-115393065D01*
X183771025Y-115346405D01*
X184123151Y-115228789D01*
X184357896Y-115103315D01*
X184483771Y-114813377D01*
X183350000Y-113679605D01*
X182216229Y-114813377D01*
X181526962Y-114813377D01*
X181638926Y-114701413D01*
X181763386Y-114515147D01*
X182036623Y-114633771D01*
X183170395Y-113500000D01*
X183529605Y-113500000D01*
X184663377Y-114633771D01*
X184953315Y-114507896D01*
X185119139Y-114175738D01*
X185216975Y-113817613D01*
X185243065Y-113447281D01*
X185196405Y-113078975D01*
X185078789Y-112726849D01*
X184953315Y-112492104D01*
X184663377Y-112366229D01*
X183529605Y-113500000D01*
X183170395Y-113500000D01*
X182036623Y-112366229D01*
X181763386Y-112484853D01*
X181638926Y-112298587D01*
X181526962Y-112186623D01*
X182216229Y-112186623D01*
X183350000Y-113320395D01*
X184483771Y-112186623D01*
X184357896Y-111896685D01*
X184025738Y-111730861D01*
X183667613Y-111633025D01*
X183297281Y-111606935D01*
X182928975Y-111653595D01*
X182576849Y-111771211D01*
X182342104Y-111896685D01*
X182216229Y-112186623D01*
X181526962Y-112186623D01*
X181376413Y-112036074D01*
X181067731Y-111829818D01*
X180724741Y-111687747D01*
X180360625Y-111615320D01*
X179989375Y-111615320D01*
X179625259Y-111687747D01*
X179492528Y-111742726D01*
X178488804Y-110739003D01*
X178465001Y-110709999D01*
X178349276Y-110615026D01*
X178217247Y-110544454D01*
X178073986Y-110500997D01*
X177962333Y-110490000D01*
X177962322Y-110490000D01*
X177925000Y-110486324D01*
X177887678Y-110490000D01*
X170962333Y-110490000D01*
X170925000Y-110486323D01*
X170887667Y-110490000D01*
X170776014Y-110500997D01*
X170632753Y-110544454D01*
X170500724Y-110615026D01*
X170384999Y-110709999D01*
X170361201Y-110738997D01*
X169357472Y-111742726D01*
X169224741Y-111687747D01*
X168860625Y-111615320D01*
X168489375Y-111615320D01*
X168125259Y-111687747D01*
X167992528Y-111742726D01*
X165010000Y-108760199D01*
X165010000Y-106000320D01*
X165362248Y-106000320D01*
X165362248Y-108499680D01*
X165374508Y-108624162D01*
X165410818Y-108743860D01*
X165469783Y-108854174D01*
X165549135Y-108950865D01*
X165645826Y-109030217D01*
X165756140Y-109089182D01*
X165875838Y-109125492D01*
X166000320Y-109137752D01*
X168499680Y-109137752D01*
X168624162Y-109125492D01*
X168743860Y-109089182D01*
X168854174Y-109030217D01*
X168950865Y-108950865D01*
X169030217Y-108854174D01*
X169089182Y-108743860D01*
X169125492Y-108624162D01*
X169137752Y-108499680D01*
X169137752Y-106000320D01*
X169125492Y-105875838D01*
X169089182Y-105756140D01*
X169030217Y-105645826D01*
X168950865Y-105549135D01*
X168854174Y-105469783D01*
X168743860Y-105410818D01*
X168624162Y-105374508D01*
X168499680Y-105362248D01*
X166000320Y-105362248D01*
X165875838Y-105374508D01*
X165756140Y-105410818D01*
X165645826Y-105469783D01*
X165549135Y-105549135D01*
X165469783Y-105645826D01*
X165410818Y-105756140D01*
X165374508Y-105875838D01*
X165362248Y-106000320D01*
X165010000Y-106000320D01*
X165010000Y-88674801D01*
X165368700Y-88316101D01*
X165368700Y-88418850D01*
X165426778Y-88710830D01*
X165540703Y-88985869D01*
X165706096Y-89233398D01*
X165916602Y-89443904D01*
X166060420Y-89540000D01*
X165916602Y-89636096D01*
X165706096Y-89846602D01*
X165540703Y-90094131D01*
X165426778Y-90369170D01*
X165368700Y-90661150D01*
X165368700Y-90958850D01*
X165426778Y-91250830D01*
X165540703Y-91525869D01*
X165706096Y-91773398D01*
X165916602Y-91983904D01*
X166060420Y-92080000D01*
X165916602Y-92176096D01*
X165706096Y-92386602D01*
X165540703Y-92634131D01*
X165426778Y-92909170D01*
X165368700Y-93201150D01*
X165368700Y-93498850D01*
X165426778Y-93790830D01*
X165540703Y-94065869D01*
X165706096Y-94313398D01*
X165916602Y-94523904D01*
X166060420Y-94620000D01*
X165916602Y-94716096D01*
X165706096Y-94926602D01*
X165540703Y-95174131D01*
X165426778Y-95449170D01*
X165368700Y-95741150D01*
X165368700Y-96038850D01*
X165426778Y-96330830D01*
X165540703Y-96605869D01*
X165706096Y-96853398D01*
X165916602Y-97063904D01*
X166060420Y-97160000D01*
X165916602Y-97256096D01*
X165706096Y-97466602D01*
X165540703Y-97714131D01*
X165426778Y-97989170D01*
X165368700Y-98281150D01*
X165368700Y-98578850D01*
X165426778Y-98870830D01*
X165540703Y-99145869D01*
X165706096Y-99393398D01*
X165916602Y-99603904D01*
X166060420Y-99700000D01*
X165916602Y-99796096D01*
X165706096Y-100006602D01*
X165540703Y-100254131D01*
X165426778Y-100529170D01*
X165368700Y-100821150D01*
X165368700Y-101118850D01*
X165426778Y-101410830D01*
X165540703Y-101685869D01*
X165706096Y-101933398D01*
X165916602Y-102143904D01*
X166164131Y-102309297D01*
X166439170Y-102423222D01*
X166731150Y-102481300D01*
X167028850Y-102481300D01*
X167320830Y-102423222D01*
X167595869Y-102309297D01*
X167843398Y-102143904D01*
X168053904Y-101933398D01*
X168219297Y-101685869D01*
X168333222Y-101410830D01*
X168391300Y-101118850D01*
X168391300Y-100821150D01*
X168333222Y-100529170D01*
X168219297Y-100254131D01*
X168053904Y-100006602D01*
X167843398Y-99796096D01*
X167699580Y-99700000D01*
X167843398Y-99603904D01*
X168053904Y-99393398D01*
X168219297Y-99145869D01*
X168333222Y-98870830D01*
X168391300Y-98578850D01*
X168391300Y-98281150D01*
X168333222Y-97989170D01*
X168219297Y-97714131D01*
X168053904Y-97466602D01*
X167843398Y-97256096D01*
X167699580Y-97160000D01*
X167843398Y-97063904D01*
X168053904Y-96853398D01*
X168219297Y-96605869D01*
X168333222Y-96330830D01*
X168391300Y-96038850D01*
X168391300Y-95741150D01*
X168333222Y-95449170D01*
X168219297Y-95174131D01*
X168053904Y-94926602D01*
X167843398Y-94716096D01*
X167699580Y-94620000D01*
X167843398Y-94523904D01*
X168053904Y-94313398D01*
X168219297Y-94065869D01*
X168333222Y-93790830D01*
X168391300Y-93498850D01*
X168391300Y-93201150D01*
X168333222Y-92909170D01*
X168219297Y-92634131D01*
X168053904Y-92386602D01*
X167843398Y-92176096D01*
X167699580Y-92080000D01*
X167843398Y-91983904D01*
X168053904Y-91773398D01*
X168219297Y-91525869D01*
X168333222Y-91250830D01*
X168391300Y-90958850D01*
X168391300Y-90661150D01*
X168333222Y-90369170D01*
X168219297Y-90094131D01*
X168053904Y-89846602D01*
X167843398Y-89636096D01*
X167699580Y-89540000D01*
X167843398Y-89443904D01*
X168053904Y-89233398D01*
X168219297Y-88985869D01*
X168333222Y-88710830D01*
X168391300Y-88418850D01*
X168391300Y-88121150D01*
X168333222Y-87829170D01*
X168219297Y-87554131D01*
X168053904Y-87306602D01*
X167843398Y-87096096D01*
X167699580Y-87000000D01*
X167843398Y-86903904D01*
X168053904Y-86693398D01*
X168219297Y-86445869D01*
X168333222Y-86170830D01*
X168391300Y-85878850D01*
X168391300Y-85776101D01*
X170300001Y-87684803D01*
X170300000Y-105524839D01*
X170167269Y-105579818D01*
X169858587Y-105786074D01*
X169596074Y-106048587D01*
X169389818Y-106357269D01*
X169247747Y-106700259D01*
X169175320Y-107064375D01*
X169175320Y-107435625D01*
X169247747Y-107799741D01*
X169389818Y-108142731D01*
X169596074Y-108451413D01*
X169858587Y-108713926D01*
X170167269Y-108920182D01*
X170510259Y-109062253D01*
X170874375Y-109134680D01*
X171245625Y-109134680D01*
X171609741Y-109062253D01*
X171952731Y-108920182D01*
X172261413Y-108713926D01*
X172523926Y-108451413D01*
X172730182Y-108142731D01*
X172872253Y-107799741D01*
X172944680Y-107435625D01*
X172944680Y-107064375D01*
X172872253Y-106700259D01*
X172730182Y-106357269D01*
X172523926Y-106048587D01*
X172475659Y-106000320D01*
X175862248Y-106000320D01*
X175862248Y-108499680D01*
X175874508Y-108624162D01*
X175910818Y-108743860D01*
X175969783Y-108854174D01*
X176049135Y-108950865D01*
X176145826Y-109030217D01*
X176256140Y-109089182D01*
X176375838Y-109125492D01*
X176500320Y-109137752D01*
X178999680Y-109137752D01*
X179124162Y-109125492D01*
X179243860Y-109089182D01*
X179354174Y-109030217D01*
X179450865Y-108950865D01*
X179530217Y-108854174D01*
X179589182Y-108743860D01*
X179625492Y-108624162D01*
X179631478Y-108563377D01*
X180426229Y-108563377D01*
X180552104Y-108853315D01*
X180884262Y-109019139D01*
X181242387Y-109116975D01*
X181612719Y-109143065D01*
X181981025Y-109096405D01*
X182333151Y-108978789D01*
X182567896Y-108853315D01*
X182612888Y-108749680D01*
X187112248Y-108749680D01*
X187124508Y-108874162D01*
X187160818Y-108993860D01*
X187219783Y-109104174D01*
X187299135Y-109200865D01*
X187395826Y-109280217D01*
X187506140Y-109339182D01*
X187625838Y-109375492D01*
X187750320Y-109387752D01*
X188714250Y-109384680D01*
X188873000Y-109225930D01*
X188873000Y-107627000D01*
X189127000Y-107627000D01*
X189127000Y-109225930D01*
X189285750Y-109384680D01*
X190249680Y-109387752D01*
X190374162Y-109375492D01*
X190493860Y-109339182D01*
X190604174Y-109280217D01*
X190700865Y-109200865D01*
X190780217Y-109104174D01*
X190839182Y-108993860D01*
X190875492Y-108874162D01*
X190887752Y-108749680D01*
X190884680Y-107785750D01*
X190725930Y-107627000D01*
X189127000Y-107627000D01*
X188873000Y-107627000D01*
X187274070Y-107627000D01*
X187115320Y-107785750D01*
X187112248Y-108749680D01*
X182612888Y-108749680D01*
X182693771Y-108563377D01*
X181560000Y-107429605D01*
X180426229Y-108563377D01*
X179631478Y-108563377D01*
X179637752Y-108499680D01*
X179637752Y-107302719D01*
X179666935Y-107302719D01*
X179713595Y-107671025D01*
X179831211Y-108023151D01*
X179956685Y-108257896D01*
X180246623Y-108383771D01*
X181380395Y-107250000D01*
X181739605Y-107250000D01*
X182873377Y-108383771D01*
X183163315Y-108257896D01*
X183329139Y-107925738D01*
X183426975Y-107567613D01*
X183453065Y-107197281D01*
X183406405Y-106828975D01*
X183288789Y-106476849D01*
X183167707Y-106250320D01*
X187112248Y-106250320D01*
X187115320Y-107214250D01*
X187274070Y-107373000D01*
X188873000Y-107373000D01*
X188873000Y-107353000D01*
X189127000Y-107353000D01*
X189127000Y-107373000D01*
X190725930Y-107373000D01*
X190884680Y-107214250D01*
X190887752Y-106250320D01*
X190875492Y-106125838D01*
X190839182Y-106006140D01*
X190780217Y-105895826D01*
X190700865Y-105799135D01*
X190604174Y-105719783D01*
X190493860Y-105660818D01*
X190374162Y-105624508D01*
X190366578Y-105623761D01*
X190463926Y-105526413D01*
X190670182Y-105217731D01*
X190812253Y-104874741D01*
X190884680Y-104510625D01*
X190884680Y-104139375D01*
X190812253Y-103775259D01*
X190670182Y-103432269D01*
X190463926Y-103123587D01*
X190201413Y-102861074D01*
X190016473Y-102737500D01*
X190201413Y-102613926D01*
X190463926Y-102351413D01*
X190670182Y-102042731D01*
X190812253Y-101699741D01*
X190884680Y-101335625D01*
X190884680Y-100964375D01*
X190812253Y-100600259D01*
X190670182Y-100257269D01*
X190463926Y-99948587D01*
X190201413Y-99686074D01*
X189892731Y-99479818D01*
X189549741Y-99337747D01*
X189185625Y-99265320D01*
X188814375Y-99265320D01*
X188450259Y-99337747D01*
X188107269Y-99479818D01*
X187798587Y-99686074D01*
X187536074Y-99948587D01*
X187329818Y-100257269D01*
X187187747Y-100600259D01*
X187115320Y-100964375D01*
X187115320Y-101335625D01*
X187187747Y-101699741D01*
X187329818Y-102042731D01*
X187536074Y-102351413D01*
X187798587Y-102613926D01*
X187983527Y-102737500D01*
X187798587Y-102861074D01*
X187536074Y-103123587D01*
X187329818Y-103432269D01*
X187187747Y-103775259D01*
X187115320Y-104139375D01*
X187115320Y-104510625D01*
X187187747Y-104874741D01*
X187329818Y-105217731D01*
X187536074Y-105526413D01*
X187633422Y-105623761D01*
X187625838Y-105624508D01*
X187506140Y-105660818D01*
X187395826Y-105719783D01*
X187299135Y-105799135D01*
X187219783Y-105895826D01*
X187160818Y-106006140D01*
X187124508Y-106125838D01*
X187112248Y-106250320D01*
X183167707Y-106250320D01*
X183163315Y-106242104D01*
X182873377Y-106116229D01*
X181739605Y-107250000D01*
X181380395Y-107250000D01*
X180246623Y-106116229D01*
X179956685Y-106242104D01*
X179790861Y-106574262D01*
X179693025Y-106932387D01*
X179666935Y-107302719D01*
X179637752Y-107302719D01*
X179637752Y-106000320D01*
X179631479Y-105936623D01*
X180426229Y-105936623D01*
X181560000Y-107070395D01*
X182693771Y-105936623D01*
X182567896Y-105646685D01*
X182235738Y-105480861D01*
X181877613Y-105383025D01*
X181507281Y-105356935D01*
X181138975Y-105403595D01*
X180786849Y-105521211D01*
X180552104Y-105646685D01*
X180426229Y-105936623D01*
X179631479Y-105936623D01*
X179625492Y-105875838D01*
X179589182Y-105756140D01*
X179530217Y-105645826D01*
X179450865Y-105549135D01*
X179354174Y-105469783D01*
X179243860Y-105410818D01*
X179124162Y-105374508D01*
X178999680Y-105362248D01*
X176500320Y-105362248D01*
X176375838Y-105374508D01*
X176256140Y-105410818D01*
X176145826Y-105469783D01*
X176049135Y-105549135D01*
X175969783Y-105645826D01*
X175910818Y-105756140D01*
X175874508Y-105875838D01*
X175862248Y-106000320D01*
X172475659Y-106000320D01*
X172261413Y-105786074D01*
X171952731Y-105579818D01*
X171820000Y-105524839D01*
X171820000Y-87407325D01*
X171823676Y-87370000D01*
X171820000Y-87332675D01*
X171820000Y-87332667D01*
X171809003Y-87221014D01*
X171765546Y-87077753D01*
X171694974Y-86945724D01*
X171600001Y-86829999D01*
X171571003Y-86806201D01*
X168343576Y-83578775D01*
X168391300Y-83338850D01*
X168391300Y-83041150D01*
X180608700Y-83041150D01*
X180608700Y-83338850D01*
X180666778Y-83630830D01*
X180780703Y-83905869D01*
X180946096Y-84153398D01*
X181156602Y-84363904D01*
X181300420Y-84460000D01*
X181156602Y-84556096D01*
X180946096Y-84766602D01*
X180780703Y-85014131D01*
X180666778Y-85289170D01*
X180608700Y-85581150D01*
X180608700Y-85878850D01*
X180666778Y-86170830D01*
X180780703Y-86445869D01*
X180946096Y-86693398D01*
X181156602Y-86903904D01*
X181300420Y-87000000D01*
X181156602Y-87096096D01*
X180946096Y-87306602D01*
X180780703Y-87554131D01*
X180666778Y-87829170D01*
X180608700Y-88121150D01*
X180608700Y-88418850D01*
X180666778Y-88710830D01*
X180780703Y-88985869D01*
X180946096Y-89233398D01*
X181156602Y-89443904D01*
X181300420Y-89540000D01*
X181156602Y-89636096D01*
X180946096Y-89846602D01*
X180780703Y-90094131D01*
X180666778Y-90369170D01*
X180608700Y-90661150D01*
X180608700Y-90958850D01*
X180666778Y-91250830D01*
X180780703Y-91525869D01*
X180946096Y-91773398D01*
X181156602Y-91983904D01*
X181300420Y-92080000D01*
X181156602Y-92176096D01*
X180946096Y-92386602D01*
X180780703Y-92634131D01*
X180666778Y-92909170D01*
X180608700Y-93201150D01*
X180608700Y-93498850D01*
X180666778Y-93790830D01*
X180780703Y-94065869D01*
X180946096Y-94313398D01*
X181156602Y-94523904D01*
X181300420Y-94620000D01*
X181156602Y-94716096D01*
X180946096Y-94926602D01*
X180780703Y-95174131D01*
X180666778Y-95449170D01*
X180608700Y-95741150D01*
X180608700Y-96038850D01*
X180666778Y-96330830D01*
X180780703Y-96605869D01*
X180946096Y-96853398D01*
X181156602Y-97063904D01*
X181300420Y-97160000D01*
X181156602Y-97256096D01*
X180946096Y-97466602D01*
X180780703Y-97714131D01*
X180666778Y-97989170D01*
X180608700Y-98281150D01*
X180608700Y-98578850D01*
X180666778Y-98870830D01*
X180780703Y-99145869D01*
X180946096Y-99393398D01*
X181156602Y-99603904D01*
X181300420Y-99700000D01*
X181156602Y-99796096D01*
X180946096Y-100006602D01*
X180780703Y-100254131D01*
X180666778Y-100529170D01*
X180608700Y-100821150D01*
X180608700Y-101118850D01*
X180666778Y-101410830D01*
X180780703Y-101685869D01*
X180946096Y-101933398D01*
X181156602Y-102143904D01*
X181404131Y-102309297D01*
X181679170Y-102423222D01*
X181971150Y-102481300D01*
X182268850Y-102481300D01*
X182560830Y-102423222D01*
X182835869Y-102309297D01*
X183083398Y-102143904D01*
X183293904Y-101933398D01*
X183459297Y-101685869D01*
X183573222Y-101410830D01*
X183631300Y-101118850D01*
X183631300Y-100821150D01*
X183573222Y-100529170D01*
X183459297Y-100254131D01*
X183293904Y-100006602D01*
X183083398Y-99796096D01*
X182939580Y-99700000D01*
X183083398Y-99603904D01*
X183293904Y-99393398D01*
X183459297Y-99145869D01*
X183573222Y-98870830D01*
X183631300Y-98578850D01*
X183631300Y-98281150D01*
X183625041Y-98249680D01*
X187112248Y-98249680D01*
X187124508Y-98374162D01*
X187160818Y-98493860D01*
X187219783Y-98604174D01*
X187299135Y-98700865D01*
X187395826Y-98780217D01*
X187506140Y-98839182D01*
X187625838Y-98875492D01*
X187750320Y-98887752D01*
X188714250Y-98884680D01*
X188873000Y-98725930D01*
X188873000Y-97127000D01*
X189127000Y-97127000D01*
X189127000Y-98725930D01*
X189285750Y-98884680D01*
X190249680Y-98887752D01*
X190374162Y-98875492D01*
X190493860Y-98839182D01*
X190604174Y-98780217D01*
X190700865Y-98700865D01*
X190780217Y-98604174D01*
X190839182Y-98493860D01*
X190875492Y-98374162D01*
X190887752Y-98249680D01*
X190884680Y-97285750D01*
X190725930Y-97127000D01*
X189127000Y-97127000D01*
X188873000Y-97127000D01*
X187274070Y-97127000D01*
X187115320Y-97285750D01*
X187112248Y-98249680D01*
X183625041Y-98249680D01*
X183573222Y-97989170D01*
X183459297Y-97714131D01*
X183293904Y-97466602D01*
X183083398Y-97256096D01*
X182939580Y-97160000D01*
X183083398Y-97063904D01*
X183293904Y-96853398D01*
X183459297Y-96605869D01*
X183573222Y-96330830D01*
X183631300Y-96038850D01*
X183631300Y-95750320D01*
X187112248Y-95750320D01*
X187115320Y-96714250D01*
X187274070Y-96873000D01*
X188873000Y-96873000D01*
X188873000Y-96853000D01*
X189127000Y-96853000D01*
X189127000Y-96873000D01*
X190725930Y-96873000D01*
X190884680Y-96714250D01*
X190887752Y-95750320D01*
X190875492Y-95625838D01*
X190839182Y-95506140D01*
X190780217Y-95395826D01*
X190700865Y-95299135D01*
X190604174Y-95219783D01*
X190493860Y-95160818D01*
X190374162Y-95124508D01*
X190366578Y-95123761D01*
X190463926Y-95026413D01*
X190670182Y-94717731D01*
X190812253Y-94374741D01*
X190884680Y-94010625D01*
X190884680Y-93639375D01*
X190812253Y-93275259D01*
X190670182Y-92932269D01*
X190463926Y-92623587D01*
X190201413Y-92361074D01*
X190016473Y-92237500D01*
X190201413Y-92113926D01*
X190463926Y-91851413D01*
X190670182Y-91542731D01*
X190812253Y-91199741D01*
X190884680Y-90835625D01*
X190884680Y-90464375D01*
X190812253Y-90100259D01*
X190670182Y-89757269D01*
X190463926Y-89448587D01*
X190201413Y-89186074D01*
X189892731Y-88979818D01*
X189549741Y-88837747D01*
X189185625Y-88765320D01*
X188814375Y-88765320D01*
X188450259Y-88837747D01*
X188107269Y-88979818D01*
X187798587Y-89186074D01*
X187536074Y-89448587D01*
X187329818Y-89757269D01*
X187187747Y-90100259D01*
X187115320Y-90464375D01*
X187115320Y-90835625D01*
X187187747Y-91199741D01*
X187329818Y-91542731D01*
X187536074Y-91851413D01*
X187798587Y-92113926D01*
X187983527Y-92237500D01*
X187798587Y-92361074D01*
X187536074Y-92623587D01*
X187329818Y-92932269D01*
X187187747Y-93275259D01*
X187115320Y-93639375D01*
X187115320Y-94010625D01*
X187187747Y-94374741D01*
X187329818Y-94717731D01*
X187536074Y-95026413D01*
X187633422Y-95123761D01*
X187625838Y-95124508D01*
X187506140Y-95160818D01*
X187395826Y-95219783D01*
X187299135Y-95299135D01*
X187219783Y-95395826D01*
X187160818Y-95506140D01*
X187124508Y-95625838D01*
X187112248Y-95750320D01*
X183631300Y-95750320D01*
X183631300Y-95741150D01*
X183573222Y-95449170D01*
X183459297Y-95174131D01*
X183293904Y-94926602D01*
X183083398Y-94716096D01*
X182939580Y-94620000D01*
X183083398Y-94523904D01*
X183293904Y-94313398D01*
X183459297Y-94065869D01*
X183573222Y-93790830D01*
X183631300Y-93498850D01*
X183631300Y-93201150D01*
X183573222Y-92909170D01*
X183459297Y-92634131D01*
X183293904Y-92386602D01*
X183083398Y-92176096D01*
X182939580Y-92080000D01*
X183083398Y-91983904D01*
X183293904Y-91773398D01*
X183459297Y-91525869D01*
X183573222Y-91250830D01*
X183631300Y-90958850D01*
X183631300Y-90661150D01*
X183573222Y-90369170D01*
X183459297Y-90094131D01*
X183293904Y-89846602D01*
X183083398Y-89636096D01*
X182939580Y-89540000D01*
X183083398Y-89443904D01*
X183293904Y-89233398D01*
X183459297Y-88985869D01*
X183573222Y-88710830D01*
X183631300Y-88418850D01*
X183631300Y-88121150D01*
X183573222Y-87829170D01*
X183509231Y-87674680D01*
X187112248Y-87674680D01*
X187124508Y-87799162D01*
X187160818Y-87918860D01*
X187219783Y-88029174D01*
X187299135Y-88125865D01*
X187395826Y-88205217D01*
X187506140Y-88264182D01*
X187625838Y-88300492D01*
X187750320Y-88312752D01*
X188714250Y-88309680D01*
X188873000Y-88150930D01*
X188873000Y-86552000D01*
X189127000Y-86552000D01*
X189127000Y-88150930D01*
X189285750Y-88309680D01*
X190249680Y-88312752D01*
X190374162Y-88300492D01*
X190493860Y-88264182D01*
X190604174Y-88205217D01*
X190700865Y-88125865D01*
X190780217Y-88029174D01*
X190839182Y-87918860D01*
X190875492Y-87799162D01*
X190887752Y-87674680D01*
X190884680Y-86710750D01*
X190725930Y-86552000D01*
X189127000Y-86552000D01*
X188873000Y-86552000D01*
X187274070Y-86552000D01*
X187115320Y-86710750D01*
X187112248Y-87674680D01*
X183509231Y-87674680D01*
X183459297Y-87554131D01*
X183293904Y-87306602D01*
X183083398Y-87096096D01*
X182939580Y-87000000D01*
X183083398Y-86903904D01*
X183293904Y-86693398D01*
X183459297Y-86445869D01*
X183573222Y-86170830D01*
X183631300Y-85878850D01*
X183631300Y-85581150D01*
X183573222Y-85289170D01*
X183526064Y-85175320D01*
X187112248Y-85175320D01*
X187115320Y-86139250D01*
X187274070Y-86298000D01*
X188873000Y-86298000D01*
X188873000Y-86278000D01*
X189127000Y-86278000D01*
X189127000Y-86298000D01*
X190725930Y-86298000D01*
X190884680Y-86139250D01*
X190887752Y-85175320D01*
X190875492Y-85050838D01*
X190839182Y-84931140D01*
X190780217Y-84820826D01*
X190700865Y-84724135D01*
X190604174Y-84644783D01*
X190493860Y-84585818D01*
X190374162Y-84549508D01*
X190366578Y-84548761D01*
X190463926Y-84451413D01*
X190670182Y-84142731D01*
X190812253Y-83799741D01*
X190884680Y-83435625D01*
X190884680Y-83064375D01*
X190812253Y-82700259D01*
X190670182Y-82357269D01*
X190463926Y-82048587D01*
X190201413Y-81786074D01*
X190016473Y-81662500D01*
X190201413Y-81538926D01*
X190463926Y-81276413D01*
X190670182Y-80967731D01*
X190812253Y-80624741D01*
X190884680Y-80260625D01*
X190884680Y-79889375D01*
X190812253Y-79525259D01*
X190670182Y-79182269D01*
X190463926Y-78873587D01*
X190201413Y-78611074D01*
X189892731Y-78404818D01*
X189549741Y-78262747D01*
X189185625Y-78190320D01*
X188814375Y-78190320D01*
X188450259Y-78262747D01*
X188107269Y-78404818D01*
X187798587Y-78611074D01*
X187536074Y-78873587D01*
X187329818Y-79182269D01*
X187187747Y-79525259D01*
X187115320Y-79889375D01*
X187115320Y-80260625D01*
X187187747Y-80624741D01*
X187329818Y-80967731D01*
X187536074Y-81276413D01*
X187798587Y-81538926D01*
X187983527Y-81662500D01*
X187798587Y-81786074D01*
X187536074Y-82048587D01*
X187329818Y-82357269D01*
X187187747Y-82700259D01*
X187115320Y-83064375D01*
X187115320Y-83435625D01*
X187187747Y-83799741D01*
X187329818Y-84142731D01*
X187536074Y-84451413D01*
X187633422Y-84548761D01*
X187625838Y-84549508D01*
X187506140Y-84585818D01*
X187395826Y-84644783D01*
X187299135Y-84724135D01*
X187219783Y-84820826D01*
X187160818Y-84931140D01*
X187124508Y-85050838D01*
X187112248Y-85175320D01*
X183526064Y-85175320D01*
X183459297Y-85014131D01*
X183293904Y-84766602D01*
X183083398Y-84556096D01*
X182939580Y-84460000D01*
X183083398Y-84363904D01*
X183293904Y-84153398D01*
X183459297Y-83905869D01*
X183573222Y-83630830D01*
X183631300Y-83338850D01*
X183631300Y-83041150D01*
X183573222Y-82749170D01*
X183459297Y-82474131D01*
X183293904Y-82226602D01*
X183083398Y-82016096D01*
X182920191Y-81907045D01*
X182987563Y-81697169D01*
X182120000Y-80829605D01*
X181252437Y-81697169D01*
X181319809Y-81907045D01*
X181156602Y-82016096D01*
X180946096Y-82226602D01*
X180780703Y-82474131D01*
X180666778Y-82749170D01*
X180608700Y-83041150D01*
X168391300Y-83041150D01*
X168333222Y-82749170D01*
X168219297Y-82474131D01*
X168053904Y-82226602D01*
X167843398Y-82016096D01*
X167699580Y-81920000D01*
X167843398Y-81823904D01*
X168053904Y-81613398D01*
X168219297Y-81365869D01*
X168333222Y-81090830D01*
X168391300Y-80798850D01*
X168391300Y-80717491D01*
X180602887Y-80717491D01*
X180645204Y-81012167D01*
X180744198Y-81292927D01*
X180821071Y-81436746D01*
X181072831Y-81517563D01*
X181940395Y-80650000D01*
X182299605Y-80650000D01*
X183167169Y-81517563D01*
X183418929Y-81436746D01*
X183547457Y-81168221D01*
X183621129Y-80879781D01*
X183637113Y-80582509D01*
X183594796Y-80287833D01*
X183495802Y-80007073D01*
X183418929Y-79863254D01*
X183167169Y-79782437D01*
X182299605Y-80650000D01*
X181940395Y-80650000D01*
X181072831Y-79782437D01*
X180821071Y-79863254D01*
X180692543Y-80131779D01*
X180618871Y-80420219D01*
X180602887Y-80717491D01*
X168391300Y-80717491D01*
X168391300Y-80501150D01*
X168333222Y-80209170D01*
X168219297Y-79934131D01*
X168053904Y-79686602D01*
X167843398Y-79476096D01*
X167699580Y-79380000D01*
X167843398Y-79283904D01*
X168053904Y-79073398D01*
X168219297Y-78825869D01*
X168333222Y-78550830D01*
X168391300Y-78258850D01*
X168391300Y-77961150D01*
X168333222Y-77669170D01*
X168219297Y-77394131D01*
X168053904Y-77146602D01*
X167843398Y-76936096D01*
X167699580Y-76840000D01*
X167843398Y-76743904D01*
X168053904Y-76533398D01*
X168219297Y-76285869D01*
X168333222Y-76010830D01*
X168391300Y-75718850D01*
X168391300Y-75421150D01*
X168333222Y-75129170D01*
X168219297Y-74854131D01*
X168053904Y-74606602D01*
X167956458Y-74509156D01*
X168000480Y-74495802D01*
X168110794Y-74436837D01*
X168207485Y-74357485D01*
X168286837Y-74260794D01*
X168345802Y-74150480D01*
X168382112Y-74030782D01*
X168394372Y-73906300D01*
X168394372Y-72881150D01*
X180608700Y-72881150D01*
X180608700Y-73178850D01*
X180666778Y-73470830D01*
X180780703Y-73745869D01*
X180946096Y-73993398D01*
X181156602Y-74203904D01*
X181300420Y-74300000D01*
X181156602Y-74396096D01*
X180946096Y-74606602D01*
X180780703Y-74854131D01*
X180666778Y-75129170D01*
X180608700Y-75421150D01*
X180608700Y-75718850D01*
X180666778Y-76010830D01*
X180780703Y-76285869D01*
X180946096Y-76533398D01*
X181156602Y-76743904D01*
X181300420Y-76840000D01*
X181156602Y-76936096D01*
X180946096Y-77146602D01*
X180780703Y-77394131D01*
X180666778Y-77669170D01*
X180608700Y-77961150D01*
X180608700Y-78258850D01*
X180666778Y-78550830D01*
X180780703Y-78825869D01*
X180946096Y-79073398D01*
X181156602Y-79283904D01*
X181319809Y-79392955D01*
X181252437Y-79602831D01*
X182120000Y-80470395D01*
X182987563Y-79602831D01*
X182920191Y-79392955D01*
X183083398Y-79283904D01*
X183293904Y-79073398D01*
X183459297Y-78825869D01*
X183573222Y-78550830D01*
X183631300Y-78258850D01*
X183631300Y-77961150D01*
X183573222Y-77669170D01*
X183459297Y-77394131D01*
X183293904Y-77146602D01*
X183083398Y-76936096D01*
X182939580Y-76840000D01*
X183083398Y-76743904D01*
X183293904Y-76533398D01*
X183459297Y-76285869D01*
X183573222Y-76010830D01*
X183631300Y-75718850D01*
X183631300Y-75421150D01*
X183573222Y-75129170D01*
X183459297Y-74854131D01*
X183293904Y-74606602D01*
X183083398Y-74396096D01*
X182939580Y-74300000D01*
X183083398Y-74203904D01*
X183293904Y-73993398D01*
X183403672Y-73829117D01*
X186765000Y-73829117D01*
X186765000Y-74170883D01*
X186831675Y-74506081D01*
X186962463Y-74821831D01*
X187152337Y-75105998D01*
X187394002Y-75347663D01*
X187678169Y-75537537D01*
X187993919Y-75668325D01*
X188329117Y-75735000D01*
X188670883Y-75735000D01*
X189006081Y-75668325D01*
X189321831Y-75537537D01*
X189605998Y-75347663D01*
X189847663Y-75105998D01*
X190037537Y-74821831D01*
X190168325Y-74506081D01*
X190235000Y-74170883D01*
X190235000Y-73829117D01*
X190168325Y-73493919D01*
X190037537Y-73178169D01*
X189847663Y-72894002D01*
X189605998Y-72652337D01*
X189321831Y-72462463D01*
X189006081Y-72331675D01*
X188670883Y-72265000D01*
X188329117Y-72265000D01*
X187993919Y-72331675D01*
X187678169Y-72462463D01*
X187394002Y-72652337D01*
X187152337Y-72894002D01*
X186962463Y-73178169D01*
X186831675Y-73493919D01*
X186765000Y-73829117D01*
X183403672Y-73829117D01*
X183459297Y-73745869D01*
X183573222Y-73470830D01*
X183631300Y-73178850D01*
X183631300Y-72881150D01*
X183573222Y-72589170D01*
X183459297Y-72314131D01*
X183293904Y-72066602D01*
X183083398Y-71856096D01*
X182835869Y-71690703D01*
X182560830Y-71576778D01*
X182268850Y-71518700D01*
X181971150Y-71518700D01*
X181679170Y-71576778D01*
X181404131Y-71690703D01*
X181156602Y-71856096D01*
X180946096Y-72066602D01*
X180780703Y-72314131D01*
X180666778Y-72589170D01*
X180608700Y-72881150D01*
X168394372Y-72881150D01*
X168394372Y-72153700D01*
X168382112Y-72029218D01*
X168345802Y-71909520D01*
X168286837Y-71799206D01*
X168207485Y-71702515D01*
X168110794Y-71623163D01*
X168000480Y-71564198D01*
X167880782Y-71527888D01*
X167756300Y-71515628D01*
X166003700Y-71515628D01*
X165879218Y-71527888D01*
X165759520Y-71564198D01*
X165649206Y-71623163D01*
X165552515Y-71702515D01*
X165473163Y-71799206D01*
X165414198Y-71909520D01*
X165377888Y-72029218D01*
X165365628Y-72153700D01*
X165365628Y-73906300D01*
X165377888Y-74030782D01*
X165414198Y-74150480D01*
X165473163Y-74260794D01*
X165552515Y-74357485D01*
X165649206Y-74436837D01*
X165759520Y-74495802D01*
X165803542Y-74509156D01*
X165706096Y-74606602D01*
X165540703Y-74854131D01*
X165426778Y-75129170D01*
X165368700Y-75421150D01*
X165368700Y-75718850D01*
X165426778Y-76010830D01*
X165540703Y-76285869D01*
X165706096Y-76533398D01*
X165916602Y-76743904D01*
X166060420Y-76840000D01*
X165916602Y-76936096D01*
X165706096Y-77146602D01*
X165540703Y-77394131D01*
X165426778Y-77669170D01*
X165368700Y-77961150D01*
X165368700Y-78258850D01*
X165426778Y-78550830D01*
X165540703Y-78825869D01*
X165706096Y-79073398D01*
X165916602Y-79283904D01*
X166060420Y-79380000D01*
X165916602Y-79476096D01*
X165706096Y-79686602D01*
X165540703Y-79934131D01*
X165426778Y-80209170D01*
X165368700Y-80501150D01*
X165368700Y-80798850D01*
X165426778Y-81090830D01*
X165540703Y-81365869D01*
X165706096Y-81613398D01*
X165916602Y-81823904D01*
X166060420Y-81920000D01*
X165916602Y-82016096D01*
X165706096Y-82226602D01*
X165540703Y-82474131D01*
X165426778Y-82749170D01*
X165368700Y-83041150D01*
X165368700Y-83338850D01*
X165426778Y-83630830D01*
X165540703Y-83905869D01*
X165706096Y-84153398D01*
X165916602Y-84363904D01*
X166060420Y-84460000D01*
X165916602Y-84556096D01*
X165706096Y-84766602D01*
X165540703Y-85014131D01*
X165426778Y-85289170D01*
X165368700Y-85581150D01*
X165368700Y-85878850D01*
X165416424Y-86118775D01*
X163738998Y-87796201D01*
X163710000Y-87819999D01*
X163686202Y-87848997D01*
X163686201Y-87848998D01*
X163615026Y-87935724D01*
X163544454Y-88067754D01*
X163519224Y-88150930D01*
X163502757Y-88205217D01*
X163500998Y-88211015D01*
X163486324Y-88360000D01*
X157910000Y-88360000D01*
X157910000Y-81249680D01*
X158112248Y-81249680D01*
X158124508Y-81374162D01*
X158160818Y-81493860D01*
X158219783Y-81604174D01*
X158299135Y-81700865D01*
X158395826Y-81780217D01*
X158506140Y-81839182D01*
X158625838Y-81875492D01*
X158633422Y-81876239D01*
X158536074Y-81973587D01*
X158329818Y-82282269D01*
X158187747Y-82625259D01*
X158115320Y-82989375D01*
X158115320Y-83360625D01*
X158187747Y-83724741D01*
X158329818Y-84067731D01*
X158536074Y-84376413D01*
X158798587Y-84638926D01*
X158983527Y-84762500D01*
X158798587Y-84886074D01*
X158536074Y-85148587D01*
X158329818Y-85457269D01*
X158187747Y-85800259D01*
X158115320Y-86164375D01*
X158115320Y-86535625D01*
X158187747Y-86899741D01*
X158329818Y-87242731D01*
X158536074Y-87551413D01*
X158798587Y-87813926D01*
X159107269Y-88020182D01*
X159450259Y-88162253D01*
X159814375Y-88234680D01*
X160185625Y-88234680D01*
X160549741Y-88162253D01*
X160892731Y-88020182D01*
X161201413Y-87813926D01*
X161463926Y-87551413D01*
X161670182Y-87242731D01*
X161812253Y-86899741D01*
X161884680Y-86535625D01*
X161884680Y-86164375D01*
X161812253Y-85800259D01*
X161670182Y-85457269D01*
X161463926Y-85148587D01*
X161201413Y-84886074D01*
X161016473Y-84762500D01*
X161201413Y-84638926D01*
X161463926Y-84376413D01*
X161670182Y-84067731D01*
X161812253Y-83724741D01*
X161884680Y-83360625D01*
X161884680Y-82989375D01*
X161812253Y-82625259D01*
X161670182Y-82282269D01*
X161463926Y-81973587D01*
X161366578Y-81876239D01*
X161374162Y-81875492D01*
X161493860Y-81839182D01*
X161604174Y-81780217D01*
X161700865Y-81700865D01*
X161780217Y-81604174D01*
X161839182Y-81493860D01*
X161875492Y-81374162D01*
X161887752Y-81249680D01*
X161884680Y-80285750D01*
X161725930Y-80127000D01*
X160127000Y-80127000D01*
X160127000Y-80147000D01*
X159873000Y-80147000D01*
X159873000Y-80127000D01*
X158274070Y-80127000D01*
X158115320Y-80285750D01*
X158112248Y-81249680D01*
X157910000Y-81249680D01*
X157910000Y-78750320D01*
X158112248Y-78750320D01*
X158115320Y-79714250D01*
X158274070Y-79873000D01*
X159873000Y-79873000D01*
X159873000Y-78274070D01*
X160127000Y-78274070D01*
X160127000Y-79873000D01*
X161725930Y-79873000D01*
X161884680Y-79714250D01*
X161887752Y-78750320D01*
X161875492Y-78625838D01*
X161839182Y-78506140D01*
X161780217Y-78395826D01*
X161700865Y-78299135D01*
X161604174Y-78219783D01*
X161493860Y-78160818D01*
X161374162Y-78124508D01*
X161249680Y-78112248D01*
X160285750Y-78115320D01*
X160127000Y-78274070D01*
X159873000Y-78274070D01*
X159714250Y-78115320D01*
X158750320Y-78112248D01*
X158625838Y-78124508D01*
X158506140Y-78160818D01*
X158395826Y-78219783D01*
X158299135Y-78299135D01*
X158219783Y-78395826D01*
X158160818Y-78506140D01*
X158124508Y-78625838D01*
X158112248Y-78750320D01*
X157910000Y-78750320D01*
X157910000Y-73829117D01*
X158765000Y-73829117D01*
X158765000Y-74170883D01*
X158831675Y-74506081D01*
X158962463Y-74821831D01*
X159152337Y-75105998D01*
X159394002Y-75347663D01*
X159678169Y-75537537D01*
X159993919Y-75668325D01*
X160329117Y-75735000D01*
X160670883Y-75735000D01*
X161006081Y-75668325D01*
X161321831Y-75537537D01*
X161605998Y-75347663D01*
X161847663Y-75105998D01*
X162037537Y-74821831D01*
X162168325Y-74506081D01*
X162235000Y-74170883D01*
X162235000Y-73829117D01*
X162168325Y-73493919D01*
X162037537Y-73178169D01*
X161847663Y-72894002D01*
X161605998Y-72652337D01*
X161321831Y-72462463D01*
X161006081Y-72331675D01*
X160670883Y-72265000D01*
X160329117Y-72265000D01*
X159993919Y-72331675D01*
X159678169Y-72462463D01*
X159394002Y-72652337D01*
X159152337Y-72894002D01*
X158962463Y-73178169D01*
X158831675Y-73493919D01*
X158765000Y-73829117D01*
X157910000Y-73829117D01*
X157910000Y-71410000D01*
X191090000Y-71410000D01*
X191090001Y-73217572D01*
M02*
