G04 #@! TF.GenerationSoftware,KiCad,Pcbnew,(5.1.10-1-10_14)*
G04 #@! TF.CreationDate,2021-06-05T23:42:15+02:00*
G04 #@! TF.ProjectId,pro_micro_shield,70726f5f-6d69-4637-926f-5f736869656c,rev?*
G04 #@! TF.SameCoordinates,Original*
G04 #@! TF.FileFunction,Soldermask,Top*
G04 #@! TF.FilePolarity,Negative*
%FSLAX46Y46*%
G04 Gerber Fmt 4.6, Leading zero omitted, Abs format (unit mm)*
G04 Created by KiCad (PCBNEW (5.1.10-1-10_14)) date 2021-06-05 23:42:15*
%MOMM*%
%LPD*%
G01*
G04 APERTURE LIST*
%ADD10O,1.700000X1.700000*%
%ADD11R,1.700000X1.700000*%
%ADD12O,1.600000X1.600000*%
%ADD13C,1.600000*%
%ADD14C,2.200000*%
%ADD15C,1.752600*%
%ADD16R,1.752600X1.752600*%
G04 APERTURE END LIST*
D10*
X160655000Y-90551000D03*
D11*
X160655000Y-88011000D03*
D10*
X188468000Y-96774000D03*
X188468000Y-99314000D03*
D11*
X188468000Y-101854000D03*
D10*
X188468000Y-88011000D03*
X188468000Y-90551000D03*
D11*
X188468000Y-93091000D03*
D10*
X188468000Y-79248000D03*
X188468000Y-81788000D03*
D11*
X188468000Y-84328000D03*
D10*
X178435000Y-109601000D03*
X175895000Y-109601000D03*
D11*
X173355000Y-109601000D03*
D10*
X169672000Y-109601000D03*
X167132000Y-109601000D03*
D11*
X164592000Y-109601000D03*
D10*
X184658000Y-109601000D03*
D11*
X182118000Y-109601000D03*
D10*
X160655000Y-84328000D03*
X160655000Y-81788000D03*
D11*
X160655000Y-79248000D03*
D10*
X160655000Y-96901000D03*
D11*
X160655000Y-94361000D03*
D12*
X178308000Y-104140000D03*
D13*
X170688000Y-104140000D03*
D14*
X188500000Y-74000000D03*
X160500000Y-102750000D03*
X160500000Y-74000000D03*
D15*
X182120000Y-73030000D03*
X166880000Y-100970000D03*
X182120000Y-75570000D03*
X182120000Y-78110000D03*
X182120000Y-80650000D03*
X182120000Y-83190000D03*
X182120000Y-85730000D03*
X182120000Y-88270000D03*
X182120000Y-90810000D03*
X182120000Y-93350000D03*
X182120000Y-95890000D03*
X182120000Y-98430000D03*
X182120000Y-100970000D03*
X166880000Y-98430000D03*
X166880000Y-95890000D03*
X166880000Y-93350000D03*
X166880000Y-90810000D03*
X166880000Y-88270000D03*
X166880000Y-85730000D03*
X166880000Y-83190000D03*
X166880000Y-80650000D03*
X166880000Y-78110000D03*
X166880000Y-75570000D03*
D16*
X166880000Y-73030000D03*
M02*
