M48
; DRILL file {KiCad (5.1.10-1-10_14)} date Saturday, June 05, 2021 at 11:38:34 PM
; FORMAT={-:-/ absolute / inch / decimal}
; #@! TF.CreationDate,2021-06-05T23:38:34+02:00
; #@! TF.GenerationSoftware,Kicad,Pcbnew,(5.1.10-1-10_14)
; #@! TF.FileFunction,Plated,1,2,PTH
FMAT,2
INCH
T1C0.0315
T2C0.0394
T3C0.0430
%
G90
G05
T1
X6.72Y-4.1
X7.02Y-4.1
T2
X6.325Y-3.12
X6.325Y-3.22
X6.325Y-3.32
X6.325Y-3.465
X6.325Y-3.565
X6.325Y-3.715
X6.325Y-3.815
X6.48Y-4.315
X6.58Y-4.315
X6.68Y-4.315
X6.825Y-4.315
X6.925Y-4.315
X7.025Y-4.315
X7.17Y-4.315
X7.27Y-4.315
X7.42Y-3.12
X7.42Y-3.22
X7.42Y-3.32
X7.42Y-3.465
X7.42Y-3.565
X7.42Y-3.665
X7.42Y-3.81
X7.42Y-3.91
X7.42Y-4.01
T3
X6.5701Y-2.8752
X6.5701Y-2.9752
X6.5701Y-3.0752
X6.5701Y-3.1752
X6.5701Y-3.2752
X6.5701Y-3.3752
X6.5701Y-3.4752
X6.5701Y-3.5752
X6.5701Y-3.6752
X6.5701Y-3.7752
X6.5701Y-3.8752
X6.5701Y-3.9752
X7.1701Y-2.8752
X7.1701Y-2.9752
X7.1701Y-3.0752
X7.1701Y-3.1752
X7.1701Y-3.2752
X7.1701Y-3.3752
X7.1701Y-3.4752
X7.1701Y-3.5752
X7.1701Y-3.6752
X7.1701Y-3.7752
X7.1701Y-3.8752
X7.1701Y-3.9752
T0
M30
