G04 #@! TF.GenerationSoftware,KiCad,Pcbnew,(6.0.9-0)*
G04 #@! TF.CreationDate,2023-02-26T13:48:30+01:00*
G04 #@! TF.ProjectId,pro_micro_shield,70726f5f-6d69-4637-926f-5f736869656c,rev?*
G04 #@! TF.SameCoordinates,Original*
G04 #@! TF.FileFunction,Soldermask,Top*
G04 #@! TF.FilePolarity,Negative*
%FSLAX46Y46*%
G04 Gerber Fmt 4.6, Leading zero omitted, Abs format (unit mm)*
G04 Created by KiCad (PCBNEW (6.0.9-0)) date 2023-02-26 13:48:30*
%MOMM*%
%LPD*%
G01*
G04 APERTURE LIST*
%ADD10R,1.752600X1.752600*%
%ADD11C,1.752600*%
%ADD12C,2.200000*%
%ADD13R,1.700000X1.700000*%
%ADD14O,1.700000X1.700000*%
%ADD15C,1.600000*%
%ADD16O,1.600000X1.600000*%
G04 APERTURE END LIST*
D10*
X166880000Y-73030000D03*
D11*
X166880000Y-75570000D03*
X166880000Y-78110000D03*
X166880000Y-80650000D03*
X166880000Y-83190000D03*
X166880000Y-85730000D03*
X166880000Y-88270000D03*
X166880000Y-90810000D03*
X166880000Y-93350000D03*
X166880000Y-95890000D03*
X166880000Y-98430000D03*
X166880000Y-100970000D03*
X182120000Y-100970000D03*
X182120000Y-98430000D03*
X182120000Y-95890000D03*
X182120000Y-93350000D03*
X182120000Y-90810000D03*
X182120000Y-88270000D03*
X182120000Y-85730000D03*
X182120000Y-83190000D03*
X182120000Y-80650000D03*
X182120000Y-78110000D03*
X182120000Y-75570000D03*
X182120000Y-73030000D03*
D12*
X160500000Y-74000000D03*
X160500000Y-102750000D03*
X188500000Y-74000000D03*
D13*
X160523000Y-110109000D03*
D14*
X163063000Y-110109000D03*
X165603000Y-110109000D03*
X168143000Y-110109000D03*
X170683000Y-110109000D03*
X173223000Y-110109000D03*
X175763000Y-110109000D03*
X178303000Y-110109000D03*
X180843000Y-110109000D03*
X183383000Y-110109000D03*
X185923000Y-110109000D03*
X188463000Y-110109000D03*
D13*
X186436000Y-101031200D03*
D14*
X186436000Y-98491200D03*
X186436000Y-95951200D03*
X186436000Y-93411200D03*
X186436000Y-90871200D03*
X186436000Y-88331200D03*
X186436000Y-85791200D03*
X186436000Y-83251200D03*
X186436000Y-80711200D03*
D13*
X162560000Y-93319600D03*
D14*
X162560000Y-90779600D03*
X162560000Y-88239600D03*
X162560000Y-85699600D03*
X162560000Y-83159600D03*
X162560000Y-80619600D03*
D15*
X166878000Y-105156000D03*
D16*
X182118000Y-105156000D03*
M02*
