M48
; DRILL file {KiCad (6.0.9-0)} date 2023 February 26, Sunday 13:48:31
; FORMAT={-:-/ absolute / inch / decimal}
; #@! TF.CreationDate,2023-02-26T13:48:31+01:00
; #@! TF.GenerationSoftware,Kicad,Pcbnew,(6.0.9-0)
; #@! TF.FileFunction,Plated,1,2,PTH
FMAT,2
INCH
; #@! TA.AperFunction,Plated,PTH,ComponentDrill
T1C0.0315
; #@! TA.AperFunction,Plated,PTH,ComponentDrill
T2C0.0394
; #@! TA.AperFunction,Plated,PTH,ComponentDrill
T3C0.0430
%
G90
G05
T1
X6.57Y-4.14
X7.17Y-4.14
T2
X6.3198Y-4.335
X6.4Y-3.174
X6.4Y-3.274
X6.4Y-3.374
X6.4Y-3.474
X6.4Y-3.574
X6.4Y-3.674
X6.4198Y-4.335
X6.5198Y-4.335
X6.6198Y-4.335
X6.7198Y-4.335
X6.8198Y-4.335
X6.9198Y-4.335
X7.0198Y-4.335
X7.1198Y-4.335
X7.2198Y-4.335
X7.3198Y-4.335
X7.34Y-3.1776
X7.34Y-3.2776
X7.34Y-3.3776
X7.34Y-3.4776
X7.34Y-3.5776
X7.34Y-3.6776
X7.34Y-3.7776
X7.34Y-3.8776
X7.34Y-3.9776
X7.4198Y-4.335
T3
X6.5701Y-2.8752
X6.5701Y-2.9752
X6.5701Y-3.0752
X6.5701Y-3.1752
X6.5701Y-3.2752
X6.5701Y-3.3752
X6.5701Y-3.4752
X6.5701Y-3.5752
X6.5701Y-3.6752
X6.5701Y-3.7752
X6.5701Y-3.8752
X6.5701Y-3.9752
X7.1701Y-2.8752
X7.1701Y-2.9752
X7.1701Y-3.0752
X7.1701Y-3.1752
X7.1701Y-3.2752
X7.1701Y-3.3752
X7.1701Y-3.4752
X7.1701Y-3.5752
X7.1701Y-3.6752
X7.1701Y-3.7752
X7.1701Y-3.8752
X7.1701Y-3.9752
T0
M30
