G04 #@! TF.GenerationSoftware,KiCad,Pcbnew,(6.0.9-0)*
G04 #@! TF.CreationDate,2023-02-26T13:48:30+01:00*
G04 #@! TF.ProjectId,pro_micro_shield,70726f5f-6d69-4637-926f-5f736869656c,rev?*
G04 #@! TF.SameCoordinates,Original*
G04 #@! TF.FileFunction,Legend,Top*
G04 #@! TF.FilePolarity,Positive*
%FSLAX46Y46*%
G04 Gerber Fmt 4.6, Leading zero omitted, Abs format (unit mm)*
G04 Created by KiCad (PCBNEW (6.0.9-0)) date 2023-02-26 13:48:30*
%MOMM*%
%LPD*%
G01*
G04 APERTURE LIST*
%ADD10C,0.150000*%
%ADD11C,0.300000*%
%ADD12C,0.381000*%
%ADD13C,0.120000*%
%ADD14R,1.752600X1.752600*%
%ADD15C,1.752600*%
G04 APERTURE END LIST*
D10*
X160182864Y-80779685D02*
X160182864Y-80422542D01*
X160932864Y-80422542D01*
X160397150Y-80993971D02*
X160397150Y-81351114D01*
X160182864Y-80922542D02*
X160932864Y-81172542D01*
X160182864Y-81422542D01*
X160218578Y-81636828D02*
X160182864Y-81743971D01*
X160182864Y-81922542D01*
X160218578Y-81993971D01*
X160254292Y-82029685D01*
X160325721Y-82065400D01*
X160397150Y-82065400D01*
X160468578Y-82029685D01*
X160504292Y-81993971D01*
X160540007Y-81922542D01*
X160575721Y-81779685D01*
X160611435Y-81708257D01*
X160647150Y-81672542D01*
X160718578Y-81636828D01*
X160790007Y-81636828D01*
X160861435Y-81672542D01*
X160897150Y-81708257D01*
X160932864Y-81779685D01*
X160932864Y-81958257D01*
X160897150Y-82065400D01*
X160575721Y-82386828D02*
X160575721Y-82636828D01*
X160182864Y-82743971D02*
X160182864Y-82386828D01*
X160932864Y-82386828D01*
X160932864Y-82743971D01*
X160182864Y-83493971D02*
X160540007Y-83243971D01*
X160182864Y-83065400D02*
X160932864Y-83065400D01*
X160932864Y-83351114D01*
X160897150Y-83422542D01*
X160861435Y-83458257D01*
X160790007Y-83493971D01*
X160682864Y-83493971D01*
X160611435Y-83458257D01*
X160575721Y-83422542D01*
X160540007Y-83351114D01*
X160540007Y-83065400D01*
X159689650Y-80404685D02*
X159725364Y-80333257D01*
X159725364Y-80226114D01*
X159689650Y-80118971D01*
X159618221Y-80047542D01*
X159546792Y-80011828D01*
X159403935Y-79976114D01*
X159296792Y-79976114D01*
X159153935Y-80011828D01*
X159082507Y-80047542D01*
X159011078Y-80118971D01*
X158975364Y-80226114D01*
X158975364Y-80297542D01*
X159011078Y-80404685D01*
X159046792Y-80440400D01*
X159296792Y-80440400D01*
X159296792Y-80297542D01*
X158975364Y-80761828D02*
X159725364Y-80761828D01*
X158975364Y-81190400D01*
X159725364Y-81190400D01*
X158975364Y-81547542D02*
X159725364Y-81547542D01*
X159725364Y-81726114D01*
X159689650Y-81833257D01*
X159618221Y-81904685D01*
X159546792Y-81940400D01*
X159403935Y-81976114D01*
X159296792Y-81976114D01*
X159153935Y-81940400D01*
X159082507Y-81904685D01*
X159011078Y-81833257D01*
X158975364Y-81726114D01*
X158975364Y-81547542D01*
X159725364Y-83226114D02*
X159725364Y-82868971D01*
X159368221Y-82833257D01*
X159403935Y-82868971D01*
X159439650Y-82940400D01*
X159439650Y-83118971D01*
X159403935Y-83190400D01*
X159368221Y-83226114D01*
X159296792Y-83261828D01*
X159118221Y-83261828D01*
X159046792Y-83226114D01*
X159011078Y-83190400D01*
X158975364Y-83118971D01*
X158975364Y-82940400D01*
X159011078Y-82868971D01*
X159046792Y-82833257D01*
X159725364Y-83476114D02*
X158975364Y-83726114D01*
X159725364Y-83976114D01*
X188777421Y-101266285D02*
X188813135Y-101159142D01*
X188813135Y-100980571D01*
X188777421Y-100909142D01*
X188741707Y-100873428D01*
X188670278Y-100837714D01*
X188598850Y-100837714D01*
X188527421Y-100873428D01*
X188491707Y-100909142D01*
X188455992Y-100980571D01*
X188420278Y-101123428D01*
X188384564Y-101194857D01*
X188348850Y-101230571D01*
X188277421Y-101266285D01*
X188205992Y-101266285D01*
X188134564Y-101230571D01*
X188098850Y-101194857D01*
X188063135Y-101123428D01*
X188063135Y-100944857D01*
X188098850Y-100837714D01*
X188420278Y-100516285D02*
X188420278Y-100266285D01*
X188813135Y-100159142D02*
X188813135Y-100516285D01*
X188063135Y-100516285D01*
X188063135Y-100159142D01*
X188813135Y-99837714D02*
X188063135Y-99837714D01*
X188813135Y-99409142D01*
X188063135Y-99409142D01*
X188777421Y-99087714D02*
X188813135Y-98980571D01*
X188813135Y-98802000D01*
X188777421Y-98730571D01*
X188741707Y-98694857D01*
X188670278Y-98659142D01*
X188598850Y-98659142D01*
X188527421Y-98694857D01*
X188491707Y-98730571D01*
X188455992Y-98802000D01*
X188420278Y-98944857D01*
X188384564Y-99016285D01*
X188348850Y-99052000D01*
X188277421Y-99087714D01*
X188205992Y-99087714D01*
X188134564Y-99052000D01*
X188098850Y-99016285D01*
X188063135Y-98944857D01*
X188063135Y-98766285D01*
X188098850Y-98659142D01*
X188063135Y-98194857D02*
X188063135Y-98052000D01*
X188098850Y-97980571D01*
X188170278Y-97909142D01*
X188313135Y-97873428D01*
X188563135Y-97873428D01*
X188705992Y-97909142D01*
X188777421Y-97980571D01*
X188813135Y-98052000D01*
X188813135Y-98194857D01*
X188777421Y-98266285D01*
X188705992Y-98337714D01*
X188563135Y-98373428D01*
X188313135Y-98373428D01*
X188170278Y-98337714D01*
X188098850Y-98266285D01*
X188063135Y-98194857D01*
X188813135Y-97123428D02*
X188455992Y-97373428D01*
X188813135Y-97552000D02*
X188063135Y-97552000D01*
X188063135Y-97266285D01*
X188098850Y-97194857D01*
X188134564Y-97159142D01*
X188205992Y-97123428D01*
X188313135Y-97123428D01*
X188384564Y-97159142D01*
X188420278Y-97194857D01*
X188455992Y-97266285D01*
X188455992Y-97552000D01*
X188063135Y-96302000D02*
X188063135Y-95837714D01*
X188348850Y-96087714D01*
X188348850Y-95980571D01*
X188384564Y-95909142D01*
X188420278Y-95873428D01*
X188491707Y-95837714D01*
X188670278Y-95837714D01*
X188741707Y-95873428D01*
X188777421Y-95909142D01*
X188813135Y-95980571D01*
X188813135Y-96194857D01*
X188777421Y-96266285D01*
X188741707Y-96302000D01*
X189270635Y-101141285D02*
X189270635Y-101498428D01*
X189627778Y-101534142D01*
X189592064Y-101498428D01*
X189556350Y-101427000D01*
X189556350Y-101248428D01*
X189592064Y-101177000D01*
X189627778Y-101141285D01*
X189699207Y-101105571D01*
X189877778Y-101105571D01*
X189949207Y-101141285D01*
X189984921Y-101177000D01*
X190020635Y-101248428D01*
X190020635Y-101427000D01*
X189984921Y-101498428D01*
X189949207Y-101534142D01*
X189270635Y-100891285D02*
X190020635Y-100641285D01*
X189270635Y-100391285D01*
X189306350Y-99177000D02*
X189270635Y-99248428D01*
X189270635Y-99355571D01*
X189306350Y-99462714D01*
X189377778Y-99534142D01*
X189449207Y-99569857D01*
X189592064Y-99605571D01*
X189699207Y-99605571D01*
X189842064Y-99569857D01*
X189913492Y-99534142D01*
X189984921Y-99462714D01*
X190020635Y-99355571D01*
X190020635Y-99284142D01*
X189984921Y-99177000D01*
X189949207Y-99141285D01*
X189699207Y-99141285D01*
X189699207Y-99284142D01*
X190020635Y-98819857D02*
X189270635Y-98819857D01*
X190020635Y-98391285D01*
X189270635Y-98391285D01*
X190020635Y-98034142D02*
X189270635Y-98034142D01*
X189270635Y-97855571D01*
X189306350Y-97748428D01*
X189377778Y-97677000D01*
X189449207Y-97641285D01*
X189592064Y-97605571D01*
X189699207Y-97605571D01*
X189842064Y-97641285D01*
X189913492Y-97677000D01*
X189984921Y-97748428D01*
X190020635Y-97855571D01*
X190020635Y-98034142D01*
X190020635Y-96712714D02*
X189270635Y-96712714D01*
X189270635Y-96534142D01*
X189306350Y-96427000D01*
X189377778Y-96355571D01*
X189449207Y-96319857D01*
X189592064Y-96284142D01*
X189699207Y-96284142D01*
X189842064Y-96319857D01*
X189913492Y-96355571D01*
X189984921Y-96427000D01*
X190020635Y-96534142D01*
X190020635Y-96712714D01*
X189592064Y-95855571D02*
X189556350Y-95927000D01*
X189520635Y-95962714D01*
X189449207Y-95998428D01*
X189413492Y-95998428D01*
X189342064Y-95962714D01*
X189306350Y-95927000D01*
X189270635Y-95855571D01*
X189270635Y-95712714D01*
X189306350Y-95641285D01*
X189342064Y-95605571D01*
X189413492Y-95569857D01*
X189449207Y-95569857D01*
X189520635Y-95605571D01*
X189556350Y-95641285D01*
X189592064Y-95712714D01*
X189592064Y-95855571D01*
X189627778Y-95927000D01*
X189663492Y-95962714D01*
X189734921Y-95998428D01*
X189877778Y-95998428D01*
X189949207Y-95962714D01*
X189984921Y-95927000D01*
X190020635Y-95855571D01*
X190020635Y-95712714D01*
X189984921Y-95641285D01*
X189949207Y-95605571D01*
X189877778Y-95569857D01*
X189734921Y-95569857D01*
X189663492Y-95605571D01*
X189627778Y-95641285D01*
X189592064Y-95712714D01*
X183374428Y-111771250D02*
X183303000Y-111735535D01*
X183195857Y-111735535D01*
X183088714Y-111771250D01*
X183017285Y-111842678D01*
X182981571Y-111914107D01*
X182945857Y-112056964D01*
X182945857Y-112164107D01*
X182981571Y-112306964D01*
X183017285Y-112378392D01*
X183088714Y-112449821D01*
X183195857Y-112485535D01*
X183267285Y-112485535D01*
X183374428Y-112449821D01*
X183410142Y-112414107D01*
X183410142Y-112164107D01*
X183267285Y-112164107D01*
X183731571Y-112485535D02*
X183731571Y-111735535D01*
X184160142Y-112485535D01*
X184160142Y-111735535D01*
X184517285Y-112485535D02*
X184517285Y-111735535D01*
X184695857Y-111735535D01*
X184803000Y-111771250D01*
X184874428Y-111842678D01*
X184910142Y-111914107D01*
X184945857Y-112056964D01*
X184945857Y-112164107D01*
X184910142Y-112306964D01*
X184874428Y-112378392D01*
X184803000Y-112449821D01*
X184695857Y-112485535D01*
X184517285Y-112485535D01*
X185838714Y-112485535D02*
X185838714Y-111735535D01*
X186017285Y-111735535D01*
X186124428Y-111771250D01*
X186195857Y-111842678D01*
X186231571Y-111914107D01*
X186267285Y-112056964D01*
X186267285Y-112164107D01*
X186231571Y-112306964D01*
X186195857Y-112378392D01*
X186124428Y-112449821D01*
X186017285Y-112485535D01*
X185838714Y-112485535D01*
X186517285Y-111735535D02*
X186981571Y-111735535D01*
X186731571Y-112021250D01*
X186838714Y-112021250D01*
X186910142Y-112056964D01*
X186945857Y-112092678D01*
X186981571Y-112164107D01*
X186981571Y-112342678D01*
X186945857Y-112414107D01*
X186910142Y-112449821D01*
X186838714Y-112485535D01*
X186624428Y-112485535D01*
X186553000Y-112449821D01*
X186517285Y-112414107D01*
X188231571Y-111735535D02*
X187874428Y-111735535D01*
X187838714Y-112092678D01*
X187874428Y-112056964D01*
X187945857Y-112021250D01*
X188124428Y-112021250D01*
X188195857Y-112056964D01*
X188231571Y-112092678D01*
X188267285Y-112164107D01*
X188267285Y-112342678D01*
X188231571Y-112414107D01*
X188195857Y-112449821D01*
X188124428Y-112485535D01*
X187945857Y-112485535D01*
X187874428Y-112449821D01*
X187838714Y-112414107D01*
X188481571Y-111735535D02*
X188731571Y-112485535D01*
X188981571Y-111735535D01*
X183553000Y-113693035D02*
X183303000Y-113335892D01*
X183124428Y-113693035D02*
X183124428Y-112943035D01*
X183410142Y-112943035D01*
X183481571Y-112978750D01*
X183517285Y-113014464D01*
X183553000Y-113085892D01*
X183553000Y-113193035D01*
X183517285Y-113264464D01*
X183481571Y-113300178D01*
X183410142Y-113335892D01*
X183124428Y-113335892D01*
X184267285Y-112978750D02*
X184195857Y-112943035D01*
X184088714Y-112943035D01*
X183981571Y-112978750D01*
X183910142Y-113050178D01*
X183874428Y-113121607D01*
X183838714Y-113264464D01*
X183838714Y-113371607D01*
X183874428Y-113514464D01*
X183910142Y-113585892D01*
X183981571Y-113657321D01*
X184088714Y-113693035D01*
X184160142Y-113693035D01*
X184267285Y-113657321D01*
X184303000Y-113621607D01*
X184303000Y-113371607D01*
X184160142Y-113371607D01*
X184874428Y-113300178D02*
X184981571Y-113335892D01*
X185017285Y-113371607D01*
X185053000Y-113443035D01*
X185053000Y-113550178D01*
X185017285Y-113621607D01*
X184981571Y-113657321D01*
X184910142Y-113693035D01*
X184624428Y-113693035D01*
X184624428Y-112943035D01*
X184874428Y-112943035D01*
X184945857Y-112978750D01*
X184981571Y-113014464D01*
X185017285Y-113085892D01*
X185017285Y-113157321D01*
X184981571Y-113228750D01*
X184945857Y-113264464D01*
X184874428Y-113300178D01*
X184624428Y-113300178D01*
X185910142Y-113657321D02*
X186017285Y-113693035D01*
X186195857Y-113693035D01*
X186267285Y-113657321D01*
X186303000Y-113621607D01*
X186338714Y-113550178D01*
X186338714Y-113478750D01*
X186303000Y-113407321D01*
X186267285Y-113371607D01*
X186195857Y-113335892D01*
X186053000Y-113300178D01*
X185981571Y-113264464D01*
X185945857Y-113228750D01*
X185910142Y-113157321D01*
X185910142Y-113085892D01*
X185945857Y-113014464D01*
X185981571Y-112978750D01*
X186053000Y-112943035D01*
X186231571Y-112943035D01*
X186338714Y-112978750D01*
X186553000Y-112943035D02*
X186981571Y-112943035D01*
X186767285Y-113693035D02*
X186767285Y-112943035D01*
X187660142Y-113693035D02*
X187410142Y-113335892D01*
X187231571Y-113693035D02*
X187231571Y-112943035D01*
X187517285Y-112943035D01*
X187588714Y-112978750D01*
X187624428Y-113014464D01*
X187660142Y-113085892D01*
X187660142Y-113193035D01*
X187624428Y-113264464D01*
X187588714Y-113300178D01*
X187517285Y-113335892D01*
X187231571Y-113335892D01*
X187981571Y-113693035D02*
X187981571Y-112943035D01*
X188338714Y-113693035D02*
X188338714Y-112943035D01*
X188624428Y-112943035D01*
X188695857Y-112978750D01*
X188731571Y-113014464D01*
X188767285Y-113085892D01*
X188767285Y-113193035D01*
X188731571Y-113264464D01*
X188695857Y-113300178D01*
X188624428Y-113335892D01*
X188338714Y-113335892D01*
X175754428Y-111771250D02*
X175683000Y-111735535D01*
X175575857Y-111735535D01*
X175468714Y-111771250D01*
X175397285Y-111842678D01*
X175361571Y-111914107D01*
X175325857Y-112056964D01*
X175325857Y-112164107D01*
X175361571Y-112306964D01*
X175397285Y-112378392D01*
X175468714Y-112449821D01*
X175575857Y-112485535D01*
X175647285Y-112485535D01*
X175754428Y-112449821D01*
X175790142Y-112414107D01*
X175790142Y-112164107D01*
X175647285Y-112164107D01*
X176111571Y-112485535D02*
X176111571Y-111735535D01*
X176540142Y-112485535D01*
X176540142Y-111735535D01*
X176897285Y-112485535D02*
X176897285Y-111735535D01*
X177075857Y-111735535D01*
X177183000Y-111771250D01*
X177254428Y-111842678D01*
X177290142Y-111914107D01*
X177325857Y-112056964D01*
X177325857Y-112164107D01*
X177290142Y-112306964D01*
X177254428Y-112378392D01*
X177183000Y-112449821D01*
X177075857Y-112485535D01*
X176897285Y-112485535D01*
X178218714Y-112485535D02*
X178218714Y-111735535D01*
X178397285Y-111735535D01*
X178504428Y-111771250D01*
X178575857Y-111842678D01*
X178611571Y-111914107D01*
X178647285Y-112056964D01*
X178647285Y-112164107D01*
X178611571Y-112306964D01*
X178575857Y-112378392D01*
X178504428Y-112449821D01*
X178397285Y-112485535D01*
X178218714Y-112485535D01*
X178897285Y-111735535D02*
X179361571Y-111735535D01*
X179111571Y-112021250D01*
X179218714Y-112021250D01*
X179290142Y-112056964D01*
X179325857Y-112092678D01*
X179361571Y-112164107D01*
X179361571Y-112342678D01*
X179325857Y-112414107D01*
X179290142Y-112449821D01*
X179218714Y-112485535D01*
X179004428Y-112485535D01*
X178933000Y-112449821D01*
X178897285Y-112414107D01*
X180611571Y-111735535D02*
X180254428Y-111735535D01*
X180218714Y-112092678D01*
X180254428Y-112056964D01*
X180325857Y-112021250D01*
X180504428Y-112021250D01*
X180575857Y-112056964D01*
X180611571Y-112092678D01*
X180647285Y-112164107D01*
X180647285Y-112342678D01*
X180611571Y-112414107D01*
X180575857Y-112449821D01*
X180504428Y-112485535D01*
X180325857Y-112485535D01*
X180254428Y-112449821D01*
X180218714Y-112414107D01*
X180861571Y-111735535D02*
X181111571Y-112485535D01*
X181361571Y-111735535D01*
X175933000Y-113693035D02*
X175683000Y-113335892D01*
X175504428Y-113693035D02*
X175504428Y-112943035D01*
X175790142Y-112943035D01*
X175861571Y-112978750D01*
X175897285Y-113014464D01*
X175933000Y-113085892D01*
X175933000Y-113193035D01*
X175897285Y-113264464D01*
X175861571Y-113300178D01*
X175790142Y-113335892D01*
X175504428Y-113335892D01*
X176647285Y-112978750D02*
X176575857Y-112943035D01*
X176468714Y-112943035D01*
X176361571Y-112978750D01*
X176290142Y-113050178D01*
X176254428Y-113121607D01*
X176218714Y-113264464D01*
X176218714Y-113371607D01*
X176254428Y-113514464D01*
X176290142Y-113585892D01*
X176361571Y-113657321D01*
X176468714Y-113693035D01*
X176540142Y-113693035D01*
X176647285Y-113657321D01*
X176683000Y-113621607D01*
X176683000Y-113371607D01*
X176540142Y-113371607D01*
X177254428Y-113300178D02*
X177361571Y-113335892D01*
X177397285Y-113371607D01*
X177433000Y-113443035D01*
X177433000Y-113550178D01*
X177397285Y-113621607D01*
X177361571Y-113657321D01*
X177290142Y-113693035D01*
X177004428Y-113693035D01*
X177004428Y-112943035D01*
X177254428Y-112943035D01*
X177325857Y-112978750D01*
X177361571Y-113014464D01*
X177397285Y-113085892D01*
X177397285Y-113157321D01*
X177361571Y-113228750D01*
X177325857Y-113264464D01*
X177254428Y-113300178D01*
X177004428Y-113300178D01*
X178290142Y-113657321D02*
X178397285Y-113693035D01*
X178575857Y-113693035D01*
X178647285Y-113657321D01*
X178683000Y-113621607D01*
X178718714Y-113550178D01*
X178718714Y-113478750D01*
X178683000Y-113407321D01*
X178647285Y-113371607D01*
X178575857Y-113335892D01*
X178433000Y-113300178D01*
X178361571Y-113264464D01*
X178325857Y-113228750D01*
X178290142Y-113157321D01*
X178290142Y-113085892D01*
X178325857Y-113014464D01*
X178361571Y-112978750D01*
X178433000Y-112943035D01*
X178611571Y-112943035D01*
X178718714Y-112978750D01*
X178933000Y-112943035D02*
X179361571Y-112943035D01*
X179147285Y-113693035D02*
X179147285Y-112943035D01*
X180040142Y-113693035D02*
X179790142Y-113335892D01*
X179611571Y-113693035D02*
X179611571Y-112943035D01*
X179897285Y-112943035D01*
X179968714Y-112978750D01*
X180004428Y-113014464D01*
X180040142Y-113085892D01*
X180040142Y-113193035D01*
X180004428Y-113264464D01*
X179968714Y-113300178D01*
X179897285Y-113335892D01*
X179611571Y-113335892D01*
X180361571Y-113693035D02*
X180361571Y-112943035D01*
X180718714Y-113693035D02*
X180718714Y-112943035D01*
X181004428Y-112943035D01*
X181075857Y-112978750D01*
X181111571Y-113014464D01*
X181147285Y-113085892D01*
X181147285Y-113193035D01*
X181111571Y-113264464D01*
X181075857Y-113300178D01*
X181004428Y-113335892D01*
X180718714Y-113335892D01*
X188777421Y-93646285D02*
X188813135Y-93539142D01*
X188813135Y-93360571D01*
X188777421Y-93289142D01*
X188741707Y-93253428D01*
X188670278Y-93217714D01*
X188598850Y-93217714D01*
X188527421Y-93253428D01*
X188491707Y-93289142D01*
X188455992Y-93360571D01*
X188420278Y-93503428D01*
X188384564Y-93574857D01*
X188348850Y-93610571D01*
X188277421Y-93646285D01*
X188205992Y-93646285D01*
X188134564Y-93610571D01*
X188098850Y-93574857D01*
X188063135Y-93503428D01*
X188063135Y-93324857D01*
X188098850Y-93217714D01*
X188420278Y-92896285D02*
X188420278Y-92646285D01*
X188813135Y-92539142D02*
X188813135Y-92896285D01*
X188063135Y-92896285D01*
X188063135Y-92539142D01*
X188813135Y-92217714D02*
X188063135Y-92217714D01*
X188813135Y-91789142D01*
X188063135Y-91789142D01*
X188777421Y-91467714D02*
X188813135Y-91360571D01*
X188813135Y-91182000D01*
X188777421Y-91110571D01*
X188741707Y-91074857D01*
X188670278Y-91039142D01*
X188598850Y-91039142D01*
X188527421Y-91074857D01*
X188491707Y-91110571D01*
X188455992Y-91182000D01*
X188420278Y-91324857D01*
X188384564Y-91396285D01*
X188348850Y-91432000D01*
X188277421Y-91467714D01*
X188205992Y-91467714D01*
X188134564Y-91432000D01*
X188098850Y-91396285D01*
X188063135Y-91324857D01*
X188063135Y-91146285D01*
X188098850Y-91039142D01*
X188063135Y-90574857D02*
X188063135Y-90432000D01*
X188098850Y-90360571D01*
X188170278Y-90289142D01*
X188313135Y-90253428D01*
X188563135Y-90253428D01*
X188705992Y-90289142D01*
X188777421Y-90360571D01*
X188813135Y-90432000D01*
X188813135Y-90574857D01*
X188777421Y-90646285D01*
X188705992Y-90717714D01*
X188563135Y-90753428D01*
X188313135Y-90753428D01*
X188170278Y-90717714D01*
X188098850Y-90646285D01*
X188063135Y-90574857D01*
X188813135Y-89503428D02*
X188455992Y-89753428D01*
X188813135Y-89932000D02*
X188063135Y-89932000D01*
X188063135Y-89646285D01*
X188098850Y-89574857D01*
X188134564Y-89539142D01*
X188205992Y-89503428D01*
X188313135Y-89503428D01*
X188384564Y-89539142D01*
X188420278Y-89574857D01*
X188455992Y-89646285D01*
X188455992Y-89932000D01*
X188134564Y-88646285D02*
X188098850Y-88610571D01*
X188063135Y-88539142D01*
X188063135Y-88360571D01*
X188098850Y-88289142D01*
X188134564Y-88253428D01*
X188205992Y-88217714D01*
X188277421Y-88217714D01*
X188384564Y-88253428D01*
X188813135Y-88682000D01*
X188813135Y-88217714D01*
X189270635Y-93521285D02*
X189270635Y-93878428D01*
X189627778Y-93914142D01*
X189592064Y-93878428D01*
X189556350Y-93807000D01*
X189556350Y-93628428D01*
X189592064Y-93557000D01*
X189627778Y-93521285D01*
X189699207Y-93485571D01*
X189877778Y-93485571D01*
X189949207Y-93521285D01*
X189984921Y-93557000D01*
X190020635Y-93628428D01*
X190020635Y-93807000D01*
X189984921Y-93878428D01*
X189949207Y-93914142D01*
X189270635Y-93271285D02*
X190020635Y-93021285D01*
X189270635Y-92771285D01*
X189306350Y-91557000D02*
X189270635Y-91628428D01*
X189270635Y-91735571D01*
X189306350Y-91842714D01*
X189377778Y-91914142D01*
X189449207Y-91949857D01*
X189592064Y-91985571D01*
X189699207Y-91985571D01*
X189842064Y-91949857D01*
X189913492Y-91914142D01*
X189984921Y-91842714D01*
X190020635Y-91735571D01*
X190020635Y-91664142D01*
X189984921Y-91557000D01*
X189949207Y-91521285D01*
X189699207Y-91521285D01*
X189699207Y-91664142D01*
X190020635Y-91199857D02*
X189270635Y-91199857D01*
X190020635Y-90771285D01*
X189270635Y-90771285D01*
X190020635Y-90414142D02*
X189270635Y-90414142D01*
X189270635Y-90235571D01*
X189306350Y-90128428D01*
X189377778Y-90057000D01*
X189449207Y-90021285D01*
X189592064Y-89985571D01*
X189699207Y-89985571D01*
X189842064Y-90021285D01*
X189913492Y-90057000D01*
X189984921Y-90128428D01*
X190020635Y-90235571D01*
X190020635Y-90414142D01*
X190020635Y-89092714D02*
X189270635Y-89092714D01*
X189270635Y-88914142D01*
X189306350Y-88807000D01*
X189377778Y-88735571D01*
X189449207Y-88699857D01*
X189592064Y-88664142D01*
X189699207Y-88664142D01*
X189842064Y-88699857D01*
X189913492Y-88735571D01*
X189984921Y-88807000D01*
X190020635Y-88914142D01*
X190020635Y-89092714D01*
X189270635Y-88414142D02*
X189270635Y-87914142D01*
X190020635Y-88235571D01*
D11*
X175205238Y-77083333D02*
X177205238Y-77083333D01*
X175776666Y-77750000D01*
X177205238Y-78416666D01*
X175205238Y-78416666D01*
X175205238Y-79369047D02*
X176538571Y-79369047D01*
X177205238Y-79369047D02*
X177110000Y-79273809D01*
X177014761Y-79369047D01*
X177110000Y-79464285D01*
X177205238Y-79369047D01*
X177014761Y-79369047D01*
X176538571Y-80321428D02*
X175205238Y-80321428D01*
X176348095Y-80321428D02*
X176443333Y-80416666D01*
X176538571Y-80607142D01*
X176538571Y-80892857D01*
X176443333Y-81083333D01*
X176252857Y-81178571D01*
X175205238Y-81178571D01*
X175205238Y-82130952D02*
X176538571Y-82130952D01*
X177205238Y-82130952D02*
X177110000Y-82035714D01*
X177014761Y-82130952D01*
X177110000Y-82226190D01*
X177205238Y-82130952D01*
X177014761Y-82130952D01*
X176538571Y-83940476D02*
X175205238Y-83940476D01*
X177300476Y-83464285D02*
X175871904Y-82988095D01*
X175871904Y-84226190D01*
X176538571Y-84797619D02*
X175205238Y-85178571D01*
X176157619Y-85559523D01*
X175205238Y-85940476D01*
X176538571Y-86321428D01*
X175205238Y-87940476D02*
X177205238Y-87940476D01*
X175300476Y-87940476D02*
X175205238Y-87750000D01*
X175205238Y-87369047D01*
X175300476Y-87178571D01*
X175395714Y-87083333D01*
X175586190Y-86988095D01*
X176157619Y-86988095D01*
X176348095Y-87083333D01*
X176443333Y-87178571D01*
X176538571Y-87369047D01*
X176538571Y-87750000D01*
X176443333Y-87940476D01*
X175395714Y-90035714D02*
X175300476Y-89940476D01*
X175205238Y-89654761D01*
X175205238Y-89464285D01*
X175300476Y-89178571D01*
X175490952Y-88988095D01*
X175681428Y-88892857D01*
X176062380Y-88797619D01*
X176348095Y-88797619D01*
X176729047Y-88892857D01*
X176919523Y-88988095D01*
X177110000Y-89178571D01*
X177205238Y-89464285D01*
X177205238Y-89654761D01*
X177110000Y-89940476D01*
X177014761Y-90035714D01*
X175205238Y-90892857D02*
X177205238Y-90892857D01*
X175205238Y-91750000D02*
X176252857Y-91750000D01*
X176443333Y-91654761D01*
X176538571Y-91464285D01*
X176538571Y-91178571D01*
X176443333Y-90988095D01*
X176348095Y-90892857D01*
X175205238Y-92702380D02*
X176538571Y-92702380D01*
X176157619Y-92702380D02*
X176348095Y-92797619D01*
X176443333Y-92892857D01*
X176538571Y-93083333D01*
X176538571Y-93273809D01*
X175205238Y-94226190D02*
X175300476Y-94035714D01*
X175395714Y-93940476D01*
X175586190Y-93845238D01*
X176157619Y-93845238D01*
X176348095Y-93940476D01*
X176443333Y-94035714D01*
X176538571Y-94226190D01*
X176538571Y-94511904D01*
X176443333Y-94702380D01*
X176348095Y-94797619D01*
X176157619Y-94892857D01*
X175586190Y-94892857D01*
X175395714Y-94797619D01*
X175300476Y-94702380D01*
X175205238Y-94511904D01*
X175205238Y-94226190D01*
X176538571Y-95750000D02*
X175205238Y-95750000D01*
X176348095Y-95750000D02*
X176443333Y-95845238D01*
X176538571Y-96035714D01*
X176538571Y-96321428D01*
X176443333Y-96511904D01*
X176252857Y-96607142D01*
X175205238Y-96607142D01*
X175205238Y-97845238D02*
X175300476Y-97654761D01*
X175395714Y-97559523D01*
X175586190Y-97464285D01*
X176157619Y-97464285D01*
X176348095Y-97559523D01*
X176443333Y-97654761D01*
X176538571Y-97845238D01*
X176538571Y-98130952D01*
X176443333Y-98321428D01*
X176348095Y-98416666D01*
X176157619Y-98511904D01*
X175586190Y-98511904D01*
X175395714Y-98416666D01*
X175300476Y-98321428D01*
X175205238Y-98130952D01*
X175205238Y-97845238D01*
X172080476Y-78702380D02*
X171985238Y-78988095D01*
X171985238Y-79464285D01*
X172080476Y-79654761D01*
X172175714Y-79750000D01*
X172366190Y-79845238D01*
X172556666Y-79845238D01*
X172747142Y-79750000D01*
X172842380Y-79654761D01*
X172937619Y-79464285D01*
X173032857Y-79083333D01*
X173128095Y-78892857D01*
X173223333Y-78797619D01*
X173413809Y-78702380D01*
X173604285Y-78702380D01*
X173794761Y-78797619D01*
X173890000Y-78892857D01*
X173985238Y-79083333D01*
X173985238Y-79559523D01*
X173890000Y-79845238D01*
X171985238Y-80702380D02*
X173985238Y-80702380D01*
X171985238Y-81559523D02*
X173032857Y-81559523D01*
X173223333Y-81464285D01*
X173318571Y-81273809D01*
X173318571Y-80988095D01*
X173223333Y-80797619D01*
X173128095Y-80702380D01*
X171985238Y-82511904D02*
X173318571Y-82511904D01*
X173985238Y-82511904D02*
X173890000Y-82416666D01*
X173794761Y-82511904D01*
X173890000Y-82607142D01*
X173985238Y-82511904D01*
X173794761Y-82511904D01*
X172080476Y-84226190D02*
X171985238Y-84035714D01*
X171985238Y-83654761D01*
X172080476Y-83464285D01*
X172270952Y-83369047D01*
X173032857Y-83369047D01*
X173223333Y-83464285D01*
X173318571Y-83654761D01*
X173318571Y-84035714D01*
X173223333Y-84226190D01*
X173032857Y-84321428D01*
X172842380Y-84321428D01*
X172651904Y-83369047D01*
X171985238Y-85464285D02*
X172080476Y-85273809D01*
X172270952Y-85178571D01*
X173985238Y-85178571D01*
X171985238Y-87083333D02*
X173985238Y-87083333D01*
X172080476Y-87083333D02*
X171985238Y-86892857D01*
X171985238Y-86511904D01*
X172080476Y-86321428D01*
X172175714Y-86226190D01*
X172366190Y-86130952D01*
X172937619Y-86130952D01*
X173128095Y-86226190D01*
X173223333Y-86321428D01*
X173318571Y-86511904D01*
X173318571Y-86892857D01*
X173223333Y-87083333D01*
X171985238Y-90702380D02*
X172937619Y-90035714D01*
X171985238Y-89559523D02*
X173985238Y-89559523D01*
X173985238Y-90321428D01*
X173890000Y-90511904D01*
X173794761Y-90607142D01*
X173604285Y-90702380D01*
X173318571Y-90702380D01*
X173128095Y-90607142D01*
X173032857Y-90511904D01*
X172937619Y-90321428D01*
X172937619Y-89559523D01*
X172080476Y-92321428D02*
X171985238Y-92130952D01*
X171985238Y-91750000D01*
X172080476Y-91559523D01*
X172270952Y-91464285D01*
X173032857Y-91464285D01*
X173223333Y-91559523D01*
X173318571Y-91750000D01*
X173318571Y-92130952D01*
X173223333Y-92321428D01*
X173032857Y-92416666D01*
X172842380Y-92416666D01*
X172651904Y-91464285D01*
X173318571Y-93083333D02*
X171985238Y-93559523D01*
X173318571Y-94035714D01*
X172175714Y-94797619D02*
X172080476Y-94892857D01*
X171985238Y-94797619D01*
X172080476Y-94702380D01*
X172175714Y-94797619D01*
X171985238Y-94797619D01*
X173985238Y-95559523D02*
X173985238Y-96797619D01*
X173223333Y-96130952D01*
X173223333Y-96416666D01*
X173128095Y-96607142D01*
X173032857Y-96702380D01*
X172842380Y-96797619D01*
X172366190Y-96797619D01*
X172175714Y-96702380D01*
X172080476Y-96607142D01*
X171985238Y-96416666D01*
X171985238Y-95845238D01*
X172080476Y-95654761D01*
X172175714Y-95559523D01*
D10*
X172444428Y-104909166D02*
X172194428Y-104575833D01*
X172015857Y-104909166D02*
X172015857Y-104209166D01*
X172301571Y-104209166D01*
X172373000Y-104242500D01*
X172408714Y-104275833D01*
X172444428Y-104342500D01*
X172444428Y-104442500D01*
X172408714Y-104509166D01*
X172373000Y-104542500D01*
X172301571Y-104575833D01*
X172015857Y-104575833D01*
X172765857Y-104542500D02*
X173015857Y-104542500D01*
X173123000Y-104909166D02*
X172765857Y-104909166D01*
X172765857Y-104209166D01*
X173123000Y-104209166D01*
X173408714Y-104875833D02*
X173515857Y-104909166D01*
X173694428Y-104909166D01*
X173765857Y-104875833D01*
X173801571Y-104842500D01*
X173837285Y-104775833D01*
X173837285Y-104709166D01*
X173801571Y-104642500D01*
X173765857Y-104609166D01*
X173694428Y-104575833D01*
X173551571Y-104542500D01*
X173480142Y-104509166D01*
X173444428Y-104475833D01*
X173408714Y-104409166D01*
X173408714Y-104342500D01*
X173444428Y-104275833D01*
X173480142Y-104242500D01*
X173551571Y-104209166D01*
X173730142Y-104209166D01*
X173837285Y-104242500D01*
X174158714Y-104909166D02*
X174158714Y-104209166D01*
X174480142Y-104875833D02*
X174587285Y-104909166D01*
X174765857Y-104909166D01*
X174837285Y-104875833D01*
X174873000Y-104842500D01*
X174908714Y-104775833D01*
X174908714Y-104709166D01*
X174873000Y-104642500D01*
X174837285Y-104609166D01*
X174765857Y-104575833D01*
X174623000Y-104542500D01*
X174551571Y-104509166D01*
X174515857Y-104475833D01*
X174480142Y-104409166D01*
X174480142Y-104342500D01*
X174515857Y-104275833D01*
X174551571Y-104242500D01*
X174623000Y-104209166D01*
X174801571Y-104209166D01*
X174908714Y-104242500D01*
X175123000Y-104209166D02*
X175551571Y-104209166D01*
X175337285Y-104909166D02*
X175337285Y-104209166D01*
X175944428Y-104209166D02*
X176087285Y-104209166D01*
X176158714Y-104242500D01*
X176230142Y-104309166D01*
X176265857Y-104442500D01*
X176265857Y-104675833D01*
X176230142Y-104809166D01*
X176158714Y-104875833D01*
X176087285Y-104909166D01*
X175944428Y-104909166D01*
X175873000Y-104875833D01*
X175801571Y-104809166D01*
X175765857Y-104675833D01*
X175765857Y-104442500D01*
X175801571Y-104309166D01*
X175873000Y-104242500D01*
X175944428Y-104209166D01*
X177015857Y-104909166D02*
X176765857Y-104575833D01*
X176587285Y-104909166D02*
X176587285Y-104209166D01*
X176873000Y-104209166D01*
X176944428Y-104242500D01*
X176980142Y-104275833D01*
X177015857Y-104342500D01*
X177015857Y-104442500D01*
X176980142Y-104509166D01*
X176944428Y-104542500D01*
X176873000Y-104575833D01*
X176587285Y-104575833D01*
X173158714Y-106036166D02*
X172730142Y-106036166D01*
X172944428Y-106036166D02*
X172944428Y-105336166D01*
X172873000Y-105436166D01*
X172801571Y-105502833D01*
X172730142Y-105536166D01*
X173480142Y-105769500D02*
X174051571Y-105769500D01*
X174801571Y-106036166D02*
X174373000Y-106036166D01*
X174587285Y-106036166D02*
X174587285Y-105336166D01*
X174515857Y-105436166D01*
X174444428Y-105502833D01*
X174373000Y-105536166D01*
X175265857Y-105336166D02*
X175337285Y-105336166D01*
X175408714Y-105369500D01*
X175444428Y-105402833D01*
X175480142Y-105469500D01*
X175515857Y-105602833D01*
X175515857Y-105769500D01*
X175480142Y-105902833D01*
X175444428Y-105969500D01*
X175408714Y-106002833D01*
X175337285Y-106036166D01*
X175265857Y-106036166D01*
X175194428Y-106002833D01*
X175158714Y-105969500D01*
X175123000Y-105902833D01*
X175087285Y-105769500D01*
X175087285Y-105602833D01*
X175123000Y-105469500D01*
X175158714Y-105402833D01*
X175194428Y-105369500D01*
X175265857Y-105336166D01*
X175837285Y-106036166D02*
X175837285Y-105336166D01*
X176265857Y-106036166D02*
X175944428Y-105636166D01*
X176265857Y-105336166D02*
X175837285Y-105736166D01*
X167995571Y-112485535D02*
X167995571Y-111735535D01*
X168174142Y-111735535D01*
X168281285Y-111771250D01*
X168352714Y-111842678D01*
X168388428Y-111914107D01*
X168424142Y-112056964D01*
X168424142Y-112164107D01*
X168388428Y-112306964D01*
X168352714Y-112378392D01*
X168281285Y-112449821D01*
X168174142Y-112485535D01*
X167995571Y-112485535D01*
X169102714Y-111735535D02*
X168745571Y-111735535D01*
X168709857Y-112092678D01*
X168745571Y-112056964D01*
X168817000Y-112021250D01*
X168995571Y-112021250D01*
X169067000Y-112056964D01*
X169102714Y-112092678D01*
X169138428Y-112164107D01*
X169138428Y-112342678D01*
X169102714Y-112414107D01*
X169067000Y-112449821D01*
X168995571Y-112485535D01*
X168817000Y-112485535D01*
X168745571Y-112449821D01*
X168709857Y-112414107D01*
X170388428Y-111735535D02*
X170031285Y-111735535D01*
X169995571Y-112092678D01*
X170031285Y-112056964D01*
X170102714Y-112021250D01*
X170281285Y-112021250D01*
X170352714Y-112056964D01*
X170388428Y-112092678D01*
X170424142Y-112164107D01*
X170424142Y-112342678D01*
X170388428Y-112414107D01*
X170352714Y-112449821D01*
X170281285Y-112485535D01*
X170102714Y-112485535D01*
X170031285Y-112449821D01*
X169995571Y-112414107D01*
X170638428Y-111735535D02*
X170888428Y-112485535D01*
X171138428Y-111735535D01*
X172352714Y-111771250D02*
X172281285Y-111735535D01*
X172174142Y-111735535D01*
X172067000Y-111771250D01*
X171995571Y-111842678D01*
X171959857Y-111914107D01*
X171924142Y-112056964D01*
X171924142Y-112164107D01*
X171959857Y-112306964D01*
X171995571Y-112378392D01*
X172067000Y-112449821D01*
X172174142Y-112485535D01*
X172245571Y-112485535D01*
X172352714Y-112449821D01*
X172388428Y-112414107D01*
X172388428Y-112164107D01*
X172245571Y-112164107D01*
X172709857Y-112485535D02*
X172709857Y-111735535D01*
X173138428Y-112485535D01*
X173138428Y-111735535D01*
X173495571Y-112485535D02*
X173495571Y-111735535D01*
X173674142Y-111735535D01*
X173781285Y-111771250D01*
X173852714Y-111842678D01*
X173888428Y-111914107D01*
X173924142Y-112056964D01*
X173924142Y-112164107D01*
X173888428Y-112306964D01*
X173852714Y-112378392D01*
X173781285Y-112449821D01*
X173674142Y-112485535D01*
X173495571Y-112485535D01*
X169442000Y-113300178D02*
X169692000Y-113300178D01*
X169799142Y-113693035D02*
X169442000Y-113693035D01*
X169442000Y-112943035D01*
X169799142Y-112943035D01*
X170049142Y-112943035D02*
X170549142Y-113693035D01*
X170549142Y-112943035D02*
X170049142Y-113693035D01*
X170727714Y-112943035D02*
X171156285Y-112943035D01*
X170942000Y-113693035D02*
X170942000Y-112943035D01*
X171834857Y-113693035D02*
X171584857Y-113335892D01*
X171406285Y-113693035D02*
X171406285Y-112943035D01*
X171692000Y-112943035D01*
X171763428Y-112978750D01*
X171799142Y-113014464D01*
X171834857Y-113085892D01*
X171834857Y-113193035D01*
X171799142Y-113264464D01*
X171763428Y-113300178D01*
X171692000Y-113335892D01*
X171406285Y-113335892D01*
X172120571Y-113478750D02*
X172477714Y-113478750D01*
X172049142Y-113693035D02*
X172299142Y-112943035D01*
X172549142Y-113693035D01*
X160375571Y-112485535D02*
X160375571Y-111735535D01*
X160554142Y-111735535D01*
X160661285Y-111771250D01*
X160732714Y-111842678D01*
X160768428Y-111914107D01*
X160804142Y-112056964D01*
X160804142Y-112164107D01*
X160768428Y-112306964D01*
X160732714Y-112378392D01*
X160661285Y-112449821D01*
X160554142Y-112485535D01*
X160375571Y-112485535D01*
X161447000Y-111985535D02*
X161447000Y-112485535D01*
X161268428Y-111699821D02*
X161089857Y-112235535D01*
X161554142Y-112235535D01*
X162768428Y-111735535D02*
X162411285Y-111735535D01*
X162375571Y-112092678D01*
X162411285Y-112056964D01*
X162482714Y-112021250D01*
X162661285Y-112021250D01*
X162732714Y-112056964D01*
X162768428Y-112092678D01*
X162804142Y-112164107D01*
X162804142Y-112342678D01*
X162768428Y-112414107D01*
X162732714Y-112449821D01*
X162661285Y-112485535D01*
X162482714Y-112485535D01*
X162411285Y-112449821D01*
X162375571Y-112414107D01*
X163018428Y-111735535D02*
X163268428Y-112485535D01*
X163518428Y-111735535D01*
X164732714Y-111771250D02*
X164661285Y-111735535D01*
X164554142Y-111735535D01*
X164447000Y-111771250D01*
X164375571Y-111842678D01*
X164339857Y-111914107D01*
X164304142Y-112056964D01*
X164304142Y-112164107D01*
X164339857Y-112306964D01*
X164375571Y-112378392D01*
X164447000Y-112449821D01*
X164554142Y-112485535D01*
X164625571Y-112485535D01*
X164732714Y-112449821D01*
X164768428Y-112414107D01*
X164768428Y-112164107D01*
X164625571Y-112164107D01*
X165089857Y-112485535D02*
X165089857Y-111735535D01*
X165518428Y-112485535D01*
X165518428Y-111735535D01*
X165875571Y-112485535D02*
X165875571Y-111735535D01*
X166054142Y-111735535D01*
X166161285Y-111771250D01*
X166232714Y-111842678D01*
X166268428Y-111914107D01*
X166304142Y-112056964D01*
X166304142Y-112164107D01*
X166268428Y-112306964D01*
X166232714Y-112378392D01*
X166161285Y-112449821D01*
X166054142Y-112485535D01*
X165875571Y-112485535D01*
X161822000Y-113300178D02*
X162072000Y-113300178D01*
X162179142Y-113693035D02*
X161822000Y-113693035D01*
X161822000Y-112943035D01*
X162179142Y-112943035D01*
X162429142Y-112943035D02*
X162929142Y-113693035D01*
X162929142Y-112943035D02*
X162429142Y-113693035D01*
X163107714Y-112943035D02*
X163536285Y-112943035D01*
X163322000Y-113693035D02*
X163322000Y-112943035D01*
X164214857Y-113693035D02*
X163964857Y-113335892D01*
X163786285Y-113693035D02*
X163786285Y-112943035D01*
X164072000Y-112943035D01*
X164143428Y-112978750D01*
X164179142Y-113014464D01*
X164214857Y-113085892D01*
X164214857Y-113193035D01*
X164179142Y-113264464D01*
X164143428Y-113300178D01*
X164072000Y-113335892D01*
X163786285Y-113335892D01*
X164500571Y-113478750D02*
X164857714Y-113478750D01*
X164429142Y-113693035D02*
X164679142Y-112943035D01*
X164929142Y-113693035D01*
X160575721Y-90403971D02*
X160540007Y-90511114D01*
X160504292Y-90546828D01*
X160432864Y-90582542D01*
X160325721Y-90582542D01*
X160254292Y-90546828D01*
X160218578Y-90511114D01*
X160182864Y-90439685D01*
X160182864Y-90153971D01*
X160932864Y-90153971D01*
X160932864Y-90403971D01*
X160897150Y-90475400D01*
X160861435Y-90511114D01*
X160790007Y-90546828D01*
X160718578Y-90546828D01*
X160647150Y-90511114D01*
X160611435Y-90475400D01*
X160575721Y-90403971D01*
X160575721Y-90153971D01*
X160932864Y-90903971D02*
X160325721Y-90903971D01*
X160254292Y-90939685D01*
X160218578Y-90975400D01*
X160182864Y-91046828D01*
X160182864Y-91189685D01*
X160218578Y-91261114D01*
X160254292Y-91296828D01*
X160325721Y-91332542D01*
X160932864Y-91332542D01*
X160932864Y-91582542D02*
X160932864Y-92011114D01*
X160182864Y-91796828D02*
X160932864Y-91796828D01*
X160932864Y-92153971D02*
X160932864Y-92582542D01*
X160182864Y-92368257D02*
X160932864Y-92368257D01*
X160932864Y-92975400D02*
X160932864Y-93118257D01*
X160897150Y-93189685D01*
X160825721Y-93261114D01*
X160682864Y-93296828D01*
X160432864Y-93296828D01*
X160290007Y-93261114D01*
X160218578Y-93189685D01*
X160182864Y-93118257D01*
X160182864Y-92975400D01*
X160218578Y-92903971D01*
X160290007Y-92832542D01*
X160432864Y-92796828D01*
X160682864Y-92796828D01*
X160825721Y-92832542D01*
X160897150Y-92903971D01*
X160932864Y-92975400D01*
X160182864Y-93618257D02*
X160932864Y-93618257D01*
X160182864Y-94046828D01*
X160932864Y-94046828D01*
X158975364Y-90582542D02*
X159725364Y-90582542D01*
X159725364Y-90761114D01*
X159689650Y-90868257D01*
X159618221Y-90939685D01*
X159546792Y-90975400D01*
X159403935Y-91011114D01*
X159296792Y-91011114D01*
X159153935Y-90975400D01*
X159082507Y-90939685D01*
X159011078Y-90868257D01*
X158975364Y-90761114D01*
X158975364Y-90582542D01*
X158975364Y-91368257D02*
X158975364Y-91511114D01*
X159011078Y-91582542D01*
X159046792Y-91618257D01*
X159153935Y-91689685D01*
X159296792Y-91725400D01*
X159582507Y-91725400D01*
X159653935Y-91689685D01*
X159689650Y-91653971D01*
X159725364Y-91582542D01*
X159725364Y-91439685D01*
X159689650Y-91368257D01*
X159653935Y-91332542D01*
X159582507Y-91296828D01*
X159403935Y-91296828D01*
X159332507Y-91332542D01*
X159296792Y-91368257D01*
X159261078Y-91439685D01*
X159261078Y-91582542D01*
X159296792Y-91653971D01*
X159332507Y-91689685D01*
X159403935Y-91725400D01*
X159725364Y-92975400D02*
X159725364Y-92618257D01*
X159368221Y-92582542D01*
X159403935Y-92618257D01*
X159439650Y-92689685D01*
X159439650Y-92868257D01*
X159403935Y-92939685D01*
X159368221Y-92975400D01*
X159296792Y-93011114D01*
X159118221Y-93011114D01*
X159046792Y-92975400D01*
X159011078Y-92939685D01*
X158975364Y-92868257D01*
X158975364Y-92689685D01*
X159011078Y-92618257D01*
X159046792Y-92582542D01*
X159725364Y-93225400D02*
X158975364Y-93475400D01*
X159725364Y-93725400D01*
X188777421Y-86026285D02*
X188813135Y-85919142D01*
X188813135Y-85740571D01*
X188777421Y-85669142D01*
X188741707Y-85633428D01*
X188670278Y-85597714D01*
X188598850Y-85597714D01*
X188527421Y-85633428D01*
X188491707Y-85669142D01*
X188455992Y-85740571D01*
X188420278Y-85883428D01*
X188384564Y-85954857D01*
X188348850Y-85990571D01*
X188277421Y-86026285D01*
X188205992Y-86026285D01*
X188134564Y-85990571D01*
X188098850Y-85954857D01*
X188063135Y-85883428D01*
X188063135Y-85704857D01*
X188098850Y-85597714D01*
X188420278Y-85276285D02*
X188420278Y-85026285D01*
X188813135Y-84919142D02*
X188813135Y-85276285D01*
X188063135Y-85276285D01*
X188063135Y-84919142D01*
X188813135Y-84597714D02*
X188063135Y-84597714D01*
X188813135Y-84169142D01*
X188063135Y-84169142D01*
X188777421Y-83847714D02*
X188813135Y-83740571D01*
X188813135Y-83562000D01*
X188777421Y-83490571D01*
X188741707Y-83454857D01*
X188670278Y-83419142D01*
X188598850Y-83419142D01*
X188527421Y-83454857D01*
X188491707Y-83490571D01*
X188455992Y-83562000D01*
X188420278Y-83704857D01*
X188384564Y-83776285D01*
X188348850Y-83812000D01*
X188277421Y-83847714D01*
X188205992Y-83847714D01*
X188134564Y-83812000D01*
X188098850Y-83776285D01*
X188063135Y-83704857D01*
X188063135Y-83526285D01*
X188098850Y-83419142D01*
X188063135Y-82954857D02*
X188063135Y-82812000D01*
X188098850Y-82740571D01*
X188170278Y-82669142D01*
X188313135Y-82633428D01*
X188563135Y-82633428D01*
X188705992Y-82669142D01*
X188777421Y-82740571D01*
X188813135Y-82812000D01*
X188813135Y-82954857D01*
X188777421Y-83026285D01*
X188705992Y-83097714D01*
X188563135Y-83133428D01*
X188313135Y-83133428D01*
X188170278Y-83097714D01*
X188098850Y-83026285D01*
X188063135Y-82954857D01*
X188813135Y-81883428D02*
X188455992Y-82133428D01*
X188813135Y-82312000D02*
X188063135Y-82312000D01*
X188063135Y-82026285D01*
X188098850Y-81954857D01*
X188134564Y-81919142D01*
X188205992Y-81883428D01*
X188313135Y-81883428D01*
X188384564Y-81919142D01*
X188420278Y-81954857D01*
X188455992Y-82026285D01*
X188455992Y-82312000D01*
X188813135Y-80597714D02*
X188813135Y-81026285D01*
X188813135Y-80812000D02*
X188063135Y-80812000D01*
X188170278Y-80883428D01*
X188241707Y-80954857D01*
X188277421Y-81026285D01*
X189270635Y-85901285D02*
X189270635Y-86258428D01*
X189627778Y-86294142D01*
X189592064Y-86258428D01*
X189556350Y-86187000D01*
X189556350Y-86008428D01*
X189592064Y-85937000D01*
X189627778Y-85901285D01*
X189699207Y-85865571D01*
X189877778Y-85865571D01*
X189949207Y-85901285D01*
X189984921Y-85937000D01*
X190020635Y-86008428D01*
X190020635Y-86187000D01*
X189984921Y-86258428D01*
X189949207Y-86294142D01*
X189270635Y-85651285D02*
X190020635Y-85401285D01*
X189270635Y-85151285D01*
X189306350Y-83937000D02*
X189270635Y-84008428D01*
X189270635Y-84115571D01*
X189306350Y-84222714D01*
X189377778Y-84294142D01*
X189449207Y-84329857D01*
X189592064Y-84365571D01*
X189699207Y-84365571D01*
X189842064Y-84329857D01*
X189913492Y-84294142D01*
X189984921Y-84222714D01*
X190020635Y-84115571D01*
X190020635Y-84044142D01*
X189984921Y-83937000D01*
X189949207Y-83901285D01*
X189699207Y-83901285D01*
X189699207Y-84044142D01*
X190020635Y-83579857D02*
X189270635Y-83579857D01*
X190020635Y-83151285D01*
X189270635Y-83151285D01*
X190020635Y-82794142D02*
X189270635Y-82794142D01*
X189270635Y-82615571D01*
X189306350Y-82508428D01*
X189377778Y-82437000D01*
X189449207Y-82401285D01*
X189592064Y-82365571D01*
X189699207Y-82365571D01*
X189842064Y-82401285D01*
X189913492Y-82437000D01*
X189984921Y-82508428D01*
X190020635Y-82615571D01*
X190020635Y-82794142D01*
X190020635Y-81472714D02*
X189270635Y-81472714D01*
X189270635Y-81294142D01*
X189306350Y-81187000D01*
X189377778Y-81115571D01*
X189449207Y-81079857D01*
X189592064Y-81044142D01*
X189699207Y-81044142D01*
X189842064Y-81079857D01*
X189913492Y-81115571D01*
X189984921Y-81187000D01*
X190020635Y-81294142D01*
X190020635Y-81472714D01*
X189270635Y-80401285D02*
X189270635Y-80544142D01*
X189306350Y-80615571D01*
X189342064Y-80651285D01*
X189449207Y-80722714D01*
X189592064Y-80758428D01*
X189877778Y-80758428D01*
X189949207Y-80722714D01*
X189984921Y-80687000D01*
X190020635Y-80615571D01*
X190020635Y-80472714D01*
X189984921Y-80401285D01*
X189949207Y-80365571D01*
X189877778Y-80329857D01*
X189699207Y-80329857D01*
X189627778Y-80365571D01*
X189592064Y-80401285D01*
X189556350Y-80472714D01*
X189556350Y-80615571D01*
X189592064Y-80687000D01*
X189627778Y-80722714D01*
X189699207Y-80758428D01*
X160575721Y-85252542D02*
X160540007Y-85359685D01*
X160504292Y-85395400D01*
X160432864Y-85431114D01*
X160325721Y-85431114D01*
X160254292Y-85395400D01*
X160218578Y-85359685D01*
X160182864Y-85288257D01*
X160182864Y-85002542D01*
X160932864Y-85002542D01*
X160932864Y-85252542D01*
X160897150Y-85323971D01*
X160861435Y-85359685D01*
X160790007Y-85395400D01*
X160718578Y-85395400D01*
X160647150Y-85359685D01*
X160611435Y-85323971D01*
X160575721Y-85252542D01*
X160575721Y-85002542D01*
X160932864Y-85752542D02*
X160325721Y-85752542D01*
X160254292Y-85788257D01*
X160218578Y-85823971D01*
X160182864Y-85895400D01*
X160182864Y-86038257D01*
X160218578Y-86109685D01*
X160254292Y-86145400D01*
X160325721Y-86181114D01*
X160932864Y-86181114D01*
X160932864Y-86466828D02*
X160932864Y-86966828D01*
X160182864Y-86466828D01*
X160182864Y-86966828D01*
X160932864Y-87181114D02*
X160932864Y-87681114D01*
X160182864Y-87181114D01*
X160182864Y-87681114D01*
X160575721Y-87966828D02*
X160575721Y-88216828D01*
X160182864Y-88323971D02*
X160182864Y-87966828D01*
X160932864Y-87966828D01*
X160932864Y-88323971D01*
X160182864Y-89073971D02*
X160540007Y-88823971D01*
X160182864Y-88645400D02*
X160932864Y-88645400D01*
X160932864Y-88931114D01*
X160897150Y-89002542D01*
X160861435Y-89038257D01*
X160790007Y-89073971D01*
X160682864Y-89073971D01*
X160611435Y-89038257D01*
X160575721Y-89002542D01*
X160540007Y-88931114D01*
X160540007Y-88645400D01*
X158975364Y-85038257D02*
X159725364Y-85038257D01*
X159725364Y-85216828D01*
X159689650Y-85323971D01*
X159618221Y-85395400D01*
X159546792Y-85431114D01*
X159403935Y-85466828D01*
X159296792Y-85466828D01*
X159153935Y-85431114D01*
X159082507Y-85395400D01*
X159011078Y-85323971D01*
X158975364Y-85216828D01*
X158975364Y-85038257D01*
X159653935Y-85752542D02*
X159689650Y-85788257D01*
X159725364Y-85859685D01*
X159725364Y-86038257D01*
X159689650Y-86109685D01*
X159653935Y-86145400D01*
X159582507Y-86181114D01*
X159511078Y-86181114D01*
X159403935Y-86145400D01*
X158975364Y-85716828D01*
X158975364Y-86181114D01*
X159689650Y-87466828D02*
X159725364Y-87395400D01*
X159725364Y-87288257D01*
X159689650Y-87181114D01*
X159618221Y-87109685D01*
X159546792Y-87073971D01*
X159403935Y-87038257D01*
X159296792Y-87038257D01*
X159153935Y-87073971D01*
X159082507Y-87109685D01*
X159011078Y-87181114D01*
X158975364Y-87288257D01*
X158975364Y-87359685D01*
X159011078Y-87466828D01*
X159046792Y-87502542D01*
X159296792Y-87502542D01*
X159296792Y-87359685D01*
X158975364Y-87823971D02*
X159725364Y-87823971D01*
X158975364Y-88252542D01*
X159725364Y-88252542D01*
X158975364Y-88609685D02*
X159725364Y-88609685D01*
X159725364Y-88788257D01*
X159689650Y-88895400D01*
X159618221Y-88966828D01*
X159546792Y-89002542D01*
X159403935Y-89038257D01*
X159296792Y-89038257D01*
X159153935Y-89002542D01*
X159082507Y-88966828D01*
X159011078Y-88895400D01*
X158975364Y-88788257D01*
X158975364Y-88609685D01*
X179637190Y-100912857D02*
X179751476Y-100950952D01*
X179789571Y-100989047D01*
X179827666Y-101065238D01*
X179827666Y-101179523D01*
X179789571Y-101255714D01*
X179751476Y-101293809D01*
X179675285Y-101331904D01*
X179370523Y-101331904D01*
X179370523Y-100531904D01*
X179637190Y-100531904D01*
X179713380Y-100570000D01*
X179751476Y-100608095D01*
X179789571Y-100684285D01*
X179789571Y-100760476D01*
X179751476Y-100836666D01*
X179713380Y-100874761D01*
X179637190Y-100912857D01*
X179370523Y-100912857D01*
X180513380Y-100531904D02*
X180361000Y-100531904D01*
X180284809Y-100570000D01*
X180246714Y-100608095D01*
X180170523Y-100722380D01*
X180132428Y-100874761D01*
X180132428Y-101179523D01*
X180170523Y-101255714D01*
X180208619Y-101293809D01*
X180284809Y-101331904D01*
X180437190Y-101331904D01*
X180513380Y-101293809D01*
X180551476Y-101255714D01*
X180589571Y-101179523D01*
X180589571Y-100989047D01*
X180551476Y-100912857D01*
X180513380Y-100874761D01*
X180437190Y-100836666D01*
X180284809Y-100836666D01*
X180208619Y-100874761D01*
X180170523Y-100912857D01*
X180132428Y-100989047D01*
X168715190Y-98372857D02*
X168829476Y-98410952D01*
X168867571Y-98449047D01*
X168905666Y-98525238D01*
X168905666Y-98639523D01*
X168867571Y-98715714D01*
X168829476Y-98753809D01*
X168753285Y-98791904D01*
X168448523Y-98791904D01*
X168448523Y-97991904D01*
X168715190Y-97991904D01*
X168791380Y-98030000D01*
X168829476Y-98068095D01*
X168867571Y-98144285D01*
X168867571Y-98220476D01*
X168829476Y-98296666D01*
X168791380Y-98334761D01*
X168715190Y-98372857D01*
X168448523Y-98372857D01*
X169591380Y-98258571D02*
X169591380Y-98791904D01*
X169400904Y-97953809D02*
X169210428Y-98525238D01*
X169705666Y-98525238D01*
X168486619Y-95832857D02*
X168753285Y-95832857D01*
X168867571Y-96251904D02*
X168486619Y-96251904D01*
X168486619Y-95451904D01*
X168867571Y-95451904D01*
X169553285Y-95451904D02*
X169400904Y-95451904D01*
X169324714Y-95490000D01*
X169286619Y-95528095D01*
X169210428Y-95642380D01*
X169172333Y-95794761D01*
X169172333Y-96099523D01*
X169210428Y-96175714D01*
X169248523Y-96213809D01*
X169324714Y-96251904D01*
X169477095Y-96251904D01*
X169553285Y-96213809D01*
X169591380Y-96175714D01*
X169629476Y-96099523D01*
X169629476Y-95909047D01*
X169591380Y-95832857D01*
X169553285Y-95794761D01*
X169477095Y-95756666D01*
X169324714Y-95756666D01*
X169248523Y-95794761D01*
X169210428Y-95832857D01*
X169172333Y-95909047D01*
X179694333Y-88212857D02*
X179427666Y-88212857D01*
X179427666Y-88631904D02*
X179427666Y-87831904D01*
X179808619Y-87831904D01*
X180456238Y-87831904D02*
X180303857Y-87831904D01*
X180227666Y-87870000D01*
X180189571Y-87908095D01*
X180113380Y-88022380D01*
X180075285Y-88174761D01*
X180075285Y-88479523D01*
X180113380Y-88555714D01*
X180151476Y-88593809D01*
X180227666Y-88631904D01*
X180380047Y-88631904D01*
X180456238Y-88593809D01*
X180494333Y-88555714D01*
X180532428Y-88479523D01*
X180532428Y-88289047D01*
X180494333Y-88212857D01*
X180456238Y-88174761D01*
X180380047Y-88136666D01*
X180227666Y-88136666D01*
X180151476Y-88174761D01*
X180113380Y-88212857D01*
X180075285Y-88289047D01*
X168429476Y-77710000D02*
X168353285Y-77671904D01*
X168239000Y-77671904D01*
X168124714Y-77710000D01*
X168048523Y-77786190D01*
X168010428Y-77862380D01*
X167972333Y-78014761D01*
X167972333Y-78129047D01*
X168010428Y-78281428D01*
X168048523Y-78357619D01*
X168124714Y-78433809D01*
X168239000Y-78471904D01*
X168315190Y-78471904D01*
X168429476Y-78433809D01*
X168467571Y-78395714D01*
X168467571Y-78129047D01*
X168315190Y-78129047D01*
X168810428Y-78471904D02*
X168810428Y-77671904D01*
X169267571Y-78471904D01*
X169267571Y-77671904D01*
X169648523Y-78471904D02*
X169648523Y-77671904D01*
X169839000Y-77671904D01*
X169953285Y-77710000D01*
X170029476Y-77786190D01*
X170067571Y-77862380D01*
X170105666Y-78014761D01*
X170105666Y-78129047D01*
X170067571Y-78281428D01*
X170029476Y-78357619D01*
X169953285Y-78433809D01*
X169839000Y-78471904D01*
X169648523Y-78471904D01*
X179694333Y-85672857D02*
X179427666Y-85672857D01*
X179427666Y-86091904D02*
X179427666Y-85291904D01*
X179808619Y-85291904D01*
X180494333Y-85291904D02*
X180113380Y-85291904D01*
X180075285Y-85672857D01*
X180113380Y-85634761D01*
X180189571Y-85596666D01*
X180380047Y-85596666D01*
X180456238Y-85634761D01*
X180494333Y-85672857D01*
X180532428Y-85749047D01*
X180532428Y-85939523D01*
X180494333Y-86015714D01*
X180456238Y-86053809D01*
X180380047Y-86091904D01*
X180189571Y-86091904D01*
X180113380Y-86053809D01*
X180075285Y-86015714D01*
X168448523Y-86091904D02*
X168448523Y-85291904D01*
X168639000Y-85291904D01*
X168753285Y-85330000D01*
X168829476Y-85406190D01*
X168867571Y-85482380D01*
X168905666Y-85634761D01*
X168905666Y-85749047D01*
X168867571Y-85901428D01*
X168829476Y-85977619D01*
X168753285Y-86053809D01*
X168639000Y-86091904D01*
X168448523Y-86091904D01*
X169400904Y-85291904D02*
X169477095Y-85291904D01*
X169553285Y-85330000D01*
X169591380Y-85368095D01*
X169629476Y-85444285D01*
X169667571Y-85596666D01*
X169667571Y-85787142D01*
X169629476Y-85939523D01*
X169591380Y-86015714D01*
X169553285Y-86053809D01*
X169477095Y-86091904D01*
X169400904Y-86091904D01*
X169324714Y-86053809D01*
X169286619Y-86015714D01*
X169248523Y-85939523D01*
X169210428Y-85787142D01*
X169210428Y-85596666D01*
X169248523Y-85444285D01*
X169286619Y-85368095D01*
X169324714Y-85330000D01*
X169400904Y-85291904D01*
X168448523Y-75931904D02*
X168448523Y-75131904D01*
X168639000Y-75131904D01*
X168753285Y-75170000D01*
X168829476Y-75246190D01*
X168867571Y-75322380D01*
X168905666Y-75474761D01*
X168905666Y-75589047D01*
X168867571Y-75741428D01*
X168829476Y-75817619D01*
X168753285Y-75893809D01*
X168639000Y-75931904D01*
X168448523Y-75931904D01*
X169210428Y-75208095D02*
X169248523Y-75170000D01*
X169324714Y-75131904D01*
X169515190Y-75131904D01*
X169591380Y-75170000D01*
X169629476Y-75208095D01*
X169667571Y-75284285D01*
X169667571Y-75360476D01*
X169629476Y-75474761D01*
X169172333Y-75931904D01*
X169667571Y-75931904D01*
X179637190Y-98372857D02*
X179751476Y-98410952D01*
X179789571Y-98449047D01*
X179827666Y-98525238D01*
X179827666Y-98639523D01*
X179789571Y-98715714D01*
X179751476Y-98753809D01*
X179675285Y-98791904D01*
X179370523Y-98791904D01*
X179370523Y-97991904D01*
X179637190Y-97991904D01*
X179713380Y-98030000D01*
X179751476Y-98068095D01*
X179789571Y-98144285D01*
X179789571Y-98220476D01*
X179751476Y-98296666D01*
X179713380Y-98334761D01*
X179637190Y-98372857D01*
X179370523Y-98372857D01*
X180132428Y-98068095D02*
X180170523Y-98030000D01*
X180246714Y-97991904D01*
X180437190Y-97991904D01*
X180513380Y-98030000D01*
X180551476Y-98068095D01*
X180589571Y-98144285D01*
X180589571Y-98220476D01*
X180551476Y-98334761D01*
X180094333Y-98791904D01*
X180589571Y-98791904D01*
X168448523Y-93711904D02*
X168448523Y-92911904D01*
X168639000Y-92911904D01*
X168753285Y-92950000D01*
X168829476Y-93026190D01*
X168867571Y-93102380D01*
X168905666Y-93254761D01*
X168905666Y-93369047D01*
X168867571Y-93521428D01*
X168829476Y-93597619D01*
X168753285Y-93673809D01*
X168639000Y-93711904D01*
X168448523Y-93711904D01*
X169172333Y-92911904D02*
X169705666Y-92911904D01*
X169362809Y-93711904D01*
X179699786Y-78403809D02*
X179814072Y-78441904D01*
X180004548Y-78441904D01*
X180080739Y-78403809D01*
X180118834Y-78365714D01*
X180156929Y-78289523D01*
X180156929Y-78213333D01*
X180118834Y-78137142D01*
X180080739Y-78099047D01*
X180004548Y-78060952D01*
X179852167Y-78022857D01*
X179775977Y-77984761D01*
X179737881Y-77946666D01*
X179699786Y-77870476D01*
X179699786Y-77794285D01*
X179737881Y-77718095D01*
X179775977Y-77680000D01*
X179852167Y-77641904D01*
X180042643Y-77641904D01*
X180156929Y-77680000D01*
X180385500Y-77641904D02*
X180842643Y-77641904D01*
X180614072Y-78441904D02*
X180614072Y-77641904D01*
X168429476Y-80250000D02*
X168353285Y-80211904D01*
X168239000Y-80211904D01*
X168124714Y-80250000D01*
X168048523Y-80326190D01*
X168010428Y-80402380D01*
X167972333Y-80554761D01*
X167972333Y-80669047D01*
X168010428Y-80821428D01*
X168048523Y-80897619D01*
X168124714Y-80973809D01*
X168239000Y-81011904D01*
X168315190Y-81011904D01*
X168429476Y-80973809D01*
X168467571Y-80935714D01*
X168467571Y-80669047D01*
X168315190Y-80669047D01*
X168810428Y-81011904D02*
X168810428Y-80211904D01*
X169267571Y-81011904D01*
X169267571Y-80211904D01*
X169648523Y-81011904D02*
X169648523Y-80211904D01*
X169839000Y-80211904D01*
X169953285Y-80250000D01*
X170029476Y-80326190D01*
X170067571Y-80402380D01*
X170105666Y-80554761D01*
X170105666Y-80669047D01*
X170067571Y-80821428D01*
X170029476Y-80897619D01*
X169953285Y-80973809D01*
X169839000Y-81011904D01*
X169648523Y-81011904D01*
X179637190Y-95832857D02*
X179751476Y-95870952D01*
X179789571Y-95909047D01*
X179827666Y-95985238D01*
X179827666Y-96099523D01*
X179789571Y-96175714D01*
X179751476Y-96213809D01*
X179675285Y-96251904D01*
X179370523Y-96251904D01*
X179370523Y-95451904D01*
X179637190Y-95451904D01*
X179713380Y-95490000D01*
X179751476Y-95528095D01*
X179789571Y-95604285D01*
X179789571Y-95680476D01*
X179751476Y-95756666D01*
X179713380Y-95794761D01*
X179637190Y-95832857D01*
X179370523Y-95832857D01*
X180094333Y-95451904D02*
X180589571Y-95451904D01*
X180322904Y-95756666D01*
X180437190Y-95756666D01*
X180513380Y-95794761D01*
X180551476Y-95832857D01*
X180589571Y-95909047D01*
X180589571Y-96099523D01*
X180551476Y-96175714D01*
X180513380Y-96213809D01*
X180437190Y-96251904D01*
X180208619Y-96251904D01*
X180132428Y-96213809D01*
X180094333Y-96175714D01*
X168905666Y-91095714D02*
X168867571Y-91133809D01*
X168753285Y-91171904D01*
X168677095Y-91171904D01*
X168562809Y-91133809D01*
X168486619Y-91057619D01*
X168448523Y-90981428D01*
X168410428Y-90829047D01*
X168410428Y-90714761D01*
X168448523Y-90562380D01*
X168486619Y-90486190D01*
X168562809Y-90410000D01*
X168677095Y-90371904D01*
X168753285Y-90371904D01*
X168867571Y-90410000D01*
X168905666Y-90448095D01*
X169591380Y-90371904D02*
X169439000Y-90371904D01*
X169362809Y-90410000D01*
X169324714Y-90448095D01*
X169248523Y-90562380D01*
X169210428Y-90714761D01*
X169210428Y-91019523D01*
X169248523Y-91095714D01*
X169286619Y-91133809D01*
X169362809Y-91171904D01*
X169515190Y-91171904D01*
X169591380Y-91133809D01*
X169629476Y-91095714D01*
X169667571Y-91019523D01*
X169667571Y-90829047D01*
X169629476Y-90752857D01*
X169591380Y-90714761D01*
X169515190Y-90676666D01*
X169362809Y-90676666D01*
X169286619Y-90714761D01*
X169248523Y-90752857D01*
X169210428Y-90829047D01*
X179694333Y-90752857D02*
X179427666Y-90752857D01*
X179427666Y-91171904D02*
X179427666Y-90371904D01*
X179808619Y-90371904D01*
X180037190Y-90371904D02*
X180570523Y-90371904D01*
X180227666Y-91171904D01*
X168448523Y-83551904D02*
X168448523Y-82751904D01*
X168639000Y-82751904D01*
X168753285Y-82790000D01*
X168829476Y-82866190D01*
X168867571Y-82942380D01*
X168905666Y-83094761D01*
X168905666Y-83209047D01*
X168867571Y-83361428D01*
X168829476Y-83437619D01*
X168753285Y-83513809D01*
X168639000Y-83551904D01*
X168448523Y-83551904D01*
X169667571Y-83551904D02*
X169210428Y-83551904D01*
X169439000Y-83551904D02*
X169439000Y-82751904D01*
X169362809Y-82866190D01*
X169286619Y-82942380D01*
X169210428Y-82980476D01*
X179351476Y-75170000D02*
X179275285Y-75131904D01*
X179161000Y-75131904D01*
X179046714Y-75170000D01*
X178970523Y-75246190D01*
X178932428Y-75322380D01*
X178894333Y-75474761D01*
X178894333Y-75589047D01*
X178932428Y-75741428D01*
X178970523Y-75817619D01*
X179046714Y-75893809D01*
X179161000Y-75931904D01*
X179237190Y-75931904D01*
X179351476Y-75893809D01*
X179389571Y-75855714D01*
X179389571Y-75589047D01*
X179237190Y-75589047D01*
X179732428Y-75931904D02*
X179732428Y-75131904D01*
X180189571Y-75931904D01*
X180189571Y-75131904D01*
X180570523Y-75931904D02*
X180570523Y-75131904D01*
X180761000Y-75131904D01*
X180875285Y-75170000D01*
X180951476Y-75246190D01*
X180989571Y-75322380D01*
X181027666Y-75474761D01*
X181027666Y-75589047D01*
X180989571Y-75741428D01*
X180951476Y-75817619D01*
X180875285Y-75893809D01*
X180761000Y-75931904D01*
X180570523Y-75931904D01*
X179637190Y-93292857D02*
X179751476Y-93330952D01*
X179789571Y-93369047D01*
X179827666Y-93445238D01*
X179827666Y-93559523D01*
X179789571Y-93635714D01*
X179751476Y-93673809D01*
X179675285Y-93711904D01*
X179370523Y-93711904D01*
X179370523Y-92911904D01*
X179637190Y-92911904D01*
X179713380Y-92950000D01*
X179751476Y-92988095D01*
X179789571Y-93064285D01*
X179789571Y-93140476D01*
X179751476Y-93216666D01*
X179713380Y-93254761D01*
X179637190Y-93292857D01*
X179370523Y-93292857D01*
X180589571Y-93711904D02*
X180132428Y-93711904D01*
X180361000Y-93711904D02*
X180361000Y-92911904D01*
X180284809Y-93026190D01*
X180208619Y-93102380D01*
X180132428Y-93140476D01*
X168737651Y-72591904D02*
X169194794Y-72591904D01*
X168966223Y-73391904D02*
X168966223Y-72591904D01*
X169385270Y-72591904D02*
X169918604Y-73391904D01*
X169918604Y-72591904D02*
X169385270Y-73391904D01*
X170375747Y-72591904D02*
X170451937Y-72591904D01*
X170528128Y-72630000D01*
X170566223Y-72668095D01*
X170604318Y-72744285D01*
X170642413Y-72896666D01*
X170642413Y-73087142D01*
X170604318Y-73239523D01*
X170566223Y-73315714D01*
X170528128Y-73353809D01*
X170451937Y-73391904D01*
X170375747Y-73391904D01*
X170299556Y-73353809D01*
X170261461Y-73315714D01*
X170223366Y-73239523D01*
X170185270Y-73087142D01*
X170185270Y-72896666D01*
X170223366Y-72744285D01*
X170261461Y-72668095D01*
X170299556Y-72630000D01*
X170375747Y-72591904D01*
X171556699Y-72553809D02*
X170870985Y-73582380D01*
X171823366Y-73391904D02*
X171823366Y-72591904D01*
X172013842Y-72591904D01*
X172128128Y-72630000D01*
X172204318Y-72706190D01*
X172242413Y-72782380D01*
X172280508Y-72934761D01*
X172280508Y-73049047D01*
X172242413Y-73201428D01*
X172204318Y-73277619D01*
X172128128Y-73353809D01*
X172013842Y-73391904D01*
X171823366Y-73391904D01*
X172547175Y-72591904D02*
X173042413Y-72591904D01*
X172775747Y-72896666D01*
X172890032Y-72896666D01*
X172966223Y-72934761D01*
X173004318Y-72972857D01*
X173042413Y-73049047D01*
X173042413Y-73239523D01*
X173004318Y-73315714D01*
X172966223Y-73353809D01*
X172890032Y-73391904D01*
X172661461Y-73391904D01*
X172585270Y-73353809D01*
X172547175Y-73315714D01*
X168715190Y-100912857D02*
X168829476Y-100950952D01*
X168867571Y-100989047D01*
X168905666Y-101065238D01*
X168905666Y-101179523D01*
X168867571Y-101255714D01*
X168829476Y-101293809D01*
X168753285Y-101331904D01*
X168448523Y-101331904D01*
X168448523Y-100531904D01*
X168715190Y-100531904D01*
X168791380Y-100570000D01*
X168829476Y-100608095D01*
X168867571Y-100684285D01*
X168867571Y-100760476D01*
X168829476Y-100836666D01*
X168791380Y-100874761D01*
X168715190Y-100912857D01*
X168448523Y-100912857D01*
X169629476Y-100531904D02*
X169248523Y-100531904D01*
X169210428Y-100912857D01*
X169248523Y-100874761D01*
X169324714Y-100836666D01*
X169515190Y-100836666D01*
X169591380Y-100874761D01*
X169629476Y-100912857D01*
X169667571Y-100989047D01*
X169667571Y-101179523D01*
X169629476Y-101255714D01*
X169591380Y-101293809D01*
X169515190Y-101331904D01*
X169324714Y-101331904D01*
X169248523Y-101293809D01*
X169210428Y-101255714D01*
X179408619Y-73391904D02*
X179141952Y-73010952D01*
X178951476Y-73391904D02*
X178951476Y-72591904D01*
X179256238Y-72591904D01*
X179332428Y-72630000D01*
X179370523Y-72668095D01*
X179408619Y-72744285D01*
X179408619Y-72858571D01*
X179370523Y-72934761D01*
X179332428Y-72972857D01*
X179256238Y-73010952D01*
X178951476Y-73010952D01*
X179713380Y-73163333D02*
X180094333Y-73163333D01*
X179637190Y-73391904D02*
X179903857Y-72591904D01*
X180170523Y-73391904D01*
X180361000Y-72591904D02*
X180551476Y-73391904D01*
X180703857Y-72820476D01*
X180856238Y-73391904D01*
X181046714Y-72591904D01*
X168448523Y-88631904D02*
X168448523Y-87831904D01*
X168639000Y-87831904D01*
X168753285Y-87870000D01*
X168829476Y-87946190D01*
X168867571Y-88022380D01*
X168905666Y-88174761D01*
X168905666Y-88289047D01*
X168867571Y-88441428D01*
X168829476Y-88517619D01*
X168753285Y-88593809D01*
X168639000Y-88631904D01*
X168448523Y-88631904D01*
X169591380Y-88098571D02*
X169591380Y-88631904D01*
X169400904Y-87793809D02*
X169210428Y-88365238D01*
X169705666Y-88365238D01*
X179694333Y-83132857D02*
X179427666Y-83132857D01*
X179427666Y-83551904D02*
X179427666Y-82751904D01*
X179808619Y-82751904D01*
X180456238Y-83018571D02*
X180456238Y-83551904D01*
X180265761Y-82713809D02*
X180075285Y-83285238D01*
X180570523Y-83285238D01*
X178894333Y-80211904D02*
X179161000Y-81011904D01*
X179427666Y-80211904D01*
X180151476Y-80935714D02*
X180113380Y-80973809D01*
X179999095Y-81011904D01*
X179922904Y-81011904D01*
X179808619Y-80973809D01*
X179732428Y-80897619D01*
X179694333Y-80821428D01*
X179656238Y-80669047D01*
X179656238Y-80554761D01*
X179694333Y-80402380D01*
X179732428Y-80326190D01*
X179808619Y-80250000D01*
X179922904Y-80211904D01*
X179999095Y-80211904D01*
X180113380Y-80250000D01*
X180151476Y-80288095D01*
X180951476Y-80935714D02*
X180913380Y-80973809D01*
X180799095Y-81011904D01*
X180722904Y-81011904D01*
X180608619Y-80973809D01*
X180532428Y-80897619D01*
X180494333Y-80821428D01*
X180456238Y-80669047D01*
X180456238Y-80554761D01*
X180494333Y-80402380D01*
X180532428Y-80326190D01*
X180608619Y-80250000D01*
X180722904Y-80211904D01*
X180799095Y-80211904D01*
X180913380Y-80250000D01*
X180951476Y-80288095D01*
D12*
X183390000Y-69220000D02*
X165610000Y-69220000D01*
X168150000Y-71760000D02*
X168150000Y-74300000D01*
X168150000Y-71760000D02*
X165610000Y-71760000D01*
X168150000Y-74300000D02*
X165610000Y-74300000D01*
X183390000Y-71760000D02*
X183390000Y-69220000D01*
X183390000Y-102240000D02*
X183390000Y-71760000D01*
X165610000Y-102240000D02*
X183390000Y-102240000D01*
X165610000Y-71760000D02*
X165610000Y-102240000D01*
X165610000Y-69220000D02*
X165610000Y-71760000D01*
G36*
X179231568Y-78139360D02*
G01*
X179131568Y-78139360D01*
X179131568Y-78039360D01*
X179231568Y-78039360D01*
X179231568Y-78139360D01*
G37*
D10*
X179231568Y-78139360D02*
X179131568Y-78139360D01*
X179131568Y-78039360D01*
X179231568Y-78039360D01*
X179231568Y-78139360D01*
G36*
X179031568Y-78439360D02*
G01*
X178931568Y-78439360D01*
X178931568Y-77639360D01*
X179031568Y-77639360D01*
X179031568Y-78439360D01*
G37*
X179031568Y-78439360D02*
X178931568Y-78439360D01*
X178931568Y-77639360D01*
X179031568Y-77639360D01*
X179031568Y-78439360D01*
G36*
X179431568Y-77939360D02*
G01*
X179331568Y-77939360D01*
X179331568Y-77639360D01*
X179431568Y-77639360D01*
X179431568Y-77939360D01*
G37*
X179431568Y-77939360D02*
X179331568Y-77939360D01*
X179331568Y-77639360D01*
X179431568Y-77639360D01*
X179431568Y-77939360D01*
G36*
X179431568Y-77739360D02*
G01*
X178931568Y-77739360D01*
X178931568Y-77639360D01*
X179431568Y-77639360D01*
X179431568Y-77739360D01*
G37*
X179431568Y-77739360D02*
X178931568Y-77739360D01*
X178931568Y-77639360D01*
X179431568Y-77639360D01*
X179431568Y-77739360D01*
G36*
X179431568Y-78439360D02*
G01*
X179331568Y-78439360D01*
X179331568Y-78239360D01*
X179431568Y-78239360D01*
X179431568Y-78439360D01*
G37*
X179431568Y-78439360D02*
X179331568Y-78439360D01*
X179331568Y-78239360D01*
X179431568Y-78239360D01*
X179431568Y-78439360D01*
D13*
X161793000Y-108779000D02*
X189793000Y-108779000D01*
X159193000Y-111439000D02*
X159193000Y-110109000D01*
X161793000Y-111439000D02*
X189793000Y-111439000D01*
X160523000Y-111439000D02*
X159193000Y-111439000D01*
X189793000Y-111439000D02*
X189793000Y-108779000D01*
X161793000Y-111439000D02*
X161793000Y-108779000D01*
X187766000Y-102361200D02*
X186436000Y-102361200D01*
X187766000Y-101031200D02*
X187766000Y-102361200D01*
X187766000Y-99761200D02*
X187766000Y-79381200D01*
X187766000Y-99761200D02*
X185106000Y-99761200D01*
X185106000Y-99761200D02*
X185106000Y-79381200D01*
X187766000Y-79381200D02*
X185106000Y-79381200D01*
X163890000Y-92049600D02*
X161230000Y-92049600D01*
X163890000Y-94649600D02*
X162560000Y-94649600D01*
X163890000Y-93319600D02*
X163890000Y-94649600D01*
X163890000Y-92049600D02*
X163890000Y-79289600D01*
X163890000Y-79289600D02*
X161230000Y-79289600D01*
X161230000Y-92049600D02*
X161230000Y-79289600D01*
X171228000Y-103786000D02*
X171228000Y-106526000D01*
X181078000Y-105156000D02*
X177768000Y-105156000D01*
X167918000Y-105156000D02*
X171228000Y-105156000D01*
X171228000Y-106526000D02*
X177768000Y-106526000D01*
X177768000Y-106526000D02*
X177768000Y-103786000D01*
X177768000Y-103786000D02*
X171228000Y-103786000D01*
D14*
X166880000Y-73030000D03*
D15*
X166880000Y-75570000D03*
X166880000Y-78110000D03*
X166880000Y-80650000D03*
X166880000Y-83190000D03*
X166880000Y-85730000D03*
X166880000Y-88270000D03*
X166880000Y-90810000D03*
X166880000Y-93350000D03*
X166880000Y-95890000D03*
X166880000Y-98430000D03*
X166880000Y-100970000D03*
X182120000Y-100970000D03*
X182120000Y-98430000D03*
X182120000Y-95890000D03*
X182120000Y-93350000D03*
X182120000Y-90810000D03*
X182120000Y-88270000D03*
X182120000Y-85730000D03*
X182120000Y-83190000D03*
X182120000Y-80650000D03*
X182120000Y-78110000D03*
X182120000Y-75570000D03*
X182120000Y-73030000D03*
M02*
