G04 #@! TF.GenerationSoftware,KiCad,Pcbnew,(5.1.10-1-10_14)*
G04 #@! TF.CreationDate,2021-06-05T23:42:15+02:00*
G04 #@! TF.ProjectId,pro_micro_shield,70726f5f-6d69-4637-926f-5f736869656c,rev?*
G04 #@! TF.SameCoordinates,Original*
G04 #@! TF.FileFunction,Copper,L2,Bot*
G04 #@! TF.FilePolarity,Positive*
%FSLAX46Y46*%
G04 Gerber Fmt 4.6, Leading zero omitted, Abs format (unit mm)*
G04 Created by KiCad (PCBNEW (5.1.10-1-10_14)) date 2021-06-05 23:42:15*
%MOMM*%
%LPD*%
G01*
G04 APERTURE LIST*
G04 #@! TA.AperFunction,ComponentPad*
%ADD10O,1.700000X1.700000*%
G04 #@! TD*
G04 #@! TA.AperFunction,ComponentPad*
%ADD11R,1.700000X1.700000*%
G04 #@! TD*
G04 #@! TA.AperFunction,ComponentPad*
%ADD12O,1.600000X1.600000*%
G04 #@! TD*
G04 #@! TA.AperFunction,ComponentPad*
%ADD13C,1.600000*%
G04 #@! TD*
G04 #@! TA.AperFunction,ComponentPad*
%ADD14C,1.752600*%
G04 #@! TD*
G04 #@! TA.AperFunction,ComponentPad*
%ADD15R,1.752600X1.752600*%
G04 #@! TD*
G04 #@! TA.AperFunction,Conductor*
%ADD16C,0.250000*%
G04 #@! TD*
G04 #@! TA.AperFunction,Conductor*
%ADD17C,0.254000*%
G04 #@! TD*
G04 #@! TA.AperFunction,Conductor*
%ADD18C,0.100000*%
G04 #@! TD*
G04 APERTURE END LIST*
D10*
X160655000Y-90551000D03*
D11*
X160655000Y-88011000D03*
D10*
X188468000Y-96774000D03*
X188468000Y-99314000D03*
D11*
X188468000Y-101854000D03*
D10*
X188468000Y-88011000D03*
X188468000Y-90551000D03*
D11*
X188468000Y-93091000D03*
D10*
X188468000Y-79248000D03*
X188468000Y-81788000D03*
D11*
X188468000Y-84328000D03*
D10*
X178435000Y-109601000D03*
X175895000Y-109601000D03*
D11*
X173355000Y-109601000D03*
D10*
X169672000Y-109601000D03*
X167132000Y-109601000D03*
D11*
X164592000Y-109601000D03*
D10*
X184658000Y-109601000D03*
D11*
X182118000Y-109601000D03*
D10*
X160655000Y-84328000D03*
X160655000Y-81788000D03*
D11*
X160655000Y-79248000D03*
D10*
X160655000Y-96901000D03*
D11*
X160655000Y-94361000D03*
D12*
X178308000Y-104140000D03*
D13*
X170688000Y-104140000D03*
D14*
X182120000Y-73030000D03*
X166880000Y-100970000D03*
X182120000Y-75570000D03*
X182120000Y-78110000D03*
X182120000Y-80650000D03*
X182120000Y-83190000D03*
X182120000Y-85730000D03*
X182120000Y-88270000D03*
X182120000Y-90810000D03*
X182120000Y-93350000D03*
X182120000Y-95890000D03*
X182120000Y-98430000D03*
X182120000Y-100970000D03*
X166880000Y-98430000D03*
X166880000Y-95890000D03*
X166880000Y-93350000D03*
X166880000Y-90810000D03*
X166880000Y-88270000D03*
X166880000Y-85730000D03*
X166880000Y-83190000D03*
X166880000Y-80650000D03*
X166880000Y-78110000D03*
X166880000Y-75570000D03*
D15*
X166880000Y-73030000D03*
D16*
X162938000Y-84328000D02*
X166880000Y-88270000D01*
X160655000Y-84328000D02*
X162938000Y-84328000D01*
X168402000Y-108331000D02*
X168402000Y-87252000D01*
X168402000Y-87252000D02*
X166880000Y-85730000D01*
X167132000Y-109601000D02*
X168402000Y-108331000D01*
D17*
X191090001Y-73217572D02*
X191090000Y-73217582D01*
X191090001Y-115467572D01*
X191090000Y-115467582D01*
X191090000Y-115840000D01*
X157910000Y-115840000D01*
X157910000Y-102579117D01*
X158765000Y-102579117D01*
X158765000Y-102920883D01*
X158831675Y-103256081D01*
X158962463Y-103571831D01*
X159152337Y-103855998D01*
X159394002Y-104097663D01*
X159678169Y-104287537D01*
X159993919Y-104418325D01*
X160329117Y-104485000D01*
X160670883Y-104485000D01*
X161006081Y-104418325D01*
X161321831Y-104287537D01*
X161605998Y-104097663D01*
X161847663Y-103855998D01*
X162037537Y-103571831D01*
X162168325Y-103256081D01*
X162235000Y-102920883D01*
X162235000Y-102579117D01*
X162168325Y-102243919D01*
X162037537Y-101928169D01*
X161847663Y-101644002D01*
X161605998Y-101402337D01*
X161321831Y-101212463D01*
X161006081Y-101081675D01*
X160670883Y-101015000D01*
X160329117Y-101015000D01*
X159993919Y-101081675D01*
X159678169Y-101212463D01*
X159394002Y-101402337D01*
X159152337Y-101644002D01*
X158962463Y-101928169D01*
X158831675Y-102243919D01*
X158765000Y-102579117D01*
X157910000Y-102579117D01*
X157910000Y-95211000D01*
X159166928Y-95211000D01*
X159179188Y-95335482D01*
X159215498Y-95455180D01*
X159274463Y-95565494D01*
X159353815Y-95662185D01*
X159450506Y-95741537D01*
X159560820Y-95800502D01*
X159633380Y-95822513D01*
X159501525Y-95954368D01*
X159339010Y-96197589D01*
X159227068Y-96467842D01*
X159170000Y-96754740D01*
X159170000Y-97047260D01*
X159227068Y-97334158D01*
X159339010Y-97604411D01*
X159501525Y-97847632D01*
X159708368Y-98054475D01*
X159951589Y-98216990D01*
X160221842Y-98328932D01*
X160508740Y-98386000D01*
X160801260Y-98386000D01*
X161088158Y-98328932D01*
X161358411Y-98216990D01*
X161601632Y-98054475D01*
X161808475Y-97847632D01*
X161970990Y-97604411D01*
X162082932Y-97334158D01*
X162140000Y-97047260D01*
X162140000Y-96754740D01*
X162082932Y-96467842D01*
X161970990Y-96197589D01*
X161808475Y-95954368D01*
X161676620Y-95822513D01*
X161749180Y-95800502D01*
X161859494Y-95741537D01*
X161956185Y-95662185D01*
X162035537Y-95565494D01*
X162094502Y-95455180D01*
X162130812Y-95335482D01*
X162143072Y-95211000D01*
X162140000Y-94646750D01*
X161981250Y-94488000D01*
X160782000Y-94488000D01*
X160782000Y-94508000D01*
X160528000Y-94508000D01*
X160528000Y-94488000D01*
X159328750Y-94488000D01*
X159170000Y-94646750D01*
X159166928Y-95211000D01*
X157910000Y-95211000D01*
X157910000Y-93511000D01*
X159166928Y-93511000D01*
X159170000Y-94075250D01*
X159328750Y-94234000D01*
X160528000Y-94234000D01*
X160528000Y-93034750D01*
X160782000Y-93034750D01*
X160782000Y-94234000D01*
X161981250Y-94234000D01*
X162140000Y-94075250D01*
X162143072Y-93511000D01*
X162130812Y-93386518D01*
X162094502Y-93266820D01*
X162035537Y-93156506D01*
X161956185Y-93059815D01*
X161859494Y-92980463D01*
X161749180Y-92921498D01*
X161629482Y-92885188D01*
X161505000Y-92872928D01*
X160940750Y-92876000D01*
X160782000Y-93034750D01*
X160528000Y-93034750D01*
X160369250Y-92876000D01*
X159805000Y-92872928D01*
X159680518Y-92885188D01*
X159560820Y-92921498D01*
X159450506Y-92980463D01*
X159353815Y-93059815D01*
X159274463Y-93156506D01*
X159215498Y-93266820D01*
X159179188Y-93386518D01*
X159166928Y-93511000D01*
X157910000Y-93511000D01*
X157910000Y-87161000D01*
X159166928Y-87161000D01*
X159166928Y-88861000D01*
X159179188Y-88985482D01*
X159215498Y-89105180D01*
X159274463Y-89215494D01*
X159353815Y-89312185D01*
X159450506Y-89391537D01*
X159560820Y-89450502D01*
X159633380Y-89472513D01*
X159501525Y-89604368D01*
X159339010Y-89847589D01*
X159227068Y-90117842D01*
X159170000Y-90404740D01*
X159170000Y-90697260D01*
X159227068Y-90984158D01*
X159339010Y-91254411D01*
X159501525Y-91497632D01*
X159708368Y-91704475D01*
X159951589Y-91866990D01*
X160221842Y-91978932D01*
X160508740Y-92036000D01*
X160801260Y-92036000D01*
X161088158Y-91978932D01*
X161358411Y-91866990D01*
X161601632Y-91704475D01*
X161808475Y-91497632D01*
X161970990Y-91254411D01*
X162082932Y-90984158D01*
X162140000Y-90697260D01*
X162140000Y-90404740D01*
X162082932Y-90117842D01*
X161970990Y-89847589D01*
X161808475Y-89604368D01*
X161676620Y-89472513D01*
X161749180Y-89450502D01*
X161859494Y-89391537D01*
X161956185Y-89312185D01*
X162035537Y-89215494D01*
X162094502Y-89105180D01*
X162130812Y-88985482D01*
X162143072Y-88861000D01*
X162143072Y-87161000D01*
X162130812Y-87036518D01*
X162094502Y-86916820D01*
X162035537Y-86806506D01*
X161956185Y-86709815D01*
X161859494Y-86630463D01*
X161749180Y-86571498D01*
X161629482Y-86535188D01*
X161505000Y-86522928D01*
X159805000Y-86522928D01*
X159680518Y-86535188D01*
X159560820Y-86571498D01*
X159450506Y-86630463D01*
X159353815Y-86709815D01*
X159274463Y-86806506D01*
X159215498Y-86916820D01*
X159179188Y-87036518D01*
X159166928Y-87161000D01*
X157910000Y-87161000D01*
X157910000Y-80098000D01*
X159166928Y-80098000D01*
X159179188Y-80222482D01*
X159215498Y-80342180D01*
X159274463Y-80452494D01*
X159353815Y-80549185D01*
X159450506Y-80628537D01*
X159560820Y-80687502D01*
X159633380Y-80709513D01*
X159501525Y-80841368D01*
X159339010Y-81084589D01*
X159227068Y-81354842D01*
X159170000Y-81641740D01*
X159170000Y-81934260D01*
X159227068Y-82221158D01*
X159339010Y-82491411D01*
X159501525Y-82734632D01*
X159708368Y-82941475D01*
X159882760Y-83058000D01*
X159708368Y-83174525D01*
X159501525Y-83381368D01*
X159339010Y-83624589D01*
X159227068Y-83894842D01*
X159170000Y-84181740D01*
X159170000Y-84474260D01*
X159227068Y-84761158D01*
X159339010Y-85031411D01*
X159501525Y-85274632D01*
X159708368Y-85481475D01*
X159951589Y-85643990D01*
X160221842Y-85755932D01*
X160508740Y-85813000D01*
X160801260Y-85813000D01*
X161088158Y-85755932D01*
X161358411Y-85643990D01*
X161601632Y-85481475D01*
X161808475Y-85274632D01*
X161933178Y-85088000D01*
X162623199Y-85088000D01*
X165416424Y-87881225D01*
X165368700Y-88121150D01*
X165368700Y-88418850D01*
X165426778Y-88710830D01*
X165540703Y-88985869D01*
X165706096Y-89233398D01*
X165916602Y-89443904D01*
X166060420Y-89540000D01*
X165916602Y-89636096D01*
X165706096Y-89846602D01*
X165540703Y-90094131D01*
X165426778Y-90369170D01*
X165368700Y-90661150D01*
X165368700Y-90958850D01*
X165426778Y-91250830D01*
X165540703Y-91525869D01*
X165706096Y-91773398D01*
X165916602Y-91983904D01*
X166060420Y-92080000D01*
X165916602Y-92176096D01*
X165706096Y-92386602D01*
X165540703Y-92634131D01*
X165426778Y-92909170D01*
X165368700Y-93201150D01*
X165368700Y-93498850D01*
X165426778Y-93790830D01*
X165540703Y-94065869D01*
X165706096Y-94313398D01*
X165916602Y-94523904D01*
X166060420Y-94620000D01*
X165916602Y-94716096D01*
X165706096Y-94926602D01*
X165540703Y-95174131D01*
X165426778Y-95449170D01*
X165368700Y-95741150D01*
X165368700Y-96038850D01*
X165426778Y-96330830D01*
X165540703Y-96605869D01*
X165706096Y-96853398D01*
X165916602Y-97063904D01*
X166060420Y-97160000D01*
X165916602Y-97256096D01*
X165706096Y-97466602D01*
X165540703Y-97714131D01*
X165426778Y-97989170D01*
X165368700Y-98281150D01*
X165368700Y-98578850D01*
X165426778Y-98870830D01*
X165540703Y-99145869D01*
X165706096Y-99393398D01*
X165916602Y-99603904D01*
X166060420Y-99700000D01*
X165916602Y-99796096D01*
X165706096Y-100006602D01*
X165540703Y-100254131D01*
X165426778Y-100529170D01*
X165368700Y-100821150D01*
X165368700Y-101118850D01*
X165426778Y-101410830D01*
X165540703Y-101685869D01*
X165706096Y-101933398D01*
X165916602Y-102143904D01*
X166164131Y-102309297D01*
X166439170Y-102423222D01*
X166731150Y-102481300D01*
X167028850Y-102481300D01*
X167320830Y-102423222D01*
X167595869Y-102309297D01*
X167642000Y-102278473D01*
X167642000Y-108016198D01*
X167498408Y-108159790D01*
X167278260Y-108116000D01*
X166985740Y-108116000D01*
X166698842Y-108173068D01*
X166428589Y-108285010D01*
X166185368Y-108447525D01*
X166053513Y-108579380D01*
X166031502Y-108506820D01*
X165972537Y-108396506D01*
X165893185Y-108299815D01*
X165796494Y-108220463D01*
X165686180Y-108161498D01*
X165566482Y-108125188D01*
X165442000Y-108112928D01*
X163742000Y-108112928D01*
X163617518Y-108125188D01*
X163497820Y-108161498D01*
X163387506Y-108220463D01*
X163290815Y-108299815D01*
X163211463Y-108396506D01*
X163152498Y-108506820D01*
X163116188Y-108626518D01*
X163103928Y-108751000D01*
X163103928Y-110451000D01*
X163116188Y-110575482D01*
X163152498Y-110695180D01*
X163211463Y-110805494D01*
X163290815Y-110902185D01*
X163387506Y-110981537D01*
X163497820Y-111040502D01*
X163617518Y-111076812D01*
X163742000Y-111089072D01*
X165442000Y-111089072D01*
X165566482Y-111076812D01*
X165686180Y-111040502D01*
X165796494Y-110981537D01*
X165893185Y-110902185D01*
X165972537Y-110805494D01*
X166031502Y-110695180D01*
X166053513Y-110622620D01*
X166185368Y-110754475D01*
X166428589Y-110916990D01*
X166698842Y-111028932D01*
X166985740Y-111086000D01*
X167278260Y-111086000D01*
X167565158Y-111028932D01*
X167835411Y-110916990D01*
X168078632Y-110754475D01*
X168285475Y-110547632D01*
X168407195Y-110365466D01*
X168476822Y-110482355D01*
X168671731Y-110698588D01*
X168905080Y-110872641D01*
X169167901Y-110997825D01*
X169315110Y-111042476D01*
X169545000Y-110921155D01*
X169545000Y-109728000D01*
X169799000Y-109728000D01*
X169799000Y-110921155D01*
X170028890Y-111042476D01*
X170176099Y-110997825D01*
X170438920Y-110872641D01*
X170672269Y-110698588D01*
X170867178Y-110482355D01*
X171016157Y-110232252D01*
X171113481Y-109957891D01*
X170992814Y-109728000D01*
X169799000Y-109728000D01*
X169545000Y-109728000D01*
X169525000Y-109728000D01*
X169525000Y-109474000D01*
X169545000Y-109474000D01*
X169545000Y-108280845D01*
X169799000Y-108280845D01*
X169799000Y-109474000D01*
X170992814Y-109474000D01*
X171113481Y-109244109D01*
X171016157Y-108969748D01*
X170885856Y-108751000D01*
X171866928Y-108751000D01*
X171866928Y-110451000D01*
X171879188Y-110575482D01*
X171915498Y-110695180D01*
X171974463Y-110805494D01*
X172053815Y-110902185D01*
X172150506Y-110981537D01*
X172260820Y-111040502D01*
X172380518Y-111076812D01*
X172505000Y-111089072D01*
X174205000Y-111089072D01*
X174329482Y-111076812D01*
X174449180Y-111040502D01*
X174559494Y-110981537D01*
X174656185Y-110902185D01*
X174735537Y-110805494D01*
X174794502Y-110695180D01*
X174816513Y-110622620D01*
X174948368Y-110754475D01*
X175191589Y-110916990D01*
X175461842Y-111028932D01*
X175748740Y-111086000D01*
X176041260Y-111086000D01*
X176328158Y-111028932D01*
X176598411Y-110916990D01*
X176841632Y-110754475D01*
X177048475Y-110547632D01*
X177170195Y-110365466D01*
X177239822Y-110482355D01*
X177434731Y-110698588D01*
X177668080Y-110872641D01*
X177930901Y-110997825D01*
X178078110Y-111042476D01*
X178308000Y-110921155D01*
X178308000Y-109728000D01*
X178562000Y-109728000D01*
X178562000Y-110921155D01*
X178791890Y-111042476D01*
X178939099Y-110997825D01*
X179201920Y-110872641D01*
X179435269Y-110698588D01*
X179630178Y-110482355D01*
X179779157Y-110232252D01*
X179876481Y-109957891D01*
X179755814Y-109728000D01*
X178562000Y-109728000D01*
X178308000Y-109728000D01*
X178288000Y-109728000D01*
X178288000Y-109474000D01*
X178308000Y-109474000D01*
X178308000Y-108280845D01*
X178562000Y-108280845D01*
X178562000Y-109474000D01*
X179755814Y-109474000D01*
X179876481Y-109244109D01*
X179779157Y-108969748D01*
X179648856Y-108751000D01*
X180629928Y-108751000D01*
X180629928Y-110451000D01*
X180642188Y-110575482D01*
X180678498Y-110695180D01*
X180737463Y-110805494D01*
X180816815Y-110902185D01*
X180913506Y-110981537D01*
X181023820Y-111040502D01*
X181143518Y-111076812D01*
X181268000Y-111089072D01*
X182968000Y-111089072D01*
X183092482Y-111076812D01*
X183212180Y-111040502D01*
X183322494Y-110981537D01*
X183419185Y-110902185D01*
X183498537Y-110805494D01*
X183557502Y-110695180D01*
X183581966Y-110614534D01*
X183657731Y-110698588D01*
X183891080Y-110872641D01*
X184153901Y-110997825D01*
X184301110Y-111042476D01*
X184531000Y-110921155D01*
X184531000Y-109728000D01*
X184785000Y-109728000D01*
X184785000Y-110921155D01*
X185014890Y-111042476D01*
X185162099Y-110997825D01*
X185424920Y-110872641D01*
X185658269Y-110698588D01*
X185853178Y-110482355D01*
X186002157Y-110232252D01*
X186099481Y-109957891D01*
X185978814Y-109728000D01*
X184785000Y-109728000D01*
X184531000Y-109728000D01*
X184511000Y-109728000D01*
X184511000Y-109474000D01*
X184531000Y-109474000D01*
X184531000Y-108280845D01*
X184785000Y-108280845D01*
X184785000Y-109474000D01*
X185978814Y-109474000D01*
X186099481Y-109244109D01*
X186002157Y-108969748D01*
X185853178Y-108719645D01*
X185658269Y-108503412D01*
X185424920Y-108329359D01*
X185162099Y-108204175D01*
X185014890Y-108159524D01*
X184785000Y-108280845D01*
X184531000Y-108280845D01*
X184301110Y-108159524D01*
X184153901Y-108204175D01*
X183891080Y-108329359D01*
X183657731Y-108503412D01*
X183581966Y-108587466D01*
X183557502Y-108506820D01*
X183498537Y-108396506D01*
X183419185Y-108299815D01*
X183322494Y-108220463D01*
X183212180Y-108161498D01*
X183092482Y-108125188D01*
X182968000Y-108112928D01*
X181268000Y-108112928D01*
X181143518Y-108125188D01*
X181023820Y-108161498D01*
X180913506Y-108220463D01*
X180816815Y-108299815D01*
X180737463Y-108396506D01*
X180678498Y-108506820D01*
X180642188Y-108626518D01*
X180629928Y-108751000D01*
X179648856Y-108751000D01*
X179630178Y-108719645D01*
X179435269Y-108503412D01*
X179201920Y-108329359D01*
X178939099Y-108204175D01*
X178791890Y-108159524D01*
X178562000Y-108280845D01*
X178308000Y-108280845D01*
X178078110Y-108159524D01*
X177930901Y-108204175D01*
X177668080Y-108329359D01*
X177434731Y-108503412D01*
X177239822Y-108719645D01*
X177170195Y-108836534D01*
X177048475Y-108654368D01*
X176841632Y-108447525D01*
X176598411Y-108285010D01*
X176328158Y-108173068D01*
X176041260Y-108116000D01*
X175748740Y-108116000D01*
X175461842Y-108173068D01*
X175191589Y-108285010D01*
X174948368Y-108447525D01*
X174816513Y-108579380D01*
X174794502Y-108506820D01*
X174735537Y-108396506D01*
X174656185Y-108299815D01*
X174559494Y-108220463D01*
X174449180Y-108161498D01*
X174329482Y-108125188D01*
X174205000Y-108112928D01*
X172505000Y-108112928D01*
X172380518Y-108125188D01*
X172260820Y-108161498D01*
X172150506Y-108220463D01*
X172053815Y-108299815D01*
X171974463Y-108396506D01*
X171915498Y-108506820D01*
X171879188Y-108626518D01*
X171866928Y-108751000D01*
X170885856Y-108751000D01*
X170867178Y-108719645D01*
X170672269Y-108503412D01*
X170438920Y-108329359D01*
X170176099Y-108204175D01*
X170028890Y-108159524D01*
X169799000Y-108280845D01*
X169545000Y-108280845D01*
X169315110Y-108159524D01*
X169167901Y-108204175D01*
X169162000Y-108206986D01*
X169162000Y-103998665D01*
X169253000Y-103998665D01*
X169253000Y-104281335D01*
X169308147Y-104558574D01*
X169416320Y-104819727D01*
X169573363Y-105054759D01*
X169773241Y-105254637D01*
X170008273Y-105411680D01*
X170269426Y-105519853D01*
X170546665Y-105575000D01*
X170829335Y-105575000D01*
X171106574Y-105519853D01*
X171367727Y-105411680D01*
X171602759Y-105254637D01*
X171802637Y-105054759D01*
X171959680Y-104819727D01*
X172067853Y-104558574D01*
X172123000Y-104281335D01*
X172123000Y-103998665D01*
X176873000Y-103998665D01*
X176873000Y-104281335D01*
X176928147Y-104558574D01*
X177036320Y-104819727D01*
X177193363Y-105054759D01*
X177393241Y-105254637D01*
X177628273Y-105411680D01*
X177889426Y-105519853D01*
X178166665Y-105575000D01*
X178449335Y-105575000D01*
X178726574Y-105519853D01*
X178987727Y-105411680D01*
X179222759Y-105254637D01*
X179422637Y-105054759D01*
X179579680Y-104819727D01*
X179687853Y-104558574D01*
X179743000Y-104281335D01*
X179743000Y-103998665D01*
X179687853Y-103721426D01*
X179579680Y-103460273D01*
X179422637Y-103225241D01*
X179222759Y-103025363D01*
X178987727Y-102868320D01*
X178726574Y-102760147D01*
X178449335Y-102705000D01*
X178166665Y-102705000D01*
X177889426Y-102760147D01*
X177628273Y-102868320D01*
X177393241Y-103025363D01*
X177193363Y-103225241D01*
X177036320Y-103460273D01*
X176928147Y-103721426D01*
X176873000Y-103998665D01*
X172123000Y-103998665D01*
X172067853Y-103721426D01*
X171959680Y-103460273D01*
X171802637Y-103225241D01*
X171602759Y-103025363D01*
X171367727Y-102868320D01*
X171106574Y-102760147D01*
X170829335Y-102705000D01*
X170546665Y-102705000D01*
X170269426Y-102760147D01*
X170008273Y-102868320D01*
X169773241Y-103025363D01*
X169573363Y-103225241D01*
X169416320Y-103460273D01*
X169308147Y-103721426D01*
X169253000Y-103998665D01*
X169162000Y-103998665D01*
X169162000Y-102704000D01*
X186979928Y-102704000D01*
X186992188Y-102828482D01*
X187028498Y-102948180D01*
X187087463Y-103058494D01*
X187166815Y-103155185D01*
X187263506Y-103234537D01*
X187373820Y-103293502D01*
X187493518Y-103329812D01*
X187618000Y-103342072D01*
X188182250Y-103339000D01*
X188341000Y-103180250D01*
X188341000Y-101981000D01*
X188595000Y-101981000D01*
X188595000Y-103180250D01*
X188753750Y-103339000D01*
X189318000Y-103342072D01*
X189442482Y-103329812D01*
X189562180Y-103293502D01*
X189672494Y-103234537D01*
X189769185Y-103155185D01*
X189848537Y-103058494D01*
X189907502Y-102948180D01*
X189943812Y-102828482D01*
X189956072Y-102704000D01*
X189953000Y-102139750D01*
X189794250Y-101981000D01*
X188595000Y-101981000D01*
X188341000Y-101981000D01*
X187141750Y-101981000D01*
X186983000Y-102139750D01*
X186979928Y-102704000D01*
X169162000Y-102704000D01*
X169162000Y-87289322D01*
X169165676Y-87251999D01*
X169162000Y-87214676D01*
X169162000Y-87214667D01*
X169151003Y-87103014D01*
X169107546Y-86959753D01*
X169092018Y-86930703D01*
X169036974Y-86827723D01*
X168965799Y-86740997D01*
X168942001Y-86711999D01*
X168913003Y-86688201D01*
X168343576Y-86118775D01*
X168391300Y-85878850D01*
X168391300Y-85581150D01*
X168333222Y-85289170D01*
X168219297Y-85014131D01*
X168053904Y-84766602D01*
X167843398Y-84556096D01*
X167699580Y-84460000D01*
X167843398Y-84363904D01*
X168053904Y-84153398D01*
X168219297Y-83905869D01*
X168333222Y-83630830D01*
X168391300Y-83338850D01*
X168391300Y-83041150D01*
X180608700Y-83041150D01*
X180608700Y-83338850D01*
X180666778Y-83630830D01*
X180780703Y-83905869D01*
X180946096Y-84153398D01*
X181156602Y-84363904D01*
X181300420Y-84460000D01*
X181156602Y-84556096D01*
X180946096Y-84766602D01*
X180780703Y-85014131D01*
X180666778Y-85289170D01*
X180608700Y-85581150D01*
X180608700Y-85878850D01*
X180666778Y-86170830D01*
X180780703Y-86445869D01*
X180946096Y-86693398D01*
X181156602Y-86903904D01*
X181300420Y-87000000D01*
X181156602Y-87096096D01*
X180946096Y-87306602D01*
X180780703Y-87554131D01*
X180666778Y-87829170D01*
X180608700Y-88121150D01*
X180608700Y-88418850D01*
X180666778Y-88710830D01*
X180780703Y-88985869D01*
X180946096Y-89233398D01*
X181156602Y-89443904D01*
X181300420Y-89540000D01*
X181156602Y-89636096D01*
X180946096Y-89846602D01*
X180780703Y-90094131D01*
X180666778Y-90369170D01*
X180608700Y-90661150D01*
X180608700Y-90958850D01*
X180666778Y-91250830D01*
X180780703Y-91525869D01*
X180946096Y-91773398D01*
X181156602Y-91983904D01*
X181300420Y-92080000D01*
X181156602Y-92176096D01*
X180946096Y-92386602D01*
X180780703Y-92634131D01*
X180666778Y-92909170D01*
X180608700Y-93201150D01*
X180608700Y-93498850D01*
X180666778Y-93790830D01*
X180780703Y-94065869D01*
X180946096Y-94313398D01*
X181156602Y-94523904D01*
X181300420Y-94620000D01*
X181156602Y-94716096D01*
X180946096Y-94926602D01*
X180780703Y-95174131D01*
X180666778Y-95449170D01*
X180608700Y-95741150D01*
X180608700Y-96038850D01*
X180666778Y-96330830D01*
X180780703Y-96605869D01*
X180946096Y-96853398D01*
X181156602Y-97063904D01*
X181300420Y-97160000D01*
X181156602Y-97256096D01*
X180946096Y-97466602D01*
X180780703Y-97714131D01*
X180666778Y-97989170D01*
X180608700Y-98281150D01*
X180608700Y-98578850D01*
X180666778Y-98870830D01*
X180780703Y-99145869D01*
X180946096Y-99393398D01*
X181156602Y-99603904D01*
X181300420Y-99700000D01*
X181156602Y-99796096D01*
X180946096Y-100006602D01*
X180780703Y-100254131D01*
X180666778Y-100529170D01*
X180608700Y-100821150D01*
X180608700Y-101118850D01*
X180666778Y-101410830D01*
X180780703Y-101685869D01*
X180946096Y-101933398D01*
X181156602Y-102143904D01*
X181404131Y-102309297D01*
X181679170Y-102423222D01*
X181971150Y-102481300D01*
X182268850Y-102481300D01*
X182560830Y-102423222D01*
X182835869Y-102309297D01*
X183083398Y-102143904D01*
X183293904Y-101933398D01*
X183459297Y-101685869D01*
X183573222Y-101410830D01*
X183631300Y-101118850D01*
X183631300Y-101004000D01*
X186979928Y-101004000D01*
X186983000Y-101568250D01*
X187141750Y-101727000D01*
X188341000Y-101727000D01*
X188341000Y-101707000D01*
X188595000Y-101707000D01*
X188595000Y-101727000D01*
X189794250Y-101727000D01*
X189953000Y-101568250D01*
X189956072Y-101004000D01*
X189943812Y-100879518D01*
X189907502Y-100759820D01*
X189848537Y-100649506D01*
X189769185Y-100552815D01*
X189672494Y-100473463D01*
X189562180Y-100414498D01*
X189489620Y-100392487D01*
X189621475Y-100260632D01*
X189783990Y-100017411D01*
X189895932Y-99747158D01*
X189953000Y-99460260D01*
X189953000Y-99167740D01*
X189895932Y-98880842D01*
X189783990Y-98610589D01*
X189621475Y-98367368D01*
X189414632Y-98160525D01*
X189240240Y-98044000D01*
X189414632Y-97927475D01*
X189621475Y-97720632D01*
X189783990Y-97477411D01*
X189895932Y-97207158D01*
X189953000Y-96920260D01*
X189953000Y-96627740D01*
X189895932Y-96340842D01*
X189783990Y-96070589D01*
X189621475Y-95827368D01*
X189414632Y-95620525D01*
X189171411Y-95458010D01*
X188901158Y-95346068D01*
X188614260Y-95289000D01*
X188321740Y-95289000D01*
X188034842Y-95346068D01*
X187764589Y-95458010D01*
X187521368Y-95620525D01*
X187314525Y-95827368D01*
X187152010Y-96070589D01*
X187040068Y-96340842D01*
X186983000Y-96627740D01*
X186983000Y-96920260D01*
X187040068Y-97207158D01*
X187152010Y-97477411D01*
X187314525Y-97720632D01*
X187521368Y-97927475D01*
X187695760Y-98044000D01*
X187521368Y-98160525D01*
X187314525Y-98367368D01*
X187152010Y-98610589D01*
X187040068Y-98880842D01*
X186983000Y-99167740D01*
X186983000Y-99460260D01*
X187040068Y-99747158D01*
X187152010Y-100017411D01*
X187314525Y-100260632D01*
X187446380Y-100392487D01*
X187373820Y-100414498D01*
X187263506Y-100473463D01*
X187166815Y-100552815D01*
X187087463Y-100649506D01*
X187028498Y-100759820D01*
X186992188Y-100879518D01*
X186979928Y-101004000D01*
X183631300Y-101004000D01*
X183631300Y-100821150D01*
X183573222Y-100529170D01*
X183459297Y-100254131D01*
X183293904Y-100006602D01*
X183083398Y-99796096D01*
X182939580Y-99700000D01*
X183083398Y-99603904D01*
X183293904Y-99393398D01*
X183459297Y-99145869D01*
X183573222Y-98870830D01*
X183631300Y-98578850D01*
X183631300Y-98281150D01*
X183573222Y-97989170D01*
X183459297Y-97714131D01*
X183293904Y-97466602D01*
X183083398Y-97256096D01*
X182939580Y-97160000D01*
X183083398Y-97063904D01*
X183293904Y-96853398D01*
X183459297Y-96605869D01*
X183573222Y-96330830D01*
X183631300Y-96038850D01*
X183631300Y-95741150D01*
X183573222Y-95449170D01*
X183459297Y-95174131D01*
X183293904Y-94926602D01*
X183083398Y-94716096D01*
X182939580Y-94620000D01*
X183083398Y-94523904D01*
X183293904Y-94313398D01*
X183459297Y-94065869D01*
X183511019Y-93941000D01*
X186979928Y-93941000D01*
X186992188Y-94065482D01*
X187028498Y-94185180D01*
X187087463Y-94295494D01*
X187166815Y-94392185D01*
X187263506Y-94471537D01*
X187373820Y-94530502D01*
X187493518Y-94566812D01*
X187618000Y-94579072D01*
X188182250Y-94576000D01*
X188341000Y-94417250D01*
X188341000Y-93218000D01*
X188595000Y-93218000D01*
X188595000Y-94417250D01*
X188753750Y-94576000D01*
X189318000Y-94579072D01*
X189442482Y-94566812D01*
X189562180Y-94530502D01*
X189672494Y-94471537D01*
X189769185Y-94392185D01*
X189848537Y-94295494D01*
X189907502Y-94185180D01*
X189943812Y-94065482D01*
X189956072Y-93941000D01*
X189953000Y-93376750D01*
X189794250Y-93218000D01*
X188595000Y-93218000D01*
X188341000Y-93218000D01*
X187141750Y-93218000D01*
X186983000Y-93376750D01*
X186979928Y-93941000D01*
X183511019Y-93941000D01*
X183573222Y-93790830D01*
X183631300Y-93498850D01*
X183631300Y-93201150D01*
X183573222Y-92909170D01*
X183459297Y-92634131D01*
X183293904Y-92386602D01*
X183148302Y-92241000D01*
X186979928Y-92241000D01*
X186983000Y-92805250D01*
X187141750Y-92964000D01*
X188341000Y-92964000D01*
X188341000Y-92944000D01*
X188595000Y-92944000D01*
X188595000Y-92964000D01*
X189794250Y-92964000D01*
X189953000Y-92805250D01*
X189956072Y-92241000D01*
X189943812Y-92116518D01*
X189907502Y-91996820D01*
X189848537Y-91886506D01*
X189769185Y-91789815D01*
X189672494Y-91710463D01*
X189562180Y-91651498D01*
X189489620Y-91629487D01*
X189621475Y-91497632D01*
X189783990Y-91254411D01*
X189895932Y-90984158D01*
X189953000Y-90697260D01*
X189953000Y-90404740D01*
X189895932Y-90117842D01*
X189783990Y-89847589D01*
X189621475Y-89604368D01*
X189414632Y-89397525D01*
X189240240Y-89281000D01*
X189414632Y-89164475D01*
X189621475Y-88957632D01*
X189783990Y-88714411D01*
X189895932Y-88444158D01*
X189953000Y-88157260D01*
X189953000Y-87864740D01*
X189895932Y-87577842D01*
X189783990Y-87307589D01*
X189621475Y-87064368D01*
X189414632Y-86857525D01*
X189171411Y-86695010D01*
X188901158Y-86583068D01*
X188614260Y-86526000D01*
X188321740Y-86526000D01*
X188034842Y-86583068D01*
X187764589Y-86695010D01*
X187521368Y-86857525D01*
X187314525Y-87064368D01*
X187152010Y-87307589D01*
X187040068Y-87577842D01*
X186983000Y-87864740D01*
X186983000Y-88157260D01*
X187040068Y-88444158D01*
X187152010Y-88714411D01*
X187314525Y-88957632D01*
X187521368Y-89164475D01*
X187695760Y-89281000D01*
X187521368Y-89397525D01*
X187314525Y-89604368D01*
X187152010Y-89847589D01*
X187040068Y-90117842D01*
X186983000Y-90404740D01*
X186983000Y-90697260D01*
X187040068Y-90984158D01*
X187152010Y-91254411D01*
X187314525Y-91497632D01*
X187446380Y-91629487D01*
X187373820Y-91651498D01*
X187263506Y-91710463D01*
X187166815Y-91789815D01*
X187087463Y-91886506D01*
X187028498Y-91996820D01*
X186992188Y-92116518D01*
X186979928Y-92241000D01*
X183148302Y-92241000D01*
X183083398Y-92176096D01*
X182939580Y-92080000D01*
X183083398Y-91983904D01*
X183293904Y-91773398D01*
X183459297Y-91525869D01*
X183573222Y-91250830D01*
X183631300Y-90958850D01*
X183631300Y-90661150D01*
X183573222Y-90369170D01*
X183459297Y-90094131D01*
X183293904Y-89846602D01*
X183083398Y-89636096D01*
X182939580Y-89540000D01*
X183083398Y-89443904D01*
X183293904Y-89233398D01*
X183459297Y-88985869D01*
X183573222Y-88710830D01*
X183631300Y-88418850D01*
X183631300Y-88121150D01*
X183573222Y-87829170D01*
X183459297Y-87554131D01*
X183293904Y-87306602D01*
X183083398Y-87096096D01*
X182939580Y-87000000D01*
X183083398Y-86903904D01*
X183293904Y-86693398D01*
X183459297Y-86445869D01*
X183573222Y-86170830D01*
X183631300Y-85878850D01*
X183631300Y-85581150D01*
X183573222Y-85289170D01*
X183527174Y-85178000D01*
X186979928Y-85178000D01*
X186992188Y-85302482D01*
X187028498Y-85422180D01*
X187087463Y-85532494D01*
X187166815Y-85629185D01*
X187263506Y-85708537D01*
X187373820Y-85767502D01*
X187493518Y-85803812D01*
X187618000Y-85816072D01*
X188182250Y-85813000D01*
X188341000Y-85654250D01*
X188341000Y-84455000D01*
X188595000Y-84455000D01*
X188595000Y-85654250D01*
X188753750Y-85813000D01*
X189318000Y-85816072D01*
X189442482Y-85803812D01*
X189562180Y-85767502D01*
X189672494Y-85708537D01*
X189769185Y-85629185D01*
X189848537Y-85532494D01*
X189907502Y-85422180D01*
X189943812Y-85302482D01*
X189956072Y-85178000D01*
X189953000Y-84613750D01*
X189794250Y-84455000D01*
X188595000Y-84455000D01*
X188341000Y-84455000D01*
X187141750Y-84455000D01*
X186983000Y-84613750D01*
X186979928Y-85178000D01*
X183527174Y-85178000D01*
X183459297Y-85014131D01*
X183293904Y-84766602D01*
X183083398Y-84556096D01*
X182939580Y-84460000D01*
X183083398Y-84363904D01*
X183293904Y-84153398D01*
X183459297Y-83905869D01*
X183573222Y-83630830D01*
X183603621Y-83478000D01*
X186979928Y-83478000D01*
X186983000Y-84042250D01*
X187141750Y-84201000D01*
X188341000Y-84201000D01*
X188341000Y-84181000D01*
X188595000Y-84181000D01*
X188595000Y-84201000D01*
X189794250Y-84201000D01*
X189953000Y-84042250D01*
X189956072Y-83478000D01*
X189943812Y-83353518D01*
X189907502Y-83233820D01*
X189848537Y-83123506D01*
X189769185Y-83026815D01*
X189672494Y-82947463D01*
X189562180Y-82888498D01*
X189489620Y-82866487D01*
X189621475Y-82734632D01*
X189783990Y-82491411D01*
X189895932Y-82221158D01*
X189953000Y-81934260D01*
X189953000Y-81641740D01*
X189895932Y-81354842D01*
X189783990Y-81084589D01*
X189621475Y-80841368D01*
X189414632Y-80634525D01*
X189240240Y-80518000D01*
X189414632Y-80401475D01*
X189621475Y-80194632D01*
X189783990Y-79951411D01*
X189895932Y-79681158D01*
X189953000Y-79394260D01*
X189953000Y-79101740D01*
X189895932Y-78814842D01*
X189783990Y-78544589D01*
X189621475Y-78301368D01*
X189414632Y-78094525D01*
X189171411Y-77932010D01*
X188901158Y-77820068D01*
X188614260Y-77763000D01*
X188321740Y-77763000D01*
X188034842Y-77820068D01*
X187764589Y-77932010D01*
X187521368Y-78094525D01*
X187314525Y-78301368D01*
X187152010Y-78544589D01*
X187040068Y-78814842D01*
X186983000Y-79101740D01*
X186983000Y-79394260D01*
X187040068Y-79681158D01*
X187152010Y-79951411D01*
X187314525Y-80194632D01*
X187521368Y-80401475D01*
X187695760Y-80518000D01*
X187521368Y-80634525D01*
X187314525Y-80841368D01*
X187152010Y-81084589D01*
X187040068Y-81354842D01*
X186983000Y-81641740D01*
X186983000Y-81934260D01*
X187040068Y-82221158D01*
X187152010Y-82491411D01*
X187314525Y-82734632D01*
X187446380Y-82866487D01*
X187373820Y-82888498D01*
X187263506Y-82947463D01*
X187166815Y-83026815D01*
X187087463Y-83123506D01*
X187028498Y-83233820D01*
X186992188Y-83353518D01*
X186979928Y-83478000D01*
X183603621Y-83478000D01*
X183631300Y-83338850D01*
X183631300Y-83041150D01*
X183573222Y-82749170D01*
X183459297Y-82474131D01*
X183293904Y-82226602D01*
X183083398Y-82016096D01*
X182920191Y-81907045D01*
X182987563Y-81697169D01*
X182120000Y-80829605D01*
X181252437Y-81697169D01*
X181319809Y-81907045D01*
X181156602Y-82016096D01*
X180946096Y-82226602D01*
X180780703Y-82474131D01*
X180666778Y-82749170D01*
X180608700Y-83041150D01*
X168391300Y-83041150D01*
X168333222Y-82749170D01*
X168219297Y-82474131D01*
X168053904Y-82226602D01*
X167843398Y-82016096D01*
X167699580Y-81920000D01*
X167843398Y-81823904D01*
X168053904Y-81613398D01*
X168219297Y-81365869D01*
X168333222Y-81090830D01*
X168391300Y-80798850D01*
X168391300Y-80717491D01*
X180602887Y-80717491D01*
X180645204Y-81012167D01*
X180744198Y-81292927D01*
X180821071Y-81436746D01*
X181072831Y-81517563D01*
X181940395Y-80650000D01*
X182299605Y-80650000D01*
X183167169Y-81517563D01*
X183418929Y-81436746D01*
X183547457Y-81168221D01*
X183621129Y-80879781D01*
X183637113Y-80582509D01*
X183594796Y-80287833D01*
X183495802Y-80007073D01*
X183418929Y-79863254D01*
X183167169Y-79782437D01*
X182299605Y-80650000D01*
X181940395Y-80650000D01*
X181072831Y-79782437D01*
X180821071Y-79863254D01*
X180692543Y-80131779D01*
X180618871Y-80420219D01*
X180602887Y-80717491D01*
X168391300Y-80717491D01*
X168391300Y-80501150D01*
X168333222Y-80209170D01*
X168219297Y-79934131D01*
X168053904Y-79686602D01*
X167843398Y-79476096D01*
X167699580Y-79380000D01*
X167843398Y-79283904D01*
X168053904Y-79073398D01*
X168219297Y-78825869D01*
X168333222Y-78550830D01*
X168391300Y-78258850D01*
X168391300Y-77961150D01*
X168333222Y-77669170D01*
X168219297Y-77394131D01*
X168053904Y-77146602D01*
X167843398Y-76936096D01*
X167699580Y-76840000D01*
X167843398Y-76743904D01*
X168053904Y-76533398D01*
X168219297Y-76285869D01*
X168333222Y-76010830D01*
X168391300Y-75718850D01*
X168391300Y-75421150D01*
X168333222Y-75129170D01*
X168219297Y-74854131D01*
X168053904Y-74606602D01*
X167956458Y-74509156D01*
X168000480Y-74495802D01*
X168110794Y-74436837D01*
X168207485Y-74357485D01*
X168286837Y-74260794D01*
X168345802Y-74150480D01*
X168382112Y-74030782D01*
X168394372Y-73906300D01*
X168394372Y-72881150D01*
X180608700Y-72881150D01*
X180608700Y-73178850D01*
X180666778Y-73470830D01*
X180780703Y-73745869D01*
X180946096Y-73993398D01*
X181156602Y-74203904D01*
X181300420Y-74300000D01*
X181156602Y-74396096D01*
X180946096Y-74606602D01*
X180780703Y-74854131D01*
X180666778Y-75129170D01*
X180608700Y-75421150D01*
X180608700Y-75718850D01*
X180666778Y-76010830D01*
X180780703Y-76285869D01*
X180946096Y-76533398D01*
X181156602Y-76743904D01*
X181300420Y-76840000D01*
X181156602Y-76936096D01*
X180946096Y-77146602D01*
X180780703Y-77394131D01*
X180666778Y-77669170D01*
X180608700Y-77961150D01*
X180608700Y-78258850D01*
X180666778Y-78550830D01*
X180780703Y-78825869D01*
X180946096Y-79073398D01*
X181156602Y-79283904D01*
X181319809Y-79392955D01*
X181252437Y-79602831D01*
X182120000Y-80470395D01*
X182987563Y-79602831D01*
X182920191Y-79392955D01*
X183083398Y-79283904D01*
X183293904Y-79073398D01*
X183459297Y-78825869D01*
X183573222Y-78550830D01*
X183631300Y-78258850D01*
X183631300Y-77961150D01*
X183573222Y-77669170D01*
X183459297Y-77394131D01*
X183293904Y-77146602D01*
X183083398Y-76936096D01*
X182939580Y-76840000D01*
X183083398Y-76743904D01*
X183293904Y-76533398D01*
X183459297Y-76285869D01*
X183573222Y-76010830D01*
X183631300Y-75718850D01*
X183631300Y-75421150D01*
X183573222Y-75129170D01*
X183459297Y-74854131D01*
X183293904Y-74606602D01*
X183083398Y-74396096D01*
X182939580Y-74300000D01*
X183083398Y-74203904D01*
X183293904Y-73993398D01*
X183403672Y-73829117D01*
X186765000Y-73829117D01*
X186765000Y-74170883D01*
X186831675Y-74506081D01*
X186962463Y-74821831D01*
X187152337Y-75105998D01*
X187394002Y-75347663D01*
X187678169Y-75537537D01*
X187993919Y-75668325D01*
X188329117Y-75735000D01*
X188670883Y-75735000D01*
X189006081Y-75668325D01*
X189321831Y-75537537D01*
X189605998Y-75347663D01*
X189847663Y-75105998D01*
X190037537Y-74821831D01*
X190168325Y-74506081D01*
X190235000Y-74170883D01*
X190235000Y-73829117D01*
X190168325Y-73493919D01*
X190037537Y-73178169D01*
X189847663Y-72894002D01*
X189605998Y-72652337D01*
X189321831Y-72462463D01*
X189006081Y-72331675D01*
X188670883Y-72265000D01*
X188329117Y-72265000D01*
X187993919Y-72331675D01*
X187678169Y-72462463D01*
X187394002Y-72652337D01*
X187152337Y-72894002D01*
X186962463Y-73178169D01*
X186831675Y-73493919D01*
X186765000Y-73829117D01*
X183403672Y-73829117D01*
X183459297Y-73745869D01*
X183573222Y-73470830D01*
X183631300Y-73178850D01*
X183631300Y-72881150D01*
X183573222Y-72589170D01*
X183459297Y-72314131D01*
X183293904Y-72066602D01*
X183083398Y-71856096D01*
X182835869Y-71690703D01*
X182560830Y-71576778D01*
X182268850Y-71518700D01*
X181971150Y-71518700D01*
X181679170Y-71576778D01*
X181404131Y-71690703D01*
X181156602Y-71856096D01*
X180946096Y-72066602D01*
X180780703Y-72314131D01*
X180666778Y-72589170D01*
X180608700Y-72881150D01*
X168394372Y-72881150D01*
X168394372Y-72153700D01*
X168382112Y-72029218D01*
X168345802Y-71909520D01*
X168286837Y-71799206D01*
X168207485Y-71702515D01*
X168110794Y-71623163D01*
X168000480Y-71564198D01*
X167880782Y-71527888D01*
X167756300Y-71515628D01*
X166003700Y-71515628D01*
X165879218Y-71527888D01*
X165759520Y-71564198D01*
X165649206Y-71623163D01*
X165552515Y-71702515D01*
X165473163Y-71799206D01*
X165414198Y-71909520D01*
X165377888Y-72029218D01*
X165365628Y-72153700D01*
X165365628Y-73906300D01*
X165377888Y-74030782D01*
X165414198Y-74150480D01*
X165473163Y-74260794D01*
X165552515Y-74357485D01*
X165649206Y-74436837D01*
X165759520Y-74495802D01*
X165803542Y-74509156D01*
X165706096Y-74606602D01*
X165540703Y-74854131D01*
X165426778Y-75129170D01*
X165368700Y-75421150D01*
X165368700Y-75718850D01*
X165426778Y-76010830D01*
X165540703Y-76285869D01*
X165706096Y-76533398D01*
X165916602Y-76743904D01*
X166060420Y-76840000D01*
X165916602Y-76936096D01*
X165706096Y-77146602D01*
X165540703Y-77394131D01*
X165426778Y-77669170D01*
X165368700Y-77961150D01*
X165368700Y-78258850D01*
X165426778Y-78550830D01*
X165540703Y-78825869D01*
X165706096Y-79073398D01*
X165916602Y-79283904D01*
X166060420Y-79380000D01*
X165916602Y-79476096D01*
X165706096Y-79686602D01*
X165540703Y-79934131D01*
X165426778Y-80209170D01*
X165368700Y-80501150D01*
X165368700Y-80798850D01*
X165426778Y-81090830D01*
X165540703Y-81365869D01*
X165706096Y-81613398D01*
X165916602Y-81823904D01*
X166060420Y-81920000D01*
X165916602Y-82016096D01*
X165706096Y-82226602D01*
X165540703Y-82474131D01*
X165426778Y-82749170D01*
X165368700Y-83041150D01*
X165368700Y-83338850D01*
X165426778Y-83630830D01*
X165540703Y-83905869D01*
X165706096Y-84153398D01*
X165916602Y-84363904D01*
X166060420Y-84460000D01*
X165916602Y-84556096D01*
X165706096Y-84766602D01*
X165540703Y-85014131D01*
X165426778Y-85289170D01*
X165368700Y-85581150D01*
X165368700Y-85683899D01*
X163501804Y-83817003D01*
X163478001Y-83787999D01*
X163362276Y-83693026D01*
X163230247Y-83622454D01*
X163086986Y-83578997D01*
X162975333Y-83568000D01*
X162975322Y-83568000D01*
X162938000Y-83564324D01*
X162900678Y-83568000D01*
X161933178Y-83568000D01*
X161808475Y-83381368D01*
X161601632Y-83174525D01*
X161427240Y-83058000D01*
X161601632Y-82941475D01*
X161808475Y-82734632D01*
X161970990Y-82491411D01*
X162082932Y-82221158D01*
X162140000Y-81934260D01*
X162140000Y-81641740D01*
X162082932Y-81354842D01*
X161970990Y-81084589D01*
X161808475Y-80841368D01*
X161676620Y-80709513D01*
X161749180Y-80687502D01*
X161859494Y-80628537D01*
X161956185Y-80549185D01*
X162035537Y-80452494D01*
X162094502Y-80342180D01*
X162130812Y-80222482D01*
X162143072Y-80098000D01*
X162140000Y-79533750D01*
X161981250Y-79375000D01*
X160782000Y-79375000D01*
X160782000Y-79395000D01*
X160528000Y-79395000D01*
X160528000Y-79375000D01*
X159328750Y-79375000D01*
X159170000Y-79533750D01*
X159166928Y-80098000D01*
X157910000Y-80098000D01*
X157910000Y-78398000D01*
X159166928Y-78398000D01*
X159170000Y-78962250D01*
X159328750Y-79121000D01*
X160528000Y-79121000D01*
X160528000Y-77921750D01*
X160782000Y-77921750D01*
X160782000Y-79121000D01*
X161981250Y-79121000D01*
X162140000Y-78962250D01*
X162143072Y-78398000D01*
X162130812Y-78273518D01*
X162094502Y-78153820D01*
X162035537Y-78043506D01*
X161956185Y-77946815D01*
X161859494Y-77867463D01*
X161749180Y-77808498D01*
X161629482Y-77772188D01*
X161505000Y-77759928D01*
X160940750Y-77763000D01*
X160782000Y-77921750D01*
X160528000Y-77921750D01*
X160369250Y-77763000D01*
X159805000Y-77759928D01*
X159680518Y-77772188D01*
X159560820Y-77808498D01*
X159450506Y-77867463D01*
X159353815Y-77946815D01*
X159274463Y-78043506D01*
X159215498Y-78153820D01*
X159179188Y-78273518D01*
X159166928Y-78398000D01*
X157910000Y-78398000D01*
X157910000Y-73829117D01*
X158765000Y-73829117D01*
X158765000Y-74170883D01*
X158831675Y-74506081D01*
X158962463Y-74821831D01*
X159152337Y-75105998D01*
X159394002Y-75347663D01*
X159678169Y-75537537D01*
X159993919Y-75668325D01*
X160329117Y-75735000D01*
X160670883Y-75735000D01*
X161006081Y-75668325D01*
X161321831Y-75537537D01*
X161605998Y-75347663D01*
X161847663Y-75105998D01*
X162037537Y-74821831D01*
X162168325Y-74506081D01*
X162235000Y-74170883D01*
X162235000Y-73829117D01*
X162168325Y-73493919D01*
X162037537Y-73178169D01*
X161847663Y-72894002D01*
X161605998Y-72652337D01*
X161321831Y-72462463D01*
X161006081Y-72331675D01*
X160670883Y-72265000D01*
X160329117Y-72265000D01*
X159993919Y-72331675D01*
X159678169Y-72462463D01*
X159394002Y-72652337D01*
X159152337Y-72894002D01*
X158962463Y-73178169D01*
X158831675Y-73493919D01*
X158765000Y-73829117D01*
X157910000Y-73829117D01*
X157910000Y-71410000D01*
X191090000Y-71410000D01*
X191090001Y-73217572D01*
G04 #@! TA.AperFunction,Conductor*
D18*
G36*
X191090001Y-73217572D02*
G01*
X191090000Y-73217582D01*
X191090001Y-115467572D01*
X191090000Y-115467582D01*
X191090000Y-115840000D01*
X157910000Y-115840000D01*
X157910000Y-102579117D01*
X158765000Y-102579117D01*
X158765000Y-102920883D01*
X158831675Y-103256081D01*
X158962463Y-103571831D01*
X159152337Y-103855998D01*
X159394002Y-104097663D01*
X159678169Y-104287537D01*
X159993919Y-104418325D01*
X160329117Y-104485000D01*
X160670883Y-104485000D01*
X161006081Y-104418325D01*
X161321831Y-104287537D01*
X161605998Y-104097663D01*
X161847663Y-103855998D01*
X162037537Y-103571831D01*
X162168325Y-103256081D01*
X162235000Y-102920883D01*
X162235000Y-102579117D01*
X162168325Y-102243919D01*
X162037537Y-101928169D01*
X161847663Y-101644002D01*
X161605998Y-101402337D01*
X161321831Y-101212463D01*
X161006081Y-101081675D01*
X160670883Y-101015000D01*
X160329117Y-101015000D01*
X159993919Y-101081675D01*
X159678169Y-101212463D01*
X159394002Y-101402337D01*
X159152337Y-101644002D01*
X158962463Y-101928169D01*
X158831675Y-102243919D01*
X158765000Y-102579117D01*
X157910000Y-102579117D01*
X157910000Y-95211000D01*
X159166928Y-95211000D01*
X159179188Y-95335482D01*
X159215498Y-95455180D01*
X159274463Y-95565494D01*
X159353815Y-95662185D01*
X159450506Y-95741537D01*
X159560820Y-95800502D01*
X159633380Y-95822513D01*
X159501525Y-95954368D01*
X159339010Y-96197589D01*
X159227068Y-96467842D01*
X159170000Y-96754740D01*
X159170000Y-97047260D01*
X159227068Y-97334158D01*
X159339010Y-97604411D01*
X159501525Y-97847632D01*
X159708368Y-98054475D01*
X159951589Y-98216990D01*
X160221842Y-98328932D01*
X160508740Y-98386000D01*
X160801260Y-98386000D01*
X161088158Y-98328932D01*
X161358411Y-98216990D01*
X161601632Y-98054475D01*
X161808475Y-97847632D01*
X161970990Y-97604411D01*
X162082932Y-97334158D01*
X162140000Y-97047260D01*
X162140000Y-96754740D01*
X162082932Y-96467842D01*
X161970990Y-96197589D01*
X161808475Y-95954368D01*
X161676620Y-95822513D01*
X161749180Y-95800502D01*
X161859494Y-95741537D01*
X161956185Y-95662185D01*
X162035537Y-95565494D01*
X162094502Y-95455180D01*
X162130812Y-95335482D01*
X162143072Y-95211000D01*
X162140000Y-94646750D01*
X161981250Y-94488000D01*
X160782000Y-94488000D01*
X160782000Y-94508000D01*
X160528000Y-94508000D01*
X160528000Y-94488000D01*
X159328750Y-94488000D01*
X159170000Y-94646750D01*
X159166928Y-95211000D01*
X157910000Y-95211000D01*
X157910000Y-93511000D01*
X159166928Y-93511000D01*
X159170000Y-94075250D01*
X159328750Y-94234000D01*
X160528000Y-94234000D01*
X160528000Y-93034750D01*
X160782000Y-93034750D01*
X160782000Y-94234000D01*
X161981250Y-94234000D01*
X162140000Y-94075250D01*
X162143072Y-93511000D01*
X162130812Y-93386518D01*
X162094502Y-93266820D01*
X162035537Y-93156506D01*
X161956185Y-93059815D01*
X161859494Y-92980463D01*
X161749180Y-92921498D01*
X161629482Y-92885188D01*
X161505000Y-92872928D01*
X160940750Y-92876000D01*
X160782000Y-93034750D01*
X160528000Y-93034750D01*
X160369250Y-92876000D01*
X159805000Y-92872928D01*
X159680518Y-92885188D01*
X159560820Y-92921498D01*
X159450506Y-92980463D01*
X159353815Y-93059815D01*
X159274463Y-93156506D01*
X159215498Y-93266820D01*
X159179188Y-93386518D01*
X159166928Y-93511000D01*
X157910000Y-93511000D01*
X157910000Y-87161000D01*
X159166928Y-87161000D01*
X159166928Y-88861000D01*
X159179188Y-88985482D01*
X159215498Y-89105180D01*
X159274463Y-89215494D01*
X159353815Y-89312185D01*
X159450506Y-89391537D01*
X159560820Y-89450502D01*
X159633380Y-89472513D01*
X159501525Y-89604368D01*
X159339010Y-89847589D01*
X159227068Y-90117842D01*
X159170000Y-90404740D01*
X159170000Y-90697260D01*
X159227068Y-90984158D01*
X159339010Y-91254411D01*
X159501525Y-91497632D01*
X159708368Y-91704475D01*
X159951589Y-91866990D01*
X160221842Y-91978932D01*
X160508740Y-92036000D01*
X160801260Y-92036000D01*
X161088158Y-91978932D01*
X161358411Y-91866990D01*
X161601632Y-91704475D01*
X161808475Y-91497632D01*
X161970990Y-91254411D01*
X162082932Y-90984158D01*
X162140000Y-90697260D01*
X162140000Y-90404740D01*
X162082932Y-90117842D01*
X161970990Y-89847589D01*
X161808475Y-89604368D01*
X161676620Y-89472513D01*
X161749180Y-89450502D01*
X161859494Y-89391537D01*
X161956185Y-89312185D01*
X162035537Y-89215494D01*
X162094502Y-89105180D01*
X162130812Y-88985482D01*
X162143072Y-88861000D01*
X162143072Y-87161000D01*
X162130812Y-87036518D01*
X162094502Y-86916820D01*
X162035537Y-86806506D01*
X161956185Y-86709815D01*
X161859494Y-86630463D01*
X161749180Y-86571498D01*
X161629482Y-86535188D01*
X161505000Y-86522928D01*
X159805000Y-86522928D01*
X159680518Y-86535188D01*
X159560820Y-86571498D01*
X159450506Y-86630463D01*
X159353815Y-86709815D01*
X159274463Y-86806506D01*
X159215498Y-86916820D01*
X159179188Y-87036518D01*
X159166928Y-87161000D01*
X157910000Y-87161000D01*
X157910000Y-80098000D01*
X159166928Y-80098000D01*
X159179188Y-80222482D01*
X159215498Y-80342180D01*
X159274463Y-80452494D01*
X159353815Y-80549185D01*
X159450506Y-80628537D01*
X159560820Y-80687502D01*
X159633380Y-80709513D01*
X159501525Y-80841368D01*
X159339010Y-81084589D01*
X159227068Y-81354842D01*
X159170000Y-81641740D01*
X159170000Y-81934260D01*
X159227068Y-82221158D01*
X159339010Y-82491411D01*
X159501525Y-82734632D01*
X159708368Y-82941475D01*
X159882760Y-83058000D01*
X159708368Y-83174525D01*
X159501525Y-83381368D01*
X159339010Y-83624589D01*
X159227068Y-83894842D01*
X159170000Y-84181740D01*
X159170000Y-84474260D01*
X159227068Y-84761158D01*
X159339010Y-85031411D01*
X159501525Y-85274632D01*
X159708368Y-85481475D01*
X159951589Y-85643990D01*
X160221842Y-85755932D01*
X160508740Y-85813000D01*
X160801260Y-85813000D01*
X161088158Y-85755932D01*
X161358411Y-85643990D01*
X161601632Y-85481475D01*
X161808475Y-85274632D01*
X161933178Y-85088000D01*
X162623199Y-85088000D01*
X165416424Y-87881225D01*
X165368700Y-88121150D01*
X165368700Y-88418850D01*
X165426778Y-88710830D01*
X165540703Y-88985869D01*
X165706096Y-89233398D01*
X165916602Y-89443904D01*
X166060420Y-89540000D01*
X165916602Y-89636096D01*
X165706096Y-89846602D01*
X165540703Y-90094131D01*
X165426778Y-90369170D01*
X165368700Y-90661150D01*
X165368700Y-90958850D01*
X165426778Y-91250830D01*
X165540703Y-91525869D01*
X165706096Y-91773398D01*
X165916602Y-91983904D01*
X166060420Y-92080000D01*
X165916602Y-92176096D01*
X165706096Y-92386602D01*
X165540703Y-92634131D01*
X165426778Y-92909170D01*
X165368700Y-93201150D01*
X165368700Y-93498850D01*
X165426778Y-93790830D01*
X165540703Y-94065869D01*
X165706096Y-94313398D01*
X165916602Y-94523904D01*
X166060420Y-94620000D01*
X165916602Y-94716096D01*
X165706096Y-94926602D01*
X165540703Y-95174131D01*
X165426778Y-95449170D01*
X165368700Y-95741150D01*
X165368700Y-96038850D01*
X165426778Y-96330830D01*
X165540703Y-96605869D01*
X165706096Y-96853398D01*
X165916602Y-97063904D01*
X166060420Y-97160000D01*
X165916602Y-97256096D01*
X165706096Y-97466602D01*
X165540703Y-97714131D01*
X165426778Y-97989170D01*
X165368700Y-98281150D01*
X165368700Y-98578850D01*
X165426778Y-98870830D01*
X165540703Y-99145869D01*
X165706096Y-99393398D01*
X165916602Y-99603904D01*
X166060420Y-99700000D01*
X165916602Y-99796096D01*
X165706096Y-100006602D01*
X165540703Y-100254131D01*
X165426778Y-100529170D01*
X165368700Y-100821150D01*
X165368700Y-101118850D01*
X165426778Y-101410830D01*
X165540703Y-101685869D01*
X165706096Y-101933398D01*
X165916602Y-102143904D01*
X166164131Y-102309297D01*
X166439170Y-102423222D01*
X166731150Y-102481300D01*
X167028850Y-102481300D01*
X167320830Y-102423222D01*
X167595869Y-102309297D01*
X167642000Y-102278473D01*
X167642000Y-108016198D01*
X167498408Y-108159790D01*
X167278260Y-108116000D01*
X166985740Y-108116000D01*
X166698842Y-108173068D01*
X166428589Y-108285010D01*
X166185368Y-108447525D01*
X166053513Y-108579380D01*
X166031502Y-108506820D01*
X165972537Y-108396506D01*
X165893185Y-108299815D01*
X165796494Y-108220463D01*
X165686180Y-108161498D01*
X165566482Y-108125188D01*
X165442000Y-108112928D01*
X163742000Y-108112928D01*
X163617518Y-108125188D01*
X163497820Y-108161498D01*
X163387506Y-108220463D01*
X163290815Y-108299815D01*
X163211463Y-108396506D01*
X163152498Y-108506820D01*
X163116188Y-108626518D01*
X163103928Y-108751000D01*
X163103928Y-110451000D01*
X163116188Y-110575482D01*
X163152498Y-110695180D01*
X163211463Y-110805494D01*
X163290815Y-110902185D01*
X163387506Y-110981537D01*
X163497820Y-111040502D01*
X163617518Y-111076812D01*
X163742000Y-111089072D01*
X165442000Y-111089072D01*
X165566482Y-111076812D01*
X165686180Y-111040502D01*
X165796494Y-110981537D01*
X165893185Y-110902185D01*
X165972537Y-110805494D01*
X166031502Y-110695180D01*
X166053513Y-110622620D01*
X166185368Y-110754475D01*
X166428589Y-110916990D01*
X166698842Y-111028932D01*
X166985740Y-111086000D01*
X167278260Y-111086000D01*
X167565158Y-111028932D01*
X167835411Y-110916990D01*
X168078632Y-110754475D01*
X168285475Y-110547632D01*
X168407195Y-110365466D01*
X168476822Y-110482355D01*
X168671731Y-110698588D01*
X168905080Y-110872641D01*
X169167901Y-110997825D01*
X169315110Y-111042476D01*
X169545000Y-110921155D01*
X169545000Y-109728000D01*
X169799000Y-109728000D01*
X169799000Y-110921155D01*
X170028890Y-111042476D01*
X170176099Y-110997825D01*
X170438920Y-110872641D01*
X170672269Y-110698588D01*
X170867178Y-110482355D01*
X171016157Y-110232252D01*
X171113481Y-109957891D01*
X170992814Y-109728000D01*
X169799000Y-109728000D01*
X169545000Y-109728000D01*
X169525000Y-109728000D01*
X169525000Y-109474000D01*
X169545000Y-109474000D01*
X169545000Y-108280845D01*
X169799000Y-108280845D01*
X169799000Y-109474000D01*
X170992814Y-109474000D01*
X171113481Y-109244109D01*
X171016157Y-108969748D01*
X170885856Y-108751000D01*
X171866928Y-108751000D01*
X171866928Y-110451000D01*
X171879188Y-110575482D01*
X171915498Y-110695180D01*
X171974463Y-110805494D01*
X172053815Y-110902185D01*
X172150506Y-110981537D01*
X172260820Y-111040502D01*
X172380518Y-111076812D01*
X172505000Y-111089072D01*
X174205000Y-111089072D01*
X174329482Y-111076812D01*
X174449180Y-111040502D01*
X174559494Y-110981537D01*
X174656185Y-110902185D01*
X174735537Y-110805494D01*
X174794502Y-110695180D01*
X174816513Y-110622620D01*
X174948368Y-110754475D01*
X175191589Y-110916990D01*
X175461842Y-111028932D01*
X175748740Y-111086000D01*
X176041260Y-111086000D01*
X176328158Y-111028932D01*
X176598411Y-110916990D01*
X176841632Y-110754475D01*
X177048475Y-110547632D01*
X177170195Y-110365466D01*
X177239822Y-110482355D01*
X177434731Y-110698588D01*
X177668080Y-110872641D01*
X177930901Y-110997825D01*
X178078110Y-111042476D01*
X178308000Y-110921155D01*
X178308000Y-109728000D01*
X178562000Y-109728000D01*
X178562000Y-110921155D01*
X178791890Y-111042476D01*
X178939099Y-110997825D01*
X179201920Y-110872641D01*
X179435269Y-110698588D01*
X179630178Y-110482355D01*
X179779157Y-110232252D01*
X179876481Y-109957891D01*
X179755814Y-109728000D01*
X178562000Y-109728000D01*
X178308000Y-109728000D01*
X178288000Y-109728000D01*
X178288000Y-109474000D01*
X178308000Y-109474000D01*
X178308000Y-108280845D01*
X178562000Y-108280845D01*
X178562000Y-109474000D01*
X179755814Y-109474000D01*
X179876481Y-109244109D01*
X179779157Y-108969748D01*
X179648856Y-108751000D01*
X180629928Y-108751000D01*
X180629928Y-110451000D01*
X180642188Y-110575482D01*
X180678498Y-110695180D01*
X180737463Y-110805494D01*
X180816815Y-110902185D01*
X180913506Y-110981537D01*
X181023820Y-111040502D01*
X181143518Y-111076812D01*
X181268000Y-111089072D01*
X182968000Y-111089072D01*
X183092482Y-111076812D01*
X183212180Y-111040502D01*
X183322494Y-110981537D01*
X183419185Y-110902185D01*
X183498537Y-110805494D01*
X183557502Y-110695180D01*
X183581966Y-110614534D01*
X183657731Y-110698588D01*
X183891080Y-110872641D01*
X184153901Y-110997825D01*
X184301110Y-111042476D01*
X184531000Y-110921155D01*
X184531000Y-109728000D01*
X184785000Y-109728000D01*
X184785000Y-110921155D01*
X185014890Y-111042476D01*
X185162099Y-110997825D01*
X185424920Y-110872641D01*
X185658269Y-110698588D01*
X185853178Y-110482355D01*
X186002157Y-110232252D01*
X186099481Y-109957891D01*
X185978814Y-109728000D01*
X184785000Y-109728000D01*
X184531000Y-109728000D01*
X184511000Y-109728000D01*
X184511000Y-109474000D01*
X184531000Y-109474000D01*
X184531000Y-108280845D01*
X184785000Y-108280845D01*
X184785000Y-109474000D01*
X185978814Y-109474000D01*
X186099481Y-109244109D01*
X186002157Y-108969748D01*
X185853178Y-108719645D01*
X185658269Y-108503412D01*
X185424920Y-108329359D01*
X185162099Y-108204175D01*
X185014890Y-108159524D01*
X184785000Y-108280845D01*
X184531000Y-108280845D01*
X184301110Y-108159524D01*
X184153901Y-108204175D01*
X183891080Y-108329359D01*
X183657731Y-108503412D01*
X183581966Y-108587466D01*
X183557502Y-108506820D01*
X183498537Y-108396506D01*
X183419185Y-108299815D01*
X183322494Y-108220463D01*
X183212180Y-108161498D01*
X183092482Y-108125188D01*
X182968000Y-108112928D01*
X181268000Y-108112928D01*
X181143518Y-108125188D01*
X181023820Y-108161498D01*
X180913506Y-108220463D01*
X180816815Y-108299815D01*
X180737463Y-108396506D01*
X180678498Y-108506820D01*
X180642188Y-108626518D01*
X180629928Y-108751000D01*
X179648856Y-108751000D01*
X179630178Y-108719645D01*
X179435269Y-108503412D01*
X179201920Y-108329359D01*
X178939099Y-108204175D01*
X178791890Y-108159524D01*
X178562000Y-108280845D01*
X178308000Y-108280845D01*
X178078110Y-108159524D01*
X177930901Y-108204175D01*
X177668080Y-108329359D01*
X177434731Y-108503412D01*
X177239822Y-108719645D01*
X177170195Y-108836534D01*
X177048475Y-108654368D01*
X176841632Y-108447525D01*
X176598411Y-108285010D01*
X176328158Y-108173068D01*
X176041260Y-108116000D01*
X175748740Y-108116000D01*
X175461842Y-108173068D01*
X175191589Y-108285010D01*
X174948368Y-108447525D01*
X174816513Y-108579380D01*
X174794502Y-108506820D01*
X174735537Y-108396506D01*
X174656185Y-108299815D01*
X174559494Y-108220463D01*
X174449180Y-108161498D01*
X174329482Y-108125188D01*
X174205000Y-108112928D01*
X172505000Y-108112928D01*
X172380518Y-108125188D01*
X172260820Y-108161498D01*
X172150506Y-108220463D01*
X172053815Y-108299815D01*
X171974463Y-108396506D01*
X171915498Y-108506820D01*
X171879188Y-108626518D01*
X171866928Y-108751000D01*
X170885856Y-108751000D01*
X170867178Y-108719645D01*
X170672269Y-108503412D01*
X170438920Y-108329359D01*
X170176099Y-108204175D01*
X170028890Y-108159524D01*
X169799000Y-108280845D01*
X169545000Y-108280845D01*
X169315110Y-108159524D01*
X169167901Y-108204175D01*
X169162000Y-108206986D01*
X169162000Y-103998665D01*
X169253000Y-103998665D01*
X169253000Y-104281335D01*
X169308147Y-104558574D01*
X169416320Y-104819727D01*
X169573363Y-105054759D01*
X169773241Y-105254637D01*
X170008273Y-105411680D01*
X170269426Y-105519853D01*
X170546665Y-105575000D01*
X170829335Y-105575000D01*
X171106574Y-105519853D01*
X171367727Y-105411680D01*
X171602759Y-105254637D01*
X171802637Y-105054759D01*
X171959680Y-104819727D01*
X172067853Y-104558574D01*
X172123000Y-104281335D01*
X172123000Y-103998665D01*
X176873000Y-103998665D01*
X176873000Y-104281335D01*
X176928147Y-104558574D01*
X177036320Y-104819727D01*
X177193363Y-105054759D01*
X177393241Y-105254637D01*
X177628273Y-105411680D01*
X177889426Y-105519853D01*
X178166665Y-105575000D01*
X178449335Y-105575000D01*
X178726574Y-105519853D01*
X178987727Y-105411680D01*
X179222759Y-105254637D01*
X179422637Y-105054759D01*
X179579680Y-104819727D01*
X179687853Y-104558574D01*
X179743000Y-104281335D01*
X179743000Y-103998665D01*
X179687853Y-103721426D01*
X179579680Y-103460273D01*
X179422637Y-103225241D01*
X179222759Y-103025363D01*
X178987727Y-102868320D01*
X178726574Y-102760147D01*
X178449335Y-102705000D01*
X178166665Y-102705000D01*
X177889426Y-102760147D01*
X177628273Y-102868320D01*
X177393241Y-103025363D01*
X177193363Y-103225241D01*
X177036320Y-103460273D01*
X176928147Y-103721426D01*
X176873000Y-103998665D01*
X172123000Y-103998665D01*
X172067853Y-103721426D01*
X171959680Y-103460273D01*
X171802637Y-103225241D01*
X171602759Y-103025363D01*
X171367727Y-102868320D01*
X171106574Y-102760147D01*
X170829335Y-102705000D01*
X170546665Y-102705000D01*
X170269426Y-102760147D01*
X170008273Y-102868320D01*
X169773241Y-103025363D01*
X169573363Y-103225241D01*
X169416320Y-103460273D01*
X169308147Y-103721426D01*
X169253000Y-103998665D01*
X169162000Y-103998665D01*
X169162000Y-102704000D01*
X186979928Y-102704000D01*
X186992188Y-102828482D01*
X187028498Y-102948180D01*
X187087463Y-103058494D01*
X187166815Y-103155185D01*
X187263506Y-103234537D01*
X187373820Y-103293502D01*
X187493518Y-103329812D01*
X187618000Y-103342072D01*
X188182250Y-103339000D01*
X188341000Y-103180250D01*
X188341000Y-101981000D01*
X188595000Y-101981000D01*
X188595000Y-103180250D01*
X188753750Y-103339000D01*
X189318000Y-103342072D01*
X189442482Y-103329812D01*
X189562180Y-103293502D01*
X189672494Y-103234537D01*
X189769185Y-103155185D01*
X189848537Y-103058494D01*
X189907502Y-102948180D01*
X189943812Y-102828482D01*
X189956072Y-102704000D01*
X189953000Y-102139750D01*
X189794250Y-101981000D01*
X188595000Y-101981000D01*
X188341000Y-101981000D01*
X187141750Y-101981000D01*
X186983000Y-102139750D01*
X186979928Y-102704000D01*
X169162000Y-102704000D01*
X169162000Y-87289322D01*
X169165676Y-87251999D01*
X169162000Y-87214676D01*
X169162000Y-87214667D01*
X169151003Y-87103014D01*
X169107546Y-86959753D01*
X169092018Y-86930703D01*
X169036974Y-86827723D01*
X168965799Y-86740997D01*
X168942001Y-86711999D01*
X168913003Y-86688201D01*
X168343576Y-86118775D01*
X168391300Y-85878850D01*
X168391300Y-85581150D01*
X168333222Y-85289170D01*
X168219297Y-85014131D01*
X168053904Y-84766602D01*
X167843398Y-84556096D01*
X167699580Y-84460000D01*
X167843398Y-84363904D01*
X168053904Y-84153398D01*
X168219297Y-83905869D01*
X168333222Y-83630830D01*
X168391300Y-83338850D01*
X168391300Y-83041150D01*
X180608700Y-83041150D01*
X180608700Y-83338850D01*
X180666778Y-83630830D01*
X180780703Y-83905869D01*
X180946096Y-84153398D01*
X181156602Y-84363904D01*
X181300420Y-84460000D01*
X181156602Y-84556096D01*
X180946096Y-84766602D01*
X180780703Y-85014131D01*
X180666778Y-85289170D01*
X180608700Y-85581150D01*
X180608700Y-85878850D01*
X180666778Y-86170830D01*
X180780703Y-86445869D01*
X180946096Y-86693398D01*
X181156602Y-86903904D01*
X181300420Y-87000000D01*
X181156602Y-87096096D01*
X180946096Y-87306602D01*
X180780703Y-87554131D01*
X180666778Y-87829170D01*
X180608700Y-88121150D01*
X180608700Y-88418850D01*
X180666778Y-88710830D01*
X180780703Y-88985869D01*
X180946096Y-89233398D01*
X181156602Y-89443904D01*
X181300420Y-89540000D01*
X181156602Y-89636096D01*
X180946096Y-89846602D01*
X180780703Y-90094131D01*
X180666778Y-90369170D01*
X180608700Y-90661150D01*
X180608700Y-90958850D01*
X180666778Y-91250830D01*
X180780703Y-91525869D01*
X180946096Y-91773398D01*
X181156602Y-91983904D01*
X181300420Y-92080000D01*
X181156602Y-92176096D01*
X180946096Y-92386602D01*
X180780703Y-92634131D01*
X180666778Y-92909170D01*
X180608700Y-93201150D01*
X180608700Y-93498850D01*
X180666778Y-93790830D01*
X180780703Y-94065869D01*
X180946096Y-94313398D01*
X181156602Y-94523904D01*
X181300420Y-94620000D01*
X181156602Y-94716096D01*
X180946096Y-94926602D01*
X180780703Y-95174131D01*
X180666778Y-95449170D01*
X180608700Y-95741150D01*
X180608700Y-96038850D01*
X180666778Y-96330830D01*
X180780703Y-96605869D01*
X180946096Y-96853398D01*
X181156602Y-97063904D01*
X181300420Y-97160000D01*
X181156602Y-97256096D01*
X180946096Y-97466602D01*
X180780703Y-97714131D01*
X180666778Y-97989170D01*
X180608700Y-98281150D01*
X180608700Y-98578850D01*
X180666778Y-98870830D01*
X180780703Y-99145869D01*
X180946096Y-99393398D01*
X181156602Y-99603904D01*
X181300420Y-99700000D01*
X181156602Y-99796096D01*
X180946096Y-100006602D01*
X180780703Y-100254131D01*
X180666778Y-100529170D01*
X180608700Y-100821150D01*
X180608700Y-101118850D01*
X180666778Y-101410830D01*
X180780703Y-101685869D01*
X180946096Y-101933398D01*
X181156602Y-102143904D01*
X181404131Y-102309297D01*
X181679170Y-102423222D01*
X181971150Y-102481300D01*
X182268850Y-102481300D01*
X182560830Y-102423222D01*
X182835869Y-102309297D01*
X183083398Y-102143904D01*
X183293904Y-101933398D01*
X183459297Y-101685869D01*
X183573222Y-101410830D01*
X183631300Y-101118850D01*
X183631300Y-101004000D01*
X186979928Y-101004000D01*
X186983000Y-101568250D01*
X187141750Y-101727000D01*
X188341000Y-101727000D01*
X188341000Y-101707000D01*
X188595000Y-101707000D01*
X188595000Y-101727000D01*
X189794250Y-101727000D01*
X189953000Y-101568250D01*
X189956072Y-101004000D01*
X189943812Y-100879518D01*
X189907502Y-100759820D01*
X189848537Y-100649506D01*
X189769185Y-100552815D01*
X189672494Y-100473463D01*
X189562180Y-100414498D01*
X189489620Y-100392487D01*
X189621475Y-100260632D01*
X189783990Y-100017411D01*
X189895932Y-99747158D01*
X189953000Y-99460260D01*
X189953000Y-99167740D01*
X189895932Y-98880842D01*
X189783990Y-98610589D01*
X189621475Y-98367368D01*
X189414632Y-98160525D01*
X189240240Y-98044000D01*
X189414632Y-97927475D01*
X189621475Y-97720632D01*
X189783990Y-97477411D01*
X189895932Y-97207158D01*
X189953000Y-96920260D01*
X189953000Y-96627740D01*
X189895932Y-96340842D01*
X189783990Y-96070589D01*
X189621475Y-95827368D01*
X189414632Y-95620525D01*
X189171411Y-95458010D01*
X188901158Y-95346068D01*
X188614260Y-95289000D01*
X188321740Y-95289000D01*
X188034842Y-95346068D01*
X187764589Y-95458010D01*
X187521368Y-95620525D01*
X187314525Y-95827368D01*
X187152010Y-96070589D01*
X187040068Y-96340842D01*
X186983000Y-96627740D01*
X186983000Y-96920260D01*
X187040068Y-97207158D01*
X187152010Y-97477411D01*
X187314525Y-97720632D01*
X187521368Y-97927475D01*
X187695760Y-98044000D01*
X187521368Y-98160525D01*
X187314525Y-98367368D01*
X187152010Y-98610589D01*
X187040068Y-98880842D01*
X186983000Y-99167740D01*
X186983000Y-99460260D01*
X187040068Y-99747158D01*
X187152010Y-100017411D01*
X187314525Y-100260632D01*
X187446380Y-100392487D01*
X187373820Y-100414498D01*
X187263506Y-100473463D01*
X187166815Y-100552815D01*
X187087463Y-100649506D01*
X187028498Y-100759820D01*
X186992188Y-100879518D01*
X186979928Y-101004000D01*
X183631300Y-101004000D01*
X183631300Y-100821150D01*
X183573222Y-100529170D01*
X183459297Y-100254131D01*
X183293904Y-100006602D01*
X183083398Y-99796096D01*
X182939580Y-99700000D01*
X183083398Y-99603904D01*
X183293904Y-99393398D01*
X183459297Y-99145869D01*
X183573222Y-98870830D01*
X183631300Y-98578850D01*
X183631300Y-98281150D01*
X183573222Y-97989170D01*
X183459297Y-97714131D01*
X183293904Y-97466602D01*
X183083398Y-97256096D01*
X182939580Y-97160000D01*
X183083398Y-97063904D01*
X183293904Y-96853398D01*
X183459297Y-96605869D01*
X183573222Y-96330830D01*
X183631300Y-96038850D01*
X183631300Y-95741150D01*
X183573222Y-95449170D01*
X183459297Y-95174131D01*
X183293904Y-94926602D01*
X183083398Y-94716096D01*
X182939580Y-94620000D01*
X183083398Y-94523904D01*
X183293904Y-94313398D01*
X183459297Y-94065869D01*
X183511019Y-93941000D01*
X186979928Y-93941000D01*
X186992188Y-94065482D01*
X187028498Y-94185180D01*
X187087463Y-94295494D01*
X187166815Y-94392185D01*
X187263506Y-94471537D01*
X187373820Y-94530502D01*
X187493518Y-94566812D01*
X187618000Y-94579072D01*
X188182250Y-94576000D01*
X188341000Y-94417250D01*
X188341000Y-93218000D01*
X188595000Y-93218000D01*
X188595000Y-94417250D01*
X188753750Y-94576000D01*
X189318000Y-94579072D01*
X189442482Y-94566812D01*
X189562180Y-94530502D01*
X189672494Y-94471537D01*
X189769185Y-94392185D01*
X189848537Y-94295494D01*
X189907502Y-94185180D01*
X189943812Y-94065482D01*
X189956072Y-93941000D01*
X189953000Y-93376750D01*
X189794250Y-93218000D01*
X188595000Y-93218000D01*
X188341000Y-93218000D01*
X187141750Y-93218000D01*
X186983000Y-93376750D01*
X186979928Y-93941000D01*
X183511019Y-93941000D01*
X183573222Y-93790830D01*
X183631300Y-93498850D01*
X183631300Y-93201150D01*
X183573222Y-92909170D01*
X183459297Y-92634131D01*
X183293904Y-92386602D01*
X183148302Y-92241000D01*
X186979928Y-92241000D01*
X186983000Y-92805250D01*
X187141750Y-92964000D01*
X188341000Y-92964000D01*
X188341000Y-92944000D01*
X188595000Y-92944000D01*
X188595000Y-92964000D01*
X189794250Y-92964000D01*
X189953000Y-92805250D01*
X189956072Y-92241000D01*
X189943812Y-92116518D01*
X189907502Y-91996820D01*
X189848537Y-91886506D01*
X189769185Y-91789815D01*
X189672494Y-91710463D01*
X189562180Y-91651498D01*
X189489620Y-91629487D01*
X189621475Y-91497632D01*
X189783990Y-91254411D01*
X189895932Y-90984158D01*
X189953000Y-90697260D01*
X189953000Y-90404740D01*
X189895932Y-90117842D01*
X189783990Y-89847589D01*
X189621475Y-89604368D01*
X189414632Y-89397525D01*
X189240240Y-89281000D01*
X189414632Y-89164475D01*
X189621475Y-88957632D01*
X189783990Y-88714411D01*
X189895932Y-88444158D01*
X189953000Y-88157260D01*
X189953000Y-87864740D01*
X189895932Y-87577842D01*
X189783990Y-87307589D01*
X189621475Y-87064368D01*
X189414632Y-86857525D01*
X189171411Y-86695010D01*
X188901158Y-86583068D01*
X188614260Y-86526000D01*
X188321740Y-86526000D01*
X188034842Y-86583068D01*
X187764589Y-86695010D01*
X187521368Y-86857525D01*
X187314525Y-87064368D01*
X187152010Y-87307589D01*
X187040068Y-87577842D01*
X186983000Y-87864740D01*
X186983000Y-88157260D01*
X187040068Y-88444158D01*
X187152010Y-88714411D01*
X187314525Y-88957632D01*
X187521368Y-89164475D01*
X187695760Y-89281000D01*
X187521368Y-89397525D01*
X187314525Y-89604368D01*
X187152010Y-89847589D01*
X187040068Y-90117842D01*
X186983000Y-90404740D01*
X186983000Y-90697260D01*
X187040068Y-90984158D01*
X187152010Y-91254411D01*
X187314525Y-91497632D01*
X187446380Y-91629487D01*
X187373820Y-91651498D01*
X187263506Y-91710463D01*
X187166815Y-91789815D01*
X187087463Y-91886506D01*
X187028498Y-91996820D01*
X186992188Y-92116518D01*
X186979928Y-92241000D01*
X183148302Y-92241000D01*
X183083398Y-92176096D01*
X182939580Y-92080000D01*
X183083398Y-91983904D01*
X183293904Y-91773398D01*
X183459297Y-91525869D01*
X183573222Y-91250830D01*
X183631300Y-90958850D01*
X183631300Y-90661150D01*
X183573222Y-90369170D01*
X183459297Y-90094131D01*
X183293904Y-89846602D01*
X183083398Y-89636096D01*
X182939580Y-89540000D01*
X183083398Y-89443904D01*
X183293904Y-89233398D01*
X183459297Y-88985869D01*
X183573222Y-88710830D01*
X183631300Y-88418850D01*
X183631300Y-88121150D01*
X183573222Y-87829170D01*
X183459297Y-87554131D01*
X183293904Y-87306602D01*
X183083398Y-87096096D01*
X182939580Y-87000000D01*
X183083398Y-86903904D01*
X183293904Y-86693398D01*
X183459297Y-86445869D01*
X183573222Y-86170830D01*
X183631300Y-85878850D01*
X183631300Y-85581150D01*
X183573222Y-85289170D01*
X183527174Y-85178000D01*
X186979928Y-85178000D01*
X186992188Y-85302482D01*
X187028498Y-85422180D01*
X187087463Y-85532494D01*
X187166815Y-85629185D01*
X187263506Y-85708537D01*
X187373820Y-85767502D01*
X187493518Y-85803812D01*
X187618000Y-85816072D01*
X188182250Y-85813000D01*
X188341000Y-85654250D01*
X188341000Y-84455000D01*
X188595000Y-84455000D01*
X188595000Y-85654250D01*
X188753750Y-85813000D01*
X189318000Y-85816072D01*
X189442482Y-85803812D01*
X189562180Y-85767502D01*
X189672494Y-85708537D01*
X189769185Y-85629185D01*
X189848537Y-85532494D01*
X189907502Y-85422180D01*
X189943812Y-85302482D01*
X189956072Y-85178000D01*
X189953000Y-84613750D01*
X189794250Y-84455000D01*
X188595000Y-84455000D01*
X188341000Y-84455000D01*
X187141750Y-84455000D01*
X186983000Y-84613750D01*
X186979928Y-85178000D01*
X183527174Y-85178000D01*
X183459297Y-85014131D01*
X183293904Y-84766602D01*
X183083398Y-84556096D01*
X182939580Y-84460000D01*
X183083398Y-84363904D01*
X183293904Y-84153398D01*
X183459297Y-83905869D01*
X183573222Y-83630830D01*
X183603621Y-83478000D01*
X186979928Y-83478000D01*
X186983000Y-84042250D01*
X187141750Y-84201000D01*
X188341000Y-84201000D01*
X188341000Y-84181000D01*
X188595000Y-84181000D01*
X188595000Y-84201000D01*
X189794250Y-84201000D01*
X189953000Y-84042250D01*
X189956072Y-83478000D01*
X189943812Y-83353518D01*
X189907502Y-83233820D01*
X189848537Y-83123506D01*
X189769185Y-83026815D01*
X189672494Y-82947463D01*
X189562180Y-82888498D01*
X189489620Y-82866487D01*
X189621475Y-82734632D01*
X189783990Y-82491411D01*
X189895932Y-82221158D01*
X189953000Y-81934260D01*
X189953000Y-81641740D01*
X189895932Y-81354842D01*
X189783990Y-81084589D01*
X189621475Y-80841368D01*
X189414632Y-80634525D01*
X189240240Y-80518000D01*
X189414632Y-80401475D01*
X189621475Y-80194632D01*
X189783990Y-79951411D01*
X189895932Y-79681158D01*
X189953000Y-79394260D01*
X189953000Y-79101740D01*
X189895932Y-78814842D01*
X189783990Y-78544589D01*
X189621475Y-78301368D01*
X189414632Y-78094525D01*
X189171411Y-77932010D01*
X188901158Y-77820068D01*
X188614260Y-77763000D01*
X188321740Y-77763000D01*
X188034842Y-77820068D01*
X187764589Y-77932010D01*
X187521368Y-78094525D01*
X187314525Y-78301368D01*
X187152010Y-78544589D01*
X187040068Y-78814842D01*
X186983000Y-79101740D01*
X186983000Y-79394260D01*
X187040068Y-79681158D01*
X187152010Y-79951411D01*
X187314525Y-80194632D01*
X187521368Y-80401475D01*
X187695760Y-80518000D01*
X187521368Y-80634525D01*
X187314525Y-80841368D01*
X187152010Y-81084589D01*
X187040068Y-81354842D01*
X186983000Y-81641740D01*
X186983000Y-81934260D01*
X187040068Y-82221158D01*
X187152010Y-82491411D01*
X187314525Y-82734632D01*
X187446380Y-82866487D01*
X187373820Y-82888498D01*
X187263506Y-82947463D01*
X187166815Y-83026815D01*
X187087463Y-83123506D01*
X187028498Y-83233820D01*
X186992188Y-83353518D01*
X186979928Y-83478000D01*
X183603621Y-83478000D01*
X183631300Y-83338850D01*
X183631300Y-83041150D01*
X183573222Y-82749170D01*
X183459297Y-82474131D01*
X183293904Y-82226602D01*
X183083398Y-82016096D01*
X182920191Y-81907045D01*
X182987563Y-81697169D01*
X182120000Y-80829605D01*
X181252437Y-81697169D01*
X181319809Y-81907045D01*
X181156602Y-82016096D01*
X180946096Y-82226602D01*
X180780703Y-82474131D01*
X180666778Y-82749170D01*
X180608700Y-83041150D01*
X168391300Y-83041150D01*
X168333222Y-82749170D01*
X168219297Y-82474131D01*
X168053904Y-82226602D01*
X167843398Y-82016096D01*
X167699580Y-81920000D01*
X167843398Y-81823904D01*
X168053904Y-81613398D01*
X168219297Y-81365869D01*
X168333222Y-81090830D01*
X168391300Y-80798850D01*
X168391300Y-80717491D01*
X180602887Y-80717491D01*
X180645204Y-81012167D01*
X180744198Y-81292927D01*
X180821071Y-81436746D01*
X181072831Y-81517563D01*
X181940395Y-80650000D01*
X182299605Y-80650000D01*
X183167169Y-81517563D01*
X183418929Y-81436746D01*
X183547457Y-81168221D01*
X183621129Y-80879781D01*
X183637113Y-80582509D01*
X183594796Y-80287833D01*
X183495802Y-80007073D01*
X183418929Y-79863254D01*
X183167169Y-79782437D01*
X182299605Y-80650000D01*
X181940395Y-80650000D01*
X181072831Y-79782437D01*
X180821071Y-79863254D01*
X180692543Y-80131779D01*
X180618871Y-80420219D01*
X180602887Y-80717491D01*
X168391300Y-80717491D01*
X168391300Y-80501150D01*
X168333222Y-80209170D01*
X168219297Y-79934131D01*
X168053904Y-79686602D01*
X167843398Y-79476096D01*
X167699580Y-79380000D01*
X167843398Y-79283904D01*
X168053904Y-79073398D01*
X168219297Y-78825869D01*
X168333222Y-78550830D01*
X168391300Y-78258850D01*
X168391300Y-77961150D01*
X168333222Y-77669170D01*
X168219297Y-77394131D01*
X168053904Y-77146602D01*
X167843398Y-76936096D01*
X167699580Y-76840000D01*
X167843398Y-76743904D01*
X168053904Y-76533398D01*
X168219297Y-76285869D01*
X168333222Y-76010830D01*
X168391300Y-75718850D01*
X168391300Y-75421150D01*
X168333222Y-75129170D01*
X168219297Y-74854131D01*
X168053904Y-74606602D01*
X167956458Y-74509156D01*
X168000480Y-74495802D01*
X168110794Y-74436837D01*
X168207485Y-74357485D01*
X168286837Y-74260794D01*
X168345802Y-74150480D01*
X168382112Y-74030782D01*
X168394372Y-73906300D01*
X168394372Y-72881150D01*
X180608700Y-72881150D01*
X180608700Y-73178850D01*
X180666778Y-73470830D01*
X180780703Y-73745869D01*
X180946096Y-73993398D01*
X181156602Y-74203904D01*
X181300420Y-74300000D01*
X181156602Y-74396096D01*
X180946096Y-74606602D01*
X180780703Y-74854131D01*
X180666778Y-75129170D01*
X180608700Y-75421150D01*
X180608700Y-75718850D01*
X180666778Y-76010830D01*
X180780703Y-76285869D01*
X180946096Y-76533398D01*
X181156602Y-76743904D01*
X181300420Y-76840000D01*
X181156602Y-76936096D01*
X180946096Y-77146602D01*
X180780703Y-77394131D01*
X180666778Y-77669170D01*
X180608700Y-77961150D01*
X180608700Y-78258850D01*
X180666778Y-78550830D01*
X180780703Y-78825869D01*
X180946096Y-79073398D01*
X181156602Y-79283904D01*
X181319809Y-79392955D01*
X181252437Y-79602831D01*
X182120000Y-80470395D01*
X182987563Y-79602831D01*
X182920191Y-79392955D01*
X183083398Y-79283904D01*
X183293904Y-79073398D01*
X183459297Y-78825869D01*
X183573222Y-78550830D01*
X183631300Y-78258850D01*
X183631300Y-77961150D01*
X183573222Y-77669170D01*
X183459297Y-77394131D01*
X183293904Y-77146602D01*
X183083398Y-76936096D01*
X182939580Y-76840000D01*
X183083398Y-76743904D01*
X183293904Y-76533398D01*
X183459297Y-76285869D01*
X183573222Y-76010830D01*
X183631300Y-75718850D01*
X183631300Y-75421150D01*
X183573222Y-75129170D01*
X183459297Y-74854131D01*
X183293904Y-74606602D01*
X183083398Y-74396096D01*
X182939580Y-74300000D01*
X183083398Y-74203904D01*
X183293904Y-73993398D01*
X183403672Y-73829117D01*
X186765000Y-73829117D01*
X186765000Y-74170883D01*
X186831675Y-74506081D01*
X186962463Y-74821831D01*
X187152337Y-75105998D01*
X187394002Y-75347663D01*
X187678169Y-75537537D01*
X187993919Y-75668325D01*
X188329117Y-75735000D01*
X188670883Y-75735000D01*
X189006081Y-75668325D01*
X189321831Y-75537537D01*
X189605998Y-75347663D01*
X189847663Y-75105998D01*
X190037537Y-74821831D01*
X190168325Y-74506081D01*
X190235000Y-74170883D01*
X190235000Y-73829117D01*
X190168325Y-73493919D01*
X190037537Y-73178169D01*
X189847663Y-72894002D01*
X189605998Y-72652337D01*
X189321831Y-72462463D01*
X189006081Y-72331675D01*
X188670883Y-72265000D01*
X188329117Y-72265000D01*
X187993919Y-72331675D01*
X187678169Y-72462463D01*
X187394002Y-72652337D01*
X187152337Y-72894002D01*
X186962463Y-73178169D01*
X186831675Y-73493919D01*
X186765000Y-73829117D01*
X183403672Y-73829117D01*
X183459297Y-73745869D01*
X183573222Y-73470830D01*
X183631300Y-73178850D01*
X183631300Y-72881150D01*
X183573222Y-72589170D01*
X183459297Y-72314131D01*
X183293904Y-72066602D01*
X183083398Y-71856096D01*
X182835869Y-71690703D01*
X182560830Y-71576778D01*
X182268850Y-71518700D01*
X181971150Y-71518700D01*
X181679170Y-71576778D01*
X181404131Y-71690703D01*
X181156602Y-71856096D01*
X180946096Y-72066602D01*
X180780703Y-72314131D01*
X180666778Y-72589170D01*
X180608700Y-72881150D01*
X168394372Y-72881150D01*
X168394372Y-72153700D01*
X168382112Y-72029218D01*
X168345802Y-71909520D01*
X168286837Y-71799206D01*
X168207485Y-71702515D01*
X168110794Y-71623163D01*
X168000480Y-71564198D01*
X167880782Y-71527888D01*
X167756300Y-71515628D01*
X166003700Y-71515628D01*
X165879218Y-71527888D01*
X165759520Y-71564198D01*
X165649206Y-71623163D01*
X165552515Y-71702515D01*
X165473163Y-71799206D01*
X165414198Y-71909520D01*
X165377888Y-72029218D01*
X165365628Y-72153700D01*
X165365628Y-73906300D01*
X165377888Y-74030782D01*
X165414198Y-74150480D01*
X165473163Y-74260794D01*
X165552515Y-74357485D01*
X165649206Y-74436837D01*
X165759520Y-74495802D01*
X165803542Y-74509156D01*
X165706096Y-74606602D01*
X165540703Y-74854131D01*
X165426778Y-75129170D01*
X165368700Y-75421150D01*
X165368700Y-75718850D01*
X165426778Y-76010830D01*
X165540703Y-76285869D01*
X165706096Y-76533398D01*
X165916602Y-76743904D01*
X166060420Y-76840000D01*
X165916602Y-76936096D01*
X165706096Y-77146602D01*
X165540703Y-77394131D01*
X165426778Y-77669170D01*
X165368700Y-77961150D01*
X165368700Y-78258850D01*
X165426778Y-78550830D01*
X165540703Y-78825869D01*
X165706096Y-79073398D01*
X165916602Y-79283904D01*
X166060420Y-79380000D01*
X165916602Y-79476096D01*
X165706096Y-79686602D01*
X165540703Y-79934131D01*
X165426778Y-80209170D01*
X165368700Y-80501150D01*
X165368700Y-80798850D01*
X165426778Y-81090830D01*
X165540703Y-81365869D01*
X165706096Y-81613398D01*
X165916602Y-81823904D01*
X166060420Y-81920000D01*
X165916602Y-82016096D01*
X165706096Y-82226602D01*
X165540703Y-82474131D01*
X165426778Y-82749170D01*
X165368700Y-83041150D01*
X165368700Y-83338850D01*
X165426778Y-83630830D01*
X165540703Y-83905869D01*
X165706096Y-84153398D01*
X165916602Y-84363904D01*
X166060420Y-84460000D01*
X165916602Y-84556096D01*
X165706096Y-84766602D01*
X165540703Y-85014131D01*
X165426778Y-85289170D01*
X165368700Y-85581150D01*
X165368700Y-85683899D01*
X163501804Y-83817003D01*
X163478001Y-83787999D01*
X163362276Y-83693026D01*
X163230247Y-83622454D01*
X163086986Y-83578997D01*
X162975333Y-83568000D01*
X162975322Y-83568000D01*
X162938000Y-83564324D01*
X162900678Y-83568000D01*
X161933178Y-83568000D01*
X161808475Y-83381368D01*
X161601632Y-83174525D01*
X161427240Y-83058000D01*
X161601632Y-82941475D01*
X161808475Y-82734632D01*
X161970990Y-82491411D01*
X162082932Y-82221158D01*
X162140000Y-81934260D01*
X162140000Y-81641740D01*
X162082932Y-81354842D01*
X161970990Y-81084589D01*
X161808475Y-80841368D01*
X161676620Y-80709513D01*
X161749180Y-80687502D01*
X161859494Y-80628537D01*
X161956185Y-80549185D01*
X162035537Y-80452494D01*
X162094502Y-80342180D01*
X162130812Y-80222482D01*
X162143072Y-80098000D01*
X162140000Y-79533750D01*
X161981250Y-79375000D01*
X160782000Y-79375000D01*
X160782000Y-79395000D01*
X160528000Y-79395000D01*
X160528000Y-79375000D01*
X159328750Y-79375000D01*
X159170000Y-79533750D01*
X159166928Y-80098000D01*
X157910000Y-80098000D01*
X157910000Y-78398000D01*
X159166928Y-78398000D01*
X159170000Y-78962250D01*
X159328750Y-79121000D01*
X160528000Y-79121000D01*
X160528000Y-77921750D01*
X160782000Y-77921750D01*
X160782000Y-79121000D01*
X161981250Y-79121000D01*
X162140000Y-78962250D01*
X162143072Y-78398000D01*
X162130812Y-78273518D01*
X162094502Y-78153820D01*
X162035537Y-78043506D01*
X161956185Y-77946815D01*
X161859494Y-77867463D01*
X161749180Y-77808498D01*
X161629482Y-77772188D01*
X161505000Y-77759928D01*
X160940750Y-77763000D01*
X160782000Y-77921750D01*
X160528000Y-77921750D01*
X160369250Y-77763000D01*
X159805000Y-77759928D01*
X159680518Y-77772188D01*
X159560820Y-77808498D01*
X159450506Y-77867463D01*
X159353815Y-77946815D01*
X159274463Y-78043506D01*
X159215498Y-78153820D01*
X159179188Y-78273518D01*
X159166928Y-78398000D01*
X157910000Y-78398000D01*
X157910000Y-73829117D01*
X158765000Y-73829117D01*
X158765000Y-74170883D01*
X158831675Y-74506081D01*
X158962463Y-74821831D01*
X159152337Y-75105998D01*
X159394002Y-75347663D01*
X159678169Y-75537537D01*
X159993919Y-75668325D01*
X160329117Y-75735000D01*
X160670883Y-75735000D01*
X161006081Y-75668325D01*
X161321831Y-75537537D01*
X161605998Y-75347663D01*
X161847663Y-75105998D01*
X162037537Y-74821831D01*
X162168325Y-74506081D01*
X162235000Y-74170883D01*
X162235000Y-73829117D01*
X162168325Y-73493919D01*
X162037537Y-73178169D01*
X161847663Y-72894002D01*
X161605998Y-72652337D01*
X161321831Y-72462463D01*
X161006081Y-72331675D01*
X160670883Y-72265000D01*
X160329117Y-72265000D01*
X159993919Y-72331675D01*
X159678169Y-72462463D01*
X159394002Y-72652337D01*
X159152337Y-72894002D01*
X158962463Y-73178169D01*
X158831675Y-73493919D01*
X158765000Y-73829117D01*
X157910000Y-73829117D01*
X157910000Y-71410000D01*
X191090000Y-71410000D01*
X191090001Y-73217572D01*
G37*
G04 #@! TD.AperFunction*
M02*
