G04 #@! TF.GenerationSoftware,KiCad,Pcbnew,(5.1.5-0-10_14)*
G04 #@! TF.CreationDate,2020-11-01T21:12:52+01:00*
G04 #@! TF.ProjectId,pro_micro_shield,70726f5f-6d69-4637-926f-5f736869656c,rev?*
G04 #@! TF.SameCoordinates,Original*
G04 #@! TF.FileFunction,Legend,Top*
G04 #@! TF.FilePolarity,Positive*
%FSLAX46Y46*%
G04 Gerber Fmt 4.6, Leading zero omitted, Abs format (unit mm)*
G04 Created by KiCad (PCBNEW (5.1.5-0-10_14)) date 2020-11-01 21:12:52*
%MOMM*%
%LPD*%
G04 APERTURE LIST*
%ADD10C,0.150000*%
%ADD11C,0.300000*%
%ADD12C,0.381000*%
G04 APERTURE END LIST*
D10*
X162500000Y-82488095D02*
X162547619Y-82392857D01*
X162547619Y-82250000D01*
X162500000Y-82107142D01*
X162404761Y-82011904D01*
X162309523Y-81964285D01*
X162119047Y-81916666D01*
X161976190Y-81916666D01*
X161785714Y-81964285D01*
X161690476Y-82011904D01*
X161595238Y-82107142D01*
X161547619Y-82250000D01*
X161547619Y-82345238D01*
X161595238Y-82488095D01*
X161642857Y-82535714D01*
X161976190Y-82535714D01*
X161976190Y-82345238D01*
X161547619Y-82964285D02*
X162547619Y-82964285D01*
X161547619Y-83535714D01*
X162547619Y-83535714D01*
X161547619Y-84011904D02*
X162547619Y-84011904D01*
X162547619Y-84250000D01*
X162500000Y-84392857D01*
X162404761Y-84488095D01*
X162309523Y-84535714D01*
X162119047Y-84583333D01*
X161976190Y-84583333D01*
X161785714Y-84535714D01*
X161690476Y-84488095D01*
X161595238Y-84392857D01*
X161547619Y-84250000D01*
X161547619Y-84011904D01*
X163571428Y-81000000D02*
X163571428Y-81333333D01*
X163047619Y-81476190D02*
X163047619Y-81000000D01*
X164047619Y-81000000D01*
X164047619Y-81476190D01*
X164047619Y-81809523D02*
X163047619Y-82476190D01*
X164047619Y-82476190D02*
X163047619Y-81809523D01*
X164047619Y-82714285D02*
X164047619Y-83285714D01*
X163047619Y-83000000D02*
X164047619Y-83000000D01*
X163047619Y-84190476D02*
X163523809Y-83857142D01*
X163047619Y-83619047D02*
X164047619Y-83619047D01*
X164047619Y-84000000D01*
X164000000Y-84095238D01*
X163952380Y-84142857D01*
X163857142Y-84190476D01*
X163714285Y-84190476D01*
X163619047Y-84142857D01*
X163571428Y-84095238D01*
X163523809Y-84000000D01*
X163523809Y-83619047D01*
X163333333Y-84571428D02*
X163333333Y-85047619D01*
X163047619Y-84476190D02*
X164047619Y-84809523D01*
X163047619Y-85142857D01*
X161547619Y-85761904D02*
X162547619Y-85761904D01*
X162547619Y-86000000D01*
X162500000Y-86142857D01*
X162404761Y-86238095D01*
X162309523Y-86285714D01*
X162119047Y-86333333D01*
X161976190Y-86333333D01*
X161785714Y-86285714D01*
X161690476Y-86238095D01*
X161595238Y-86142857D01*
X161547619Y-86000000D01*
X161547619Y-85761904D01*
X162214285Y-87190476D02*
X161547619Y-87190476D01*
X162595238Y-86952380D02*
X161880952Y-86714285D01*
X161880952Y-87333333D01*
X162547619Y-78666666D02*
X161547619Y-79000000D01*
X162547619Y-79333333D01*
X161642857Y-80238095D02*
X161595238Y-80190476D01*
X161547619Y-80047619D01*
X161547619Y-79952380D01*
X161595238Y-79809523D01*
X161690476Y-79714285D01*
X161785714Y-79666666D01*
X161976190Y-79619047D01*
X162119047Y-79619047D01*
X162309523Y-79666666D01*
X162404761Y-79714285D01*
X162500000Y-79809523D01*
X162547619Y-79952380D01*
X162547619Y-80047619D01*
X162500000Y-80190476D01*
X162452380Y-80238095D01*
X161642857Y-81238095D02*
X161595238Y-81190476D01*
X161547619Y-81047619D01*
X161547619Y-80952380D01*
X161595238Y-80809523D01*
X161690476Y-80714285D01*
X161785714Y-80666666D01*
X161976190Y-80619047D01*
X162119047Y-80619047D01*
X162309523Y-80666666D01*
X162404761Y-80714285D01*
X162500000Y-80809523D01*
X162547619Y-80952380D01*
X162547619Y-81047619D01*
X162500000Y-81190476D01*
X162452380Y-81238095D01*
X161547619Y-96261904D02*
X162547619Y-96261904D01*
X162547619Y-96500000D01*
X162500000Y-96642857D01*
X162404761Y-96738095D01*
X162309523Y-96785714D01*
X162119047Y-96833333D01*
X161976190Y-96833333D01*
X161785714Y-96785714D01*
X161690476Y-96738095D01*
X161595238Y-96642857D01*
X161547619Y-96500000D01*
X161547619Y-96261904D01*
X161547619Y-97309523D02*
X161547619Y-97500000D01*
X161595238Y-97595238D01*
X161642857Y-97642857D01*
X161785714Y-97738095D01*
X161976190Y-97785714D01*
X162357142Y-97785714D01*
X162452380Y-97738095D01*
X162500000Y-97690476D01*
X162547619Y-97595238D01*
X162547619Y-97404761D01*
X162500000Y-97309523D01*
X162452380Y-97261904D01*
X162357142Y-97214285D01*
X162119047Y-97214285D01*
X162023809Y-97261904D01*
X161976190Y-97309523D01*
X161928571Y-97404761D01*
X161928571Y-97595238D01*
X161976190Y-97690476D01*
X162023809Y-97738095D01*
X162119047Y-97785714D01*
X162500000Y-92988095D02*
X162547619Y-92892857D01*
X162547619Y-92750000D01*
X162500000Y-92607142D01*
X162404761Y-92511904D01*
X162309523Y-92464285D01*
X162119047Y-92416666D01*
X161976190Y-92416666D01*
X161785714Y-92464285D01*
X161690476Y-92511904D01*
X161595238Y-92607142D01*
X161547619Y-92750000D01*
X161547619Y-92845238D01*
X161595238Y-92988095D01*
X161642857Y-93035714D01*
X161976190Y-93035714D01*
X161976190Y-92845238D01*
X161547619Y-93464285D02*
X162547619Y-93464285D01*
X161547619Y-94035714D01*
X162547619Y-94035714D01*
X161547619Y-94511904D02*
X162547619Y-94511904D01*
X162547619Y-94750000D01*
X162500000Y-94892857D01*
X162404761Y-94988095D01*
X162309523Y-95035714D01*
X162119047Y-95083333D01*
X161976190Y-95083333D01*
X161785714Y-95035714D01*
X161690476Y-94988095D01*
X161595238Y-94892857D01*
X161547619Y-94750000D01*
X161547619Y-94511904D01*
X162547619Y-89166666D02*
X161547619Y-89500000D01*
X162547619Y-89833333D01*
X161642857Y-90738095D02*
X161595238Y-90690476D01*
X161547619Y-90547619D01*
X161547619Y-90452380D01*
X161595238Y-90309523D01*
X161690476Y-90214285D01*
X161785714Y-90166666D01*
X161976190Y-90119047D01*
X162119047Y-90119047D01*
X162309523Y-90166666D01*
X162404761Y-90214285D01*
X162500000Y-90309523D01*
X162547619Y-90452380D01*
X162547619Y-90547619D01*
X162500000Y-90690476D01*
X162452380Y-90738095D01*
X161642857Y-91738095D02*
X161595238Y-91690476D01*
X161547619Y-91547619D01*
X161547619Y-91452380D01*
X161595238Y-91309523D01*
X161690476Y-91214285D01*
X161785714Y-91166666D01*
X161976190Y-91119047D01*
X162119047Y-91119047D01*
X162309523Y-91166666D01*
X162404761Y-91214285D01*
X162500000Y-91309523D01*
X162547619Y-91452380D01*
X162547619Y-91547619D01*
X162500000Y-91690476D01*
X162452380Y-91738095D01*
X163095238Y-88309523D02*
X163047619Y-88452380D01*
X163047619Y-88690476D01*
X163095238Y-88785714D01*
X163142857Y-88833333D01*
X163238095Y-88880952D01*
X163333333Y-88880952D01*
X163428571Y-88833333D01*
X163476190Y-88785714D01*
X163523809Y-88690476D01*
X163571428Y-88500000D01*
X163619047Y-88404761D01*
X163666666Y-88357142D01*
X163761904Y-88309523D01*
X163857142Y-88309523D01*
X163952380Y-88357142D01*
X164000000Y-88404761D01*
X164047619Y-88500000D01*
X164047619Y-88738095D01*
X164000000Y-88880952D01*
X164047619Y-89166666D02*
X164047619Y-89738095D01*
X163047619Y-89452380D02*
X164047619Y-89452380D01*
X163333333Y-90023809D02*
X163333333Y-90500000D01*
X163047619Y-89928571D02*
X164047619Y-90261904D01*
X163047619Y-90595238D01*
X163047619Y-91500000D02*
X163523809Y-91166666D01*
X163047619Y-90928571D02*
X164047619Y-90928571D01*
X164047619Y-91309523D01*
X164000000Y-91404761D01*
X163952380Y-91452380D01*
X163857142Y-91500000D01*
X163714285Y-91500000D01*
X163619047Y-91452380D01*
X163571428Y-91404761D01*
X163523809Y-91309523D01*
X163523809Y-90928571D01*
X164047619Y-91785714D02*
X164047619Y-92357142D01*
X163047619Y-92071428D02*
X164047619Y-92071428D01*
X163571428Y-93785714D02*
X163523809Y-93928571D01*
X163476190Y-93976190D01*
X163380952Y-94023809D01*
X163238095Y-94023809D01*
X163142857Y-93976190D01*
X163095238Y-93928571D01*
X163047619Y-93833333D01*
X163047619Y-93452380D01*
X164047619Y-93452380D01*
X164047619Y-93785714D01*
X164000000Y-93880952D01*
X163952380Y-93928571D01*
X163857142Y-93976190D01*
X163761904Y-93976190D01*
X163666666Y-93928571D01*
X163619047Y-93880952D01*
X163571428Y-93785714D01*
X163571428Y-93452380D01*
X164047619Y-94452380D02*
X163238095Y-94452380D01*
X163142857Y-94500000D01*
X163095238Y-94547619D01*
X163047619Y-94642857D01*
X163047619Y-94833333D01*
X163095238Y-94928571D01*
X163142857Y-94976190D01*
X163238095Y-95023809D01*
X164047619Y-95023809D01*
X164047619Y-95357142D02*
X164047619Y-95928571D01*
X163047619Y-95642857D02*
X164047619Y-95642857D01*
X164047619Y-96119047D02*
X164047619Y-96690476D01*
X163047619Y-96404761D02*
X164047619Y-96404761D01*
X164047619Y-97214285D02*
X164047619Y-97404761D01*
X164000000Y-97500000D01*
X163904761Y-97595238D01*
X163714285Y-97642857D01*
X163380952Y-97642857D01*
X163190476Y-97595238D01*
X163095238Y-97500000D01*
X163047619Y-97404761D01*
X163047619Y-97214285D01*
X163095238Y-97119047D01*
X163190476Y-97023809D01*
X163380952Y-96976190D01*
X163714285Y-96976190D01*
X163904761Y-97023809D01*
X164000000Y-97119047D01*
X164047619Y-97214285D01*
X163047619Y-98071428D02*
X164047619Y-98071428D01*
X163047619Y-98642857D01*
X164047619Y-98642857D01*
X177726190Y-104202380D02*
X177250000Y-104202380D01*
X177250000Y-103202380D01*
X178011904Y-103916666D02*
X178488095Y-103916666D01*
X177916666Y-104202380D02*
X178250000Y-103202380D01*
X178583333Y-104202380D01*
X178869047Y-104154761D02*
X179011904Y-104202380D01*
X179250000Y-104202380D01*
X179345238Y-104154761D01*
X179392857Y-104107142D01*
X179440476Y-104011904D01*
X179440476Y-103916666D01*
X179392857Y-103821428D01*
X179345238Y-103773809D01*
X179250000Y-103726190D01*
X179059523Y-103678571D01*
X178964285Y-103630952D01*
X178916666Y-103583333D01*
X178869047Y-103488095D01*
X178869047Y-103392857D01*
X178916666Y-103297619D01*
X178964285Y-103250000D01*
X179059523Y-103202380D01*
X179297619Y-103202380D01*
X179440476Y-103250000D01*
X179869047Y-103678571D02*
X180202380Y-103678571D01*
X180345238Y-104202380D02*
X179869047Y-104202380D01*
X179869047Y-103202380D01*
X180345238Y-103202380D01*
X181345238Y-104202380D02*
X181011904Y-103726190D01*
X180773809Y-104202380D02*
X180773809Y-103202380D01*
X181154761Y-103202380D01*
X181250000Y-103250000D01*
X181297619Y-103297619D01*
X181345238Y-103392857D01*
X181345238Y-103535714D01*
X181297619Y-103630952D01*
X181250000Y-103678571D01*
X181154761Y-103726190D01*
X180773809Y-103726190D01*
X181726190Y-104154761D02*
X181869047Y-104202380D01*
X182107142Y-104202380D01*
X182202380Y-104154761D01*
X182250000Y-104107142D01*
X182297619Y-104011904D01*
X182297619Y-103916666D01*
X182250000Y-103821428D01*
X182202380Y-103773809D01*
X182107142Y-103726190D01*
X181916666Y-103678571D01*
X181821428Y-103630952D01*
X181773809Y-103583333D01*
X181726190Y-103488095D01*
X181726190Y-103392857D01*
X181773809Y-103297619D01*
X181821428Y-103250000D01*
X181916666Y-103202380D01*
X182154761Y-103202380D01*
X182297619Y-103250000D01*
X180166666Y-104702380D02*
X180500000Y-105702380D01*
X180833333Y-104702380D01*
X181738095Y-105607142D02*
X181690476Y-105654761D01*
X181547619Y-105702380D01*
X181452380Y-105702380D01*
X181309523Y-105654761D01*
X181214285Y-105559523D01*
X181166666Y-105464285D01*
X181119047Y-105273809D01*
X181119047Y-105130952D01*
X181166666Y-104940476D01*
X181214285Y-104845238D01*
X181309523Y-104750000D01*
X181452380Y-104702380D01*
X181547619Y-104702380D01*
X181690476Y-104750000D01*
X181738095Y-104797619D01*
X182738095Y-105607142D02*
X182690476Y-105654761D01*
X182547619Y-105702380D01*
X182452380Y-105702380D01*
X182309523Y-105654761D01*
X182214285Y-105559523D01*
X182166666Y-105464285D01*
X182119047Y-105273809D01*
X182119047Y-105130952D01*
X182166666Y-104940476D01*
X182214285Y-104845238D01*
X182309523Y-104750000D01*
X182452380Y-104702380D01*
X182547619Y-104702380D01*
X182690476Y-104750000D01*
X182738095Y-104797619D01*
X176988095Y-104750000D02*
X176892857Y-104702380D01*
X176750000Y-104702380D01*
X176607142Y-104750000D01*
X176511904Y-104845238D01*
X176464285Y-104940476D01*
X176416666Y-105130952D01*
X176416666Y-105273809D01*
X176464285Y-105464285D01*
X176511904Y-105559523D01*
X176607142Y-105654761D01*
X176750000Y-105702380D01*
X176845238Y-105702380D01*
X176988095Y-105654761D01*
X177035714Y-105607142D01*
X177035714Y-105273809D01*
X176845238Y-105273809D01*
X177464285Y-105702380D02*
X177464285Y-104702380D01*
X178035714Y-105702380D01*
X178035714Y-104702380D01*
X178511904Y-105702380D02*
X178511904Y-104702380D01*
X178750000Y-104702380D01*
X178892857Y-104750000D01*
X178988095Y-104845238D01*
X179035714Y-104940476D01*
X179083333Y-105130952D01*
X179083333Y-105273809D01*
X179035714Y-105464285D01*
X178988095Y-105559523D01*
X178892857Y-105654761D01*
X178750000Y-105702380D01*
X178511904Y-105702380D01*
D11*
X175245238Y-77083333D02*
X177245238Y-77083333D01*
X175816666Y-77750000D01*
X177245238Y-78416666D01*
X175245238Y-78416666D01*
X175245238Y-79369047D02*
X176578571Y-79369047D01*
X177245238Y-79369047D02*
X177150000Y-79273809D01*
X177054761Y-79369047D01*
X177150000Y-79464285D01*
X177245238Y-79369047D01*
X177054761Y-79369047D01*
X176578571Y-80321428D02*
X175245238Y-80321428D01*
X176388095Y-80321428D02*
X176483333Y-80416666D01*
X176578571Y-80607142D01*
X176578571Y-80892857D01*
X176483333Y-81083333D01*
X176292857Y-81178571D01*
X175245238Y-81178571D01*
X175245238Y-82130952D02*
X176578571Y-82130952D01*
X177245238Y-82130952D02*
X177150000Y-82035714D01*
X177054761Y-82130952D01*
X177150000Y-82226190D01*
X177245238Y-82130952D01*
X177054761Y-82130952D01*
X176578571Y-83940476D02*
X175245238Y-83940476D01*
X177340476Y-83464285D02*
X175911904Y-82988095D01*
X175911904Y-84226190D01*
X176578571Y-84797619D02*
X175245238Y-85178571D01*
X176197619Y-85559523D01*
X175245238Y-85940476D01*
X176578571Y-86321428D01*
X175245238Y-87940476D02*
X177245238Y-87940476D01*
X175340476Y-87940476D02*
X175245238Y-87750000D01*
X175245238Y-87369047D01*
X175340476Y-87178571D01*
X175435714Y-87083333D01*
X175626190Y-86988095D01*
X176197619Y-86988095D01*
X176388095Y-87083333D01*
X176483333Y-87178571D01*
X176578571Y-87369047D01*
X176578571Y-87750000D01*
X176483333Y-87940476D01*
X175435714Y-90035714D02*
X175340476Y-89940476D01*
X175245238Y-89654761D01*
X175245238Y-89464285D01*
X175340476Y-89178571D01*
X175530952Y-88988095D01*
X175721428Y-88892857D01*
X176102380Y-88797619D01*
X176388095Y-88797619D01*
X176769047Y-88892857D01*
X176959523Y-88988095D01*
X177150000Y-89178571D01*
X177245238Y-89464285D01*
X177245238Y-89654761D01*
X177150000Y-89940476D01*
X177054761Y-90035714D01*
X175245238Y-90892857D02*
X177245238Y-90892857D01*
X175245238Y-91750000D02*
X176292857Y-91750000D01*
X176483333Y-91654761D01*
X176578571Y-91464285D01*
X176578571Y-91178571D01*
X176483333Y-90988095D01*
X176388095Y-90892857D01*
X175245238Y-92702380D02*
X176578571Y-92702380D01*
X176197619Y-92702380D02*
X176388095Y-92797619D01*
X176483333Y-92892857D01*
X176578571Y-93083333D01*
X176578571Y-93273809D01*
X175245238Y-94226190D02*
X175340476Y-94035714D01*
X175435714Y-93940476D01*
X175626190Y-93845238D01*
X176197619Y-93845238D01*
X176388095Y-93940476D01*
X176483333Y-94035714D01*
X176578571Y-94226190D01*
X176578571Y-94511904D01*
X176483333Y-94702380D01*
X176388095Y-94797619D01*
X176197619Y-94892857D01*
X175626190Y-94892857D01*
X175435714Y-94797619D01*
X175340476Y-94702380D01*
X175245238Y-94511904D01*
X175245238Y-94226190D01*
X176578571Y-95750000D02*
X175245238Y-95750000D01*
X176388095Y-95750000D02*
X176483333Y-95845238D01*
X176578571Y-96035714D01*
X176578571Y-96321428D01*
X176483333Y-96511904D01*
X176292857Y-96607142D01*
X175245238Y-96607142D01*
X175245238Y-97845238D02*
X175340476Y-97654761D01*
X175435714Y-97559523D01*
X175626190Y-97464285D01*
X176197619Y-97464285D01*
X176388095Y-97559523D01*
X176483333Y-97654761D01*
X176578571Y-97845238D01*
X176578571Y-98130952D01*
X176483333Y-98321428D01*
X176388095Y-98416666D01*
X176197619Y-98511904D01*
X175626190Y-98511904D01*
X175435714Y-98416666D01*
X175340476Y-98321428D01*
X175245238Y-98130952D01*
X175245238Y-97845238D01*
X172040476Y-78702380D02*
X171945238Y-78988095D01*
X171945238Y-79464285D01*
X172040476Y-79654761D01*
X172135714Y-79750000D01*
X172326190Y-79845238D01*
X172516666Y-79845238D01*
X172707142Y-79750000D01*
X172802380Y-79654761D01*
X172897619Y-79464285D01*
X172992857Y-79083333D01*
X173088095Y-78892857D01*
X173183333Y-78797619D01*
X173373809Y-78702380D01*
X173564285Y-78702380D01*
X173754761Y-78797619D01*
X173850000Y-78892857D01*
X173945238Y-79083333D01*
X173945238Y-79559523D01*
X173850000Y-79845238D01*
X171945238Y-80702380D02*
X173945238Y-80702380D01*
X171945238Y-81559523D02*
X172992857Y-81559523D01*
X173183333Y-81464285D01*
X173278571Y-81273809D01*
X173278571Y-80988095D01*
X173183333Y-80797619D01*
X173088095Y-80702380D01*
X171945238Y-82511904D02*
X173278571Y-82511904D01*
X173945238Y-82511904D02*
X173850000Y-82416666D01*
X173754761Y-82511904D01*
X173850000Y-82607142D01*
X173945238Y-82511904D01*
X173754761Y-82511904D01*
X172040476Y-84226190D02*
X171945238Y-84035714D01*
X171945238Y-83654761D01*
X172040476Y-83464285D01*
X172230952Y-83369047D01*
X172992857Y-83369047D01*
X173183333Y-83464285D01*
X173278571Y-83654761D01*
X173278571Y-84035714D01*
X173183333Y-84226190D01*
X172992857Y-84321428D01*
X172802380Y-84321428D01*
X172611904Y-83369047D01*
X171945238Y-85464285D02*
X172040476Y-85273809D01*
X172230952Y-85178571D01*
X173945238Y-85178571D01*
X171945238Y-87083333D02*
X173945238Y-87083333D01*
X172040476Y-87083333D02*
X171945238Y-86892857D01*
X171945238Y-86511904D01*
X172040476Y-86321428D01*
X172135714Y-86226190D01*
X172326190Y-86130952D01*
X172897619Y-86130952D01*
X173088095Y-86226190D01*
X173183333Y-86321428D01*
X173278571Y-86511904D01*
X173278571Y-86892857D01*
X173183333Y-87083333D01*
X171945238Y-90702380D02*
X172897619Y-90035714D01*
X171945238Y-89559523D02*
X173945238Y-89559523D01*
X173945238Y-90321428D01*
X173850000Y-90511904D01*
X173754761Y-90607142D01*
X173564285Y-90702380D01*
X173278571Y-90702380D01*
X173088095Y-90607142D01*
X172992857Y-90511904D01*
X172897619Y-90321428D01*
X172897619Y-89559523D01*
X172040476Y-92321428D02*
X171945238Y-92130952D01*
X171945238Y-91750000D01*
X172040476Y-91559523D01*
X172230952Y-91464285D01*
X172992857Y-91464285D01*
X173183333Y-91559523D01*
X173278571Y-91750000D01*
X173278571Y-92130952D01*
X173183333Y-92321428D01*
X172992857Y-92416666D01*
X172802380Y-92416666D01*
X172611904Y-91464285D01*
X173278571Y-93083333D02*
X171945238Y-93559523D01*
X173278571Y-94035714D01*
X172135714Y-94797619D02*
X172040476Y-94892857D01*
X171945238Y-94797619D01*
X172040476Y-94702380D01*
X172135714Y-94797619D01*
X171945238Y-94797619D01*
X173754761Y-95654761D02*
X173850000Y-95750000D01*
X173945238Y-95940476D01*
X173945238Y-96416666D01*
X173850000Y-96607142D01*
X173754761Y-96702380D01*
X173564285Y-96797619D01*
X173373809Y-96797619D01*
X173088095Y-96702380D01*
X171945238Y-95559523D01*
X171945238Y-96797619D01*
D10*
X185904761Y-105869047D02*
X185952380Y-105726190D01*
X185952380Y-105488095D01*
X185904761Y-105392857D01*
X185857142Y-105345238D01*
X185761904Y-105297619D01*
X185666666Y-105297619D01*
X185571428Y-105345238D01*
X185523809Y-105392857D01*
X185476190Y-105488095D01*
X185428571Y-105678571D01*
X185380952Y-105773809D01*
X185333333Y-105821428D01*
X185238095Y-105869047D01*
X185142857Y-105869047D01*
X185047619Y-105821428D01*
X185000000Y-105773809D01*
X184952380Y-105678571D01*
X184952380Y-105440476D01*
X185000000Y-105297619D01*
X185428571Y-104869047D02*
X185428571Y-104535714D01*
X185952380Y-104392857D02*
X185952380Y-104869047D01*
X184952380Y-104869047D01*
X184952380Y-104392857D01*
X185952380Y-103964285D02*
X184952380Y-103964285D01*
X185952380Y-103392857D01*
X184952380Y-103392857D01*
X185904761Y-102964285D02*
X185952380Y-102821428D01*
X185952380Y-102583333D01*
X185904761Y-102488095D01*
X185857142Y-102440476D01*
X185761904Y-102392857D01*
X185666666Y-102392857D01*
X185571428Y-102440476D01*
X185523809Y-102488095D01*
X185476190Y-102583333D01*
X185428571Y-102773809D01*
X185380952Y-102869047D01*
X185333333Y-102916666D01*
X185238095Y-102964285D01*
X185142857Y-102964285D01*
X185047619Y-102916666D01*
X185000000Y-102869047D01*
X184952380Y-102773809D01*
X184952380Y-102535714D01*
X185000000Y-102392857D01*
X184952380Y-101773809D02*
X184952380Y-101583333D01*
X185000000Y-101488095D01*
X185095238Y-101392857D01*
X185285714Y-101345238D01*
X185619047Y-101345238D01*
X185809523Y-101392857D01*
X185904761Y-101488095D01*
X185952380Y-101583333D01*
X185952380Y-101773809D01*
X185904761Y-101869047D01*
X185809523Y-101964285D01*
X185619047Y-102011904D01*
X185285714Y-102011904D01*
X185095238Y-101964285D01*
X185000000Y-101869047D01*
X184952380Y-101773809D01*
X185952380Y-100345238D02*
X185476190Y-100678571D01*
X185952380Y-100916666D02*
X184952380Y-100916666D01*
X184952380Y-100535714D01*
X185000000Y-100440476D01*
X185047619Y-100392857D01*
X185142857Y-100345238D01*
X185285714Y-100345238D01*
X185380952Y-100392857D01*
X185428571Y-100440476D01*
X185476190Y-100535714D01*
X185476190Y-100916666D01*
X184952380Y-99250000D02*
X184952380Y-98630952D01*
X185333333Y-98964285D01*
X185333333Y-98821428D01*
X185380952Y-98726190D01*
X185428571Y-98678571D01*
X185523809Y-98630952D01*
X185761904Y-98630952D01*
X185857142Y-98678571D01*
X185904761Y-98726190D01*
X185952380Y-98821428D01*
X185952380Y-99107142D01*
X185904761Y-99202380D01*
X185857142Y-99250000D01*
X185904761Y-95369047D02*
X185952380Y-95226190D01*
X185952380Y-94988095D01*
X185904761Y-94892857D01*
X185857142Y-94845238D01*
X185761904Y-94797619D01*
X185666666Y-94797619D01*
X185571428Y-94845238D01*
X185523809Y-94892857D01*
X185476190Y-94988095D01*
X185428571Y-95178571D01*
X185380952Y-95273809D01*
X185333333Y-95321428D01*
X185238095Y-95369047D01*
X185142857Y-95369047D01*
X185047619Y-95321428D01*
X185000000Y-95273809D01*
X184952380Y-95178571D01*
X184952380Y-94940476D01*
X185000000Y-94797619D01*
X185428571Y-94369047D02*
X185428571Y-94035714D01*
X185952380Y-93892857D02*
X185952380Y-94369047D01*
X184952380Y-94369047D01*
X184952380Y-93892857D01*
X185952380Y-93464285D02*
X184952380Y-93464285D01*
X185952380Y-92892857D01*
X184952380Y-92892857D01*
X185904761Y-92464285D02*
X185952380Y-92321428D01*
X185952380Y-92083333D01*
X185904761Y-91988095D01*
X185857142Y-91940476D01*
X185761904Y-91892857D01*
X185666666Y-91892857D01*
X185571428Y-91940476D01*
X185523809Y-91988095D01*
X185476190Y-92083333D01*
X185428571Y-92273809D01*
X185380952Y-92369047D01*
X185333333Y-92416666D01*
X185238095Y-92464285D01*
X185142857Y-92464285D01*
X185047619Y-92416666D01*
X185000000Y-92369047D01*
X184952380Y-92273809D01*
X184952380Y-92035714D01*
X185000000Y-91892857D01*
X184952380Y-91273809D02*
X184952380Y-91083333D01*
X185000000Y-90988095D01*
X185095238Y-90892857D01*
X185285714Y-90845238D01*
X185619047Y-90845238D01*
X185809523Y-90892857D01*
X185904761Y-90988095D01*
X185952380Y-91083333D01*
X185952380Y-91273809D01*
X185904761Y-91369047D01*
X185809523Y-91464285D01*
X185619047Y-91511904D01*
X185285714Y-91511904D01*
X185095238Y-91464285D01*
X185000000Y-91369047D01*
X184952380Y-91273809D01*
X185952380Y-89845238D02*
X185476190Y-90178571D01*
X185952380Y-90416666D02*
X184952380Y-90416666D01*
X184952380Y-90035714D01*
X185000000Y-89940476D01*
X185047619Y-89892857D01*
X185142857Y-89845238D01*
X185285714Y-89845238D01*
X185380952Y-89892857D01*
X185428571Y-89940476D01*
X185476190Y-90035714D01*
X185476190Y-90416666D01*
X185047619Y-88702380D02*
X185000000Y-88654761D01*
X184952380Y-88559523D01*
X184952380Y-88321428D01*
X185000000Y-88226190D01*
X185047619Y-88178571D01*
X185142857Y-88130952D01*
X185238095Y-88130952D01*
X185380952Y-88178571D01*
X185952380Y-88750000D01*
X185952380Y-88130952D01*
X185904761Y-84869047D02*
X185952380Y-84726190D01*
X185952380Y-84488095D01*
X185904761Y-84392857D01*
X185857142Y-84345238D01*
X185761904Y-84297619D01*
X185666666Y-84297619D01*
X185571428Y-84345238D01*
X185523809Y-84392857D01*
X185476190Y-84488095D01*
X185428571Y-84678571D01*
X185380952Y-84773809D01*
X185333333Y-84821428D01*
X185238095Y-84869047D01*
X185142857Y-84869047D01*
X185047619Y-84821428D01*
X185000000Y-84773809D01*
X184952380Y-84678571D01*
X184952380Y-84440476D01*
X185000000Y-84297619D01*
X185428571Y-83869047D02*
X185428571Y-83535714D01*
X185952380Y-83392857D02*
X185952380Y-83869047D01*
X184952380Y-83869047D01*
X184952380Y-83392857D01*
X185952380Y-82964285D02*
X184952380Y-82964285D01*
X185952380Y-82392857D01*
X184952380Y-82392857D01*
X185904761Y-81964285D02*
X185952380Y-81821428D01*
X185952380Y-81583333D01*
X185904761Y-81488095D01*
X185857142Y-81440476D01*
X185761904Y-81392857D01*
X185666666Y-81392857D01*
X185571428Y-81440476D01*
X185523809Y-81488095D01*
X185476190Y-81583333D01*
X185428571Y-81773809D01*
X185380952Y-81869047D01*
X185333333Y-81916666D01*
X185238095Y-81964285D01*
X185142857Y-81964285D01*
X185047619Y-81916666D01*
X185000000Y-81869047D01*
X184952380Y-81773809D01*
X184952380Y-81535714D01*
X185000000Y-81392857D01*
X184952380Y-80773809D02*
X184952380Y-80583333D01*
X185000000Y-80488095D01*
X185095238Y-80392857D01*
X185285714Y-80345238D01*
X185619047Y-80345238D01*
X185809523Y-80392857D01*
X185904761Y-80488095D01*
X185952380Y-80583333D01*
X185952380Y-80773809D01*
X185904761Y-80869047D01*
X185809523Y-80964285D01*
X185619047Y-81011904D01*
X185285714Y-81011904D01*
X185095238Y-80964285D01*
X185000000Y-80869047D01*
X184952380Y-80773809D01*
X185952380Y-79345238D02*
X185476190Y-79678571D01*
X185952380Y-79916666D02*
X184952380Y-79916666D01*
X184952380Y-79535714D01*
X185000000Y-79440476D01*
X185047619Y-79392857D01*
X185142857Y-79345238D01*
X185285714Y-79345238D01*
X185380952Y-79392857D01*
X185428571Y-79440476D01*
X185476190Y-79535714D01*
X185476190Y-79916666D01*
X185952380Y-77630952D02*
X185952380Y-78202380D01*
X185952380Y-77916666D02*
X184952380Y-77916666D01*
X185095238Y-78011904D01*
X185190476Y-78107142D01*
X185238095Y-78202380D01*
X176226190Y-110452380D02*
X175892857Y-109976190D01*
X175654761Y-110452380D02*
X175654761Y-109452380D01*
X176035714Y-109452380D01*
X176130952Y-109500000D01*
X176178571Y-109547619D01*
X176226190Y-109642857D01*
X176226190Y-109785714D01*
X176178571Y-109880952D01*
X176130952Y-109928571D01*
X176035714Y-109976190D01*
X175654761Y-109976190D01*
X177178571Y-109500000D02*
X177083333Y-109452380D01*
X176940476Y-109452380D01*
X176797619Y-109500000D01*
X176702380Y-109595238D01*
X176654761Y-109690476D01*
X176607142Y-109880952D01*
X176607142Y-110023809D01*
X176654761Y-110214285D01*
X176702380Y-110309523D01*
X176797619Y-110404761D01*
X176940476Y-110452380D01*
X177035714Y-110452380D01*
X177178571Y-110404761D01*
X177226190Y-110357142D01*
X177226190Y-110023809D01*
X177035714Y-110023809D01*
X177988095Y-109928571D02*
X178130952Y-109976190D01*
X178178571Y-110023809D01*
X178226190Y-110119047D01*
X178226190Y-110261904D01*
X178178571Y-110357142D01*
X178130952Y-110404761D01*
X178035714Y-110452380D01*
X177654761Y-110452380D01*
X177654761Y-109452380D01*
X177988095Y-109452380D01*
X178083333Y-109500000D01*
X178130952Y-109547619D01*
X178178571Y-109642857D01*
X178178571Y-109738095D01*
X178130952Y-109833333D01*
X178083333Y-109880952D01*
X177988095Y-109928571D01*
X177654761Y-109928571D01*
X179369047Y-110404761D02*
X179511904Y-110452380D01*
X179750000Y-110452380D01*
X179845238Y-110404761D01*
X179892857Y-110357142D01*
X179940476Y-110261904D01*
X179940476Y-110166666D01*
X179892857Y-110071428D01*
X179845238Y-110023809D01*
X179750000Y-109976190D01*
X179559523Y-109928571D01*
X179464285Y-109880952D01*
X179416666Y-109833333D01*
X179369047Y-109738095D01*
X179369047Y-109642857D01*
X179416666Y-109547619D01*
X179464285Y-109500000D01*
X179559523Y-109452380D01*
X179797619Y-109452380D01*
X179940476Y-109500000D01*
X180226190Y-109452380D02*
X180797619Y-109452380D01*
X180511904Y-110452380D02*
X180511904Y-109452380D01*
X181702380Y-110452380D02*
X181369047Y-109976190D01*
X181130952Y-110452380D02*
X181130952Y-109452380D01*
X181511904Y-109452380D01*
X181607142Y-109500000D01*
X181654761Y-109547619D01*
X181702380Y-109642857D01*
X181702380Y-109785714D01*
X181654761Y-109880952D01*
X181607142Y-109928571D01*
X181511904Y-109976190D01*
X181130952Y-109976190D01*
X182130952Y-110452380D02*
X182130952Y-109452380D01*
X182607142Y-110452380D02*
X182607142Y-109452380D01*
X182988095Y-109452380D01*
X183083333Y-109500000D01*
X183130952Y-109547619D01*
X183178571Y-109642857D01*
X183178571Y-109785714D01*
X183130952Y-109880952D01*
X183083333Y-109928571D01*
X182988095Y-109976190D01*
X182607142Y-109976190D01*
X184321428Y-109547619D02*
X184369047Y-109500000D01*
X184464285Y-109452380D01*
X184702380Y-109452380D01*
X184797619Y-109500000D01*
X184845238Y-109547619D01*
X184892857Y-109642857D01*
X184892857Y-109738095D01*
X184845238Y-109880952D01*
X184273809Y-110452380D01*
X184892857Y-110452380D01*
X164726190Y-110452380D02*
X164392857Y-109976190D01*
X164154761Y-110452380D02*
X164154761Y-109452380D01*
X164535714Y-109452380D01*
X164630952Y-109500000D01*
X164678571Y-109547619D01*
X164726190Y-109642857D01*
X164726190Y-109785714D01*
X164678571Y-109880952D01*
X164630952Y-109928571D01*
X164535714Y-109976190D01*
X164154761Y-109976190D01*
X165678571Y-109500000D02*
X165583333Y-109452380D01*
X165440476Y-109452380D01*
X165297619Y-109500000D01*
X165202380Y-109595238D01*
X165154761Y-109690476D01*
X165107142Y-109880952D01*
X165107142Y-110023809D01*
X165154761Y-110214285D01*
X165202380Y-110309523D01*
X165297619Y-110404761D01*
X165440476Y-110452380D01*
X165535714Y-110452380D01*
X165678571Y-110404761D01*
X165726190Y-110357142D01*
X165726190Y-110023809D01*
X165535714Y-110023809D01*
X166488095Y-109928571D02*
X166630952Y-109976190D01*
X166678571Y-110023809D01*
X166726190Y-110119047D01*
X166726190Y-110261904D01*
X166678571Y-110357142D01*
X166630952Y-110404761D01*
X166535714Y-110452380D01*
X166154761Y-110452380D01*
X166154761Y-109452380D01*
X166488095Y-109452380D01*
X166583333Y-109500000D01*
X166630952Y-109547619D01*
X166678571Y-109642857D01*
X166678571Y-109738095D01*
X166630952Y-109833333D01*
X166583333Y-109880952D01*
X166488095Y-109928571D01*
X166154761Y-109928571D01*
X167869047Y-110404761D02*
X168011904Y-110452380D01*
X168250000Y-110452380D01*
X168345238Y-110404761D01*
X168392857Y-110357142D01*
X168440476Y-110261904D01*
X168440476Y-110166666D01*
X168392857Y-110071428D01*
X168345238Y-110023809D01*
X168250000Y-109976190D01*
X168059523Y-109928571D01*
X167964285Y-109880952D01*
X167916666Y-109833333D01*
X167869047Y-109738095D01*
X167869047Y-109642857D01*
X167916666Y-109547619D01*
X167964285Y-109500000D01*
X168059523Y-109452380D01*
X168297619Y-109452380D01*
X168440476Y-109500000D01*
X168726190Y-109452380D02*
X169297619Y-109452380D01*
X169011904Y-110452380D02*
X169011904Y-109452380D01*
X170202380Y-110452380D02*
X169869047Y-109976190D01*
X169630952Y-110452380D02*
X169630952Y-109452380D01*
X170011904Y-109452380D01*
X170107142Y-109500000D01*
X170154761Y-109547619D01*
X170202380Y-109642857D01*
X170202380Y-109785714D01*
X170154761Y-109880952D01*
X170107142Y-109928571D01*
X170011904Y-109976190D01*
X169630952Y-109976190D01*
X170630952Y-110452380D02*
X170630952Y-109452380D01*
X171107142Y-110452380D02*
X171107142Y-109452380D01*
X171488095Y-109452380D01*
X171583333Y-109500000D01*
X171630952Y-109547619D01*
X171678571Y-109642857D01*
X171678571Y-109785714D01*
X171630952Y-109880952D01*
X171583333Y-109928571D01*
X171488095Y-109976190D01*
X171107142Y-109976190D01*
X173392857Y-110452380D02*
X172821428Y-110452380D01*
X173107142Y-110452380D02*
X173107142Y-109452380D01*
X173011904Y-109595238D01*
X172916666Y-109690476D01*
X172821428Y-109738095D01*
X165880952Y-104154761D02*
X166023809Y-104202380D01*
X166261904Y-104202380D01*
X166357142Y-104154761D01*
X166404761Y-104107142D01*
X166452380Y-104011904D01*
X166452380Y-103916666D01*
X166404761Y-103821428D01*
X166357142Y-103773809D01*
X166261904Y-103726190D01*
X166071428Y-103678571D01*
X165976190Y-103630952D01*
X165928571Y-103583333D01*
X165880952Y-103488095D01*
X165880952Y-103392857D01*
X165928571Y-103297619D01*
X165976190Y-103250000D01*
X166071428Y-103202380D01*
X166309523Y-103202380D01*
X166452380Y-103250000D01*
X166880952Y-104202380D02*
X166880952Y-103202380D01*
X167261904Y-103202380D01*
X167357142Y-103250000D01*
X167404761Y-103297619D01*
X167452380Y-103392857D01*
X167452380Y-103535714D01*
X167404761Y-103630952D01*
X167357142Y-103678571D01*
X167261904Y-103726190D01*
X166880952Y-103726190D01*
X167880952Y-103678571D02*
X168214285Y-103678571D01*
X168357142Y-104202380D02*
X167880952Y-104202380D01*
X167880952Y-103202380D01*
X168357142Y-103202380D01*
X168738095Y-103916666D02*
X169214285Y-103916666D01*
X168642857Y-104202380D02*
X168976190Y-103202380D01*
X169309523Y-104202380D01*
X169642857Y-104202380D02*
X169642857Y-103202380D01*
X170214285Y-104202380D02*
X169785714Y-103630952D01*
X170214285Y-103202380D02*
X169642857Y-103773809D01*
X170642857Y-103678571D02*
X170976190Y-103678571D01*
X171119047Y-104202380D02*
X170642857Y-104202380D01*
X170642857Y-103202380D01*
X171119047Y-103202380D01*
X172119047Y-104202380D02*
X171785714Y-103726190D01*
X171547619Y-104202380D02*
X171547619Y-103202380D01*
X171928571Y-103202380D01*
X172023809Y-103250000D01*
X172071428Y-103297619D01*
X172119047Y-103392857D01*
X172119047Y-103535714D01*
X172071428Y-103630952D01*
X172023809Y-103678571D01*
X171928571Y-103726190D01*
X171547619Y-103726190D01*
X187452380Y-99738095D02*
X186452380Y-99738095D01*
X186452380Y-99500000D01*
X186500000Y-99357142D01*
X186595238Y-99261904D01*
X186690476Y-99214285D01*
X186880952Y-99166666D01*
X187023809Y-99166666D01*
X187214285Y-99214285D01*
X187309523Y-99261904D01*
X187404761Y-99357142D01*
X187452380Y-99500000D01*
X187452380Y-99738095D01*
X186880952Y-98595238D02*
X186833333Y-98690476D01*
X186785714Y-98738095D01*
X186690476Y-98785714D01*
X186642857Y-98785714D01*
X186547619Y-98738095D01*
X186500000Y-98690476D01*
X186452380Y-98595238D01*
X186452380Y-98404761D01*
X186500000Y-98309523D01*
X186547619Y-98261904D01*
X186642857Y-98214285D01*
X186690476Y-98214285D01*
X186785714Y-98261904D01*
X186833333Y-98309523D01*
X186880952Y-98404761D01*
X186880952Y-98595238D01*
X186928571Y-98690476D01*
X186976190Y-98738095D01*
X187071428Y-98785714D01*
X187261904Y-98785714D01*
X187357142Y-98738095D01*
X187404761Y-98690476D01*
X187452380Y-98595238D01*
X187452380Y-98404761D01*
X187404761Y-98309523D01*
X187357142Y-98261904D01*
X187261904Y-98214285D01*
X187071428Y-98214285D01*
X186976190Y-98261904D01*
X186928571Y-98309523D01*
X186880952Y-98404761D01*
X187452380Y-88988095D02*
X186452380Y-88988095D01*
X186452380Y-88750000D01*
X186500000Y-88607142D01*
X186595238Y-88511904D01*
X186690476Y-88464285D01*
X186880952Y-88416666D01*
X187023809Y-88416666D01*
X187214285Y-88464285D01*
X187309523Y-88511904D01*
X187404761Y-88607142D01*
X187452380Y-88750000D01*
X187452380Y-88988095D01*
X186452380Y-88083333D02*
X186452380Y-87416666D01*
X187452380Y-87845238D01*
X187452380Y-78488095D02*
X186452380Y-78488095D01*
X186452380Y-78250000D01*
X186500000Y-78107142D01*
X186595238Y-78011904D01*
X186690476Y-77964285D01*
X186880952Y-77916666D01*
X187023809Y-77916666D01*
X187214285Y-77964285D01*
X187309523Y-78011904D01*
X187404761Y-78107142D01*
X187452380Y-78250000D01*
X187452380Y-78488095D01*
X186452380Y-77059523D02*
X186452380Y-77250000D01*
X186500000Y-77345238D01*
X186547619Y-77392857D01*
X186690476Y-77488095D01*
X186880952Y-77535714D01*
X187261904Y-77535714D01*
X187357142Y-77488095D01*
X187404761Y-77440476D01*
X187452380Y-77345238D01*
X187452380Y-77154761D01*
X187404761Y-77059523D01*
X187357142Y-77011904D01*
X187261904Y-76964285D01*
X187023809Y-76964285D01*
X186928571Y-77011904D01*
X186880952Y-77059523D01*
X186833333Y-77154761D01*
X186833333Y-77345238D01*
X186880952Y-77440476D01*
X186928571Y-77488095D01*
X187023809Y-77535714D01*
X179511904Y-111952380D02*
X179511904Y-110952380D01*
X179750000Y-110952380D01*
X179892857Y-111000000D01*
X179988095Y-111095238D01*
X180035714Y-111190476D01*
X180083333Y-111380952D01*
X180083333Y-111523809D01*
X180035714Y-111714285D01*
X179988095Y-111809523D01*
X179892857Y-111904761D01*
X179750000Y-111952380D01*
X179511904Y-111952380D01*
X180940476Y-111285714D02*
X180940476Y-111952380D01*
X180702380Y-110904761D02*
X180464285Y-111619047D01*
X181083333Y-111619047D01*
X168011904Y-111952380D02*
X168011904Y-110952380D01*
X168250000Y-110952380D01*
X168392857Y-111000000D01*
X168488095Y-111095238D01*
X168535714Y-111190476D01*
X168583333Y-111380952D01*
X168583333Y-111523809D01*
X168535714Y-111714285D01*
X168488095Y-111809523D01*
X168392857Y-111904761D01*
X168250000Y-111952380D01*
X168011904Y-111952380D01*
X168916666Y-110952380D02*
X169535714Y-110952380D01*
X169202380Y-111333333D01*
X169345238Y-111333333D01*
X169440476Y-111380952D01*
X169488095Y-111428571D01*
X169535714Y-111523809D01*
X169535714Y-111761904D01*
X169488095Y-111857142D01*
X169440476Y-111904761D01*
X169345238Y-111952380D01*
X169059523Y-111952380D01*
X168964285Y-111904761D01*
X168916666Y-111857142D01*
X170261904Y-105702380D02*
X170261904Y-104702380D01*
X170500000Y-104702380D01*
X170642857Y-104750000D01*
X170738095Y-104845238D01*
X170785714Y-104940476D01*
X170833333Y-105130952D01*
X170833333Y-105273809D01*
X170785714Y-105464285D01*
X170738095Y-105559523D01*
X170642857Y-105654761D01*
X170500000Y-105702380D01*
X170261904Y-105702380D01*
X171214285Y-104797619D02*
X171261904Y-104750000D01*
X171357142Y-104702380D01*
X171595238Y-104702380D01*
X171690476Y-104750000D01*
X171738095Y-104797619D01*
X171785714Y-104892857D01*
X171785714Y-104988095D01*
X171738095Y-105130952D01*
X171166666Y-105702380D01*
X171785714Y-105702380D01*
X186452380Y-85583333D02*
X187452380Y-85250000D01*
X186452380Y-84916666D01*
X187357142Y-84011904D02*
X187404761Y-84059523D01*
X187452380Y-84202380D01*
X187452380Y-84297619D01*
X187404761Y-84440476D01*
X187309523Y-84535714D01*
X187214285Y-84583333D01*
X187023809Y-84630952D01*
X186880952Y-84630952D01*
X186690476Y-84583333D01*
X186595238Y-84535714D01*
X186500000Y-84440476D01*
X186452380Y-84297619D01*
X186452380Y-84202380D01*
X186500000Y-84059523D01*
X186547619Y-84011904D01*
X187357142Y-83011904D02*
X187404761Y-83059523D01*
X187452380Y-83202380D01*
X187452380Y-83297619D01*
X187404761Y-83440476D01*
X187309523Y-83535714D01*
X187214285Y-83583333D01*
X187023809Y-83630952D01*
X186880952Y-83630952D01*
X186690476Y-83583333D01*
X186595238Y-83535714D01*
X186500000Y-83440476D01*
X186452380Y-83297619D01*
X186452380Y-83202380D01*
X186500000Y-83059523D01*
X186547619Y-83011904D01*
X186452380Y-96083333D02*
X187452380Y-95750000D01*
X186452380Y-95416666D01*
X187357142Y-94511904D02*
X187404761Y-94559523D01*
X187452380Y-94702380D01*
X187452380Y-94797619D01*
X187404761Y-94940476D01*
X187309523Y-95035714D01*
X187214285Y-95083333D01*
X187023809Y-95130952D01*
X186880952Y-95130952D01*
X186690476Y-95083333D01*
X186595238Y-95035714D01*
X186500000Y-94940476D01*
X186452380Y-94797619D01*
X186452380Y-94702380D01*
X186500000Y-94559523D01*
X186547619Y-94511904D01*
X187357142Y-93511904D02*
X187404761Y-93559523D01*
X187452380Y-93702380D01*
X187452380Y-93797619D01*
X187404761Y-93940476D01*
X187309523Y-94035714D01*
X187214285Y-94083333D01*
X187023809Y-94130952D01*
X186880952Y-94130952D01*
X186690476Y-94083333D01*
X186595238Y-94035714D01*
X186500000Y-93940476D01*
X186452380Y-93797619D01*
X186452380Y-93702380D01*
X186500000Y-93559523D01*
X186547619Y-93511904D01*
X186452380Y-106583333D02*
X187452380Y-106250000D01*
X186452380Y-105916666D01*
X187357142Y-105011904D02*
X187404761Y-105059523D01*
X187452380Y-105202380D01*
X187452380Y-105297619D01*
X187404761Y-105440476D01*
X187309523Y-105535714D01*
X187214285Y-105583333D01*
X187023809Y-105630952D01*
X186880952Y-105630952D01*
X186690476Y-105583333D01*
X186595238Y-105535714D01*
X186500000Y-105440476D01*
X186452380Y-105297619D01*
X186452380Y-105202380D01*
X186500000Y-105059523D01*
X186547619Y-105011904D01*
X187357142Y-104011904D02*
X187404761Y-104059523D01*
X187452380Y-104202380D01*
X187452380Y-104297619D01*
X187404761Y-104440476D01*
X187309523Y-104535714D01*
X187214285Y-104583333D01*
X187023809Y-104630952D01*
X186880952Y-104630952D01*
X186690476Y-104583333D01*
X186595238Y-104535714D01*
X186500000Y-104440476D01*
X186452380Y-104297619D01*
X186452380Y-104202380D01*
X186500000Y-104059523D01*
X186547619Y-104011904D01*
X181916666Y-110952380D02*
X182250000Y-111952380D01*
X182583333Y-110952380D01*
X183488095Y-111857142D02*
X183440476Y-111904761D01*
X183297619Y-111952380D01*
X183202380Y-111952380D01*
X183059523Y-111904761D01*
X182964285Y-111809523D01*
X182916666Y-111714285D01*
X182869047Y-111523809D01*
X182869047Y-111380952D01*
X182916666Y-111190476D01*
X182964285Y-111095238D01*
X183059523Y-111000000D01*
X183202380Y-110952380D01*
X183297619Y-110952380D01*
X183440476Y-111000000D01*
X183488095Y-111047619D01*
X184488095Y-111857142D02*
X184440476Y-111904761D01*
X184297619Y-111952380D01*
X184202380Y-111952380D01*
X184059523Y-111904761D01*
X183964285Y-111809523D01*
X183916666Y-111714285D01*
X183869047Y-111523809D01*
X183869047Y-111380952D01*
X183916666Y-111190476D01*
X183964285Y-111095238D01*
X184059523Y-111000000D01*
X184202380Y-110952380D01*
X184297619Y-110952380D01*
X184440476Y-111000000D01*
X184488095Y-111047619D01*
X170416666Y-110952380D02*
X170750000Y-111952380D01*
X171083333Y-110952380D01*
X171988095Y-111857142D02*
X171940476Y-111904761D01*
X171797619Y-111952380D01*
X171702380Y-111952380D01*
X171559523Y-111904761D01*
X171464285Y-111809523D01*
X171416666Y-111714285D01*
X171369047Y-111523809D01*
X171369047Y-111380952D01*
X171416666Y-111190476D01*
X171464285Y-111095238D01*
X171559523Y-111000000D01*
X171702380Y-110952380D01*
X171797619Y-110952380D01*
X171940476Y-111000000D01*
X171988095Y-111047619D01*
X172988095Y-111857142D02*
X172940476Y-111904761D01*
X172797619Y-111952380D01*
X172702380Y-111952380D01*
X172559523Y-111904761D01*
X172464285Y-111809523D01*
X172416666Y-111714285D01*
X172369047Y-111523809D01*
X172369047Y-111380952D01*
X172416666Y-111190476D01*
X172464285Y-111095238D01*
X172559523Y-111000000D01*
X172702380Y-110952380D01*
X172797619Y-110952380D01*
X172940476Y-111000000D01*
X172988095Y-111047619D01*
X186500000Y-81761904D02*
X186452380Y-81857142D01*
X186452380Y-82000000D01*
X186500000Y-82142857D01*
X186595238Y-82238095D01*
X186690476Y-82285714D01*
X186880952Y-82333333D01*
X187023809Y-82333333D01*
X187214285Y-82285714D01*
X187309523Y-82238095D01*
X187404761Y-82142857D01*
X187452380Y-82000000D01*
X187452380Y-81904761D01*
X187404761Y-81761904D01*
X187357142Y-81714285D01*
X187023809Y-81714285D01*
X187023809Y-81904761D01*
X187452380Y-81285714D02*
X186452380Y-81285714D01*
X187452380Y-80714285D01*
X186452380Y-80714285D01*
X187452380Y-80238095D02*
X186452380Y-80238095D01*
X186452380Y-80000000D01*
X186500000Y-79857142D01*
X186595238Y-79761904D01*
X186690476Y-79714285D01*
X186880952Y-79666666D01*
X187023809Y-79666666D01*
X187214285Y-79714285D01*
X187309523Y-79761904D01*
X187404761Y-79857142D01*
X187452380Y-80000000D01*
X187452380Y-80238095D01*
X186500000Y-92261904D02*
X186452380Y-92357142D01*
X186452380Y-92500000D01*
X186500000Y-92642857D01*
X186595238Y-92738095D01*
X186690476Y-92785714D01*
X186880952Y-92833333D01*
X187023809Y-92833333D01*
X187214285Y-92785714D01*
X187309523Y-92738095D01*
X187404761Y-92642857D01*
X187452380Y-92500000D01*
X187452380Y-92404761D01*
X187404761Y-92261904D01*
X187357142Y-92214285D01*
X187023809Y-92214285D01*
X187023809Y-92404761D01*
X187452380Y-91785714D02*
X186452380Y-91785714D01*
X187452380Y-91214285D01*
X186452380Y-91214285D01*
X187452380Y-90738095D02*
X186452380Y-90738095D01*
X186452380Y-90500000D01*
X186500000Y-90357142D01*
X186595238Y-90261904D01*
X186690476Y-90214285D01*
X186880952Y-90166666D01*
X187023809Y-90166666D01*
X187214285Y-90214285D01*
X187309523Y-90261904D01*
X187404761Y-90357142D01*
X187452380Y-90500000D01*
X187452380Y-90738095D01*
X186500000Y-102761904D02*
X186452380Y-102857142D01*
X186452380Y-103000000D01*
X186500000Y-103142857D01*
X186595238Y-103238095D01*
X186690476Y-103285714D01*
X186880952Y-103333333D01*
X187023809Y-103333333D01*
X187214285Y-103285714D01*
X187309523Y-103238095D01*
X187404761Y-103142857D01*
X187452380Y-103000000D01*
X187452380Y-102904761D01*
X187404761Y-102761904D01*
X187357142Y-102714285D01*
X187023809Y-102714285D01*
X187023809Y-102904761D01*
X187452380Y-102285714D02*
X186452380Y-102285714D01*
X187452380Y-101714285D01*
X186452380Y-101714285D01*
X187452380Y-101238095D02*
X186452380Y-101238095D01*
X186452380Y-101000000D01*
X186500000Y-100857142D01*
X186595238Y-100761904D01*
X186690476Y-100714285D01*
X186880952Y-100666666D01*
X187023809Y-100666666D01*
X187214285Y-100714285D01*
X187309523Y-100761904D01*
X187404761Y-100857142D01*
X187452380Y-101000000D01*
X187452380Y-101238095D01*
X166488095Y-104750000D02*
X166392857Y-104702380D01*
X166250000Y-104702380D01*
X166107142Y-104750000D01*
X166011904Y-104845238D01*
X165964285Y-104940476D01*
X165916666Y-105130952D01*
X165916666Y-105273809D01*
X165964285Y-105464285D01*
X166011904Y-105559523D01*
X166107142Y-105654761D01*
X166250000Y-105702380D01*
X166345238Y-105702380D01*
X166488095Y-105654761D01*
X166535714Y-105607142D01*
X166535714Y-105273809D01*
X166345238Y-105273809D01*
X166964285Y-105702380D02*
X166964285Y-104702380D01*
X167535714Y-105702380D01*
X167535714Y-104702380D01*
X168011904Y-105702380D02*
X168011904Y-104702380D01*
X168250000Y-104702380D01*
X168392857Y-104750000D01*
X168488095Y-104845238D01*
X168535714Y-104940476D01*
X168583333Y-105130952D01*
X168583333Y-105273809D01*
X168535714Y-105464285D01*
X168488095Y-105559523D01*
X168392857Y-105654761D01*
X168250000Y-105702380D01*
X168011904Y-105702380D01*
X176238095Y-111000000D02*
X176142857Y-110952380D01*
X176000000Y-110952380D01*
X175857142Y-111000000D01*
X175761904Y-111095238D01*
X175714285Y-111190476D01*
X175666666Y-111380952D01*
X175666666Y-111523809D01*
X175714285Y-111714285D01*
X175761904Y-111809523D01*
X175857142Y-111904761D01*
X176000000Y-111952380D01*
X176095238Y-111952380D01*
X176238095Y-111904761D01*
X176285714Y-111857142D01*
X176285714Y-111523809D01*
X176095238Y-111523809D01*
X176714285Y-111952380D02*
X176714285Y-110952380D01*
X177285714Y-111952380D01*
X177285714Y-110952380D01*
X177761904Y-111952380D02*
X177761904Y-110952380D01*
X178000000Y-110952380D01*
X178142857Y-111000000D01*
X178238095Y-111095238D01*
X178285714Y-111190476D01*
X178333333Y-111380952D01*
X178333333Y-111523809D01*
X178285714Y-111714285D01*
X178238095Y-111809523D01*
X178142857Y-111904761D01*
X178000000Y-111952380D01*
X177761904Y-111952380D01*
X164738095Y-111000000D02*
X164642857Y-110952380D01*
X164500000Y-110952380D01*
X164357142Y-111000000D01*
X164261904Y-111095238D01*
X164214285Y-111190476D01*
X164166666Y-111380952D01*
X164166666Y-111523809D01*
X164214285Y-111714285D01*
X164261904Y-111809523D01*
X164357142Y-111904761D01*
X164500000Y-111952380D01*
X164595238Y-111952380D01*
X164738095Y-111904761D01*
X164785714Y-111857142D01*
X164785714Y-111523809D01*
X164595238Y-111523809D01*
X165214285Y-111952380D02*
X165214285Y-110952380D01*
X165785714Y-111952380D01*
X165785714Y-110952380D01*
X166261904Y-111952380D02*
X166261904Y-110952380D01*
X166500000Y-110952380D01*
X166642857Y-111000000D01*
X166738095Y-111095238D01*
X166785714Y-111190476D01*
X166833333Y-111380952D01*
X166833333Y-111523809D01*
X166785714Y-111714285D01*
X166738095Y-111809523D01*
X166642857Y-111904761D01*
X166500000Y-111952380D01*
X166261904Y-111952380D01*
D12*
X168150000Y-71760000D02*
X165610000Y-71760000D01*
X165610000Y-69220000D02*
X165610000Y-71760000D01*
X183390000Y-69220000D02*
X165610000Y-69220000D01*
X183390000Y-71760000D02*
X183390000Y-69220000D01*
D10*
G36*
X179431568Y-78239360D02*
G01*
X179431568Y-78439360D01*
X179331568Y-78439360D01*
X179331568Y-78239360D01*
X179431568Y-78239360D01*
G37*
X179431568Y-78239360D02*
X179431568Y-78439360D01*
X179331568Y-78439360D01*
X179331568Y-78239360D01*
X179431568Y-78239360D01*
G36*
X179031568Y-77639360D02*
G01*
X179031568Y-78439360D01*
X178931568Y-78439360D01*
X178931568Y-77639360D01*
X179031568Y-77639360D01*
G37*
X179031568Y-77639360D02*
X179031568Y-78439360D01*
X178931568Y-78439360D01*
X178931568Y-77639360D01*
X179031568Y-77639360D01*
G36*
X179431568Y-77639360D02*
G01*
X179431568Y-77739360D01*
X178931568Y-77739360D01*
X178931568Y-77639360D01*
X179431568Y-77639360D01*
G37*
X179431568Y-77639360D02*
X179431568Y-77739360D01*
X178931568Y-77739360D01*
X178931568Y-77639360D01*
X179431568Y-77639360D01*
G36*
X179231568Y-78039360D02*
G01*
X179231568Y-78139360D01*
X179131568Y-78139360D01*
X179131568Y-78039360D01*
X179231568Y-78039360D01*
G37*
X179231568Y-78039360D02*
X179231568Y-78139360D01*
X179131568Y-78139360D01*
X179131568Y-78039360D01*
X179231568Y-78039360D01*
G36*
X179431568Y-77639360D02*
G01*
X179431568Y-77939360D01*
X179331568Y-77939360D01*
X179331568Y-77639360D01*
X179431568Y-77639360D01*
G37*
X179431568Y-77639360D02*
X179431568Y-77939360D01*
X179331568Y-77939360D01*
X179331568Y-77639360D01*
X179431568Y-77639360D01*
D12*
X168150000Y-74300000D02*
X165610000Y-74300000D01*
X168150000Y-71760000D02*
X168150000Y-74300000D01*
X183390000Y-102240000D02*
X183390000Y-71760000D01*
X165610000Y-102240000D02*
X183390000Y-102240000D01*
X165610000Y-71760000D02*
X165610000Y-102240000D01*
D10*
X168737651Y-72591904D02*
X169194794Y-72591904D01*
X168966223Y-73391904D02*
X168966223Y-72591904D01*
X169385270Y-72591904D02*
X169918604Y-73391904D01*
X169918604Y-72591904D02*
X169385270Y-73391904D01*
X170375747Y-72591904D02*
X170451937Y-72591904D01*
X170528128Y-72630000D01*
X170566223Y-72668095D01*
X170604318Y-72744285D01*
X170642413Y-72896666D01*
X170642413Y-73087142D01*
X170604318Y-73239523D01*
X170566223Y-73315714D01*
X170528128Y-73353809D01*
X170451937Y-73391904D01*
X170375747Y-73391904D01*
X170299556Y-73353809D01*
X170261461Y-73315714D01*
X170223366Y-73239523D01*
X170185270Y-73087142D01*
X170185270Y-72896666D01*
X170223366Y-72744285D01*
X170261461Y-72668095D01*
X170299556Y-72630000D01*
X170375747Y-72591904D01*
X171556699Y-72553809D02*
X170870985Y-73582380D01*
X171823366Y-73391904D02*
X171823366Y-72591904D01*
X172013842Y-72591904D01*
X172128128Y-72630000D01*
X172204318Y-72706190D01*
X172242413Y-72782380D01*
X172280508Y-72934761D01*
X172280508Y-73049047D01*
X172242413Y-73201428D01*
X172204318Y-73277619D01*
X172128128Y-73353809D01*
X172013842Y-73391904D01*
X171823366Y-73391904D01*
X172547175Y-72591904D02*
X173042413Y-72591904D01*
X172775747Y-72896666D01*
X172890032Y-72896666D01*
X172966223Y-72934761D01*
X173004318Y-72972857D01*
X173042413Y-73049047D01*
X173042413Y-73239523D01*
X173004318Y-73315714D01*
X172966223Y-73353809D01*
X172890032Y-73391904D01*
X172661461Y-73391904D01*
X172585270Y-73353809D01*
X172547175Y-73315714D01*
X168448523Y-75931904D02*
X168448523Y-75131904D01*
X168639000Y-75131904D01*
X168753285Y-75170000D01*
X168829476Y-75246190D01*
X168867571Y-75322380D01*
X168905666Y-75474761D01*
X168905666Y-75589047D01*
X168867571Y-75741428D01*
X168829476Y-75817619D01*
X168753285Y-75893809D01*
X168639000Y-75931904D01*
X168448523Y-75931904D01*
X169210428Y-75208095D02*
X169248523Y-75170000D01*
X169324714Y-75131904D01*
X169515190Y-75131904D01*
X169591380Y-75170000D01*
X169629476Y-75208095D01*
X169667571Y-75284285D01*
X169667571Y-75360476D01*
X169629476Y-75474761D01*
X169172333Y-75931904D01*
X169667571Y-75931904D01*
X168448523Y-86091904D02*
X168448523Y-85291904D01*
X168639000Y-85291904D01*
X168753285Y-85330000D01*
X168829476Y-85406190D01*
X168867571Y-85482380D01*
X168905666Y-85634761D01*
X168905666Y-85749047D01*
X168867571Y-85901428D01*
X168829476Y-85977619D01*
X168753285Y-86053809D01*
X168639000Y-86091904D01*
X168448523Y-86091904D01*
X169400904Y-85291904D02*
X169477095Y-85291904D01*
X169553285Y-85330000D01*
X169591380Y-85368095D01*
X169629476Y-85444285D01*
X169667571Y-85596666D01*
X169667571Y-85787142D01*
X169629476Y-85939523D01*
X169591380Y-86015714D01*
X169553285Y-86053809D01*
X169477095Y-86091904D01*
X169400904Y-86091904D01*
X169324714Y-86053809D01*
X169286619Y-86015714D01*
X169248523Y-85939523D01*
X169210428Y-85787142D01*
X169210428Y-85596666D01*
X169248523Y-85444285D01*
X169286619Y-85368095D01*
X169324714Y-85330000D01*
X169400904Y-85291904D01*
X168448523Y-83551904D02*
X168448523Y-82751904D01*
X168639000Y-82751904D01*
X168753285Y-82790000D01*
X168829476Y-82866190D01*
X168867571Y-82942380D01*
X168905666Y-83094761D01*
X168905666Y-83209047D01*
X168867571Y-83361428D01*
X168829476Y-83437619D01*
X168753285Y-83513809D01*
X168639000Y-83551904D01*
X168448523Y-83551904D01*
X169667571Y-83551904D02*
X169210428Y-83551904D01*
X169439000Y-83551904D02*
X169439000Y-82751904D01*
X169362809Y-82866190D01*
X169286619Y-82942380D01*
X169210428Y-82980476D01*
X168429476Y-80250000D02*
X168353285Y-80211904D01*
X168239000Y-80211904D01*
X168124714Y-80250000D01*
X168048523Y-80326190D01*
X168010428Y-80402380D01*
X167972333Y-80554761D01*
X167972333Y-80669047D01*
X168010428Y-80821428D01*
X168048523Y-80897619D01*
X168124714Y-80973809D01*
X168239000Y-81011904D01*
X168315190Y-81011904D01*
X168429476Y-80973809D01*
X168467571Y-80935714D01*
X168467571Y-80669047D01*
X168315190Y-80669047D01*
X168810428Y-81011904D02*
X168810428Y-80211904D01*
X169267571Y-81011904D01*
X169267571Y-80211904D01*
X169648523Y-81011904D02*
X169648523Y-80211904D01*
X169839000Y-80211904D01*
X169953285Y-80250000D01*
X170029476Y-80326190D01*
X170067571Y-80402380D01*
X170105666Y-80554761D01*
X170105666Y-80669047D01*
X170067571Y-80821428D01*
X170029476Y-80897619D01*
X169953285Y-80973809D01*
X169839000Y-81011904D01*
X169648523Y-81011904D01*
X168429476Y-77710000D02*
X168353285Y-77671904D01*
X168239000Y-77671904D01*
X168124714Y-77710000D01*
X168048523Y-77786190D01*
X168010428Y-77862380D01*
X167972333Y-78014761D01*
X167972333Y-78129047D01*
X168010428Y-78281428D01*
X168048523Y-78357619D01*
X168124714Y-78433809D01*
X168239000Y-78471904D01*
X168315190Y-78471904D01*
X168429476Y-78433809D01*
X168467571Y-78395714D01*
X168467571Y-78129047D01*
X168315190Y-78129047D01*
X168810428Y-78471904D02*
X168810428Y-77671904D01*
X169267571Y-78471904D01*
X169267571Y-77671904D01*
X169648523Y-78471904D02*
X169648523Y-77671904D01*
X169839000Y-77671904D01*
X169953285Y-77710000D01*
X170029476Y-77786190D01*
X170067571Y-77862380D01*
X170105666Y-78014761D01*
X170105666Y-78129047D01*
X170067571Y-78281428D01*
X170029476Y-78357619D01*
X169953285Y-78433809D01*
X169839000Y-78471904D01*
X169648523Y-78471904D01*
X168448523Y-88631904D02*
X168448523Y-87831904D01*
X168639000Y-87831904D01*
X168753285Y-87870000D01*
X168829476Y-87946190D01*
X168867571Y-88022380D01*
X168905666Y-88174761D01*
X168905666Y-88289047D01*
X168867571Y-88441428D01*
X168829476Y-88517619D01*
X168753285Y-88593809D01*
X168639000Y-88631904D01*
X168448523Y-88631904D01*
X169591380Y-88098571D02*
X169591380Y-88631904D01*
X169400904Y-87793809D02*
X169210428Y-88365238D01*
X169705666Y-88365238D01*
X168905666Y-91095714D02*
X168867571Y-91133809D01*
X168753285Y-91171904D01*
X168677095Y-91171904D01*
X168562809Y-91133809D01*
X168486619Y-91057619D01*
X168448523Y-90981428D01*
X168410428Y-90829047D01*
X168410428Y-90714761D01*
X168448523Y-90562380D01*
X168486619Y-90486190D01*
X168562809Y-90410000D01*
X168677095Y-90371904D01*
X168753285Y-90371904D01*
X168867571Y-90410000D01*
X168905666Y-90448095D01*
X169591380Y-90371904D02*
X169439000Y-90371904D01*
X169362809Y-90410000D01*
X169324714Y-90448095D01*
X169248523Y-90562380D01*
X169210428Y-90714761D01*
X169210428Y-91019523D01*
X169248523Y-91095714D01*
X169286619Y-91133809D01*
X169362809Y-91171904D01*
X169515190Y-91171904D01*
X169591380Y-91133809D01*
X169629476Y-91095714D01*
X169667571Y-91019523D01*
X169667571Y-90829047D01*
X169629476Y-90752857D01*
X169591380Y-90714761D01*
X169515190Y-90676666D01*
X169362809Y-90676666D01*
X169286619Y-90714761D01*
X169248523Y-90752857D01*
X169210428Y-90829047D01*
X168448523Y-93711904D02*
X168448523Y-92911904D01*
X168639000Y-92911904D01*
X168753285Y-92950000D01*
X168829476Y-93026190D01*
X168867571Y-93102380D01*
X168905666Y-93254761D01*
X168905666Y-93369047D01*
X168867571Y-93521428D01*
X168829476Y-93597619D01*
X168753285Y-93673809D01*
X168639000Y-93711904D01*
X168448523Y-93711904D01*
X169172333Y-92911904D02*
X169705666Y-92911904D01*
X169362809Y-93711904D01*
X168486619Y-95832857D02*
X168753285Y-95832857D01*
X168867571Y-96251904D02*
X168486619Y-96251904D01*
X168486619Y-95451904D01*
X168867571Y-95451904D01*
X169553285Y-95451904D02*
X169400904Y-95451904D01*
X169324714Y-95490000D01*
X169286619Y-95528095D01*
X169210428Y-95642380D01*
X169172333Y-95794761D01*
X169172333Y-96099523D01*
X169210428Y-96175714D01*
X169248523Y-96213809D01*
X169324714Y-96251904D01*
X169477095Y-96251904D01*
X169553285Y-96213809D01*
X169591380Y-96175714D01*
X169629476Y-96099523D01*
X169629476Y-95909047D01*
X169591380Y-95832857D01*
X169553285Y-95794761D01*
X169477095Y-95756666D01*
X169324714Y-95756666D01*
X169248523Y-95794761D01*
X169210428Y-95832857D01*
X169172333Y-95909047D01*
X168715190Y-98372857D02*
X168829476Y-98410952D01*
X168867571Y-98449047D01*
X168905666Y-98525238D01*
X168905666Y-98639523D01*
X168867571Y-98715714D01*
X168829476Y-98753809D01*
X168753285Y-98791904D01*
X168448523Y-98791904D01*
X168448523Y-97991904D01*
X168715190Y-97991904D01*
X168791380Y-98030000D01*
X168829476Y-98068095D01*
X168867571Y-98144285D01*
X168867571Y-98220476D01*
X168829476Y-98296666D01*
X168791380Y-98334761D01*
X168715190Y-98372857D01*
X168448523Y-98372857D01*
X169591380Y-98258571D02*
X169591380Y-98791904D01*
X169400904Y-97953809D02*
X169210428Y-98525238D01*
X169705666Y-98525238D01*
X168715190Y-100912857D02*
X168829476Y-100950952D01*
X168867571Y-100989047D01*
X168905666Y-101065238D01*
X168905666Y-101179523D01*
X168867571Y-101255714D01*
X168829476Y-101293809D01*
X168753285Y-101331904D01*
X168448523Y-101331904D01*
X168448523Y-100531904D01*
X168715190Y-100531904D01*
X168791380Y-100570000D01*
X168829476Y-100608095D01*
X168867571Y-100684285D01*
X168867571Y-100760476D01*
X168829476Y-100836666D01*
X168791380Y-100874761D01*
X168715190Y-100912857D01*
X168448523Y-100912857D01*
X169629476Y-100531904D02*
X169248523Y-100531904D01*
X169210428Y-100912857D01*
X169248523Y-100874761D01*
X169324714Y-100836666D01*
X169515190Y-100836666D01*
X169591380Y-100874761D01*
X169629476Y-100912857D01*
X169667571Y-100989047D01*
X169667571Y-101179523D01*
X169629476Y-101255714D01*
X169591380Y-101293809D01*
X169515190Y-101331904D01*
X169324714Y-101331904D01*
X169248523Y-101293809D01*
X169210428Y-101255714D01*
X179637190Y-100912857D02*
X179751476Y-100950952D01*
X179789571Y-100989047D01*
X179827666Y-101065238D01*
X179827666Y-101179523D01*
X179789571Y-101255714D01*
X179751476Y-101293809D01*
X179675285Y-101331904D01*
X179370523Y-101331904D01*
X179370523Y-100531904D01*
X179637190Y-100531904D01*
X179713380Y-100570000D01*
X179751476Y-100608095D01*
X179789571Y-100684285D01*
X179789571Y-100760476D01*
X179751476Y-100836666D01*
X179713380Y-100874761D01*
X179637190Y-100912857D01*
X179370523Y-100912857D01*
X180513380Y-100531904D02*
X180361000Y-100531904D01*
X180284809Y-100570000D01*
X180246714Y-100608095D01*
X180170523Y-100722380D01*
X180132428Y-100874761D01*
X180132428Y-101179523D01*
X180170523Y-101255714D01*
X180208619Y-101293809D01*
X180284809Y-101331904D01*
X180437190Y-101331904D01*
X180513380Y-101293809D01*
X180551476Y-101255714D01*
X180589571Y-101179523D01*
X180589571Y-100989047D01*
X180551476Y-100912857D01*
X180513380Y-100874761D01*
X180437190Y-100836666D01*
X180284809Y-100836666D01*
X180208619Y-100874761D01*
X180170523Y-100912857D01*
X180132428Y-100989047D01*
X179637190Y-95832857D02*
X179751476Y-95870952D01*
X179789571Y-95909047D01*
X179827666Y-95985238D01*
X179827666Y-96099523D01*
X179789571Y-96175714D01*
X179751476Y-96213809D01*
X179675285Y-96251904D01*
X179370523Y-96251904D01*
X179370523Y-95451904D01*
X179637190Y-95451904D01*
X179713380Y-95490000D01*
X179751476Y-95528095D01*
X179789571Y-95604285D01*
X179789571Y-95680476D01*
X179751476Y-95756666D01*
X179713380Y-95794761D01*
X179637190Y-95832857D01*
X179370523Y-95832857D01*
X180094333Y-95451904D02*
X180589571Y-95451904D01*
X180322904Y-95756666D01*
X180437190Y-95756666D01*
X180513380Y-95794761D01*
X180551476Y-95832857D01*
X180589571Y-95909047D01*
X180589571Y-96099523D01*
X180551476Y-96175714D01*
X180513380Y-96213809D01*
X180437190Y-96251904D01*
X180208619Y-96251904D01*
X180132428Y-96213809D01*
X180094333Y-96175714D01*
X179637190Y-93292857D02*
X179751476Y-93330952D01*
X179789571Y-93369047D01*
X179827666Y-93445238D01*
X179827666Y-93559523D01*
X179789571Y-93635714D01*
X179751476Y-93673809D01*
X179675285Y-93711904D01*
X179370523Y-93711904D01*
X179370523Y-92911904D01*
X179637190Y-92911904D01*
X179713380Y-92950000D01*
X179751476Y-92988095D01*
X179789571Y-93064285D01*
X179789571Y-93140476D01*
X179751476Y-93216666D01*
X179713380Y-93254761D01*
X179637190Y-93292857D01*
X179370523Y-93292857D01*
X180589571Y-93711904D02*
X180132428Y-93711904D01*
X180361000Y-93711904D02*
X180361000Y-92911904D01*
X180284809Y-93026190D01*
X180208619Y-93102380D01*
X180132428Y-93140476D01*
X179694333Y-83132857D02*
X179427666Y-83132857D01*
X179427666Y-83551904D02*
X179427666Y-82751904D01*
X179808619Y-82751904D01*
X180456238Y-83018571D02*
X180456238Y-83551904D01*
X180265761Y-82713809D02*
X180075285Y-83285238D01*
X180570523Y-83285238D01*
X178894333Y-80211904D02*
X179161000Y-81011904D01*
X179427666Y-80211904D01*
X180151476Y-80935714D02*
X180113380Y-80973809D01*
X179999095Y-81011904D01*
X179922904Y-81011904D01*
X179808619Y-80973809D01*
X179732428Y-80897619D01*
X179694333Y-80821428D01*
X179656238Y-80669047D01*
X179656238Y-80554761D01*
X179694333Y-80402380D01*
X179732428Y-80326190D01*
X179808619Y-80250000D01*
X179922904Y-80211904D01*
X179999095Y-80211904D01*
X180113380Y-80250000D01*
X180151476Y-80288095D01*
X180951476Y-80935714D02*
X180913380Y-80973809D01*
X180799095Y-81011904D01*
X180722904Y-81011904D01*
X180608619Y-80973809D01*
X180532428Y-80897619D01*
X180494333Y-80821428D01*
X180456238Y-80669047D01*
X180456238Y-80554761D01*
X180494333Y-80402380D01*
X180532428Y-80326190D01*
X180608619Y-80250000D01*
X180722904Y-80211904D01*
X180799095Y-80211904D01*
X180913380Y-80250000D01*
X180951476Y-80288095D01*
X179699786Y-78403809D02*
X179814072Y-78441904D01*
X180004548Y-78441904D01*
X180080739Y-78403809D01*
X180118834Y-78365714D01*
X180156929Y-78289523D01*
X180156929Y-78213333D01*
X180118834Y-78137142D01*
X180080739Y-78099047D01*
X180004548Y-78060952D01*
X179852167Y-78022857D01*
X179775977Y-77984761D01*
X179737881Y-77946666D01*
X179699786Y-77870476D01*
X179699786Y-77794285D01*
X179737881Y-77718095D01*
X179775977Y-77680000D01*
X179852167Y-77641904D01*
X180042643Y-77641904D01*
X180156929Y-77680000D01*
X180385500Y-77641904D02*
X180842643Y-77641904D01*
X180614072Y-78441904D02*
X180614072Y-77641904D01*
X179351476Y-75170000D02*
X179275285Y-75131904D01*
X179161000Y-75131904D01*
X179046714Y-75170000D01*
X178970523Y-75246190D01*
X178932428Y-75322380D01*
X178894333Y-75474761D01*
X178894333Y-75589047D01*
X178932428Y-75741428D01*
X178970523Y-75817619D01*
X179046714Y-75893809D01*
X179161000Y-75931904D01*
X179237190Y-75931904D01*
X179351476Y-75893809D01*
X179389571Y-75855714D01*
X179389571Y-75589047D01*
X179237190Y-75589047D01*
X179732428Y-75931904D02*
X179732428Y-75131904D01*
X180189571Y-75931904D01*
X180189571Y-75131904D01*
X180570523Y-75931904D02*
X180570523Y-75131904D01*
X180761000Y-75131904D01*
X180875285Y-75170000D01*
X180951476Y-75246190D01*
X180989571Y-75322380D01*
X181027666Y-75474761D01*
X181027666Y-75589047D01*
X180989571Y-75741428D01*
X180951476Y-75817619D01*
X180875285Y-75893809D01*
X180761000Y-75931904D01*
X180570523Y-75931904D01*
X179408619Y-73391904D02*
X179141952Y-73010952D01*
X178951476Y-73391904D02*
X178951476Y-72591904D01*
X179256238Y-72591904D01*
X179332428Y-72630000D01*
X179370523Y-72668095D01*
X179408619Y-72744285D01*
X179408619Y-72858571D01*
X179370523Y-72934761D01*
X179332428Y-72972857D01*
X179256238Y-73010952D01*
X178951476Y-73010952D01*
X179713380Y-73163333D02*
X180094333Y-73163333D01*
X179637190Y-73391904D02*
X179903857Y-72591904D01*
X180170523Y-73391904D01*
X180361000Y-72591904D02*
X180551476Y-73391904D01*
X180703857Y-72820476D01*
X180856238Y-73391904D01*
X181046714Y-72591904D01*
X179694333Y-85672857D02*
X179427666Y-85672857D01*
X179427666Y-86091904D02*
X179427666Y-85291904D01*
X179808619Y-85291904D01*
X180494333Y-85291904D02*
X180113380Y-85291904D01*
X180075285Y-85672857D01*
X180113380Y-85634761D01*
X180189571Y-85596666D01*
X180380047Y-85596666D01*
X180456238Y-85634761D01*
X180494333Y-85672857D01*
X180532428Y-85749047D01*
X180532428Y-85939523D01*
X180494333Y-86015714D01*
X180456238Y-86053809D01*
X180380047Y-86091904D01*
X180189571Y-86091904D01*
X180113380Y-86053809D01*
X180075285Y-86015714D01*
X179694333Y-88212857D02*
X179427666Y-88212857D01*
X179427666Y-88631904D02*
X179427666Y-87831904D01*
X179808619Y-87831904D01*
X180456238Y-87831904D02*
X180303857Y-87831904D01*
X180227666Y-87870000D01*
X180189571Y-87908095D01*
X180113380Y-88022380D01*
X180075285Y-88174761D01*
X180075285Y-88479523D01*
X180113380Y-88555714D01*
X180151476Y-88593809D01*
X180227666Y-88631904D01*
X180380047Y-88631904D01*
X180456238Y-88593809D01*
X180494333Y-88555714D01*
X180532428Y-88479523D01*
X180532428Y-88289047D01*
X180494333Y-88212857D01*
X180456238Y-88174761D01*
X180380047Y-88136666D01*
X180227666Y-88136666D01*
X180151476Y-88174761D01*
X180113380Y-88212857D01*
X180075285Y-88289047D01*
X179694333Y-90752857D02*
X179427666Y-90752857D01*
X179427666Y-91171904D02*
X179427666Y-90371904D01*
X179808619Y-90371904D01*
X180037190Y-90371904D02*
X180570523Y-90371904D01*
X180227666Y-91171904D01*
X179637190Y-98372857D02*
X179751476Y-98410952D01*
X179789571Y-98449047D01*
X179827666Y-98525238D01*
X179827666Y-98639523D01*
X179789571Y-98715714D01*
X179751476Y-98753809D01*
X179675285Y-98791904D01*
X179370523Y-98791904D01*
X179370523Y-97991904D01*
X179637190Y-97991904D01*
X179713380Y-98030000D01*
X179751476Y-98068095D01*
X179789571Y-98144285D01*
X179789571Y-98220476D01*
X179751476Y-98296666D01*
X179713380Y-98334761D01*
X179637190Y-98372857D01*
X179370523Y-98372857D01*
X180132428Y-98068095D02*
X180170523Y-98030000D01*
X180246714Y-97991904D01*
X180437190Y-97991904D01*
X180513380Y-98030000D01*
X180551476Y-98068095D01*
X180589571Y-98144285D01*
X180589571Y-98220476D01*
X180551476Y-98334761D01*
X180094333Y-98791904D01*
X180589571Y-98791904D01*
M02*
