M48
INCH
T1C0.0315
T2C0.0394
T3C0.0430
%
G90
G05
T1
X6.3091Y-4.2126
X6.3091Y-4.5126
T2
X7.4409Y-3.1526
X7.4409Y-3.2776
X7.4409Y-3.4026
X7.4409Y-3.9823
X7.4409Y-4.1073
X7.4409Y-4.2323
X6.5846Y-4.2224
X6.7346Y-4.2224
X6.998Y-4.2224
X7.148Y-4.2224
X6.5157Y-4.4685
X6.6407Y-4.4685
X6.7657Y-4.4685
X7.4409Y-3.5689
X7.4409Y-3.6939
X7.4409Y-3.8189
X6.2992Y-3.6024
X6.2992Y-3.7524
X6.9685Y-4.4685
X7.0935Y-4.4685
X7.2185Y-4.4685
X6.2992Y-3.1496
X6.2992Y-3.2746
X6.2992Y-3.3996
T3
X6.5701Y-2.8752
X6.5701Y-2.9752
X6.5701Y-3.0752
X6.5701Y-3.1752
X6.5701Y-3.2752
X6.5701Y-3.3752
X6.5701Y-3.4752
X6.5701Y-3.5752
X6.5701Y-3.6752
X6.5701Y-3.7752
X6.5701Y-3.8752
X6.5701Y-3.9752
X7.1701Y-2.8752
X7.1701Y-2.9752
X7.1701Y-3.0752
X7.1701Y-3.1752
X7.1701Y-3.2752
X7.1701Y-3.3752
X7.1701Y-3.4752
X7.1701Y-3.5752
X7.1701Y-3.6752
X7.1701Y-3.7752
X7.1701Y-3.8752
X7.1701Y-3.9752
T0
M30
