G04 #@! TF.GenerationSoftware,KiCad,Pcbnew,(5.1.5-0-10_14)*
G04 #@! TF.CreationDate,2020-11-01T21:12:52+01:00*
G04 #@! TF.ProjectId,pro_micro_shield,70726f5f-6d69-4637-926f-5f736869656c,rev?*
G04 #@! TF.SameCoordinates,Original*
G04 #@! TF.FileFunction,Copper,L1,Top*
G04 #@! TF.FilePolarity,Positive*
%FSLAX46Y46*%
G04 Gerber Fmt 4.6, Leading zero omitted, Abs format (unit mm)*
G04 Created by KiCad (PCBNEW (5.1.5-0-10_14)) date 2020-11-01 21:12:52*
%MOMM*%
%LPD*%
G04 APERTURE LIST*
%ADD10C,2.499360*%
%ADD11R,2.499360X2.499360*%
%ADD12C,1.752600*%
%ADD13R,1.752600X1.752600*%
%ADD14C,0.250000*%
%ADD15C,0.254000*%
G04 APERTURE END LIST*
D10*
X160000000Y-86350000D03*
X160000000Y-83175000D03*
D11*
X160000000Y-80000000D03*
D10*
X160000000Y-96850000D03*
X160000000Y-93675000D03*
D11*
X160000000Y-90500000D03*
D10*
X181560000Y-107250000D03*
D11*
X177750000Y-107250000D03*
D12*
X182120000Y-73030000D03*
X166880000Y-100970000D03*
X182120000Y-75570000D03*
X182120000Y-78110000D03*
X182120000Y-80650000D03*
X182120000Y-83190000D03*
X182120000Y-85730000D03*
X182120000Y-88270000D03*
X182120000Y-90810000D03*
X182120000Y-93350000D03*
X182120000Y-95890000D03*
X182120000Y-98430000D03*
X182120000Y-100970000D03*
X166880000Y-98430000D03*
X166880000Y-95890000D03*
X166880000Y-93350000D03*
X166880000Y-90810000D03*
X166880000Y-88270000D03*
X166880000Y-85730000D03*
X166880000Y-83190000D03*
X166880000Y-80650000D03*
X166880000Y-78110000D03*
X166880000Y-75570000D03*
D13*
X166880000Y-73030000D03*
D10*
X171060000Y-107250000D03*
D11*
X167250000Y-107250000D03*
D10*
X189000000Y-98900000D03*
X189000000Y-102075000D03*
D11*
X189000000Y-105250000D03*
D10*
X189000000Y-88400000D03*
X189000000Y-91575000D03*
D11*
X189000000Y-94750000D03*
D10*
X189000000Y-77825000D03*
X189000000Y-81000000D03*
D11*
X189000000Y-84175000D03*
D10*
X183350000Y-113500000D03*
X180175000Y-113500000D03*
D11*
X177000000Y-113500000D03*
D10*
X171850000Y-113500000D03*
X168675000Y-113500000D03*
D11*
X165500000Y-113500000D03*
D14*
X177030000Y-103500000D02*
X167756299Y-94226299D01*
X189000000Y-77825000D02*
X184500000Y-82325000D01*
X182802180Y-103500000D02*
X177030000Y-103500000D01*
X184500000Y-82325000D02*
X184500000Y-101802180D01*
X184500000Y-101802180D02*
X182802180Y-103500000D01*
X167756299Y-94226299D02*
X166880000Y-93350000D01*
X166880000Y-95890000D02*
X174990000Y-104000000D01*
X185000000Y-101938590D02*
X185000000Y-92400000D01*
X182938590Y-104000000D02*
X185000000Y-101938590D01*
X187750321Y-89649679D02*
X189000000Y-88400000D01*
X174990000Y-104000000D02*
X182938590Y-104000000D01*
X185000000Y-92400000D02*
X187750321Y-89649679D01*
X188675000Y-98900000D02*
X189000000Y-98900000D01*
X172950000Y-104500000D02*
X183075000Y-104500000D01*
X183075000Y-104500000D02*
X188675000Y-98900000D01*
X166880000Y-98430000D02*
X172950000Y-104500000D01*
X161920000Y-88270000D02*
X166880000Y-88270000D01*
X160000000Y-86350000D02*
X161920000Y-88270000D01*
X162760000Y-96850000D02*
X166880000Y-100970000D01*
X160000000Y-96850000D02*
X162760000Y-96850000D01*
D15*
G36*
X191090001Y-73217572D02*
G01*
X191090000Y-73217582D01*
X191090001Y-115467572D01*
X191090000Y-115467582D01*
X191090000Y-115840000D01*
X157910000Y-115840000D01*
X157910000Y-114749680D01*
X163612248Y-114749680D01*
X163624508Y-114874162D01*
X163660818Y-114993860D01*
X163719783Y-115104174D01*
X163799135Y-115200865D01*
X163895826Y-115280217D01*
X164006140Y-115339182D01*
X164125838Y-115375492D01*
X164250320Y-115387752D01*
X165214250Y-115384680D01*
X165373000Y-115225930D01*
X165373000Y-113627000D01*
X163774070Y-113627000D01*
X163615320Y-113785750D01*
X163612248Y-114749680D01*
X157910000Y-114749680D01*
X157910000Y-112250320D01*
X163612248Y-112250320D01*
X163615320Y-113214250D01*
X163774070Y-113373000D01*
X165373000Y-113373000D01*
X165373000Y-111774070D01*
X165627000Y-111774070D01*
X165627000Y-113373000D01*
X165647000Y-113373000D01*
X165647000Y-113627000D01*
X165627000Y-113627000D01*
X165627000Y-115225930D01*
X165785750Y-115384680D01*
X166749680Y-115387752D01*
X166874162Y-115375492D01*
X166993860Y-115339182D01*
X167104174Y-115280217D01*
X167200865Y-115200865D01*
X167280217Y-115104174D01*
X167339182Y-114993860D01*
X167375492Y-114874162D01*
X167376239Y-114866578D01*
X167473587Y-114963926D01*
X167782269Y-115170182D01*
X168125259Y-115312253D01*
X168489375Y-115384680D01*
X168860625Y-115384680D01*
X169224741Y-115312253D01*
X169567731Y-115170182D01*
X169876413Y-114963926D01*
X170138926Y-114701413D01*
X170262500Y-114516473D01*
X170386074Y-114701413D01*
X170648587Y-114963926D01*
X170957269Y-115170182D01*
X171300259Y-115312253D01*
X171664375Y-115384680D01*
X172035625Y-115384680D01*
X172399741Y-115312253D01*
X172742731Y-115170182D01*
X173051413Y-114963926D01*
X173265659Y-114749680D01*
X175112248Y-114749680D01*
X175124508Y-114874162D01*
X175160818Y-114993860D01*
X175219783Y-115104174D01*
X175299135Y-115200865D01*
X175395826Y-115280217D01*
X175506140Y-115339182D01*
X175625838Y-115375492D01*
X175750320Y-115387752D01*
X176714250Y-115384680D01*
X176873000Y-115225930D01*
X176873000Y-113627000D01*
X175274070Y-113627000D01*
X175115320Y-113785750D01*
X175112248Y-114749680D01*
X173265659Y-114749680D01*
X173313926Y-114701413D01*
X173520182Y-114392731D01*
X173662253Y-114049741D01*
X173734680Y-113685625D01*
X173734680Y-113314375D01*
X173662253Y-112950259D01*
X173520182Y-112607269D01*
X173313926Y-112298587D01*
X173265659Y-112250320D01*
X175112248Y-112250320D01*
X175115320Y-113214250D01*
X175274070Y-113373000D01*
X176873000Y-113373000D01*
X176873000Y-111774070D01*
X177127000Y-111774070D01*
X177127000Y-113373000D01*
X177147000Y-113373000D01*
X177147000Y-113627000D01*
X177127000Y-113627000D01*
X177127000Y-115225930D01*
X177285750Y-115384680D01*
X178249680Y-115387752D01*
X178374162Y-115375492D01*
X178493860Y-115339182D01*
X178604174Y-115280217D01*
X178700865Y-115200865D01*
X178780217Y-115104174D01*
X178839182Y-114993860D01*
X178875492Y-114874162D01*
X178876239Y-114866578D01*
X178973587Y-114963926D01*
X179282269Y-115170182D01*
X179625259Y-115312253D01*
X179989375Y-115384680D01*
X180360625Y-115384680D01*
X180724741Y-115312253D01*
X181067731Y-115170182D01*
X181376413Y-114963926D01*
X181638926Y-114701413D01*
X181762500Y-114516473D01*
X181886074Y-114701413D01*
X182148587Y-114963926D01*
X182457269Y-115170182D01*
X182800259Y-115312253D01*
X183164375Y-115384680D01*
X183535625Y-115384680D01*
X183899741Y-115312253D01*
X184242731Y-115170182D01*
X184551413Y-114963926D01*
X184813926Y-114701413D01*
X185020182Y-114392731D01*
X185162253Y-114049741D01*
X185234680Y-113685625D01*
X185234680Y-113314375D01*
X185162253Y-112950259D01*
X185020182Y-112607269D01*
X184813926Y-112298587D01*
X184551413Y-112036074D01*
X184242731Y-111829818D01*
X183899741Y-111687747D01*
X183535625Y-111615320D01*
X183164375Y-111615320D01*
X182800259Y-111687747D01*
X182457269Y-111829818D01*
X182148587Y-112036074D01*
X181886074Y-112298587D01*
X181762500Y-112483527D01*
X181638926Y-112298587D01*
X181376413Y-112036074D01*
X181067731Y-111829818D01*
X180724741Y-111687747D01*
X180360625Y-111615320D01*
X179989375Y-111615320D01*
X179625259Y-111687747D01*
X179282269Y-111829818D01*
X178973587Y-112036074D01*
X178876239Y-112133422D01*
X178875492Y-112125838D01*
X178839182Y-112006140D01*
X178780217Y-111895826D01*
X178700865Y-111799135D01*
X178604174Y-111719783D01*
X178493860Y-111660818D01*
X178374162Y-111624508D01*
X178249680Y-111612248D01*
X177285750Y-111615320D01*
X177127000Y-111774070D01*
X176873000Y-111774070D01*
X176714250Y-111615320D01*
X175750320Y-111612248D01*
X175625838Y-111624508D01*
X175506140Y-111660818D01*
X175395826Y-111719783D01*
X175299135Y-111799135D01*
X175219783Y-111895826D01*
X175160818Y-112006140D01*
X175124508Y-112125838D01*
X175112248Y-112250320D01*
X173265659Y-112250320D01*
X173051413Y-112036074D01*
X172742731Y-111829818D01*
X172399741Y-111687747D01*
X172035625Y-111615320D01*
X171664375Y-111615320D01*
X171300259Y-111687747D01*
X170957269Y-111829818D01*
X170648587Y-112036074D01*
X170386074Y-112298587D01*
X170262500Y-112483527D01*
X170138926Y-112298587D01*
X169876413Y-112036074D01*
X169567731Y-111829818D01*
X169224741Y-111687747D01*
X168860625Y-111615320D01*
X168489375Y-111615320D01*
X168125259Y-111687747D01*
X167782269Y-111829818D01*
X167473587Y-112036074D01*
X167376239Y-112133422D01*
X167375492Y-112125838D01*
X167339182Y-112006140D01*
X167280217Y-111895826D01*
X167200865Y-111799135D01*
X167104174Y-111719783D01*
X166993860Y-111660818D01*
X166874162Y-111624508D01*
X166749680Y-111612248D01*
X165785750Y-111615320D01*
X165627000Y-111774070D01*
X165373000Y-111774070D01*
X165214250Y-111615320D01*
X164250320Y-111612248D01*
X164125838Y-111624508D01*
X164006140Y-111660818D01*
X163895826Y-111719783D01*
X163799135Y-111799135D01*
X163719783Y-111895826D01*
X163660818Y-112006140D01*
X163624508Y-112125838D01*
X163612248Y-112250320D01*
X157910000Y-112250320D01*
X157910000Y-108499680D01*
X165362248Y-108499680D01*
X165374508Y-108624162D01*
X165410818Y-108743860D01*
X165469783Y-108854174D01*
X165549135Y-108950865D01*
X165645826Y-109030217D01*
X165756140Y-109089182D01*
X165875838Y-109125492D01*
X166000320Y-109137752D01*
X166964250Y-109134680D01*
X167123000Y-108975930D01*
X167123000Y-107377000D01*
X167377000Y-107377000D01*
X167377000Y-108975930D01*
X167535750Y-109134680D01*
X168499680Y-109137752D01*
X168624162Y-109125492D01*
X168743860Y-109089182D01*
X168854174Y-109030217D01*
X168950865Y-108950865D01*
X169030217Y-108854174D01*
X169089182Y-108743860D01*
X169125492Y-108624162D01*
X169137752Y-108499680D01*
X169134680Y-107535750D01*
X168975930Y-107377000D01*
X167377000Y-107377000D01*
X167123000Y-107377000D01*
X165524070Y-107377000D01*
X165365320Y-107535750D01*
X165362248Y-108499680D01*
X157910000Y-108499680D01*
X157910000Y-106000320D01*
X165362248Y-106000320D01*
X165365320Y-106964250D01*
X165524070Y-107123000D01*
X167123000Y-107123000D01*
X167123000Y-105524070D01*
X167377000Y-105524070D01*
X167377000Y-107123000D01*
X168975930Y-107123000D01*
X169034555Y-107064375D01*
X169175320Y-107064375D01*
X169175320Y-107435625D01*
X169247747Y-107799741D01*
X169389818Y-108142731D01*
X169596074Y-108451413D01*
X169858587Y-108713926D01*
X170167269Y-108920182D01*
X170510259Y-109062253D01*
X170874375Y-109134680D01*
X171245625Y-109134680D01*
X171609741Y-109062253D01*
X171952731Y-108920182D01*
X172261413Y-108713926D01*
X172475659Y-108499680D01*
X175862248Y-108499680D01*
X175874508Y-108624162D01*
X175910818Y-108743860D01*
X175969783Y-108854174D01*
X176049135Y-108950865D01*
X176145826Y-109030217D01*
X176256140Y-109089182D01*
X176375838Y-109125492D01*
X176500320Y-109137752D01*
X177464250Y-109134680D01*
X177623000Y-108975930D01*
X177623000Y-107377000D01*
X177877000Y-107377000D01*
X177877000Y-108975930D01*
X178035750Y-109134680D01*
X178999680Y-109137752D01*
X179124162Y-109125492D01*
X179243860Y-109089182D01*
X179354174Y-109030217D01*
X179450865Y-108950865D01*
X179530217Y-108854174D01*
X179589182Y-108743860D01*
X179625492Y-108624162D01*
X179637752Y-108499680D01*
X179634680Y-107535750D01*
X179475930Y-107377000D01*
X177877000Y-107377000D01*
X177623000Y-107377000D01*
X176024070Y-107377000D01*
X175865320Y-107535750D01*
X175862248Y-108499680D01*
X172475659Y-108499680D01*
X172523926Y-108451413D01*
X172730182Y-108142731D01*
X172872253Y-107799741D01*
X172944680Y-107435625D01*
X172944680Y-107064375D01*
X172872253Y-106700259D01*
X172730182Y-106357269D01*
X172523926Y-106048587D01*
X172475659Y-106000320D01*
X175862248Y-106000320D01*
X175865320Y-106964250D01*
X176024070Y-107123000D01*
X177623000Y-107123000D01*
X177623000Y-105524070D01*
X177877000Y-105524070D01*
X177877000Y-107123000D01*
X179475930Y-107123000D01*
X179534555Y-107064375D01*
X179675320Y-107064375D01*
X179675320Y-107435625D01*
X179747747Y-107799741D01*
X179889818Y-108142731D01*
X180096074Y-108451413D01*
X180358587Y-108713926D01*
X180667269Y-108920182D01*
X181010259Y-109062253D01*
X181374375Y-109134680D01*
X181745625Y-109134680D01*
X182109741Y-109062253D01*
X182452731Y-108920182D01*
X182761413Y-108713926D01*
X183023926Y-108451413D01*
X183230182Y-108142731D01*
X183372253Y-107799741D01*
X183444680Y-107435625D01*
X183444680Y-107064375D01*
X183372253Y-106700259D01*
X183230182Y-106357269D01*
X183023926Y-106048587D01*
X182761413Y-105786074D01*
X182452731Y-105579818D01*
X182109741Y-105437747D01*
X181745625Y-105365320D01*
X181374375Y-105365320D01*
X181010259Y-105437747D01*
X180667269Y-105579818D01*
X180358587Y-105786074D01*
X180096074Y-106048587D01*
X179889818Y-106357269D01*
X179747747Y-106700259D01*
X179675320Y-107064375D01*
X179534555Y-107064375D01*
X179634680Y-106964250D01*
X179637752Y-106000320D01*
X179625492Y-105875838D01*
X179589182Y-105756140D01*
X179530217Y-105645826D01*
X179450865Y-105549135D01*
X179354174Y-105469783D01*
X179243860Y-105410818D01*
X179124162Y-105374508D01*
X178999680Y-105362248D01*
X178035750Y-105365320D01*
X177877000Y-105524070D01*
X177623000Y-105524070D01*
X177464250Y-105365320D01*
X176500320Y-105362248D01*
X176375838Y-105374508D01*
X176256140Y-105410818D01*
X176145826Y-105469783D01*
X176049135Y-105549135D01*
X175969783Y-105645826D01*
X175910818Y-105756140D01*
X175874508Y-105875838D01*
X175862248Y-106000320D01*
X172475659Y-106000320D01*
X172261413Y-105786074D01*
X171952731Y-105579818D01*
X171609741Y-105437747D01*
X171245625Y-105365320D01*
X170874375Y-105365320D01*
X170510259Y-105437747D01*
X170167269Y-105579818D01*
X169858587Y-105786074D01*
X169596074Y-106048587D01*
X169389818Y-106357269D01*
X169247747Y-106700259D01*
X169175320Y-107064375D01*
X169034555Y-107064375D01*
X169134680Y-106964250D01*
X169137752Y-106000320D01*
X169125492Y-105875838D01*
X169089182Y-105756140D01*
X169030217Y-105645826D01*
X168950865Y-105549135D01*
X168854174Y-105469783D01*
X168743860Y-105410818D01*
X168624162Y-105374508D01*
X168499680Y-105362248D01*
X167535750Y-105365320D01*
X167377000Y-105524070D01*
X167123000Y-105524070D01*
X166964250Y-105365320D01*
X166000320Y-105362248D01*
X165875838Y-105374508D01*
X165756140Y-105410818D01*
X165645826Y-105469783D01*
X165549135Y-105549135D01*
X165469783Y-105645826D01*
X165410818Y-105756140D01*
X165374508Y-105875838D01*
X165362248Y-106000320D01*
X157910000Y-106000320D01*
X157910000Y-102579117D01*
X158765000Y-102579117D01*
X158765000Y-102920883D01*
X158831675Y-103256081D01*
X158962463Y-103571831D01*
X159152337Y-103855998D01*
X159394002Y-104097663D01*
X159678169Y-104287537D01*
X159993919Y-104418325D01*
X160329117Y-104485000D01*
X160670883Y-104485000D01*
X161006081Y-104418325D01*
X161321831Y-104287537D01*
X161605998Y-104097663D01*
X161847663Y-103855998D01*
X162037537Y-103571831D01*
X162168325Y-103256081D01*
X162235000Y-102920883D01*
X162235000Y-102579117D01*
X162168325Y-102243919D01*
X162037537Y-101928169D01*
X161847663Y-101644002D01*
X161605998Y-101402337D01*
X161321831Y-101212463D01*
X161006081Y-101081675D01*
X160670883Y-101015000D01*
X160329117Y-101015000D01*
X159993919Y-101081675D01*
X159678169Y-101212463D01*
X159394002Y-101402337D01*
X159152337Y-101644002D01*
X158962463Y-101928169D01*
X158831675Y-102243919D01*
X158765000Y-102579117D01*
X157910000Y-102579117D01*
X157910000Y-93727719D01*
X158106935Y-93727719D01*
X158153595Y-94096025D01*
X158271211Y-94448151D01*
X158396685Y-94682896D01*
X158686623Y-94808771D01*
X159820395Y-93675000D01*
X159806252Y-93660858D01*
X159985858Y-93481252D01*
X160000000Y-93495395D01*
X160014142Y-93481252D01*
X160193748Y-93660858D01*
X160179605Y-93675000D01*
X161313377Y-94808771D01*
X161603315Y-94682896D01*
X161769139Y-94350738D01*
X161866975Y-93992613D01*
X161893065Y-93622281D01*
X161846405Y-93253975D01*
X161728789Y-92901849D01*
X161603315Y-92667104D01*
X161313378Y-92541230D01*
X161428488Y-92426120D01*
X161376999Y-92374631D01*
X161493860Y-92339182D01*
X161604174Y-92280217D01*
X161700865Y-92200865D01*
X161780217Y-92104174D01*
X161839182Y-91993860D01*
X161875492Y-91874162D01*
X161887752Y-91749680D01*
X161887752Y-89250320D01*
X161875492Y-89125838D01*
X161845304Y-89026320D01*
X161882667Y-89030000D01*
X161882676Y-89030000D01*
X161919999Y-89033676D01*
X161957322Y-89030000D01*
X165570190Y-89030000D01*
X165706096Y-89233398D01*
X165916602Y-89443904D01*
X166060420Y-89540000D01*
X165916602Y-89636096D01*
X165706096Y-89846602D01*
X165540703Y-90094131D01*
X165426778Y-90369170D01*
X165368700Y-90661150D01*
X165368700Y-90958850D01*
X165426778Y-91250830D01*
X165540703Y-91525869D01*
X165706096Y-91773398D01*
X165916602Y-91983904D01*
X166060420Y-92080000D01*
X165916602Y-92176096D01*
X165706096Y-92386602D01*
X165540703Y-92634131D01*
X165426778Y-92909170D01*
X165368700Y-93201150D01*
X165368700Y-93498850D01*
X165426778Y-93790830D01*
X165540703Y-94065869D01*
X165706096Y-94313398D01*
X165916602Y-94523904D01*
X166060420Y-94620000D01*
X165916602Y-94716096D01*
X165706096Y-94926602D01*
X165540703Y-95174131D01*
X165426778Y-95449170D01*
X165368700Y-95741150D01*
X165368700Y-96038850D01*
X165426778Y-96330830D01*
X165540703Y-96605869D01*
X165706096Y-96853398D01*
X165916602Y-97063904D01*
X166060420Y-97160000D01*
X165916602Y-97256096D01*
X165706096Y-97466602D01*
X165540703Y-97714131D01*
X165426778Y-97989170D01*
X165368700Y-98281150D01*
X165368700Y-98383898D01*
X163323804Y-96339003D01*
X163300001Y-96309999D01*
X163184276Y-96215026D01*
X163052247Y-96144454D01*
X162908986Y-96100997D01*
X162797333Y-96090000D01*
X162797322Y-96090000D01*
X162760000Y-96086324D01*
X162722678Y-96090000D01*
X161725161Y-96090000D01*
X161670182Y-95957269D01*
X161463926Y-95648587D01*
X161201413Y-95386074D01*
X161015147Y-95261614D01*
X161133771Y-94988377D01*
X160000000Y-93854605D01*
X158866229Y-94988377D01*
X158984853Y-95261614D01*
X158798587Y-95386074D01*
X158536074Y-95648587D01*
X158329818Y-95957269D01*
X158187747Y-96300259D01*
X158115320Y-96664375D01*
X158115320Y-97035625D01*
X158187747Y-97399741D01*
X158329818Y-97742731D01*
X158536074Y-98051413D01*
X158798587Y-98313926D01*
X159107269Y-98520182D01*
X159450259Y-98662253D01*
X159814375Y-98734680D01*
X160185625Y-98734680D01*
X160549741Y-98662253D01*
X160892731Y-98520182D01*
X161201413Y-98313926D01*
X161463926Y-98051413D01*
X161670182Y-97742731D01*
X161725161Y-97610000D01*
X162445199Y-97610000D01*
X165416424Y-100581225D01*
X165368700Y-100821150D01*
X165368700Y-101118850D01*
X165426778Y-101410830D01*
X165540703Y-101685869D01*
X165706096Y-101933398D01*
X165916602Y-102143904D01*
X166164131Y-102309297D01*
X166439170Y-102423222D01*
X166731150Y-102481300D01*
X167028850Y-102481300D01*
X167320830Y-102423222D01*
X167595869Y-102309297D01*
X167843398Y-102143904D01*
X168053904Y-101933398D01*
X168219297Y-101685869D01*
X168333222Y-101410830D01*
X168391300Y-101118850D01*
X168391300Y-101016101D01*
X172386201Y-105011003D01*
X172409999Y-105040001D01*
X172525724Y-105134974D01*
X172657753Y-105205546D01*
X172801014Y-105249003D01*
X172912667Y-105260000D01*
X172912676Y-105260000D01*
X172949999Y-105263676D01*
X172987322Y-105260000D01*
X183037678Y-105260000D01*
X183075000Y-105263676D01*
X183112322Y-105260000D01*
X183112333Y-105260000D01*
X183223986Y-105249003D01*
X183367247Y-105205546D01*
X183499276Y-105134974D01*
X183615001Y-105040001D01*
X183638804Y-105010997D01*
X187223464Y-101426337D01*
X187133025Y-101757387D01*
X187106935Y-102127719D01*
X187153595Y-102496025D01*
X187271211Y-102848151D01*
X187396685Y-103082896D01*
X187686622Y-103208770D01*
X187571512Y-103323880D01*
X187623001Y-103375369D01*
X187506140Y-103410818D01*
X187395826Y-103469783D01*
X187299135Y-103549135D01*
X187219783Y-103645826D01*
X187160818Y-103756140D01*
X187124508Y-103875838D01*
X187112248Y-104000320D01*
X187112248Y-106499680D01*
X187124508Y-106624162D01*
X187160818Y-106743860D01*
X187219783Y-106854174D01*
X187299135Y-106950865D01*
X187395826Y-107030217D01*
X187506140Y-107089182D01*
X187625838Y-107125492D01*
X187750320Y-107137752D01*
X190249680Y-107137752D01*
X190374162Y-107125492D01*
X190493860Y-107089182D01*
X190604174Y-107030217D01*
X190700865Y-106950865D01*
X190780217Y-106854174D01*
X190839182Y-106743860D01*
X190875492Y-106624162D01*
X190887752Y-106499680D01*
X190887752Y-104000320D01*
X190875492Y-103875838D01*
X190839182Y-103756140D01*
X190780217Y-103645826D01*
X190700865Y-103549135D01*
X190604174Y-103469783D01*
X190493860Y-103410818D01*
X190376999Y-103375369D01*
X190428488Y-103323880D01*
X190313378Y-103208770D01*
X190603315Y-103082896D01*
X190769139Y-102750738D01*
X190866975Y-102392613D01*
X190893065Y-102022281D01*
X190846405Y-101653975D01*
X190728789Y-101301849D01*
X190603315Y-101067104D01*
X190313377Y-100941229D01*
X189179605Y-102075000D01*
X189193748Y-102089142D01*
X189014142Y-102268748D01*
X189000000Y-102254605D01*
X188985858Y-102268748D01*
X188806252Y-102089142D01*
X188820395Y-102075000D01*
X188806252Y-102060858D01*
X188985858Y-101881252D01*
X189000000Y-101895395D01*
X190133771Y-100761623D01*
X190015147Y-100488386D01*
X190201413Y-100363926D01*
X190463926Y-100101413D01*
X190670182Y-99792731D01*
X190812253Y-99449741D01*
X190884680Y-99085625D01*
X190884680Y-98714375D01*
X190812253Y-98350259D01*
X190670182Y-98007269D01*
X190463926Y-97698587D01*
X190201413Y-97436074D01*
X189892731Y-97229818D01*
X189549741Y-97087747D01*
X189185625Y-97015320D01*
X188814375Y-97015320D01*
X188450259Y-97087747D01*
X188107269Y-97229818D01*
X187798587Y-97436074D01*
X187536074Y-97698587D01*
X187329818Y-98007269D01*
X187187747Y-98350259D01*
X187115320Y-98714375D01*
X187115320Y-99085625D01*
X187164969Y-99335229D01*
X185760000Y-100740198D01*
X185760000Y-92714801D01*
X187126629Y-91348172D01*
X187106935Y-91627719D01*
X187153595Y-91996025D01*
X187271211Y-92348151D01*
X187396685Y-92582896D01*
X187686622Y-92708770D01*
X187571512Y-92823880D01*
X187623001Y-92875369D01*
X187506140Y-92910818D01*
X187395826Y-92969783D01*
X187299135Y-93049135D01*
X187219783Y-93145826D01*
X187160818Y-93256140D01*
X187124508Y-93375838D01*
X187112248Y-93500320D01*
X187112248Y-95999680D01*
X187124508Y-96124162D01*
X187160818Y-96243860D01*
X187219783Y-96354174D01*
X187299135Y-96450865D01*
X187395826Y-96530217D01*
X187506140Y-96589182D01*
X187625838Y-96625492D01*
X187750320Y-96637752D01*
X190249680Y-96637752D01*
X190374162Y-96625492D01*
X190493860Y-96589182D01*
X190604174Y-96530217D01*
X190700865Y-96450865D01*
X190780217Y-96354174D01*
X190839182Y-96243860D01*
X190875492Y-96124162D01*
X190887752Y-95999680D01*
X190887752Y-93500320D01*
X190875492Y-93375838D01*
X190839182Y-93256140D01*
X190780217Y-93145826D01*
X190700865Y-93049135D01*
X190604174Y-92969783D01*
X190493860Y-92910818D01*
X190376999Y-92875369D01*
X190428488Y-92823880D01*
X190313378Y-92708770D01*
X190603315Y-92582896D01*
X190769139Y-92250738D01*
X190866975Y-91892613D01*
X190893065Y-91522281D01*
X190846405Y-91153975D01*
X190728789Y-90801849D01*
X190603315Y-90567104D01*
X190313377Y-90441229D01*
X189179605Y-91575000D01*
X189193748Y-91589142D01*
X189014142Y-91768748D01*
X189000000Y-91754605D01*
X188985858Y-91768748D01*
X188806252Y-91589142D01*
X188820395Y-91575000D01*
X188806252Y-91560858D01*
X188985858Y-91381252D01*
X189000000Y-91395395D01*
X190133771Y-90261623D01*
X190015147Y-89988386D01*
X190201413Y-89863926D01*
X190463926Y-89601413D01*
X190670182Y-89292731D01*
X190812253Y-88949741D01*
X190884680Y-88585625D01*
X190884680Y-88214375D01*
X190812253Y-87850259D01*
X190670182Y-87507269D01*
X190463926Y-87198587D01*
X190201413Y-86936074D01*
X189892731Y-86729818D01*
X189549741Y-86587747D01*
X189185625Y-86515320D01*
X188814375Y-86515320D01*
X188450259Y-86587747D01*
X188107269Y-86729818D01*
X187798587Y-86936074D01*
X187536074Y-87198587D01*
X187329818Y-87507269D01*
X187187747Y-87850259D01*
X187115320Y-88214375D01*
X187115320Y-88585625D01*
X187187747Y-88949741D01*
X187242726Y-89082473D01*
X187239323Y-89085876D01*
X187239318Y-89085880D01*
X185260000Y-91065199D01*
X185260000Y-82639801D01*
X187126629Y-80773172D01*
X187106935Y-81052719D01*
X187153595Y-81421025D01*
X187271211Y-81773151D01*
X187396685Y-82007896D01*
X187686622Y-82133770D01*
X187571512Y-82248880D01*
X187623001Y-82300369D01*
X187506140Y-82335818D01*
X187395826Y-82394783D01*
X187299135Y-82474135D01*
X187219783Y-82570826D01*
X187160818Y-82681140D01*
X187124508Y-82800838D01*
X187112248Y-82925320D01*
X187112248Y-85424680D01*
X187124508Y-85549162D01*
X187160818Y-85668860D01*
X187219783Y-85779174D01*
X187299135Y-85875865D01*
X187395826Y-85955217D01*
X187506140Y-86014182D01*
X187625838Y-86050492D01*
X187750320Y-86062752D01*
X190249680Y-86062752D01*
X190374162Y-86050492D01*
X190493860Y-86014182D01*
X190604174Y-85955217D01*
X190700865Y-85875865D01*
X190780217Y-85779174D01*
X190839182Y-85668860D01*
X190875492Y-85549162D01*
X190887752Y-85424680D01*
X190887752Y-82925320D01*
X190875492Y-82800838D01*
X190839182Y-82681140D01*
X190780217Y-82570826D01*
X190700865Y-82474135D01*
X190604174Y-82394783D01*
X190493860Y-82335818D01*
X190376999Y-82300369D01*
X190428488Y-82248880D01*
X190313378Y-82133770D01*
X190603315Y-82007896D01*
X190769139Y-81675738D01*
X190866975Y-81317613D01*
X190893065Y-80947281D01*
X190846405Y-80578975D01*
X190728789Y-80226849D01*
X190603315Y-79992104D01*
X190313377Y-79866229D01*
X189179605Y-81000000D01*
X189193748Y-81014142D01*
X189014142Y-81193748D01*
X189000000Y-81179605D01*
X188985858Y-81193748D01*
X188806252Y-81014142D01*
X188820395Y-81000000D01*
X188806252Y-80985858D01*
X188985858Y-80806252D01*
X189000000Y-80820395D01*
X190133771Y-79686623D01*
X190015147Y-79413386D01*
X190201413Y-79288926D01*
X190463926Y-79026413D01*
X190670182Y-78717731D01*
X190812253Y-78374741D01*
X190884680Y-78010625D01*
X190884680Y-77639375D01*
X190812253Y-77275259D01*
X190670182Y-76932269D01*
X190463926Y-76623587D01*
X190201413Y-76361074D01*
X189892731Y-76154818D01*
X189549741Y-76012747D01*
X189185625Y-75940320D01*
X188814375Y-75940320D01*
X188450259Y-76012747D01*
X188107269Y-76154818D01*
X187798587Y-76361074D01*
X187536074Y-76623587D01*
X187329818Y-76932269D01*
X187187747Y-77275259D01*
X187115320Y-77639375D01*
X187115320Y-78010625D01*
X187187747Y-78374741D01*
X187242726Y-78507472D01*
X183989003Y-81761196D01*
X183959999Y-81784999D01*
X183928071Y-81823904D01*
X183865026Y-81900724D01*
X183809935Y-82003792D01*
X183794454Y-82032754D01*
X183750997Y-82176015D01*
X183740000Y-82287668D01*
X183740000Y-82287678D01*
X183736324Y-82325000D01*
X183740000Y-82362322D01*
X183740001Y-101487377D01*
X182487379Y-102740000D01*
X177344802Y-102740000D01*
X168343576Y-93738775D01*
X168391300Y-93498850D01*
X168391300Y-93201150D01*
X168333222Y-92909170D01*
X168219297Y-92634131D01*
X168053904Y-92386602D01*
X167843398Y-92176096D01*
X167699580Y-92080000D01*
X167843398Y-91983904D01*
X168053904Y-91773398D01*
X168219297Y-91525869D01*
X168333222Y-91250830D01*
X168391300Y-90958850D01*
X168391300Y-90661150D01*
X168333222Y-90369170D01*
X168219297Y-90094131D01*
X168053904Y-89846602D01*
X167843398Y-89636096D01*
X167699580Y-89540000D01*
X167843398Y-89443904D01*
X168053904Y-89233398D01*
X168219297Y-88985869D01*
X168333222Y-88710830D01*
X168391300Y-88418850D01*
X168391300Y-88121150D01*
X168333222Y-87829170D01*
X168219297Y-87554131D01*
X168053904Y-87306602D01*
X167843398Y-87096096D01*
X167699580Y-87000000D01*
X167843398Y-86903904D01*
X168053904Y-86693398D01*
X168219297Y-86445869D01*
X168333222Y-86170830D01*
X168391300Y-85878850D01*
X168391300Y-85581150D01*
X168333222Y-85289170D01*
X168219297Y-85014131D01*
X168053904Y-84766602D01*
X167843398Y-84556096D01*
X167699580Y-84460000D01*
X167843398Y-84363904D01*
X168053904Y-84153398D01*
X168219297Y-83905869D01*
X168333222Y-83630830D01*
X168391300Y-83338850D01*
X168391300Y-83041150D01*
X168333222Y-82749170D01*
X168219297Y-82474131D01*
X168053904Y-82226602D01*
X167843398Y-82016096D01*
X167680191Y-81907045D01*
X167747563Y-81697169D01*
X166880000Y-80829605D01*
X166012437Y-81697169D01*
X166079809Y-81907045D01*
X165916602Y-82016096D01*
X165706096Y-82226602D01*
X165540703Y-82474131D01*
X165426778Y-82749170D01*
X165368700Y-83041150D01*
X165368700Y-83338850D01*
X165426778Y-83630830D01*
X165540703Y-83905869D01*
X165706096Y-84153398D01*
X165916602Y-84363904D01*
X166060420Y-84460000D01*
X165916602Y-84556096D01*
X165706096Y-84766602D01*
X165540703Y-85014131D01*
X165426778Y-85289170D01*
X165368700Y-85581150D01*
X165368700Y-85878850D01*
X165426778Y-86170830D01*
X165540703Y-86445869D01*
X165706096Y-86693398D01*
X165916602Y-86903904D01*
X166060420Y-87000000D01*
X165916602Y-87096096D01*
X165706096Y-87306602D01*
X165570190Y-87510000D01*
X162234802Y-87510000D01*
X161757274Y-87032472D01*
X161812253Y-86899741D01*
X161884680Y-86535625D01*
X161884680Y-86164375D01*
X161812253Y-85800259D01*
X161670182Y-85457269D01*
X161463926Y-85148587D01*
X161201413Y-84886074D01*
X161015147Y-84761614D01*
X161133771Y-84488377D01*
X160000000Y-83354605D01*
X158866229Y-84488377D01*
X158984853Y-84761614D01*
X158798587Y-84886074D01*
X158536074Y-85148587D01*
X158329818Y-85457269D01*
X158187747Y-85800259D01*
X158115320Y-86164375D01*
X158115320Y-86535625D01*
X158187747Y-86899741D01*
X158329818Y-87242731D01*
X158536074Y-87551413D01*
X158798587Y-87813926D01*
X159107269Y-88020182D01*
X159450259Y-88162253D01*
X159814375Y-88234680D01*
X160185625Y-88234680D01*
X160549741Y-88162253D01*
X160682472Y-88107274D01*
X161187446Y-88612248D01*
X158750320Y-88612248D01*
X158625838Y-88624508D01*
X158506140Y-88660818D01*
X158395826Y-88719783D01*
X158299135Y-88799135D01*
X158219783Y-88895826D01*
X158160818Y-89006140D01*
X158124508Y-89125838D01*
X158112248Y-89250320D01*
X158112248Y-91749680D01*
X158124508Y-91874162D01*
X158160818Y-91993860D01*
X158219783Y-92104174D01*
X158299135Y-92200865D01*
X158395826Y-92280217D01*
X158506140Y-92339182D01*
X158623001Y-92374631D01*
X158571512Y-92426120D01*
X158686622Y-92541230D01*
X158396685Y-92667104D01*
X158230861Y-92999262D01*
X158133025Y-93357387D01*
X158106935Y-93727719D01*
X157910000Y-93727719D01*
X157910000Y-83227719D01*
X158106935Y-83227719D01*
X158153595Y-83596025D01*
X158271211Y-83948151D01*
X158396685Y-84182896D01*
X158686623Y-84308771D01*
X159820395Y-83175000D01*
X159806252Y-83160858D01*
X159985858Y-82981252D01*
X160000000Y-82995395D01*
X160014142Y-82981252D01*
X160193748Y-83160858D01*
X160179605Y-83175000D01*
X161313377Y-84308771D01*
X161603315Y-84182896D01*
X161769139Y-83850738D01*
X161866975Y-83492613D01*
X161893065Y-83122281D01*
X161846405Y-82753975D01*
X161728789Y-82401849D01*
X161603315Y-82167104D01*
X161313378Y-82041230D01*
X161428488Y-81926120D01*
X161376999Y-81874631D01*
X161493860Y-81839182D01*
X161604174Y-81780217D01*
X161700865Y-81700865D01*
X161780217Y-81604174D01*
X161839182Y-81493860D01*
X161875492Y-81374162D01*
X161887752Y-81249680D01*
X161887752Y-80717491D01*
X165362887Y-80717491D01*
X165405204Y-81012167D01*
X165504198Y-81292927D01*
X165581071Y-81436746D01*
X165832831Y-81517563D01*
X166700395Y-80650000D01*
X167059605Y-80650000D01*
X167927169Y-81517563D01*
X168178929Y-81436746D01*
X168307457Y-81168221D01*
X168381129Y-80879781D01*
X168397113Y-80582509D01*
X168354796Y-80287833D01*
X168255802Y-80007073D01*
X168178929Y-79863254D01*
X167927169Y-79782437D01*
X167059605Y-80650000D01*
X166700395Y-80650000D01*
X165832831Y-79782437D01*
X165581071Y-79863254D01*
X165452543Y-80131779D01*
X165378871Y-80420219D01*
X165362887Y-80717491D01*
X161887752Y-80717491D01*
X161887752Y-79157169D01*
X166012437Y-79157169D01*
X166083968Y-79380000D01*
X166012437Y-79602831D01*
X166880000Y-80470395D01*
X167747563Y-79602831D01*
X167676032Y-79380000D01*
X167747563Y-79157169D01*
X166880000Y-78289605D01*
X166012437Y-79157169D01*
X161887752Y-79157169D01*
X161887752Y-78750320D01*
X161875492Y-78625838D01*
X161839182Y-78506140D01*
X161780217Y-78395826D01*
X161700865Y-78299135D01*
X161604174Y-78219783D01*
X161525053Y-78177491D01*
X165362887Y-78177491D01*
X165405204Y-78472167D01*
X165504198Y-78752927D01*
X165581071Y-78896746D01*
X165832831Y-78977563D01*
X166700395Y-78110000D01*
X167059605Y-78110000D01*
X167927169Y-78977563D01*
X168178929Y-78896746D01*
X168307457Y-78628221D01*
X168381129Y-78339781D01*
X168397113Y-78042509D01*
X168385430Y-77961150D01*
X180608700Y-77961150D01*
X180608700Y-78258850D01*
X180666778Y-78550830D01*
X180780703Y-78825869D01*
X180946096Y-79073398D01*
X181156602Y-79283904D01*
X181300420Y-79380000D01*
X181156602Y-79476096D01*
X180946096Y-79686602D01*
X180780703Y-79934131D01*
X180666778Y-80209170D01*
X180608700Y-80501150D01*
X180608700Y-80798850D01*
X180666778Y-81090830D01*
X180780703Y-81365869D01*
X180946096Y-81613398D01*
X181156602Y-81823904D01*
X181300420Y-81920000D01*
X181156602Y-82016096D01*
X180946096Y-82226602D01*
X180780703Y-82474131D01*
X180666778Y-82749170D01*
X180608700Y-83041150D01*
X180608700Y-83338850D01*
X180666778Y-83630830D01*
X180780703Y-83905869D01*
X180946096Y-84153398D01*
X181156602Y-84363904D01*
X181300420Y-84460000D01*
X181156602Y-84556096D01*
X180946096Y-84766602D01*
X180780703Y-85014131D01*
X180666778Y-85289170D01*
X180608700Y-85581150D01*
X180608700Y-85878850D01*
X180666778Y-86170830D01*
X180780703Y-86445869D01*
X180946096Y-86693398D01*
X181156602Y-86903904D01*
X181300420Y-87000000D01*
X181156602Y-87096096D01*
X180946096Y-87306602D01*
X180780703Y-87554131D01*
X180666778Y-87829170D01*
X180608700Y-88121150D01*
X180608700Y-88418850D01*
X180666778Y-88710830D01*
X180780703Y-88985869D01*
X180946096Y-89233398D01*
X181156602Y-89443904D01*
X181300420Y-89540000D01*
X181156602Y-89636096D01*
X180946096Y-89846602D01*
X180780703Y-90094131D01*
X180666778Y-90369170D01*
X180608700Y-90661150D01*
X180608700Y-90958850D01*
X180666778Y-91250830D01*
X180780703Y-91525869D01*
X180946096Y-91773398D01*
X181156602Y-91983904D01*
X181300420Y-92080000D01*
X181156602Y-92176096D01*
X180946096Y-92386602D01*
X180780703Y-92634131D01*
X180666778Y-92909170D01*
X180608700Y-93201150D01*
X180608700Y-93498850D01*
X180666778Y-93790830D01*
X180780703Y-94065869D01*
X180946096Y-94313398D01*
X181156602Y-94523904D01*
X181300420Y-94620000D01*
X181156602Y-94716096D01*
X180946096Y-94926602D01*
X180780703Y-95174131D01*
X180666778Y-95449170D01*
X180608700Y-95741150D01*
X180608700Y-96038850D01*
X180666778Y-96330830D01*
X180780703Y-96605869D01*
X180946096Y-96853398D01*
X181156602Y-97063904D01*
X181300420Y-97160000D01*
X181156602Y-97256096D01*
X180946096Y-97466602D01*
X180780703Y-97714131D01*
X180666778Y-97989170D01*
X180608700Y-98281150D01*
X180608700Y-98578850D01*
X180666778Y-98870830D01*
X180780703Y-99145869D01*
X180946096Y-99393398D01*
X181156602Y-99603904D01*
X181300420Y-99700000D01*
X181156602Y-99796096D01*
X180946096Y-100006602D01*
X180780703Y-100254131D01*
X180666778Y-100529170D01*
X180608700Y-100821150D01*
X180608700Y-101118850D01*
X180666778Y-101410830D01*
X180780703Y-101685869D01*
X180946096Y-101933398D01*
X181156602Y-102143904D01*
X181404131Y-102309297D01*
X181679170Y-102423222D01*
X181971150Y-102481300D01*
X182268850Y-102481300D01*
X182560830Y-102423222D01*
X182835869Y-102309297D01*
X183083398Y-102143904D01*
X183293904Y-101933398D01*
X183459297Y-101685869D01*
X183573222Y-101410830D01*
X183631300Y-101118850D01*
X183631300Y-100821150D01*
X183573222Y-100529170D01*
X183459297Y-100254131D01*
X183293904Y-100006602D01*
X183083398Y-99796096D01*
X182939580Y-99700000D01*
X183083398Y-99603904D01*
X183293904Y-99393398D01*
X183459297Y-99145869D01*
X183573222Y-98870830D01*
X183631300Y-98578850D01*
X183631300Y-98281150D01*
X183573222Y-97989170D01*
X183459297Y-97714131D01*
X183293904Y-97466602D01*
X183083398Y-97256096D01*
X182939580Y-97160000D01*
X183083398Y-97063904D01*
X183293904Y-96853398D01*
X183459297Y-96605869D01*
X183573222Y-96330830D01*
X183631300Y-96038850D01*
X183631300Y-95741150D01*
X183573222Y-95449170D01*
X183459297Y-95174131D01*
X183293904Y-94926602D01*
X183083398Y-94716096D01*
X182939580Y-94620000D01*
X183083398Y-94523904D01*
X183293904Y-94313398D01*
X183459297Y-94065869D01*
X183573222Y-93790830D01*
X183631300Y-93498850D01*
X183631300Y-93201150D01*
X183573222Y-92909170D01*
X183459297Y-92634131D01*
X183293904Y-92386602D01*
X183083398Y-92176096D01*
X182939580Y-92080000D01*
X183083398Y-91983904D01*
X183293904Y-91773398D01*
X183459297Y-91525869D01*
X183573222Y-91250830D01*
X183631300Y-90958850D01*
X183631300Y-90661150D01*
X183573222Y-90369170D01*
X183459297Y-90094131D01*
X183293904Y-89846602D01*
X183083398Y-89636096D01*
X182939580Y-89540000D01*
X183083398Y-89443904D01*
X183293904Y-89233398D01*
X183459297Y-88985869D01*
X183573222Y-88710830D01*
X183631300Y-88418850D01*
X183631300Y-88121150D01*
X183573222Y-87829170D01*
X183459297Y-87554131D01*
X183293904Y-87306602D01*
X183083398Y-87096096D01*
X182939580Y-87000000D01*
X183083398Y-86903904D01*
X183293904Y-86693398D01*
X183459297Y-86445869D01*
X183573222Y-86170830D01*
X183631300Y-85878850D01*
X183631300Y-85581150D01*
X183573222Y-85289170D01*
X183459297Y-85014131D01*
X183293904Y-84766602D01*
X183083398Y-84556096D01*
X182939580Y-84460000D01*
X183083398Y-84363904D01*
X183293904Y-84153398D01*
X183459297Y-83905869D01*
X183573222Y-83630830D01*
X183631300Y-83338850D01*
X183631300Y-83041150D01*
X183573222Y-82749170D01*
X183459297Y-82474131D01*
X183293904Y-82226602D01*
X183083398Y-82016096D01*
X182939580Y-81920000D01*
X183083398Y-81823904D01*
X183293904Y-81613398D01*
X183459297Y-81365869D01*
X183573222Y-81090830D01*
X183631300Y-80798850D01*
X183631300Y-80501150D01*
X183573222Y-80209170D01*
X183459297Y-79934131D01*
X183293904Y-79686602D01*
X183083398Y-79476096D01*
X182939580Y-79380000D01*
X183083398Y-79283904D01*
X183293904Y-79073398D01*
X183459297Y-78825869D01*
X183573222Y-78550830D01*
X183631300Y-78258850D01*
X183631300Y-77961150D01*
X183573222Y-77669170D01*
X183459297Y-77394131D01*
X183293904Y-77146602D01*
X183083398Y-76936096D01*
X182920191Y-76827045D01*
X182987563Y-76617169D01*
X182120000Y-75749605D01*
X181252437Y-76617169D01*
X181319809Y-76827045D01*
X181156602Y-76936096D01*
X180946096Y-77146602D01*
X180780703Y-77394131D01*
X180666778Y-77669170D01*
X180608700Y-77961150D01*
X168385430Y-77961150D01*
X168354796Y-77747833D01*
X168255802Y-77467073D01*
X168178929Y-77323254D01*
X167927169Y-77242437D01*
X167059605Y-78110000D01*
X166700395Y-78110000D01*
X165832831Y-77242437D01*
X165581071Y-77323254D01*
X165452543Y-77591779D01*
X165378871Y-77880219D01*
X165362887Y-78177491D01*
X161525053Y-78177491D01*
X161493860Y-78160818D01*
X161374162Y-78124508D01*
X161249680Y-78112248D01*
X158750320Y-78112248D01*
X158625838Y-78124508D01*
X158506140Y-78160818D01*
X158395826Y-78219783D01*
X158299135Y-78299135D01*
X158219783Y-78395826D01*
X158160818Y-78506140D01*
X158124508Y-78625838D01*
X158112248Y-78750320D01*
X158112248Y-81249680D01*
X158124508Y-81374162D01*
X158160818Y-81493860D01*
X158219783Y-81604174D01*
X158299135Y-81700865D01*
X158395826Y-81780217D01*
X158506140Y-81839182D01*
X158623001Y-81874631D01*
X158571512Y-81926120D01*
X158686622Y-82041230D01*
X158396685Y-82167104D01*
X158230861Y-82499262D01*
X158133025Y-82857387D01*
X158106935Y-83227719D01*
X157910000Y-83227719D01*
X157910000Y-73829117D01*
X158765000Y-73829117D01*
X158765000Y-74170883D01*
X158831675Y-74506081D01*
X158962463Y-74821831D01*
X159152337Y-75105998D01*
X159394002Y-75347663D01*
X159678169Y-75537537D01*
X159993919Y-75668325D01*
X160329117Y-75735000D01*
X160670883Y-75735000D01*
X161006081Y-75668325D01*
X161321831Y-75537537D01*
X161605998Y-75347663D01*
X161847663Y-75105998D01*
X162037537Y-74821831D01*
X162168325Y-74506081D01*
X162235000Y-74170883D01*
X162235000Y-73829117D01*
X162168325Y-73493919D01*
X162037537Y-73178169D01*
X161847663Y-72894002D01*
X161605998Y-72652337D01*
X161321831Y-72462463D01*
X161006081Y-72331675D01*
X160670883Y-72265000D01*
X160329117Y-72265000D01*
X159993919Y-72331675D01*
X159678169Y-72462463D01*
X159394002Y-72652337D01*
X159152337Y-72894002D01*
X158962463Y-73178169D01*
X158831675Y-73493919D01*
X158765000Y-73829117D01*
X157910000Y-73829117D01*
X157910000Y-72153700D01*
X165365628Y-72153700D01*
X165365628Y-73906300D01*
X165377888Y-74030782D01*
X165414198Y-74150480D01*
X165473163Y-74260794D01*
X165552515Y-74357485D01*
X165649206Y-74436837D01*
X165759520Y-74495802D01*
X165803542Y-74509156D01*
X165706096Y-74606602D01*
X165540703Y-74854131D01*
X165426778Y-75129170D01*
X165368700Y-75421150D01*
X165368700Y-75718850D01*
X165426778Y-76010830D01*
X165540703Y-76285869D01*
X165706096Y-76533398D01*
X165916602Y-76743904D01*
X166079809Y-76852955D01*
X166012437Y-77062831D01*
X166880000Y-77930395D01*
X167747563Y-77062831D01*
X167680191Y-76852955D01*
X167843398Y-76743904D01*
X168053904Y-76533398D01*
X168219297Y-76285869D01*
X168333222Y-76010830D01*
X168391300Y-75718850D01*
X168391300Y-75637491D01*
X180602887Y-75637491D01*
X180645204Y-75932167D01*
X180744198Y-76212927D01*
X180821071Y-76356746D01*
X181072831Y-76437563D01*
X181940395Y-75570000D01*
X182299605Y-75570000D01*
X183167169Y-76437563D01*
X183418929Y-76356746D01*
X183547457Y-76088221D01*
X183621129Y-75799781D01*
X183637113Y-75502509D01*
X183594796Y-75207833D01*
X183495802Y-74927073D01*
X183418929Y-74783254D01*
X183167169Y-74702437D01*
X182299605Y-75570000D01*
X181940395Y-75570000D01*
X181072831Y-74702437D01*
X180821071Y-74783254D01*
X180692543Y-75051779D01*
X180618871Y-75340219D01*
X180602887Y-75637491D01*
X168391300Y-75637491D01*
X168391300Y-75421150D01*
X168333222Y-75129170D01*
X168219297Y-74854131D01*
X168053904Y-74606602D01*
X167956458Y-74509156D01*
X168000480Y-74495802D01*
X168110794Y-74436837D01*
X168207485Y-74357485D01*
X168286837Y-74260794D01*
X168345802Y-74150480D01*
X168382112Y-74030782D01*
X168394372Y-73906300D01*
X168394372Y-72881150D01*
X180608700Y-72881150D01*
X180608700Y-73178850D01*
X180666778Y-73470830D01*
X180780703Y-73745869D01*
X180946096Y-73993398D01*
X181156602Y-74203904D01*
X181319809Y-74312955D01*
X181252437Y-74522831D01*
X182120000Y-75390395D01*
X182987563Y-74522831D01*
X182920191Y-74312955D01*
X183083398Y-74203904D01*
X183293904Y-73993398D01*
X183459297Y-73745869D01*
X183573222Y-73470830D01*
X183631300Y-73178850D01*
X183631300Y-72881150D01*
X183573222Y-72589170D01*
X183459297Y-72314131D01*
X183293904Y-72066602D01*
X183083398Y-71856096D01*
X182835869Y-71690703D01*
X182560830Y-71576778D01*
X182268850Y-71518700D01*
X181971150Y-71518700D01*
X181679170Y-71576778D01*
X181404131Y-71690703D01*
X181156602Y-71856096D01*
X180946096Y-72066602D01*
X180780703Y-72314131D01*
X180666778Y-72589170D01*
X180608700Y-72881150D01*
X168394372Y-72881150D01*
X168394372Y-72153700D01*
X168382112Y-72029218D01*
X168345802Y-71909520D01*
X168286837Y-71799206D01*
X168207485Y-71702515D01*
X168110794Y-71623163D01*
X168000480Y-71564198D01*
X167880782Y-71527888D01*
X167756300Y-71515628D01*
X166003700Y-71515628D01*
X165879218Y-71527888D01*
X165759520Y-71564198D01*
X165649206Y-71623163D01*
X165552515Y-71702515D01*
X165473163Y-71799206D01*
X165414198Y-71909520D01*
X165377888Y-72029218D01*
X165365628Y-72153700D01*
X157910000Y-72153700D01*
X157910000Y-71410000D01*
X191090000Y-71410000D01*
X191090001Y-73217572D01*
G37*
X191090001Y-73217572D02*
X191090000Y-73217582D01*
X191090001Y-115467572D01*
X191090000Y-115467582D01*
X191090000Y-115840000D01*
X157910000Y-115840000D01*
X157910000Y-114749680D01*
X163612248Y-114749680D01*
X163624508Y-114874162D01*
X163660818Y-114993860D01*
X163719783Y-115104174D01*
X163799135Y-115200865D01*
X163895826Y-115280217D01*
X164006140Y-115339182D01*
X164125838Y-115375492D01*
X164250320Y-115387752D01*
X165214250Y-115384680D01*
X165373000Y-115225930D01*
X165373000Y-113627000D01*
X163774070Y-113627000D01*
X163615320Y-113785750D01*
X163612248Y-114749680D01*
X157910000Y-114749680D01*
X157910000Y-112250320D01*
X163612248Y-112250320D01*
X163615320Y-113214250D01*
X163774070Y-113373000D01*
X165373000Y-113373000D01*
X165373000Y-111774070D01*
X165627000Y-111774070D01*
X165627000Y-113373000D01*
X165647000Y-113373000D01*
X165647000Y-113627000D01*
X165627000Y-113627000D01*
X165627000Y-115225930D01*
X165785750Y-115384680D01*
X166749680Y-115387752D01*
X166874162Y-115375492D01*
X166993860Y-115339182D01*
X167104174Y-115280217D01*
X167200865Y-115200865D01*
X167280217Y-115104174D01*
X167339182Y-114993860D01*
X167375492Y-114874162D01*
X167376239Y-114866578D01*
X167473587Y-114963926D01*
X167782269Y-115170182D01*
X168125259Y-115312253D01*
X168489375Y-115384680D01*
X168860625Y-115384680D01*
X169224741Y-115312253D01*
X169567731Y-115170182D01*
X169876413Y-114963926D01*
X170138926Y-114701413D01*
X170262500Y-114516473D01*
X170386074Y-114701413D01*
X170648587Y-114963926D01*
X170957269Y-115170182D01*
X171300259Y-115312253D01*
X171664375Y-115384680D01*
X172035625Y-115384680D01*
X172399741Y-115312253D01*
X172742731Y-115170182D01*
X173051413Y-114963926D01*
X173265659Y-114749680D01*
X175112248Y-114749680D01*
X175124508Y-114874162D01*
X175160818Y-114993860D01*
X175219783Y-115104174D01*
X175299135Y-115200865D01*
X175395826Y-115280217D01*
X175506140Y-115339182D01*
X175625838Y-115375492D01*
X175750320Y-115387752D01*
X176714250Y-115384680D01*
X176873000Y-115225930D01*
X176873000Y-113627000D01*
X175274070Y-113627000D01*
X175115320Y-113785750D01*
X175112248Y-114749680D01*
X173265659Y-114749680D01*
X173313926Y-114701413D01*
X173520182Y-114392731D01*
X173662253Y-114049741D01*
X173734680Y-113685625D01*
X173734680Y-113314375D01*
X173662253Y-112950259D01*
X173520182Y-112607269D01*
X173313926Y-112298587D01*
X173265659Y-112250320D01*
X175112248Y-112250320D01*
X175115320Y-113214250D01*
X175274070Y-113373000D01*
X176873000Y-113373000D01*
X176873000Y-111774070D01*
X177127000Y-111774070D01*
X177127000Y-113373000D01*
X177147000Y-113373000D01*
X177147000Y-113627000D01*
X177127000Y-113627000D01*
X177127000Y-115225930D01*
X177285750Y-115384680D01*
X178249680Y-115387752D01*
X178374162Y-115375492D01*
X178493860Y-115339182D01*
X178604174Y-115280217D01*
X178700865Y-115200865D01*
X178780217Y-115104174D01*
X178839182Y-114993860D01*
X178875492Y-114874162D01*
X178876239Y-114866578D01*
X178973587Y-114963926D01*
X179282269Y-115170182D01*
X179625259Y-115312253D01*
X179989375Y-115384680D01*
X180360625Y-115384680D01*
X180724741Y-115312253D01*
X181067731Y-115170182D01*
X181376413Y-114963926D01*
X181638926Y-114701413D01*
X181762500Y-114516473D01*
X181886074Y-114701413D01*
X182148587Y-114963926D01*
X182457269Y-115170182D01*
X182800259Y-115312253D01*
X183164375Y-115384680D01*
X183535625Y-115384680D01*
X183899741Y-115312253D01*
X184242731Y-115170182D01*
X184551413Y-114963926D01*
X184813926Y-114701413D01*
X185020182Y-114392731D01*
X185162253Y-114049741D01*
X185234680Y-113685625D01*
X185234680Y-113314375D01*
X185162253Y-112950259D01*
X185020182Y-112607269D01*
X184813926Y-112298587D01*
X184551413Y-112036074D01*
X184242731Y-111829818D01*
X183899741Y-111687747D01*
X183535625Y-111615320D01*
X183164375Y-111615320D01*
X182800259Y-111687747D01*
X182457269Y-111829818D01*
X182148587Y-112036074D01*
X181886074Y-112298587D01*
X181762500Y-112483527D01*
X181638926Y-112298587D01*
X181376413Y-112036074D01*
X181067731Y-111829818D01*
X180724741Y-111687747D01*
X180360625Y-111615320D01*
X179989375Y-111615320D01*
X179625259Y-111687747D01*
X179282269Y-111829818D01*
X178973587Y-112036074D01*
X178876239Y-112133422D01*
X178875492Y-112125838D01*
X178839182Y-112006140D01*
X178780217Y-111895826D01*
X178700865Y-111799135D01*
X178604174Y-111719783D01*
X178493860Y-111660818D01*
X178374162Y-111624508D01*
X178249680Y-111612248D01*
X177285750Y-111615320D01*
X177127000Y-111774070D01*
X176873000Y-111774070D01*
X176714250Y-111615320D01*
X175750320Y-111612248D01*
X175625838Y-111624508D01*
X175506140Y-111660818D01*
X175395826Y-111719783D01*
X175299135Y-111799135D01*
X175219783Y-111895826D01*
X175160818Y-112006140D01*
X175124508Y-112125838D01*
X175112248Y-112250320D01*
X173265659Y-112250320D01*
X173051413Y-112036074D01*
X172742731Y-111829818D01*
X172399741Y-111687747D01*
X172035625Y-111615320D01*
X171664375Y-111615320D01*
X171300259Y-111687747D01*
X170957269Y-111829818D01*
X170648587Y-112036074D01*
X170386074Y-112298587D01*
X170262500Y-112483527D01*
X170138926Y-112298587D01*
X169876413Y-112036074D01*
X169567731Y-111829818D01*
X169224741Y-111687747D01*
X168860625Y-111615320D01*
X168489375Y-111615320D01*
X168125259Y-111687747D01*
X167782269Y-111829818D01*
X167473587Y-112036074D01*
X167376239Y-112133422D01*
X167375492Y-112125838D01*
X167339182Y-112006140D01*
X167280217Y-111895826D01*
X167200865Y-111799135D01*
X167104174Y-111719783D01*
X166993860Y-111660818D01*
X166874162Y-111624508D01*
X166749680Y-111612248D01*
X165785750Y-111615320D01*
X165627000Y-111774070D01*
X165373000Y-111774070D01*
X165214250Y-111615320D01*
X164250320Y-111612248D01*
X164125838Y-111624508D01*
X164006140Y-111660818D01*
X163895826Y-111719783D01*
X163799135Y-111799135D01*
X163719783Y-111895826D01*
X163660818Y-112006140D01*
X163624508Y-112125838D01*
X163612248Y-112250320D01*
X157910000Y-112250320D01*
X157910000Y-108499680D01*
X165362248Y-108499680D01*
X165374508Y-108624162D01*
X165410818Y-108743860D01*
X165469783Y-108854174D01*
X165549135Y-108950865D01*
X165645826Y-109030217D01*
X165756140Y-109089182D01*
X165875838Y-109125492D01*
X166000320Y-109137752D01*
X166964250Y-109134680D01*
X167123000Y-108975930D01*
X167123000Y-107377000D01*
X167377000Y-107377000D01*
X167377000Y-108975930D01*
X167535750Y-109134680D01*
X168499680Y-109137752D01*
X168624162Y-109125492D01*
X168743860Y-109089182D01*
X168854174Y-109030217D01*
X168950865Y-108950865D01*
X169030217Y-108854174D01*
X169089182Y-108743860D01*
X169125492Y-108624162D01*
X169137752Y-108499680D01*
X169134680Y-107535750D01*
X168975930Y-107377000D01*
X167377000Y-107377000D01*
X167123000Y-107377000D01*
X165524070Y-107377000D01*
X165365320Y-107535750D01*
X165362248Y-108499680D01*
X157910000Y-108499680D01*
X157910000Y-106000320D01*
X165362248Y-106000320D01*
X165365320Y-106964250D01*
X165524070Y-107123000D01*
X167123000Y-107123000D01*
X167123000Y-105524070D01*
X167377000Y-105524070D01*
X167377000Y-107123000D01*
X168975930Y-107123000D01*
X169034555Y-107064375D01*
X169175320Y-107064375D01*
X169175320Y-107435625D01*
X169247747Y-107799741D01*
X169389818Y-108142731D01*
X169596074Y-108451413D01*
X169858587Y-108713926D01*
X170167269Y-108920182D01*
X170510259Y-109062253D01*
X170874375Y-109134680D01*
X171245625Y-109134680D01*
X171609741Y-109062253D01*
X171952731Y-108920182D01*
X172261413Y-108713926D01*
X172475659Y-108499680D01*
X175862248Y-108499680D01*
X175874508Y-108624162D01*
X175910818Y-108743860D01*
X175969783Y-108854174D01*
X176049135Y-108950865D01*
X176145826Y-109030217D01*
X176256140Y-109089182D01*
X176375838Y-109125492D01*
X176500320Y-109137752D01*
X177464250Y-109134680D01*
X177623000Y-108975930D01*
X177623000Y-107377000D01*
X177877000Y-107377000D01*
X177877000Y-108975930D01*
X178035750Y-109134680D01*
X178999680Y-109137752D01*
X179124162Y-109125492D01*
X179243860Y-109089182D01*
X179354174Y-109030217D01*
X179450865Y-108950865D01*
X179530217Y-108854174D01*
X179589182Y-108743860D01*
X179625492Y-108624162D01*
X179637752Y-108499680D01*
X179634680Y-107535750D01*
X179475930Y-107377000D01*
X177877000Y-107377000D01*
X177623000Y-107377000D01*
X176024070Y-107377000D01*
X175865320Y-107535750D01*
X175862248Y-108499680D01*
X172475659Y-108499680D01*
X172523926Y-108451413D01*
X172730182Y-108142731D01*
X172872253Y-107799741D01*
X172944680Y-107435625D01*
X172944680Y-107064375D01*
X172872253Y-106700259D01*
X172730182Y-106357269D01*
X172523926Y-106048587D01*
X172475659Y-106000320D01*
X175862248Y-106000320D01*
X175865320Y-106964250D01*
X176024070Y-107123000D01*
X177623000Y-107123000D01*
X177623000Y-105524070D01*
X177877000Y-105524070D01*
X177877000Y-107123000D01*
X179475930Y-107123000D01*
X179534555Y-107064375D01*
X179675320Y-107064375D01*
X179675320Y-107435625D01*
X179747747Y-107799741D01*
X179889818Y-108142731D01*
X180096074Y-108451413D01*
X180358587Y-108713926D01*
X180667269Y-108920182D01*
X181010259Y-109062253D01*
X181374375Y-109134680D01*
X181745625Y-109134680D01*
X182109741Y-109062253D01*
X182452731Y-108920182D01*
X182761413Y-108713926D01*
X183023926Y-108451413D01*
X183230182Y-108142731D01*
X183372253Y-107799741D01*
X183444680Y-107435625D01*
X183444680Y-107064375D01*
X183372253Y-106700259D01*
X183230182Y-106357269D01*
X183023926Y-106048587D01*
X182761413Y-105786074D01*
X182452731Y-105579818D01*
X182109741Y-105437747D01*
X181745625Y-105365320D01*
X181374375Y-105365320D01*
X181010259Y-105437747D01*
X180667269Y-105579818D01*
X180358587Y-105786074D01*
X180096074Y-106048587D01*
X179889818Y-106357269D01*
X179747747Y-106700259D01*
X179675320Y-107064375D01*
X179534555Y-107064375D01*
X179634680Y-106964250D01*
X179637752Y-106000320D01*
X179625492Y-105875838D01*
X179589182Y-105756140D01*
X179530217Y-105645826D01*
X179450865Y-105549135D01*
X179354174Y-105469783D01*
X179243860Y-105410818D01*
X179124162Y-105374508D01*
X178999680Y-105362248D01*
X178035750Y-105365320D01*
X177877000Y-105524070D01*
X177623000Y-105524070D01*
X177464250Y-105365320D01*
X176500320Y-105362248D01*
X176375838Y-105374508D01*
X176256140Y-105410818D01*
X176145826Y-105469783D01*
X176049135Y-105549135D01*
X175969783Y-105645826D01*
X175910818Y-105756140D01*
X175874508Y-105875838D01*
X175862248Y-106000320D01*
X172475659Y-106000320D01*
X172261413Y-105786074D01*
X171952731Y-105579818D01*
X171609741Y-105437747D01*
X171245625Y-105365320D01*
X170874375Y-105365320D01*
X170510259Y-105437747D01*
X170167269Y-105579818D01*
X169858587Y-105786074D01*
X169596074Y-106048587D01*
X169389818Y-106357269D01*
X169247747Y-106700259D01*
X169175320Y-107064375D01*
X169034555Y-107064375D01*
X169134680Y-106964250D01*
X169137752Y-106000320D01*
X169125492Y-105875838D01*
X169089182Y-105756140D01*
X169030217Y-105645826D01*
X168950865Y-105549135D01*
X168854174Y-105469783D01*
X168743860Y-105410818D01*
X168624162Y-105374508D01*
X168499680Y-105362248D01*
X167535750Y-105365320D01*
X167377000Y-105524070D01*
X167123000Y-105524070D01*
X166964250Y-105365320D01*
X166000320Y-105362248D01*
X165875838Y-105374508D01*
X165756140Y-105410818D01*
X165645826Y-105469783D01*
X165549135Y-105549135D01*
X165469783Y-105645826D01*
X165410818Y-105756140D01*
X165374508Y-105875838D01*
X165362248Y-106000320D01*
X157910000Y-106000320D01*
X157910000Y-102579117D01*
X158765000Y-102579117D01*
X158765000Y-102920883D01*
X158831675Y-103256081D01*
X158962463Y-103571831D01*
X159152337Y-103855998D01*
X159394002Y-104097663D01*
X159678169Y-104287537D01*
X159993919Y-104418325D01*
X160329117Y-104485000D01*
X160670883Y-104485000D01*
X161006081Y-104418325D01*
X161321831Y-104287537D01*
X161605998Y-104097663D01*
X161847663Y-103855998D01*
X162037537Y-103571831D01*
X162168325Y-103256081D01*
X162235000Y-102920883D01*
X162235000Y-102579117D01*
X162168325Y-102243919D01*
X162037537Y-101928169D01*
X161847663Y-101644002D01*
X161605998Y-101402337D01*
X161321831Y-101212463D01*
X161006081Y-101081675D01*
X160670883Y-101015000D01*
X160329117Y-101015000D01*
X159993919Y-101081675D01*
X159678169Y-101212463D01*
X159394002Y-101402337D01*
X159152337Y-101644002D01*
X158962463Y-101928169D01*
X158831675Y-102243919D01*
X158765000Y-102579117D01*
X157910000Y-102579117D01*
X157910000Y-93727719D01*
X158106935Y-93727719D01*
X158153595Y-94096025D01*
X158271211Y-94448151D01*
X158396685Y-94682896D01*
X158686623Y-94808771D01*
X159820395Y-93675000D01*
X159806252Y-93660858D01*
X159985858Y-93481252D01*
X160000000Y-93495395D01*
X160014142Y-93481252D01*
X160193748Y-93660858D01*
X160179605Y-93675000D01*
X161313377Y-94808771D01*
X161603315Y-94682896D01*
X161769139Y-94350738D01*
X161866975Y-93992613D01*
X161893065Y-93622281D01*
X161846405Y-93253975D01*
X161728789Y-92901849D01*
X161603315Y-92667104D01*
X161313378Y-92541230D01*
X161428488Y-92426120D01*
X161376999Y-92374631D01*
X161493860Y-92339182D01*
X161604174Y-92280217D01*
X161700865Y-92200865D01*
X161780217Y-92104174D01*
X161839182Y-91993860D01*
X161875492Y-91874162D01*
X161887752Y-91749680D01*
X161887752Y-89250320D01*
X161875492Y-89125838D01*
X161845304Y-89026320D01*
X161882667Y-89030000D01*
X161882676Y-89030000D01*
X161919999Y-89033676D01*
X161957322Y-89030000D01*
X165570190Y-89030000D01*
X165706096Y-89233398D01*
X165916602Y-89443904D01*
X166060420Y-89540000D01*
X165916602Y-89636096D01*
X165706096Y-89846602D01*
X165540703Y-90094131D01*
X165426778Y-90369170D01*
X165368700Y-90661150D01*
X165368700Y-90958850D01*
X165426778Y-91250830D01*
X165540703Y-91525869D01*
X165706096Y-91773398D01*
X165916602Y-91983904D01*
X166060420Y-92080000D01*
X165916602Y-92176096D01*
X165706096Y-92386602D01*
X165540703Y-92634131D01*
X165426778Y-92909170D01*
X165368700Y-93201150D01*
X165368700Y-93498850D01*
X165426778Y-93790830D01*
X165540703Y-94065869D01*
X165706096Y-94313398D01*
X165916602Y-94523904D01*
X166060420Y-94620000D01*
X165916602Y-94716096D01*
X165706096Y-94926602D01*
X165540703Y-95174131D01*
X165426778Y-95449170D01*
X165368700Y-95741150D01*
X165368700Y-96038850D01*
X165426778Y-96330830D01*
X165540703Y-96605869D01*
X165706096Y-96853398D01*
X165916602Y-97063904D01*
X166060420Y-97160000D01*
X165916602Y-97256096D01*
X165706096Y-97466602D01*
X165540703Y-97714131D01*
X165426778Y-97989170D01*
X165368700Y-98281150D01*
X165368700Y-98383898D01*
X163323804Y-96339003D01*
X163300001Y-96309999D01*
X163184276Y-96215026D01*
X163052247Y-96144454D01*
X162908986Y-96100997D01*
X162797333Y-96090000D01*
X162797322Y-96090000D01*
X162760000Y-96086324D01*
X162722678Y-96090000D01*
X161725161Y-96090000D01*
X161670182Y-95957269D01*
X161463926Y-95648587D01*
X161201413Y-95386074D01*
X161015147Y-95261614D01*
X161133771Y-94988377D01*
X160000000Y-93854605D01*
X158866229Y-94988377D01*
X158984853Y-95261614D01*
X158798587Y-95386074D01*
X158536074Y-95648587D01*
X158329818Y-95957269D01*
X158187747Y-96300259D01*
X158115320Y-96664375D01*
X158115320Y-97035625D01*
X158187747Y-97399741D01*
X158329818Y-97742731D01*
X158536074Y-98051413D01*
X158798587Y-98313926D01*
X159107269Y-98520182D01*
X159450259Y-98662253D01*
X159814375Y-98734680D01*
X160185625Y-98734680D01*
X160549741Y-98662253D01*
X160892731Y-98520182D01*
X161201413Y-98313926D01*
X161463926Y-98051413D01*
X161670182Y-97742731D01*
X161725161Y-97610000D01*
X162445199Y-97610000D01*
X165416424Y-100581225D01*
X165368700Y-100821150D01*
X165368700Y-101118850D01*
X165426778Y-101410830D01*
X165540703Y-101685869D01*
X165706096Y-101933398D01*
X165916602Y-102143904D01*
X166164131Y-102309297D01*
X166439170Y-102423222D01*
X166731150Y-102481300D01*
X167028850Y-102481300D01*
X167320830Y-102423222D01*
X167595869Y-102309297D01*
X167843398Y-102143904D01*
X168053904Y-101933398D01*
X168219297Y-101685869D01*
X168333222Y-101410830D01*
X168391300Y-101118850D01*
X168391300Y-101016101D01*
X172386201Y-105011003D01*
X172409999Y-105040001D01*
X172525724Y-105134974D01*
X172657753Y-105205546D01*
X172801014Y-105249003D01*
X172912667Y-105260000D01*
X172912676Y-105260000D01*
X172949999Y-105263676D01*
X172987322Y-105260000D01*
X183037678Y-105260000D01*
X183075000Y-105263676D01*
X183112322Y-105260000D01*
X183112333Y-105260000D01*
X183223986Y-105249003D01*
X183367247Y-105205546D01*
X183499276Y-105134974D01*
X183615001Y-105040001D01*
X183638804Y-105010997D01*
X187223464Y-101426337D01*
X187133025Y-101757387D01*
X187106935Y-102127719D01*
X187153595Y-102496025D01*
X187271211Y-102848151D01*
X187396685Y-103082896D01*
X187686622Y-103208770D01*
X187571512Y-103323880D01*
X187623001Y-103375369D01*
X187506140Y-103410818D01*
X187395826Y-103469783D01*
X187299135Y-103549135D01*
X187219783Y-103645826D01*
X187160818Y-103756140D01*
X187124508Y-103875838D01*
X187112248Y-104000320D01*
X187112248Y-106499680D01*
X187124508Y-106624162D01*
X187160818Y-106743860D01*
X187219783Y-106854174D01*
X187299135Y-106950865D01*
X187395826Y-107030217D01*
X187506140Y-107089182D01*
X187625838Y-107125492D01*
X187750320Y-107137752D01*
X190249680Y-107137752D01*
X190374162Y-107125492D01*
X190493860Y-107089182D01*
X190604174Y-107030217D01*
X190700865Y-106950865D01*
X190780217Y-106854174D01*
X190839182Y-106743860D01*
X190875492Y-106624162D01*
X190887752Y-106499680D01*
X190887752Y-104000320D01*
X190875492Y-103875838D01*
X190839182Y-103756140D01*
X190780217Y-103645826D01*
X190700865Y-103549135D01*
X190604174Y-103469783D01*
X190493860Y-103410818D01*
X190376999Y-103375369D01*
X190428488Y-103323880D01*
X190313378Y-103208770D01*
X190603315Y-103082896D01*
X190769139Y-102750738D01*
X190866975Y-102392613D01*
X190893065Y-102022281D01*
X190846405Y-101653975D01*
X190728789Y-101301849D01*
X190603315Y-101067104D01*
X190313377Y-100941229D01*
X189179605Y-102075000D01*
X189193748Y-102089142D01*
X189014142Y-102268748D01*
X189000000Y-102254605D01*
X188985858Y-102268748D01*
X188806252Y-102089142D01*
X188820395Y-102075000D01*
X188806252Y-102060858D01*
X188985858Y-101881252D01*
X189000000Y-101895395D01*
X190133771Y-100761623D01*
X190015147Y-100488386D01*
X190201413Y-100363926D01*
X190463926Y-100101413D01*
X190670182Y-99792731D01*
X190812253Y-99449741D01*
X190884680Y-99085625D01*
X190884680Y-98714375D01*
X190812253Y-98350259D01*
X190670182Y-98007269D01*
X190463926Y-97698587D01*
X190201413Y-97436074D01*
X189892731Y-97229818D01*
X189549741Y-97087747D01*
X189185625Y-97015320D01*
X188814375Y-97015320D01*
X188450259Y-97087747D01*
X188107269Y-97229818D01*
X187798587Y-97436074D01*
X187536074Y-97698587D01*
X187329818Y-98007269D01*
X187187747Y-98350259D01*
X187115320Y-98714375D01*
X187115320Y-99085625D01*
X187164969Y-99335229D01*
X185760000Y-100740198D01*
X185760000Y-92714801D01*
X187126629Y-91348172D01*
X187106935Y-91627719D01*
X187153595Y-91996025D01*
X187271211Y-92348151D01*
X187396685Y-92582896D01*
X187686622Y-92708770D01*
X187571512Y-92823880D01*
X187623001Y-92875369D01*
X187506140Y-92910818D01*
X187395826Y-92969783D01*
X187299135Y-93049135D01*
X187219783Y-93145826D01*
X187160818Y-93256140D01*
X187124508Y-93375838D01*
X187112248Y-93500320D01*
X187112248Y-95999680D01*
X187124508Y-96124162D01*
X187160818Y-96243860D01*
X187219783Y-96354174D01*
X187299135Y-96450865D01*
X187395826Y-96530217D01*
X187506140Y-96589182D01*
X187625838Y-96625492D01*
X187750320Y-96637752D01*
X190249680Y-96637752D01*
X190374162Y-96625492D01*
X190493860Y-96589182D01*
X190604174Y-96530217D01*
X190700865Y-96450865D01*
X190780217Y-96354174D01*
X190839182Y-96243860D01*
X190875492Y-96124162D01*
X190887752Y-95999680D01*
X190887752Y-93500320D01*
X190875492Y-93375838D01*
X190839182Y-93256140D01*
X190780217Y-93145826D01*
X190700865Y-93049135D01*
X190604174Y-92969783D01*
X190493860Y-92910818D01*
X190376999Y-92875369D01*
X190428488Y-92823880D01*
X190313378Y-92708770D01*
X190603315Y-92582896D01*
X190769139Y-92250738D01*
X190866975Y-91892613D01*
X190893065Y-91522281D01*
X190846405Y-91153975D01*
X190728789Y-90801849D01*
X190603315Y-90567104D01*
X190313377Y-90441229D01*
X189179605Y-91575000D01*
X189193748Y-91589142D01*
X189014142Y-91768748D01*
X189000000Y-91754605D01*
X188985858Y-91768748D01*
X188806252Y-91589142D01*
X188820395Y-91575000D01*
X188806252Y-91560858D01*
X188985858Y-91381252D01*
X189000000Y-91395395D01*
X190133771Y-90261623D01*
X190015147Y-89988386D01*
X190201413Y-89863926D01*
X190463926Y-89601413D01*
X190670182Y-89292731D01*
X190812253Y-88949741D01*
X190884680Y-88585625D01*
X190884680Y-88214375D01*
X190812253Y-87850259D01*
X190670182Y-87507269D01*
X190463926Y-87198587D01*
X190201413Y-86936074D01*
X189892731Y-86729818D01*
X189549741Y-86587747D01*
X189185625Y-86515320D01*
X188814375Y-86515320D01*
X188450259Y-86587747D01*
X188107269Y-86729818D01*
X187798587Y-86936074D01*
X187536074Y-87198587D01*
X187329818Y-87507269D01*
X187187747Y-87850259D01*
X187115320Y-88214375D01*
X187115320Y-88585625D01*
X187187747Y-88949741D01*
X187242726Y-89082473D01*
X187239323Y-89085876D01*
X187239318Y-89085880D01*
X185260000Y-91065199D01*
X185260000Y-82639801D01*
X187126629Y-80773172D01*
X187106935Y-81052719D01*
X187153595Y-81421025D01*
X187271211Y-81773151D01*
X187396685Y-82007896D01*
X187686622Y-82133770D01*
X187571512Y-82248880D01*
X187623001Y-82300369D01*
X187506140Y-82335818D01*
X187395826Y-82394783D01*
X187299135Y-82474135D01*
X187219783Y-82570826D01*
X187160818Y-82681140D01*
X187124508Y-82800838D01*
X187112248Y-82925320D01*
X187112248Y-85424680D01*
X187124508Y-85549162D01*
X187160818Y-85668860D01*
X187219783Y-85779174D01*
X187299135Y-85875865D01*
X187395826Y-85955217D01*
X187506140Y-86014182D01*
X187625838Y-86050492D01*
X187750320Y-86062752D01*
X190249680Y-86062752D01*
X190374162Y-86050492D01*
X190493860Y-86014182D01*
X190604174Y-85955217D01*
X190700865Y-85875865D01*
X190780217Y-85779174D01*
X190839182Y-85668860D01*
X190875492Y-85549162D01*
X190887752Y-85424680D01*
X190887752Y-82925320D01*
X190875492Y-82800838D01*
X190839182Y-82681140D01*
X190780217Y-82570826D01*
X190700865Y-82474135D01*
X190604174Y-82394783D01*
X190493860Y-82335818D01*
X190376999Y-82300369D01*
X190428488Y-82248880D01*
X190313378Y-82133770D01*
X190603315Y-82007896D01*
X190769139Y-81675738D01*
X190866975Y-81317613D01*
X190893065Y-80947281D01*
X190846405Y-80578975D01*
X190728789Y-80226849D01*
X190603315Y-79992104D01*
X190313377Y-79866229D01*
X189179605Y-81000000D01*
X189193748Y-81014142D01*
X189014142Y-81193748D01*
X189000000Y-81179605D01*
X188985858Y-81193748D01*
X188806252Y-81014142D01*
X188820395Y-81000000D01*
X188806252Y-80985858D01*
X188985858Y-80806252D01*
X189000000Y-80820395D01*
X190133771Y-79686623D01*
X190015147Y-79413386D01*
X190201413Y-79288926D01*
X190463926Y-79026413D01*
X190670182Y-78717731D01*
X190812253Y-78374741D01*
X190884680Y-78010625D01*
X190884680Y-77639375D01*
X190812253Y-77275259D01*
X190670182Y-76932269D01*
X190463926Y-76623587D01*
X190201413Y-76361074D01*
X189892731Y-76154818D01*
X189549741Y-76012747D01*
X189185625Y-75940320D01*
X188814375Y-75940320D01*
X188450259Y-76012747D01*
X188107269Y-76154818D01*
X187798587Y-76361074D01*
X187536074Y-76623587D01*
X187329818Y-76932269D01*
X187187747Y-77275259D01*
X187115320Y-77639375D01*
X187115320Y-78010625D01*
X187187747Y-78374741D01*
X187242726Y-78507472D01*
X183989003Y-81761196D01*
X183959999Y-81784999D01*
X183928071Y-81823904D01*
X183865026Y-81900724D01*
X183809935Y-82003792D01*
X183794454Y-82032754D01*
X183750997Y-82176015D01*
X183740000Y-82287668D01*
X183740000Y-82287678D01*
X183736324Y-82325000D01*
X183740000Y-82362322D01*
X183740001Y-101487377D01*
X182487379Y-102740000D01*
X177344802Y-102740000D01*
X168343576Y-93738775D01*
X168391300Y-93498850D01*
X168391300Y-93201150D01*
X168333222Y-92909170D01*
X168219297Y-92634131D01*
X168053904Y-92386602D01*
X167843398Y-92176096D01*
X167699580Y-92080000D01*
X167843398Y-91983904D01*
X168053904Y-91773398D01*
X168219297Y-91525869D01*
X168333222Y-91250830D01*
X168391300Y-90958850D01*
X168391300Y-90661150D01*
X168333222Y-90369170D01*
X168219297Y-90094131D01*
X168053904Y-89846602D01*
X167843398Y-89636096D01*
X167699580Y-89540000D01*
X167843398Y-89443904D01*
X168053904Y-89233398D01*
X168219297Y-88985869D01*
X168333222Y-88710830D01*
X168391300Y-88418850D01*
X168391300Y-88121150D01*
X168333222Y-87829170D01*
X168219297Y-87554131D01*
X168053904Y-87306602D01*
X167843398Y-87096096D01*
X167699580Y-87000000D01*
X167843398Y-86903904D01*
X168053904Y-86693398D01*
X168219297Y-86445869D01*
X168333222Y-86170830D01*
X168391300Y-85878850D01*
X168391300Y-85581150D01*
X168333222Y-85289170D01*
X168219297Y-85014131D01*
X168053904Y-84766602D01*
X167843398Y-84556096D01*
X167699580Y-84460000D01*
X167843398Y-84363904D01*
X168053904Y-84153398D01*
X168219297Y-83905869D01*
X168333222Y-83630830D01*
X168391300Y-83338850D01*
X168391300Y-83041150D01*
X168333222Y-82749170D01*
X168219297Y-82474131D01*
X168053904Y-82226602D01*
X167843398Y-82016096D01*
X167680191Y-81907045D01*
X167747563Y-81697169D01*
X166880000Y-80829605D01*
X166012437Y-81697169D01*
X166079809Y-81907045D01*
X165916602Y-82016096D01*
X165706096Y-82226602D01*
X165540703Y-82474131D01*
X165426778Y-82749170D01*
X165368700Y-83041150D01*
X165368700Y-83338850D01*
X165426778Y-83630830D01*
X165540703Y-83905869D01*
X165706096Y-84153398D01*
X165916602Y-84363904D01*
X166060420Y-84460000D01*
X165916602Y-84556096D01*
X165706096Y-84766602D01*
X165540703Y-85014131D01*
X165426778Y-85289170D01*
X165368700Y-85581150D01*
X165368700Y-85878850D01*
X165426778Y-86170830D01*
X165540703Y-86445869D01*
X165706096Y-86693398D01*
X165916602Y-86903904D01*
X166060420Y-87000000D01*
X165916602Y-87096096D01*
X165706096Y-87306602D01*
X165570190Y-87510000D01*
X162234802Y-87510000D01*
X161757274Y-87032472D01*
X161812253Y-86899741D01*
X161884680Y-86535625D01*
X161884680Y-86164375D01*
X161812253Y-85800259D01*
X161670182Y-85457269D01*
X161463926Y-85148587D01*
X161201413Y-84886074D01*
X161015147Y-84761614D01*
X161133771Y-84488377D01*
X160000000Y-83354605D01*
X158866229Y-84488377D01*
X158984853Y-84761614D01*
X158798587Y-84886074D01*
X158536074Y-85148587D01*
X158329818Y-85457269D01*
X158187747Y-85800259D01*
X158115320Y-86164375D01*
X158115320Y-86535625D01*
X158187747Y-86899741D01*
X158329818Y-87242731D01*
X158536074Y-87551413D01*
X158798587Y-87813926D01*
X159107269Y-88020182D01*
X159450259Y-88162253D01*
X159814375Y-88234680D01*
X160185625Y-88234680D01*
X160549741Y-88162253D01*
X160682472Y-88107274D01*
X161187446Y-88612248D01*
X158750320Y-88612248D01*
X158625838Y-88624508D01*
X158506140Y-88660818D01*
X158395826Y-88719783D01*
X158299135Y-88799135D01*
X158219783Y-88895826D01*
X158160818Y-89006140D01*
X158124508Y-89125838D01*
X158112248Y-89250320D01*
X158112248Y-91749680D01*
X158124508Y-91874162D01*
X158160818Y-91993860D01*
X158219783Y-92104174D01*
X158299135Y-92200865D01*
X158395826Y-92280217D01*
X158506140Y-92339182D01*
X158623001Y-92374631D01*
X158571512Y-92426120D01*
X158686622Y-92541230D01*
X158396685Y-92667104D01*
X158230861Y-92999262D01*
X158133025Y-93357387D01*
X158106935Y-93727719D01*
X157910000Y-93727719D01*
X157910000Y-83227719D01*
X158106935Y-83227719D01*
X158153595Y-83596025D01*
X158271211Y-83948151D01*
X158396685Y-84182896D01*
X158686623Y-84308771D01*
X159820395Y-83175000D01*
X159806252Y-83160858D01*
X159985858Y-82981252D01*
X160000000Y-82995395D01*
X160014142Y-82981252D01*
X160193748Y-83160858D01*
X160179605Y-83175000D01*
X161313377Y-84308771D01*
X161603315Y-84182896D01*
X161769139Y-83850738D01*
X161866975Y-83492613D01*
X161893065Y-83122281D01*
X161846405Y-82753975D01*
X161728789Y-82401849D01*
X161603315Y-82167104D01*
X161313378Y-82041230D01*
X161428488Y-81926120D01*
X161376999Y-81874631D01*
X161493860Y-81839182D01*
X161604174Y-81780217D01*
X161700865Y-81700865D01*
X161780217Y-81604174D01*
X161839182Y-81493860D01*
X161875492Y-81374162D01*
X161887752Y-81249680D01*
X161887752Y-80717491D01*
X165362887Y-80717491D01*
X165405204Y-81012167D01*
X165504198Y-81292927D01*
X165581071Y-81436746D01*
X165832831Y-81517563D01*
X166700395Y-80650000D01*
X167059605Y-80650000D01*
X167927169Y-81517563D01*
X168178929Y-81436746D01*
X168307457Y-81168221D01*
X168381129Y-80879781D01*
X168397113Y-80582509D01*
X168354796Y-80287833D01*
X168255802Y-80007073D01*
X168178929Y-79863254D01*
X167927169Y-79782437D01*
X167059605Y-80650000D01*
X166700395Y-80650000D01*
X165832831Y-79782437D01*
X165581071Y-79863254D01*
X165452543Y-80131779D01*
X165378871Y-80420219D01*
X165362887Y-80717491D01*
X161887752Y-80717491D01*
X161887752Y-79157169D01*
X166012437Y-79157169D01*
X166083968Y-79380000D01*
X166012437Y-79602831D01*
X166880000Y-80470395D01*
X167747563Y-79602831D01*
X167676032Y-79380000D01*
X167747563Y-79157169D01*
X166880000Y-78289605D01*
X166012437Y-79157169D01*
X161887752Y-79157169D01*
X161887752Y-78750320D01*
X161875492Y-78625838D01*
X161839182Y-78506140D01*
X161780217Y-78395826D01*
X161700865Y-78299135D01*
X161604174Y-78219783D01*
X161525053Y-78177491D01*
X165362887Y-78177491D01*
X165405204Y-78472167D01*
X165504198Y-78752927D01*
X165581071Y-78896746D01*
X165832831Y-78977563D01*
X166700395Y-78110000D01*
X167059605Y-78110000D01*
X167927169Y-78977563D01*
X168178929Y-78896746D01*
X168307457Y-78628221D01*
X168381129Y-78339781D01*
X168397113Y-78042509D01*
X168385430Y-77961150D01*
X180608700Y-77961150D01*
X180608700Y-78258850D01*
X180666778Y-78550830D01*
X180780703Y-78825869D01*
X180946096Y-79073398D01*
X181156602Y-79283904D01*
X181300420Y-79380000D01*
X181156602Y-79476096D01*
X180946096Y-79686602D01*
X180780703Y-79934131D01*
X180666778Y-80209170D01*
X180608700Y-80501150D01*
X180608700Y-80798850D01*
X180666778Y-81090830D01*
X180780703Y-81365869D01*
X180946096Y-81613398D01*
X181156602Y-81823904D01*
X181300420Y-81920000D01*
X181156602Y-82016096D01*
X180946096Y-82226602D01*
X180780703Y-82474131D01*
X180666778Y-82749170D01*
X180608700Y-83041150D01*
X180608700Y-83338850D01*
X180666778Y-83630830D01*
X180780703Y-83905869D01*
X180946096Y-84153398D01*
X181156602Y-84363904D01*
X181300420Y-84460000D01*
X181156602Y-84556096D01*
X180946096Y-84766602D01*
X180780703Y-85014131D01*
X180666778Y-85289170D01*
X180608700Y-85581150D01*
X180608700Y-85878850D01*
X180666778Y-86170830D01*
X180780703Y-86445869D01*
X180946096Y-86693398D01*
X181156602Y-86903904D01*
X181300420Y-87000000D01*
X181156602Y-87096096D01*
X180946096Y-87306602D01*
X180780703Y-87554131D01*
X180666778Y-87829170D01*
X180608700Y-88121150D01*
X180608700Y-88418850D01*
X180666778Y-88710830D01*
X180780703Y-88985869D01*
X180946096Y-89233398D01*
X181156602Y-89443904D01*
X181300420Y-89540000D01*
X181156602Y-89636096D01*
X180946096Y-89846602D01*
X180780703Y-90094131D01*
X180666778Y-90369170D01*
X180608700Y-90661150D01*
X180608700Y-90958850D01*
X180666778Y-91250830D01*
X180780703Y-91525869D01*
X180946096Y-91773398D01*
X181156602Y-91983904D01*
X181300420Y-92080000D01*
X181156602Y-92176096D01*
X180946096Y-92386602D01*
X180780703Y-92634131D01*
X180666778Y-92909170D01*
X180608700Y-93201150D01*
X180608700Y-93498850D01*
X180666778Y-93790830D01*
X180780703Y-94065869D01*
X180946096Y-94313398D01*
X181156602Y-94523904D01*
X181300420Y-94620000D01*
X181156602Y-94716096D01*
X180946096Y-94926602D01*
X180780703Y-95174131D01*
X180666778Y-95449170D01*
X180608700Y-95741150D01*
X180608700Y-96038850D01*
X180666778Y-96330830D01*
X180780703Y-96605869D01*
X180946096Y-96853398D01*
X181156602Y-97063904D01*
X181300420Y-97160000D01*
X181156602Y-97256096D01*
X180946096Y-97466602D01*
X180780703Y-97714131D01*
X180666778Y-97989170D01*
X180608700Y-98281150D01*
X180608700Y-98578850D01*
X180666778Y-98870830D01*
X180780703Y-99145869D01*
X180946096Y-99393398D01*
X181156602Y-99603904D01*
X181300420Y-99700000D01*
X181156602Y-99796096D01*
X180946096Y-100006602D01*
X180780703Y-100254131D01*
X180666778Y-100529170D01*
X180608700Y-100821150D01*
X180608700Y-101118850D01*
X180666778Y-101410830D01*
X180780703Y-101685869D01*
X180946096Y-101933398D01*
X181156602Y-102143904D01*
X181404131Y-102309297D01*
X181679170Y-102423222D01*
X181971150Y-102481300D01*
X182268850Y-102481300D01*
X182560830Y-102423222D01*
X182835869Y-102309297D01*
X183083398Y-102143904D01*
X183293904Y-101933398D01*
X183459297Y-101685869D01*
X183573222Y-101410830D01*
X183631300Y-101118850D01*
X183631300Y-100821150D01*
X183573222Y-100529170D01*
X183459297Y-100254131D01*
X183293904Y-100006602D01*
X183083398Y-99796096D01*
X182939580Y-99700000D01*
X183083398Y-99603904D01*
X183293904Y-99393398D01*
X183459297Y-99145869D01*
X183573222Y-98870830D01*
X183631300Y-98578850D01*
X183631300Y-98281150D01*
X183573222Y-97989170D01*
X183459297Y-97714131D01*
X183293904Y-97466602D01*
X183083398Y-97256096D01*
X182939580Y-97160000D01*
X183083398Y-97063904D01*
X183293904Y-96853398D01*
X183459297Y-96605869D01*
X183573222Y-96330830D01*
X183631300Y-96038850D01*
X183631300Y-95741150D01*
X183573222Y-95449170D01*
X183459297Y-95174131D01*
X183293904Y-94926602D01*
X183083398Y-94716096D01*
X182939580Y-94620000D01*
X183083398Y-94523904D01*
X183293904Y-94313398D01*
X183459297Y-94065869D01*
X183573222Y-93790830D01*
X183631300Y-93498850D01*
X183631300Y-93201150D01*
X183573222Y-92909170D01*
X183459297Y-92634131D01*
X183293904Y-92386602D01*
X183083398Y-92176096D01*
X182939580Y-92080000D01*
X183083398Y-91983904D01*
X183293904Y-91773398D01*
X183459297Y-91525869D01*
X183573222Y-91250830D01*
X183631300Y-90958850D01*
X183631300Y-90661150D01*
X183573222Y-90369170D01*
X183459297Y-90094131D01*
X183293904Y-89846602D01*
X183083398Y-89636096D01*
X182939580Y-89540000D01*
X183083398Y-89443904D01*
X183293904Y-89233398D01*
X183459297Y-88985869D01*
X183573222Y-88710830D01*
X183631300Y-88418850D01*
X183631300Y-88121150D01*
X183573222Y-87829170D01*
X183459297Y-87554131D01*
X183293904Y-87306602D01*
X183083398Y-87096096D01*
X182939580Y-87000000D01*
X183083398Y-86903904D01*
X183293904Y-86693398D01*
X183459297Y-86445869D01*
X183573222Y-86170830D01*
X183631300Y-85878850D01*
X183631300Y-85581150D01*
X183573222Y-85289170D01*
X183459297Y-85014131D01*
X183293904Y-84766602D01*
X183083398Y-84556096D01*
X182939580Y-84460000D01*
X183083398Y-84363904D01*
X183293904Y-84153398D01*
X183459297Y-83905869D01*
X183573222Y-83630830D01*
X183631300Y-83338850D01*
X183631300Y-83041150D01*
X183573222Y-82749170D01*
X183459297Y-82474131D01*
X183293904Y-82226602D01*
X183083398Y-82016096D01*
X182939580Y-81920000D01*
X183083398Y-81823904D01*
X183293904Y-81613398D01*
X183459297Y-81365869D01*
X183573222Y-81090830D01*
X183631300Y-80798850D01*
X183631300Y-80501150D01*
X183573222Y-80209170D01*
X183459297Y-79934131D01*
X183293904Y-79686602D01*
X183083398Y-79476096D01*
X182939580Y-79380000D01*
X183083398Y-79283904D01*
X183293904Y-79073398D01*
X183459297Y-78825869D01*
X183573222Y-78550830D01*
X183631300Y-78258850D01*
X183631300Y-77961150D01*
X183573222Y-77669170D01*
X183459297Y-77394131D01*
X183293904Y-77146602D01*
X183083398Y-76936096D01*
X182920191Y-76827045D01*
X182987563Y-76617169D01*
X182120000Y-75749605D01*
X181252437Y-76617169D01*
X181319809Y-76827045D01*
X181156602Y-76936096D01*
X180946096Y-77146602D01*
X180780703Y-77394131D01*
X180666778Y-77669170D01*
X180608700Y-77961150D01*
X168385430Y-77961150D01*
X168354796Y-77747833D01*
X168255802Y-77467073D01*
X168178929Y-77323254D01*
X167927169Y-77242437D01*
X167059605Y-78110000D01*
X166700395Y-78110000D01*
X165832831Y-77242437D01*
X165581071Y-77323254D01*
X165452543Y-77591779D01*
X165378871Y-77880219D01*
X165362887Y-78177491D01*
X161525053Y-78177491D01*
X161493860Y-78160818D01*
X161374162Y-78124508D01*
X161249680Y-78112248D01*
X158750320Y-78112248D01*
X158625838Y-78124508D01*
X158506140Y-78160818D01*
X158395826Y-78219783D01*
X158299135Y-78299135D01*
X158219783Y-78395826D01*
X158160818Y-78506140D01*
X158124508Y-78625838D01*
X158112248Y-78750320D01*
X158112248Y-81249680D01*
X158124508Y-81374162D01*
X158160818Y-81493860D01*
X158219783Y-81604174D01*
X158299135Y-81700865D01*
X158395826Y-81780217D01*
X158506140Y-81839182D01*
X158623001Y-81874631D01*
X158571512Y-81926120D01*
X158686622Y-82041230D01*
X158396685Y-82167104D01*
X158230861Y-82499262D01*
X158133025Y-82857387D01*
X158106935Y-83227719D01*
X157910000Y-83227719D01*
X157910000Y-73829117D01*
X158765000Y-73829117D01*
X158765000Y-74170883D01*
X158831675Y-74506081D01*
X158962463Y-74821831D01*
X159152337Y-75105998D01*
X159394002Y-75347663D01*
X159678169Y-75537537D01*
X159993919Y-75668325D01*
X160329117Y-75735000D01*
X160670883Y-75735000D01*
X161006081Y-75668325D01*
X161321831Y-75537537D01*
X161605998Y-75347663D01*
X161847663Y-75105998D01*
X162037537Y-74821831D01*
X162168325Y-74506081D01*
X162235000Y-74170883D01*
X162235000Y-73829117D01*
X162168325Y-73493919D01*
X162037537Y-73178169D01*
X161847663Y-72894002D01*
X161605998Y-72652337D01*
X161321831Y-72462463D01*
X161006081Y-72331675D01*
X160670883Y-72265000D01*
X160329117Y-72265000D01*
X159993919Y-72331675D01*
X159678169Y-72462463D01*
X159394002Y-72652337D01*
X159152337Y-72894002D01*
X158962463Y-73178169D01*
X158831675Y-73493919D01*
X158765000Y-73829117D01*
X157910000Y-73829117D01*
X157910000Y-72153700D01*
X165365628Y-72153700D01*
X165365628Y-73906300D01*
X165377888Y-74030782D01*
X165414198Y-74150480D01*
X165473163Y-74260794D01*
X165552515Y-74357485D01*
X165649206Y-74436837D01*
X165759520Y-74495802D01*
X165803542Y-74509156D01*
X165706096Y-74606602D01*
X165540703Y-74854131D01*
X165426778Y-75129170D01*
X165368700Y-75421150D01*
X165368700Y-75718850D01*
X165426778Y-76010830D01*
X165540703Y-76285869D01*
X165706096Y-76533398D01*
X165916602Y-76743904D01*
X166079809Y-76852955D01*
X166012437Y-77062831D01*
X166880000Y-77930395D01*
X167747563Y-77062831D01*
X167680191Y-76852955D01*
X167843398Y-76743904D01*
X168053904Y-76533398D01*
X168219297Y-76285869D01*
X168333222Y-76010830D01*
X168391300Y-75718850D01*
X168391300Y-75637491D01*
X180602887Y-75637491D01*
X180645204Y-75932167D01*
X180744198Y-76212927D01*
X180821071Y-76356746D01*
X181072831Y-76437563D01*
X181940395Y-75570000D01*
X182299605Y-75570000D01*
X183167169Y-76437563D01*
X183418929Y-76356746D01*
X183547457Y-76088221D01*
X183621129Y-75799781D01*
X183637113Y-75502509D01*
X183594796Y-75207833D01*
X183495802Y-74927073D01*
X183418929Y-74783254D01*
X183167169Y-74702437D01*
X182299605Y-75570000D01*
X181940395Y-75570000D01*
X181072831Y-74702437D01*
X180821071Y-74783254D01*
X180692543Y-75051779D01*
X180618871Y-75340219D01*
X180602887Y-75637491D01*
X168391300Y-75637491D01*
X168391300Y-75421150D01*
X168333222Y-75129170D01*
X168219297Y-74854131D01*
X168053904Y-74606602D01*
X167956458Y-74509156D01*
X168000480Y-74495802D01*
X168110794Y-74436837D01*
X168207485Y-74357485D01*
X168286837Y-74260794D01*
X168345802Y-74150480D01*
X168382112Y-74030782D01*
X168394372Y-73906300D01*
X168394372Y-72881150D01*
X180608700Y-72881150D01*
X180608700Y-73178850D01*
X180666778Y-73470830D01*
X180780703Y-73745869D01*
X180946096Y-73993398D01*
X181156602Y-74203904D01*
X181319809Y-74312955D01*
X181252437Y-74522831D01*
X182120000Y-75390395D01*
X182987563Y-74522831D01*
X182920191Y-74312955D01*
X183083398Y-74203904D01*
X183293904Y-73993398D01*
X183459297Y-73745869D01*
X183573222Y-73470830D01*
X183631300Y-73178850D01*
X183631300Y-72881150D01*
X183573222Y-72589170D01*
X183459297Y-72314131D01*
X183293904Y-72066602D01*
X183083398Y-71856096D01*
X182835869Y-71690703D01*
X182560830Y-71576778D01*
X182268850Y-71518700D01*
X181971150Y-71518700D01*
X181679170Y-71576778D01*
X181404131Y-71690703D01*
X181156602Y-71856096D01*
X180946096Y-72066602D01*
X180780703Y-72314131D01*
X180666778Y-72589170D01*
X180608700Y-72881150D01*
X168394372Y-72881150D01*
X168394372Y-72153700D01*
X168382112Y-72029218D01*
X168345802Y-71909520D01*
X168286837Y-71799206D01*
X168207485Y-71702515D01*
X168110794Y-71623163D01*
X168000480Y-71564198D01*
X167880782Y-71527888D01*
X167756300Y-71515628D01*
X166003700Y-71515628D01*
X165879218Y-71527888D01*
X165759520Y-71564198D01*
X165649206Y-71623163D01*
X165552515Y-71702515D01*
X165473163Y-71799206D01*
X165414198Y-71909520D01*
X165377888Y-72029218D01*
X165365628Y-72153700D01*
X157910000Y-72153700D01*
X157910000Y-71410000D01*
X191090000Y-71410000D01*
X191090001Y-73217572D01*
M02*
