G04 #@! TF.GenerationSoftware,KiCad,Pcbnew,(6.0.9-0)*
G04 #@! TF.CreationDate,2023-02-26T13:48:30+01:00*
G04 #@! TF.ProjectId,pro_micro_shield,70726f5f-6d69-4637-926f-5f736869656c,rev?*
G04 #@! TF.SameCoordinates,Original*
G04 #@! TF.FileFunction,Copper,L2,Bot*
G04 #@! TF.FilePolarity,Positive*
%FSLAX46Y46*%
G04 Gerber Fmt 4.6, Leading zero omitted, Abs format (unit mm)*
G04 Created by KiCad (PCBNEW (6.0.9-0)) date 2023-02-26 13:48:30*
%MOMM*%
%LPD*%
G01*
G04 APERTURE LIST*
G04 #@! TA.AperFunction,ComponentPad*
%ADD10R,1.752600X1.752600*%
G04 #@! TD*
G04 #@! TA.AperFunction,ComponentPad*
%ADD11C,1.752600*%
G04 #@! TD*
G04 #@! TA.AperFunction,ComponentPad*
%ADD12R,1.700000X1.700000*%
G04 #@! TD*
G04 #@! TA.AperFunction,ComponentPad*
%ADD13O,1.700000X1.700000*%
G04 #@! TD*
G04 #@! TA.AperFunction,ComponentPad*
%ADD14C,1.600000*%
G04 #@! TD*
G04 #@! TA.AperFunction,ComponentPad*
%ADD15O,1.600000X1.600000*%
G04 #@! TD*
G04 #@! TA.AperFunction,Conductor*
%ADD16C,0.250000*%
G04 #@! TD*
G04 APERTURE END LIST*
D10*
X166880000Y-73030000D03*
D11*
X166880000Y-75570000D03*
X166880000Y-78110000D03*
X166880000Y-80650000D03*
X166880000Y-83190000D03*
X166880000Y-85730000D03*
X166880000Y-88270000D03*
X166880000Y-90810000D03*
X166880000Y-93350000D03*
X166880000Y-95890000D03*
X166880000Y-98430000D03*
X166880000Y-100970000D03*
X182120000Y-100970000D03*
X182120000Y-98430000D03*
X182120000Y-95890000D03*
X182120000Y-93350000D03*
X182120000Y-90810000D03*
X182120000Y-88270000D03*
X182120000Y-85730000D03*
X182120000Y-83190000D03*
X182120000Y-80650000D03*
X182120000Y-78110000D03*
X182120000Y-75570000D03*
X182120000Y-73030000D03*
D12*
X160523000Y-110109000D03*
D13*
X163063000Y-110109000D03*
X165603000Y-110109000D03*
X168143000Y-110109000D03*
X170683000Y-110109000D03*
X173223000Y-110109000D03*
X175763000Y-110109000D03*
X178303000Y-110109000D03*
X180843000Y-110109000D03*
X183383000Y-110109000D03*
X185923000Y-110109000D03*
X188463000Y-110109000D03*
D12*
X186436000Y-101031200D03*
D13*
X186436000Y-98491200D03*
X186436000Y-95951200D03*
X186436000Y-93411200D03*
X186436000Y-90871200D03*
X186436000Y-88331200D03*
X186436000Y-85791200D03*
X186436000Y-83251200D03*
X186436000Y-80711200D03*
D12*
X162560000Y-93319600D03*
D13*
X162560000Y-90779600D03*
X162560000Y-88239600D03*
X162560000Y-85699600D03*
X162560000Y-83159600D03*
X162560000Y-80619600D03*
D14*
X166878000Y-105156000D03*
D15*
X182118000Y-105156000D03*
D16*
X160523000Y-110109000D02*
X160528000Y-110109000D01*
X164338000Y-105664000D02*
X164338000Y-90812000D01*
X160528000Y-110109000D02*
X164338000Y-106299000D01*
X164338000Y-90812000D02*
X166880000Y-88270000D01*
X164338000Y-106299000D02*
X164338000Y-105664000D01*
X184796000Y-101844396D02*
X183378396Y-103262000D01*
X183378396Y-103262000D02*
X171712000Y-103262000D01*
X184796000Y-97591200D02*
X184796000Y-101844396D01*
X171712000Y-103262000D02*
X166880000Y-98430000D01*
X186436000Y-95951200D02*
X184796000Y-97591200D01*
X183192000Y-102812000D02*
X173802000Y-102812000D01*
X186436000Y-88331200D02*
X184346000Y-90421200D01*
X173802000Y-102812000D02*
X166880000Y-95890000D01*
X184346000Y-101658000D02*
X183192000Y-102812000D01*
X184346000Y-90421200D02*
X184346000Y-101658000D01*
X175892000Y-102362000D02*
X166880000Y-93350000D01*
X183896000Y-83251200D02*
X183896000Y-101471604D01*
X183005604Y-102362000D02*
X175892000Y-102362000D01*
X186436000Y-80711200D02*
X183896000Y-83251200D01*
X183896000Y-101471604D02*
X183005604Y-102362000D01*
G04 #@! TA.AperFunction,Conductor*
G36*
X191183621Y-71278502D02*
G01*
X191230114Y-71332158D01*
X191241500Y-71384500D01*
X191241500Y-115865500D01*
X191221498Y-115933621D01*
X191167842Y-115980114D01*
X191115500Y-115991500D01*
X157884500Y-115991500D01*
X157816379Y-115971498D01*
X157769886Y-115917842D01*
X157758500Y-115865500D01*
X157758500Y-111007134D01*
X159164500Y-111007134D01*
X159171255Y-111069316D01*
X159222385Y-111205705D01*
X159309739Y-111322261D01*
X159426295Y-111409615D01*
X159562684Y-111460745D01*
X159624866Y-111467500D01*
X161421134Y-111467500D01*
X161483316Y-111460745D01*
X161619705Y-111409615D01*
X161736261Y-111322261D01*
X161823615Y-111205705D01*
X161867798Y-111087848D01*
X161910440Y-111031084D01*
X161977001Y-111006384D01*
X162046350Y-111021592D01*
X162081017Y-111049580D01*
X162106218Y-111078673D01*
X162113580Y-111085883D01*
X162277434Y-111221916D01*
X162285881Y-111227831D01*
X162469756Y-111335279D01*
X162479042Y-111339729D01*
X162678001Y-111415703D01*
X162687899Y-111418579D01*
X162791250Y-111439606D01*
X162805299Y-111438410D01*
X162809000Y-111428065D01*
X162809000Y-111427517D01*
X163317000Y-111427517D01*
X163321064Y-111441359D01*
X163334478Y-111443393D01*
X163341184Y-111442534D01*
X163351262Y-111440392D01*
X163555255Y-111379191D01*
X163564842Y-111375433D01*
X163756095Y-111281739D01*
X163764945Y-111276464D01*
X163938328Y-111152792D01*
X163946200Y-111146139D01*
X164097052Y-110995812D01*
X164103730Y-110987965D01*
X164231022Y-110810819D01*
X164232279Y-110811722D01*
X164279373Y-110768362D01*
X164349311Y-110756145D01*
X164414751Y-110783678D01*
X164442579Y-110815511D01*
X164502987Y-110914088D01*
X164649250Y-111082938D01*
X164821126Y-111225632D01*
X165014000Y-111338338D01*
X165222692Y-111418030D01*
X165227760Y-111419061D01*
X165227763Y-111419062D01*
X165322862Y-111438410D01*
X165441597Y-111462567D01*
X165446772Y-111462757D01*
X165446774Y-111462757D01*
X165659673Y-111470564D01*
X165659677Y-111470564D01*
X165664837Y-111470753D01*
X165669957Y-111470097D01*
X165669959Y-111470097D01*
X165881288Y-111443025D01*
X165881289Y-111443025D01*
X165886416Y-111442368D01*
X165891366Y-111440883D01*
X166095429Y-111379661D01*
X166095434Y-111379659D01*
X166100384Y-111378174D01*
X166300994Y-111279896D01*
X166482860Y-111150173D01*
X166641096Y-110992489D01*
X166771453Y-110811077D01*
X166772776Y-110812028D01*
X166819645Y-110768857D01*
X166889580Y-110756625D01*
X166955026Y-110784144D01*
X166982875Y-110815994D01*
X167042987Y-110914088D01*
X167189250Y-111082938D01*
X167361126Y-111225632D01*
X167554000Y-111338338D01*
X167762692Y-111418030D01*
X167767760Y-111419061D01*
X167767763Y-111419062D01*
X167862862Y-111438410D01*
X167981597Y-111462567D01*
X167986772Y-111462757D01*
X167986774Y-111462757D01*
X168199673Y-111470564D01*
X168199677Y-111470564D01*
X168204837Y-111470753D01*
X168209957Y-111470097D01*
X168209959Y-111470097D01*
X168421288Y-111443025D01*
X168421289Y-111443025D01*
X168426416Y-111442368D01*
X168431366Y-111440883D01*
X168635429Y-111379661D01*
X168635434Y-111379659D01*
X168640384Y-111378174D01*
X168840994Y-111279896D01*
X169022860Y-111150173D01*
X169181096Y-110992489D01*
X169311453Y-110811077D01*
X169312640Y-110811930D01*
X169359960Y-110768362D01*
X169429897Y-110756145D01*
X169495338Y-110783678D01*
X169523166Y-110815511D01*
X169580694Y-110909388D01*
X169586777Y-110917699D01*
X169726213Y-111078667D01*
X169733580Y-111085883D01*
X169897434Y-111221916D01*
X169905881Y-111227831D01*
X170089756Y-111335279D01*
X170099042Y-111339729D01*
X170298001Y-111415703D01*
X170307899Y-111418579D01*
X170411250Y-111439606D01*
X170425299Y-111438410D01*
X170429000Y-111428065D01*
X170429000Y-111427517D01*
X170937000Y-111427517D01*
X170941064Y-111441359D01*
X170954478Y-111443393D01*
X170961184Y-111442534D01*
X170971262Y-111440392D01*
X171175255Y-111379191D01*
X171184842Y-111375433D01*
X171376095Y-111281739D01*
X171384945Y-111276464D01*
X171558328Y-111152792D01*
X171566200Y-111146139D01*
X171717052Y-110995812D01*
X171723730Y-110987965D01*
X171851022Y-110810819D01*
X171852279Y-110811722D01*
X171899373Y-110768362D01*
X171969311Y-110756145D01*
X172034751Y-110783678D01*
X172062579Y-110815511D01*
X172122987Y-110914088D01*
X172269250Y-111082938D01*
X172441126Y-111225632D01*
X172634000Y-111338338D01*
X172842692Y-111418030D01*
X172847760Y-111419061D01*
X172847763Y-111419062D01*
X172942862Y-111438410D01*
X173061597Y-111462567D01*
X173066772Y-111462757D01*
X173066774Y-111462757D01*
X173279673Y-111470564D01*
X173279677Y-111470564D01*
X173284837Y-111470753D01*
X173289957Y-111470097D01*
X173289959Y-111470097D01*
X173501288Y-111443025D01*
X173501289Y-111443025D01*
X173506416Y-111442368D01*
X173511366Y-111440883D01*
X173715429Y-111379661D01*
X173715434Y-111379659D01*
X173720384Y-111378174D01*
X173920994Y-111279896D01*
X174102860Y-111150173D01*
X174261096Y-110992489D01*
X174391453Y-110811077D01*
X174392776Y-110812028D01*
X174439645Y-110768857D01*
X174509580Y-110756625D01*
X174575026Y-110784144D01*
X174602875Y-110815994D01*
X174662987Y-110914088D01*
X174809250Y-111082938D01*
X174981126Y-111225632D01*
X175174000Y-111338338D01*
X175382692Y-111418030D01*
X175387760Y-111419061D01*
X175387763Y-111419062D01*
X175482862Y-111438410D01*
X175601597Y-111462567D01*
X175606772Y-111462757D01*
X175606774Y-111462757D01*
X175819673Y-111470564D01*
X175819677Y-111470564D01*
X175824837Y-111470753D01*
X175829957Y-111470097D01*
X175829959Y-111470097D01*
X176041288Y-111443025D01*
X176041289Y-111443025D01*
X176046416Y-111442368D01*
X176051366Y-111440883D01*
X176255429Y-111379661D01*
X176255434Y-111379659D01*
X176260384Y-111378174D01*
X176460994Y-111279896D01*
X176642860Y-111150173D01*
X176801096Y-110992489D01*
X176931453Y-110811077D01*
X176932776Y-110812028D01*
X176979645Y-110768857D01*
X177049580Y-110756625D01*
X177115026Y-110784144D01*
X177142875Y-110815994D01*
X177202987Y-110914088D01*
X177349250Y-111082938D01*
X177521126Y-111225632D01*
X177714000Y-111338338D01*
X177922692Y-111418030D01*
X177927760Y-111419061D01*
X177927763Y-111419062D01*
X178022862Y-111438410D01*
X178141597Y-111462567D01*
X178146772Y-111462757D01*
X178146774Y-111462757D01*
X178359673Y-111470564D01*
X178359677Y-111470564D01*
X178364837Y-111470753D01*
X178369957Y-111470097D01*
X178369959Y-111470097D01*
X178581288Y-111443025D01*
X178581289Y-111443025D01*
X178586416Y-111442368D01*
X178591366Y-111440883D01*
X178795429Y-111379661D01*
X178795434Y-111379659D01*
X178800384Y-111378174D01*
X179000994Y-111279896D01*
X179182860Y-111150173D01*
X179341096Y-110992489D01*
X179471453Y-110811077D01*
X179472640Y-110811930D01*
X179519960Y-110768362D01*
X179589897Y-110756145D01*
X179655338Y-110783678D01*
X179683166Y-110815511D01*
X179740694Y-110909388D01*
X179746777Y-110917699D01*
X179886213Y-111078667D01*
X179893580Y-111085883D01*
X180057434Y-111221916D01*
X180065881Y-111227831D01*
X180249756Y-111335279D01*
X180259042Y-111339729D01*
X180458001Y-111415703D01*
X180467899Y-111418579D01*
X180571250Y-111439606D01*
X180585299Y-111438410D01*
X180589000Y-111428065D01*
X180589000Y-111427517D01*
X181097000Y-111427517D01*
X181101064Y-111441359D01*
X181114478Y-111443393D01*
X181121184Y-111442534D01*
X181131262Y-111440392D01*
X181335255Y-111379191D01*
X181344842Y-111375433D01*
X181536095Y-111281739D01*
X181544945Y-111276464D01*
X181718328Y-111152792D01*
X181726200Y-111146139D01*
X181877052Y-110995812D01*
X181883730Y-110987965D01*
X182011022Y-110810819D01*
X182012279Y-110811722D01*
X182059373Y-110768362D01*
X182129311Y-110756145D01*
X182194751Y-110783678D01*
X182222579Y-110815511D01*
X182282987Y-110914088D01*
X182429250Y-111082938D01*
X182601126Y-111225632D01*
X182794000Y-111338338D01*
X183002692Y-111418030D01*
X183007760Y-111419061D01*
X183007763Y-111419062D01*
X183102862Y-111438410D01*
X183221597Y-111462567D01*
X183226772Y-111462757D01*
X183226774Y-111462757D01*
X183439673Y-111470564D01*
X183439677Y-111470564D01*
X183444837Y-111470753D01*
X183449957Y-111470097D01*
X183449959Y-111470097D01*
X183661288Y-111443025D01*
X183661289Y-111443025D01*
X183666416Y-111442368D01*
X183671366Y-111440883D01*
X183875429Y-111379661D01*
X183875434Y-111379659D01*
X183880384Y-111378174D01*
X184080994Y-111279896D01*
X184262860Y-111150173D01*
X184421096Y-110992489D01*
X184551453Y-110811077D01*
X184552776Y-110812028D01*
X184599645Y-110768857D01*
X184669580Y-110756625D01*
X184735026Y-110784144D01*
X184762875Y-110815994D01*
X184822987Y-110914088D01*
X184969250Y-111082938D01*
X185141126Y-111225632D01*
X185334000Y-111338338D01*
X185542692Y-111418030D01*
X185547760Y-111419061D01*
X185547763Y-111419062D01*
X185642862Y-111438410D01*
X185761597Y-111462567D01*
X185766772Y-111462757D01*
X185766774Y-111462757D01*
X185979673Y-111470564D01*
X185979677Y-111470564D01*
X185984837Y-111470753D01*
X185989957Y-111470097D01*
X185989959Y-111470097D01*
X186201288Y-111443025D01*
X186201289Y-111443025D01*
X186206416Y-111442368D01*
X186211366Y-111440883D01*
X186415429Y-111379661D01*
X186415434Y-111379659D01*
X186420384Y-111378174D01*
X186620994Y-111279896D01*
X186802860Y-111150173D01*
X186961096Y-110992489D01*
X187091453Y-110811077D01*
X187092640Y-110811930D01*
X187139960Y-110768362D01*
X187209897Y-110756145D01*
X187275338Y-110783678D01*
X187303166Y-110815511D01*
X187360694Y-110909388D01*
X187366777Y-110917699D01*
X187506213Y-111078667D01*
X187513580Y-111085883D01*
X187677434Y-111221916D01*
X187685881Y-111227831D01*
X187869756Y-111335279D01*
X187879042Y-111339729D01*
X188078001Y-111415703D01*
X188087899Y-111418579D01*
X188191250Y-111439606D01*
X188205299Y-111438410D01*
X188209000Y-111428065D01*
X188209000Y-111427517D01*
X188717000Y-111427517D01*
X188721064Y-111441359D01*
X188734478Y-111443393D01*
X188741184Y-111442534D01*
X188751262Y-111440392D01*
X188955255Y-111379191D01*
X188964842Y-111375433D01*
X189156095Y-111281739D01*
X189164945Y-111276464D01*
X189338328Y-111152792D01*
X189346200Y-111146139D01*
X189497052Y-110995812D01*
X189503730Y-110987965D01*
X189628003Y-110815020D01*
X189633313Y-110806183D01*
X189727670Y-110615267D01*
X189731469Y-110605672D01*
X189793377Y-110401910D01*
X189795555Y-110391837D01*
X189796986Y-110380962D01*
X189794775Y-110366778D01*
X189781617Y-110363000D01*
X188735115Y-110363000D01*
X188719876Y-110367475D01*
X188718671Y-110368865D01*
X188717000Y-110376548D01*
X188717000Y-111427517D01*
X188209000Y-111427517D01*
X188209000Y-109836885D01*
X188717000Y-109836885D01*
X188721475Y-109852124D01*
X188722865Y-109853329D01*
X188730548Y-109855000D01*
X189781344Y-109855000D01*
X189794875Y-109851027D01*
X189796180Y-109841947D01*
X189754214Y-109674875D01*
X189750894Y-109665124D01*
X189665972Y-109469814D01*
X189661105Y-109460739D01*
X189545426Y-109281926D01*
X189539136Y-109273757D01*
X189395806Y-109116240D01*
X189388273Y-109109215D01*
X189221139Y-108977222D01*
X189212552Y-108971517D01*
X189026117Y-108868599D01*
X189016705Y-108864369D01*
X188815959Y-108793280D01*
X188805988Y-108790646D01*
X188734837Y-108777972D01*
X188721540Y-108779432D01*
X188717000Y-108793989D01*
X188717000Y-109836885D01*
X188209000Y-109836885D01*
X188209000Y-108792102D01*
X188205082Y-108778758D01*
X188190806Y-108776771D01*
X188152324Y-108782660D01*
X188142288Y-108785051D01*
X187939868Y-108851212D01*
X187930359Y-108855209D01*
X187741463Y-108953542D01*
X187732738Y-108959036D01*
X187562433Y-109086905D01*
X187554726Y-109093748D01*
X187407590Y-109247717D01*
X187401109Y-109255722D01*
X187296498Y-109409074D01*
X187241587Y-109454076D01*
X187171062Y-109462247D01*
X187107315Y-109430993D01*
X187086618Y-109406509D01*
X187005822Y-109281617D01*
X187005820Y-109281614D01*
X187003014Y-109277277D01*
X186852670Y-109112051D01*
X186848619Y-109108852D01*
X186848615Y-109108848D01*
X186681414Y-108976800D01*
X186681410Y-108976798D01*
X186677359Y-108973598D01*
X186641028Y-108953542D01*
X186625136Y-108944769D01*
X186481789Y-108865638D01*
X186476920Y-108863914D01*
X186476916Y-108863912D01*
X186276087Y-108792795D01*
X186276083Y-108792794D01*
X186271212Y-108791069D01*
X186266119Y-108790162D01*
X186266116Y-108790161D01*
X186056373Y-108752800D01*
X186056367Y-108752799D01*
X186051284Y-108751894D01*
X185977452Y-108750992D01*
X185833081Y-108749228D01*
X185833079Y-108749228D01*
X185827911Y-108749165D01*
X185607091Y-108782955D01*
X185394756Y-108852357D01*
X185196607Y-108955507D01*
X185192474Y-108958610D01*
X185192471Y-108958612D01*
X185022100Y-109086530D01*
X185017965Y-109089635D01*
X184863629Y-109251138D01*
X184756201Y-109408621D01*
X184701293Y-109453621D01*
X184630768Y-109461792D01*
X184567021Y-109430538D01*
X184546324Y-109406054D01*
X184465822Y-109281617D01*
X184465820Y-109281614D01*
X184463014Y-109277277D01*
X184312670Y-109112051D01*
X184308619Y-109108852D01*
X184308615Y-109108848D01*
X184141414Y-108976800D01*
X184141410Y-108976798D01*
X184137359Y-108973598D01*
X184101028Y-108953542D01*
X184085136Y-108944769D01*
X183941789Y-108865638D01*
X183936920Y-108863914D01*
X183936916Y-108863912D01*
X183736087Y-108792795D01*
X183736083Y-108792794D01*
X183731212Y-108791069D01*
X183726119Y-108790162D01*
X183726116Y-108790161D01*
X183516373Y-108752800D01*
X183516367Y-108752799D01*
X183511284Y-108751894D01*
X183437452Y-108750992D01*
X183293081Y-108749228D01*
X183293079Y-108749228D01*
X183287911Y-108749165D01*
X183067091Y-108782955D01*
X182854756Y-108852357D01*
X182656607Y-108955507D01*
X182652474Y-108958610D01*
X182652471Y-108958612D01*
X182482100Y-109086530D01*
X182477965Y-109089635D01*
X182323629Y-109251138D01*
X182216204Y-109408618D01*
X182215898Y-109409066D01*
X182160987Y-109454069D01*
X182090462Y-109462240D01*
X182026715Y-109430986D01*
X182006018Y-109406502D01*
X181925426Y-109281926D01*
X181919136Y-109273757D01*
X181775806Y-109116240D01*
X181768273Y-109109215D01*
X181601139Y-108977222D01*
X181592552Y-108971517D01*
X181406117Y-108868599D01*
X181396705Y-108864369D01*
X181195959Y-108793280D01*
X181185988Y-108790646D01*
X181114837Y-108777972D01*
X181101540Y-108779432D01*
X181097000Y-108793989D01*
X181097000Y-111427517D01*
X180589000Y-111427517D01*
X180589000Y-108792102D01*
X180585082Y-108778758D01*
X180570806Y-108776771D01*
X180532324Y-108782660D01*
X180522288Y-108785051D01*
X180319868Y-108851212D01*
X180310359Y-108855209D01*
X180121463Y-108953542D01*
X180112738Y-108959036D01*
X179942433Y-109086905D01*
X179934726Y-109093748D01*
X179787590Y-109247717D01*
X179781109Y-109255722D01*
X179676498Y-109409074D01*
X179621587Y-109454076D01*
X179551062Y-109462247D01*
X179487315Y-109430993D01*
X179466618Y-109406509D01*
X179385822Y-109281617D01*
X179385820Y-109281614D01*
X179383014Y-109277277D01*
X179232670Y-109112051D01*
X179228619Y-109108852D01*
X179228615Y-109108848D01*
X179061414Y-108976800D01*
X179061410Y-108976798D01*
X179057359Y-108973598D01*
X179021028Y-108953542D01*
X179005136Y-108944769D01*
X178861789Y-108865638D01*
X178856920Y-108863914D01*
X178856916Y-108863912D01*
X178656087Y-108792795D01*
X178656083Y-108792794D01*
X178651212Y-108791069D01*
X178646119Y-108790162D01*
X178646116Y-108790161D01*
X178436373Y-108752800D01*
X178436367Y-108752799D01*
X178431284Y-108751894D01*
X178357452Y-108750992D01*
X178213081Y-108749228D01*
X178213079Y-108749228D01*
X178207911Y-108749165D01*
X177987091Y-108782955D01*
X177774756Y-108852357D01*
X177576607Y-108955507D01*
X177572474Y-108958610D01*
X177572471Y-108958612D01*
X177402100Y-109086530D01*
X177397965Y-109089635D01*
X177243629Y-109251138D01*
X177136201Y-109408621D01*
X177081293Y-109453621D01*
X177010768Y-109461792D01*
X176947021Y-109430538D01*
X176926324Y-109406054D01*
X176845822Y-109281617D01*
X176845820Y-109281614D01*
X176843014Y-109277277D01*
X176692670Y-109112051D01*
X176688619Y-109108852D01*
X176688615Y-109108848D01*
X176521414Y-108976800D01*
X176521410Y-108976798D01*
X176517359Y-108973598D01*
X176481028Y-108953542D01*
X176465136Y-108944769D01*
X176321789Y-108865638D01*
X176316920Y-108863914D01*
X176316916Y-108863912D01*
X176116087Y-108792795D01*
X176116083Y-108792794D01*
X176111212Y-108791069D01*
X176106119Y-108790162D01*
X176106116Y-108790161D01*
X175896373Y-108752800D01*
X175896367Y-108752799D01*
X175891284Y-108751894D01*
X175817452Y-108750992D01*
X175673081Y-108749228D01*
X175673079Y-108749228D01*
X175667911Y-108749165D01*
X175447091Y-108782955D01*
X175234756Y-108852357D01*
X175036607Y-108955507D01*
X175032474Y-108958610D01*
X175032471Y-108958612D01*
X174862100Y-109086530D01*
X174857965Y-109089635D01*
X174703629Y-109251138D01*
X174596201Y-109408621D01*
X174541293Y-109453621D01*
X174470768Y-109461792D01*
X174407021Y-109430538D01*
X174386324Y-109406054D01*
X174305822Y-109281617D01*
X174305820Y-109281614D01*
X174303014Y-109277277D01*
X174152670Y-109112051D01*
X174148619Y-109108852D01*
X174148615Y-109108848D01*
X173981414Y-108976800D01*
X173981410Y-108976798D01*
X173977359Y-108973598D01*
X173941028Y-108953542D01*
X173925136Y-108944769D01*
X173781789Y-108865638D01*
X173776920Y-108863914D01*
X173776916Y-108863912D01*
X173576087Y-108792795D01*
X173576083Y-108792794D01*
X173571212Y-108791069D01*
X173566119Y-108790162D01*
X173566116Y-108790161D01*
X173356373Y-108752800D01*
X173356367Y-108752799D01*
X173351284Y-108751894D01*
X173277452Y-108750992D01*
X173133081Y-108749228D01*
X173133079Y-108749228D01*
X173127911Y-108749165D01*
X172907091Y-108782955D01*
X172694756Y-108852357D01*
X172496607Y-108955507D01*
X172492474Y-108958610D01*
X172492471Y-108958612D01*
X172322100Y-109086530D01*
X172317965Y-109089635D01*
X172163629Y-109251138D01*
X172056204Y-109408618D01*
X172055898Y-109409066D01*
X172000987Y-109454069D01*
X171930462Y-109462240D01*
X171866715Y-109430986D01*
X171846018Y-109406502D01*
X171765426Y-109281926D01*
X171759136Y-109273757D01*
X171615806Y-109116240D01*
X171608273Y-109109215D01*
X171441139Y-108977222D01*
X171432552Y-108971517D01*
X171246117Y-108868599D01*
X171236705Y-108864369D01*
X171035959Y-108793280D01*
X171025988Y-108790646D01*
X170954837Y-108777972D01*
X170941540Y-108779432D01*
X170937000Y-108793989D01*
X170937000Y-111427517D01*
X170429000Y-111427517D01*
X170429000Y-108792102D01*
X170425082Y-108778758D01*
X170410806Y-108776771D01*
X170372324Y-108782660D01*
X170362288Y-108785051D01*
X170159868Y-108851212D01*
X170150359Y-108855209D01*
X169961463Y-108953542D01*
X169952738Y-108959036D01*
X169782433Y-109086905D01*
X169774726Y-109093748D01*
X169627590Y-109247717D01*
X169621109Y-109255722D01*
X169516498Y-109409074D01*
X169461587Y-109454076D01*
X169391062Y-109462247D01*
X169327315Y-109430993D01*
X169306618Y-109406509D01*
X169225822Y-109281617D01*
X169225820Y-109281614D01*
X169223014Y-109277277D01*
X169072670Y-109112051D01*
X169068619Y-109108852D01*
X169068615Y-109108848D01*
X168901414Y-108976800D01*
X168901410Y-108976798D01*
X168897359Y-108973598D01*
X168861028Y-108953542D01*
X168845136Y-108944769D01*
X168701789Y-108865638D01*
X168696920Y-108863914D01*
X168696916Y-108863912D01*
X168496087Y-108792795D01*
X168496083Y-108792794D01*
X168491212Y-108791069D01*
X168486119Y-108790162D01*
X168486116Y-108790161D01*
X168276373Y-108752800D01*
X168276367Y-108752799D01*
X168271284Y-108751894D01*
X168197452Y-108750992D01*
X168053081Y-108749228D01*
X168053079Y-108749228D01*
X168047911Y-108749165D01*
X167827091Y-108782955D01*
X167614756Y-108852357D01*
X167416607Y-108955507D01*
X167412474Y-108958610D01*
X167412471Y-108958612D01*
X167242100Y-109086530D01*
X167237965Y-109089635D01*
X167083629Y-109251138D01*
X166976201Y-109408621D01*
X166921293Y-109453621D01*
X166850768Y-109461792D01*
X166787021Y-109430538D01*
X166766324Y-109406054D01*
X166685822Y-109281617D01*
X166685820Y-109281614D01*
X166683014Y-109277277D01*
X166532670Y-109112051D01*
X166528619Y-109108852D01*
X166528615Y-109108848D01*
X166361414Y-108976800D01*
X166361410Y-108976798D01*
X166357359Y-108973598D01*
X166321028Y-108953542D01*
X166305136Y-108944769D01*
X166161789Y-108865638D01*
X166156920Y-108863914D01*
X166156916Y-108863912D01*
X165956087Y-108792795D01*
X165956083Y-108792794D01*
X165951212Y-108791069D01*
X165946119Y-108790162D01*
X165946116Y-108790161D01*
X165736373Y-108752800D01*
X165736367Y-108752799D01*
X165731284Y-108751894D01*
X165657452Y-108750992D01*
X165513081Y-108749228D01*
X165513079Y-108749228D01*
X165507911Y-108749165D01*
X165287091Y-108782955D01*
X165074756Y-108852357D01*
X164876607Y-108955507D01*
X164872474Y-108958610D01*
X164872471Y-108958612D01*
X164702100Y-109086530D01*
X164697965Y-109089635D01*
X164543629Y-109251138D01*
X164436204Y-109408618D01*
X164435898Y-109409066D01*
X164380987Y-109454069D01*
X164310462Y-109462240D01*
X164246715Y-109430986D01*
X164226018Y-109406502D01*
X164145426Y-109281926D01*
X164139136Y-109273757D01*
X163995806Y-109116240D01*
X163988273Y-109109215D01*
X163821139Y-108977222D01*
X163812552Y-108971517D01*
X163626117Y-108868599D01*
X163616705Y-108864369D01*
X163415959Y-108793280D01*
X163405988Y-108790646D01*
X163334837Y-108777972D01*
X163321540Y-108779432D01*
X163317000Y-108793989D01*
X163317000Y-111427517D01*
X162809000Y-111427517D01*
X162809000Y-108776094D01*
X162829002Y-108707973D01*
X162845905Y-108686999D01*
X164730247Y-106802657D01*
X164738537Y-106795113D01*
X164745018Y-106791000D01*
X164791659Y-106741332D01*
X164794413Y-106738491D01*
X164814135Y-106718769D01*
X164816612Y-106715576D01*
X164824317Y-106706555D01*
X164849159Y-106680100D01*
X164854586Y-106674321D01*
X164858407Y-106667371D01*
X164864346Y-106656568D01*
X164875202Y-106640041D01*
X164882757Y-106630302D01*
X164882758Y-106630300D01*
X164887614Y-106624040D01*
X164905174Y-106583460D01*
X164910391Y-106572812D01*
X164927875Y-106541009D01*
X164927876Y-106541007D01*
X164931695Y-106534060D01*
X164936733Y-106514437D01*
X164943137Y-106495734D01*
X164948033Y-106484420D01*
X164948033Y-106484419D01*
X164951181Y-106477145D01*
X164952420Y-106469322D01*
X164952423Y-106469312D01*
X164958099Y-106433476D01*
X164960505Y-106421856D01*
X164969528Y-106386711D01*
X164969528Y-106386710D01*
X164971500Y-106379030D01*
X164971500Y-106358776D01*
X164973051Y-106339065D01*
X164974980Y-106326886D01*
X164976220Y-106319057D01*
X164972059Y-106275038D01*
X164971500Y-106263181D01*
X164971500Y-105156000D01*
X165564502Y-105156000D01*
X165584457Y-105384087D01*
X165643716Y-105605243D01*
X165646039Y-105610224D01*
X165646039Y-105610225D01*
X165738151Y-105807762D01*
X165738154Y-105807767D01*
X165740477Y-105812749D01*
X165871802Y-106000300D01*
X166033700Y-106162198D01*
X166038208Y-106165355D01*
X166038211Y-106165357D01*
X166116389Y-106220098D01*
X166221251Y-106293523D01*
X166226233Y-106295846D01*
X166226238Y-106295849D01*
X166423775Y-106387961D01*
X166428757Y-106390284D01*
X166434065Y-106391706D01*
X166434067Y-106391707D01*
X166644598Y-106448119D01*
X166644600Y-106448119D01*
X166649913Y-106449543D01*
X166878000Y-106469498D01*
X167106087Y-106449543D01*
X167111400Y-106448119D01*
X167111402Y-106448119D01*
X167321933Y-106391707D01*
X167321935Y-106391706D01*
X167327243Y-106390284D01*
X167332225Y-106387961D01*
X167529762Y-106295849D01*
X167529767Y-106295846D01*
X167534749Y-106293523D01*
X167639611Y-106220098D01*
X167717789Y-106165357D01*
X167717792Y-106165355D01*
X167722300Y-106162198D01*
X167884198Y-106000300D01*
X168015523Y-105812749D01*
X168017846Y-105807767D01*
X168017849Y-105807762D01*
X168109961Y-105610225D01*
X168109961Y-105610224D01*
X168112284Y-105605243D01*
X168171543Y-105384087D01*
X168191498Y-105156000D01*
X168171543Y-104927913D01*
X168112284Y-104706757D01*
X168109961Y-104701775D01*
X168017849Y-104504238D01*
X168017846Y-104504233D01*
X168015523Y-104499251D01*
X167884198Y-104311700D01*
X167722300Y-104149802D01*
X167717792Y-104146645D01*
X167717789Y-104146643D01*
X167591065Y-104057910D01*
X167534749Y-104018477D01*
X167529767Y-104016154D01*
X167529762Y-104016151D01*
X167332225Y-103924039D01*
X167332224Y-103924039D01*
X167327243Y-103921716D01*
X167321935Y-103920294D01*
X167321933Y-103920293D01*
X167111402Y-103863881D01*
X167111400Y-103863881D01*
X167106087Y-103862457D01*
X166878000Y-103842502D01*
X166649913Y-103862457D01*
X166644600Y-103863881D01*
X166644598Y-103863881D01*
X166434067Y-103920293D01*
X166434065Y-103920294D01*
X166428757Y-103921716D01*
X166423776Y-103924039D01*
X166423775Y-103924039D01*
X166226238Y-104016151D01*
X166226233Y-104016154D01*
X166221251Y-104018477D01*
X166164935Y-104057910D01*
X166038211Y-104146643D01*
X166038208Y-104146645D01*
X166033700Y-104149802D01*
X165871802Y-104311700D01*
X165740477Y-104499251D01*
X165738154Y-104504233D01*
X165738151Y-104504238D01*
X165646039Y-104701775D01*
X165643716Y-104706757D01*
X165584457Y-104927913D01*
X165564502Y-105156000D01*
X164971500Y-105156000D01*
X164971500Y-91126595D01*
X164991502Y-91058474D01*
X165008405Y-91037499D01*
X165280111Y-90765794D01*
X165342423Y-90731769D01*
X165413239Y-90736834D01*
X165470074Y-90779381D01*
X165494997Y-90847636D01*
X165503977Y-91003387D01*
X165505112Y-91008424D01*
X165505113Y-91008430D01*
X165546488Y-91192025D01*
X165554039Y-91225531D01*
X165555983Y-91230317D01*
X165555984Y-91230322D01*
X165620591Y-91389429D01*
X165639711Y-91436515D01*
X165758692Y-91630674D01*
X165907786Y-91802793D01*
X166082989Y-91948249D01*
X166087440Y-91950850D01*
X166087450Y-91950857D01*
X166120266Y-91970033D01*
X166168989Y-92021672D01*
X166182059Y-92091455D01*
X166155326Y-92157227D01*
X166132353Y-92179575D01*
X165957444Y-92310900D01*
X165800120Y-92475530D01*
X165797206Y-92479802D01*
X165797205Y-92479803D01*
X165731614Y-92575957D01*
X165671797Y-92663645D01*
X165575921Y-92870192D01*
X165515067Y-93089625D01*
X165490869Y-93316050D01*
X165491166Y-93321202D01*
X165491166Y-93321206D01*
X165495983Y-93404740D01*
X165503977Y-93543387D01*
X165505112Y-93548424D01*
X165505113Y-93548430D01*
X165532280Y-93668978D01*
X165554039Y-93765531D01*
X165555983Y-93770317D01*
X165555984Y-93770322D01*
X165578754Y-93826397D01*
X165639711Y-93976515D01*
X165758692Y-94170674D01*
X165907786Y-94342793D01*
X166082989Y-94488249D01*
X166087440Y-94490850D01*
X166087450Y-94490857D01*
X166120266Y-94510033D01*
X166168989Y-94561672D01*
X166182059Y-94631455D01*
X166155326Y-94697227D01*
X166132353Y-94719575D01*
X165957444Y-94850900D01*
X165953872Y-94854638D01*
X165858680Y-94954251D01*
X165800120Y-95015530D01*
X165797206Y-95019802D01*
X165797205Y-95019803D01*
X165731818Y-95115657D01*
X165671797Y-95203645D01*
X165575921Y-95410192D01*
X165574539Y-95415174D01*
X165574539Y-95415175D01*
X165549031Y-95507154D01*
X165515067Y-95629625D01*
X165490869Y-95856050D01*
X165491166Y-95861202D01*
X165491166Y-95861206D01*
X165494435Y-95917895D01*
X165503977Y-96083387D01*
X165505112Y-96088424D01*
X165505113Y-96088430D01*
X165552901Y-96300482D01*
X165554039Y-96305531D01*
X165555983Y-96310317D01*
X165555984Y-96310322D01*
X165637767Y-96511728D01*
X165639711Y-96516515D01*
X165758692Y-96710674D01*
X165907786Y-96882793D01*
X166082989Y-97028249D01*
X166087440Y-97030850D01*
X166087450Y-97030857D01*
X166120266Y-97050033D01*
X166168989Y-97101672D01*
X166182059Y-97171455D01*
X166155326Y-97237227D01*
X166132353Y-97259575D01*
X165957444Y-97390900D01*
X165953872Y-97394638D01*
X165858680Y-97494251D01*
X165800120Y-97555530D01*
X165797206Y-97559802D01*
X165797205Y-97559803D01*
X165731818Y-97655657D01*
X165671797Y-97743645D01*
X165575921Y-97950192D01*
X165515067Y-98169625D01*
X165490869Y-98396050D01*
X165491166Y-98401202D01*
X165491166Y-98401206D01*
X165495445Y-98475414D01*
X165503977Y-98623387D01*
X165505112Y-98628424D01*
X165505113Y-98628430D01*
X165552901Y-98840482D01*
X165554039Y-98845531D01*
X165555983Y-98850317D01*
X165555984Y-98850322D01*
X165637767Y-99051728D01*
X165639711Y-99056515D01*
X165758692Y-99250674D01*
X165907786Y-99422793D01*
X166082989Y-99568249D01*
X166087440Y-99570850D01*
X166087450Y-99570857D01*
X166120266Y-99590033D01*
X166168989Y-99641672D01*
X166182059Y-99711455D01*
X166155326Y-99777227D01*
X166132353Y-99799575D01*
X165957444Y-99930900D01*
X165800120Y-100095530D01*
X165797206Y-100099802D01*
X165797205Y-100099803D01*
X165725928Y-100204292D01*
X165671797Y-100283645D01*
X165575921Y-100490192D01*
X165515067Y-100709625D01*
X165490869Y-100936050D01*
X165491166Y-100941202D01*
X165491166Y-100941206D01*
X165495445Y-101015414D01*
X165503977Y-101163387D01*
X165505112Y-101168424D01*
X165505113Y-101168430D01*
X165538137Y-101314970D01*
X165554039Y-101385531D01*
X165555983Y-101390317D01*
X165555984Y-101390322D01*
X165622892Y-101555096D01*
X165639711Y-101596515D01*
X165758692Y-101790674D01*
X165907786Y-101962793D01*
X166082989Y-102108249D01*
X166087441Y-102110851D01*
X166087446Y-102110854D01*
X166273743Y-102219717D01*
X166279597Y-102223138D01*
X166492329Y-102304372D01*
X166497395Y-102305403D01*
X166497396Y-102305403D01*
X166547315Y-102315559D01*
X166715472Y-102349771D01*
X166843288Y-102354458D01*
X166937870Y-102357927D01*
X166937875Y-102357927D01*
X166943034Y-102358116D01*
X166948154Y-102357460D01*
X166948156Y-102357460D01*
X167020344Y-102348212D01*
X167168903Y-102329181D01*
X167173852Y-102327696D01*
X167173858Y-102327695D01*
X167300204Y-102289789D01*
X167387013Y-102263745D01*
X167421529Y-102246836D01*
X167586865Y-102165838D01*
X167591507Y-102163564D01*
X167595711Y-102160566D01*
X167595715Y-102160563D01*
X167685483Y-102096532D01*
X167776893Y-102031330D01*
X167938193Y-101870592D01*
X168071073Y-101685669D01*
X168100694Y-101625737D01*
X168169673Y-101486168D01*
X168169674Y-101486166D01*
X168171967Y-101481526D01*
X168227499Y-101298748D01*
X168236662Y-101268590D01*
X168236662Y-101268589D01*
X168238164Y-101263646D01*
X168250700Y-101168430D01*
X168267450Y-101041201D01*
X168267451Y-101041194D01*
X168267887Y-101037879D01*
X168268436Y-101015414D01*
X168290096Y-100947802D01*
X168344871Y-100902634D01*
X168415371Y-100894250D01*
X168483493Y-100929397D01*
X169856622Y-102302527D01*
X171208348Y-103654253D01*
X171215888Y-103662539D01*
X171220000Y-103669018D01*
X171225777Y-103674443D01*
X171269651Y-103715643D01*
X171272493Y-103718398D01*
X171292230Y-103738135D01*
X171295427Y-103740615D01*
X171304447Y-103748318D01*
X171336679Y-103778586D01*
X171343625Y-103782405D01*
X171343628Y-103782407D01*
X171354434Y-103788348D01*
X171370953Y-103799199D01*
X171386959Y-103811614D01*
X171394228Y-103814759D01*
X171394232Y-103814762D01*
X171427537Y-103829174D01*
X171438187Y-103834391D01*
X171476940Y-103855695D01*
X171484615Y-103857666D01*
X171484616Y-103857666D01*
X171496562Y-103860733D01*
X171515267Y-103867137D01*
X171533855Y-103875181D01*
X171541678Y-103876420D01*
X171541688Y-103876423D01*
X171577524Y-103882099D01*
X171589144Y-103884505D01*
X171620959Y-103892673D01*
X171631970Y-103895500D01*
X171652224Y-103895500D01*
X171671934Y-103897051D01*
X171691943Y-103900220D01*
X171699835Y-103899474D01*
X171718580Y-103897702D01*
X171735962Y-103896059D01*
X171747819Y-103895500D01*
X181237260Y-103895500D01*
X181305381Y-103915502D01*
X181351874Y-103969158D01*
X181361978Y-104039432D01*
X181332484Y-104104012D01*
X181309530Y-104124713D01*
X181278216Y-104146639D01*
X181278210Y-104146644D01*
X181273700Y-104149802D01*
X181111802Y-104311700D01*
X180980477Y-104499251D01*
X180978154Y-104504233D01*
X180978151Y-104504238D01*
X180886039Y-104701775D01*
X180883716Y-104706757D01*
X180824457Y-104927913D01*
X180804502Y-105156000D01*
X180824457Y-105384087D01*
X180883716Y-105605243D01*
X180886039Y-105610224D01*
X180886039Y-105610225D01*
X180978151Y-105807762D01*
X180978154Y-105807767D01*
X180980477Y-105812749D01*
X181111802Y-106000300D01*
X181273700Y-106162198D01*
X181278208Y-106165355D01*
X181278211Y-106165357D01*
X181356389Y-106220098D01*
X181461251Y-106293523D01*
X181466233Y-106295846D01*
X181466238Y-106295849D01*
X181663775Y-106387961D01*
X181668757Y-106390284D01*
X181674065Y-106391706D01*
X181674067Y-106391707D01*
X181884598Y-106448119D01*
X181884600Y-106448119D01*
X181889913Y-106449543D01*
X182118000Y-106469498D01*
X182346087Y-106449543D01*
X182351400Y-106448119D01*
X182351402Y-106448119D01*
X182561933Y-106391707D01*
X182561935Y-106391706D01*
X182567243Y-106390284D01*
X182572225Y-106387961D01*
X182769762Y-106295849D01*
X182769767Y-106295846D01*
X182774749Y-106293523D01*
X182879611Y-106220098D01*
X182957789Y-106165357D01*
X182957792Y-106165355D01*
X182962300Y-106162198D01*
X183124198Y-106000300D01*
X183255523Y-105812749D01*
X183257846Y-105807767D01*
X183257849Y-105807762D01*
X183349961Y-105610225D01*
X183349961Y-105610224D01*
X183352284Y-105605243D01*
X183411543Y-105384087D01*
X183431498Y-105156000D01*
X183411543Y-104927913D01*
X183352284Y-104706757D01*
X183349961Y-104701775D01*
X183257849Y-104504238D01*
X183257846Y-104504233D01*
X183255523Y-104499251D01*
X183124198Y-104311700D01*
X182962300Y-104149802D01*
X182957790Y-104146644D01*
X182957784Y-104146639D01*
X182926470Y-104124713D01*
X182882141Y-104069256D01*
X182874832Y-103998637D01*
X182906862Y-103935276D01*
X182968064Y-103899291D01*
X182998740Y-103895500D01*
X183299629Y-103895500D01*
X183310812Y-103896027D01*
X183318305Y-103897702D01*
X183326231Y-103897453D01*
X183326232Y-103897453D01*
X183386382Y-103895562D01*
X183390341Y-103895500D01*
X183418252Y-103895500D01*
X183422187Y-103895003D01*
X183422252Y-103894995D01*
X183434089Y-103894062D01*
X183466347Y-103893048D01*
X183470366Y-103892922D01*
X183478285Y-103892673D01*
X183497739Y-103887021D01*
X183517096Y-103883013D01*
X183529326Y-103881468D01*
X183529327Y-103881468D01*
X183537193Y-103880474D01*
X183544564Y-103877555D01*
X183544566Y-103877555D01*
X183578308Y-103864196D01*
X183589538Y-103860351D01*
X183624379Y-103850229D01*
X183624380Y-103850229D01*
X183631989Y-103848018D01*
X183638808Y-103843985D01*
X183638813Y-103843983D01*
X183649424Y-103837707D01*
X183667172Y-103829012D01*
X183686013Y-103821552D01*
X183721783Y-103795564D01*
X183731703Y-103789048D01*
X183762931Y-103770580D01*
X183762934Y-103770578D01*
X183769758Y-103766542D01*
X183784079Y-103752221D01*
X183799113Y-103739380D01*
X183809090Y-103732131D01*
X183815503Y-103727472D01*
X183843694Y-103693395D01*
X183851684Y-103684616D01*
X185186716Y-102349585D01*
X185249028Y-102315559D01*
X185319844Y-102320624D01*
X185336318Y-102328159D01*
X185347941Y-102334522D01*
X185468394Y-102379678D01*
X185483649Y-102383305D01*
X185534514Y-102388831D01*
X185541328Y-102389200D01*
X186163885Y-102389200D01*
X186179124Y-102384725D01*
X186180329Y-102383335D01*
X186182000Y-102375652D01*
X186182000Y-102371084D01*
X186690000Y-102371084D01*
X186694475Y-102386323D01*
X186695865Y-102387528D01*
X186703548Y-102389199D01*
X187330669Y-102389199D01*
X187337490Y-102388829D01*
X187388352Y-102383305D01*
X187403604Y-102379679D01*
X187524054Y-102334524D01*
X187539649Y-102325986D01*
X187641724Y-102249485D01*
X187654285Y-102236924D01*
X187730786Y-102134849D01*
X187739324Y-102119254D01*
X187784478Y-101998806D01*
X187788105Y-101983551D01*
X187793631Y-101932686D01*
X187794000Y-101925872D01*
X187794000Y-101303315D01*
X187789525Y-101288076D01*
X187788135Y-101286871D01*
X187780452Y-101285200D01*
X186708115Y-101285200D01*
X186692876Y-101289675D01*
X186691671Y-101291065D01*
X186690000Y-101298748D01*
X186690000Y-102371084D01*
X186182000Y-102371084D01*
X186182000Y-100903200D01*
X186202002Y-100835079D01*
X186255658Y-100788586D01*
X186308000Y-100777200D01*
X187775884Y-100777200D01*
X187791123Y-100772725D01*
X187792328Y-100771335D01*
X187793999Y-100763652D01*
X187793999Y-100136531D01*
X187793629Y-100129710D01*
X187788105Y-100078848D01*
X187784479Y-100063596D01*
X187739324Y-99943146D01*
X187730786Y-99927551D01*
X187654285Y-99825476D01*
X187641724Y-99812915D01*
X187539649Y-99736414D01*
X187524054Y-99727876D01*
X187413813Y-99686548D01*
X187357049Y-99643906D01*
X187332349Y-99577345D01*
X187347557Y-99507996D01*
X187369104Y-99479315D01*
X187470430Y-99378344D01*
X187470440Y-99378332D01*
X187474096Y-99374689D01*
X187604453Y-99193277D01*
X187674411Y-99051728D01*
X187701136Y-98997653D01*
X187701137Y-98997651D01*
X187703430Y-98993011D01*
X187735900Y-98886140D01*
X187766865Y-98784223D01*
X187766865Y-98784221D01*
X187768370Y-98779269D01*
X187797529Y-98557790D01*
X187799156Y-98491200D01*
X187780852Y-98268561D01*
X187726431Y-98051902D01*
X187637354Y-97847040D01*
X187570465Y-97743645D01*
X187518822Y-97663817D01*
X187518820Y-97663814D01*
X187516014Y-97659477D01*
X187365670Y-97494251D01*
X187361619Y-97491052D01*
X187361615Y-97491048D01*
X187194414Y-97359000D01*
X187194410Y-97358998D01*
X187190359Y-97355798D01*
X187149053Y-97332996D01*
X187099084Y-97282564D01*
X187084312Y-97213121D01*
X187109428Y-97146716D01*
X187136780Y-97120109D01*
X187265563Y-97028249D01*
X187315860Y-96992373D01*
X187360704Y-96947686D01*
X187470435Y-96838337D01*
X187474096Y-96834689D01*
X187604453Y-96653277D01*
X187674378Y-96511795D01*
X187701136Y-96457653D01*
X187701137Y-96457651D01*
X187703430Y-96453011D01*
X187735900Y-96346140D01*
X187766865Y-96244223D01*
X187766865Y-96244221D01*
X187768370Y-96239269D01*
X187797529Y-96017790D01*
X187799156Y-95951200D01*
X187780852Y-95728561D01*
X187726431Y-95511902D01*
X187637354Y-95307040D01*
X187570465Y-95203645D01*
X187518822Y-95123817D01*
X187518820Y-95123814D01*
X187516014Y-95119477D01*
X187365670Y-94954251D01*
X187361619Y-94951052D01*
X187361615Y-94951048D01*
X187194414Y-94819000D01*
X187194410Y-94818998D01*
X187190359Y-94815798D01*
X187148569Y-94792729D01*
X187098598Y-94742297D01*
X187083826Y-94672854D01*
X187108942Y-94606448D01*
X187136294Y-94579841D01*
X187311328Y-94454992D01*
X187319200Y-94448339D01*
X187470052Y-94298012D01*
X187476730Y-94290165D01*
X187601003Y-94117220D01*
X187606313Y-94108383D01*
X187700670Y-93917467D01*
X187704469Y-93907872D01*
X187766377Y-93704110D01*
X187768555Y-93694037D01*
X187769986Y-93683162D01*
X187767775Y-93668978D01*
X187754617Y-93665200D01*
X186308000Y-93665200D01*
X186239879Y-93645198D01*
X186193386Y-93591542D01*
X186182000Y-93539200D01*
X186182000Y-93283200D01*
X186202002Y-93215079D01*
X186255658Y-93168586D01*
X186308000Y-93157200D01*
X187754344Y-93157200D01*
X187767875Y-93153227D01*
X187769180Y-93144147D01*
X187727214Y-92977075D01*
X187723894Y-92967324D01*
X187638972Y-92772014D01*
X187634105Y-92762939D01*
X187518426Y-92584126D01*
X187512136Y-92575957D01*
X187368806Y-92418440D01*
X187361273Y-92411415D01*
X187194139Y-92279422D01*
X187185556Y-92273720D01*
X187148602Y-92253320D01*
X187098631Y-92202887D01*
X187083859Y-92133445D01*
X187108975Y-92067039D01*
X187136327Y-92040432D01*
X187162628Y-92021672D01*
X187315860Y-91912373D01*
X187360704Y-91867686D01*
X187470435Y-91758337D01*
X187474096Y-91754689D01*
X187503162Y-91714240D01*
X187601435Y-91577477D01*
X187604453Y-91573277D01*
X187621338Y-91539114D01*
X187701136Y-91377653D01*
X187701137Y-91377651D01*
X187703430Y-91373011D01*
X187768370Y-91159269D01*
X187797529Y-90937790D01*
X187799156Y-90871200D01*
X187780852Y-90648561D01*
X187726431Y-90431902D01*
X187637354Y-90227040D01*
X187578095Y-90135440D01*
X187518822Y-90043817D01*
X187518820Y-90043814D01*
X187516014Y-90039477D01*
X187365670Y-89874251D01*
X187361619Y-89871052D01*
X187361615Y-89871048D01*
X187194414Y-89739000D01*
X187194410Y-89738998D01*
X187190359Y-89735798D01*
X187149053Y-89712996D01*
X187099084Y-89662564D01*
X187084312Y-89593121D01*
X187109428Y-89526716D01*
X187136780Y-89500109D01*
X187262413Y-89410496D01*
X187315860Y-89372373D01*
X187329439Y-89358842D01*
X187470435Y-89218337D01*
X187474096Y-89214689D01*
X187503162Y-89174240D01*
X187601435Y-89037477D01*
X187604453Y-89033277D01*
X187625907Y-88989869D01*
X187701136Y-88837653D01*
X187701137Y-88837651D01*
X187703430Y-88833011D01*
X187768370Y-88619269D01*
X187797529Y-88397790D01*
X187799156Y-88331200D01*
X187780852Y-88108561D01*
X187726431Y-87891902D01*
X187637354Y-87687040D01*
X187578095Y-87595440D01*
X187518822Y-87503817D01*
X187518820Y-87503814D01*
X187516014Y-87499477D01*
X187365670Y-87334251D01*
X187361619Y-87331052D01*
X187361615Y-87331048D01*
X187194414Y-87199000D01*
X187194410Y-87198998D01*
X187190359Y-87195798D01*
X187148569Y-87172729D01*
X187098598Y-87122297D01*
X187083826Y-87052854D01*
X187108942Y-86986448D01*
X187136294Y-86959841D01*
X187311328Y-86834992D01*
X187319200Y-86828339D01*
X187470052Y-86678012D01*
X187476730Y-86670165D01*
X187601003Y-86497220D01*
X187606313Y-86488383D01*
X187700670Y-86297467D01*
X187704469Y-86287872D01*
X187766377Y-86084110D01*
X187768555Y-86074037D01*
X187769986Y-86063162D01*
X187767775Y-86048978D01*
X187754617Y-86045200D01*
X185119225Y-86045200D01*
X185105694Y-86049173D01*
X185104257Y-86059166D01*
X185134565Y-86193646D01*
X185137645Y-86203475D01*
X185217770Y-86400803D01*
X185222413Y-86409994D01*
X185333694Y-86591588D01*
X185339777Y-86599899D01*
X185479213Y-86760867D01*
X185486580Y-86768083D01*
X185650434Y-86904116D01*
X185658881Y-86910031D01*
X185727969Y-86950403D01*
X185776693Y-87002042D01*
X185789764Y-87071825D01*
X185763033Y-87137596D01*
X185722584Y-87170952D01*
X185709607Y-87177707D01*
X185705474Y-87180810D01*
X185705471Y-87180812D01*
X185535100Y-87308730D01*
X185530965Y-87311835D01*
X185527393Y-87315573D01*
X185425522Y-87422175D01*
X185376629Y-87473338D01*
X185250743Y-87657880D01*
X185156688Y-87860505D01*
X185096989Y-88075770D01*
X185073251Y-88297895D01*
X185073548Y-88303048D01*
X185073548Y-88303051D01*
X185082793Y-88463387D01*
X185086110Y-88520915D01*
X185087247Y-88525961D01*
X185087248Y-88525967D01*
X185119453Y-88668868D01*
X185114917Y-88739720D01*
X185085631Y-88785664D01*
X184744595Y-89126700D01*
X184682283Y-89160726D01*
X184611468Y-89155661D01*
X184554632Y-89113114D01*
X184529821Y-89046594D01*
X184529500Y-89037605D01*
X184529500Y-83565794D01*
X184549502Y-83497673D01*
X184566405Y-83476699D01*
X184861019Y-83182085D01*
X184923331Y-83148059D01*
X184994146Y-83153124D01*
X185050982Y-83195671D01*
X185075905Y-83263927D01*
X185086110Y-83440915D01*
X185087247Y-83445961D01*
X185087248Y-83445967D01*
X185095740Y-83483646D01*
X185135222Y-83658839D01*
X185219266Y-83865816D01*
X185221965Y-83870220D01*
X185310427Y-84014577D01*
X185335987Y-84056288D01*
X185482250Y-84225138D01*
X185654126Y-84367832D01*
X185727955Y-84410974D01*
X185776679Y-84462612D01*
X185789750Y-84532395D01*
X185763019Y-84598167D01*
X185722562Y-84631527D01*
X185714457Y-84635746D01*
X185705738Y-84641236D01*
X185535433Y-84769105D01*
X185527726Y-84775948D01*
X185380590Y-84929917D01*
X185374104Y-84937927D01*
X185254098Y-85113849D01*
X185249000Y-85122823D01*
X185159338Y-85315983D01*
X185155775Y-85325670D01*
X185100389Y-85525383D01*
X185101912Y-85533807D01*
X185114292Y-85537200D01*
X187754344Y-85537200D01*
X187767875Y-85533227D01*
X187769180Y-85524147D01*
X187727214Y-85357075D01*
X187723894Y-85347324D01*
X187638972Y-85152014D01*
X187634105Y-85142939D01*
X187518426Y-84964126D01*
X187512136Y-84955957D01*
X187368806Y-84798440D01*
X187361273Y-84791415D01*
X187194139Y-84659422D01*
X187185556Y-84653720D01*
X187148602Y-84633320D01*
X187098631Y-84582887D01*
X187083859Y-84513445D01*
X187108975Y-84447039D01*
X187136327Y-84420432D01*
X187202046Y-84373555D01*
X187315860Y-84292373D01*
X187360704Y-84247686D01*
X187470435Y-84138337D01*
X187474096Y-84134689D01*
X187503162Y-84094240D01*
X187601435Y-83957477D01*
X187604453Y-83953277D01*
X187625907Y-83909869D01*
X187701136Y-83757653D01*
X187701137Y-83757651D01*
X187703430Y-83753011D01*
X187768370Y-83539269D01*
X187797529Y-83317790D01*
X187799156Y-83251200D01*
X187780852Y-83028561D01*
X187726431Y-82811902D01*
X187637354Y-82607040D01*
X187570465Y-82503645D01*
X187518822Y-82423817D01*
X187518820Y-82423814D01*
X187516014Y-82419477D01*
X187365670Y-82254251D01*
X187361619Y-82251052D01*
X187361615Y-82251048D01*
X187194414Y-82119000D01*
X187194410Y-82118998D01*
X187190359Y-82115798D01*
X187149053Y-82092996D01*
X187099084Y-82042564D01*
X187084312Y-81973121D01*
X187109428Y-81906716D01*
X187136780Y-81880109D01*
X187195418Y-81838283D01*
X187315860Y-81752373D01*
X187329439Y-81738842D01*
X187470435Y-81598337D01*
X187474096Y-81594689D01*
X187503162Y-81554240D01*
X187601435Y-81417477D01*
X187604453Y-81413277D01*
X187625907Y-81369869D01*
X187701136Y-81217653D01*
X187701137Y-81217651D01*
X187703430Y-81213011D01*
X187746782Y-81070322D01*
X187766865Y-81004223D01*
X187766865Y-81004221D01*
X187768370Y-80999269D01*
X187797529Y-80777790D01*
X187799156Y-80711200D01*
X187780852Y-80488561D01*
X187726431Y-80271902D01*
X187637354Y-80067040D01*
X187578095Y-79975440D01*
X187518822Y-79883817D01*
X187518820Y-79883814D01*
X187516014Y-79879477D01*
X187365670Y-79714251D01*
X187361619Y-79711052D01*
X187361615Y-79711048D01*
X187194414Y-79579000D01*
X187194410Y-79578998D01*
X187190359Y-79575798D01*
X186994789Y-79467838D01*
X186989920Y-79466114D01*
X186989916Y-79466112D01*
X186789087Y-79394995D01*
X186789083Y-79394994D01*
X186784212Y-79393269D01*
X186779119Y-79392362D01*
X186779116Y-79392361D01*
X186569373Y-79355000D01*
X186569367Y-79354999D01*
X186564284Y-79354094D01*
X186490452Y-79353192D01*
X186346081Y-79351428D01*
X186346079Y-79351428D01*
X186340911Y-79351365D01*
X186120091Y-79385155D01*
X185907756Y-79454557D01*
X185709607Y-79557707D01*
X185705474Y-79560810D01*
X185705471Y-79560812D01*
X185535100Y-79688730D01*
X185530965Y-79691835D01*
X185527393Y-79695573D01*
X185425522Y-79802175D01*
X185376629Y-79853338D01*
X185373715Y-79857610D01*
X185373714Y-79857611D01*
X185355838Y-79883817D01*
X185250743Y-80037880D01*
X185156688Y-80240505D01*
X185096989Y-80455770D01*
X185073251Y-80677895D01*
X185073548Y-80683048D01*
X185073548Y-80683051D01*
X185082793Y-80843387D01*
X185086110Y-80900915D01*
X185087247Y-80905961D01*
X185087248Y-80905967D01*
X185119453Y-81048868D01*
X185114917Y-81119720D01*
X185085631Y-81165664D01*
X183588597Y-82662698D01*
X183526285Y-82696724D01*
X183455470Y-82691659D01*
X183398634Y-82649112D01*
X183383952Y-82623845D01*
X183346672Y-82538106D01*
X183346670Y-82538103D01*
X183344612Y-82533369D01*
X183220923Y-82342175D01*
X183067668Y-82173750D01*
X182888963Y-82032618D01*
X182881849Y-82028691D01*
X182881006Y-82027840D01*
X182880131Y-82027259D01*
X182880251Y-82027078D01*
X182831876Y-81978261D01*
X182817100Y-81908819D01*
X182842214Y-81842413D01*
X182869568Y-81815802D01*
X182888103Y-81802581D01*
X182896504Y-81791881D01*
X182889515Y-81778725D01*
X182132812Y-81022022D01*
X182118868Y-81014408D01*
X182117035Y-81014539D01*
X182110420Y-81018790D01*
X181347510Y-81781700D01*
X181340750Y-81794080D01*
X181346031Y-81801134D01*
X181360698Y-81809705D01*
X181409422Y-81861343D01*
X181422493Y-81931126D01*
X181395762Y-81996898D01*
X181372781Y-82019253D01*
X181206170Y-82144348D01*
X181197444Y-82150900D01*
X181193872Y-82154638D01*
X181048915Y-82306327D01*
X181040120Y-82315530D01*
X181037206Y-82319802D01*
X181037205Y-82319803D01*
X180971818Y-82415657D01*
X180911797Y-82503645D01*
X180815921Y-82710192D01*
X180755067Y-82929625D01*
X180730869Y-83156050D01*
X180731166Y-83161202D01*
X180731166Y-83161206D01*
X180734435Y-83217895D01*
X180743977Y-83383387D01*
X180745112Y-83388424D01*
X180745113Y-83388430D01*
X180784239Y-83562046D01*
X180794039Y-83605531D01*
X180795983Y-83610317D01*
X180795984Y-83610322D01*
X180877767Y-83811728D01*
X180879711Y-83816515D01*
X180998692Y-84010674D01*
X181147786Y-84182793D01*
X181322989Y-84328249D01*
X181327440Y-84330850D01*
X181327450Y-84330857D01*
X181360266Y-84350033D01*
X181408989Y-84401672D01*
X181422059Y-84471455D01*
X181395326Y-84537227D01*
X181372353Y-84559575D01*
X181197444Y-84690900D01*
X181182597Y-84706437D01*
X181049217Y-84846011D01*
X181040120Y-84855530D01*
X181037206Y-84859802D01*
X181037205Y-84859803D01*
X180971614Y-84955957D01*
X180911797Y-85043645D01*
X180815921Y-85250192D01*
X180755067Y-85469625D01*
X180730869Y-85696050D01*
X180731166Y-85701202D01*
X180731166Y-85701206D01*
X180735983Y-85784740D01*
X180743977Y-85923387D01*
X180745112Y-85928424D01*
X180745113Y-85928430D01*
X180786488Y-86112025D01*
X180794039Y-86145531D01*
X180795983Y-86150317D01*
X180795984Y-86150322D01*
X180851838Y-86287872D01*
X180879711Y-86356515D01*
X180998692Y-86550674D01*
X181147786Y-86722793D01*
X181322989Y-86868249D01*
X181327440Y-86870850D01*
X181327450Y-86870857D01*
X181360266Y-86890033D01*
X181408989Y-86941672D01*
X181422059Y-87011455D01*
X181395326Y-87077227D01*
X181372353Y-87099575D01*
X181197444Y-87230900D01*
X181182597Y-87246437D01*
X181049217Y-87386011D01*
X181040120Y-87395530D01*
X181037206Y-87399802D01*
X181037205Y-87399803D01*
X180971818Y-87495657D01*
X180911797Y-87583645D01*
X180815921Y-87790192D01*
X180814539Y-87795174D01*
X180814539Y-87795175D01*
X180795037Y-87865497D01*
X180755067Y-88009625D01*
X180730869Y-88236050D01*
X180731166Y-88241202D01*
X180731166Y-88241206D01*
X180735983Y-88324740D01*
X180743977Y-88463387D01*
X180745112Y-88468424D01*
X180745113Y-88468430D01*
X180786488Y-88652025D01*
X180794039Y-88685531D01*
X180795983Y-88690317D01*
X180795984Y-88690322D01*
X180860591Y-88849429D01*
X180879711Y-88896515D01*
X180998692Y-89090674D01*
X181147786Y-89262793D01*
X181322989Y-89408249D01*
X181327440Y-89410850D01*
X181327450Y-89410857D01*
X181360266Y-89430033D01*
X181408989Y-89481672D01*
X181422059Y-89551455D01*
X181395326Y-89617227D01*
X181372353Y-89639575D01*
X181197444Y-89770900D01*
X181182597Y-89786437D01*
X181049217Y-89926011D01*
X181040120Y-89935530D01*
X181037206Y-89939802D01*
X181037205Y-89939803D01*
X180971818Y-90035657D01*
X180911797Y-90123645D01*
X180815921Y-90330192D01*
X180755067Y-90549625D01*
X180730869Y-90776050D01*
X180731166Y-90781202D01*
X180731166Y-90781206D01*
X180734435Y-90837895D01*
X180743977Y-91003387D01*
X180745112Y-91008424D01*
X180745113Y-91008430D01*
X180786488Y-91192025D01*
X180794039Y-91225531D01*
X180795983Y-91230317D01*
X180795984Y-91230322D01*
X180860591Y-91389429D01*
X180879711Y-91436515D01*
X180998692Y-91630674D01*
X181147786Y-91802793D01*
X181322989Y-91948249D01*
X181327440Y-91950850D01*
X181327450Y-91950857D01*
X181360266Y-91970033D01*
X181408989Y-92021672D01*
X181422059Y-92091455D01*
X181395326Y-92157227D01*
X181372353Y-92179575D01*
X181197444Y-92310900D01*
X181040120Y-92475530D01*
X181037206Y-92479802D01*
X181037205Y-92479803D01*
X180971614Y-92575957D01*
X180911797Y-92663645D01*
X180815921Y-92870192D01*
X180755067Y-93089625D01*
X180730869Y-93316050D01*
X180731166Y-93321202D01*
X180731166Y-93321206D01*
X180735983Y-93404740D01*
X180743977Y-93543387D01*
X180745112Y-93548424D01*
X180745113Y-93548430D01*
X180772280Y-93668978D01*
X180794039Y-93765531D01*
X180795983Y-93770317D01*
X180795984Y-93770322D01*
X180818754Y-93826397D01*
X180879711Y-93976515D01*
X180998692Y-94170674D01*
X181147786Y-94342793D01*
X181322989Y-94488249D01*
X181327440Y-94490850D01*
X181327450Y-94490857D01*
X181360266Y-94510033D01*
X181408989Y-94561672D01*
X181422059Y-94631455D01*
X181395326Y-94697227D01*
X181372353Y-94719575D01*
X181197444Y-94850900D01*
X181193872Y-94854638D01*
X181098680Y-94954251D01*
X181040120Y-95015530D01*
X181037206Y-95019802D01*
X181037205Y-95019803D01*
X180971818Y-95115657D01*
X180911797Y-95203645D01*
X180815921Y-95410192D01*
X180814539Y-95415174D01*
X180814539Y-95415175D01*
X180789031Y-95507154D01*
X180755067Y-95629625D01*
X180730869Y-95856050D01*
X180731166Y-95861202D01*
X180731166Y-95861206D01*
X180734435Y-95917895D01*
X180743977Y-96083387D01*
X180745112Y-96088424D01*
X180745113Y-96088430D01*
X180792901Y-96300482D01*
X180794039Y-96305531D01*
X180795983Y-96310317D01*
X180795984Y-96310322D01*
X180877767Y-96511728D01*
X180879711Y-96516515D01*
X180998692Y-96710674D01*
X181147786Y-96882793D01*
X181322989Y-97028249D01*
X181327440Y-97030850D01*
X181327450Y-97030857D01*
X181360266Y-97050033D01*
X181408989Y-97101672D01*
X181422059Y-97171455D01*
X181395326Y-97237227D01*
X181372353Y-97259575D01*
X181197444Y-97390900D01*
X181193872Y-97394638D01*
X181098680Y-97494251D01*
X181040120Y-97555530D01*
X181037206Y-97559802D01*
X181037205Y-97559803D01*
X180971818Y-97655657D01*
X180911797Y-97743645D01*
X180815921Y-97950192D01*
X180755067Y-98169625D01*
X180730869Y-98396050D01*
X180731166Y-98401202D01*
X180731166Y-98401206D01*
X180735445Y-98475414D01*
X180743977Y-98623387D01*
X180745112Y-98628424D01*
X180745113Y-98628430D01*
X180792901Y-98840482D01*
X180794039Y-98845531D01*
X180795983Y-98850317D01*
X180795984Y-98850322D01*
X180877767Y-99051728D01*
X180879711Y-99056515D01*
X180998692Y-99250674D01*
X181147786Y-99422793D01*
X181322989Y-99568249D01*
X181327440Y-99570850D01*
X181327450Y-99570857D01*
X181360266Y-99590033D01*
X181408989Y-99641672D01*
X181422059Y-99711455D01*
X181395326Y-99777227D01*
X181372353Y-99799575D01*
X181197444Y-99930900D01*
X181040120Y-100095530D01*
X181037206Y-100099802D01*
X181037205Y-100099803D01*
X180965928Y-100204292D01*
X180911797Y-100283645D01*
X180815921Y-100490192D01*
X180755067Y-100709625D01*
X180730869Y-100936050D01*
X180731166Y-100941202D01*
X180731166Y-100941206D01*
X180735445Y-101015414D01*
X180743977Y-101163387D01*
X180745112Y-101168424D01*
X180745113Y-101168430D01*
X180778137Y-101314970D01*
X180794039Y-101385531D01*
X180795983Y-101390317D01*
X180795984Y-101390322D01*
X180862892Y-101555096D01*
X180869988Y-101625737D01*
X180837766Y-101689000D01*
X180776456Y-101724801D01*
X180746149Y-101728500D01*
X176206594Y-101728500D01*
X176138473Y-101708498D01*
X176117499Y-101691595D01*
X168252302Y-93826397D01*
X168218276Y-93764085D01*
X168220838Y-93700674D01*
X168236662Y-93648591D01*
X168236663Y-93648586D01*
X168238164Y-93643646D01*
X168250700Y-93548430D01*
X168267450Y-93421201D01*
X168267451Y-93421194D01*
X168267887Y-93417879D01*
X168269546Y-93350000D01*
X168253368Y-93153227D01*
X168251311Y-93128202D01*
X168251310Y-93128196D01*
X168250887Y-93123051D01*
X168195413Y-92902197D01*
X168185198Y-92878703D01*
X168106672Y-92698106D01*
X168106670Y-92698103D01*
X168104612Y-92693369D01*
X167980923Y-92502175D01*
X167827668Y-92333750D01*
X167648963Y-92192618D01*
X167642335Y-92188959D01*
X167641651Y-92188269D01*
X167640131Y-92187259D01*
X167640339Y-92186945D01*
X167592363Y-92138533D01*
X167577585Y-92069091D01*
X167602696Y-92002684D01*
X167630054Y-91976069D01*
X167772689Y-91874329D01*
X167772691Y-91874327D01*
X167776893Y-91871330D01*
X167938193Y-91710592D01*
X168071073Y-91525669D01*
X168136042Y-91394216D01*
X168169673Y-91326168D01*
X168169674Y-91326166D01*
X168171967Y-91321526D01*
X168238164Y-91103646D01*
X168244111Y-91058474D01*
X168267450Y-90881201D01*
X168267451Y-90881194D01*
X168267887Y-90877879D01*
X168269546Y-90810000D01*
X168259154Y-90683604D01*
X168251311Y-90588202D01*
X168251310Y-90588196D01*
X168250887Y-90583051D01*
X168214182Y-90436920D01*
X168196672Y-90367208D01*
X168196671Y-90367204D01*
X168195413Y-90362197D01*
X168185893Y-90340302D01*
X168106672Y-90158106D01*
X168106670Y-90158103D01*
X168104612Y-90153369D01*
X167980923Y-89962175D01*
X167827668Y-89793750D01*
X167648963Y-89652618D01*
X167642335Y-89648959D01*
X167641651Y-89648269D01*
X167640131Y-89647259D01*
X167640339Y-89646945D01*
X167592363Y-89598533D01*
X167577585Y-89529091D01*
X167602696Y-89462684D01*
X167630054Y-89436069D01*
X167772689Y-89334329D01*
X167772691Y-89334327D01*
X167776893Y-89331330D01*
X167938193Y-89170592D01*
X167945283Y-89160726D01*
X168068055Y-88989869D01*
X168071073Y-88985669D01*
X168090740Y-88945877D01*
X168169673Y-88786168D01*
X168169674Y-88786166D01*
X168171967Y-88781526D01*
X168238164Y-88563646D01*
X168242248Y-88532623D01*
X168267450Y-88341201D01*
X168267451Y-88341194D01*
X168267887Y-88337879D01*
X168268132Y-88327846D01*
X168269464Y-88273365D01*
X168269464Y-88273360D01*
X168269546Y-88270000D01*
X168262179Y-88180393D01*
X168251311Y-88048202D01*
X168251310Y-88048196D01*
X168250887Y-88043051D01*
X168214182Y-87896920D01*
X168196672Y-87827208D01*
X168196671Y-87827204D01*
X168195413Y-87822197D01*
X168185893Y-87800302D01*
X168106672Y-87618106D01*
X168106670Y-87618103D01*
X168104612Y-87613369D01*
X167980923Y-87422175D01*
X167827668Y-87253750D01*
X167648963Y-87112618D01*
X167642335Y-87108959D01*
X167641651Y-87108269D01*
X167640131Y-87107259D01*
X167640339Y-87106945D01*
X167592363Y-87058533D01*
X167577585Y-86989091D01*
X167602696Y-86922684D01*
X167630054Y-86896069D01*
X167772689Y-86794329D01*
X167772691Y-86794327D01*
X167776893Y-86791330D01*
X167938193Y-86630592D01*
X168071073Y-86445669D01*
X168090740Y-86405877D01*
X168169673Y-86246168D01*
X168169674Y-86246166D01*
X168171967Y-86241526D01*
X168238164Y-86023646D01*
X168242248Y-85992623D01*
X168267450Y-85801201D01*
X168267451Y-85801194D01*
X168267887Y-85797879D01*
X168267969Y-85794527D01*
X168269464Y-85733365D01*
X168269464Y-85733360D01*
X168269546Y-85730000D01*
X168253368Y-85533227D01*
X168251311Y-85508202D01*
X168251310Y-85508196D01*
X168250887Y-85503051D01*
X168206333Y-85325670D01*
X168196672Y-85287208D01*
X168196671Y-85287204D01*
X168195413Y-85282197D01*
X168185893Y-85260302D01*
X168106672Y-85078106D01*
X168106670Y-85078103D01*
X168104612Y-85073369D01*
X167980923Y-84882175D01*
X167827668Y-84713750D01*
X167648963Y-84572618D01*
X167642335Y-84568959D01*
X167641651Y-84568269D01*
X167640131Y-84567259D01*
X167640339Y-84566945D01*
X167592363Y-84518533D01*
X167577585Y-84449091D01*
X167602696Y-84382684D01*
X167630054Y-84356069D01*
X167772689Y-84254329D01*
X167772691Y-84254327D01*
X167776893Y-84251330D01*
X167938193Y-84090592D01*
X167969940Y-84046412D01*
X168068055Y-83909869D01*
X168071073Y-83905669D01*
X168090867Y-83865620D01*
X168169673Y-83706168D01*
X168169674Y-83706166D01*
X168171967Y-83701526D01*
X168238164Y-83483646D01*
X168246863Y-83417573D01*
X168267450Y-83261201D01*
X168267451Y-83261194D01*
X168267887Y-83257879D01*
X168268864Y-83217895D01*
X168269464Y-83193365D01*
X168269464Y-83193360D01*
X168269546Y-83190000D01*
X168262179Y-83100393D01*
X168251311Y-82968202D01*
X168251310Y-82968196D01*
X168250887Y-82963051D01*
X168214182Y-82816920D01*
X168196672Y-82747208D01*
X168196671Y-82747204D01*
X168195413Y-82742197D01*
X168183902Y-82715724D01*
X168106672Y-82538106D01*
X168106670Y-82538103D01*
X168104612Y-82533369D01*
X167980923Y-82342175D01*
X167827668Y-82173750D01*
X167648963Y-82032618D01*
X167642335Y-82028959D01*
X167641651Y-82028269D01*
X167640131Y-82027259D01*
X167640339Y-82026945D01*
X167592363Y-81978533D01*
X167577585Y-81909091D01*
X167602696Y-81842684D01*
X167630054Y-81816069D01*
X167772689Y-81714329D01*
X167772691Y-81714327D01*
X167776893Y-81711330D01*
X167938193Y-81550592D01*
X168071073Y-81365669D01*
X168073494Y-81360772D01*
X168169673Y-81166168D01*
X168169674Y-81166166D01*
X168171967Y-81161526D01*
X168238164Y-80943646D01*
X168242248Y-80912623D01*
X168267450Y-80721201D01*
X168267451Y-80721194D01*
X168267887Y-80717879D01*
X168268132Y-80707846D01*
X168269464Y-80653365D01*
X168269464Y-80653360D01*
X168269546Y-80650000D01*
X168267180Y-80621219D01*
X180731668Y-80621219D01*
X180744176Y-80838150D01*
X180745612Y-80848370D01*
X180793382Y-81060339D01*
X180796461Y-81070167D01*
X180878215Y-81271502D01*
X180882858Y-81280693D01*
X180967334Y-81418546D01*
X180977790Y-81428006D01*
X180986568Y-81424222D01*
X181747978Y-80662812D01*
X181754356Y-80651132D01*
X182484408Y-80651132D01*
X182484539Y-80652965D01*
X182488790Y-80659580D01*
X183249320Y-81420110D01*
X183261330Y-81426669D01*
X183273069Y-81417701D01*
X183307625Y-81369611D01*
X183312936Y-81360772D01*
X183409206Y-81165983D01*
X183413005Y-81156387D01*
X183476170Y-80948491D01*
X183478349Y-80938410D01*
X183506949Y-80721175D01*
X183507468Y-80714502D01*
X183508962Y-80653365D01*
X183508768Y-80646646D01*
X183490816Y-80428294D01*
X183489131Y-80418114D01*
X183436196Y-80207371D01*
X183432876Y-80197620D01*
X183346229Y-79998343D01*
X183341362Y-79989268D01*
X183272083Y-79882178D01*
X183261398Y-79872975D01*
X183251831Y-79877379D01*
X182492022Y-80637188D01*
X182484408Y-80651132D01*
X181754356Y-80651132D01*
X181755592Y-80648868D01*
X181755461Y-80647035D01*
X181751210Y-80640420D01*
X180990922Y-79880132D01*
X180979386Y-79873832D01*
X180967104Y-79883455D01*
X180915143Y-79959627D01*
X180910058Y-79968578D01*
X180818571Y-80165671D01*
X180815008Y-80175358D01*
X180756942Y-80384736D01*
X180755011Y-80394856D01*
X180731920Y-80610930D01*
X180731668Y-80621219D01*
X168267180Y-80621219D01*
X168262179Y-80560393D01*
X168251311Y-80428202D01*
X168251310Y-80428196D01*
X168250887Y-80423051D01*
X168216327Y-80285461D01*
X168196672Y-80207208D01*
X168196671Y-80207204D01*
X168195413Y-80202197D01*
X168185893Y-80180302D01*
X168106672Y-79998106D01*
X168106670Y-79998103D01*
X168104612Y-79993369D01*
X167980923Y-79802175D01*
X167827668Y-79633750D01*
X167648963Y-79492618D01*
X167642335Y-79488959D01*
X167641651Y-79488269D01*
X167640131Y-79487259D01*
X167640339Y-79486945D01*
X167592363Y-79438533D01*
X167577585Y-79369091D01*
X167602696Y-79302684D01*
X167630054Y-79276069D01*
X167772689Y-79174329D01*
X167772691Y-79174327D01*
X167776893Y-79171330D01*
X167938193Y-79010592D01*
X168071073Y-78825669D01*
X168171967Y-78621526D01*
X168238164Y-78403646D01*
X168250700Y-78308430D01*
X168267450Y-78181201D01*
X168267451Y-78181194D01*
X168267887Y-78177879D01*
X168269546Y-78110000D01*
X168266755Y-78076050D01*
X180730869Y-78076050D01*
X180731166Y-78081202D01*
X180731166Y-78081206D01*
X180735983Y-78164740D01*
X180743977Y-78303387D01*
X180794039Y-78525531D01*
X180795983Y-78530317D01*
X180795984Y-78530322D01*
X180877767Y-78731728D01*
X180879711Y-78736515D01*
X180998692Y-78930674D01*
X181147786Y-79102793D01*
X181322989Y-79248249D01*
X181327441Y-79250851D01*
X181327446Y-79250854D01*
X181360733Y-79270305D01*
X181409456Y-79321944D01*
X181422527Y-79391727D01*
X181395795Y-79457499D01*
X181372813Y-79479854D01*
X181350890Y-79496314D01*
X181342436Y-79507640D01*
X181349180Y-79519970D01*
X182107188Y-80277978D01*
X182121132Y-80285592D01*
X182122965Y-80285461D01*
X182129580Y-80281210D01*
X182892115Y-79518675D01*
X182899136Y-79505819D01*
X182891607Y-79495486D01*
X182884161Y-79490539D01*
X182881880Y-79489280D01*
X182881137Y-79488530D01*
X182879853Y-79487677D01*
X182880029Y-79487412D01*
X182831908Y-79438849D01*
X182817134Y-79369406D01*
X182842249Y-79303000D01*
X182869602Y-79276391D01*
X183016893Y-79171330D01*
X183178193Y-79010592D01*
X183311073Y-78825669D01*
X183411967Y-78621526D01*
X183478164Y-78403646D01*
X183490700Y-78308430D01*
X183507450Y-78181201D01*
X183507451Y-78181194D01*
X183507887Y-78177879D01*
X183509546Y-78110000D01*
X183502179Y-78020393D01*
X183491311Y-77888202D01*
X183491310Y-77888196D01*
X183490887Y-77883051D01*
X183435413Y-77662197D01*
X183433354Y-77657461D01*
X183346672Y-77458106D01*
X183346670Y-77458103D01*
X183344612Y-77453369D01*
X183220923Y-77262175D01*
X183067668Y-77093750D01*
X182888963Y-76952618D01*
X182882335Y-76948959D01*
X182881651Y-76948269D01*
X182880131Y-76947259D01*
X182880339Y-76946945D01*
X182832363Y-76898533D01*
X182817585Y-76829091D01*
X182842696Y-76762684D01*
X182870054Y-76736069D01*
X183012689Y-76634329D01*
X183012691Y-76634327D01*
X183016893Y-76631330D01*
X183178193Y-76470592D01*
X183311073Y-76285669D01*
X183411967Y-76081526D01*
X183478164Y-75863646D01*
X183490700Y-75768430D01*
X183507450Y-75641201D01*
X183507451Y-75641194D01*
X183507887Y-75637879D01*
X183509546Y-75570000D01*
X183498449Y-75435030D01*
X183491311Y-75348202D01*
X183491310Y-75348196D01*
X183490887Y-75343051D01*
X183440916Y-75144106D01*
X183436672Y-75127208D01*
X183436671Y-75127204D01*
X183435413Y-75122197D01*
X183433354Y-75117461D01*
X183346672Y-74918106D01*
X183346670Y-74918103D01*
X183344612Y-74913369D01*
X183220923Y-74722175D01*
X183067668Y-74553750D01*
X182888963Y-74412618D01*
X182882335Y-74408959D01*
X182881651Y-74408269D01*
X182880131Y-74407259D01*
X182880339Y-74406945D01*
X182832363Y-74358533D01*
X182817585Y-74289091D01*
X182842696Y-74222684D01*
X182870054Y-74196069D01*
X183012689Y-74094329D01*
X183012691Y-74094327D01*
X183016893Y-74091330D01*
X183108542Y-74000000D01*
X186886526Y-74000000D01*
X186906391Y-74252403D01*
X186907545Y-74257210D01*
X186907546Y-74257216D01*
X186932239Y-74360068D01*
X186965495Y-74498591D01*
X186967388Y-74503162D01*
X186967389Y-74503164D01*
X187048840Y-74699803D01*
X187062384Y-74732502D01*
X187194672Y-74948376D01*
X187359102Y-75140898D01*
X187551624Y-75305328D01*
X187767498Y-75437616D01*
X187772068Y-75439509D01*
X187772072Y-75439511D01*
X187996836Y-75532611D01*
X188001409Y-75534505D01*
X188086032Y-75554821D01*
X188242784Y-75592454D01*
X188242790Y-75592455D01*
X188247597Y-75593609D01*
X188347416Y-75601465D01*
X188434345Y-75608307D01*
X188434352Y-75608307D01*
X188436801Y-75608500D01*
X188563199Y-75608500D01*
X188565648Y-75608307D01*
X188565655Y-75608307D01*
X188652584Y-75601465D01*
X188752403Y-75593609D01*
X188757210Y-75592455D01*
X188757216Y-75592454D01*
X188913968Y-75554821D01*
X188998591Y-75534505D01*
X189003164Y-75532611D01*
X189227928Y-75439511D01*
X189227932Y-75439509D01*
X189232502Y-75437616D01*
X189448376Y-75305328D01*
X189640898Y-75140898D01*
X189805328Y-74948376D01*
X189937616Y-74732502D01*
X189951161Y-74699803D01*
X190032611Y-74503164D01*
X190032612Y-74503162D01*
X190034505Y-74498591D01*
X190067761Y-74360068D01*
X190092454Y-74257216D01*
X190092455Y-74257210D01*
X190093609Y-74252403D01*
X190113474Y-74000000D01*
X190093609Y-73747597D01*
X190092033Y-73741030D01*
X190054821Y-73586032D01*
X190034505Y-73501409D01*
X189962921Y-73328590D01*
X189939511Y-73272072D01*
X189939509Y-73272068D01*
X189937616Y-73267498D01*
X189805328Y-73051624D01*
X189640898Y-72859102D01*
X189448376Y-72694672D01*
X189232502Y-72562384D01*
X189227932Y-72560491D01*
X189227928Y-72560489D01*
X189003164Y-72467389D01*
X189003162Y-72467388D01*
X188998591Y-72465495D01*
X188913968Y-72445179D01*
X188757216Y-72407546D01*
X188757210Y-72407545D01*
X188752403Y-72406391D01*
X188652584Y-72398535D01*
X188565655Y-72391693D01*
X188565648Y-72391693D01*
X188563199Y-72391500D01*
X188436801Y-72391500D01*
X188434352Y-72391693D01*
X188434345Y-72391693D01*
X188347416Y-72398535D01*
X188247597Y-72406391D01*
X188242790Y-72407545D01*
X188242784Y-72407546D01*
X188086032Y-72445179D01*
X188001409Y-72465495D01*
X187996838Y-72467388D01*
X187996836Y-72467389D01*
X187772072Y-72560489D01*
X187772068Y-72560491D01*
X187767498Y-72562384D01*
X187551624Y-72694672D01*
X187359102Y-72859102D01*
X187194672Y-73051624D01*
X187062384Y-73267498D01*
X187060491Y-73272068D01*
X187060489Y-73272072D01*
X187037079Y-73328590D01*
X186965495Y-73501409D01*
X186945179Y-73586032D01*
X186907968Y-73741030D01*
X186906391Y-73747597D01*
X186886526Y-74000000D01*
X183108542Y-74000000D01*
X183178193Y-73930592D01*
X183311073Y-73745669D01*
X183411967Y-73541526D01*
X183478164Y-73323646D01*
X183490700Y-73228430D01*
X183507450Y-73101201D01*
X183507451Y-73101194D01*
X183507887Y-73097879D01*
X183508915Y-73055838D01*
X183509464Y-73033365D01*
X183509464Y-73033360D01*
X183509546Y-73030000D01*
X183495804Y-72862858D01*
X183491311Y-72808202D01*
X183491310Y-72808196D01*
X183490887Y-72803051D01*
X183435413Y-72582197D01*
X183433354Y-72577461D01*
X183346672Y-72378106D01*
X183346670Y-72378103D01*
X183344612Y-72373369D01*
X183220923Y-72182175D01*
X183067668Y-72013750D01*
X182888963Y-71872618D01*
X182689607Y-71762567D01*
X182573598Y-71721486D01*
X182479829Y-71688280D01*
X182479825Y-71688279D01*
X182474954Y-71686554D01*
X182469861Y-71685647D01*
X182469858Y-71685646D01*
X182255857Y-71647527D01*
X182255851Y-71647526D01*
X182250768Y-71646621D01*
X182163698Y-71645557D01*
X182028239Y-71643902D01*
X182028237Y-71643902D01*
X182023070Y-71643839D01*
X181797976Y-71678283D01*
X181581529Y-71749029D01*
X181379544Y-71854176D01*
X181375411Y-71857279D01*
X181375408Y-71857281D01*
X181201579Y-71987795D01*
X181197444Y-71990900D01*
X181040120Y-72155530D01*
X181037206Y-72159802D01*
X181037205Y-72159803D01*
X180965928Y-72264292D01*
X180911797Y-72343645D01*
X180815921Y-72550192D01*
X180755067Y-72769625D01*
X180730869Y-72996050D01*
X180731166Y-73001202D01*
X180731166Y-73001206D01*
X180734073Y-73051624D01*
X180743977Y-73223387D01*
X180745112Y-73228424D01*
X180745113Y-73228430D01*
X180765416Y-73318520D01*
X180794039Y-73445531D01*
X180795983Y-73450317D01*
X180795984Y-73450322D01*
X180877767Y-73651728D01*
X180879711Y-73656515D01*
X180998692Y-73850674D01*
X181147786Y-74022793D01*
X181322989Y-74168249D01*
X181327440Y-74170850D01*
X181327450Y-74170857D01*
X181360266Y-74190033D01*
X181408989Y-74241672D01*
X181422059Y-74311455D01*
X181395326Y-74377227D01*
X181372353Y-74399575D01*
X181197444Y-74530900D01*
X181040120Y-74695530D01*
X181037206Y-74699802D01*
X181037205Y-74699803D01*
X181018020Y-74727928D01*
X180911797Y-74883645D01*
X180815921Y-75090192D01*
X180755067Y-75309625D01*
X180730869Y-75536050D01*
X180731166Y-75541202D01*
X180731166Y-75541206D01*
X180734121Y-75592454D01*
X180743977Y-75763387D01*
X180794039Y-75985531D01*
X180795983Y-75990317D01*
X180795984Y-75990322D01*
X180877767Y-76191728D01*
X180879711Y-76196515D01*
X180998692Y-76390674D01*
X181147786Y-76562793D01*
X181322989Y-76708249D01*
X181327440Y-76710850D01*
X181327450Y-76710857D01*
X181360266Y-76730033D01*
X181408989Y-76781672D01*
X181422059Y-76851455D01*
X181395326Y-76917227D01*
X181372353Y-76939575D01*
X181197444Y-77070900D01*
X181040120Y-77235530D01*
X181037206Y-77239802D01*
X181037205Y-77239803D01*
X180965928Y-77344292D01*
X180911797Y-77423645D01*
X180815921Y-77630192D01*
X180755067Y-77849625D01*
X180730869Y-78076050D01*
X168266755Y-78076050D01*
X168262179Y-78020393D01*
X168251311Y-77888202D01*
X168251310Y-77888196D01*
X168250887Y-77883051D01*
X168195413Y-77662197D01*
X168193354Y-77657461D01*
X168106672Y-77458106D01*
X168106670Y-77458103D01*
X168104612Y-77453369D01*
X167980923Y-77262175D01*
X167827668Y-77093750D01*
X167648963Y-76952618D01*
X167642335Y-76948959D01*
X167641651Y-76948269D01*
X167640131Y-76947259D01*
X167640339Y-76946945D01*
X167592363Y-76898533D01*
X167577585Y-76829091D01*
X167602696Y-76762684D01*
X167630054Y-76736069D01*
X167772689Y-76634329D01*
X167772691Y-76634327D01*
X167776893Y-76631330D01*
X167938193Y-76470592D01*
X168071073Y-76285669D01*
X168171967Y-76081526D01*
X168238164Y-75863646D01*
X168250700Y-75768430D01*
X168267450Y-75641201D01*
X168267451Y-75641194D01*
X168267887Y-75637879D01*
X168269546Y-75570000D01*
X168258449Y-75435030D01*
X168251311Y-75348202D01*
X168251310Y-75348196D01*
X168250887Y-75343051D01*
X168200916Y-75144106D01*
X168196672Y-75127208D01*
X168196671Y-75127204D01*
X168195413Y-75122197D01*
X168193354Y-75117461D01*
X168106672Y-74918106D01*
X168106670Y-74918103D01*
X168104612Y-74913369D01*
X167980923Y-74722175D01*
X167863846Y-74593509D01*
X167832795Y-74529663D01*
X167841190Y-74459164D01*
X167886366Y-74404396D01*
X167912809Y-74390728D01*
X167955658Y-74374665D01*
X167994595Y-74360068D01*
X167994596Y-74360067D01*
X168003005Y-74356915D01*
X168119561Y-74269561D01*
X168206915Y-74153005D01*
X168258045Y-74016616D01*
X168264800Y-73954434D01*
X168264800Y-72105566D01*
X168258045Y-72043384D01*
X168206915Y-71906995D01*
X168119561Y-71790439D01*
X168003005Y-71703085D01*
X167866616Y-71651955D01*
X167804434Y-71645200D01*
X165955566Y-71645200D01*
X165893384Y-71651955D01*
X165756995Y-71703085D01*
X165640439Y-71790439D01*
X165553085Y-71906995D01*
X165501955Y-72043384D01*
X165495200Y-72105566D01*
X165495200Y-73954434D01*
X165501955Y-74016616D01*
X165553085Y-74153005D01*
X165640439Y-74269561D01*
X165756995Y-74356915D01*
X165765403Y-74360067D01*
X165848226Y-74391116D01*
X165904990Y-74433758D01*
X165929690Y-74500319D01*
X165914483Y-74569668D01*
X165895090Y-74596149D01*
X165855616Y-74637456D01*
X165800120Y-74695530D01*
X165797206Y-74699802D01*
X165797205Y-74699803D01*
X165778020Y-74727928D01*
X165671797Y-74883645D01*
X165575921Y-75090192D01*
X165515067Y-75309625D01*
X165490869Y-75536050D01*
X165491166Y-75541202D01*
X165491166Y-75541206D01*
X165494121Y-75592454D01*
X165503977Y-75763387D01*
X165554039Y-75985531D01*
X165555983Y-75990317D01*
X165555984Y-75990322D01*
X165637767Y-76191728D01*
X165639711Y-76196515D01*
X165758692Y-76390674D01*
X165907786Y-76562793D01*
X166082989Y-76708249D01*
X166087440Y-76710850D01*
X166087450Y-76710857D01*
X166120266Y-76730033D01*
X166168989Y-76781672D01*
X166182059Y-76851455D01*
X166155326Y-76917227D01*
X166132353Y-76939575D01*
X165957444Y-77070900D01*
X165800120Y-77235530D01*
X165797206Y-77239802D01*
X165797205Y-77239803D01*
X165725928Y-77344292D01*
X165671797Y-77423645D01*
X165575921Y-77630192D01*
X165515067Y-77849625D01*
X165490869Y-78076050D01*
X165491166Y-78081202D01*
X165491166Y-78081206D01*
X165495983Y-78164740D01*
X165503977Y-78303387D01*
X165554039Y-78525531D01*
X165555983Y-78530317D01*
X165555984Y-78530322D01*
X165637767Y-78731728D01*
X165639711Y-78736515D01*
X165758692Y-78930674D01*
X165907786Y-79102793D01*
X166082989Y-79248249D01*
X166087440Y-79250850D01*
X166087450Y-79250857D01*
X166120266Y-79270033D01*
X166168989Y-79321672D01*
X166182059Y-79391455D01*
X166155326Y-79457227D01*
X166132353Y-79479575D01*
X165957444Y-79610900D01*
X165942565Y-79626470D01*
X165809217Y-79766011D01*
X165800120Y-79775530D01*
X165797206Y-79779802D01*
X165797205Y-79779803D01*
X165749592Y-79849601D01*
X165671797Y-79963645D01*
X165575921Y-80170192D01*
X165574539Y-80175174D01*
X165574539Y-80175175D01*
X165555037Y-80245497D01*
X165515067Y-80389625D01*
X165490869Y-80616050D01*
X165491166Y-80621202D01*
X165491166Y-80621206D01*
X165495983Y-80704740D01*
X165503977Y-80843387D01*
X165505112Y-80848424D01*
X165505113Y-80848430D01*
X165546488Y-81032025D01*
X165554039Y-81065531D01*
X165555983Y-81070317D01*
X165555984Y-81070322D01*
X165620591Y-81229429D01*
X165639711Y-81276515D01*
X165758692Y-81470674D01*
X165907786Y-81642793D01*
X166082989Y-81788249D01*
X166087440Y-81790850D01*
X166087450Y-81790857D01*
X166120266Y-81810033D01*
X166168989Y-81861672D01*
X166182059Y-81931455D01*
X166155326Y-81997227D01*
X166132353Y-82019575D01*
X165957444Y-82150900D01*
X165953872Y-82154638D01*
X165808915Y-82306327D01*
X165800120Y-82315530D01*
X165797206Y-82319802D01*
X165797205Y-82319803D01*
X165731818Y-82415657D01*
X165671797Y-82503645D01*
X165575921Y-82710192D01*
X165515067Y-82929625D01*
X165490869Y-83156050D01*
X165491166Y-83161202D01*
X165491166Y-83161206D01*
X165494435Y-83217895D01*
X165503977Y-83383387D01*
X165505112Y-83388424D01*
X165505113Y-83388430D01*
X165544239Y-83562046D01*
X165554039Y-83605531D01*
X165555983Y-83610317D01*
X165555984Y-83610322D01*
X165637767Y-83811728D01*
X165639711Y-83816515D01*
X165758692Y-84010674D01*
X165907786Y-84182793D01*
X166082989Y-84328249D01*
X166087440Y-84330850D01*
X166087450Y-84330857D01*
X166120266Y-84350033D01*
X166168989Y-84401672D01*
X166182059Y-84471455D01*
X166155326Y-84537227D01*
X166132353Y-84559575D01*
X165957444Y-84690900D01*
X165942597Y-84706437D01*
X165809217Y-84846011D01*
X165800120Y-84855530D01*
X165797206Y-84859802D01*
X165797205Y-84859803D01*
X165731614Y-84955957D01*
X165671797Y-85043645D01*
X165575921Y-85250192D01*
X165515067Y-85469625D01*
X165490869Y-85696050D01*
X165491166Y-85701202D01*
X165491166Y-85701206D01*
X165495983Y-85784740D01*
X165503977Y-85923387D01*
X165505112Y-85928424D01*
X165505113Y-85928430D01*
X165546488Y-86112025D01*
X165554039Y-86145531D01*
X165555983Y-86150317D01*
X165555984Y-86150322D01*
X165611838Y-86287872D01*
X165639711Y-86356515D01*
X165758692Y-86550674D01*
X165907786Y-86722793D01*
X166082989Y-86868249D01*
X166087440Y-86870850D01*
X166087450Y-86870857D01*
X166120266Y-86890033D01*
X166168989Y-86941672D01*
X166182059Y-87011455D01*
X166155326Y-87077227D01*
X166132353Y-87099575D01*
X165957444Y-87230900D01*
X165942597Y-87246437D01*
X165809217Y-87386011D01*
X165800120Y-87395530D01*
X165797206Y-87399802D01*
X165797205Y-87399803D01*
X165731818Y-87495657D01*
X165671797Y-87583645D01*
X165575921Y-87790192D01*
X165574539Y-87795174D01*
X165574539Y-87795175D01*
X165555037Y-87865497D01*
X165515067Y-88009625D01*
X165490869Y-88236050D01*
X165491166Y-88241202D01*
X165491166Y-88241206D01*
X165495983Y-88324740D01*
X165503977Y-88463387D01*
X165541451Y-88629673D01*
X165536915Y-88700523D01*
X165507629Y-88746467D01*
X164000486Y-90253609D01*
X163938174Y-90287635D01*
X163867358Y-90282570D01*
X163810523Y-90240023D01*
X163795844Y-90214761D01*
X163761354Y-90135440D01*
X163699273Y-90039477D01*
X163642822Y-89952217D01*
X163642820Y-89952214D01*
X163640014Y-89947877D01*
X163489670Y-89782651D01*
X163485619Y-89779452D01*
X163485615Y-89779448D01*
X163318414Y-89647400D01*
X163318410Y-89647398D01*
X163314359Y-89644198D01*
X163273053Y-89621396D01*
X163223084Y-89570964D01*
X163208312Y-89501521D01*
X163233428Y-89435116D01*
X163260780Y-89408509D01*
X163311441Y-89372373D01*
X163439860Y-89280773D01*
X163454590Y-89266095D01*
X163594435Y-89126737D01*
X163598096Y-89123089D01*
X163621389Y-89090674D01*
X163725435Y-88945877D01*
X163728453Y-88941677D01*
X163750774Y-88896515D01*
X163825136Y-88746053D01*
X163825137Y-88746051D01*
X163827430Y-88741411D01*
X163892370Y-88527669D01*
X163921529Y-88306190D01*
X163923156Y-88239600D01*
X163904852Y-88016961D01*
X163850431Y-87800302D01*
X163761354Y-87595440D01*
X163699273Y-87499477D01*
X163642822Y-87412217D01*
X163642820Y-87412214D01*
X163640014Y-87407877D01*
X163489670Y-87242651D01*
X163485619Y-87239452D01*
X163485615Y-87239448D01*
X163318414Y-87107400D01*
X163318410Y-87107398D01*
X163314359Y-87104198D01*
X163273053Y-87081396D01*
X163223084Y-87030964D01*
X163208312Y-86961521D01*
X163233428Y-86895116D01*
X163260780Y-86868509D01*
X163317096Y-86828339D01*
X163439860Y-86740773D01*
X163454590Y-86726095D01*
X163594435Y-86586737D01*
X163598096Y-86583089D01*
X163621389Y-86550674D01*
X163725435Y-86405877D01*
X163728453Y-86401677D01*
X163750774Y-86356515D01*
X163825136Y-86206053D01*
X163825137Y-86206051D01*
X163827430Y-86201411D01*
X163869433Y-86063162D01*
X163890865Y-85992623D01*
X163890865Y-85992621D01*
X163892370Y-85987669D01*
X163921529Y-85766190D01*
X163923156Y-85699600D01*
X163904852Y-85476961D01*
X163850431Y-85260302D01*
X163761354Y-85055440D01*
X163690841Y-84946443D01*
X163642822Y-84872217D01*
X163642820Y-84872214D01*
X163640014Y-84867877D01*
X163489670Y-84702651D01*
X163485619Y-84699452D01*
X163485615Y-84699448D01*
X163318414Y-84567400D01*
X163318410Y-84567398D01*
X163314359Y-84564198D01*
X163305996Y-84559581D01*
X163272569Y-84541129D01*
X163222598Y-84490697D01*
X163207826Y-84421254D01*
X163232942Y-84354848D01*
X163260294Y-84328241D01*
X163435328Y-84203392D01*
X163443200Y-84196739D01*
X163594052Y-84046412D01*
X163600730Y-84038565D01*
X163725003Y-83865620D01*
X163730313Y-83856783D01*
X163824670Y-83665867D01*
X163828469Y-83656272D01*
X163890377Y-83452510D01*
X163892555Y-83442437D01*
X163893986Y-83431562D01*
X163891775Y-83417378D01*
X163878617Y-83413600D01*
X161243225Y-83413600D01*
X161229694Y-83417573D01*
X161228257Y-83427566D01*
X161258565Y-83562046D01*
X161261645Y-83571875D01*
X161341770Y-83769203D01*
X161346413Y-83778394D01*
X161457694Y-83959988D01*
X161463777Y-83968299D01*
X161603213Y-84129267D01*
X161610580Y-84136483D01*
X161774434Y-84272516D01*
X161782881Y-84278431D01*
X161851969Y-84318803D01*
X161900693Y-84370442D01*
X161913764Y-84440225D01*
X161887033Y-84505996D01*
X161846584Y-84539352D01*
X161833607Y-84546107D01*
X161829474Y-84549210D01*
X161829471Y-84549212D01*
X161682685Y-84659422D01*
X161654965Y-84680235D01*
X161651393Y-84683973D01*
X161542006Y-84798440D01*
X161500629Y-84841738D01*
X161497715Y-84846010D01*
X161497714Y-84846011D01*
X161473045Y-84882175D01*
X161374743Y-85026280D01*
X161280688Y-85228905D01*
X161220989Y-85444170D01*
X161197251Y-85666295D01*
X161197548Y-85671448D01*
X161197548Y-85671451D01*
X161203011Y-85766190D01*
X161210110Y-85889315D01*
X161211247Y-85894361D01*
X161211248Y-85894367D01*
X161218925Y-85928430D01*
X161259222Y-86107239D01*
X161343266Y-86314216D01*
X161345965Y-86318620D01*
X161455411Y-86497220D01*
X161459987Y-86504688D01*
X161606250Y-86673538D01*
X161778126Y-86816232D01*
X161798845Y-86828339D01*
X161851445Y-86859076D01*
X161900169Y-86910714D01*
X161913240Y-86980497D01*
X161886509Y-87046269D01*
X161846055Y-87079627D01*
X161833607Y-87086107D01*
X161829474Y-87089210D01*
X161829471Y-87089212D01*
X161687512Y-87195798D01*
X161654965Y-87220235D01*
X161651393Y-87223973D01*
X161549070Y-87331048D01*
X161500629Y-87381738D01*
X161497715Y-87386010D01*
X161497714Y-87386011D01*
X161473045Y-87422175D01*
X161374743Y-87566280D01*
X161280688Y-87768905D01*
X161220989Y-87984170D01*
X161197251Y-88206295D01*
X161197548Y-88211448D01*
X161197548Y-88211451D01*
X161202830Y-88303051D01*
X161210110Y-88429315D01*
X161211247Y-88434361D01*
X161211248Y-88434367D01*
X161230753Y-88520915D01*
X161259222Y-88647239D01*
X161297461Y-88741411D01*
X161336541Y-88837653D01*
X161343266Y-88854216D01*
X161345965Y-88858620D01*
X161455647Y-89037605D01*
X161459987Y-89044688D01*
X161606250Y-89213538D01*
X161670470Y-89266854D01*
X161760737Y-89341795D01*
X161778126Y-89356232D01*
X161805748Y-89372373D01*
X161851445Y-89399076D01*
X161900169Y-89450714D01*
X161913240Y-89520497D01*
X161886509Y-89586269D01*
X161846055Y-89619627D01*
X161833607Y-89626107D01*
X161829474Y-89629210D01*
X161829471Y-89629212D01*
X161687512Y-89735798D01*
X161654965Y-89760235D01*
X161651393Y-89763973D01*
X161549070Y-89871048D01*
X161500629Y-89921738D01*
X161497715Y-89926010D01*
X161497714Y-89926011D01*
X161473045Y-89962175D01*
X161374743Y-90106280D01*
X161280688Y-90308905D01*
X161220989Y-90524170D01*
X161197251Y-90746295D01*
X161197548Y-90751448D01*
X161197548Y-90751451D01*
X161203094Y-90847637D01*
X161210110Y-90969315D01*
X161211247Y-90974361D01*
X161211248Y-90974367D01*
X161218925Y-91008430D01*
X161259222Y-91187239D01*
X161296417Y-91278839D01*
X161336541Y-91377653D01*
X161343266Y-91394216D01*
X161345965Y-91398620D01*
X161450152Y-91568638D01*
X161459987Y-91584688D01*
X161606250Y-91753538D01*
X161610225Y-91756838D01*
X161610231Y-91756844D01*
X161615425Y-91761156D01*
X161655059Y-91820060D01*
X161656555Y-91891041D01*
X161619439Y-91951562D01*
X161579168Y-91976080D01*
X161471946Y-92016276D01*
X161456351Y-92024814D01*
X161354276Y-92101315D01*
X161341715Y-92113876D01*
X161265214Y-92215951D01*
X161256676Y-92231546D01*
X161211522Y-92351994D01*
X161207895Y-92367249D01*
X161202369Y-92418114D01*
X161202000Y-92424928D01*
X161202000Y-93047485D01*
X161206475Y-93062724D01*
X161207865Y-93063929D01*
X161215548Y-93065600D01*
X162688000Y-93065600D01*
X162756121Y-93085602D01*
X162802614Y-93139258D01*
X162814000Y-93191600D01*
X162814000Y-94659484D01*
X162818475Y-94674723D01*
X162819865Y-94675928D01*
X162827548Y-94677599D01*
X163454669Y-94677599D01*
X163461490Y-94677229D01*
X163512352Y-94671705D01*
X163527604Y-94668079D01*
X163534270Y-94665580D01*
X163605078Y-94660397D01*
X163667447Y-94694318D01*
X163701576Y-94756573D01*
X163704500Y-94783562D01*
X163704500Y-105984406D01*
X163684498Y-106052527D01*
X163667595Y-106073501D01*
X161027500Y-108713595D01*
X160965188Y-108747621D01*
X160938405Y-108750500D01*
X159624866Y-108750500D01*
X159562684Y-108757255D01*
X159426295Y-108808385D01*
X159309739Y-108895739D01*
X159222385Y-109012295D01*
X159171255Y-109148684D01*
X159164500Y-109210866D01*
X159164500Y-111007134D01*
X157758500Y-111007134D01*
X157758500Y-102750000D01*
X158886526Y-102750000D01*
X158906391Y-103002403D01*
X158965495Y-103248591D01*
X159062384Y-103482502D01*
X159194672Y-103698376D01*
X159329036Y-103855695D01*
X159352380Y-103883027D01*
X159359102Y-103890898D01*
X159362858Y-103894106D01*
X159363899Y-103894995D01*
X159551624Y-104055328D01*
X159767498Y-104187616D01*
X159772068Y-104189509D01*
X159772072Y-104189511D01*
X159996836Y-104282611D01*
X160001409Y-104284505D01*
X160086032Y-104304821D01*
X160242784Y-104342454D01*
X160242790Y-104342455D01*
X160247597Y-104343609D01*
X160347416Y-104351465D01*
X160434345Y-104358307D01*
X160434352Y-104358307D01*
X160436801Y-104358500D01*
X160563199Y-104358500D01*
X160565648Y-104358307D01*
X160565655Y-104358307D01*
X160652584Y-104351465D01*
X160752403Y-104343609D01*
X160757210Y-104342455D01*
X160757216Y-104342454D01*
X160913968Y-104304821D01*
X160998591Y-104284505D01*
X161003164Y-104282611D01*
X161227928Y-104189511D01*
X161227932Y-104189509D01*
X161232502Y-104187616D01*
X161448376Y-104055328D01*
X161636101Y-103894995D01*
X161637142Y-103894106D01*
X161640898Y-103890898D01*
X161647621Y-103883027D01*
X161670964Y-103855695D01*
X161805328Y-103698376D01*
X161937616Y-103482502D01*
X162034505Y-103248591D01*
X162093609Y-103002403D01*
X162113474Y-102750000D01*
X162093609Y-102497597D01*
X162088357Y-102475717D01*
X162046777Y-102302527D01*
X162034505Y-102251409D01*
X162000551Y-102169437D01*
X161939511Y-102022072D01*
X161939509Y-102022068D01*
X161937616Y-102017498D01*
X161805328Y-101801624D01*
X161640898Y-101609102D01*
X161448376Y-101444672D01*
X161232502Y-101312384D01*
X161227932Y-101310491D01*
X161227928Y-101310489D01*
X161003164Y-101217389D01*
X161003162Y-101217388D01*
X160998591Y-101215495D01*
X160913968Y-101195179D01*
X160757216Y-101157546D01*
X160757210Y-101157545D01*
X160752403Y-101156391D01*
X160652584Y-101148535D01*
X160565655Y-101141693D01*
X160565648Y-101141693D01*
X160563199Y-101141500D01*
X160436801Y-101141500D01*
X160434352Y-101141693D01*
X160434345Y-101141693D01*
X160347416Y-101148535D01*
X160247597Y-101156391D01*
X160242790Y-101157545D01*
X160242784Y-101157546D01*
X160086032Y-101195179D01*
X160001409Y-101215495D01*
X159996838Y-101217388D01*
X159996836Y-101217389D01*
X159772072Y-101310489D01*
X159772068Y-101310491D01*
X159767498Y-101312384D01*
X159551624Y-101444672D01*
X159359102Y-101609102D01*
X159194672Y-101801624D01*
X159062384Y-102017498D01*
X159060491Y-102022068D01*
X159060489Y-102022072D01*
X158999449Y-102169437D01*
X158965495Y-102251409D01*
X158953223Y-102302527D01*
X158911644Y-102475717D01*
X158906391Y-102497597D01*
X158886526Y-102750000D01*
X157758500Y-102750000D01*
X157758500Y-94214269D01*
X161202001Y-94214269D01*
X161202371Y-94221090D01*
X161207895Y-94271952D01*
X161211521Y-94287204D01*
X161256676Y-94407654D01*
X161265214Y-94423249D01*
X161341715Y-94525324D01*
X161354276Y-94537885D01*
X161456351Y-94614386D01*
X161471946Y-94622924D01*
X161592394Y-94668078D01*
X161607649Y-94671705D01*
X161658514Y-94677231D01*
X161665328Y-94677600D01*
X162287885Y-94677600D01*
X162303124Y-94673125D01*
X162304329Y-94671735D01*
X162306000Y-94664052D01*
X162306000Y-93591715D01*
X162301525Y-93576476D01*
X162300135Y-93575271D01*
X162292452Y-93573600D01*
X161220116Y-93573600D01*
X161204877Y-93578075D01*
X161203672Y-93579465D01*
X161202001Y-93587148D01*
X161202001Y-94214269D01*
X157758500Y-94214269D01*
X157758500Y-80586295D01*
X161197251Y-80586295D01*
X161197548Y-80591448D01*
X161197548Y-80591451D01*
X161202830Y-80683051D01*
X161210110Y-80809315D01*
X161211247Y-80814361D01*
X161211248Y-80814367D01*
X161230753Y-80900915D01*
X161259222Y-81027239D01*
X161297461Y-81121411D01*
X161336541Y-81217653D01*
X161343266Y-81234216D01*
X161345965Y-81238620D01*
X161457182Y-81420110D01*
X161459987Y-81424688D01*
X161606250Y-81593538D01*
X161778126Y-81736232D01*
X161805748Y-81752373D01*
X161851955Y-81779374D01*
X161900679Y-81831012D01*
X161913750Y-81900795D01*
X161887019Y-81966567D01*
X161846562Y-81999927D01*
X161838457Y-82004146D01*
X161829738Y-82009636D01*
X161659433Y-82137505D01*
X161651726Y-82144348D01*
X161504590Y-82298317D01*
X161498104Y-82306327D01*
X161378098Y-82482249D01*
X161373000Y-82491223D01*
X161283338Y-82684383D01*
X161279775Y-82694070D01*
X161224389Y-82893783D01*
X161225912Y-82902207D01*
X161238292Y-82905600D01*
X163878344Y-82905600D01*
X163891875Y-82901627D01*
X163893180Y-82892547D01*
X163851214Y-82725475D01*
X163847894Y-82715724D01*
X163762972Y-82520414D01*
X163758105Y-82511339D01*
X163642426Y-82332526D01*
X163636136Y-82324357D01*
X163492806Y-82166840D01*
X163485273Y-82159815D01*
X163318139Y-82027822D01*
X163309556Y-82022120D01*
X163272602Y-82001720D01*
X163222631Y-81951287D01*
X163207859Y-81881845D01*
X163232975Y-81815439D01*
X163260327Y-81788832D01*
X163311441Y-81752373D01*
X163439860Y-81660773D01*
X163454590Y-81646095D01*
X163594435Y-81506737D01*
X163598096Y-81503089D01*
X163621389Y-81470674D01*
X163725435Y-81325877D01*
X163728453Y-81321677D01*
X163748709Y-81280693D01*
X163825136Y-81126053D01*
X163825137Y-81126051D01*
X163827430Y-81121411D01*
X163892370Y-80907669D01*
X163921529Y-80686190D01*
X163922495Y-80646646D01*
X163923074Y-80622965D01*
X163923074Y-80622961D01*
X163923156Y-80619600D01*
X163904852Y-80396961D01*
X163850431Y-80180302D01*
X163761354Y-79975440D01*
X163701020Y-79882178D01*
X163642822Y-79792217D01*
X163642820Y-79792214D01*
X163640014Y-79787877D01*
X163489670Y-79622651D01*
X163485619Y-79619452D01*
X163485615Y-79619448D01*
X163318414Y-79487400D01*
X163318410Y-79487398D01*
X163314359Y-79484198D01*
X163305996Y-79479581D01*
X163232209Y-79438849D01*
X163118789Y-79376238D01*
X163113920Y-79374514D01*
X163113916Y-79374512D01*
X162913087Y-79303395D01*
X162913083Y-79303394D01*
X162908212Y-79301669D01*
X162903119Y-79300762D01*
X162903116Y-79300761D01*
X162693373Y-79263400D01*
X162693367Y-79263399D01*
X162688284Y-79262494D01*
X162614452Y-79261592D01*
X162470081Y-79259828D01*
X162470079Y-79259828D01*
X162464911Y-79259765D01*
X162244091Y-79293555D01*
X162031756Y-79362957D01*
X161833607Y-79466107D01*
X161829474Y-79469210D01*
X161829471Y-79469212D01*
X161687512Y-79575798D01*
X161654965Y-79600235D01*
X161651393Y-79603973D01*
X161549070Y-79711048D01*
X161500629Y-79761738D01*
X161497715Y-79766010D01*
X161497714Y-79766011D01*
X161473045Y-79802175D01*
X161374743Y-79946280D01*
X161280688Y-80148905D01*
X161220989Y-80364170D01*
X161197251Y-80586295D01*
X157758500Y-80586295D01*
X157758500Y-74000000D01*
X158886526Y-74000000D01*
X158906391Y-74252403D01*
X158907545Y-74257210D01*
X158907546Y-74257216D01*
X158932239Y-74360068D01*
X158965495Y-74498591D01*
X158967388Y-74503162D01*
X158967389Y-74503164D01*
X159048840Y-74699803D01*
X159062384Y-74732502D01*
X159194672Y-74948376D01*
X159359102Y-75140898D01*
X159551624Y-75305328D01*
X159767498Y-75437616D01*
X159772068Y-75439509D01*
X159772072Y-75439511D01*
X159996836Y-75532611D01*
X160001409Y-75534505D01*
X160086032Y-75554821D01*
X160242784Y-75592454D01*
X160242790Y-75592455D01*
X160247597Y-75593609D01*
X160347416Y-75601465D01*
X160434345Y-75608307D01*
X160434352Y-75608307D01*
X160436801Y-75608500D01*
X160563199Y-75608500D01*
X160565648Y-75608307D01*
X160565655Y-75608307D01*
X160652584Y-75601465D01*
X160752403Y-75593609D01*
X160757210Y-75592455D01*
X160757216Y-75592454D01*
X160913968Y-75554821D01*
X160998591Y-75534505D01*
X161003164Y-75532611D01*
X161227928Y-75439511D01*
X161227932Y-75439509D01*
X161232502Y-75437616D01*
X161448376Y-75305328D01*
X161640898Y-75140898D01*
X161805328Y-74948376D01*
X161937616Y-74732502D01*
X161951161Y-74699803D01*
X162032611Y-74503164D01*
X162032612Y-74503162D01*
X162034505Y-74498591D01*
X162067761Y-74360068D01*
X162092454Y-74257216D01*
X162092455Y-74257210D01*
X162093609Y-74252403D01*
X162113474Y-74000000D01*
X162093609Y-73747597D01*
X162092033Y-73741030D01*
X162054821Y-73586032D01*
X162034505Y-73501409D01*
X161962921Y-73328590D01*
X161939511Y-73272072D01*
X161939509Y-73272068D01*
X161937616Y-73267498D01*
X161805328Y-73051624D01*
X161640898Y-72859102D01*
X161448376Y-72694672D01*
X161232502Y-72562384D01*
X161227932Y-72560491D01*
X161227928Y-72560489D01*
X161003164Y-72467389D01*
X161003162Y-72467388D01*
X160998591Y-72465495D01*
X160913968Y-72445179D01*
X160757216Y-72407546D01*
X160757210Y-72407545D01*
X160752403Y-72406391D01*
X160652584Y-72398535D01*
X160565655Y-72391693D01*
X160565648Y-72391693D01*
X160563199Y-72391500D01*
X160436801Y-72391500D01*
X160434352Y-72391693D01*
X160434345Y-72391693D01*
X160347416Y-72398535D01*
X160247597Y-72406391D01*
X160242790Y-72407545D01*
X160242784Y-72407546D01*
X160086032Y-72445179D01*
X160001409Y-72465495D01*
X159996838Y-72467388D01*
X159996836Y-72467389D01*
X159772072Y-72560489D01*
X159772068Y-72560491D01*
X159767498Y-72562384D01*
X159551624Y-72694672D01*
X159359102Y-72859102D01*
X159194672Y-73051624D01*
X159062384Y-73267498D01*
X159060491Y-73272068D01*
X159060489Y-73272072D01*
X159037079Y-73328590D01*
X158965495Y-73501409D01*
X158945179Y-73586032D01*
X158907968Y-73741030D01*
X158906391Y-73747597D01*
X158886526Y-74000000D01*
X157758500Y-74000000D01*
X157758500Y-71384500D01*
X157778502Y-71316379D01*
X157832158Y-71269886D01*
X157884500Y-71258500D01*
X191115500Y-71258500D01*
X191183621Y-71278502D01*
G37*
G04 #@! TD.AperFunction*
M02*
