M48
INCH
T1C0.0394
T2C0.0430
%
G90
G05
T1
X6.5157Y-4.4685
X6.6407Y-4.4685
X6.7657Y-4.4685
X7.4409Y-3.064
X7.4409Y-3.189
X7.4409Y-3.314
X6.998Y-4.2224
X7.148Y-4.2224
X7.4409Y-3.8937
X7.4409Y-4.0187
X7.4409Y-4.1437
X6.2992Y-3.1496
X6.2992Y-3.2746
X6.2992Y-3.3996
X6.9685Y-4.4685
X7.0935Y-4.4685
X7.2185Y-4.4685
X6.5846Y-4.2224
X6.7346Y-4.2224
X7.4409Y-3.4803
X7.4409Y-3.6053
X7.4409Y-3.7303
X6.2992Y-3.563
X6.2992Y-3.688
X6.2992Y-3.813
T2
X6.5701Y-2.8752
X6.5701Y-2.9752
X6.5701Y-3.0752
X6.5701Y-3.1752
X6.5701Y-3.2752
X6.5701Y-3.3752
X6.5701Y-3.4752
X6.5701Y-3.5752
X6.5701Y-3.6752
X6.5701Y-3.7752
X6.5701Y-3.8752
X6.5701Y-3.9752
X7.1701Y-2.8752
X7.1701Y-2.9752
X7.1701Y-3.0752
X7.1701Y-3.1752
X7.1701Y-3.2752
X7.1701Y-3.3752
X7.1701Y-3.4752
X7.1701Y-3.5752
X7.1701Y-3.6752
X7.1701Y-3.7752
X7.1701Y-3.8752
X7.1701Y-3.9752
T0
M30
